<?xml version="1.0" encoding="utf-8"?>
<!-- Generator: Adobe Illustrator 17.0.0, SVG Export Plug-In . SVG Version: 6.00 Build 0)  -->
<!DOCTYPE svg PUBLIC "-//W3C//DTD SVG 1.1//EN" "http://www.w3.org/Graphics/SVG/1.1/DTD/svg11.dtd">
<svg version="1.1" id="Layer_1" xmlns="http://www.w3.org/2000/svg" xmlns:xlink="http://www.w3.org/1999/xlink" x="0px" y="0px"
	 width="512px" height="512px" viewBox="0 0 512 512" enable-background="new 0 0 512 512" xml:space="preserve">
<g>
	<line fill="none" stroke="#B35047" x1="32" y1="0" x2="32" y2="512"/>
	<line fill="none" stroke="#B35047" x1="64" y1="0" x2="64" y2="512"/>
	<line fill="none" stroke="#B35047" x1="96" y1="0" x2="96" y2="512"/>
	<line fill="none" stroke="#B35047" x1="128" y1="0" x2="128" y2="512"/>
	<line fill="none" stroke="#B35047" x1="160" y1="0" x2="160" y2="512"/>
	<line fill="none" stroke="#B35047" x1="192" y1="0" x2="192" y2="512"/>
	<line fill="none" stroke="#B35047" x1="224" y1="0" x2="224" y2="512"/>
	<line fill="none" stroke="#B35047" x1="256" y1="0" x2="256" y2="512"/>
	<line fill="none" stroke="#B35047" x1="288" y1="0" x2="288" y2="512"/>
	<line fill="none" stroke="#B35047" x1="320" y1="0" x2="320" y2="512"/>
	<line fill="none" stroke="#B35047" x1="352" y1="0" x2="352" y2="512"/>
	<line fill="none" stroke="#B35047" x1="384" y1="0" x2="384" y2="512"/>
	<line fill="none" stroke="#B35047" x1="416" y1="0" x2="416" y2="512"/>
	<line fill="none" stroke="#B35047" x1="448" y1="0" x2="448" y2="512"/>
	<line fill="none" stroke="#B35047" x1="480" y1="0" x2="480" y2="512"/>
	<line fill="none" stroke="#B35047" x1="0" y1="32" x2="512" y2="32"/>
	<line fill="none" stroke="#B35047" x1="0" y1="64" x2="512" y2="64"/>
	<line fill="none" stroke="#B35047" x1="0" y1="96" x2="512" y2="96"/>
	<line fill="none" stroke="#B35047" x1="0" y1="128" x2="512" y2="128"/>
	<line fill="none" stroke="#B35047" x1="0" y1="160" x2="512" y2="160"/>
	<line fill="none" stroke="#B35047" x1="0" y1="192" x2="512" y2="192"/>
	<line fill="none" stroke="#B35047" x1="0" y1="224" x2="512" y2="224"/>
	<line fill="none" stroke="#B35047" x1="0" y1="256" x2="512" y2="256"/>
	<line fill="none" stroke="#B35047" x1="0" y1="288" x2="512" y2="288"/>
	<line fill="none" stroke="#B35047" x1="0" y1="320" x2="512" y2="320"/>
	<line fill="none" stroke="#B35047" x1="0" y1="352" x2="512" y2="352"/>
	<line fill="none" stroke="#B35047" x1="0" y1="384" x2="512" y2="384"/>
	<line fill="none" stroke="#B35047" x1="0" y1="416" x2="512" y2="416"/>
	<line fill="none" stroke="#B35047" x1="0" y1="448" x2="512" y2="448"/>
	<line fill="none" stroke="#B35047" x1="0" y1="480" x2="512" y2="480"/>
	<rect x="0" fill="none" stroke="#B35047" width="512" height="512"/>
</g>
<image display="none" overflow="visible" width="512" height="512" xlink:href="../../../Knowledge/Icon/[+++++] (Full) Windows 8 Icons [icons8]/Buzz/message/message-512.png"  transform="matrix(0.0406 0 0 0.0406 570 65)">
</image>
<image display="none" overflow="visible" width="512" height="512" xlink:href="../../../Knowledge/Icon/[+++++] (Full) Windows 8 Icons [icons8]/Buzz/invisible/invisible-512.png"  transform="matrix(0.0406 0 0 0.0406 570 65)">
</image>
<image display="none" overflow="visible" width="512" height="512" xlink:href="../../../Knowledge/Icon/[+++++] (Full) Windows 8 Icons [icons8]/Buzz/forward/forward-512.png"  transform="matrix(0.0406 0 0 0.0406 570 65)">
</image>
<image display="none" overflow="visible" width="512" height="512" xlink:href="../../../Knowledge/Icon/[+++++] (Full) Windows 8 Icons [icons8]/Buzz/visible/visible-512.png"  transform="matrix(0.0406 0 0 0.0406 570 65)">
</image>
<image display="none" overflow="visible" width="512" height="512" xlink:href="../../../Knowledge/Icon/[+++++] (Full) Windows 8 Icons [icons8]/Buzz/star/star-512.png"  transform="matrix(0.0406 0 0 0.0406 570 65)">
</image>
<image display="none" overflow="visible" width="512" height="512" xlink:href="../../../Knowledge/Icon/[+++++] (Full) Windows 8 Icons [icons8]/Buzz/speech_bubble/speech_bubble-512.png"  transform="matrix(0.0406 0 0 0.0406 570 65)">
</image>
<image display="none" overflow="visible" width="512" height="512" xlink:href="../../../Knowledge/Icon/[+++++] (Full) Windows 8 Icons [icons8]/Buzz/reply/reply-512.png"  transform="matrix(0.0406 0 0 0.0406 570 65)">
</image>
<image display="none" overflow="visible" width="512" height="512" xlink:href="../../../Knowledge/Icon/[+++++] (Full) Windows 8 Icons [icons8]/Buzz/read_message/read_message-512.png"  transform="matrix(0.0406 0 0 0.0406 570 65)">
</image>
<image display="none" overflow="visible" width="512" height="512" xlink:href="../../../Knowledge/Icon/[+++++] (Full) Windows 8 Icons [icons8]/Buzz/outline_star/outline_star-512.png"  transform="matrix(0.0406 0 0 0.0406 570 65)">
</image>
<image display="none" overflow="visible" width="512" height="512" xlink:href="../../../Knowledge/Icon/[+++++] (Full) Windows 8 Icons [icons8]/Buzz/message_outline/message_outline-512_.png"  transform="matrix(0.0406 0 0 0.0406 573 87)">
</image>
<image display="none" overflow="visible" width="512" height="512" xlink:href="../../../Knowledge/Icon/[+++++] (Full) Windows 8 Icons [icons8]/Buzz/recurring_appointment/recurring_appointment-512_.png"  transform="matrix(0.0406 0 0 0.0406 573 87)">
</image>
<image display="none" overflow="visible" width="512" height="512" xlink:href="../../../Knowledge/Icon/[+++++] (Full) Windows 8 Icons [icons8]/Buzz/appointment_reminders/appointment_reminders-512_.png"  transform="matrix(0.0406 0 0 0.0406 573 87)">
</image>
<g>
	<path d="M1,393.225c0-91.641,0-183.281,0-274.922c0.36-1.603,0.861-3.189,1.06-4.812c5.577-45.573,45.112-82.09,90.949-82.639
		c52.25-0.626,104.513-0.229,156.771-0.247c54.58-0.019,109.161-0.096,163.741,0.026c43.293,0.097,78.197,24.656,92.21,65.01
		c2.53,7.285,3.552,15.094,5.27,22.661c0,91.641,0,183.281,0,274.922c-0.365,1.763-0.627,3.554-1.113,5.283
		c-2.499,8.896-3.86,18.348-7.797,26.562c-17.859,37.267-48.168,56.078-89.277,56.205c-104.542,0.323-209.085,0.269-313.627,0.035
		c-47.634-0.107-84.112-28.734-95.46-74.01C2.566,402.671,1.897,397.92,1,393.225z M255.69,167.903c32.038,0,64.076,0,96.114,0
		c19.422,0,38.844-0.031,58.266,0.012c8.331,0.018,16.396-2.035,19.624-10.051c5.134-12.749,5.14-26.442,0.043-39.163
		c-3.477-8.679-12.222-10.195-21.038-10.19c-101.758,0.059-203.516,0.032-305.274,0.064c-2.808,0.001-5.659,0.157-8.417,0.652
		c-8.313,1.491-15.024,8.801-15.396,17.241c-0.343,7.785-0.34,15.607-0.009,23.393c0.368,8.664,7.19,16.011,15.776,17.418
		c2.929,0.48,5.944,0.598,8.919,0.6C154.762,167.913,205.226,167.903,255.69,167.903z M256.006,344.121c-32.37,0-64.741,0-97.111,0
		c-19.422,0-38.845,0.071-58.267-0.032c-7.113-0.037-13.013,2.228-17.344,7.975c-5.703,7.567-5.721,35.551-0.017,43.089
		c4.724,6.242,11.268,8.133,18.843,8.128c102.589-0.061,205.179-0.041,307.768-0.046c1.493,0,2.999,0.047,4.477-0.122
		c6.859-0.784,13.186-3.654,15.532-10.099c4.631-12.722,4.839-26.162-0.047-38.77c-3.099-7.999-10.965-10.199-19.453-10.18
		C358.927,344.181,307.467,344.123,256.006,344.121z M255.984,226.386c-50.629,0-101.258-0.003-151.886,0.01
		c-2.321,0.001-4.653,0.024-6.96,0.243c-9.835,0.934-17.226,8.485-17.594,18.353c-0.272,7.292-0.227,14.608,0,21.903
		c0.232,7.434,3.902,13.178,10.596,16.152c3.794,1.686,8.305,2.447,12.495,2.452c102.253,0.129,204.507,0.107,306.76,0.071
		c2.637-0.001,5.625,0.257,7.834-0.842c4.176-2.077,8.74-4.352,11.642-7.805c5.777-6.875,5.385-34.864,0.154-42.162
		c-4.707-6.568-11.406-8.433-19.163-8.419C358.57,226.43,307.277,226.387,255.984,226.386z"/>
	<path display="none" fill="#FFFFFF" d="M573.041,102.641c0.037,0.191,0.064,0.385,0.111,0.574c0.463,1.847,1.951,3.014,3.893,3.018
		c4.264,0.01,8.527,0.012,12.791-0.001c1.677-0.005,2.913-0.772,3.641-2.292c0.161-0.335,0.216-0.721,0.318-1.083
		c0.02-0.071,0.03-0.144,0.045-0.215c0,1.733,0,3.467,0,5.2c-6.933,0-13.867,0-20.8,0
		C573.041,106.107,573.041,104.374,573.041,102.641z"/>
	<path display="none" fill="#FFFFFF" d="M593.841,91.428c-0.07-0.309-0.112-0.627-0.215-0.924c-0.572-1.646-1.995-2.647-3.761-2.651
		c-2.226-0.005-4.452-0.002-6.678-0.001c-2.131,0.001-4.263-0.015-6.394,0.01c-1.869,0.022-3.482,1.512-3.709,3.37
		c-0.008,0.066-0.029,0.131-0.043,0.196c0-1.461,0-2.923,0-4.386c6.933,0,13.867,0,20.8,0
		C593.841,88.505,593.841,89.967,593.841,91.428z"/>
	<path display="none" fill="#FFFFFF" d="M583.428,93.451c-2.058,0-4.116,0-6.174-0.001c-0.121,0-0.244-0.005-0.364-0.024
		c-0.35-0.057-0.628-0.357-0.643-0.71c-0.013-0.318-0.014-0.637,0-0.954c0.015-0.344,0.289-0.642,0.628-0.703
		c0.112-0.02,0.229-0.027,0.343-0.027c4.15-0.001,8.3,0,12.45-0.003c0.36,0,0.716,0.062,0.858,0.416
		c0.208,0.519,0.208,1.077-0.002,1.597c-0.132,0.327-0.461,0.411-0.8,0.41c-0.792-0.002-1.584,0-2.376,0
		C586.041,93.451,584.735,93.451,583.428,93.451z"/>
	<path display="none" fill="#FFFFFF" d="M583.441,100.638c2.099,0,4.198,0.002,6.296-0.002c0.346-0.001,0.667,0.089,0.793,0.415
		c0.199,0.514,0.191,1.062,0.002,1.581c-0.096,0.263-0.354,0.38-0.633,0.412c-0.06,0.007-0.122,0.005-0.183,0.005
		c-4.184,0-8.368-0.001-12.552,0.002c-0.309,0-0.576-0.077-0.768-0.332c-0.233-0.307-0.232-1.449,0.001-1.757
		c0.177-0.234,0.417-0.327,0.707-0.325c0.792,0.004,1.584,0.001,2.376,0.001C580.8,100.638,582.121,100.638,583.441,100.638z"/>
	<path display="none" fill="#FFFFFF" d="M583.44,95.836c2.092,0,4.184,0.002,6.276-0.002c0.316-0.001,0.59,0.076,0.782,0.343
		c0.213,0.298,0.229,1.439-0.006,1.72c-0.118,0.141-0.305,0.234-0.475,0.318c-0.09,0.045-0.212,0.034-0.32,0.034
		c-4.17,0.001-8.341,0.002-12.511-0.003c-0.171,0-0.355-0.031-0.51-0.1c-0.273-0.121-0.423-0.356-0.432-0.659
		c-0.009-0.298-0.011-0.596,0-0.893c0.015-0.402,0.316-0.71,0.718-0.748c0.094-0.009,0.189-0.01,0.284-0.01
		C579.31,95.836,581.375,95.836,583.44,95.836z"/>
</g>
<g display="none">
	<path display="inline" d="M130.466,1c56.113,0,112.227,0,168.34,0c2.186,0.64,4.378,1.263,6.558,1.924
		c13.267,4.022,23.78,12.509,33.395,21.872c26.741,26.037,53.146,52.422,79.516,78.838c6.551,6.563,12.72,13.552,18.613,20.716
		c8.326,10.122,15.103,21.171,15.113,34.871c0.062,91.246,0.283,182.494-0.118,273.738c-0.151,34.296-21.294,62.684-53.189,73.648
		c-5.581,1.919-11.467,2.951-17.212,4.393c-83.672,0-167.344,0-251.016,0c-5.746-1.442-11.632-2.474-17.214-4.393
		c-32.738-11.26-53.261-40.558-53.321-76.145c-0.089-52.761-0.024-105.523-0.024-158.285c0-63.546-0.06-127.092,0.025-190.638
		c0.048-35.587,20.582-64.885,53.32-76.145C118.833,3.474,124.72,2.442,130.466,1z M98.796,255.901
		c0,57.273-0.033,114.546,0.061,171.819c0.008,4.77,0.244,9.706,1.458,14.278c5.004,18.841,19.755,29.973,40.064,30.004
		c77.028,0.117,154.056,0.074,231.084,0.013c9.481-0.008,18.346-2.308,26.033-8.291c11.419-8.887,15.678-20.872,15.672-34.902
		c-0.034-82.506-0.014-165.012-0.036-247.518c-0.001-1.981-0.352-3.959-0.426-5.943c-0.322-8.647-5.538-13.242-13.241-15.247
		c-4.447-1.158-9.137-1.842-13.73-1.908c-22.738-0.327-45.48-0.451-68.22-0.481c-7.38-0.01-14.393-1.455-18.122-8.132
		c-2.453-4.393-3.799-9.945-3.906-15.014c-0.466-22.07-0.125-44.156-0.473-66.23c-0.093-5.889-0.975-11.931-2.591-17.589
		c-2.026-7.095-7.606-10.844-14.392-10.846c-45.984-0.014-91.969-0.049-137.953,0.079c-13.504,0.038-24.867,5.011-33.252,15.97
		c-6.256,8.176-8.039,17.625-8.037,27.623C98.802,141.023,98.796,198.462,98.796,255.901z"/>
	<path fill="#FFFFFF" d="M588.559,107.841c0.234-0.059,0.474-0.101,0.702-0.179c1.301-0.447,2.163-1.605,2.169-3.004
		c0.016-3.721,0.007-7.443,0.005-11.164c0-0.559-0.277-1.009-0.616-1.422c-0.24-0.292-0.492-0.577-0.759-0.845
		c-1.075-1.077-2.152-2.153-3.243-3.215c-0.392-0.382-0.821-0.728-1.362-0.892c-0.089-0.027-0.178-0.052-0.267-0.078
		c2.883,0,5.765,0,8.651,0c0,6.933,0,13.867,0,20.8C592.078,107.841,590.319,107.841,588.559,107.841z"/>
	<path fill="#FFFFFF" d="M578.322,87.041c-0.234,0.059-0.474,0.101-0.702,0.179c-1.335,0.459-2.173,1.654-2.175,3.106
		c-0.003,2.592-0.001,5.183-0.001,7.775c0,2.152-0.003,4.304,0.001,6.456c0.003,1.451,0.839,2.646,2.175,3.106
		c0.228,0.078,0.468,0.12,0.702,0.179c-1.76,0-3.521,0-5.281,0c0-6.933,0-13.867,0-20.8
		C574.801,87.041,576.561,87.041,578.322,87.041z"/>
	<path fill="#FFFFFF" d="M577.03,97.437c0-2.343,0-4.685,0-7.028c0-0.408,0.073-0.793,0.328-1.127
		c0.342-0.447,0.805-0.65,1.356-0.651c1.875-0.005,3.751-0.004,5.626-0.003c0.277,0,0.504,0.153,0.587,0.442
		c0.066,0.231,0.102,0.477,0.106,0.717c0.014,0.9,0,1.801,0.019,2.701c0.004,0.207,0.059,0.433,0.159,0.612
		c0.152,0.272,0.438,0.331,0.739,0.332c0.927,0.001,1.855,0.006,2.782,0.02c0.187,0.003,0.379,0.031,0.56,0.078
		c0.314,0.082,0.527,0.269,0.54,0.622c0.003,0.081,0.017,0.162,0.017,0.242c0.001,3.365,0,6.73,0.001,10.095
		c0,0.572-0.173,1.061-0.639,1.423c-0.313,0.244-0.675,0.338-1.062,0.338c-3.142,0.003-6.283,0.004-9.425-0.001
		c-0.828-0.001-1.43-0.455-1.634-1.224c-0.05-0.186-0.059-0.388-0.06-0.582C577.029,102.108,577.03,99.772,577.03,97.437z
		 M583.464,97.686c-0.4,0.043-0.781,0.087-1.164,0.123c-0.734,0.068-1.468,0.133-2.202,0.194c-0.177,0.015-0.281,0.108-0.356,0.259
		c-0.193,0.386-0.222,0.789-0.127,1.203c0.132,0.577,0.232,0.659,0.814,0.691c0.034,0.002,0.068,0.001,0.101,0.004
		c0.91,0.066,1.82,0.137,2.731,0.195c0.176,0.011,0.209,0.084,0.205,0.239c-0.009,0.372-0.001,0.744-0.003,1.116
		c-0.001,0.193,0.034,0.369,0.225,0.463c0.189,0.093,0.346,0.015,0.506-0.097c1.093-0.766,2.043-1.687,2.926-2.681
		c0.252-0.283,0.262-0.455,0-0.722c-0.61-0.624-1.219-1.248-1.856-1.844c-0.349-0.326-0.747-0.603-1.135-0.885
		c-0.303-0.221-0.638-0.051-0.663,0.323c-0.008,0.115-0.003,0.23-0.003,0.345C583.464,96.964,583.464,97.315,583.464,97.686z"/>
	<path display="inline" d="M256.554,262.008c0-9.076-0.005-17.682,0.003-26.289c0.002-2.82-0.11-5.65,0.082-8.458
		c0.628-9.18,8.821-13.343,16.258-7.93c9.513,6.924,19.272,13.694,27.835,21.697c15.615,14.595,30.564,29.915,45.512,45.205
		c6.406,6.553,6.16,10.764-0.012,17.707c-21.662,24.369-44.955,46.958-71.752,65.741c-3.91,2.741-7.769,4.657-12.407,2.384
		c-4.689-2.298-5.554-6.62-5.529-11.353c0.048-9.125-0.136-18.253,0.078-27.373c0.089-3.801-0.725-5.595-5.038-5.87
		c-22.335-1.421-44.65-3.164-66.972-4.789c-0.827-0.06-1.659-0.045-2.487-0.09c-14.268-0.785-16.725-2.796-19.963-16.955
		c-2.323-10.155-1.602-20.037,3.123-29.503c1.844-3.694,4.405-5.982,8.733-6.344c18.008-1.506,36.009-3.096,54.002-4.766
		C237.397,264.151,246.755,263.05,256.554,262.008z"/>
</g>
</svg>
