<?xml version="1.0" encoding="utf-8"?>
<!-- Generator: Adobe Illustrator 17.0.0, SVG Export Plug-In . SVG Version: 6.00 Build 0)  -->
<!DOCTYPE svg PUBLIC "-//W3C//DTD SVG 1.1//EN" "http://www.w3.org/Graphics/SVG/1.1/DTD/svg11.dtd">
<svg version="1.1" id="Layer_1" xmlns="http://www.w3.org/2000/svg" xmlns:xlink="http://www.w3.org/1999/xlink" x="0px" y="0px"
	 width="512px" height="512px" viewBox="0 0 512 512" enable-background="new 0 0 512 512" xml:space="preserve">
<g>
	<line fill="none" stroke="#B35047" x1="32" y1="0" x2="32" y2="512"/>
	<line fill="none" stroke="#B35047" x1="64" y1="0" x2="64" y2="512"/>
	<line fill="none" stroke="#B35047" x1="96" y1="0" x2="96" y2="512"/>
	<line fill="none" stroke="#B35047" x1="128" y1="0" x2="128" y2="512"/>
	<line fill="none" stroke="#B35047" x1="160" y1="0" x2="160" y2="512"/>
	<line fill="none" stroke="#B35047" x1="192" y1="0" x2="192" y2="512"/>
	<line fill="none" stroke="#B35047" x1="224" y1="0" x2="224" y2="512"/>
	<line fill="none" stroke="#B35047" x1="256" y1="0" x2="256" y2="512"/>
	<line fill="none" stroke="#B35047" x1="288" y1="0" x2="288" y2="512"/>
	<line fill="none" stroke="#B35047" x1="320" y1="0" x2="320" y2="512"/>
	<line fill="none" stroke="#B35047" x1="352" y1="0" x2="352" y2="512"/>
	<line fill="none" stroke="#B35047" x1="384" y1="0" x2="384" y2="512"/>
	<line fill="none" stroke="#B35047" x1="416" y1="0" x2="416" y2="512"/>
	<line fill="none" stroke="#B35047" x1="448" y1="0" x2="448" y2="512"/>
	<line fill="none" stroke="#B35047" x1="480" y1="0" x2="480" y2="512"/>
	<line fill="none" stroke="#B35047" x1="0" y1="32" x2="512" y2="32"/>
	<line fill="none" stroke="#B35047" x1="0" y1="64" x2="512" y2="64"/>
	<line fill="none" stroke="#B35047" x1="0" y1="96" x2="512" y2="96"/>
	<line fill="none" stroke="#B35047" x1="0" y1="128" x2="512" y2="128"/>
	<line fill="none" stroke="#B35047" x1="0" y1="160" x2="512" y2="160"/>
	<line fill="none" stroke="#B35047" x1="0" y1="192" x2="512" y2="192"/>
	<line fill="none" stroke="#B35047" x1="0" y1="224" x2="512" y2="224"/>
	<line fill="none" stroke="#B35047" x1="0" y1="256" x2="512" y2="256"/>
	<line fill="none" stroke="#B35047" x1="0" y1="288" x2="512" y2="288"/>
	<line fill="none" stroke="#B35047" x1="0" y1="320" x2="512" y2="320"/>
	<line fill="none" stroke="#B35047" x1="0" y1="352" x2="512" y2="352"/>
	<line fill="none" stroke="#B35047" x1="0" y1="384" x2="512" y2="384"/>
	<line fill="none" stroke="#B35047" x1="0" y1="416" x2="512" y2="416"/>
	<line fill="none" stroke="#B35047" x1="0" y1="448" x2="512" y2="448"/>
	<line fill="none" stroke="#B35047" x1="0" y1="480" x2="512" y2="480"/>
	<rect x="0" fill="none" stroke="#B35047" width="512" height="512"/>
</g>
<image display="none" overflow="visible" width="512" height="512" xlink:href="../../../Knowledge/Icon/[+++++] (Full) Windows 8 Icons [icons8]/Adds/add_file/add_file-512.png"  transform="matrix(0.0406 0 0 0.0406 574 37)">
</image>
<image display="none" overflow="visible" width="512" height="512" xlink:href="../../../Knowledge/Icon/[+++++] (Full) Windows 8 Icons [icons8]/Adds/delete_link/delete_link-512.png"  transform="matrix(0.0406 0 0 0.0406 574 37)">
</image>
<image display="none" overflow="visible" width="512" height="512" xlink:href="../../../Knowledge/Icon/[+++++] (Full) Windows 8 Icons [icons8]/Adds/add_list/add_list-512.png"  transform="matrix(0.0406 0 0 0.0406 574 37)">
</image>
<image display="none" overflow="visible" width="512" height="512" xlink:href="../../../Knowledge/Icon/[+++++] (Full) Windows 8 Icons [icons8]/Adds/add_link/add_link-512.png"  transform="matrix(0.0406 0 0 0.0406 574 37)">
</image>
<g>
	<path display="none" fill="#FFFFFF" d="M513.339,513.488c-170.547,0-341.17,0-511.818,0c0-170.606,0-341.212,0-511.905
		c170.539,0,341.104,0,511.818,0C513.339,172.16,513.339,342.824,513.339,513.488z M240.529,395.008c-1.69,0-3.655,0-5.621,0
		c-56.602,0-113.205,0.004-169.807-0.002c-15.884-0.002-23.65-7.661-23.653-23.413c-0.015-82.663-0.016-165.326,0.001-247.988
		c0.003-15.462,7.809-23.275,23.331-23.277c122.002-0.021,244.005-0.023,366.007,0.003c15.283,0.003,23.025,7.795,23.029,22.962
		c0.012,39.837,0.275,79.678-0.224,119.51c-0.1,7.971,1.684,12.719,9.561,14.782c2.334,0.611,4.46,2.181,6.555,3.511
		c7.492,4.755,14.929,9.596,22.678,14.592c0.087-1.159,0.218-2.101,0.218-3.044c0.003-50.959,0.092-101.918-0.143-152.876
		c-0.028-6.029-1.083-12.295-2.95-18.031c-8.143-25.015-30.252-40.278-57.811-40.296c-68.886-0.045-137.771-0.015-206.657-0.016
		c-2.127,0-4.254,0-6.662,0c-0.471-3.848-0.683-7.315-1.344-10.694c-5.599-28.642-29.098-47.955-58.767-48.082
		C126.568,2.513,94.864,2.553,63.16,2.634C28.085,2.724,2.651,28.231,2.634,63.417C2.586,166.662,2.597,269.908,2.68,373.153
		c0.004,4.94,0.398,10.001,1.509,14.798c6.391,27.602,29.346,45.748,58.026,45.796c59.756,0.102,119.512,0.035,179.269,0.024
		c1.572,0,3.143-0.156,4.239-0.215C243.991,420.703,242.315,408.259,240.529,395.008z M281.023,395.004
		c0.396,63.24,51.368,113.912,114.21,113.539c63.129-0.375,113.825-51.571,113.283-114.4
		c-0.543-62.802-50.984-112.988-113.641-113.067C332.016,280.997,280.631,332.417,281.023,395.004z"/>
	<path d="M240.848,396.562c1.799,13.357,3.489,25.898,5.235,38.854c-1.104,0.059-2.689,0.216-4.273,0.216
		c-60.23,0.011-120.461,0.079-180.691-0.024c-28.908-0.049-52.044-18.339-58.486-46.16c-1.12-4.835-1.517-9.936-1.521-14.915
		C1.027,270.469,1.016,166.404,1.065,62.34C1.082,26.875,26.717,1.166,62.071,1.075c31.955-0.082,63.911-0.123,95.866,0.014
		c29.904,0.128,53.589,19.595,59.233,48.464c0.666,3.406,0.879,6.901,1.355,10.779c2.428,0,4.571,0,6.715,0
		c69.432,0,138.864-0.029,208.296,0.016c27.778,0.018,50.062,15.402,58.27,40.615c1.882,5.782,2.946,12.098,2.974,18.175
		c0.237,51.362,0.147,102.725,0.144,154.088c0,0.95-0.133,1.899-0.22,3.068c-7.81-5.036-15.306-9.915-22.858-14.708
		c-2.112-1.34-4.255-2.923-6.607-3.539c-7.939-2.079-9.737-6.864-9.636-14.899c0.502-40.147,0.238-80.304,0.225-120.458
		c-0.005-15.287-7.808-23.141-23.212-23.145c-122.97-0.026-245.941-0.024-368.911-0.003c-15.645,0.003-23.512,7.877-23.516,23.462
		c-0.018,83.319-0.016,166.637-0.001,249.956c0.003,15.877,7.831,23.597,23.841,23.599c57.051,0.006,114.103,0.002,171.154,0.002
		C237.163,396.562,239.145,396.562,240.848,396.562z"/>
	<path d="M281.663,396.558c-0.395-63.084,51.397-114.912,114.754-114.832c63.155,0.08,113.996,50.664,114.543,113.964
		c0.547,63.328-50.551,114.93-114.181,115.308C333.438,511.374,282.062,460.3,281.663,396.558z M376.305,416.216
		c0,13.378,0,26.294,0,39.239c13.702,0,26.636,0,40.26,0c0-13.147,0-25.922,0-39.36c13.453,0,26.219,0,38.981,0
		c0-13.51,0-26.329,0-39.74c-13.057,0-25.844,0-39.276,0c0-13.369,0-26.158,0-38.985c-13.61,0-26.555,0-40.092,0
		c0,13.167,0,25.945,0,39.295c-13.371,0-26.153,0-38.912,0c0,13.416,0,26.241,0,39.552
		C350.217,416.216,362.882,416.216,376.305,416.216z"/>
	<path display="none" fill="#FFFFFF" d="M374.92,414.508c-13.317,0-25.882,0-38.732,0c0-13.206,0-25.93,0-39.24
		c12.659,0,25.34,0,38.606,0c0-13.245,0-25.923,0-38.985c13.431,0,26.274,0,39.777,0c0,12.726,0,25.415,0,38.678
		c13.326,0,26.012,0,38.967,0c0,13.305,0,26.023,0,39.427c-12.662,0-25.327,0-38.674,0c0,13.333,0,26.007,0,39.051
		c-13.516,0-26.348,0-39.943,0C374.92,440.595,374.92,427.78,374.92,414.508z"/>
</g>
</svg>
