<?xml version="1.0" encoding="utf-8"?>
<!-- Generator: Adobe Illustrator 17.0.0, SVG Export Plug-In . SVG Version: 6.00 Build 0)  -->
<!DOCTYPE svg PUBLIC "-//W3C//DTD SVG 1.1//EN" "http://www.w3.org/Graphics/SVG/1.1/DTD/svg11.dtd">
<svg version="1.1" id="Layer_1" xmlns="http://www.w3.org/2000/svg" xmlns:xlink="http://www.w3.org/1999/xlink" x="0px" y="0px"
	 width="512px" height="512px" viewBox="0 0 512 512" enable-background="new 0 0 512 512" xml:space="preserve">
<g>
	<line fill="none" stroke="#B35047" x1="32" y1="0" x2="32" y2="512"/>
	<line fill="none" stroke="#B35047" x1="64" y1="0" x2="64" y2="512"/>
	<line fill="none" stroke="#B35047" x1="96" y1="0" x2="96" y2="512"/>
	<line fill="none" stroke="#B35047" x1="128" y1="0" x2="128" y2="512"/>
	<line fill="none" stroke="#B35047" x1="160" y1="0" x2="160" y2="512"/>
	<line fill="none" stroke="#B35047" x1="192" y1="0" x2="192" y2="512"/>
	<line fill="none" stroke="#B35047" x1="224" y1="0" x2="224" y2="512"/>
	<line fill="none" stroke="#B35047" x1="256" y1="0" x2="256" y2="512"/>
	<line fill="none" stroke="#B35047" x1="288" y1="0" x2="288" y2="512"/>
	<line fill="none" stroke="#B35047" x1="320" y1="0" x2="320" y2="512"/>
	<line fill="none" stroke="#B35047" x1="352" y1="0" x2="352" y2="512"/>
	<line fill="none" stroke="#B35047" x1="384" y1="0" x2="384" y2="512"/>
	<line fill="none" stroke="#B35047" x1="416" y1="0" x2="416" y2="512"/>
	<line fill="none" stroke="#B35047" x1="448" y1="0" x2="448" y2="512"/>
	<line fill="none" stroke="#B35047" x1="480" y1="0" x2="480" y2="512"/>
	<line fill="none" stroke="#B35047" x1="0" y1="32" x2="512" y2="32"/>
	<line fill="none" stroke="#B35047" x1="0" y1="64" x2="512" y2="64"/>
	<line fill="none" stroke="#B35047" x1="0" y1="96" x2="512" y2="96"/>
	<line fill="none" stroke="#B35047" x1="0" y1="128" x2="512" y2="128"/>
	<line fill="none" stroke="#B35047" x1="0" y1="160" x2="512" y2="160"/>
	<line fill="none" stroke="#B35047" x1="0" y1="192" x2="512" y2="192"/>
	<line fill="none" stroke="#B35047" x1="0" y1="224" x2="512" y2="224"/>
	<line fill="none" stroke="#B35047" x1="0" y1="256" x2="512" y2="256"/>
	<line fill="none" stroke="#B35047" x1="0" y1="288" x2="512" y2="288"/>
	<line fill="none" stroke="#B35047" x1="0" y1="320" x2="512" y2="320"/>
	<line fill="none" stroke="#B35047" x1="0" y1="352" x2="512" y2="352"/>
	<line fill="none" stroke="#B35047" x1="0" y1="384" x2="512" y2="384"/>
	<line fill="none" stroke="#B35047" x1="0" y1="416" x2="512" y2="416"/>
	<line fill="none" stroke="#B35047" x1="0" y1="448" x2="512" y2="448"/>
	<line fill="none" stroke="#B35047" x1="0" y1="480" x2="512" y2="480"/>
	<rect x="0" fill="none" stroke="#B35047" width="512" height="512"/>
</g>
<g>
	<path display="none" fill="#FFFFFF" d="M222.578,245.641c3.953,0,7.906,0,11.86,0c0,6.929,0,13.859,0,20.794
		c-6.931,0-13.865,0-20.798,0c0-1.227,0-2.459,0-3.691c0.015,0.058,0.036,0.116,0.045,0.175c0.209,1.488,1.526,2.691,3.025,2.702
		c2.66,0.02,5.32,0.008,7.98,0.009c0.03,0,0.059-0.008,0.059-0.008c-0.271-0.472-0.546-0.935-0.802-1.408
		c-0.068-0.125-0.135-0.168-0.275-0.168c-2.241,0.004-4.481,0.004-6.722,0.003c-1.024-0.001-1.719-0.675-1.72-1.696
		c-0.005-4.474-0.003-8.949-0.001-13.423c0-0.386,0.094-0.748,0.339-1.061c0.358-0.458,0.839-0.638,1.403-0.638
		c1.55-0.001,3.1-0.001,4.65-0.002c0.438,0,0.677,0.171,0.751,0.603c0.056,0.331,0.07,0.672,0.075,1.009
		c0.011,0.799-0.001,1.597,0.007,2.396c0.005,0.454,0.307,0.76,0.757,0.79c0.101,0.007,0.203,0.005,0.304,0.006
		c0.927,0.008,1.856-0.01,2.781,0.033c0.749,0.034,0.966,0.317,0.956,0.995c-0.013,0.853-0.003,1.706-0.003,2.559
		c0,0.07,0.006,0.141,0.009,0.2c0.531-0.138,1.045-0.272,1.564-0.407c0.002-0.018,0.007-0.045,0.007-0.071
		c0-1.097,0.004-2.193-0.003-3.29c-0.001-0.159-0.035-0.324-0.085-0.476c-0.162-0.502-0.484-0.908-0.843-1.276
		c-1.136-1.161-2.279-2.315-3.435-3.457C223.927,246.307,223.36,245.799,222.578,245.641z M229.651,257.003
		c-2.553-0.017-4.651,2.075-4.651,4.639c0,2.552,2.046,4.611,4.61,4.638c2.559,0.027,4.651-2.042,4.669-4.617
		C234.296,259.098,232.232,257.02,229.651,257.003z"/>
	<path d="M221.861,1c19.32,3.922,33.321,16.474,46.633,29.63c28.55,28.213,56.804,56.73,84.869,85.426
		c8.881,9.081,16.845,19.126,20.841,31.529c1.214,3.767,2.064,7.834,2.09,11.77c0.179,27.096,0.096,54.193,0.086,81.29
		c0,0.66-0.135,1.32-0.183,1.76c-12.833,3.34-25.517,6.642-38.644,10.058c-0.068-1.464-0.216-3.202-0.218-4.94
		c-0.016-21.075-0.253-42.154,0.066-63.225c0.254-16.746-5.102-23.734-23.612-24.584c-22.872-1.051-45.813-0.604-68.725-0.81
		c-2.508-0.022-5.023,0.032-7.522-0.136c-11.132-0.752-18.598-8.308-18.71-19.526c-0.198-19.735,0.091-39.476-0.168-59.21
		c-0.11-8.328-0.449-16.755-1.841-24.94c-1.815-10.671-7.734-14.899-18.546-14.895c-38.304,0.016-76.607,0.034-114.911,0.05
		c-13.948,0.006-25.835,4.462-34.68,15.77c-6.049,7.734-8.378,16.668-8.383,26.216c-0.058,110.562-0.106,221.125,0.015,331.687
		c0.028,25.232,17.202,41.905,42.513,41.921c55.365,0.035,110.73,0.042,166.094-0.064c3.447-0.007,5.113,1.06,6.787,4.154
		c6.326,11.693,13.118,23.134,19.806,34.792c0.021-0.003-0.713,0.205-1.448,0.205c-65.735-0.018-131.472,0.278-197.203-0.212
		C39.817,494.44,7.27,464.709,2.11,427.945c-0.205-1.461-0.726-2.878-1.1-4.316c0-117.118,0-234.236,0-351.354
		c0.353-1.085,0.848-2.146,1.039-3.258C7.33,38.285,24.429,17.131,53.561,6.008C59.564,3.716,66.031,2.638,72.284,1
		C122.143,1,172.002,1,221.861,1z"/>
	<path display="none" fill="#FFFFFF" d="M216.525,245.641c-0.253,0.066-0.515,0.11-0.758,0.203c-1.179,0.45-1.871,1.306-2.085,2.55
		c-0.008,0.045-0.028,0.088-0.042,0.132c0-0.961,0-1.923,0-2.884C214.602,245.641,215.564,245.641,216.525,245.641z"/>
	<path d="M396.645,281.759c63.781,0.437,114.775,51.788,114.343,115.143c-0.434,63.632-52.136,114.763-115.366,114.091
		c-63.344-0.673-113.902-51.542-113.909-114.608C281.707,333.037,333.555,281.327,396.645,281.759z M376.15,337.243
		c0,13.394,0,26.169,0,39.336c-13.257,0-25.916,0-38.798,0c0,13.349,0,26.285,0,39.907c13.1,0,25.875,0,39.226,0
		c0,13.458,0,26.238,0,38.94c13.535,0,26.465,0,40.087,0c0-13.185,0-25.956,0-39.199c13.353,0,26.01,0,38.875,0
		c0-13.445,0-26.386,0-39.918c-13.095,0-25.882,0-39.319,0c0-13.358,0-26.137,0-39.066
		C402.726,337.243,389.901,337.243,376.15,337.243z"/>
	<path display="none" fill="#FFFFFF" d="M228.822,259.248c0.556,0,1.075,0,1.622,0c0,0.523,0,1.04,0,1.581c0.544,0,1.061,0,1.591,0
		c0,0.548,0,1.071,0,1.615c-0.521,0-1.033,0-1.573,0c0,0.536,0,1.053,0,1.586c-0.551,0-1.074,0-1.622,0c0-0.514,0-1.031,0-1.576
		c-0.54,0-1.057,0-1.587,0c0-0.551,0-1.075,0-1.615c0.521,0,1.034,0,1.57,0C228.822,260.307,228.822,259.79,228.822,259.248z"/>
</g>
<g display="none">
	<path fill="#FFFFFF" d="M228.707,219.041c6.933,0,13.867,0,20.8,0c0,6.933,0,13.867,0,20.8c-6.933,0-13.867,0-20.8,0
		C228.707,232.907,228.707,225.974,228.707,219.041z M236.35,231.699c-0.038,0.048-0.076,0.105-0.123,0.152
		c-0.569,0.57-1.137,1.141-1.709,1.708c-0.435,0.43-0.937,0.731-1.564,0.772c-1.072,0.069-1.936-0.73-1.943-1.803
		c-0.004-0.646,0.266-1.181,0.711-1.63c1.116-1.124,2.234-2.246,3.359-3.36c0.508-0.503,1.114-0.777,1.847-0.719
		c0.475,0.038,0.848,0.271,1.202,0.575c0.41,0.352,1.007,0.317,1.411-0.046c0.376-0.338,0.473-0.941,0.183-1.369
		c-0.133-0.197-0.321-0.367-0.51-0.516c-1.588-1.245-3.893-1.09-5.361,0.255c-1.301,1.193-2.534,2.461-3.761,3.731
		c-0.983,1.018-1.435,2.259-1.214,3.677c0.243,1.557,1.137,2.642,2.616,3.158c1.587,0.553,3.054,0.192,4.279-0.924
		c1.124-1.025,2.168-2.138,3.246-3.214c0.01-0.01,0.013-0.027,0.012-0.026C238.099,232.327,237.225,232.185,236.35,231.699z
		 M238.64,223.97c0.039-0.037,0.089-0.082,0.136-0.129c0.57-0.569,1.14-1.139,1.71-1.708c0.325-0.325,0.697-0.569,1.141-0.711
		c1.104-0.353,2.266,0.405,2.367,1.553c0.064,0.728-0.219,1.323-0.717,1.825c-1.106,1.115-2.219,2.224-3.331,3.332
		c-0.41,0.409-0.896,0.676-1.479,0.73c-0.6,0.056-1.104-0.151-1.554-0.554c-0.442-0.396-1.109-0.339-1.499,0.087
		c-0.401,0.439-0.387,1.094,0.041,1.52c0.403,0.402,0.872,0.714,1.412,0.892c1.625,0.536,3.117,0.236,4.362-0.908
		c1.3-1.194,2.532-2.465,3.755-3.739c0.867-0.903,1.284-2.015,1.191-3.277c-0.113-1.531-0.883-2.658-2.253-3.327
		c-1.533-0.748-3.403-0.451-4.662,0.738c-1.112,1.05-2.175,2.151-3.26,3.23c-0.01,0.01-0.011,0.03-0.014,0.037
		C236.925,223.345,237.797,223.505,238.64,223.97z M245.525,237.62c0.06,0.074,0.102,0.137,0.154,0.19
		c0.593,0.595,1.185,1.189,1.781,1.78c0.246,0.244,0.541,0.246,0.788,0.005c0.339-0.331,0.674-0.666,1.006-1.004
		c0.251-0.256,0.249-0.548-0.004-0.804c-0.52-0.524-1.041-1.046-1.565-1.565c-0.124-0.123-0.262-0.234-0.434-0.387
		c0.102-0.075,0.17-0.112,0.222-0.164c0.595-0.592,1.189-1.185,1.781-1.78c0.246-0.247,0.251-0.543,0.012-0.788
		c-0.336-0.344-0.676-0.684-1.02-1.019c-0.247-0.242-0.537-0.236-0.788,0.011c-0.328,0.323-0.652,0.65-0.977,0.976
		c-0.32,0.321-0.639,0.642-1.005,1.01c-0.05-0.077-0.082-0.148-0.134-0.2c-0.587-0.591-1.175-1.18-1.765-1.767
		c-0.276-0.275-0.557-0.276-0.832-0.005c-0.323,0.319-0.644,0.639-0.963,0.961c-0.28,0.283-0.279,0.563,0.004,0.847
		c0.588,0.59,1.177,1.178,1.766,1.767c0.05,0.05,0.097,0.104,0.167,0.179c-0.069,0.058-0.131,0.102-0.183,0.154
		c-0.585,0.583-1.169,1.166-1.752,1.752c-0.282,0.283-0.28,0.562,0.002,0.847c0.3,0.303,0.603,0.604,0.904,0.905
		c0.343,0.342,0.592,0.343,0.933,0.003C244.245,238.901,244.867,238.278,245.525,237.62z"/>
	<path display="inline" d="M187.246,311.282c21.613,11.993,43.24,15.513,66.241,10.484c0.02-0.047-0.045,0.385-0.294,0.633
		c-26.663,26.579-52.456,54.114-80.254,79.448c-30.271,27.589-66.559,36.512-105.784,22.833
		c-36.561-12.75-58.682-39.585-64.68-78.076c-5.465-35.069,5.689-65.74,30.003-90.909c30.336-31.401,60.836-62.761,92.996-92.251
		c36.278-33.266,93.28-37.089,132.537-6.314c4.682,3.671,9.316,7.871,12.614,12.745c7.15,10.569,4.761,25.485-4.535,33.836
		c-9.991,8.976-24.751,9.84-34.881,1.146c-8.743-7.504-17.967-13.268-29.711-14.209c-18.102-1.45-33.105,5.332-45.655,17.769
		c-27.813,27.562-55.467,55.286-83.045,83.082c-11,11.087-17.679,24.322-17.574,40.286c0.173,26.523,21.531,46.279,48.046,44.577
		c15.517-0.996,27.932-8.436,38.678-19.079c14.148-14.013,28.195-28.128,42.253-42.23
		C185.372,313.875,186.305,312.458,187.246,311.282z"/>
	<path display="inline" d="M243.844,120.176c-20.843-11.475-42.403-15.452-65.574-10.041c0.064-0.187,0.083-0.674,0.336-0.926
		c26.806-26.677,53.101-53.896,80.591-79.849c31.136-29.395,77.364-36.75,115.257-18.248c33.856,16.531,52.89,44.402,55.694,82.252
		c2.312,31.205-8.004,58.69-29.441,81.017c-30.244,31.498-60.702,62.913-92.841,92.434c-30.774,28.267-67.66,35.687-107.838,22.444
		c-13.369-4.406-24.944-12.111-34.917-22.05c-10.579-10.542-10.928-26.74-1.01-37.585c9.634-10.534,26.118-11.95,37.052-2.157
		c11.128,9.967,23.585,15.08,38.42,13.695c14.412-1.345,26.439-7.951,36.574-18.057c27.496-27.414,55-54.821,82.344-82.386
		c12.317-12.417,19.306-27.128,17.722-45.127c-2.497-28.38-31.23-47.124-58.53-38.401c-10.972,3.506-20.167,9.547-28.214,17.579
		c-14.096,14.069-28.176,28.155-42.27,42.225C246.035,118.158,244.812,119.261,243.844,120.176z"/>
	<path display="inline" d="M414.076,457.65c-16.279,16.287-31.649,31.672-47.029,47.049c-8.424,8.422-14.59,8.402-23.069-0.064
		c-7.461-7.449-14.94-14.881-22.359-22.373c-6.989-7.057-7.023-13.947-0.058-20.942c14.406-14.468,28.856-28.892,43.317-43.305
		c1.298-1.294,2.809-2.373,4.526-3.807c-1.724-1.853-2.887-3.184-4.134-4.432c-14.546-14.564-29.121-29.1-43.654-43.678
		c-6.994-7.015-7.026-13.945-0.091-20.939c7.894-7.962,15.823-15.891,23.805-23.766c6.81-6.718,13.744-6.683,20.569,0.113
		c14.586,14.525,29.139,29.082,43.64,43.692c1.274,1.283,2.06,3.05,3.306,4.947c9.04-9.087,16.931-17.035,24.841-24.963
		c8.037-8.056,16.046-16.142,24.157-24.124c6.206-6.107,13.383-6.241,19.493-0.267c8.495,8.307,16.898,16.71,25.206,25.205
		c5.915,6.048,5.778,13.361-0.301,19.478c-14.627,14.72-29.317,29.378-44.032,44.01c-1.298,1.29-2.967,2.207-5.496,4.05
		c4.268,3.779,7.66,6.508,10.737,9.556c12.958,12.839,25.858,25.737,38.704,38.688c6.266,6.317,6.311,13.548,0.106,19.868
		c-8.207,8.359-16.492,16.644-24.866,24.834c-6.089,5.955-13.399,5.898-19.471-0.13c-14.728-14.62-29.381-29.314-44.03-44.012
		C416.598,461.041,415.56,459.49,414.076,457.65z"/>
</g>
<g display="none">
	<path fill="#FFFFFF" d="M216.436,250.041c1.246,0,2.492,0,3.737,0c0,6.933,0,13.867,0,20.8c-6.933,0-13.867,0-20.8,0
		c0-1.517,0-3.033,0-4.55c0.022,0.091,0.045,0.182,0.067,0.273c0.275,1.139,1.211,1.871,2.411,1.872
		c2.505,0.003,5.01,0.001,7.514,0.001c0.065,0,0.129-0.006,0.185-0.009c-0.112-0.436-0.227-0.858-0.326-1.283
		c-0.068-0.291-0.058-0.294-0.369-0.294c-2.308,0-4.617,0-6.925,0.001c-0.271,0-0.526-0.039-0.728-0.244
		c-0.2-0.204-0.242-0.457-0.242-0.73c0.001-4.421,0.001-8.841,0.001-13.262c0-0.681,0.309-0.986,0.997-0.986
		c4.678,0,9.356,0.004,14.034-0.005c0.55-0.001,0.997,0.278,0.991,0.997c-0.021,2.301-0.008,4.603-0.008,6.905
		c0,0.455,0,0.455,0.422,0.6c0.045,0.015,0.089,0.033,0.132,0.052c0.337,0.149,0.674,0.298,1.025,0.453
		c0.005-0.05,0.013-0.095,0.013-0.141c0-2.667,0.011-5.335-0.005-8.002c-0.007-1.209-0.75-2.121-1.876-2.386
		C216.604,250.084,216.52,250.062,216.436,250.041z M210.734,266.034c-0.015,2.548,2.057,4.629,4.623,4.646
		c2.555,0.016,4.632-2.041,4.656-4.61c0.023-2.562-2.03-4.636-4.62-4.667C212.847,261.372,210.748,263.458,210.734,266.034z
		 M210.993,254.1c-1.184,0-2.368-0.002-3.552,0.001c-0.53,0.001-0.848,0.312-0.863,0.838c-0.007,0.237-0.006,0.474,0,0.71
		c0.007,0.295,0.106,0.561,0.376,0.697c0.173,0.087,0.386,0.132,0.581,0.133c2.294,0.009,4.587,0.006,6.881,0.006
		c0.041,0,0.081,0.001,0.122-0.001c0.515-0.026,0.822-0.341,0.833-0.857c0.004-0.189-0.009-0.379,0.003-0.568
		c0.034-0.547-0.29-0.98-0.949-0.965C213.28,254.118,212.136,254.1,210.993,254.1z M215.371,259.719c0-0.185,0-0.42,0-0.655
		c-0.001-0.668-0.302-0.973-0.962-0.973c-2.288,0-4.575,0-6.863,0c-0.061,0-0.122-0.002-0.183,0.003
		c-0.426,0.03-0.725,0.297-0.771,0.722c-0.026,0.241-0.015,0.486-0.015,0.73c0,0.628,0.307,0.933,0.935,0.933
		c1.584,0,3.168,0.003,4.751-0.005c0.161-0.001,0.327-0.057,0.483-0.109c0.307-0.104,0.6-0.256,0.913-0.328
		C214.209,259.91,214.77,259.828,215.371,259.719z M210.485,262.118c-0.038-0.009-0.057-0.017-0.076-0.017
		c-1.015,0-2.031-0.007-3.046,0.004c-0.462,0.005-0.764,0.329-0.785,0.811c-0.009,0.223-0.004,0.447-0.002,0.67
		c0.005,0.573,0.319,0.892,0.895,0.897c0.562,0.005,1.124-0.002,1.685,0.004c0.122,0.001,0.169-0.043,0.215-0.156
		c0.203-0.499,0.408-0.999,0.642-1.484C210.135,262.595,210.318,262.373,210.485,262.118z M203.77,260.479
		c0.122,0,0.243,0.002,0.365,0c0.487-0.007,0.813-0.318,0.833-0.807c0.011-0.256,0.011-0.514,0-0.77
		c-0.021-0.478-0.34-0.792-0.815-0.808c-0.256-0.008-0.514-0.01-0.77,0.001c-0.476,0.019-0.79,0.346-0.797,0.82
		c-0.004,0.257-0.005,0.514,0.001,0.77c0.01,0.46,0.337,0.782,0.799,0.793C203.513,260.482,203.642,260.479,203.77,260.479z
		 M203.785,262.1c0,0.002,0,0.003,0,0.005c-0.155,0-0.311-0.008-0.466,0.002c-0.408,0.025-0.719,0.342-0.731,0.751
		c-0.009,0.283-0.008,0.567-0.001,0.851c0.01,0.398,0.286,0.719,0.68,0.754c0.315,0.028,0.635,0.031,0.95,0.009
		c0.438-0.03,0.719-0.323,0.747-0.761c0.017-0.276,0.017-0.554,0.002-0.83c-0.026-0.471-0.341-0.764-0.816-0.779
		C204.028,262.097,203.906,262.1,203.785,262.1z M202.584,255.231c0,0,0.001,0,0.001,0c0,0.142-0.004,0.284,0.001,0.426
		c0.013,0.415,0.309,0.737,0.721,0.762c0.29,0.018,0.582,0.018,0.873,0.006c0.455-0.018,0.757-0.314,0.784-0.769
		c0.016-0.277,0.016-0.556,0-0.832c-0.027-0.456-0.33-0.749-0.785-0.769c-0.27-0.012-0.542-0.012-0.812,0
		c-0.473,0.021-0.774,0.339-0.782,0.81C202.583,254.987,202.584,255.109,202.584,255.231z"/>
	<path display="inline" d="M422.633,1c2.071,0.517,4.136,1.061,6.214,1.548c27.837,6.532,46.187,29.067,46.361,58.951
		c0.384,65.907,0.129,131.818,0.118,197.727c0,1.117-0.208,2.235-0.331,3.472c-8.667-3.83-16.995-7.517-25.331-11.188
		c-1.069-0.471-2.158-0.905-3.262-1.285c-10.42-3.585-10.421-3.58-10.421-14.834c0-56.876-0.323-113.755,0.19-170.626
		c0.16-17.78-10.896-24.667-24.486-24.641c-115.592,0.225-231.184,0.127-346.776,0.131C47.9,40.255,40.268,47.8,40.267,64.631
		c-0.005,109.235,0.007,218.471-0.027,327.706c-0.002,6.728,1.03,12.984,5.978,18.028c4.981,5.077,11.285,6.043,17.987,6.04
		c57.043-0.023,114.087-0.013,171.13-0.013c7.686,0,7.432,0.06,9.107,7.259c2.447,10.516,5.301,20.937,8.062,31.71
		c-1.386,0.068-2.983,0.213-4.58,0.214c-61.895,0.011-123.789,0.061-185.683-0.014c-29.648-0.036-52.79-18.123-59.583-46.264
		c-0.544-2.252-1.097-4.501-1.645-6.752c0-116.113,0-232.227,0-348.34c0.343-1.099,0.802-2.176,1.013-3.3
		C6.356,27.77,19.728,12.289,41.729,4.258C45.752,2.79,50.047,2.067,54.216,1C177.022,1,299.827,1,422.633,1z"/>
	<path fill="#FFFFFF" d="M201.527,250.041c-0.169,0.043-0.343,0.072-0.505,0.132c-0.89,0.325-1.432,0.951-1.607,1.888
		c-0.009,0.045-0.027,0.089-0.041,0.134c0-0.714,0-1.429,0-2.153C200.092,250.041,200.809,250.041,201.527,250.041z"/>
	<path display="inline" d="M281.713,396.205c0.364-63.646,52.22-115.204,115.109-114.446
		c64.01,0.771,114.736,52.011,114.162,115.319c-0.575,63.49-51.906,114.322-115.04,113.92
		C332.536,510.594,281.353,459.159,281.713,396.205z M376.545,455.539c13.37,0,26.307,0,39.93,0c0-13.072,0-25.852,0-39.276
		c13.459,0,26.247,0,38.987,0c0-13.62,0-26.57,0-40.102c-13.176,0-25.962,0-39.218,0c0-13.245,0-25.908,0-38.839
		c-13.431,0-26.369,0-39.899,0c0,13.092,0,25.875,0,39.222c-13.369,0-26.155,0-38.906,0c0,13.519,0,26.45,0,40.08
		c13.179,0,25.939,0,39.106,0C376.545,429.98,376.545,442.633,376.545,455.539z"/>
	<path display="inline" d="M288.125,101.317c28.254-0.001,56.517,0.433,84.758-0.168c16.303-0.347,24.31,10.345,23.459,23.858
		c-0.294,4.663,0.032,9.361-0.066,14.04c-0.267,12.76-7.852,20.534-20.578,21.175c-1.001,0.05-2.006,0.024-3.009,0.024
		c-56.675,0.001-113.35,0.079-170.024-0.139c-4.821-0.019-10.071-1.144-14.352-3.291c-6.669-3.345-9.113-9.936-9.282-17.217
		c-0.136-5.848-0.166-11.706,0-17.553c0.369-12.986,8.24-20.674,21.324-20.705C229.611,101.269,258.868,101.318,288.125,101.317z"/>
	<path display="inline" d="M396.295,240.167c-14.841,2.688-28.692,4.71-42.286,7.848c-7.734,1.785-14.993,5.556-22.573,8.116
		c-3.853,1.301-7.938,2.682-11.925,2.702c-39.134,0.2-78.27,0.127-117.405,0.117c-15.515-0.004-23.091-7.55-23.098-23.064
		c-0.003-6.015-0.282-12.08,0.365-18.035c1.14-10.493,8.511-17.104,19.045-17.835c1.499-0.104,3.009-0.063,4.514-0.063
		c56.529-0.003,113.058-0.006,169.586,0c16.317,0.002,23.762,7.542,23.775,24.04C396.299,229.793,396.295,235.592,396.295,240.167z"
		/>
	<path display="inline" d="M275.578,299.444c-4.132,6.284-8.656,11.791-11.663,18.03c-5.776,11.987-10.831,24.332-15.855,36.664
		c-1.133,2.782-2.281,3.88-5.303,3.848c-13.881-0.146-27.765,0.039-41.646-0.095c-14.219-0.137-21.973-8.004-22.107-22.172
		c-0.052-5.519-0.189-11.047,0.045-16.557c0.506-11.911,7.982-19.934,19.395-20.05c25.085-0.255,50.175-0.096,75.263-0.089
		C274.177,299.024,274.647,299.228,275.578,299.444z"/>
	<path display="inline" d="M109.639,258.945c-3.173-0.004-6.347,0.06-9.517-0.015c-11.424-0.268-19.507-8.243-19.745-19.598
		c-0.133-6.342-0.107-12.691-0.015-19.034c0.17-11.724,7.923-19.795,19.687-20.275c6.335-0.259,12.694-0.223,19.032-0.017
		c11.755,0.381,19.637,8.156,20.151,19.964c0.276,6.333,0.272,12.697,0.009,19.031c-0.502,12.081-8.551,19.757-20.585,19.941
		C115.651,258.988,112.645,258.949,109.639,258.945z"/>
	<path display="inline" d="M110.006,298.999c3.005,0,6.012-0.079,9.013,0.014c11.725,0.364,19.51,7.604,20.163,19.245
		c0.382,6.821,0.393,13.703-0.038,20.519c-0.685,10.826-7.622,18.053-18.452,18.801c-7.791,0.539-15.702,0.478-23.479-0.216
		c-9.742-0.869-16.572-8.806-16.809-18.635c-0.169-7.006-0.195-14.025,0.018-21.029c0.308-10.107,7.988-17.944,18.071-18.551
		c3.824-0.23,7.674-0.037,11.511-0.037C110.006,299.074,110.006,299.037,110.006,298.999z"/>
	<path display="inline" d="M80.343,129.259c0-3.011-0.046-6.024,0.008-9.034c0.209-11.645,7.641-19.492,19.328-20.014
		c6.678-0.298,13.39-0.293,20.068-0.006c11.249,0.483,18.733,7.732,19.41,18.992c0.411,6.834,0.408,13.731,0.004,20.566
		c-0.667,11.262-8.147,18.563-19.383,19.011c-7.178,0.286-14.399,0.288-21.565-0.151c-10.198-0.625-17.501-8.565-17.825-18.824
		c-0.111-3.51-0.018-7.026-0.018-10.539C80.36,129.259,80.351,129.259,80.343,129.259z"/>
	<path fill="#FFFFFF" d="M214.571,268.435c0-0.522,0-1.034,0-1.575c-0.533,0-1.049,0-1.583,0c0-0.552,0-1.075,0-1.622
		c0.516,0,1.033,0,1.574,0c0-0.54,0-1.057,0-1.587c0.548,0,1.071,0,1.615,0c0,0.523,0,1.036,0,1.572c0.536,0,1.054,0,1.587,0
		c0,0.548,0,1.072,0,1.623c-0.516,0-1.033,0-1.578,0c0,0.543,0,1.06,0,1.589C215.636,268.435,215.112,268.435,214.571,268.435z"/>
</g>
<g display="none">
	<path fill="#FFFFFF" d="M245.6,235.241c6.933,0,13.867,0,20.8,0c0,6.933,0,13.867,0,20.8c-6.933,0-13.867,0-20.8,0
		C245.6,249.107,245.6,242.174,245.6,235.241z M256.96,251.237c-0.008,2.553,2.061,4.629,4.626,4.642
		c2.563,0.014,4.648-2.064,4.652-4.634c0.004-2.561-2.045-4.618-4.623-4.643C259.066,246.578,256.967,248.667,256.96,251.237z
		 M253.28,247.902c-0.057,0.053-0.106,0.098-0.153,0.145c-0.57,0.569-1.138,1.14-1.71,1.707c-0.434,0.431-0.935,0.734-1.562,0.777
		c-1.074,0.073-1.939-0.719-1.951-1.794c-0.008-0.654,0.268-1.193,0.719-1.647c1.111-1.119,2.225-2.235,3.345-3.346
		c0.507-0.503,1.112-0.781,1.844-0.725c0.467,0.036,0.84,0.254,1.188,0.557c0.355,0.31,0.774,0.349,1.192,0.134
		c0.419-0.215,0.607-0.577,0.584-1.05c-0.023-0.465-0.332-0.738-0.661-0.995c-1.597-1.249-3.908-1.091-5.379,0.261
		c-1.29,1.185-2.514,2.443-3.734,3.702c-0.996,1.028-1.458,2.277-1.231,3.711c0.245,1.548,1.137,2.629,2.607,3.144
		c1.594,0.559,3.066,0.194,4.296-0.929c1.114-1.017,2.148-2.12,3.217-3.185c0.017-0.017,0.03-0.039,0.05-0.066
		C255.059,248.534,254.003,248.377,253.28,247.902z M255.531,240.166c0.004-0.002,0.017-0.007,0.027-0.017
		c0.604-0.602,1.208-1.205,1.811-1.807c0.33-0.33,0.706-0.58,1.158-0.722c1.106-0.348,2.259,0.41,2.36,1.563
		c0.063,0.72-0.216,1.311-0.708,1.808c-1.11,1.121-2.228,2.234-3.345,3.347c-0.41,0.409-0.898,0.674-1.481,0.726
		c-0.591,0.052-1.092-0.148-1.536-0.547c-0.451-0.405-1.121-0.349-1.514,0.086c-0.398,0.442-0.379,1.094,0.051,1.52
		c0.405,0.4,0.873,0.711,1.414,0.889c1.618,0.531,3.104,0.233,4.345-0.902c1.278-1.168,2.48-2.42,3.689-3.661
		c0.906-0.93,1.363-2.061,1.265-3.371c-0.115-1.531-0.88-2.675-2.261-3.318c-1.682-0.784-3.279-0.468-4.638,0.736
		c-1.143,1.013-2.182,2.143-3.266,3.222c-0.013,0.013-0.02,0.033-0.028,0.046C253.806,239.545,254.678,239.704,255.531,240.166z"/>
	<path display="inline" d="M280.409,395.788c0.194-63.792,52.264-115.637,115.526-115.026
		c63.997,0.618,114.839,51.678,114.743,115.234c-0.097,63.79-51.85,115.338-115.46,115.002
		C331.547,510.662,280.216,459.152,280.409,395.788z M454.894,415.969c0-13.839,0-26.843,0-40.435c-13.244,0-26.078,0-39.391,0
		c0-13.308,0-26.023,0-38.948c-13.499,0-26.495,0-40.085,0c0,13.168,0,26.004,0,39.407c-13.43,0-26.272,0-39.23,0
		c0,13.475,0,26.365,0,39.92c13.068,0,25.91,0,39.333,0c0,13.491,0,26.331,0,39.366c13.592,0,26.584,0,40.266,0
		c0-13.148,0-25.982,0-39.309C429.173,415.969,441.879,415.969,454.894,415.969z"/>
	<path display="inline" d="M189.091,313.004c17.952,11.785,44.148,15.693,66.026,9.974c-0.504,0.673-0.815,1.214-1.242,1.639
		c-26.529,26.442-52.2,53.824-79.837,79.052c-30.519,27.86-67.056,36.915-106.614,23.053C30.948,413.94,8.805,387.106,2.73,348.7
		c-5.629-35.588,5.837-66.59,30.545-92.091c30.265-31.237,60.654-62.462,92.657-91.877c36.5-33.547,93.846-37.464,133.491-6.467
		c8.158,6.378,15.837,13.154,16.405,24.683c0.578,11.742-4.102,20.716-14.498,26.054c-10.367,5.323-20.762,4.349-29.578-3.333
		c-8.624-7.514-17.903-12.926-29.481-13.824c-18.171-1.409-33.184,5.492-45.775,17.984c-27.784,27.565-55.43,55.271-83.01,83.04
		c-11.177,11.254-18.023,24.642-17.837,40.866c0.306,26.669,21.787,46.338,48.432,44.523c15.575-1.061,27.993-8.589,38.768-19.278
		c14.191-14.078,28.289-28.249,42.435-42.372C186.456,315.439,187.688,314.329,189.091,313.004z"/>
	<path display="inline" d="M244.954,121.018c-21.171-11.47-42.813-15.414-65.933-10.002c0.197-0.332,0.368-0.814,0.694-1.139
		c26.916-26.772,52.702-54.82,81.066-79.96C294.503,0.028,334.14-7.8,375.88,11.653c34.256,15.965,53.259,44.363,56.105,82.353
		c2.435,32.497-8.916,60.577-31.399,83.652c-30.008,30.798-59.852,61.873-91.565,90.861
		c-30.802,28.156-67.679,35.567-107.836,22.379c-13.432-4.411-25.047-12.121-35.098-22.055c-10.685-10.56-11.158-26.75-1.269-37.717
		c9.733-10.793,26.379-12.168,37.562-2.123c11.034,9.912,23.453,14.884,38.13,13.583c14.468-1.283,26.584-7.874,36.765-18.018
		c27.728-27.63,55.464-55.253,83.011-83.063c12.222-12.338,19.148-27.014,17.583-44.879c-2.506-28.613-31.122-47.444-58.577-38.797
		c-11.199,3.527-20.533,9.729-28.73,17.92c-14.973,14.961-29.959,29.91-44.948,44.856
		C245.384,120.833,245.051,120.958,244.954,121.018z"/>
	<path fill="#FFFFFF" d="M263.99,252.051c-0.524,0-1.036,0-1.576,0c0,0.537,0,1.054,0,1.584c-0.551,0-1.075,0-1.622,0
		c0-0.525,0-1.043,0-1.586c-0.541,0-1.058,0-1.585,0c0-0.546,0-1.066,0-1.609c0.522,0,1.04,0,1.581,0c0-0.54,0-1.057,0-1.588
		c0.548,0,1.071,0,1.615,0c0,0.521,0,1.033,0,1.569c0.536,0,1.054,0,1.587,0C263.99,250.969,263.99,251.493,263.99,252.051z"/>
</g>
<g display="none">
	<path fill="#FFFFFF" d="M513.339,513.488c-170.547,0-341.17,0-511.818,0c0-170.606,0-341.212,0-511.905
		c170.539,0,341.104,0,511.818,0C513.339,172.16,513.339,342.824,513.339,513.488z M240.529,395.008c-1.69,0-3.655,0-5.621,0
		c-56.602,0-113.205,0.004-169.807-0.002c-15.884-0.002-23.65-7.661-23.653-23.413c-0.015-82.663-0.016-165.326,0.001-247.988
		c0.003-15.462,7.809-23.275,23.331-23.277c122.002-0.021,244.005-0.023,366.007,0.003c15.283,0.003,23.025,7.795,23.029,22.962
		c0.012,39.837,0.275,79.678-0.224,119.51c-0.1,7.971,1.684,12.719,9.561,14.782c2.334,0.611,4.46,2.181,6.555,3.511
		c7.492,4.755,14.929,9.596,22.678,14.592c0.087-1.159,0.218-2.101,0.218-3.044c0.003-50.959,0.092-101.918-0.143-152.876
		c-0.028-6.029-1.083-12.295-2.95-18.031c-8.143-25.015-30.252-40.278-57.811-40.296c-68.886-0.045-137.771-0.015-206.657-0.016
		c-2.127,0-4.254,0-6.662,0c-0.471-3.848-0.683-7.315-1.344-10.694c-5.599-28.642-29.098-47.955-58.767-48.082
		C126.568,2.513,94.864,2.553,63.16,2.634C28.085,2.724,2.651,28.231,2.634,63.417C2.586,166.662,2.597,269.908,2.68,373.153
		c0.004,4.94,0.398,10.001,1.509,14.798c6.391,27.602,29.346,45.748,58.026,45.796c59.756,0.102,119.512,0.035,179.269,0.024
		c1.572,0,3.143-0.156,4.239-0.215C243.991,420.703,242.315,408.259,240.529,395.008z M281.023,395.004
		c0.396,63.24,51.368,113.912,114.21,113.539c63.129-0.375,113.825-51.571,113.283-114.4
		c-0.543-62.802-50.984-112.988-113.641-113.067C332.016,280.997,280.631,332.417,281.023,395.004z"/>
	<path display="inline" d="M240.848,396.562c1.799,13.357,3.489,25.898,5.235,38.854c-1.104,0.059-2.689,0.216-4.273,0.216
		c-60.23,0.011-120.461,0.079-180.691-0.024c-28.908-0.049-52.044-18.339-58.486-46.16c-1.12-4.835-1.517-9.936-1.521-14.915
		C1.027,270.469,1.016,166.404,1.065,62.34C1.082,26.875,26.717,1.166,62.071,1.075c31.955-0.082,63.911-0.123,95.866,0.014
		c29.904,0.128,53.589,19.595,59.233,48.464c0.666,3.406,0.879,6.901,1.355,10.779c2.428,0,4.571,0,6.715,0
		c69.432,0,138.864-0.029,208.296,0.016c27.778,0.018,50.062,15.402,58.27,40.615c1.882,5.782,2.946,12.098,2.974,18.175
		c0.237,51.362,0.147,102.725,0.144,154.088c0,0.95-0.133,1.899-0.22,3.068c-7.81-5.036-15.306-9.915-22.858-14.708
		c-2.112-1.34-4.255-2.923-6.607-3.539c-7.939-2.079-9.737-6.864-9.636-14.899c0.502-40.147,0.238-80.304,0.225-120.458
		c-0.005-15.287-7.808-23.141-23.212-23.145c-122.97-0.026-245.941-0.024-368.911-0.003c-15.645,0.003-23.512,7.877-23.516,23.462
		c-0.018,83.319-0.016,166.637-0.001,249.956c0.003,15.877,7.831,23.597,23.841,23.599c57.051,0.006,114.103,0.002,171.154,0.002
		C237.163,396.562,239.145,396.562,240.848,396.562z"/>
	<path display="inline" d="M281.663,396.558c-0.395-63.084,51.397-114.912,114.754-114.832
		c63.155,0.08,113.996,50.664,114.543,113.964c0.547,63.328-50.551,114.93-114.181,115.308
		C333.438,511.374,282.062,460.3,281.663,396.558z M376.305,416.216c0,13.378,0,26.294,0,39.239c13.702,0,26.636,0,40.26,0
		c0-13.147,0-25.922,0-39.36c13.453,0,26.219,0,38.981,0c0-13.51,0-26.329,0-39.74c-13.057,0-25.844,0-39.276,0
		c0-13.369,0-26.158,0-38.985c-13.61,0-26.555,0-40.092,0c0,13.167,0,25.945,0,39.295c-13.371,0-26.153,0-38.912,0
		c0,13.416,0,26.241,0,39.552C350.217,416.216,362.882,416.216,376.305,416.216z"/>
	<path fill="#FFFFFF" d="M374.92,414.508c-13.317,0-25.882,0-38.732,0c0-13.206,0-25.93,0-39.24c12.659,0,25.34,0,38.606,0
		c0-13.245,0-25.923,0-38.985c13.431,0,26.274,0,39.777,0c0,12.726,0,25.415,0,38.678c13.326,0,26.012,0,38.967,0
		c0,13.305,0,26.023,0,39.427c-12.662,0-25.327,0-38.674,0c0,13.333,0,26.007,0,39.051c-13.516,0-26.348,0-39.943,0
		C374.92,440.595,374.92,427.78,374.92,414.508z"/>
</g>
</svg>
