<?xml version="1.0" encoding="utf-8"?>
<!-- Generator: Adobe Illustrator 17.0.0, SVG Export Plug-In . SVG Version: 6.00 Build 0)  -->
<!DOCTYPE svg PUBLIC "-//W3C//DTD SVG 1.1//EN" "http://www.w3.org/Graphics/SVG/1.1/DTD/svg11.dtd">
<svg version="1.1" id="Layer_1" xmlns="http://www.w3.org/2000/svg" xmlns:xlink="http://www.w3.org/1999/xlink" x="0px" y="0px"
	 width="512px" height="512px" viewBox="0 0 512 512" enable-background="new 0 0 512 512" xml:space="preserve">
<g>
	<line fill="none" stroke="#B35047" x1="32" y1="0" x2="32" y2="512"/>
	<line fill="none" stroke="#B35047" x1="64" y1="0" x2="64" y2="512"/>
	<line fill="none" stroke="#B35047" x1="96" y1="0" x2="96" y2="512"/>
	<line fill="none" stroke="#B35047" x1="128" y1="0" x2="128" y2="512"/>
	<line fill="none" stroke="#B35047" x1="160" y1="0" x2="160" y2="512"/>
	<line fill="none" stroke="#B35047" x1="192" y1="0" x2="192" y2="512"/>
	<line fill="none" stroke="#B35047" x1="224" y1="0" x2="224" y2="512"/>
	<line fill="none" stroke="#B35047" x1="256" y1="0" x2="256" y2="512"/>
	<line fill="none" stroke="#B35047" x1="288" y1="0" x2="288" y2="512"/>
	<line fill="none" stroke="#B35047" x1="320" y1="0" x2="320" y2="512"/>
	<line fill="none" stroke="#B35047" x1="352" y1="0" x2="352" y2="512"/>
	<line fill="none" stroke="#B35047" x1="384" y1="0" x2="384" y2="512"/>
	<line fill="none" stroke="#B35047" x1="416" y1="0" x2="416" y2="512"/>
	<line fill="none" stroke="#B35047" x1="448" y1="0" x2="448" y2="512"/>
	<line fill="none" stroke="#B35047" x1="480" y1="0" x2="480" y2="512"/>
	<line fill="none" stroke="#B35047" x1="0" y1="32" x2="512" y2="32"/>
	<line fill="none" stroke="#B35047" x1="0" y1="64" x2="512" y2="64"/>
	<line fill="none" stroke="#B35047" x1="0" y1="96" x2="512" y2="96"/>
	<line fill="none" stroke="#B35047" x1="0" y1="128" x2="512" y2="128"/>
	<line fill="none" stroke="#B35047" x1="0" y1="160" x2="512" y2="160"/>
	<line fill="none" stroke="#B35047" x1="0" y1="192" x2="512" y2="192"/>
	<line fill="none" stroke="#B35047" x1="0" y1="224" x2="512" y2="224"/>
	<line fill="none" stroke="#B35047" x1="0" y1="256" x2="512" y2="256"/>
	<line fill="none" stroke="#B35047" x1="0" y1="288" x2="512" y2="288"/>
	<line fill="none" stroke="#B35047" x1="0" y1="320" x2="512" y2="320"/>
	<line fill="none" stroke="#B35047" x1="0" y1="352" x2="512" y2="352"/>
	<line fill="none" stroke="#B35047" x1="0" y1="384" x2="512" y2="384"/>
	<line fill="none" stroke="#B35047" x1="0" y1="416" x2="512" y2="416"/>
	<line fill="none" stroke="#B35047" x1="0" y1="448" x2="512" y2="448"/>
	<line fill="none" stroke="#B35047" x1="0" y1="480" x2="512" y2="480"/>
	<rect x="0" fill="none" stroke="#B35047" width="512" height="512"/>
</g>
<image display="none" overflow="visible" width="512" height="512" xlink:href="../../../Knowledge/Icon/[+++++] (Full) Windows 8 Icons [icons8]/Adds/add_file/add_file-512.png"  transform="matrix(0.0406 0 0 0.0406 574 37)">
</image>
<image display="none" overflow="visible" width="512" height="512" xlink:href="../../../Knowledge/Icon/[+++++] (Full) Windows 8 Icons [icons8]/Adds/delete_link/delete_link-512.png"  transform="matrix(0.0406 0 0 0.0406 574 37)">
</image>
<g>
	<path display="none" fill="#FFFFFF" d="M216.436,250.041c1.246,0,2.492,0,3.737,0c0,6.933,0,13.867,0,20.8
		c-6.933,0-13.867,0-20.8,0c0-1.517,0-3.033,0-4.55c0.022,0.091,0.045,0.182,0.067,0.273c0.275,1.139,1.211,1.871,2.411,1.872
		c2.505,0.003,5.01,0.001,7.514,0.001c0.065,0,0.129-0.006,0.185-0.009c-0.112-0.436-0.227-0.858-0.326-1.283
		c-0.068-0.291-0.058-0.294-0.369-0.294c-2.308,0-4.617,0-6.925,0.001c-0.271,0-0.526-0.039-0.728-0.244
		c-0.2-0.204-0.242-0.457-0.242-0.73c0.001-4.421,0.001-8.841,0.001-13.262c0-0.681,0.309-0.986,0.997-0.986
		c4.678,0,9.356,0.004,14.034-0.005c0.55-0.001,0.997,0.278,0.991,0.997c-0.021,2.301-0.008,4.603-0.008,6.905
		c0,0.455,0,0.455,0.422,0.6c0.045,0.015,0.089,0.033,0.132,0.052c0.337,0.149,0.674,0.298,1.025,0.453
		c0.005-0.05,0.013-0.095,0.013-0.141c0-2.667,0.011-5.335-0.005-8.002c-0.007-1.209-0.75-2.121-1.876-2.386
		C216.604,250.084,216.52,250.062,216.436,250.041z M210.734,266.034c-0.015,2.548,2.057,4.629,4.623,4.646
		c2.555,0.016,4.632-2.041,4.656-4.61c0.023-2.562-2.03-4.636-4.62-4.667C212.847,261.372,210.748,263.458,210.734,266.034z
		 M210.993,254.1c-1.184,0-2.368-0.002-3.552,0.001c-0.53,0.001-0.848,0.312-0.863,0.838c-0.007,0.237-0.006,0.474,0,0.71
		c0.007,0.295,0.106,0.561,0.376,0.697c0.173,0.087,0.386,0.132,0.581,0.133c2.294,0.009,4.587,0.006,6.881,0.006
		c0.041,0,0.081,0.001,0.122-0.001c0.515-0.026,0.822-0.341,0.833-0.857c0.004-0.189-0.009-0.379,0.003-0.568
		c0.034-0.547-0.29-0.98-0.949-0.965C213.28,254.118,212.136,254.1,210.993,254.1z M215.371,259.719c0-0.185,0-0.42,0-0.655
		c-0.001-0.668-0.302-0.973-0.962-0.973c-2.288,0-4.575,0-6.863,0c-0.061,0-0.122-0.002-0.183,0.003
		c-0.426,0.03-0.725,0.297-0.771,0.722c-0.026,0.241-0.015,0.486-0.015,0.73c0,0.628,0.307,0.933,0.935,0.933
		c1.584,0,3.168,0.003,4.751-0.005c0.161-0.001,0.327-0.057,0.483-0.109c0.307-0.104,0.6-0.256,0.913-0.328
		C214.209,259.91,214.77,259.828,215.371,259.719z M210.485,262.118c-0.038-0.009-0.057-0.017-0.076-0.017
		c-1.015,0-2.031-0.007-3.046,0.004c-0.462,0.005-0.764,0.329-0.785,0.811c-0.009,0.223-0.004,0.447-0.002,0.67
		c0.005,0.573,0.319,0.892,0.895,0.897c0.562,0.005,1.124-0.002,1.685,0.004c0.122,0.001,0.169-0.043,0.215-0.156
		c0.203-0.499,0.408-0.999,0.642-1.484C210.135,262.595,210.318,262.373,210.485,262.118z M203.77,260.479
		c0.122,0,0.243,0.002,0.365,0c0.487-0.007,0.813-0.318,0.833-0.807c0.011-0.256,0.011-0.514,0-0.77
		c-0.021-0.478-0.34-0.792-0.815-0.808c-0.256-0.008-0.514-0.01-0.77,0.001c-0.476,0.019-0.79,0.346-0.797,0.82
		c-0.004,0.257-0.005,0.514,0.001,0.77c0.01,0.46,0.337,0.782,0.799,0.793C203.513,260.482,203.642,260.479,203.77,260.479z
		 M203.785,262.1c0,0.002,0,0.003,0,0.005c-0.155,0-0.311-0.008-0.466,0.002c-0.408,0.025-0.719,0.342-0.731,0.751
		c-0.009,0.283-0.008,0.567-0.001,0.851c0.01,0.398,0.286,0.719,0.68,0.754c0.315,0.028,0.635,0.031,0.95,0.009
		c0.438-0.03,0.719-0.323,0.747-0.761c0.017-0.276,0.017-0.554,0.002-0.83c-0.026-0.471-0.341-0.764-0.816-0.779
		C204.028,262.097,203.906,262.1,203.785,262.1z M202.584,255.231c0,0,0.001,0,0.001,0c0,0.142-0.004,0.284,0.001,0.426
		c0.013,0.415,0.309,0.737,0.721,0.762c0.29,0.018,0.582,0.018,0.873,0.006c0.455-0.018,0.757-0.314,0.784-0.769
		c0.016-0.277,0.016-0.556,0-0.832c-0.027-0.456-0.33-0.749-0.785-0.769c-0.27-0.012-0.542-0.012-0.812,0
		c-0.473,0.021-0.774,0.339-0.782,0.81C202.583,254.987,202.584,255.109,202.584,255.231z"/>
	<path d="M422.633,1c2.071,0.517,4.136,1.061,6.214,1.548c27.837,6.532,46.187,29.067,46.361,58.951
		c0.384,65.907,0.129,131.818,0.118,197.727c0,1.117-0.208,2.235-0.331,3.472c-8.667-3.83-16.995-7.517-25.331-11.188
		c-1.069-0.471-2.158-0.905-3.262-1.285c-10.42-3.585-10.421-3.58-10.421-14.834c0-56.876-0.323-113.755,0.19-170.626
		c0.16-17.78-10.896-24.667-24.486-24.641c-115.592,0.225-231.184,0.127-346.776,0.131C47.9,40.255,40.268,47.8,40.267,64.631
		c-0.005,109.235,0.007,218.471-0.027,327.706c-0.002,6.728,1.03,12.984,5.978,18.028c4.981,5.077,11.285,6.043,17.987,6.04
		c57.043-0.023,114.087-0.013,171.13-0.013c7.686,0,7.432,0.06,9.107,7.259c2.447,10.516,5.301,20.937,8.062,31.71
		c-1.386,0.068-2.983,0.213-4.58,0.214c-61.895,0.011-123.789,0.061-185.683-0.014c-29.648-0.036-52.79-18.123-59.583-46.264
		c-0.544-2.252-1.097-4.501-1.645-6.752c0-116.113,0-232.227,0-348.34c0.343-1.099,0.802-2.176,1.013-3.3
		C6.356,27.77,19.728,12.289,41.729,4.258C45.752,2.79,50.047,2.067,54.216,1C177.022,1,299.827,1,422.633,1z"/>
	<path display="none" fill="#FFFFFF" d="M201.527,250.041c-0.169,0.043-0.343,0.072-0.505,0.132
		c-0.89,0.325-1.432,0.951-1.607,1.888c-0.009,0.045-0.027,0.089-0.041,0.134c0-0.714,0-1.429,0-2.153
		C200.092,250.041,200.809,250.041,201.527,250.041z"/>
	<path d="M281.713,396.205c0.364-63.646,52.22-115.204,115.109-114.446c64.01,0.771,114.736,52.011,114.162,115.319
		c-0.575,63.49-51.906,114.322-115.04,113.92C332.536,510.594,281.353,459.159,281.713,396.205z M376.545,455.539
		c13.37,0,26.307,0,39.93,0c0-13.072,0-25.852,0-39.276c13.459,0,26.247,0,38.987,0c0-13.62,0-26.57,0-40.102
		c-13.176,0-25.962,0-39.218,0c0-13.245,0-25.908,0-38.839c-13.431,0-26.369,0-39.899,0c0,13.092,0,25.875,0,39.222
		c-13.369,0-26.155,0-38.906,0c0,13.519,0,26.45,0,40.08c13.179,0,25.939,0,39.106,0
		C376.545,429.98,376.545,442.633,376.545,455.539z"/>
	<path d="M288.125,101.317c28.254-0.001,56.517,0.433,84.758-0.168c16.303-0.347,24.31,10.345,23.459,23.858
		c-0.294,4.663,0.032,9.361-0.066,14.04c-0.267,12.76-7.852,20.534-20.578,21.175c-1.001,0.05-2.006,0.024-3.009,0.024
		c-56.675,0.001-113.35,0.079-170.024-0.139c-4.821-0.019-10.071-1.144-14.352-3.291c-6.669-3.345-9.113-9.936-9.282-17.217
		c-0.136-5.848-0.166-11.706,0-17.553c0.369-12.986,8.24-20.674,21.324-20.705C229.611,101.269,258.868,101.318,288.125,101.317z"/>
	<path d="M396.295,240.167c-14.841,2.688-28.692,4.71-42.286,7.848c-7.734,1.785-14.993,5.556-22.573,8.116
		c-3.853,1.301-7.938,2.682-11.925,2.702c-39.134,0.2-78.27,0.127-117.405,0.117c-15.515-0.004-23.091-7.55-23.098-23.064
		c-0.003-6.015-0.282-12.08,0.365-18.035c1.14-10.493,8.511-17.104,19.045-17.835c1.499-0.104,3.009-0.063,4.514-0.063
		c56.529-0.003,113.058-0.006,169.586,0c16.317,0.002,23.762,7.542,23.775,24.04C396.299,229.793,396.295,235.592,396.295,240.167z"
		/>
	<path d="M275.578,299.444c-4.132,6.284-8.656,11.791-11.663,18.03c-5.776,11.987-10.831,24.332-15.855,36.664
		c-1.133,2.782-2.281,3.88-5.303,3.848c-13.881-0.146-27.765,0.039-41.646-0.095c-14.219-0.137-21.973-8.004-22.107-22.172
		c-0.052-5.519-0.189-11.047,0.045-16.557c0.506-11.911,7.982-19.934,19.395-20.05c25.085-0.255,50.175-0.096,75.263-0.089
		C274.177,299.024,274.647,299.228,275.578,299.444z"/>
	<path d="M109.639,258.945c-3.173-0.004-6.347,0.06-9.517-0.015c-11.424-0.268-19.507-8.243-19.745-19.598
		c-0.133-6.342-0.107-12.691-0.015-19.034c0.17-11.724,7.923-19.795,19.687-20.275c6.335-0.259,12.694-0.223,19.032-0.017
		c11.755,0.381,19.637,8.156,20.151,19.964c0.276,6.333,0.272,12.697,0.009,19.031c-0.502,12.081-8.551,19.757-20.585,19.941
		C115.651,258.988,112.645,258.949,109.639,258.945z"/>
	<path d="M110.006,298.999c3.005,0,6.012-0.079,9.013,0.014c11.725,0.364,19.51,7.604,20.163,19.245
		c0.382,6.821,0.393,13.703-0.038,20.519c-0.685,10.826-7.622,18.053-18.452,18.801c-7.791,0.539-15.702,0.478-23.479-0.216
		c-9.742-0.869-16.572-8.806-16.809-18.635c-0.169-7.006-0.195-14.025,0.018-21.029c0.308-10.107,7.988-17.944,18.071-18.551
		c3.824-0.23,7.674-0.037,11.511-0.037C110.006,299.074,110.006,299.037,110.006,298.999z"/>
	<path d="M80.343,129.259c0-3.011-0.046-6.024,0.008-9.034c0.209-11.645,7.641-19.492,19.328-20.014
		c6.678-0.298,13.39-0.293,20.068-0.006c11.249,0.483,18.733,7.732,19.41,18.992c0.411,6.834,0.408,13.731,0.004,20.566
		c-0.667,11.262-8.147,18.563-19.383,19.011c-7.178,0.286-14.399,0.288-21.565-0.151c-10.198-0.625-17.501-8.565-17.825-18.824
		c-0.111-3.51-0.018-7.026-0.018-10.539C80.36,129.259,80.351,129.259,80.343,129.259z"/>
	<path display="none" fill="#FFFFFF" d="M214.571,268.435c0-0.522,0-1.034,0-1.575c-0.533,0-1.049,0-1.583,0
		c0-0.552,0-1.075,0-1.622c0.516,0,1.033,0,1.574,0c0-0.54,0-1.057,0-1.587c0.548,0,1.071,0,1.615,0c0,0.523,0,1.036,0,1.572
		c0.536,0,1.054,0,1.587,0c0,0.548,0,1.072,0,1.623c-0.516,0-1.033,0-1.578,0c0,0.543,0,1.06,0,1.589
		C215.636,268.435,215.112,268.435,214.571,268.435z"/>
</g>
<g display="none">
	<path fill="#FFFFFF" d="M245.6,235.241c6.933,0,13.867,0,20.8,0c0,6.933,0,13.867,0,20.8c-6.933,0-13.867,0-20.8,0
		C245.6,249.107,245.6,242.174,245.6,235.241z M256.96,251.237c-0.008,2.553,2.061,4.629,4.626,4.642
		c2.563,0.014,4.648-2.064,4.652-4.634c0.004-2.561-2.045-4.618-4.623-4.643C259.066,246.578,256.967,248.667,256.96,251.237z
		 M253.28,247.902c-0.057,0.053-0.106,0.098-0.153,0.145c-0.57,0.569-1.138,1.14-1.71,1.707c-0.434,0.431-0.935,0.734-1.562,0.777
		c-1.074,0.073-1.939-0.719-1.951-1.794c-0.008-0.654,0.268-1.193,0.719-1.647c1.111-1.119,2.225-2.235,3.345-3.346
		c0.507-0.503,1.112-0.781,1.844-0.725c0.467,0.036,0.84,0.254,1.188,0.557c0.355,0.31,0.774,0.349,1.192,0.134
		c0.419-0.215,0.607-0.577,0.584-1.05c-0.023-0.465-0.332-0.738-0.661-0.995c-1.597-1.249-3.908-1.091-5.379,0.261
		c-1.29,1.185-2.514,2.443-3.734,3.702c-0.996,1.028-1.458,2.277-1.231,3.711c0.245,1.548,1.137,2.629,2.607,3.144
		c1.594,0.559,3.066,0.194,4.296-0.929c1.114-1.017,2.148-2.12,3.217-3.185c0.017-0.017,0.03-0.039,0.05-0.066
		C255.059,248.534,254.003,248.377,253.28,247.902z M255.531,240.166c0.004-0.002,0.017-0.007,0.027-0.017
		c0.604-0.602,1.208-1.205,1.811-1.807c0.33-0.33,0.706-0.58,1.158-0.722c1.106-0.348,2.259,0.41,2.36,1.563
		c0.063,0.72-0.216,1.311-0.708,1.808c-1.11,1.121-2.228,2.234-3.345,3.347c-0.41,0.409-0.898,0.674-1.481,0.726
		c-0.591,0.052-1.092-0.148-1.536-0.547c-0.451-0.405-1.121-0.349-1.514,0.086c-0.398,0.442-0.379,1.094,0.051,1.52
		c0.405,0.4,0.873,0.711,1.414,0.889c1.618,0.531,3.104,0.233,4.345-0.902c1.278-1.168,2.48-2.42,3.689-3.661
		c0.906-0.93,1.363-2.061,1.265-3.371c-0.115-1.531-0.88-2.675-2.261-3.318c-1.682-0.784-3.279-0.468-4.638,0.736
		c-1.143,1.013-2.182,2.143-3.266,3.222c-0.013,0.013-0.02,0.033-0.028,0.046C253.806,239.545,254.678,239.704,255.531,240.166z"/>
	<path display="inline" d="M280.409,395.788c0.194-63.792,52.264-115.637,115.526-115.026
		c63.997,0.618,114.839,51.678,114.743,115.234c-0.097,63.79-51.85,115.338-115.46,115.002
		C331.547,510.662,280.216,459.152,280.409,395.788z M454.894,415.969c0-13.839,0-26.843,0-40.435c-13.244,0-26.078,0-39.391,0
		c0-13.308,0-26.023,0-38.948c-13.499,0-26.495,0-40.085,0c0,13.168,0,26.004,0,39.407c-13.43,0-26.272,0-39.23,0
		c0,13.475,0,26.365,0,39.92c13.068,0,25.91,0,39.333,0c0,13.491,0,26.331,0,39.366c13.592,0,26.584,0,40.266,0
		c0-13.148,0-25.982,0-39.309C429.173,415.969,441.879,415.969,454.894,415.969z"/>
	<path display="inline" d="M189.091,313.004c17.952,11.785,44.148,15.693,66.026,9.974c-0.504,0.673-0.815,1.214-1.242,1.639
		c-26.529,26.442-52.2,53.824-79.837,79.052c-30.519,27.86-67.056,36.915-106.614,23.053C30.948,413.94,8.805,387.106,2.73,348.7
		c-5.629-35.588,5.837-66.59,30.545-92.091c30.265-31.237,60.654-62.462,92.657-91.877c36.5-33.547,93.846-37.464,133.491-6.467
		c8.158,6.378,15.837,13.154,16.405,24.683c0.578,11.742-4.102,20.716-14.498,26.054c-10.367,5.323-20.762,4.349-29.578-3.333
		c-8.624-7.514-17.903-12.926-29.481-13.824c-18.171-1.409-33.184,5.492-45.775,17.984c-27.784,27.565-55.43,55.271-83.01,83.04
		c-11.177,11.254-18.023,24.642-17.837,40.866c0.306,26.669,21.787,46.338,48.432,44.523c15.575-1.061,27.993-8.589,38.768-19.278
		c14.191-14.078,28.289-28.249,42.435-42.372C186.456,315.439,187.688,314.329,189.091,313.004z"/>
	<path display="inline" d="M244.954,121.018c-21.171-11.47-42.813-15.414-65.933-10.002c0.197-0.332,0.368-0.814,0.694-1.139
		c26.916-26.772,52.702-54.82,81.066-79.96C294.503,0.028,334.14-7.8,375.88,11.653c34.256,15.965,53.259,44.363,56.105,82.353
		c2.435,32.497-8.916,60.577-31.399,83.652c-30.008,30.798-59.852,61.873-91.565,90.861
		c-30.802,28.156-67.679,35.567-107.836,22.379c-13.432-4.411-25.047-12.121-35.098-22.055c-10.685-10.56-11.158-26.75-1.269-37.717
		c9.733-10.793,26.379-12.168,37.562-2.123c11.034,9.912,23.453,14.884,38.13,13.583c14.468-1.283,26.584-7.874,36.765-18.018
		c27.728-27.63,55.464-55.253,83.011-83.063c12.222-12.338,19.148-27.014,17.583-44.879c-2.506-28.613-31.122-47.444-58.577-38.797
		c-11.199,3.527-20.533,9.729-28.73,17.92c-14.973,14.961-29.959,29.91-44.948,44.856
		C245.384,120.833,245.051,120.958,244.954,121.018z"/>
	<path fill="#FFFFFF" d="M263.99,252.051c-0.524,0-1.036,0-1.576,0c0,0.537,0,1.054,0,1.584c-0.551,0-1.075,0-1.622,0
		c0-0.525,0-1.043,0-1.586c-0.541,0-1.058,0-1.585,0c0-0.546,0-1.066,0-1.609c0.522,0,1.04,0,1.581,0c0-0.54,0-1.057,0-1.588
		c0.548,0,1.071,0,1.615,0c0,0.521,0,1.033,0,1.569c0.536,0,1.054,0,1.587,0C263.99,250.969,263.99,251.493,263.99,252.051z"/>
</g>
<g display="none">
	<path fill="#FFFFFF" d="M513.339,513.488c-170.547,0-341.17,0-511.818,0c0-170.606,0-341.212,0-511.905
		c170.539,0,341.104,0,511.818,0C513.339,172.16,513.339,342.824,513.339,513.488z M240.529,395.008c-1.69,0-3.655,0-5.621,0
		c-56.602,0-113.205,0.004-169.807-0.002c-15.884-0.002-23.65-7.661-23.653-23.413c-0.015-82.663-0.016-165.326,0.001-247.988
		c0.003-15.462,7.809-23.275,23.331-23.277c122.002-0.021,244.005-0.023,366.007,0.003c15.283,0.003,23.025,7.795,23.029,22.962
		c0.012,39.837,0.275,79.678-0.224,119.51c-0.1,7.971,1.684,12.719,9.561,14.782c2.334,0.611,4.46,2.181,6.555,3.511
		c7.492,4.755,14.929,9.596,22.678,14.592c0.087-1.159,0.218-2.101,0.218-3.044c0.003-50.959,0.092-101.918-0.143-152.876
		c-0.028-6.029-1.083-12.295-2.95-18.031c-8.143-25.015-30.252-40.278-57.811-40.296c-68.886-0.045-137.771-0.015-206.657-0.016
		c-2.127,0-4.254,0-6.662,0c-0.471-3.848-0.683-7.315-1.344-10.694c-5.599-28.642-29.098-47.955-58.767-48.082
		C126.568,2.513,94.864,2.553,63.16,2.634C28.085,2.724,2.651,28.231,2.634,63.417C2.586,166.662,2.597,269.908,2.68,373.153
		c0.004,4.94,0.398,10.001,1.509,14.798c6.391,27.602,29.346,45.748,58.026,45.796c59.756,0.102,119.512,0.035,179.269,0.024
		c1.572,0,3.143-0.156,4.239-0.215C243.991,420.703,242.315,408.259,240.529,395.008z M281.023,395.004
		c0.396,63.24,51.368,113.912,114.21,113.539c63.129-0.375,113.825-51.571,113.283-114.4
		c-0.543-62.802-50.984-112.988-113.641-113.067C332.016,280.997,280.631,332.417,281.023,395.004z"/>
	<path display="inline" d="M240.848,396.562c1.799,13.357,3.489,25.898,5.235,38.854c-1.104,0.059-2.689,0.216-4.273,0.216
		c-60.23,0.011-120.461,0.079-180.691-0.024c-28.908-0.049-52.044-18.339-58.486-46.16c-1.12-4.835-1.517-9.936-1.521-14.915
		C1.027,270.469,1.016,166.404,1.065,62.34C1.082,26.875,26.717,1.166,62.071,1.075c31.955-0.082,63.911-0.123,95.866,0.014
		c29.904,0.128,53.589,19.595,59.233,48.464c0.666,3.406,0.879,6.901,1.355,10.779c2.428,0,4.571,0,6.715,0
		c69.432,0,138.864-0.029,208.296,0.016c27.778,0.018,50.062,15.402,58.27,40.615c1.882,5.782,2.946,12.098,2.974,18.175
		c0.237,51.362,0.147,102.725,0.144,154.088c0,0.95-0.133,1.899-0.22,3.068c-7.81-5.036-15.306-9.915-22.858-14.708
		c-2.112-1.34-4.255-2.923-6.607-3.539c-7.939-2.079-9.737-6.864-9.636-14.899c0.502-40.147,0.238-80.304,0.225-120.458
		c-0.005-15.287-7.808-23.141-23.212-23.145c-122.97-0.026-245.941-0.024-368.911-0.003c-15.645,0.003-23.512,7.877-23.516,23.462
		c-0.018,83.319-0.016,166.637-0.001,249.956c0.003,15.877,7.831,23.597,23.841,23.599c57.051,0.006,114.103,0.002,171.154,0.002
		C237.163,396.562,239.145,396.562,240.848,396.562z"/>
	<path display="inline" d="M281.663,396.558c-0.395-63.084,51.397-114.912,114.754-114.832
		c63.155,0.08,113.996,50.664,114.543,113.964c0.547,63.328-50.551,114.93-114.181,115.308
		C333.438,511.374,282.062,460.3,281.663,396.558z M376.305,416.216c0,13.378,0,26.294,0,39.239c13.702,0,26.636,0,40.26,0
		c0-13.147,0-25.922,0-39.36c13.453,0,26.219,0,38.981,0c0-13.51,0-26.329,0-39.74c-13.057,0-25.844,0-39.276,0
		c0-13.369,0-26.158,0-38.985c-13.61,0-26.555,0-40.092,0c0,13.167,0,25.945,0,39.295c-13.371,0-26.153,0-38.912,0
		c0,13.416,0,26.241,0,39.552C350.217,416.216,362.882,416.216,376.305,416.216z"/>
	<path fill="#FFFFFF" d="M374.92,414.508c-13.317,0-25.882,0-38.732,0c0-13.206,0-25.93,0-39.24c12.659,0,25.34,0,38.606,0
		c0-13.245,0-25.923,0-38.985c13.431,0,26.274,0,39.777,0c0,12.726,0,25.415,0,38.678c13.326,0,26.012,0,38.967,0
		c0,13.305,0,26.023,0,39.427c-12.662,0-25.327,0-38.674,0c0,13.333,0,26.007,0,39.051c-13.516,0-26.348,0-39.943,0
		C374.92,440.595,374.92,427.78,374.92,414.508z"/>
</g>
</svg>
