<?xml version="1.0" encoding="utf-8"?>
<!-- Generator: Adobe Illustrator 17.0.0, SVG Export Plug-In . SVG Version: 6.00 Build 0)  -->
<!DOCTYPE svg PUBLIC "-//W3C//DTD SVG 1.1//EN" "http://www.w3.org/Graphics/SVG/1.1/DTD/svg11.dtd">
<svg version="1.1" id="Layer_1" xmlns="http://www.w3.org/2000/svg" xmlns:xlink="http://www.w3.org/1999/xlink" x="0px" y="0px"
	 width="512px" height="512px" viewBox="0 0 512 512" enable-background="new 0 0 512 512" xml:space="preserve">
<g>
	<line fill="none" stroke="#B35047" x1="32" y1="0" x2="32" y2="512"/>
	<line fill="none" stroke="#B35047" x1="64" y1="0" x2="64" y2="512"/>
	<line fill="none" stroke="#B35047" x1="96" y1="0" x2="96" y2="512"/>
	<line fill="none" stroke="#B35047" x1="128" y1="0" x2="128" y2="512"/>
	<line fill="none" stroke="#B35047" x1="160" y1="0" x2="160" y2="512"/>
	<line fill="none" stroke="#B35047" x1="192" y1="0" x2="192" y2="512"/>
	<line fill="none" stroke="#B35047" x1="224" y1="0" x2="224" y2="512"/>
	<line fill="none" stroke="#B35047" x1="256" y1="0" x2="256" y2="512"/>
	<line fill="none" stroke="#B35047" x1="288" y1="0" x2="288" y2="512"/>
	<line fill="none" stroke="#B35047" x1="320" y1="0" x2="320" y2="512"/>
	<line fill="none" stroke="#B35047" x1="352" y1="0" x2="352" y2="512"/>
	<line fill="none" stroke="#B35047" x1="384" y1="0" x2="384" y2="512"/>
	<line fill="none" stroke="#B35047" x1="416" y1="0" x2="416" y2="512"/>
	<line fill="none" stroke="#B35047" x1="448" y1="0" x2="448" y2="512"/>
	<line fill="none" stroke="#B35047" x1="480" y1="0" x2="480" y2="512"/>
	<line fill="none" stroke="#B35047" x1="0" y1="32" x2="512" y2="32"/>
	<line fill="none" stroke="#B35047" x1="0" y1="64" x2="512" y2="64"/>
	<line fill="none" stroke="#B35047" x1="0" y1="96" x2="512" y2="96"/>
	<line fill="none" stroke="#B35047" x1="0" y1="128" x2="512" y2="128"/>
	<line fill="none" stroke="#B35047" x1="0" y1="160" x2="512" y2="160"/>
	<line fill="none" stroke="#B35047" x1="0" y1="192" x2="512" y2="192"/>
	<line fill="none" stroke="#B35047" x1="0" y1="224" x2="512" y2="224"/>
	<line fill="none" stroke="#B35047" x1="0" y1="256" x2="512" y2="256"/>
	<line fill="none" stroke="#B35047" x1="0" y1="288" x2="512" y2="288"/>
	<line fill="none" stroke="#B35047" x1="0" y1="320" x2="512" y2="320"/>
	<line fill="none" stroke="#B35047" x1="0" y1="352" x2="512" y2="352"/>
	<line fill="none" stroke="#B35047" x1="0" y1="384" x2="512" y2="384"/>
	<line fill="none" stroke="#B35047" x1="0" y1="416" x2="512" y2="416"/>
	<line fill="none" stroke="#B35047" x1="0" y1="448" x2="512" y2="448"/>
	<line fill="none" stroke="#B35047" x1="0" y1="480" x2="512" y2="480"/>
	<rect x="0" fill="none" stroke="#B35047" width="512" height="512"/>
</g>
<g display="none">
	<path fill="#FFFFFF" d="M609.834,63.841c-6.929,0-13.86,0-20.793,0c0-6.931,0-13.862,0-20.796c6.928,0,13.858,0,20.793,0
		C609.834,49.974,609.834,56.907,609.834,63.841z M608.883,53.447c0.016-5.202-4.212-9.434-9.436-9.446
		c-5.209-0.012-9.434,4.209-9.445,9.434c-0.011,5.208,4.208,9.433,9.434,9.448C604.636,62.897,608.867,58.672,608.883,53.447z"/>
	<path display="inline" d="M510.999,256.13C510.578,397.258,396.3,511.392,255.81,510.999
		C114.657,510.604,0.701,396.479,1.001,255.81C1.301,114.682,115.444,0.682,256.13,1.001
		C397.225,1.321,511.418,115.63,510.999,256.13z M346.26,179.999c0.242-31.779-10.22-53.286-35.17-65.352
		c-28.38-13.724-58.057-15.073-87.75-4.164c-15.035,5.524-27.115,15.206-33.604,30.404c-4.847,11.354-5.154,22.778,2.041,33.447
		c5.422,8.04,14.171,10.506,24.268,7.304c10.292-3.264,14.869-9.374,14.771-19.631c-0.045-4.744-0.325-9.515,0.063-14.228
		c0.786-9.539,6.209-15.813,15.524-18.177c3.159-0.801,6.465-1.228,9.725-1.384c16.897-0.807,27.868,7.66,30.361,23.491
		c2.715,17.246,1.079,34.215-3.733,50.925c-4.682,16.259-14.112,29.98-23.614,43.615c-10.398,14.92-16.939,30.971-16.287,49.531
		c0.13,3.696,1.012,5.295,4.959,5.095c5.468-0.276,10.976-0.312,16.439,0.01c4.44,0.261,6.328-0.98,5.803-5.762
		c-0.826-7.522,1.924-14.027,6.977-19.503c3.091-3.349,6.349-6.567,9.744-9.607c9.665-8.653,19.598-17.013,29.137-25.801
		C334.829,222.789,347.054,202.118,346.26,179.999z M218.374,375.662c0.079,20.462,16.222,36.395,36.726,36.249
		c20.157-0.144,36.119-16.19,36.155-36.345c0.037-20.409-16.109-36.541-36.517-36.488
		C234.217,339.13,218.294,355.15,218.374,375.662z"/>
	<path fill="#FFFFFF" d="M602.784,50.628c0.029,0.819-0.423,1.584-1.123,2.229c-0.353,0.325-0.721,0.635-1.079,0.955
		c-0.126,0.113-0.246,0.232-0.361,0.356c-0.187,0.203-0.289,0.444-0.258,0.722c0.019,0.177-0.05,0.223-0.215,0.213
		c-0.202-0.012-0.406-0.011-0.609,0c-0.146,0.007-0.179-0.052-0.184-0.189c-0.024-0.687,0.218-1.281,0.603-1.834
		c0.352-0.505,0.701-1.013,0.874-1.615c0.178-0.619,0.239-1.247,0.138-1.885c-0.092-0.586-0.498-0.9-1.124-0.87
		c-0.121,0.006-0.243,0.022-0.36,0.051c-0.345,0.087-0.546,0.32-0.575,0.673c-0.014,0.174-0.004,0.351-0.002,0.527
		c0.004,0.38-0.166,0.606-0.547,0.727c-0.374,0.119-0.698,0.027-0.898-0.27c-0.266-0.395-0.255-0.818-0.076-1.238
		c0.24-0.563,0.687-0.921,1.244-1.126c1.099-0.404,2.198-0.354,3.249,0.154C602.405,48.655,602.793,49.452,602.784,50.628z"/>
	<path fill="#FFFFFF" d="M598.049,57.872c-0.003-0.759,0.587-1.353,1.346-1.354c0.756-0.002,1.353,0.595,1.352,1.351
		c-0.001,0.746-0.592,1.34-1.339,1.346C598.649,59.22,598.052,58.63,598.049,57.872z"/>
</g>
<g>
	<path display="none" fill="#FFFFFF" d="M589.042,63.841c0-6.931,0-13.861,0-20.796c6.928,0,13.857,0,20.792,0
		c0,6.929,0,13.863,0,20.796C602.907,63.841,595.975,63.841,589.042,63.841z M599.441,62.236c2.62,0,5.24,0.006,7.86-0.006
		c0.381-0.002,0.775-0.042,1.141-0.143c0.861-0.236,1.306-0.899,1.229-1.761c-0.04-0.454-0.223-0.86-0.448-1.25
		c-2.651-4.592-5.301-9.185-7.959-13.774c-0.171-0.295-0.383-0.579-0.623-0.82c-0.675-0.679-1.553-0.728-2.276-0.101
		c-0.3,0.26-0.556,0.596-0.756,0.941c-2.631,4.533-5.249,9.074-7.868,13.615c-0.145,0.251-0.281,0.511-0.385,0.781
		c-0.455,1.186,0.076,2.174,1.316,2.438c0.302,0.064,0.618,0.077,0.928,0.078C594.214,62.239,596.827,62.236,599.441,62.236z"/>
	<path d="M289.486,328.121c0.696-3.556,1.4-6.529,1.849-9.54c9.899-66.423,20.044-132.811,29.473-199.3
		c2.689-18.964,5.798-38.435,4.225-57.298c-2.192-26.28-17.425-46.07-42.497-55.496c-26.276-9.878-51.676-6.864-73.131,12.661
		c-22.357,20.347-26.898,46.241-22.322,75.104c12.021,75.838,23.497,151.763,35.469,227.609c0.369,2.335,3.775,5.941,5.831,5.987
		C248.574,328.3,268.78,328.121,289.486,328.121z M327.026,440.683c-0.124-38.444-32.306-70.552-70.885-70.721
		c-38.711-0.17-71.592,32.807-71.163,71.369c0.423,38.044,32.442,69.514,70.884,69.668
		C294.497,511.155,327.149,478.891,327.026,440.683z"/>
	<path display="none" fill="#FFFFFF" d="M600.169,55.799c-0.45,0-0.89,0.004-1.329-0.006c-0.045-0.001-0.119-0.079-0.127-0.13
		c-0.26-1.649-0.51-3.3-0.771-4.949c-0.099-0.628-0.001-1.191,0.485-1.633c0.466-0.425,1.019-0.49,1.59-0.275
		c0.545,0.205,0.876,0.635,0.924,1.207c0.034,0.41-0.033,0.834-0.092,1.246c-0.205,1.446-0.426,2.889-0.641,4.334
		C600.199,55.657,600.184,55.722,600.169,55.799z"/>
	<path display="none" fill="#FFFFFF" d="M600.985,58.247c0.003,0.831-0.707,1.532-1.547,1.529c-0.836-0.003-1.532-0.688-1.541-1.515
		c-0.009-0.839,0.706-1.556,1.547-1.552C600.283,56.713,600.982,57.411,600.985,58.247z"/>
</g>
<g display="none">
	<path fill="#FFFFFF" d="M609.841,63.839c-6.931,0-13.861,0-20.796,0c0-6.928,0-13.857,0-20.792c6.929,0,13.863,0,20.796,0
		C609.841,49.975,609.841,56.906,609.841,63.839z M599.437,56.168c0.095,0.122,0.139,0.192,0.196,0.249
		c1.306,1.308,2.613,2.615,3.92,3.921c0.423,0.423,0.853,0.424,1.274,0.005c0.499-0.497,0.997-0.995,1.494-1.493
		c0.449-0.449,0.448-0.866-0.004-1.318c-1.307-1.307-2.614-2.614-3.92-3.922c-0.055-0.055-0.107-0.113-0.183-0.193
		c0.078-0.063,0.14-0.106,0.192-0.158c1.313-1.311,2.625-2.622,3.936-3.934c0.419-0.419,0.418-0.855-0.002-1.275
		c-0.493-0.494-0.987-0.985-1.481-1.478c-0.465-0.464-0.87-0.466-1.33-0.005c-1.307,1.307-2.614,2.613-3.922,3.92
		c-0.052,0.052-0.106,0.101-0.168,0.159c-0.062-0.059-0.116-0.107-0.168-0.159c-1.302-1.302-2.604-2.604-3.907-3.906
		c-0.48-0.48-0.874-0.478-1.359,0.006c-0.479,0.478-0.958,0.957-1.437,1.436c-0.461,0.462-0.462,0.871-0.001,1.332
		c1.302,1.302,2.604,2.604,3.906,3.907c0.056,0.056,0.109,0.115,0.171,0.18c-0.062,0.064-0.111,0.118-0.163,0.17
		c-1.316,1.317-2.633,2.633-3.949,3.95c-0.411,0.412-0.412,0.85-0.003,1.26c0.497,0.498,0.997,0.995,1.496,1.492
		c0.462,0.46,0.867,0.458,1.331-0.006c1.303-1.302,2.606-2.603,3.907-3.906C599.318,56.35,599.354,56.282,599.437,56.168z"/>
	<path display="inline" d="M599.437,56.168c-0.082,0.114-0.119,0.182-0.171,0.234c-1.301,1.303-2.604,2.605-3.907,3.906
		c-0.464,0.464-0.87,0.465-1.331,0.006c-0.499-0.497-0.998-0.993-1.496-1.492c-0.409-0.41-0.409-0.848,0.003-1.26
		c1.316-1.317,2.633-2.633,3.949-3.95c0.052-0.052,0.102-0.106,0.163-0.17c-0.062-0.065-0.115-0.124-0.171-0.18
		c-1.302-1.302-2.604-2.604-3.906-3.907c-0.461-0.461-0.46-0.87,0.001-1.332c0.479-0.479,0.958-0.957,1.437-1.436
		c0.485-0.485,0.878-0.487,1.359-0.006c1.302,1.302,2.604,2.604,3.907,3.906c0.052,0.052,0.106,0.1,0.168,0.159
		c0.062-0.059,0.116-0.108,0.168-0.159c1.307-1.307,2.614-2.613,3.922-3.92c0.46-0.46,0.865-0.458,1.33,0.005
		c0.494,0.492,0.988,0.984,1.481,1.478c0.419,0.42,0.421,0.856,0.002,1.275c-1.311,1.312-2.623,2.624-3.936,3.934
		c-0.052,0.052-0.115,0.095-0.192,0.158c0.076,0.08,0.128,0.138,0.183,0.193c1.307,1.307,2.614,2.614,3.92,3.922
		c0.451,0.452,0.453,0.869,0.004,1.318c-0.498,0.498-0.995,0.996-1.494,1.493c-0.421,0.419-0.85,0.418-1.274-0.005
		c-1.308-1.306-2.615-2.613-3.92-3.921C599.576,56.36,599.532,56.29,599.437,56.168z"/>
</g>
</svg>
