<?xml version="1.0" encoding="utf-8"?>
<!-- Generator: Adobe Illustrator 17.0.0, SVG Export Plug-In . SVG Version: 6.00 Build 0)  -->
<!DOCTYPE svg PUBLIC "-//W3C//DTD SVG 1.1//EN" "http://www.w3.org/Graphics/SVG/1.1/DTD/svg11.dtd">
<svg version="1.1" id="Layer_1" xmlns="http://www.w3.org/2000/svg" xmlns:xlink="http://www.w3.org/1999/xlink" x="0px" y="0px"
	 width="512px" height="512px" viewBox="0 0 512 512" enable-background="new 0 0 512 512" xml:space="preserve">
<g>
	<line fill="none" stroke="#B35047" x1="32" y1="0" x2="32" y2="512"/>
	<line fill="none" stroke="#B35047" x1="64" y1="0" x2="64" y2="512"/>
	<line fill="none" stroke="#B35047" x1="96" y1="0" x2="96" y2="512"/>
	<line fill="none" stroke="#B35047" x1="128" y1="0" x2="128" y2="512"/>
	<line fill="none" stroke="#B35047" x1="160" y1="0" x2="160" y2="512"/>
	<line fill="none" stroke="#B35047" x1="192" y1="0" x2="192" y2="512"/>
	<line fill="none" stroke="#B35047" x1="224" y1="0" x2="224" y2="512"/>
	<line fill="none" stroke="#B35047" x1="256" y1="0" x2="256" y2="512"/>
	<line fill="none" stroke="#B35047" x1="288" y1="0" x2="288" y2="512"/>
	<line fill="none" stroke="#B35047" x1="320" y1="0" x2="320" y2="512"/>
	<line fill="none" stroke="#B35047" x1="352" y1="0" x2="352" y2="512"/>
	<line fill="none" stroke="#B35047" x1="384" y1="0" x2="384" y2="512"/>
	<line fill="none" stroke="#B35047" x1="416" y1="0" x2="416" y2="512"/>
	<line fill="none" stroke="#B35047" x1="448" y1="0" x2="448" y2="512"/>
	<line fill="none" stroke="#B35047" x1="480" y1="0" x2="480" y2="512"/>
	<line fill="none" stroke="#B35047" x1="0" y1="32" x2="512" y2="32"/>
	<line fill="none" stroke="#B35047" x1="0" y1="64" x2="512" y2="64"/>
	<line fill="none" stroke="#B35047" x1="0" y1="96" x2="512" y2="96"/>
	<line fill="none" stroke="#B35047" x1="0" y1="128" x2="512" y2="128"/>
	<line fill="none" stroke="#B35047" x1="0" y1="160" x2="512" y2="160"/>
	<line fill="none" stroke="#B35047" x1="0" y1="192" x2="512" y2="192"/>
	<line fill="none" stroke="#B35047" x1="0" y1="224" x2="512" y2="224"/>
	<line fill="none" stroke="#B35047" x1="0" y1="256" x2="512" y2="256"/>
	<line fill="none" stroke="#B35047" x1="0" y1="288" x2="512" y2="288"/>
	<line fill="none" stroke="#B35047" x1="0" y1="320" x2="512" y2="320"/>
	<line fill="none" stroke="#B35047" x1="0" y1="352" x2="512" y2="352"/>
	<line fill="none" stroke="#B35047" x1="0" y1="384" x2="512" y2="384"/>
	<line fill="none" stroke="#B35047" x1="0" y1="416" x2="512" y2="416"/>
	<line fill="none" stroke="#B35047" x1="0" y1="448" x2="512" y2="448"/>
	<line fill="none" stroke="#B35047" x1="0" y1="480" x2="512" y2="480"/>
	<rect x="0" fill="none" stroke="#B35047" width="512" height="512"/>
</g>
<image display="none" overflow="visible" width="512" height="512" xlink:href="../../../Knowledge/Icon/[+++++] (Full) Windows 8 Icons [icons8]/Business/package/package-512.png"  transform="matrix(0.0406 0 0 0.0406 540 50)">
</image>
<image display="none" overflow="visible" width="512" height="512" xlink:href="../../../Knowledge/Icon/[+++++] (Full) Windows 8 Icons [icons8]/Business/money_bag/money_bag-512.png"  transform="matrix(0.0406 0 0 0.0406 540 50)">
</image>
<image display="none" overflow="visible" width="512" height="512" xlink:href="../../../Knowledge/Icon/[+++++] (Full) Windows 8 Icons [icons8]/Business/delivery/delivery-512.png"  transform="matrix(0.0406 0 0 0.0406 540 50)">
</image>
<image display="none" overflow="visible" width="512" height="512" xlink:href="../../../Knowledge/Icon/[+++++] (Full) Windows 8 Icons [icons8]/Business/briefcase/briefcase-512.png"  transform="matrix(0.0406 0 0 0.0406 540 50)">
</image>
<image display="none" overflow="visible" width="512" height="512" xlink:href="../../../Knowledge/Icon/[+++++] (Full) Windows 8 Icons [icons8]/Business/assistant/assistant-512.png"  transform="matrix(0.0406 0 0 0.0406 540 50)">
</image>
<g>
	<path display="none" fill="#FFFFFF" d="M560.834,70.841c-6.929,0-13.86,0-20.793,0c0-6.931,0-13.862,0-20.796
		c6.928,0,13.858,0,20.793,0C560.834,56.974,560.834,63.907,560.834,70.841z M541.792,65.817c-0.008,0.317,0.167,0.552,0.563,0.667
		c0.623,0.181,1.246,0.363,1.871,0.534c0.15,0.041,0.237,0.111,0.298,0.26c0.247,0.607,0.507,1.209,0.766,1.811
		c0.166,0.384,0.422,0.526,0.821,0.448c0.643-0.126,1.286-0.258,1.926-0.396c0.165-0.036,0.287-0.014,0.421,0.101
		c0.479,0.409,0.97,0.802,1.458,1.201c0.388,0.317,0.66,0.316,1.051-0.004c0.487-0.398,0.978-0.793,1.458-1.2
		c0.127-0.107,0.242-0.137,0.402-0.102c0.62,0.137,1.243,0.262,1.866,0.39c0.472,0.097,0.722-0.034,0.913-0.481
		c0.258-0.603,0.509-1.209,0.775-1.808c0.037-0.084,0.135-0.17,0.222-0.197c0.627-0.192,1.258-0.369,1.888-0.55
		c0.462-0.133,0.63-0.381,0.589-0.852c-0.057-0.654-0.112-1.308-0.155-1.963c-0.006-0.091,0.044-0.211,0.109-0.275
		c0.457-0.453,0.924-0.894,1.388-1.34c0.378-0.364,0.409-0.626,0.125-1.075c-0.344-0.543-0.693-1.083-1.027-1.632
		c-0.047-0.078-0.061-0.207-0.034-0.294c0.191-0.606,0.396-1.207,0.598-1.809c0.18-0.538,0.094-0.764-0.404-1.051
		c-0.551-0.318-1.104-0.631-1.65-0.957c-0.073-0.044-0.144-0.143-0.158-0.227c-0.117-0.666-0.22-1.334-0.329-2.001
		c-0.045-0.279-0.171-0.505-0.457-0.589c-0.141-0.041-0.293-0.049-0.441-0.055c-0.582-0.024-1.163-0.047-1.745-0.059
		c-0.177-0.004-0.296-0.059-0.403-0.208c-0.367-0.511-0.751-1.01-1.129-1.513c-0.295-0.392-0.56-0.458-1.003-0.248
		c-0.586,0.278-1.174,0.555-1.756,0.84c-0.122,0.06-0.22,0.056-0.339-0.002c-0.565-0.276-1.134-0.543-1.702-0.813
		c-0.516-0.245-0.747-0.187-1.094,0.275c-0.362,0.482-0.729,0.959-1.08,1.449c-0.11,0.154-0.23,0.217-0.418,0.221
		c-0.656,0.016-1.313,0.037-1.968,0.076c-0.401,0.024-0.607,0.238-0.67,0.633c-0.106,0.661-0.209,1.322-0.326,1.981
		c-0.016,0.089-0.088,0.197-0.166,0.243c-0.563,0.337-1.135,0.659-1.703,0.987c-0.42,0.243-0.518,0.503-0.363,0.967
		c0.203,0.609,0.402,1.219,0.615,1.825c0.051,0.144,0.032,0.25-0.049,0.375c-0.35,0.539-0.692,1.083-1.035,1.627
		c-0.253,0.401-0.218,0.682,0.124,1.011c0.473,0.456,0.951,0.906,1.417,1.369c0.065,0.064,0.111,0.186,0.105,0.277
		C541.911,64.372,541.852,65.059,541.792,65.817z"/>
	<path d="M41.809,388.871c1.481-18.773,2.942-35.805,4.029-52.861c0.144-2.258-0.989-5.269-2.594-6.86
		c-11.545-11.452-23.381-22.612-35.093-33.897c-8.464-8.156-9.323-15.127-3.065-25.05c8.491-13.463,16.954-26.946,25.625-40.293
		c2.003-3.084,2.462-5.7,1.207-9.277c-5.265-14.997-10.208-30.108-15.223-45.192c-3.823-11.498-1.411-17.927,9-23.95
		c14.064-8.137,28.223-16.113,42.169-24.447c1.924-1.15,3.72-3.801,4.114-6.017c2.901-16.319,5.453-32.7,8.07-49.069
		c1.566-9.796,6.664-15.094,16.605-15.679c16.23-0.955,32.49-1.491,48.745-1.877c4.638-0.11,7.61-1.677,10.341-5.484
		c8.694-12.119,17.798-23.943,26.753-35.875c8.588-11.444,14.314-12.89,27.09-6.821c14.065,6.681,28.156,13.308,42.151,20.132
		c2.969,1.447,5.384,1.54,8.409,0.059c14.436-7.066,28.977-13.918,43.501-20.801c10.972-5.2,17.53-3.57,24.834,6.134
		c9.374,12.455,18.873,24.821,27.972,37.474c2.663,3.703,5.604,5.068,9.991,5.16c14.413,0.303,28.823,0.867,43.228,1.472
		c3.665,0.154,7.45,0.347,10.933,1.366c7.091,2.074,10.194,7.674,11.316,14.583c2.683,16.528,5.238,33.078,8.143,49.567
		c0.365,2.071,2.107,4.529,3.924,5.614c13.517,8.072,27.217,15.838,40.854,23.709c12.33,7.117,14.463,12.723,10.001,26.037
		c-4.999,14.914-10.085,29.8-14.811,44.8c-0.682,2.165-0.334,5.366,0.841,7.292c8.29,13.585,16.934,26.954,25.441,40.406
		c7.035,11.125,6.278,17.619-3.092,26.628c-11.482,11.041-23.066,21.978-34.373,33.194c-1.616,1.603-2.838,4.58-2.694,6.822
		c1.045,16.219,2.418,32.418,3.828,48.611c1.015,11.66-3.137,17.805-14.58,21.103c-15.598,4.496-31.231,8.878-46.751,13.631
		c-2.166,0.663-4.585,2.8-5.505,4.868c-6.595,14.835-12.806,29.84-19.192,44.769c-4.735,11.07-10.921,14.319-22.611,11.914
		c-15.412-3.171-30.838-6.281-46.204-9.662c-3.966-0.873-6.822-0.14-9.96,2.52c-11.892,10.08-24.042,19.856-36.113,29.724
		c-9.676,7.911-16.411,7.939-26.023,0.088c-12.075-9.863-24.246-19.614-36.099-29.737c-3.331-2.845-6.356-3.386-10.434-2.505
		c-15.869,3.43-31.777,6.692-47.709,9.819c-9.887,1.94-16.229-1.573-20.34-11.095c-6.436-14.907-12.867-29.82-18.981-44.86
		c-1.5-3.69-3.661-5.422-7.382-6.443c-15.492-4.25-30.918-8.744-46.344-13.231C45.952,402.535,41.606,396.731,41.809,388.871z
		 M235.421,295.488c-1.77-1.992-3.041-3.555-4.447-4.986c-15.86-16.145-31.701-32.31-47.634-48.383
		c-7.636-7.703-15.62-7.689-23.264-0.097c-5.591,5.552-11.068,11.218-16.594,16.834c-9.275,9.425-9.281,16.877,0.03,26.35
		c25.738,26.182,51.486,52.355,77.243,78.519c1.527,1.551,3.085,3.088,4.759,4.473c12.522,10.351,25.769,8.811,34.836-4.706
		c37.333-55.657,74.493-111.43,111.631-167.217c5.504-8.267,3.677-16.439-4.564-22.239c-6.44-4.532-12.964-8.945-19.455-13.403
		c-11.083-7.611-18.18-6.26-25.643,4.913c-27.731,41.519-55.454,83.045-83.184,124.565
		C238.122,291.628,237.063,293.114,235.421,295.488z"/>
	<path display="none" fill="#FFFFFF" d="M549.61,62.047c0.066-0.096,0.109-0.156,0.15-0.217c1.12-1.676,2.239-3.353,3.359-5.03
		c0.301-0.451,0.588-0.506,1.035-0.198c0.262,0.18,0.526,0.358,0.786,0.541c0.333,0.234,0.406,0.564,0.184,0.898
		c-1.5,2.253-3,4.505-4.507,6.752c-0.366,0.546-0.901,0.608-1.407,0.19c-0.068-0.056-0.131-0.118-0.192-0.181
		c-1.04-1.056-2.08-2.113-3.119-3.17c-0.376-0.382-0.376-0.683-0.001-1.064c0.223-0.227,0.444-0.456,0.67-0.68
		c0.309-0.307,0.631-0.307,0.939,0.004c0.643,0.649,1.283,1.302,1.923,1.954C549.487,61.903,549.538,61.966,549.61,62.047z"/>
</g>
</svg>
