<?xml version="1.0" encoding="utf-8"?>
<!-- Generator: Adobe Illustrator 17.0.0, SVG Export Plug-In . SVG Version: 6.00 Build 0)  -->
<!DOCTYPE svg PUBLIC "-//W3C//DTD SVG 1.1//EN" "http://www.w3.org/Graphics/SVG/1.1/DTD/svg11.dtd">
<svg version="1.1" id="Layer_1" xmlns="http://www.w3.org/2000/svg" xmlns:xlink="http://www.w3.org/1999/xlink" x="0px" y="0px"
	 width="512px" height="512px" viewBox="0 0 512 512" enable-background="new 0 0 512 512" xml:space="preserve">
<g>
	<line fill="none" stroke="#B35047" x1="32" y1="0" x2="32" y2="512"/>
	<line fill="none" stroke="#B35047" x1="64" y1="0" x2="64" y2="512"/>
	<line fill="none" stroke="#B35047" x1="96" y1="0" x2="96" y2="512"/>
	<line fill="none" stroke="#B35047" x1="128" y1="0" x2="128" y2="512"/>
	<line fill="none" stroke="#B35047" x1="160" y1="0" x2="160" y2="512"/>
	<line fill="none" stroke="#B35047" x1="192" y1="0" x2="192" y2="512"/>
	<line fill="none" stroke="#B35047" x1="224" y1="0" x2="224" y2="512"/>
	<line fill="none" stroke="#B35047" x1="256" y1="0" x2="256" y2="512"/>
	<line fill="none" stroke="#B35047" x1="288" y1="0" x2="288" y2="512"/>
	<line fill="none" stroke="#B35047" x1="320" y1="0" x2="320" y2="512"/>
	<line fill="none" stroke="#B35047" x1="352" y1="0" x2="352" y2="512"/>
	<line fill="none" stroke="#B35047" x1="384" y1="0" x2="384" y2="512"/>
	<line fill="none" stroke="#B35047" x1="416" y1="0" x2="416" y2="512"/>
	<line fill="none" stroke="#B35047" x1="448" y1="0" x2="448" y2="512"/>
	<line fill="none" stroke="#B35047" x1="480" y1="0" x2="480" y2="512"/>
	<line fill="none" stroke="#B35047" x1="0" y1="32" x2="512" y2="32"/>
	<line fill="none" stroke="#B35047" x1="0" y1="64" x2="512" y2="64"/>
	<line fill="none" stroke="#B35047" x1="0" y1="96" x2="512" y2="96"/>
	<line fill="none" stroke="#B35047" x1="0" y1="128" x2="512" y2="128"/>
	<line fill="none" stroke="#B35047" x1="0" y1="160" x2="512" y2="160"/>
	<line fill="none" stroke="#B35047" x1="0" y1="192" x2="512" y2="192"/>
	<line fill="none" stroke="#B35047" x1="0" y1="224" x2="512" y2="224"/>
	<line fill="none" stroke="#B35047" x1="0" y1="256" x2="512" y2="256"/>
	<line fill="none" stroke="#B35047" x1="0" y1="288" x2="512" y2="288"/>
	<line fill="none" stroke="#B35047" x1="0" y1="320" x2="512" y2="320"/>
	<line fill="none" stroke="#B35047" x1="0" y1="352" x2="512" y2="352"/>
	<line fill="none" stroke="#B35047" x1="0" y1="384" x2="512" y2="384"/>
	<line fill="none" stroke="#B35047" x1="0" y1="416" x2="512" y2="416"/>
	<line fill="none" stroke="#B35047" x1="0" y1="448" x2="512" y2="448"/>
	<line fill="none" stroke="#B35047" x1="0" y1="480" x2="512" y2="480"/>
	<rect x="0" fill="none" stroke="#B35047" width="512" height="512"/>
</g>
<image overflow="visible" width="512" height="512" xlink:href="../../../Knowledge/Icon/[+++++] (Full) Windows 8 Icons [icons8]/Kitchen/list_ingredients/list_ingredients-512_.png"  transform="matrix(0.0406 0 0 0.0406 625 127)">
</image>
<g>
	<path d="M130.466,1c56.113,0,112.227,0,168.34,0c2.187,0.639,4.378,1.264,6.56,1.92c13.284,3.995,23.775,12.516,33.39,21.875
		c26.745,26.034,53.148,52.422,79.518,78.837c6.551,6.563,12.72,13.552,18.613,20.716c8.326,10.122,15.105,21.171,15.114,34.87
		c0.062,91.247,0.283,182.495-0.118,273.741c-0.15,34.296-21.294,62.685-53.189,73.649c-5.581,1.919-11.467,2.951-17.212,4.393
		c-83.672,0-167.344,0-251.016,0c-5.746-1.442-11.632-2.474-17.214-4.393c-32.738-11.26-53.261-40.558-53.321-76.145
		c-0.089-52.761-0.024-105.523-0.024-158.285c0-63.546-0.06-127.092,0.025-190.638c0.048-35.587,20.582-64.885,53.32-76.145
		C118.833,3.474,124.72,2.442,130.466,1z M236.453,40.258c-2.02-0.143-3.467-0.334-4.915-0.334
		c-30.373-0.005-60.747-0.043-91.119,0.089c-3.936,0.017-7.995,0.471-11.782,1.506c-19.263,5.268-29.824,20.096-29.828,41.711
		c-0.025,115.186-0.027,230.372,0.049,345.558c0.003,4.435,0.318,9.025,1.466,13.279c5.165,19.14,20.093,29.955,41.111,29.966
		c76.348,0.041,152.696,0.04,229.045-0.047c4.268-0.005,8.677-0.395,12.777-1.503c19.28-5.209,29.874-20.074,29.882-41.661
		c0.031-82.489,0.022-164.978,0.003-247.467c-0.003-14.534-4.6-20.005-18.92-22.559c-2.599-0.463-5.279-0.59-7.926-0.637
		c-11.78-0.206-23.562-0.366-35.344-0.465c-12.446-0.105-24.896,0.053-37.337-0.241c-7.884-0.187-13.623-4.397-16.467-11.608
		c-1.411-3.578-1.716-7.762-1.761-11.681c-0.273-23.731-0.046-47.471-0.659-71.191c-0.144-5.554-2.177-11.379-4.615-16.469
		c-2.666-5.567-8.6-7.352-14.618-5.669c0,5.831,0.079,11.786-0.019,17.739c-0.134,8.118,0.069,16.282-0.739,24.339
		c-0.912,9.09-9.293,15.614-18.843,15.652c-9.194,0.037-17.748-6.463-18.554-15.379c-0.909-10.045-0.669-20.196-0.871-30.302
		C236.384,48.781,236.453,44.674,236.453,40.258z"/>
	<path display="none" fill="#FFFFFF" d="M652.559,249.841c0.234-0.059,0.474-0.101,0.702-0.179c1.301-0.447,2.163-1.605,2.169-3.004
		c0.016-3.721,0.007-7.443,0.005-11.164c0-0.559-0.277-1.009-0.616-1.422c-0.24-0.292-0.492-0.577-0.759-0.845
		c-1.076-1.077-2.152-2.154-3.243-3.215c-0.392-0.382-0.82-0.729-1.362-0.892c-0.089-0.027-0.178-0.052-0.268-0.078
		c2.883,0,5.765,0,8.651,0c0,6.933,0,13.867,0,20.8C656.078,249.841,654.319,249.841,652.559,249.841z"/>
	<path display="none" fill="#FFFFFF" d="M642.322,229.041c-0.234,0.059-0.474,0.101-0.702,0.179
		c-1.335,0.459-2.173,1.654-2.175,3.106c-0.003,2.592-0.001,5.183-0.001,7.775c0,2.152-0.003,4.304,0.001,6.456
		c0.003,1.451,0.839,2.646,2.175,3.106c0.228,0.078,0.468,0.12,0.702,0.179c-1.76,0-3.521,0-5.281,0c0-6.933,0-13.867,0-20.8
		C638.801,229.041,640.561,229.041,642.322,229.041z"/>
	<path display="none" fill="#FFFFFF" d="M646.644,230.642c0,0.18-0.003,0.348,0.001,0.515c0.008,0.412-0.002,0.826,0.036,1.236
		c0.033,0.364,0.382,0.629,0.757,0.627c0.389-0.002,0.731-0.268,0.768-0.638c0.033-0.329,0.025-0.662,0.03-0.993
		c0.004-0.243,0.001-0.486,0.001-0.723c0.245-0.069,0.487,0.004,0.596,0.231c0.099,0.208,0.182,0.445,0.188,0.672
		c0.025,0.967,0.016,1.936,0.027,2.903c0.002,0.16,0.014,0.33,0.072,0.476c0.116,0.294,0.35,0.466,0.672,0.473
		c0.507,0.012,1.015,0.006,1.523,0.01c0.48,0.004,0.961,0.011,1.441,0.019c0.108,0.002,0.217,0.007,0.323,0.026
		c0.584,0.104,0.772,0.327,0.772,0.92c0.001,3.364,0.001,6.729,0,10.093c0,0.88-0.432,1.487-1.219,1.699
		c-0.167,0.045-0.347,0.061-0.521,0.061c-3.114,0.004-6.228,0.004-9.341,0.002c-0.857,0-1.466-0.442-1.677-1.222
		c-0.047-0.173-0.06-0.361-0.06-0.542c-0.003-4.698-0.003-9.396-0.002-14.093c0-0.882,0.431-1.486,1.217-1.701
		c0.154-0.042,0.32-0.061,0.481-0.061c1.239-0.005,2.477-0.004,3.716-0.004C646.503,230.628,646.562,230.636,646.644,230.642z
		 M646.156,241.668c-0.235,0.67-0.487,1.312-0.684,1.97c-0.177,0.592-0.362,1.189-0.268,1.83c0.175,1.193,1.318,2.047,2.548,1.886
		c1.193-0.156,2.09-1.29,1.937-2.467c-0.116-0.891-0.408-1.734-0.731-2.567c-0.082-0.212-0.169-0.422-0.253-0.632
		c0.188-0.168,0.316-0.354,0.318-0.602c0.003-0.298,0.009-0.596-0.001-0.893c-0.012-0.341-0.239-0.616-0.566-0.711
		c-0.069-0.02-0.14-0.037-0.206-0.054c-0.014-0.31-0.01-0.609-0.044-0.903c-0.046-0.396-0.374-0.668-0.765-0.667
		c-0.405,0.002-0.734,0.275-0.772,0.681c-0.027,0.293-0.005,0.591-0.005,0.884c-0.073,0.017-0.106,0.024-0.138,0.032
		c-0.446,0.104-0.667,0.376-0.675,0.833c-0.003,0.189,0.007,0.379-0.003,0.568C645.833,241.186,645.901,241.478,646.156,241.668z
		 M646.665,235.436c-0.006,0-0.013,0-0.019,0c0,0.257-0.002,0.514,0.001,0.771c0.001,0.06,0.016,0.12,0.026,0.18
		c0.059,0.35,0.393,0.638,0.737,0.636c0.407-0.002,0.773-0.264,0.791-0.638c0.03-0.613,0.033-1.23,0.003-1.842
		c-0.02-0.407-0.369-0.69-0.745-0.684c-0.43,0.007-0.75,0.268-0.789,0.685C646.643,234.84,646.665,235.139,646.665,235.436z"/>
	<path d="M224.472,310.618c-6.244-4.671-7.905-11.816-7.491-19.859c0.239-4.634-0.015-9.291,0.062-13.936
		c0.187-11.209,5.617-17.875,16.55-20.427c0.787-0.184,1.575-0.361,3.376-0.774c0-7.178-0.529-14.48,0.128-21.674
		c0.909-9.956,8.978-16.659,18.917-16.705c9.575-0.044,17.63,6.637,18.749,16.345c0.831,7.206,0.742,14.518,1.079,22.129
		c1.616,0.421,3.341,0.831,5.043,1.321c8.038,2.314,13.599,9.06,13.885,17.426c0.249,7.291,0.112,14.599,0.036,21.898
		c-0.063,6.076-3.21,10.644-7.808,14.753c2.061,5.137,4.188,10.293,6.204,15.492c7.919,20.423,15.074,41.1,17.915,62.934
		c3.752,28.837-18.255,56.648-47.503,60.478c-30.158,3.948-58.19-16.995-62.471-46.236c-2.3-15.711,2.219-30.343,6.566-44.867
		C212.54,342.777,218.709,327.039,224.472,310.618z M256.252,363.395c-17.49-0.126-31.774,13.825-32.067,31.318
		c-0.288,17.218,14.052,31.723,31.509,31.872c17.485,0.149,31.739-13.769,32.065-31.31
		C288.079,378.106,273.664,363.52,256.252,363.395z"/>
	<path d="M236.96,157.82c0-7.286-0.546-14.622,0.131-21.845c0.959-10.236,8.803-16.63,19.351-16.806
		c9.216-0.154,17.78,6.798,18.275,16.774c0.745,15.026,0.677,30.145-0.062,45.174c-0.451,9.158-9.431,15.593-19.402,15.634
		c-8.446,0.035-16.62-7.013-18.075-15.597c-0.249-1.47-0.633-2.946-0.65-4.422c-0.073-6.303-0.031-12.607-0.031-18.91
		C236.652,157.821,236.806,157.82,236.96,157.82z"/>
	<path display="none" fill="#FFFFFF" d="M647.452,243.821c0.71,0.005,1.298,0.6,1.285,1.3c-0.013,0.715-0.595,1.283-1.308,1.277
		c-0.712-0.006-1.297-0.598-1.285-1.3C646.156,244.385,646.739,243.816,647.452,243.821z"/>
</g>
<g display="none">
	<path display="inline" d="M141.449,511c-2.324,0-4.648,0-6.973,0c-1.43-0.732-2.858-1.467-4.29-2.196
		c-5.621-2.863-9.511-7.161-10.581-13.506c-1.741-10.316,2.26-17.444,12.7-22.67c33.031-16.535,66.088-33.019,99.134-49.525
		c5.818-2.906,6.064-3.493,4.056-10.419c-1.988,0-4.119,0-6.25,0c-40.308,0-80.616,0.017-120.925-0.008
		c-17.084-0.011-34.183,0.327-51.248-0.276c-26.234-0.927-47.683-18.804-54.096-44.231c-0.639-2.532-1.317-5.053-1.977-7.58
		c0-89.316,0-178.633,0-267.949c0.351-1.075,0.848-2.126,1.031-3.229c1.806-10.901,6.337-20.532,13.615-28.809
		c12.659-14.396,28.872-20.337,47.782-20.301c55.383,0.108,110.767,0.038,166.151,0.037c2.101,0,4.202,0,6.901,0
		c0-5.053-0.208-9.497,0.06-13.911c0.258-4.254,0.484-8.629,1.658-12.681C240.298,6.493,246.574,3.522,253.012,1
		c1.992,0,3.984,0,5.977,0c0.403,0.285,0.767,0.72,1.214,0.832c10.974,2.758,15.191,11.601,15.303,21.109
		c0.066,5.589,0.012,11.18,0.012,17.398c2.691,0,4.797,0,6.903,0c55.55,0.001,111.099-0.07,166.649,0.031
		c30.597,0.056,53.321,17.421,60.228,45.641c0.542,2.216,1.135,4.42,1.704,6.629c0,89.316,0,178.633,0,267.949
		c-2.598,7.443-4.147,15.485-7.991,22.217c-11.706,20.502-30.04,29.953-53.595,29.909c-55.599-0.103-111.198-0.036-166.796-0.016
		c-2.239,0.001-4.477,0.223-6.505,0.331c-1.609,5.263-0.094,7.973,4.527,10.246c32.715,16.096,65.287,32.483,97.887,48.814
		c2.362,1.183,4.718,2.464,6.841,4.022c6.916,5.076,9.275,14.764,6.001,22.707c-2.968,7.202-8.94,10.227-15.837,12.181
		c-1.66,0-3.32,0-4.98,0c-31.43-15.433-62.859-30.866-94.897-46.597c0.307,13.267-2.83,24.918-17.376,26.197
		c-17.622,1.551-21.922-11.033-22.126-26.108C204.134,480.216,172.791,495.608,141.449,511z M256.005,354.315
		c69.558,0,139.117,0,208.675-0.001c7.367,0,7.37-0.005,7.371-7.098c0.001-80.515,0.001-161.03,0-241.545
		c0-6.838-0.006-6.848-6.633-6.848c-139.615-0.002-279.229-0.002-418.844,0c-6.618,0-6.623,0.01-6.623,6.858
		c-0.001,80.349-0.01,160.698,0.013,241.047c0.002,8.05-1.148,7.58,7.367,7.581C116.888,354.32,186.447,354.315,256.005,354.315z"/>
	<path fill="#FFFFFF" d="M652.316,249.841c0.281-0.08,0.525-0.203,0.646-0.497c0.134-0.324,0.037-0.719-0.245-0.926
		c-0.087-0.064-0.183-0.116-0.279-0.164c-1.33-0.666-2.658-1.334-3.992-1.991c-0.188-0.093-0.25-0.203-0.185-0.418
		c0.083-0.004,0.174-0.013,0.265-0.013c2.268-0.001,4.535-0.004,6.803,0.001c0.961,0.002,1.708-0.384,2.186-1.22
		c0.157-0.275,0.22-0.603,0.326-0.906c0,2.045,0,4.09,0,6.134C655.999,249.841,654.157,249.841,652.316,249.841z"/>
	<path fill="#FFFFFF" d="M637.041,243.706c0.027,0.103,0.055,0.206,0.081,0.309c0.262,1.037,1.136,1.766,2.206,1.804
		c0.696,0.025,1.393,0.011,2.09,0.011c1.644,0.001,3.288,0,4.932,0c0.087,0,0.174,0,0.255,0c0.082,0.282,0.072,0.306-0.165,0.425
		c-1.348,0.673-2.696,1.345-4.043,2.02c-0.426,0.213-0.589,0.504-0.518,0.925c0.044,0.259,0.202,0.434,0.432,0.551
		c0.058,0.03,0.117,0.06,0.175,0.09c-1.815,0-3.629,0-5.444,0C637.041,247.796,637.041,245.751,637.041,243.706z"/>
	<path fill="#FFFFFF" d="M647.319,229.041c-0.263,0.103-0.518,0.224-0.604,0.52c-0.048,0.165-0.057,0.344-0.068,0.517
		c-0.011,0.18-0.002,0.361-0.002,0.567c-0.11,0-0.196,0-0.281,0c-2.259,0-4.518,0.003-6.776-0.002
		c-0.771-0.002-1.432,0.241-1.949,0.828c-0.297,0.338-0.482,0.73-0.555,1.175c-0.007,0.045-0.028,0.088-0.042,0.132
		c0-1.244,0-2.488,0-3.738C640.467,229.041,643.893,229.041,647.319,229.041z"/>
	<path fill="#FFFFFF" d="M657.841,232.778c-0.023-0.09-0.047-0.18-0.069-0.27c-0.282-1.151-1.208-1.859-2.456-1.861
		c-2.266-0.004-4.531-0.001-6.797-0.001c-0.086,0-0.172,0-0.282,0c0-0.254,0.002-0.482,0-0.71c-0.005-0.388-0.177-0.748-0.624-0.861
		c-0.018-0.005-0.033-0.022-0.049-0.034c3.426,0,6.852,0,10.278,0C657.841,230.286,657.841,231.532,657.841,232.778z"/>
	<path fill="#FFFFFF" d="M642.769,249.841c1.278-0.628,2.557-1.255,3.862-1.897c0.008,0.615,0.184,1.128,0.902,1.065
		c0.593-0.052,0.721-0.527,0.709-1.068c1.307,0.642,2.588,1.271,3.87,1.9C648.998,249.841,645.883,249.841,642.769,249.841z"/>
	<path fill="#FFFFFF" d="M647.441,243.45c-2.837,0-5.674,0-8.511,0c-0.347,0-0.3,0.019-0.3-0.309
		c-0.001-3.277-0.001-6.554-0.001-9.831c0-0.279,0-0.28,0.27-0.28c5.694,0,11.388,0,17.082,0c0.27,0,0.271,0,0.271,0.279
		c0,3.284,0,6.567,0,9.851c0,0.289,0,0.289-0.301,0.289C653.115,243.45,650.278,243.45,647.441,243.45z M648.411,236.742
		c0.07,0.066,0.12,0.11,0.166,0.157c0.469,0.469,0.938,0.939,1.408,1.407c0.432,0.43,0.88,0.431,1.31,0.002
		c0.996-0.995,1.993-1.99,2.987-2.987c0.085-0.086,0.164-0.181,0.229-0.282c0.24-0.371,0.086-0.9-0.311-1.092
		c-0.35-0.168-0.684-0.102-0.994,0.207c-0.801,0.798-1.6,1.597-2.398,2.399c-0.052,0.052-0.079,0.127-0.118,0.192
		c-0.033-0.002-0.067-0.004-0.1-0.005c-0.04-0.063-0.07-0.136-0.122-0.188c-0.524-0.529-1.048-1.058-1.581-1.578
		c-0.113-0.111-0.251-0.218-0.398-0.269c-0.399-0.139-0.755,0.023-0.985,0.424c-0.575,1.003-1.148,2.008-1.722,3.012
		c-0.197,0.345-0.395,0.689-0.61,1.066c-0.042-0.091-0.071-0.148-0.095-0.208c-0.289-0.721-0.573-1.445-0.868-2.164
		c-0.264-0.644-0.908-0.772-1.402-0.284c-0.274,0.271-0.546,0.545-0.819,0.818c-0.484,0.483-0.971,0.963-1.45,1.451
		c-0.388,0.395-0.38,0.889,0.008,1.228c0.31,0.271,0.773,0.23,1.114-0.106c0.443-0.437,0.881-0.88,1.322-1.32
		c0.05-0.05,0.105-0.096,0.168-0.154c0.034,0.081,0.058,0.137,0.08,0.193c0.345,0.859,0.689,1.719,1.034,2.578
		c0.093,0.233,0.228,0.43,0.474,0.525c0.406,0.156,0.791,0.016,1.019-0.379c0.463-0.803,0.92-1.608,1.38-2.413
		C647.557,238.236,647.976,237.503,648.411,236.742z"/>
	<path display="inline" d="M279.792,189.829c-10.656,18.653-20.929,36.635-31.201,54.617
		c-11.268,19.726-22.478,39.486-33.828,59.164c-5.591,9.693-15.029,13.115-24.986,9.302c-6.027-2.308-9.325-7.146-11.616-12.861
		c-8.448-21.069-16.893-42.139-25.344-63.207c-0.552-1.376-1.139-2.739-1.97-4.731c-1.552,1.419-2.886,2.55-4.12,3.782
		c-10.81,10.786-21.547,21.647-32.419,32.371c-8.365,8.25-19.71,9.245-27.307,2.609c-9.5-8.299-9.687-20.43-0.185-30.103
		c11.748-11.959,23.687-23.731,35.544-35.583c6.692-6.689,13.352-13.409,20.082-20.059c12.11-11.965,27.906-8.835,34.369,6.955
		c7.219,17.636,14.185,35.376,21.278,53.064c0.588,1.467,1.308,2.881,2.326,5.104c5.29-9.241,10.131-17.689,14.964-26.142
		c14.073-24.617,28.116-49.25,42.225-73.846c5.635-9.824,14.348-13.81,24.142-10.4c3.593,1.251,6.968,3.877,9.746,6.588
		c13.067,12.752,25.915,25.728,38.765,38.699c1.259,1.271,2.001,3.055,2.983,4.602c0.816,0.043,1.633,0.086,2.449,0.129
		c0.952-1.582,1.632-3.433,2.896-4.704c19.547-19.655,39.148-39.257,58.785-58.822c7.599-7.572,15.8-9.21,24.371-5.081
		c9.744,4.694,13.508,17.658,7.629,26.766c-1.604,2.486-3.534,4.827-5.625,6.924c-24.375,24.452-48.801,48.854-73.231,73.25
		c-10.536,10.522-21.535,10.508-32.124-0.04c-11.525-11.48-23.008-23.002-34.518-34.497
		C282.723,192.529,281.508,191.443,279.792,189.829z"/>
</g>
<g display="none">
	<path fill="#FFFFFF" d="M647.806,229.041c3.345,0,6.69,0,10.034,0c0,6.933,0,13.867,0,20.8c-6.933,0-13.867,0-20.8,0
		c0-6.933,0-13.867,0-20.8c3.345,0,6.69,0,10.034,0c-0.073,0.012-0.145,0.031-0.219,0.034c-0.932,0.043-1.839,0.212-2.713,0.542
		c-1.668,0.631-2.957,1.701-3.762,3.309c-0.808,1.613-0.959,3.337-0.795,5.103c0.025,0.263-0.036,0.443-0.198,0.654
		c-0.717,0.935-0.955,1.993-0.559,3.113c0.373,1.055,1.18,1.743,2.171,2.219c0.133,0.064,0.212,0.136,0.26,0.277
		c0.43,1.269,1.215,2.283,2.26,3.105c0.427,0.336,0.941,0.267,1.216-0.162c0.182-0.285,0.186-0.756-0.263-1.11
		c-0.926-0.73-1.573-1.645-1.846-2.809c-0.09-0.383-0.34-0.62-0.746-0.67c-0.066-0.008-0.131-0.034-0.192-0.06
		c-0.517-0.225-0.925-0.582-1.236-1.048c-0.342-0.513-0.225-1.033-0.019-1.587c0.241,0.243,0.508,0.318,0.804,0.25
		c0.362-0.083,0.597-0.406,0.592-0.82c-0.008-0.713,0.034-1.42,0.206-2.114c0.018-0.072,0.101-0.159,0.172-0.18
		c0.2-0.059,0.407-0.102,0.614-0.126c0.717-0.082,1.262-0.421,1.611-1.056c0.133-0.242,0.251-0.494,0.365-0.746
		c0.082-0.181,0.148-0.369,0.222-0.558c0.031,0.017,0.048,0.02,0.052,0.03c0.035,0.08,0.067,0.162,0.101,0.243
		c0.348,0.839,0.912,1.465,1.813,1.691c0.455,0.114,0.933,0.163,1.403,0.18c0.655,0.023,1.313-0.026,1.969-0.019
		c0.78,0.009,1.553,0.076,2.286,0.385c0.148,0.062,0.234,0.146,0.247,0.306c0.052,0.646,0.118,1.291,0.155,1.938
		c0.027,0.471,0.226,0.759,0.674,0.857c0.121,0.026,0.133,0.083,0.133,0.18c-0.002,0.562,0.002,1.124-0.004,1.686
		c-0.001,0.073-0.03,0.182-0.081,0.211c-0.239,0.133-0.48,0.29-0.74,0.351c-0.435,0.101-0.671,0.281-0.784,0.711
		c-0.055,0.209-0.114,0.418-0.188,0.62c-0.184,0.501-0.48,0.935-0.807,1.353c-0.334,0.428-0.27,0.925,0.136,1.205
		c0.352,0.243,0.793,0.156,1.097-0.212c0.51-0.616,0.905-1.295,1.16-2.055c0.021-0.061,0.073-0.126,0.129-0.16
		c0.346-0.209,0.696-0.41,1.047-0.61c0.051-0.029,0.113-0.04,0.201-0.071c-0.021,0.095-0.029,0.147-0.043,0.197
		c-0.258,0.924-0.67,1.783-1.141,2.614c-0.444,0.784-0.45,0.781-1.32,0.999c-0.059,0.015-0.118,0.029-0.178,0.039
		c-0.618,0.103-1.236,0.204-1.862,0.307c-0.133-0.503-0.375-0.878-0.76-1.148c-1.037-0.728-2.359-0.725-3.401,0
		c-0.909,0.633-1.028,1.816-0.258,2.609c0.37,0.381,0.829,0.608,1.345,0.703c1.016,0.187,1.919-0.028,2.661-0.787
		c0.063-0.064,0.168-0.11,0.259-0.121c0.409-0.052,0.821-0.079,1.23-0.134c0.833-0.113,1.653-0.286,2.425-0.628
		c0.149-0.066,0.312-0.167,0.397-0.298c0.879-1.358,1.613-2.783,1.967-4.379c0.018-0.082,0.098-0.174,0.174-0.217
		c0.674-0.382,1.12-0.949,1.193-1.714c0.072-0.758,0.088-1.531,0.027-2.289c-0.085-1.059-0.78-1.822-1.761-2.058
		c-0.207-0.05-0.424-0.06-0.662-0.092c0-0.076,0.008-0.156-0.001-0.234c-0.076-0.678-0.103-1.366-0.243-2.031
		c-0.698-3.295-3.145-5.188-6.174-5.594C648.531,229.115,648.168,229.081,647.806,229.041z M645.829,240.235
		c-0.006-0.876-0.724-1.59-1.593-1.584c-0.875,0.006-1.588,0.724-1.585,1.596c0.003,0.871,0.729,1.592,1.596,1.586
		C645.12,241.826,645.835,241.104,645.829,240.235z M650.551,238.66c-0.85,0.024-1.605,0.81-1.484,1.812
		c0.094,0.775,0.891,1.432,1.684,1.353c0.907-0.09,1.559-0.85,1.473-1.716C652.137,239.237,651.381,238.582,650.551,238.66z"/>
	<path display="inline" d="M246.215,1c8.885,0.997,17.791,1.829,26.651,3.017c74.407,9.975,134.492,56.465,151.644,137.403
		c3.458,16.315,4.101,33.229,5.979,49.875c0.217,1.924,0.029,3.893,0.029,5.752c5.825,0.779,11.156,1.026,16.251,2.252
		c24.104,5.803,41.182,24.535,43.259,50.551c1.488,18.627,1.099,37.615-0.668,56.232c-1.784,18.793-12.753,32.718-29.304,42.107
		c-1.87,1.061-3.828,3.309-4.276,5.332c-8.684,39.199-26.719,74.198-48.312,107.548c-2.087,3.223-6.106,5.702-9.762,7.319
		c-18.983,8.394-39.119,12.654-59.575,15.429c-10.035,1.361-20.165,2.014-30.211,3.303c-2.232,0.286-4.808,1.399-6.354,2.982
		c-18.217,18.66-40.407,23.922-65.351,19.341c-12.671-2.327-23.966-7.898-33.045-17.257c-18.904-19.485-15.975-48.546,6.347-64.087
		c25.585-17.813,58.067-17.878,83.537-0.002c9.445,6.629,15.396,15.843,18.662,28.201c15.375-2.534,30.558-5.029,45.736-7.549
		c1.472-0.244,2.926-0.606,4.375-0.969c21.388-5.351,21.525-5.276,32.43-24.531c11.561-20.412,21.667-41.497,28.014-64.201
		c0.347-1.24,0.559-2.517,1.068-4.848c-2.179,0.747-3.692,1.018-4.949,1.736c-8.612,4.92-17.213,9.865-25.705,14.987
		c-1.367,0.825-2.664,2.412-3.169,3.922c-6.251,18.674-15.974,35.356-28.49,50.484c-7.478,9.038-18.308,11.156-26.943,5.198
		c-9.972-6.88-11.555-19.1-3.344-29.6c8.031-10.27,15.314-20.929,19.824-33.233c1.823-4.974,3.277-10.099,4.617-15.229
		c2.758-10.553,8.55-14.979,19.246-17.465c6.4-1.488,12.31-5.359,18.183-8.622c1.262-0.701,1.971-3.39,1.991-5.174
		c0.16-13.799,0.065-27.602,0.108-41.403c0.007-2.376-0.288-3.763-3.256-4.413c-10.999-2.41-15.896-9.503-16.556-21.061
		c-0.908-15.89-2.529-31.739-3.808-47.608c-0.317-3.932-2.424-5.973-6.056-7.508c-17.992-7.603-36.983-9.254-56.139-9.467
		c-16.12-0.179-32.27,1.033-48.367,0.47c-11.542-0.403-23.296-1.608-34.462-4.416c-22.13-5.565-35.982-20.934-44.524-41.543
		c-0.825-1.99-1.62-3.993-2.479-5.968c-0.099-0.227-0.523-0.313-1.276-0.728c-1.821,4.619-3.431,9.25-5.452,13.694
		c-2.813,6.188-5.699,12.366-8.969,18.32c-8.564,15.599-21.966,23.919-39.568,25.933c-5.092,0.583-10.184,1.639-15.091,3.097
		c-1.736,0.516-3.791,2.66-4.228,4.426c-4.215,17.045-5.243,34.423-5.055,51.934c0.109,10.174-5.664,18.103-14.55,20.136
		c-7.254,1.66-13.823-0.177-19.736-6.141c-5.064,13.618-7.919,26.394,0.47,38.984c7.63,11.451,17.656,20.216,30.352,25.747
		c1.508,0.657,3.111,1.287,4.725,1.483c9.982,1.216,16.121,7.028,18.331,16.446c6.71,28.595,22.613,51.075,45.349,68.996
		c11.008,8.677,10.932,20.248,6.451,27.254c-6.751,10.556-19.386,12.24-29.872,3.989c-25.663-20.193-44.943-45.102-55.514-76.27
		c-1.174-3.461-3.105-5.222-6.378-6.795c-24.335-11.694-44.145-28.601-53.313-54.505c-9.735-27.507-3.888-53.486,13.722-76.454
		c3.964-5.17,5.462-9.585,4.859-16.053c-4.042-43.369-0.331-85.704,19.522-125.332c19.787-39.495,51.432-65.788,92.409-81.286
		c21.459-8.116,43.742-12.276,66.635-13.323c1.798-0.082,3.579-0.55,5.367-0.838C234.241,1,240.228,1,246.215,1z"/>
	<path display="inline" d="M197.644,275.95c0.147,21.362-17.413,39.089-38.865,39.236c-21.3,0.146-39.12-17.564-39.199-38.958
		c-0.079-21.399,17.441-39.038,38.927-39.191C179.851,236.885,197.496,254.429,197.644,275.95z"/>
	<path display="inline" d="M313.629,237.273c20.398-1.906,38.96,14.184,41.087,35.615c2.112,21.269-13.909,39.926-36.186,42.139
		c-19.467,1.934-39.061-14.203-41.359-33.243C274.2,257.161,292.755,237.872,313.629,237.273z"/>
</g>
<g display="none">
	<path fill="#FFFFFF" d="M657.834,249.841c-6.929,0-13.86,0-20.793,0c0-6.931,0-13.862,0-20.796c6.928,0,13.858,0,20.793,0
		C657.834,235.974,657.834,242.907,657.834,249.841z M644.244,241.869c-0.036,0.002-0.05,0-0.062,0.004
		c-0.082,0.03-0.165,0.061-0.246,0.093c-1.329,0.532-2.615,1.144-3.756,2.022c-0.267,0.206-0.513,0.441-0.755,0.676
		c-0.615,0.599-0.825,1.337-0.759,2.182c0.036,0.459,0.164,0.872,0.501,1.183c0.241,0.222,0.51,0.429,0.8,0.581
		c1.147,0.601,2.404,0.816,3.672,0.933c1.117,0.104,2.241,0.159,3.363,0.181c1.821,0.037,3.64-0.027,5.441-0.339
		c0.868-0.15,1.723-0.356,2.506-0.779c0.541-0.292,1.025-0.656,1.189-1.289c0.131-0.504,0.126-1.023,0.004-1.527
		c-0.154-0.64-0.59-1.102-1.068-1.52c-1.038-0.907-2.261-1.498-3.517-2.028c-0.302-0.128-0.613-0.235-0.927-0.355
		c-0.397,0.932-0.826,1.823-1.384,2.625c-0.446-0.795-0.883-1.573-1.32-2.351c0.057-0.013,0.136-0.03,0.215-0.048
		c0.575-0.131,1.071-0.406,1.487-0.825c0.086-0.087,0.111-0.169,0.099-0.302c-0.053-0.549,0.009-1.054,0.411-1.505
		c0.846-0.949,1.39-2.068,1.732-3.291c0.307-1.1,0.382-2.209,0.154-3.331c-0.196-0.966-0.623-1.813-1.356-2.487
		c-0.93-0.856-2.053-1.208-3.293-1.196c-1.114,0.011-2.136,0.327-3,1.058c-1.014,0.858-1.498,1.989-1.601,3.284
		c-0.181,2.298,0.565,4.3,2.035,6.044c0.363,0.431,0.439,0.888,0.331,1.412c-0.015,0.071,0.005,0.185,0.054,0.229
		c0.231,0.206,0.457,0.432,0.724,0.578c0.332,0.181,0.703,0.29,1.021,0.416c-0.42,0.754-0.855,1.536-1.296,2.328
		C645.081,243.705,644.636,242.806,644.244,241.869z"/>
	<path display="inline" d="M176.636,315.888c9.711,23.227,20.748,45.541,34.722,65.864c10.938-19.644,21.737-39.04,32.155-57.75
		c-7.883-3.119-17.092-5.825-25.327-10.318c-6.636-3.62-12.232-9.244-17.964-14.346c-1.214-1.081-1.716-3.898-1.351-5.669
		c2.681-13.004,0.803-24.339-8.214-35.029c-36.475-43.243-54.987-92.921-50.486-149.923c2.536-32.117,14.55-60.192,39.707-81.466
		c21.43-18.123,46.782-25.974,74.413-26.244c30.768-0.301,58.627,8.426,81.695,29.658c18.17,16.723,28.767,37.719,33.629,61.694
		c5.644,27.836,3.794,55.347-3.825,82.645c-8.468,30.339-21.983,58.105-42.957,81.647c-9.975,11.197-11.515,23.733-10.207,37.346
		c0.316,3.293-0.31,5.339-2.448,7.492c-10.326,10.395-22.617,17.2-36.886,20.46c-1.955,0.447-3.915,0.87-5.333,1.184
		c10.832,19.3,21.672,38.613,32.735,58.323c13.855-19.881,24.491-41.982,34.333-65.106c7.783,2.965,15.493,5.637,22.995,8.805
		c31.156,13.156,61.498,27.81,87.24,50.314c11.862,10.37,22.67,21.83,26.498,37.706c3.014,12.503,3.135,25.397-0.103,37.89
		c-4.07,15.701-16.084,24.728-29.5,31.975c-19.423,10.492-40.624,15.589-62.162,19.32c-44.674,7.737-89.8,9.32-134.982,8.409
		c-27.834-0.561-55.714-1.929-83.428-4.497c-31.451-2.915-62.629-8.25-91.083-23.151c-7.177-3.758-13.855-8.897-19.836-14.407
		c-8.374-7.714-11.544-17.95-12.432-29.342c-1.633-20.961,3.577-39.273,18.835-54.134c6.003-5.847,12.114-11.672,18.74-16.776
		c28.298-21.797,60.219-36.969,93.177-50.164c2.021-0.809,4.065-1.563,6.11-2.314C175.386,315.877,175.737,315.937,176.636,315.888z
		"/>
</g>
<g display="none">
	<path fill="#FFFFFF" d="M657.841,241.35c0,2.83,0,5.66,0,8.491c-6.933,0-13.867,0-20.8,0c0-2.83,0-5.66,0-8.491
		c0.013,0.037,0.033,0.074,0.039,0.112c0.247,1.633,1.546,2.76,3.196,2.769c0.541,0.003,1.083,0.006,1.624-0.003
		c0.152-0.003,0.223,0.042,0.28,0.187c0.42,1.069,0.851,2.134,1.277,3.2c0.099,0.247,0.237,0.458,0.499,0.552
		c0.447,0.16,0.857-0.034,1.045-0.5c0.425-1.052,0.85-2.105,1.261-3.163c0.08-0.206,0.174-0.281,0.405-0.28
		c2.646,0.01,5.292,0.01,7.939,0.005c1.584-0.003,2.873-1.068,3.174-2.608C657.797,241.532,657.82,241.441,657.841,241.35z"/>
	<path display="inline" d="M511,312.799c-0.502,2.232-1.059,4.452-1.498,6.696c-7.37,37.751-38.967,63.87-77.816,63.938
		c-64.882,0.114-129.766,0.123-194.647-0.126c-5.664-0.022-7.966,1.821-9.926,6.863c-10.081,25.938-20.505,51.745-30.93,77.548
		c-4.619,11.434-14.67,16.182-25.625,12.265c-6.441-2.303-9.825-7.493-12.243-13.544c-10.45-26.153-21.02-52.258-31.313-78.471
		c-1.4-3.565-3.149-4.655-6.865-4.592c-13.271,0.227-26.549,0.147-39.824,0.076c-40.454-0.216-72.299-27.846-78.36-67.898
		C1.81,314.61,1.325,313.716,1,312.799c0-70.391,0-140.781,0-211.172c1.446-5.932,2.445-12.017,4.412-17.772
		c11.11-32.505,40.35-52.944,75.803-52.974c81.832-0.069,163.664-0.03,245.496-0.02c36.019,0.004,72.053-0.585,108.053,0.254
		c31.023,0.723,53.925,16.05,67.838,43.661c4.164,8.263,5.673,17.863,8.398,26.85C511,172.018,511,242.408,511,312.799z
		 M177.529,409.74c6.863-17.112,13.15-32.784,19.434-48.457c5.241-13.072,10.4-16.588,24.41-16.588
		c69.214-0.003,138.428,0.014,207.642-0.01c26.411-0.009,42.998-16.463,43.019-42.79c0.051-63.239,0.044-126.478-0.045-189.716
		c-0.006-4.274-0.411-8.667-1.447-12.8c-4.614-18.396-20.005-29.706-40.236-29.71C314.45,69.641,198.596,69.645,82.741,69.66
		c-26.327,0.003-42.76,16.477-42.778,42.965c-0.041,63.073-0.046,126.146,0.002,189.218c0.02,26.354,16.585,42.803,42.969,42.843
		c17.76,0.027,35.521,0.095,53.28-0.027c10.184-0.07,16.959,4.691,20.843,13.873c1.807,4.272,3.436,8.618,5.158,12.926
		C167.119,383.726,172.028,395.99,177.529,409.74z"/>
	<path fill="#FFFFFF" d="M657.841,232.737c-0.111-0.367-0.173-0.758-0.342-1.095c-0.567-1.126-1.502-1.751-2.767-1.781
		c-1.468-0.034-2.938-0.01-4.407-0.01c-3.337,0-6.675-0.002-10.012,0.001c-1.446,0.001-2.638,0.835-3.092,2.16
		c-0.08,0.235-0.121,0.483-0.18,0.725c0-1.231,0-2.463,0-3.696c6.933,0,13.867,0,20.8,0
		C657.841,230.275,657.841,231.506,657.841,232.737z"/>
	<path fill="#FFFFFF" d="M644.24,245.304c-0.224-0.561-0.425-1.061-0.625-1.561c-0.07-0.176-0.137-0.353-0.21-0.527
		c-0.158-0.374-0.435-0.569-0.85-0.566c-0.724,0.005-1.449,0.002-2.173,0.001c-1.076-0.002-1.752-0.672-1.752-1.747
		c-0.002-2.572-0.002-5.145,0-7.717c0.001-1.08,0.671-1.752,1.745-1.752c4.725-0.001,9.45-0.001,14.175,0
		c0.825,0,1.453,0.461,1.641,1.212c0.042,0.169,0.059,0.348,0.059,0.522c0.004,2.579,0.004,5.158,0.002,7.737
		c-0.001,1.074-0.677,1.745-1.754,1.745c-2.823,0.001-5.646,0-8.469,0c-0.571,0-0.782,0.143-0.996,0.677
		C644.777,243.967,644.52,244.606,644.24,245.304z"/>
</g>
<g display="none">
	<path display="inline" d="M511,130.509c0,83.672,0,167.344,0,251.016c-0.38,1.406-0.912,2.789-1.117,4.22
		c-4.849,33.871-33.388,62.048-67.504,65.338c-14.645,1.413-29.491,0.852-44.247,0.969c-16.771,0.134-24.341-7.492-24.356-24.17
		c-0.004-4.898-0.001-9.797-0.001-15.172c-5.882,0-11.003,0.127-16.115-0.047c-3.187-0.108-3.973,1.369-3.871,4.216
		c0.147,4.143,0.046,8.296,0.031,12.444c-0.057,14.932-7.769,22.74-22.651,22.748c-50.445,0.03-100.891,0.031-151.336-0.002
		c-13.32-0.009-21.307-7.903-21.629-21.273c-0.116-4.81,0.128-9.633-0.142-14.43c-0.069-1.235-1.41-3.386-2.257-3.432
		c-5.723-0.306-11.47-0.16-17.584-0.16c0,6.7,0.012,12.656-0.003,18.612c-0.025,9.669-6.612,19.658-16.947,19.961
		c-16.879,0.494-33.898,1.313-50.655-0.219c-32.983-3.015-59.344-26.936-67.248-59.041c-0.862-3.503-1.581-7.041-2.367-10.563
		c0-83.672,0-167.344,0-251.016c1.485-5.905,2.534-11.962,4.528-17.69c11.296-32.443,40.624-52.83,75.983-52.85
		c93.26-0.053,186.519-0.019,279.779-0.019c23.398,0,46.797-0.117,70.194,0.029c38.939,0.242,70.521,26.2,77.969,63.861
		C509.895,126.077,510.481,128.287,511,130.509z M314.933,412.869c0-5.561-0.007-10.825,0.001-16.09
		c0.023-15.008,7.963-22.944,23.097-22.978c17.431-0.04,34.862-0.03,52.293-0.002c14.307,0.023,22.122,7.762,22.346,22.111
		c0.072,4.647-0.147,9.308,0.155,13.937c0.075,1.155,1.677,3.183,2.541,3.163c8.93-0.2,18.111,0.45,26.724-1.426
		c18.805-4.096,29.932-20.033,29.943-41.021c0.04-76.365,0.039-152.73-0.045-229.095c-0.005-4.274-0.409-8.668-1.445-12.801
		c-4.716-18.825-20.196-29.815-41.726-29.819c-115.211-0.02-230.423-0.022-345.634,0.042c-4.285,0.002-8.689,0.255-12.835,1.241
		c-18.864,4.487-30.371,20.198-30.382,41.335c-0.041,76.365-0.039,152.729,0.045,229.094c0.005,4.274,0.408,8.668,1.443,12.801
		c4.715,18.827,20.195,29.802,41.727,29.804c5.105,0,12.04,1.559,14.792-1.082c2.677-2.568,1.265-9.602,1.306-14.678
		c0.128-16.148,7.579-23.601,23.876-23.612c16.933-0.012,33.866-0.013,50.799,0.001c15.091,0.012,23.047,7.918,23.109,22.95
		c0.022,5.269,0.003,10.538,0.003,16.124C236.529,412.869,275.443,412.869,314.933,412.869z"/>
	<path fill="#FFFFFF" d="M637.041,244.559c0.032,0.144,0.061,0.288,0.096,0.431c0.322,1.309,1.398,2.285,2.743,2.408
		c0.683,0.062,1.378,0.029,2.066,0.009c0.422-0.012,0.69-0.42,0.691-0.814c0.001-0.243,0-0.486,0-0.759
		c0.249,0,0.484-0.006,0.717,0.007c0.035,0.002,0.089,0.09,0.092,0.14c0.011,0.196,0.001,0.392,0.006,0.589
		c0.013,0.545,0.339,0.867,0.882,0.868c2.057,0.001,4.115,0.001,6.172,0c0.607,0,0.922-0.319,0.924-0.928
		c0.001-0.169,0.005-0.339-0.001-0.508c-0.004-0.116,0.028-0.176,0.158-0.172c0.208,0.007,0.417,0.002,0.657,0.002
		c0,0.219,0,0.419,0,0.619c0.001,0.68,0.309,0.991,0.993,0.986c0.602-0.005,1.207,0.018,1.805-0.04
		c1.391-0.134,2.555-1.283,2.753-2.665c0.008-0.058,0.03-0.115,0.046-0.172c0,1.76,0,3.521,0,5.281c-6.933,0-13.867,0-20.8,0
		C637.041,248.08,637.041,246.32,637.041,244.559z"/>
	<path fill="#FFFFFF" d="M657.841,234.322c-0.021-0.091-0.045-0.181-0.063-0.272c-0.304-1.536-1.592-2.595-3.18-2.605
		c-0.954-0.006-1.909-0.001-2.863-0.001c-3.804,0-7.607-0.001-11.411,0.001c-1.442,0.001-2.638,0.832-3.099,2.155
		c-0.081,0.234-0.124,0.481-0.185,0.721c0-1.759,0-3.519,0-5.28c6.933,0,13.867,0,20.8,0
		C657.841,230.803,657.841,232.563,657.841,234.322z"/>
	<path fill="#FFFFFF" d="M649.844,245.838c-1.611,0-3.198,0-4.807,0c0-0.228,0.001-0.443,0-0.658
		c-0.003-0.613-0.327-0.936-0.943-0.936c-0.691-0.001-1.381-0.001-2.072,0c-0.665,0-0.969,0.304-0.974,0.963
		c-0.002,0.207,0.056,0.494-0.053,0.599c-0.112,0.108-0.395,0.044-0.603,0.044c-0.878,0-1.509-0.448-1.702-1.216
		c-0.042-0.169-0.059-0.348-0.059-0.522c-0.003-3.114-0.004-6.229-0.002-9.343c0-0.862,0.47-1.503,1.239-1.686
		c0.169-0.04,0.349-0.051,0.523-0.051c4.699-0.003,9.398-0.002,14.096-0.002c0.878,0,1.509,0.448,1.702,1.216
		c0.042,0.169,0.059,0.348,0.059,0.522c0.003,3.114,0.003,6.229,0.002,9.343c0,0.856-0.454,1.506-1.221,1.673
		c-0.351,0.077-0.726,0.05-1.09,0.058c-0.035,0.001-0.101-0.082-0.104-0.129c-0.012-0.189-0.003-0.379-0.006-0.568
		c-0.009-0.585-0.328-0.901-0.911-0.902c-0.711-0.001-1.422-0.002-2.133,0c-0.617,0.001-0.941,0.325-0.942,0.937
		C649.844,245.396,649.844,245.611,649.844,245.838z M653.401,239.566c0-1.097,0-2.169,0-3.248c-0.318,0-0.613,0-0.908,0
		c-0.01,0.071-0.018,0.129-0.029,0.207c-0.049-0.029-0.083-0.047-0.114-0.069c-0.28-0.197-0.588-0.263-0.925-0.2
		c-0.552,0.102-0.945,0.419-1.2,0.908c-0.331,0.634-0.344,1.301-0.154,1.973c0.347,1.227,1.487,1.411,2.327,0.911
		c0.044-0.026,0.092-0.045,0.14-0.069c0.03,0.091,0.055,0.167,0.084,0.253c0.648,0,1.291,0.003,1.933-0.005
		c0.057-0.001,0.139-0.056,0.167-0.109c0.547-0.998,0.683-2.054,0.335-3.135c-0.827-2.573-4.135-2.939-5.76-1.195
		c-0.823,0.883-1.102,1.946-0.901,3.119c0.229,1.337,0.978,2.267,2.292,2.687c0.85,0.271,1.712,0.181,2.569,0.018
		c0.037-0.007,0.089-0.069,0.091-0.107c0.008-0.241,0.004-0.482,0.004-0.706c-0.495,0.059-0.961,0.139-1.431,0.165
		c-0.681,0.037-1.3-0.157-1.812-0.624c-0.677-0.619-0.878-1.42-0.84-2.301c0.06-1.398,1.161-2.486,2.535-2.511
		c1.211-0.022,2.096,0.601,2.403,1.717c0.178,0.647,0.151,1.299-0.025,1.945c-0.103,0.378-0.103,0.378-0.502,0.378
		C653.601,239.566,653.52,239.566,653.401,239.566z M643.666,241.803c0.291-0.021,0.815-0.029,1.328-0.106
		c0.39-0.059,0.776-0.179,1.145-0.322c0.306-0.119,0.435-0.381,0.451-0.727c0.02-0.425-0.173-0.72-0.511-0.898
		c-0.506-0.267-1.036-0.489-1.561-0.717c-0.283-0.122-0.383-0.238-0.327-0.54c0.027-0.143,0.106-0.293,0.203-0.403
		c0.593-0.676,0.727-1.449,0.495-2.294c-0.348-1.269-1.827-1.338-2.476-0.716c-0.508,0.487-0.582,1.11-0.517,1.762
		c0.053,0.525,0.32,0.951,0.669,1.337c0.274,0.303,0.174,0.678-0.205,0.832c-0.194,0.079-0.392,0.149-0.585,0.23
		c-0.43,0.182-0.845,0.387-1.209,0.692c-0.397,0.333-0.411,1.213,0.182,1.456c0.094,0.038,0.185,0.084,0.28,0.116
		C641.812,241.768,642.624,241.78,643.666,241.803z"/>
	<path display="inline" d="M402.143,259.091c2.926,0,4.905-0.001,6.884,0c9.767,0.003,9.764,0.002,12.297-9.271
		c4.328-15.842,4.993-31.827,0.623-47.682c-7.539-27.355-29.228-42.644-58.929-42.101c-33.702,0.616-60.705,27.294-62.167,61.567
		c-0.922,21.618,4.008,41.243,20.605,56.429c12.534,11.469,27.731,16.207,44.42,15.309c11.512-0.62,22.952-2.591,35.078-4.036
		c0,5.509,0.1,11.418-0.103,17.318c-0.032,0.932-1.314,2.456-2.224,2.629c-21.018,4.001-42.14,6.213-62.993-0.444
		c-32.236-10.29-50.598-33.091-56.209-65.879c-4.921-28.759,1.917-54.81,22.102-76.468c39.843-42.752,120.965-33.787,141.241,29.305
		c8.524,26.523,5.185,52.419-8.219,76.879c-0.708,1.292-2.697,2.654-4.106,2.671c-15.755,0.189-31.512,0.119-47.401,0.119
		c-0.706-2.126-1.325-3.988-2.063-6.211c-1.185,0.574-2.364,1.042-3.439,1.682c-20.591,12.264-48.551,7.76-57.048-22.328
		c-4.655-16.482-4.345-32.843,3.773-48.378c6.261-11.982,15.89-19.75,29.422-22.263c8.26-1.534,15.811,0.081,22.688,4.905
		c0.765,0.537,1.604,0.968,2.798,1.68c0.264-1.922,0.458-3.332,0.699-5.078c7.235,0,14.46,0,22.269,0
		C402.143,205.909,402.143,232.204,402.143,259.091z M378.963,225.614c0-7.284,0.095-14.571-0.082-21.851
		c-0.034-1.401-0.764-3.553-1.798-4.046c-11.633-5.541-26.735-6.094-32.659,11.379c-3.616,10.668-3.398,21.51-0.831,32.31
		c2.744,11.543,9.78,16.205,21.519,14.689c9.132-1.18,13.855-6.496,13.856-15.595C378.968,236.872,378.968,231.243,378.963,225.614z
		"/>
	<path display="inline" d="M163.457,313.936c-25.549-0.55-45.474-0.843-64.648-7.302c-2.346-0.79-4.577-1.915-6.874-2.855
		c-14.539-5.947-14.199-27.542-4.469-35.696c8.927-7.481,19.098-12.498,29.652-16.961c4.729-2,9.577-3.716,14.337-5.647
		c9.303-3.775,11.754-12.98,5.029-20.398c-8.572-9.456-15.119-19.9-16.41-32.777c-1.604-15.999,0.208-31.279,12.668-43.213
		c15.93-15.257,52.185-13.55,60.715,17.559c5.682,20.721,2.41,39.685-12.131,56.259c-2.374,2.705-4.321,6.376-4.974,9.878
		c-1.379,7.401,1.079,10.24,8.012,13.242c12.885,5.581,25.877,11.034,38.276,17.579c8.29,4.376,13.001,11.606,12.521,22.022
		c-0.391,8.485-3.555,14.926-11.067,17.837c-9.036,3.502-18.515,6.45-28.066,7.885C183.442,313.236,170.6,313.421,163.457,313.936z"
		/>
	<path fill="#FFFFFF" d="M652.456,238.201c0,0.23,0,0.459,0,0.689c0,0.371-0.193,0.588-0.565,0.636
		c-0.479,0.062-0.766-0.128-0.878-0.599c-0.105-0.44-0.114-0.883,0.034-1.318c0.242-0.713,0.858-0.69,1.332-0.464
		c0.042,0.02,0.072,0.108,0.073,0.165C652.459,237.606,652.456,237.904,652.456,238.201z"/>
</g>
</svg>
