<?xml version="1.0" encoding="utf-8"?>
<!-- Generator: Adobe Illustrator 17.0.0, SVG Export Plug-In . SVG Version: 6.00 Build 0)  -->
<!DOCTYPE svg PUBLIC "-//W3C//DTD SVG 1.1//EN" "http://www.w3.org/Graphics/SVG/1.1/DTD/svg11.dtd">
<svg version="1.1" id="Layer_1" xmlns="http://www.w3.org/2000/svg" xmlns:xlink="http://www.w3.org/1999/xlink" x="0px" y="0px"
	 width="512px" height="512px" viewBox="0 0 512 512" enable-background="new 0 0 512 512" xml:space="preserve">
<g>
	<line fill="none" stroke="#B35047" x1="32" y1="0" x2="32" y2="512"/>
	<line fill="none" stroke="#B35047" x1="64" y1="0" x2="64" y2="512"/>
	<line fill="none" stroke="#B35047" x1="96" y1="0" x2="96" y2="512"/>
	<line fill="none" stroke="#B35047" x1="128" y1="0" x2="128" y2="512"/>
	<line fill="none" stroke="#B35047" x1="160" y1="0" x2="160" y2="512"/>
	<line fill="none" stroke="#B35047" x1="192" y1="0" x2="192" y2="512"/>
	<line fill="none" stroke="#B35047" x1="224" y1="0" x2="224" y2="512"/>
	<line fill="none" stroke="#B35047" x1="256" y1="0" x2="256" y2="512"/>
	<line fill="none" stroke="#B35047" x1="288" y1="0" x2="288" y2="512"/>
	<line fill="none" stroke="#B35047" x1="320" y1="0" x2="320" y2="512"/>
	<line fill="none" stroke="#B35047" x1="352" y1="0" x2="352" y2="512"/>
	<line fill="none" stroke="#B35047" x1="384" y1="0" x2="384" y2="512"/>
	<line fill="none" stroke="#B35047" x1="416" y1="0" x2="416" y2="512"/>
	<line fill="none" stroke="#B35047" x1="448" y1="0" x2="448" y2="512"/>
	<line fill="none" stroke="#B35047" x1="480" y1="0" x2="480" y2="512"/>
	<line fill="none" stroke="#B35047" x1="0" y1="32" x2="512" y2="32"/>
	<line fill="none" stroke="#B35047" x1="0" y1="64" x2="512" y2="64"/>
	<line fill="none" stroke="#B35047" x1="0" y1="96" x2="512" y2="96"/>
	<line fill="none" stroke="#B35047" x1="0" y1="128" x2="512" y2="128"/>
	<line fill="none" stroke="#B35047" x1="0" y1="160" x2="512" y2="160"/>
	<line fill="none" stroke="#B35047" x1="0" y1="192" x2="512" y2="192"/>
	<line fill="none" stroke="#B35047" x1="0" y1="224" x2="512" y2="224"/>
	<line fill="none" stroke="#B35047" x1="0" y1="256" x2="512" y2="256"/>
	<line fill="none" stroke="#B35047" x1="0" y1="288" x2="512" y2="288"/>
	<line fill="none" stroke="#B35047" x1="0" y1="320" x2="512" y2="320"/>
	<line fill="none" stroke="#B35047" x1="0" y1="352" x2="512" y2="352"/>
	<line fill="none" stroke="#B35047" x1="0" y1="384" x2="512" y2="384"/>
	<line fill="none" stroke="#B35047" x1="0" y1="416" x2="512" y2="416"/>
	<line fill="none" stroke="#B35047" x1="0" y1="448" x2="512" y2="448"/>
	<line fill="none" stroke="#B35047" x1="0" y1="480" x2="512" y2="480"/>
	<rect x="0" fill="none" stroke="#B35047" width="512" height="512"/>
</g>
<image display="none" overflow="visible" width="512" height="512" xlink:href="../../../Knowledge/Icon/[+++++] (Full) Windows 8 Icons [icons8]/Payment_Methods/shopping_basket/shopping_basket-512.png"  transform="matrix(0.0406 0 0 0.0406 607 53)">
</image>
<image display="none" overflow="visible" width="512" height="512" xlink:href="../../../Knowledge/Icon/[+++++] (Full) Windows 8 Icons [icons8]/Payment_Methods/purse/purse-512.png"  transform="matrix(0.0406 0 0 0.0406 607 53)">
</image>
<image display="none" overflow="visible" width="512" height="512" xlink:href="../../../Knowledge/Icon/[+++++] (Full) Windows 8 Icons [icons8]/Payment_Methods/moneybox/moneybox-512.png"  transform="matrix(0.0406 0 0 0.0406 607 53)">
</image>
<image display="none" overflow="visible" width="512" height="512" xlink:href="../../../Knowledge/Icon/[+++++] (Full) Windows 8 Icons [icons8]/Payment_Methods/coins/coins-512.png"  transform="matrix(0.0406 0 0 0.0406 607 53)">
</image>
<image display="none" overflow="visible" width="512" height="512" xlink:href="../../../Knowledge/Icon/[+++++] (Full) Windows 8 Icons [icons8]/Payment_Methods/check_book/check_book-512.png"  transform="matrix(0.0406 0 0 0.0406 607 53)">
</image>
<image display="none" overflow="visible" width="512" height="512" xlink:href="../../../Knowledge/Icon/[+++++] (Full) Windows 8 Icons [icons8]/Payment_Methods/cash_receiving/cash_receiving-512.png"  transform="matrix(0.0406 0 0 0.0406 607 53)">
</image>
<image display="none" overflow="visible" width="512" height="512" xlink:href="../../../Knowledge/Icon/[+++++] (Full) Windows 8 Icons [icons8]/Payment_Methods/card_in_use/card_in_use-512.png"  transform="matrix(0.0406 0 0 0.0406 607 53)">
</image>
<image display="none" overflow="visible" width="512" height="512" xlink:href="../../../Knowledge/Icon/[+++++] (Full) Windows 8 Icons [icons8]/Payment_Methods/card_inserting/card_inserting-512.png"  transform="matrix(0.0406 0 0 0.0406 607 53)">
</image>
<g>
	<path display="none" fill="#FFFFFF" d="M627.841,71.606c0,0.745,0,1.49,0,2.234c-6.933,0-13.867,0-20.8,0c0-0.745,0-1.49,0-2.234
		c0.029,0.059,0.059,0.117,0.088,0.176c0.148,0.305,0.454,0.473,0.799,0.439c0.326-0.033,0.602-0.262,0.675-0.583
		c0.029-0.13,0.026-0.269,0.026-0.403c0.001-5.196,0.001-10.392,0.001-15.589c0-0.081,0-0.162-0.004-0.243
		c-0.019-0.365-0.275-0.668-0.617-0.734c-0.379-0.073-0.728,0.104-0.887,0.448c-0.025,0.053-0.053,0.105-0.08,0.157
		c0-0.744,0-1.488,0-2.233c6.933,0,13.867,0,20.8,0c0,0.745,0,1.489,0,2.233c-0.029-0.059-0.059-0.117-0.088-0.176
		c-0.148-0.305-0.454-0.473-0.799-0.439c-0.326,0.033-0.602,0.262-0.675,0.583c-0.029,0.13-0.026,0.269-0.026,0.403
		c-0.001,5.196-0.001,10.392-0.001,15.588c0,0.081,0,0.162,0.004,0.243c0.019,0.365,0.275,0.667,0.617,0.734
		c0.378,0.073,0.728-0.104,0.887-0.448C627.785,71.71,627.814,71.659,627.841,71.606z M615.852,63.43c0,2.627,0,5.254,0,7.881
		c0,0.62,0.3,0.922,0.921,0.924c0.982,0.003,1.964,0.003,2.945,0c0.605-0.002,0.919-0.315,0.919-0.913
		c0.001-5.254,0.001-10.508,0-15.762c0-0.591-0.31-0.91-0.899-0.913c-1.002-0.006-2.004-0.002-3.006-0.001
		c-0.221,0-0.43,0.043-0.604,0.194c-0.225,0.194-0.278,0.446-0.278,0.73C615.854,58.19,615.852,60.81,615.852,63.43z
		 M609.444,63.441c0,2.633-0.001,5.266,0.001,7.899c0,0.564,0.311,0.884,0.875,0.894c0.48,0.008,0.961,0.008,1.442,0
		c0.564-0.01,0.875-0.329,0.875-0.894c0.001-5.266,0.001-10.532,0-15.799c0-0.565-0.311-0.884-0.876-0.894
		c-0.48-0.008-0.961-0.003-1.442-0.001c-0.229,0.001-0.442,0.052-0.616,0.216c-0.203,0.191-0.26,0.432-0.26,0.7
		C609.445,58.188,609.444,60.815,609.444,63.441z M613.451,63.443c0,2.593,0,5.186,0,7.779c0,0.108-0.001,0.217,0.011,0.325
		c0.035,0.336,0.307,0.618,0.64,0.669c0.542,0.083,0.935-0.291,0.935-0.897c0.001-5.254,0.001-10.507-0.001-15.761
		c0-0.107-0.01-0.217-0.036-0.321c-0.088-0.35-0.401-0.585-0.761-0.584c-0.36,0.001-0.678,0.24-0.759,0.587
		c-0.029,0.123-0.027,0.255-0.027,0.383C613.451,58.23,613.451,60.836,613.451,63.443z M623.851,63.441c0,2.593,0,5.186,0,7.779
		c0,0.108-0.001,0.217,0.01,0.325c0.035,0.345,0.314,0.627,0.658,0.673c0.536,0.072,0.917-0.298,0.917-0.896
		c0.001-5.254,0.001-10.507-0.001-15.761c0-0.114-0.011-0.231-0.04-0.341c-0.092-0.345-0.416-0.576-0.775-0.566
		c-0.361,0.01-0.675,0.257-0.747,0.604c-0.026,0.124-0.022,0.256-0.022,0.384C623.851,58.241,623.851,60.841,623.851,63.441z
		 M621.45,63.441c0,2.593,0,5.186,0,7.778c0,0.108,0.001,0.217,0.012,0.324c0.037,0.347,0.313,0.628,0.657,0.674
		c0.543,0.072,0.917-0.3,0.917-0.917c0-5.24,0-10.48-0.001-15.719c0-0.107-0.008-0.217-0.031-0.322
		c-0.078-0.353-0.381-0.595-0.744-0.605c-0.359-0.01-0.687,0.221-0.774,0.566c-0.034,0.135-0.035,0.282-0.035,0.423
		C621.45,58.242,621.45,60.841,621.45,63.441z"/>
	<path d="M1,55.765c0.657-1.285,1.359-2.548,1.963-3.857c3.899-8.44,12.467-12.781,21.75-10.993
		c8.4,1.618,14.665,9.037,15.139,17.986c0.105,1.986,0.093,3.98,0.093,5.97c0.004,127.406,0.008,254.812-0.02,382.219
		c-0.001,3.302,0.088,6.705-0.633,9.887c-1.786,7.88-8.556,13.492-16.556,14.295c-8.444,0.847-15.954-3.284-19.58-10.761
		c-0.702-1.447-1.436-2.878-2.156-4.316C1,322.718,1,189.241,1,55.765z"/>
	<path d="M511,456.194c-0.657,1.285-1.359,2.548-1.963,3.857c-3.899,8.441-12.474,12.785-21.75,10.993
		c-8.406-1.624-14.665-9.037-15.139-17.986c-0.105-1.986-0.093-3.98-0.093-5.97c-0.004-127.406-0.008-254.812,0.02-382.218
		c0.001-3.302-0.088-6.705,0.633-9.887c1.785-7.88,8.554-13.49,16.557-14.295c8.442-0.849,15.954,3.284,19.58,10.761
		c0.702,1.447,1.436,2.878,2.156,4.316C511,189.241,511,322.718,511,456.194z"/>
	<path d="M217.052,255.731c0-64.247,0.035-128.493-0.05-192.74c-0.009-6.964,1.303-13.139,6.816-17.901
		c4.286-3.703,9.396-4.747,14.82-4.753c24.57-0.027,49.14-0.112,73.709,0.023c14.423,0.08,22.033,7.895,22.035,22.38
		c0.024,128.825,0.024,257.65,0,386.475c-0.003,14.663-7.705,22.342-22.531,22.398c-24.071,0.091-48.143,0.077-72.215,0.005
		c-15.227-0.045-22.571-7.455-22.575-22.65C217.041,384.557,217.052,320.144,217.052,255.731z"/>
	<path d="M59.934,255.985c0-64.396,0.017-128.791-0.026-193.187c-0.004-6.575,1.403-12.478,6.374-17.158
		c4.264-4.014,9.482-5.278,15.106-5.299c11.784-0.044,23.57-0.175,35.35,0.028c13.831,0.239,21.464,8.064,21.468,21.92
		c0.03,129.123,0.03,258.246,0,387.369c-0.003,13.86-7.632,21.69-21.457,21.93c-11.78,0.205-23.569,0.2-35.35,0.001
		c-13.825-0.234-21.444-8.08-21.451-21.92C59.916,385.108,59.934,320.547,59.934,255.985z"/>
	<path d="M158.178,256.036c0-63.91-0.009-127.821,0.026-191.731c0.002-3.139-0.043-6.377,0.665-9.397
		c2-8.526,9.797-14.372,18.617-14.4c8.846-0.028,16.52,5.745,18.669,14.316c0.637,2.541,0.875,5.244,0.875,7.874
		c0.041,128.817,0.042,257.634,0.027,386.45c-0.002,14.853-9.631,24.03-22.928,21.984c-8.148-1.254-14.824-8.161-15.683-16.404
		c-0.274-2.633-0.259-5.304-0.259-7.957C158.175,383.193,158.178,319.614,158.178,256.036z"/>
	<path d="M413.178,255.982c0-63.744-0.007-127.489,0.021-191.233c0.001-3.145-0.089-6.371,0.538-9.421
		c1.747-8.494,9.461-14.559,18.306-14.804c8.812-0.244,16.741,5.41,19.006,13.872c0.719,2.684,0.977,5.566,0.978,8.357
		c0.046,128.817,0.046,257.633,0.031,386.45c-0.002,14.668-9.342,23.738-22.487,21.978c-8.427-1.129-15.261-8.052-16.128-16.506
		c-0.27-2.634-0.254-5.304-0.255-7.957C413.175,383.138,413.178,319.56,413.178,255.982z"/>
	<path d="M354.316,255.987c0-63.74-0.012-127.481,0.034-191.221c0.003-3.463,0.017-7.048,0.856-10.366
		c2.141-8.466,10.178-14.119,18.979-13.878c8.907,0.244,16.332,6.184,18.238,14.84c0.565,2.566,0.77,5.26,0.77,7.895
		c0.036,128.477,0.036,256.953,0.025,385.43c-0.001,15.143-9.166,24.267-22.491,22.496c-8.427-1.12-15.2-8.003-16.099-16.52
		c-0.278-2.633-0.3-5.301-0.301-7.953C354.312,383.135,354.316,319.561,354.316,255.987z"/>
</g>
<g display="none">
	<path fill="#FFFFFF" d="M613.987,73.841c-2.316,0-4.631,0-6.947,0c0-6.933,0-13.867,0-20.8c4.415,0,8.829,0,13.244,0
		c-0.112,0.025-0.224,0.048-0.335,0.075c-3.637,0.888-7.276,1.767-10.909,2.67c-1.321,0.328-2.063,1.553-1.752,2.882
		c0.477,2.04,0.991,4.071,1.485,6.106c0.097,0.401,0.253,0.77,0.523,1.085c0.253,0.294,0.551,0.524,0.94,0.669
		c0-0.491,0.004-0.951-0.001-1.411c-0.007-0.733,0.151-1.428,0.529-2.056c0.805-1.338,1.998-2.019,3.562-2.021
		c3.236-0.005,6.472-0.002,9.708-0.002c0.086,0,0.171,0,0.266,0c-0.005-0.057-0.004-0.091-0.012-0.123
		c-0.49-2.002-0.975-4.005-1.473-6.005c-0.224-0.899-0.791-1.489-1.677-1.766c-0.134-0.042-0.272-0.069-0.408-0.103
		c2.367,0,4.734,0,7.109,0c0,3.914,0,7.827,0,11.741c-0.012-0.024-0.029-0.047-0.034-0.072c-0.24-1.266-1.135-2.056-2.41-2.06
		c-3.702-0.012-7.404-0.013-11.105,0c-1.4,0.005-2.431,1.02-2.442,2.398c-0.017,2.132-0.015,4.263,0,6.395
		c0.008,1.154,0.757,2.062,1.866,2.331C613.806,73.795,613.897,73.818,613.987,73.841z"/>
	<path display="inline" d="M334.503,1c3.338,0.829,6.728,1.489,10.004,2.515c21.721,6.802,35.64,21.262,41.125,43.306
		c12.201,49.037,24.107,98.148,36.117,147.233c0.191,0.78,0.163,1.614,0.291,3.013c-2.318,0-4.419,0-6.52,0
		c-79.34,0-158.681-0.09-238.021,0.04c-38.337,0.063-67.587,16.744-87.335,49.558c-9.273,15.408-13.152,32.431-12.969,50.412
		c0.115,11.272,0.021,22.546,0.021,34.589c-9.547-3.548-16.856-9.193-23.057-16.399c-6.638-7.713-10.444-16.781-12.832-26.602
		c-12.131-49.907-24.723-99.705-36.42-149.713c-7.622-32.584,10.58-62.609,42.961-70.654
		c89.079-22.13,178.301-43.683,267.469-65.455c2.724-0.665,5.471-1.231,8.208-1.843C327.198,1,330.851,1,334.503,1z
		 M299.561,168.745c22.657-5.562,44.593-10.947,66.73-16.381c-5.531-22.57-10.878-44.39-16.337-66.669
		c-22.437,5.495-44.366,10.866-66.693,16.334C288.743,124.468,294.074,146.288,299.561,168.745z"/>
	<path display="inline" d="M169.151,511c-2.223-0.549-4.445-1.108-6.671-1.647c-27.185-6.591-45.551-28.853-45.757-57.156
		c-0.38-52.264-0.428-104.535-0.002-156.799c0.275-33.795,25.548-58.685,59.873-58.804c90.763-0.315,181.529-0.301,272.292,0.002
		c31.261,0.105,53.205,19.482,59.102,50.516c0.117,0.617,0.547,1.174,0.831,1.759c0,56.445,0,112.891,0,169.336
		c-0.341,1.091-0.796,2.159-1.005,3.275c-4.298,22.956-17.568,38.317-39.398,46.286c-3.991,1.457-8.253,2.174-12.39,3.233
		C360.401,511,264.776,511,169.151,511z M148.12,373.76c-0.141,1.476-0.316,2.459-0.316,3.442
		c-0.014,24.568-0.043,49.136,0.035,73.703c0.009,2.788,0.295,5.667,1.031,8.345c3.711,13.488,14.203,20.612,30.258,20.616
		c88.975,0.019,177.95,0.025,266.926-0.044c3.776-0.003,7.685-0.301,11.304-1.292c13.079-3.582,20.27-14.109,20.317-29.453
		c0.073-23.406,0.025-46.812,0.007-70.217c-0.001-1.617-0.178-3.233-0.289-5.099C367.523,373.76,258.047,373.76,148.12,373.76z
		 M478.261,314.695c-0.674-9.305-0.267-18.544-2.227-27.249c-2.927-13.005-13.848-19.749-29.094-19.751
		c-89.435-0.016-178.87-0.009-268.304-0.002c-1.658,0-3.323-0.001-4.973,0.138c-11.5,0.966-19.676,6.818-23.866,17.467
		c-3.739,9.502-1.5,19.491-2.034,29.399C258.093,314.695,367.548,314.695,478.261,314.695z"/>
	<path fill="#FFFFFF" d="M625.688,73.841c0.169-0.043,0.342-0.072,0.505-0.132c0.89-0.325,1.432-0.951,1.607-1.888
		c0.008-0.045,0.027-0.089,0.041-0.134c0,0.718,0,1.435,0,2.153C627.123,73.841,626.405,73.841,625.688,73.841z"/>
	<path fill="#FFFFFF" d="M619.306,59.882c-0.224-0.916-0.441-1.806-0.665-2.721c0.911-0.223,1.805-0.442,2.72-0.666
		c0.223,0.909,0.441,1.799,0.666,2.719C621.125,59.436,620.23,59.655,619.306,59.882z"/>
	<path fill="#FFFFFF" d="M613.13,68.243c4.483,0,8.948,0,13.429,0c0.005,0.076,0.012,0.142,0.012,0.208
		c0.001,0.955,0.003,1.909,0,2.864c-0.002,0.626-0.295,1.055-0.829,1.201c-0.148,0.04-0.307,0.053-0.461,0.053
		c-3.629,0.003-7.258,0.003-10.886,0.002c-0.655,0-1.083-0.291-1.234-0.841c-0.03-0.109-0.042-0.227-0.042-0.34
		c-0.003-1.002-0.002-2.004-0.001-3.006C613.117,68.344,613.124,68.304,613.13,68.243z"/>
	<path fill="#FFFFFF" d="M626.594,65.834c-4.515,0-8.979,0-13.479,0c0.022-0.404-0.07-0.811,0.083-1.199
		c0.171-0.434,0.504-0.673,0.973-0.712c0.067-0.006,0.135-0.006,0.203-0.006c3.648,0,7.295-0.001,10.943,0
		c0.622,0,1.067,0.275,1.187,0.806C626.583,65.078,626.567,65.455,626.594,65.834z"/>
</g>
<g display="none">
	<path fill="#FFFFFF" d="M610.25,73.841c-1.069,0-2.139,0-3.208,0c0-6.93,0-13.861,0-20.796c6.933,0,13.866,0,20.799,0
		c0,3.465,0,6.93,0,10.396c-0.088,0.002-0.176,0.005-0.264,0.005c-5.685,0-11.37,0-17.055,0c-0.086,0-0.171,0-0.277,0
		c0,0.111,0,0.198,0,0.284c0,2.118-0.001,4.236,0,6.355C610.246,71.337,610.248,72.589,610.25,73.841z M608.987,65.912
		c0.014-0.003,0.029-0.006,0.043-0.008c0-0.763,0-1.526,0-2.289c0-0.895,0.485-1.382,1.377-1.385
		c0.229-0.001,0.427-0.032,0.652-0.157c2.996-1.664,6.007-3.304,9.015-4.948c0.054-0.03,0.129-0.051,0.186-0.038
		c0.184,0.041,0.367,0.094,0.545,0.157c0.052,0.019,0.104,0.081,0.127,0.136c0.232,0.544,0.906,0.798,1.406,0.489
		c0.179-0.111,0.315-0.098,0.483-0.04c0.057,0.02,0.116,0.039,0.176,0.049c0.175,0.028,0.275,0.128,0.359,0.285
		c0.401,0.752,0.794,1.509,1.234,2.238c0.216,0.358,0.284,0.685,0.096,1.053c-0.04,0.079-0.111,0.159-0.188,0.2
		c-0.235,0.126-0.403,0.298-0.498,0.564c1.013,0,1.998,0,3.017,0c-1.459-2.665-2.905-5.305-4.357-7.956
		c-5.15,2.82-10.283,5.631-15.422,8.445c0.039,0.076,0.065,0.13,0.094,0.183C607.883,63.897,608.435,64.905,608.987,65.912z
		 M620.405,62.222c-0.007-0.061-0.006-0.102-0.016-0.14c-0.203-0.801-0.709-1.341-1.463-1.644c-1.271-0.51-2.828-0.096-3.749,0.994
		c-0.196,0.232-0.348,0.5-0.546,0.79C616.596,62.222,618.488,62.222,620.405,62.222z M622.001,61.569
		c0.567,0.001,1.037-0.467,1.032-1.03c-0.004-0.556-0.461-1.017-1.02-1.028c-0.559-0.011-1.034,0.46-1.037,1.026
		C620.974,61.109,621.429,61.568,622.001,61.569z"/>
	<path display="inline" d="M75.585,498.314c-0.039-30.99-0.101-61.981-0.112-92.971c-0.019-52.432-0.005-104.865-0.005-157.297
		c0-2.144,0-4.288,0-7.034c2.601,0,4.724,0,6.846,0c140.72,0,281.439,0.001,422.159-0.005c2.176,0,4.352-0.079,6.528-0.12
		c0,85.809,0,171.619,0,257.428C365.862,498.314,220.723,498.314,75.585,498.314z M292.785,466.893
		c41.894,0,83.788,0.001,125.683-0.002c4.515,0,16.952-9.125,18.087-13.311c0.166-0.612,0.008-1.322-0.046-1.983
		c-1.263-15.34,8.93-28.139,23.86-27.879c6.08,0.106,9.145-2.37,12.586-5.938c1.396-1.447,3.101-2.678,4.18-4.326
		c1.119-1.709,2.327-3.799,2.338-5.729c0.153-25.471,0.116-50.943,0.081-76.414c-0.004-3.313-10.794-15.668-13.89-16.06
		c-0.484-0.061-1.002,0.06-1.494,0.154c-11.762,2.25-27.611-6.817-27.711-23.515c-0.039-6.578-3.093-9.749-6.697-13.83
		c-3.869-4.381-8.107-5.901-13.992-5.887c-79.934,0.198-159.869,0.305-239.801-0.09c-9.663-0.048-17.133,1.795-23.062,9.626
		c-1.913,2.527-3.151,4.487-2.907,7.904c0.994,13.94-10.599,26.716-24.556,25.966c-5.527-0.297-8.297,1.839-11.378,5.147
		c-1.484,1.593-3.387,2.889-4.528,4.683c-1.26,1.98-2.622,4.371-2.638,6.592c-0.183,25.135-0.152,50.272-0.04,75.408
		c0.008,1.839,0.623,4.075,1.774,5.432c2.917,3.439,6.18,6.62,9.569,9.603c1.046,0.921,2.999,1.352,4.447,1.193
		c13.484-1.482,26.954,8.703,27.035,22.159c0.044,7.278,2.953,11.545,7.603,16.148c3.626,3.59,7.218,5.082,12.331,5.058
		C210.672,466.808,251.729,466.893,292.785,466.893z"/>
	<path display="inline" d="M44.324,302.062c-13.667-24.939-27.336-49.876-40.996-74.818C2.614,225.94,1.966,224.601,1,222.72
		C128.194,153.069,255.244,83.497,382.729,13.686c35.933,65.621,71.724,130.982,107.841,196.936c-25.227,0-49.6,0-74.673,0
		c2.354-6.578,6.498-10.856,12.324-13.963c1.907-1.017,3.643-3.003,4.644-4.962c4.657-9.115,2.974-17.212-2.368-26.061
		c-10.889-18.035-20.61-36.783-30.535-55.386c-2.071-3.883-4.546-6.376-8.876-7.062c-1.477-0.234-2.929-0.712-4.347-1.208
		c-4.141-1.447-7.516-1.751-11.951,0.985c-12.379,7.638-29.051,1.36-34.802-12.105c-0.577-1.351-1.841-2.899-3.14-3.362
		c-4.402-1.57-8.924-2.862-13.485-3.886c-1.408-0.316-3.276,0.216-4.612,0.946c-74.456,40.684-148.963,81.279-223.133,122.479
		c-5.56,3.089-10.471,3.852-16.131,3.875C57.41,211,45.408,223.047,45.4,245.207c-0.007,18.882-0.002,37.764-0.002,56.647
		C45.04,301.923,44.682,301.992,44.324,302.062z"/>
	<path display="inline" d="M326.937,210.71c-47.434,0-94.275,0-142.94,0c4.904-7.161,8.676-13.806,13.52-19.546
		c22.789-27.003,61.342-37.243,92.8-24.615c18.676,7.497,31.191,20.87,36.225,40.695
		C326.783,208.193,326.773,209.205,326.937,210.71z"/>
	<path display="inline" d="M366.45,194.568c-14.148-0.025-25.419-11.388-25.355-25.562c0.063-14.008,11.838-25.656,25.664-25.386
		c13.821,0.27,25.137,11.679,25.244,25.45C392.111,183.001,380.494,194.593,366.45,194.568z"/>
	<path fill="#FFFFFF" d="M619.025,72.571c-1.659,0-3.317-0.003-4.976,0.004c-0.207,0.001-0.352-0.059-0.498-0.204
		c-0.188-0.186-0.305-0.358-0.307-0.652c-0.003-0.544-0.547-0.955-1.092-0.895c-0.059,0.006-0.137-0.011-0.18-0.048
		c-0.137-0.121-0.269-0.249-0.387-0.388c-0.047-0.055-0.071-0.145-0.072-0.219c-0.005-1.015-0.006-2.031,0.002-3.046
		c0.001-0.09,0.056-0.186,0.107-0.266c0.046-0.072,0.123-0.125,0.183-0.189c0.124-0.134,0.236-0.22,0.46-0.208
		c0.564,0.03,1.032-0.486,0.992-1.049c-0.01-0.138,0.04-0.217,0.117-0.319c0.24-0.316,0.541-0.391,0.932-0.389
		c3.229,0.016,6.459,0.012,9.688,0.004c0.238-0.001,0.409,0.061,0.565,0.238c0.146,0.165,0.269,0.293,0.271,0.559
		c0.004,0.675,0.644,1.041,1.12,0.95c0.02-0.004,0.041-0.009,0.06-0.006c0.125,0.016,0.561,0.515,0.561,0.649
		c0.001,1.029,0.003,2.058-0.003,3.087c0,0.078-0.049,0.162-0.094,0.231c-0.044,0.067-0.112,0.116-0.169,0.175
		c-0.139,0.144-0.263,0.244-0.508,0.24c-0.603-0.01-1.015,0.507-0.964,1.126c0.002,0.027,0.009,0.055,0.002,0.08
		c-0.046,0.169-0.548,0.538-0.731,0.538C622.41,72.571,620.717,72.571,619.025,72.571z M619.259,65.921
		c-0.926-0.002-1.588,0.196-2.16,0.584c-1.45,0.983-1.596,2.835-0.316,4.022c1.193,1.106,3.303,1.112,4.503,0.013
		c1.028-0.942,1.189-2.328,0.367-3.395C621.001,66.297,620.097,65.946,619.259,65.921z M624.235,69.665
		c0.571,0.003,1.037-0.457,1.037-1.024c0.001-0.559-0.452-1.016-1.016-1.025c-0.572-0.01-1.039,0.444-1.044,1.013
		C623.208,69.202,623.662,69.662,624.235,69.665z M613.843,67.617c-0.573-0.001-1.031,0.456-1.029,1.027
		c0.002,0.563,0.45,1.014,1.015,1.02c0.571,0.006,1.037-0.448,1.044-1.016C614.878,68.084,614.413,67.618,613.843,67.617z"/>
	<path display="inline" d="M298.574,302.279c20.753,0.623,43.12,9.303,59.263,30.277c20.337,26.423,16.363,60.731-9.086,84.043
		c-29.693,27.2-81.932,27.05-111.453-0.32c-31.682-29.374-28.081-75.217,7.82-99.553
		C259.274,307.129,275.654,302.223,298.574,302.279z"/>
	<path display="inline" d="M421.752,394.962c-14.183-0.084-25.43-11.475-25.307-25.632c0.122-14.09,11.694-25.321,25.845-25.086
		c13.959,0.232,25.153,11.531,25.138,25.374C447.412,383.656,435.874,395.045,421.752,394.962z"/>
	<path display="inline" d="M164.511,344.263c14.124,0.028,25.632,11.549,25.483,25.51c-0.15,14.07-11.691,25.307-25.83,25.149
		c-13.999-0.156-25.096-11.302-25.134-25.246C138.991,355.541,150.327,344.235,164.511,344.263z"/>
</g>
<g display="none">
	<path display="inline" d="M458.207,511c-134.805,0-269.609,0-404.414,0c-0.924-0.323-1.825-0.78-2.777-0.95
		c-23.416-4.179-38.98-17.626-46.924-39.923c-1.372-3.852-2.078-7.941-3.092-11.92C1,336.352,1,214.496,1,92.641
		c3.875-19.758,18.497-27.476,35.967-31.577c9.332-2.191,18.859-3.577,28.326-5.16c48.67-8.14,97.351-16.219,146.026-24.334
		c49-8.169,98.002-16.328,146.992-24.558c11.077-1.861,22.107-4,33.158-6.012c4.648,0,9.297,0,13.945,0
		c5.834,1.076,11.734,1.878,17.488,3.282c13.743,3.354,25.632,10.218,27.576,25.179c2.118,16.303,1.543,32.955,2.155,49.81
		C308.005,85.845,164.527,92.365,21.116,98.883c-0.24,0.926-0.473,1.396-0.466,1.863c0.123,8.478,6.136,14.817,16.834,16.598
		c6.506,1.083,13.208,1.371,19.822,1.375c120.663,0.077,241.326,0.056,361.989,0.056c10.788,0,21.579-0.154,32.364,0.041
		c28.547,0.517,51.046,18.465,57.687,45.826c0.542,2.232,1.102,4.46,1.654,6.689c0,95.625,0,191.25,0,286.875
		c-0.341,1.091-0.796,2.159-1.005,3.275c-4.298,22.956-17.568,38.317-39.398,46.286C466.605,509.224,462.344,509.941,458.207,511z
		 M432.555,354.16c21.457-0.027,39.191-17.669,39.398-39.193c0.206-21.502-17.991-39.561-39.66-39.359
		c-21.756,0.203-39.107,17.712-39.012,39.368C393.377,336.596,411.009,354.187,432.555,354.16z"/>
	<path fill="#FFFFFF" d="M627.841,59.987c-0.022-0.091-0.045-0.182-0.067-0.273c-0.271-1.116-1.188-1.848-2.353-1.869
		c-0.44-0.008-0.88-0.002-1.32-0.002c-4.921,0-9.842,0.001-14.763-0.002c-0.27,0-0.543-0.012-0.808-0.056
		c-0.436-0.073-0.682-0.331-0.687-0.677c0-0.019,0.009-0.038,0.019-0.076c5.849-0.266,11.701-0.532,17.599-0.8
		c-0.025-0.687-0.002-1.367-0.088-2.031c-0.079-0.61-0.564-0.89-1.125-1.027c-0.235-0.057-0.475-0.09-0.713-0.134
		c1.433,0,2.866,0,4.306,0C627.841,55.356,627.841,57.672,627.841,59.987z"/>
	<path fill="#FFFFFF" d="M622.966,53.041c-0.451,0.082-0.901,0.169-1.352,0.245c-1.998,0.336-3.997,0.668-5.995,1.002
		c-1.985,0.331-3.971,0.66-5.956,0.992c-0.386,0.065-0.775,0.121-1.155,0.21c-0.713,0.167-1.309,0.482-1.467,1.288
		c0-1.246,0-2.492,0-3.737C612.349,53.041,617.657,53.041,622.966,53.041z"/>
	<path fill="#FFFFFF" d="M607.041,71.687c0.041,0.162,0.07,0.329,0.126,0.486c0.324,0.909,0.959,1.458,1.914,1.628
		c0.039,0.007,0.076,0.026,0.113,0.039c-0.718,0-1.435,0-2.153,0C607.041,73.123,607.041,72.405,607.041,71.687z"/>
	<path fill="#FFFFFF" d="M625.688,73.841c0.169-0.043,0.342-0.072,0.505-0.132c0.89-0.325,1.432-0.951,1.607-1.888
		c0.008-0.045,0.027-0.089,0.041-0.134c0,0.718,0,1.435,0,2.153C627.123,73.841,626.405,73.841,625.688,73.841z"/>
	<path fill="#FFFFFF" d="M624.641,67.444c-0.879,0.001-1.598-0.716-1.602-1.598c-0.004-0.883,0.704-1.597,1.591-1.606
		c0.884-0.008,1.626,0.728,1.617,1.605C626.24,66.723,625.516,67.443,624.641,67.444z"/>
</g>
</svg>
