<?xml version="1.0" encoding="utf-8"?>
<!-- Generator: Adobe Illustrator 17.0.0, SVG Export Plug-In . SVG Version: 6.00 Build 0)  -->
<!DOCTYPE svg PUBLIC "-//W3C//DTD SVG 1.1//EN" "http://www.w3.org/Graphics/SVG/1.1/DTD/svg11.dtd">
<svg version="1.1" id="Layer_1" xmlns="http://www.w3.org/2000/svg" xmlns:xlink="http://www.w3.org/1999/xlink" x="0px" y="0px"
	 width="512px" height="512px" viewBox="0 0 512 512" enable-background="new 0 0 512 512" xml:space="preserve">
<g>
	<line fill="none" stroke="#B35047" x1="32" y1="0" x2="32" y2="512"/>
	<line fill="none" stroke="#B35047" x1="64" y1="0" x2="64" y2="512"/>
	<line fill="none" stroke="#B35047" x1="96" y1="0" x2="96" y2="512"/>
	<line fill="none" stroke="#B35047" x1="128" y1="0" x2="128" y2="512"/>
	<line fill="none" stroke="#B35047" x1="160" y1="0" x2="160" y2="512"/>
	<line fill="none" stroke="#B35047" x1="192" y1="0" x2="192" y2="512"/>
	<line fill="none" stroke="#B35047" x1="224" y1="0" x2="224" y2="512"/>
	<line fill="none" stroke="#B35047" x1="256" y1="0" x2="256" y2="512"/>
	<line fill="none" stroke="#B35047" x1="288" y1="0" x2="288" y2="512"/>
	<line fill="none" stroke="#B35047" x1="320" y1="0" x2="320" y2="512"/>
	<line fill="none" stroke="#B35047" x1="352" y1="0" x2="352" y2="512"/>
	<line fill="none" stroke="#B35047" x1="384" y1="0" x2="384" y2="512"/>
	<line fill="none" stroke="#B35047" x1="416" y1="0" x2="416" y2="512"/>
	<line fill="none" stroke="#B35047" x1="448" y1="0" x2="448" y2="512"/>
	<line fill="none" stroke="#B35047" x1="480" y1="0" x2="480" y2="512"/>
	<line fill="none" stroke="#B35047" x1="0" y1="32" x2="512" y2="32"/>
	<line fill="none" stroke="#B35047" x1="0" y1="64" x2="512" y2="64"/>
	<line fill="none" stroke="#B35047" x1="0" y1="96" x2="512" y2="96"/>
	<line fill="none" stroke="#B35047" x1="0" y1="128" x2="512" y2="128"/>
	<line fill="none" stroke="#B35047" x1="0" y1="160" x2="512" y2="160"/>
	<line fill="none" stroke="#B35047" x1="0" y1="192" x2="512" y2="192"/>
	<line fill="none" stroke="#B35047" x1="0" y1="224" x2="512" y2="224"/>
	<line fill="none" stroke="#B35047" x1="0" y1="256" x2="512" y2="256"/>
	<line fill="none" stroke="#B35047" x1="0" y1="288" x2="512" y2="288"/>
	<line fill="none" stroke="#B35047" x1="0" y1="320" x2="512" y2="320"/>
	<line fill="none" stroke="#B35047" x1="0" y1="352" x2="512" y2="352"/>
	<line fill="none" stroke="#B35047" x1="0" y1="384" x2="512" y2="384"/>
	<line fill="none" stroke="#B35047" x1="0" y1="416" x2="512" y2="416"/>
	<line fill="none" stroke="#B35047" x1="0" y1="448" x2="512" y2="448"/>
	<line fill="none" stroke="#B35047" x1="0" y1="480" x2="512" y2="480"/>
	<rect x="0" fill="none" stroke="#B35047" width="512" height="512"/>
</g>
<g>
	<path d="M511,151.402c0,69.727,0,139.453,0,209.18c-0.337,0.907-0.847,1.789-0.986,2.726c-1.363,9.207-4.796,17.591-10.327,25.025
		c-12.759,17.149-30.062,24.448-51.272,24.419c-115.191-0.16-230.383-0.074-345.575-0.085c-2.488,0-4.981-0.064-7.463-0.233
		c-19.749-1.345-34.923-10.549-45.778-26.951c-6.92-10.455-9.323-22.19-9.263-34.556c0.026-5.395,0.004-10.79,0.004-16.539
		c-4.814,0-8.793-0.256-12.729,0.047C15.022,335.407,5.549,331.308,1,318.745c0-41.836,0-83.672,0-125.508
		c4.55-12.563,14.021-16.657,26.612-15.691c4.064,0.312,8.173,0.049,12.73,0.049c0-6.149,0.015-11.593-0.003-17.037
		c-0.046-13.464,3.076-26.002,11.212-36.939c12.638-16.988,29.771-24.393,50.792-24.37c115.523,0.125,231.047,0.058,346.571,0.068
		c2.156,0,4.314,0.094,6.468,0.201c25.55,1.274,47.232,19.017,53.551,43.809C509.618,146.02,510.311,148.71,511,151.402z
		 M79.396,295.637c0,2.235,0,4.023,0,5.811c0.001,16.767-0.04,33.533,0.014,50.3c0.046,14.216,7.68,21.998,21.731,22.001
		c116.37,0.028,232.741,0.03,349.111-0.002c13.642-0.004,21.745-7.981,21.761-21.654c0.076-64.078,0.077-128.157-0.001-192.235
		c-0.017-13.666-8.126-21.619-21.792-21.622c-116.37-0.031-232.741-0.03-349.111-0.002c-13.827,0.003-21.628,7.775-21.692,21.534
		c-0.079,16.932-0.021,33.865-0.022,50.798c0,1.784,0,3.569,0,5.786c-2.276,0.117-4.053,0.282-5.83,0.287
		c-9.794,0.027-19.589,0.069-29.383-0.018c-2.737-0.024-4.295,0.47-4.281,3.777c0.104,23.738,0.104,47.478,0.001,71.216
		c-0.014,3.338,1.608,3.766,4.311,3.744c9.794-0.081,19.589-0.043,29.383-0.015C75.373,295.349,77.148,295.519,79.396,295.637z"/>
	<path display="none" fill="#FFFFFF" d="M563.841,61.175c-0.028-0.11-0.056-0.219-0.084-0.329c-0.258-1.011-1.142-1.735-2.184-1.787
		c-0.088-0.004-0.176-0.008-0.264-0.008c-4.712,0-9.423,0.002-14.135-0.003c-0.857-0.001-1.556,0.301-2.072,0.994
		c-0.332,0.446-0.459,0.957-0.457,1.507c0.001,0.222,0,0.444,0,0.695c-0.186,0-0.353,0.011-0.519-0.002
		c-0.513-0.039-0.9,0.128-1.085,0.64c0-2.612,0-5.224,0-7.838c6.933,0,13.867,0,20.8,0
		C563.841,57.088,563.841,59.131,563.841,61.175z"/>
	<path display="none" fill="#FFFFFF" d="M543.041,68c0.186,0.512,0.572,0.68,1.085,0.64c0.161-0.012,0.323-0.002,0.519-0.002
		c0,0.234,0.001,0.454,0,0.675c-0.003,0.504,0.096,0.983,0.378,1.409c0.443,0.669,1.062,1.044,1.867,1.099
		c0.101,0.007,0.203,0.009,0.304,0.009c4.698,0,9.396-0.003,14.094,0.003c0.865,0.001,1.571-0.296,2.091-0.996
		c0.226-0.303,0.366-0.645,0.421-1.021c0.006-0.038,0.026-0.074,0.04-0.111c0,2.045,0,4.09,0,6.134c-6.933,0-13.867,0-20.8,0
		C543.041,73.227,543.041,70.614,543.041,68z"/>
	<path display="none" fill="#FFFFFF" d="M546.238,67.058c-0.092-0.005-0.164-0.012-0.237-0.012
		c-0.399-0.001-0.799-0.003-1.198,0.001c-0.11,0.001-0.176-0.017-0.176-0.153c0.004-0.968,0.004-1.936,0-2.904
		c-0.001-0.135,0.063-0.155,0.175-0.154c0.399,0.004,0.799,0.002,1.198,0.001c0.072,0,0.145-0.007,0.238-0.012
		c0-0.09,0-0.163,0-0.236c0-0.691-0.002-1.381,0.001-2.072c0.003-0.561,0.321-0.878,0.885-0.878c4.746-0.001,9.492-0.001,14.238,0
		c0.557,0,0.888,0.324,0.889,0.882c0.003,2.613,0.003,5.227,0,7.84c-0.001,0.558-0.331,0.883-0.888,0.883
		c-4.746,0.001-9.492,0.001-14.238,0c-0.573,0-0.884-0.318-0.886-0.897c-0.002-0.684-0.001-1.368-0.001-2.051
		C546.238,67.222,546.238,67.149,546.238,67.058z"/>
</g>
<g display="none">
	<path display="inline" d="M511,151.402c0,69.727,0,139.453,0,209.18c-0.337,0.907-0.847,1.789-0.986,2.726
		c-1.363,9.207-4.796,17.591-10.327,25.025c-12.759,17.149-30.062,24.448-51.272,24.419c-115.191-0.16-230.383-0.074-345.575-0.085
		c-2.488,0-4.981-0.064-7.463-0.233c-19.749-1.345-34.923-10.549-45.778-26.951c-6.92-10.455-9.323-22.19-9.263-34.556
		c0.026-5.395,0.004-10.79,0.004-16.539c-4.814,0-8.793-0.256-12.729,0.047C15.022,335.407,5.549,331.308,1,318.745
		c0-41.836,0-83.672,0-125.508c4.55-12.563,14.021-16.657,26.612-15.691c4.064,0.312,8.173,0.049,12.73,0.049
		c0-6.149,0.015-11.593-0.003-17.037c-0.046-13.464,3.076-26.002,11.212-36.939c12.638-16.988,29.771-24.393,50.792-24.37
		c115.523,0.125,231.047,0.058,346.571,0.068c2.156,0,4.314,0.094,6.468,0.201c25.55,1.274,47.232,19.017,53.551,43.809
		C509.618,146.02,510.311,148.71,511,151.402z M79.396,295.331c0,2.617,0,4.418,0,6.219c0.001,16.767-0.043,33.533,0.015,50.3
		c0.049,14.135,7.749,21.898,21.831,21.901c116.204,0.026,232.409,0.025,348.613,0.001c14.222-0.003,22.164-7.943,22.174-22.258
		c0.045-63.746,0.05-127.493-0.005-191.239c-0.012-14.023-8.004-22.017-21.905-22.021c-116.37-0.029-232.741-0.029-349.111,0.001
		c-13.789,0.004-21.533,7.805-21.593,21.634c-0.073,16.932-0.019,33.865-0.02,50.798c0,1.772,0,3.544,0,6.122
		c-13.398,0-26.208,0-39.446,0c0,2.433,0,4.068,0,5.703c0,22.245,0.191,44.492-0.14,66.732c-0.079,5.317,1.679,6.358,6.501,6.209
		C57.061,295.103,67.828,295.331,79.396,295.331z"/>
	<path fill="#FFFFFF" d="M563.841,61.175c-0.028-0.11-0.056-0.219-0.084-0.329c-0.258-1.011-1.142-1.735-2.184-1.787
		c-0.088-0.004-0.176-0.008-0.264-0.008c-4.712,0-9.423,0.002-14.135-0.003c-0.857-0.001-1.556,0.301-2.072,0.994
		c-0.332,0.446-0.459,0.957-0.457,1.507c0.001,0.222,0,0.444,0,0.695c-0.186,0-0.353,0.011-0.519-0.002
		c-0.513-0.039-0.9,0.128-1.085,0.64c0-2.612,0-5.224,0-7.838c6.933,0,13.867,0,20.8,0
		C563.841,57.088,563.841,59.131,563.841,61.175z"/>
	<path fill="#FFFFFF" d="M543.041,68c0.186,0.512,0.572,0.68,1.085,0.64c0.161-0.012,0.323-0.002,0.519-0.002
		c0,0.234,0.001,0.454,0,0.675c-0.003,0.504,0.096,0.983,0.378,1.409c0.443,0.669,1.062,1.044,1.867,1.099
		c0.101,0.007,0.203,0.009,0.304,0.009c4.698,0,9.396-0.003,14.094,0.003c0.865,0.001,1.571-0.296,2.091-0.996
		c0.226-0.303,0.366-0.645,0.421-1.021c0.006-0.038,0.026-0.074,0.04-0.111c0,2.045,0,4.09,0,6.134c-6.933,0-13.867,0-20.8,0
		C543.041,73.227,543.041,70.614,543.041,68z"/>
	<path fill="#FFFFFF" d="M546.238,67.045c-0.472,0-0.911-0.009-1.349,0.004c-0.197,0.006-0.268-0.036-0.265-0.253
		c0.013-0.907,0.006-1.814,0.006-2.722c0-0.067,0-0.133,0-0.233c0.54,0,1.062,0,1.609,0c0-0.105,0-0.177,0-0.25
		c0-0.691-0.002-1.381,0.001-2.072c0.002-0.564,0.318-0.882,0.881-0.882c4.746-0.001,9.492-0.001,14.238,0
		c0.567,0,0.893,0.326,0.893,0.898c0.002,2.6,0.002,5.2,0,7.8c0,0.584-0.324,0.908-0.904,0.908c-4.739,0.001-9.479,0.001-14.218,0
		c-0.574,0-0.888-0.317-0.89-0.893c-0.002-0.684-0.001-1.368-0.001-2.051C546.238,67.225,546.238,67.152,546.238,67.045z
		 M559.049,65.419c0,1.062-0.003,2.125,0.001,3.187c0.002,0.482,0.315,0.803,0.793,0.821c0.216,0.008,0.433,0.003,0.65,0.003
		c0.644-0.002,0.944-0.301,0.944-0.943c0-1.584,0-3.167,0-4.751c0-0.48,0.004-0.961-0.001-1.441
		c-0.006-0.515-0.323-0.831-0.839-0.843c-0.216-0.005-0.433-0.002-0.65-0.001c-0.594,0.004-0.897,0.309-0.898,0.902
		C559.048,63.376,559.049,64.397,559.049,65.419z"/>
	<path display="inline" d="M393.519,255.468c-0.002-25.055-0.018-50.11,0.003-75.165c0.012-14.549,7.463-22.022,22.016-22.124
		c5.309-0.037,10.622-0.1,15.928,0.022c12.639,0.291,20.419,8.043,20.567,20.661c0.138,11.779,0.033,23.561,0.033,35.342
		c0,38.827,0.007,77.654-0.003,116.481c-0.004,15.747-7.358,23.087-23.138,23.124c-5.309,0.013-10.625,0.132-15.927-0.064
		c-11.728-0.433-19.407-8.308-19.448-20.126C393.458,307.569,393.521,281.518,393.519,255.468z"/>
</g>
<g display="none">
	<path display="inline" d="M1,318.745c0-41.836,0-83.672,0-125.508c4.55-12.563,14.021-16.657,26.612-15.691
		c4.064,0.312,8.173,0.049,12.73,0.049c0-6.149,0.015-11.593-0.003-17.037c-0.046-13.464,3.076-26.002,11.212-36.939
		c12.638-16.988,29.771-24.393,50.792-24.37c115.523,0.125,231.047,0.058,346.57,0.068c2.156,0,4.314,0.094,6.468,0.201
		c25.55,1.274,47.232,19.017,53.551,43.809c0.686,2.692,1.379,5.383,2.068,8.074c0,69.727,0,139.453,0,209.18
		c-0.337,0.907-0.847,1.789-0.986,2.726c-1.363,9.207-4.796,17.591-10.327,25.025c-12.759,17.149-30.062,24.448-51.272,24.419
		c-115.191-0.16-230.383-0.074-345.575-0.085c-2.488,0-4.981-0.064-7.463-0.233c-19.749-1.345-34.923-10.549-45.778-26.951
		c-6.92-10.455-9.323-22.19-9.263-34.556c0.026-5.395,0.004-10.79,0.004-16.539c-4.814,0-8.793-0.256-12.729,0.047
		C15.022,335.407,5.55,331.308,1,318.745z M79.396,295.62c0,2.228,0,4.017,0,5.806c0.001,16.933-0.058,33.866,0.022,50.798
		c0.065,13.752,7.871,21.522,21.701,21.525c116.37,0.028,232.741,0.029,349.111-0.002c13.659-0.004,21.766-7.964,21.783-21.632
		c0.077-64.078,0.077-128.157,0-192.235c-0.016-13.67-8.121-21.64-21.77-21.644c-116.37-0.032-232.741-0.03-349.111-0.002
		c-13.833,0.003-21.649,7.771-21.714,21.512c-0.081,16.932-0.021,33.865-0.022,50.798c0,1.787,0,3.574,0,5.804
		c-2.256,0.118-4.032,0.287-5.808,0.292c-9.794,0.028-19.589,0.066-29.383-0.016c-2.713-0.023-4.317,0.424-4.302,3.753
		c0.103,23.738,0.103,47.478,0,71.216c-0.014,3.316,1.562,3.792,4.29,3.768c9.628-0.086,19.256-0.045,28.885-0.018
		C75.019,295.349,76.961,295.509,79.396,295.62z"/>
	<path fill="#FFFFFF" d="M563.841,61.175c-0.028-0.11-0.056-0.219-0.084-0.329c-0.258-1.011-1.142-1.735-2.184-1.787
		c-0.088-0.004-0.176-0.008-0.264-0.008c-4.712,0-9.423,0.002-14.135-0.003c-0.857-0.001-1.556,0.301-2.072,0.994
		c-0.332,0.446-0.459,0.957-0.457,1.507c0.001,0.222,0,0.444,0,0.695c-0.186,0-0.353,0.011-0.519-0.002
		c-0.513-0.039-0.9,0.128-1.085,0.64c0-2.612,0-5.224,0-7.838c6.933,0,13.867,0,20.8,0
		C563.841,57.088,563.841,59.131,563.841,61.175z"/>
	<path fill="#FFFFFF" d="M543.041,68c0.186,0.512,0.572,0.68,1.085,0.64c0.161-0.012,0.323-0.002,0.519-0.002
		c0,0.234,0.001,0.454,0,0.675c-0.003,0.504,0.096,0.983,0.378,1.409c0.443,0.669,1.062,1.044,1.867,1.099
		c0.101,0.007,0.203,0.009,0.304,0.009c4.698,0,9.396-0.003,14.094,0.003c0.865,0.001,1.571-0.296,2.091-0.996
		c0.226-0.303,0.366-0.645,0.421-1.021c0.006-0.038,0.026-0.074,0.04-0.111c0,2.045,0,4.09,0,6.134c-6.933,0-13.867,0-20.8,0
		C543.041,73.227,543.041,70.614,543.041,68z"/>
	<path fill="#FFFFFF" d="M546.238,67.057c-0.099-0.005-0.179-0.011-0.258-0.011c-0.393-0.001-0.785-0.003-1.178,0.001
		c-0.111,0.001-0.176-0.018-0.175-0.154c0.004-0.968,0.004-1.936,0-2.904c-0.001-0.136,0.065-0.154,0.175-0.153
		c0.399,0.003,0.799,0.002,1.198,0.001c0.072,0,0.145-0.007,0.237-0.012c0-0.091,0-0.164,0-0.237c0-0.691-0.002-1.381,0.001-2.072
		c0.003-0.56,0.321-0.877,0.886-0.877c4.746-0.001,9.492-0.001,14.238,0c0.557,0,0.887,0.325,0.888,0.883
		c0.003,2.613,0.003,5.227,0,7.84c-0.001,0.557-0.331,0.882-0.888,0.882c-4.746,0.001-9.492,0.001-14.238,0
		c-0.564,0-0.882-0.317-0.885-0.878c-0.003-0.691-0.001-1.381-0.001-2.072C546.238,67.221,546.238,67.148,546.238,67.057z
		 M557.451,65.447c0,1.036-0.003,2.072,0.001,3.108c0.002,0.565,0.305,0.871,0.863,0.874c0.758,0.005,1.517,0.006,2.275-0.001
		c0.527-0.005,0.846-0.327,0.846-0.855c0.003-2.092,0.003-4.184,0-6.276c-0.001-0.515-0.322-0.838-0.838-0.843
		c-0.772-0.007-1.544-0.012-2.315,0.006c-0.178,0.004-0.373,0.074-0.526,0.168c-0.252,0.157-0.308,0.426-0.307,0.711
		C557.452,63.375,557.45,64.411,557.451,65.447z"/>
	<path display="inline" d="M354.32,256.141c-0.001-25.4,0.038-50.8-0.026-76.2c-0.018-6.984,1.355-13.6,7.531-17.438
		c3.743-2.326,8.526-4.028,12.886-4.13c18.915-0.441,37.848-0.32,56.772-0.146c12.641,0.116,20.522,8.031,20.544,20.669
		c0.09,51.298,0.08,102.597,0.009,153.895c-0.018,12.957-7.833,20.863-20.753,20.974c-18.592,0.16-37.187,0.132-55.78,0.015
		c-13.675-0.086-21.092-7.58-21.151-21.438C354.243,306.941,354.321,281.541,354.32,256.141z"/>
</g>
<g display="none">
	<path display="inline" d="M1,318.745c0-41.836,0-83.672,0-125.508c4.55-12.563,14.021-16.657,26.612-15.691
		c4.064,0.312,8.173,0.049,12.73,0.049c0-6.149,0.015-11.593-0.003-17.037c-0.046-13.464,3.076-26.002,11.212-36.939
		c12.638-16.988,29.771-24.393,50.792-24.37c115.523,0.125,231.047,0.058,346.571,0.068c2.156,0,4.314,0.094,6.468,0.201
		c25.55,1.274,47.232,19.017,53.551,43.809c0.686,2.692,1.379,5.383,2.068,8.074c0,69.727,0,139.453,0,209.18
		c-0.337,0.907-0.847,1.789-0.986,2.726c-1.363,9.207-4.796,17.591-10.327,25.025c-12.759,17.149-30.062,24.448-51.272,24.419
		c-115.191-0.16-230.383-0.074-345.575-0.085c-2.488,0-4.981-0.064-7.463-0.233c-19.749-1.345-34.923-10.549-45.778-26.951
		c-6.92-10.455-9.323-22.19-9.263-34.556c0.026-5.395,0.004-10.79,0.004-16.539c-4.814,0-8.793-0.256-12.729,0.047
		C15.022,335.407,5.549,331.308,1,318.745z M79.396,295.618c0,2.231,0,4.015,0,5.799c0.001,16.933-0.058,33.866,0.022,50.798
		c0.064,13.759,7.866,21.53,21.693,21.534c116.37,0.028,232.741,0.029,349.111-0.002c13.665-0.004,21.775-7.957,21.791-21.623
		c0.078-64.078,0.077-128.157,0.001-192.235c-0.016-13.672-8.119-21.649-21.762-21.653c-116.37-0.032-232.741-0.03-349.111-0.002
		c-14.051,0.003-21.684,7.785-21.73,22.002c-0.054,16.766-0.014,33.533-0.014,50.3c0,1.788,0,3.576,0,5.81
		c-2.243,0.118-4.021,0.288-5.8,0.294c-9.794,0.028-19.589,0.065-29.383-0.015c-2.704-0.022-4.325,0.408-4.311,3.745
		c0.103,23.738,0.103,47.478-0.001,71.216c-0.014,3.309,1.544,3.802,4.281,3.777c9.628-0.087,19.256-0.046,28.885-0.018
		C75.011,295.348,76.954,295.507,79.396,295.618z"/>
	<path fill="#FFFFFF" d="M563.841,61.175c-0.028-0.11-0.056-0.219-0.084-0.329c-0.258-1.011-1.142-1.735-2.184-1.787
		c-0.088-0.004-0.176-0.008-0.264-0.008c-4.712,0-9.423,0.002-14.135-0.003c-0.857-0.001-1.556,0.301-2.072,0.994
		c-0.332,0.446-0.459,0.957-0.457,1.507c0.001,0.222,0,0.444,0,0.695c-0.186,0-0.353,0.011-0.519-0.002
		c-0.513-0.039-0.9,0.128-1.085,0.64c0-2.612,0-5.224,0-7.838c6.933,0,13.867,0,20.8,0
		C563.841,57.088,563.841,59.131,563.841,61.175z"/>
	<path fill="#FFFFFF" d="M543.041,68c0.186,0.512,0.572,0.68,1.085,0.64c0.161-0.012,0.323-0.002,0.519-0.002
		c0,0.234,0.001,0.454,0,0.675c-0.003,0.504,0.096,0.983,0.378,1.409c0.443,0.669,1.062,1.044,1.867,1.099
		c0.101,0.007,0.203,0.009,0.304,0.009c4.698,0,9.396-0.003,14.094,0.003c0.865,0.001,1.571-0.296,2.091-0.996
		c0.226-0.303,0.366-0.645,0.421-1.021c0.006-0.038,0.026-0.074,0.04-0.111c0,2.045,0,4.09,0,6.134c-6.933,0-13.867,0-20.8,0
		C543.041,73.227,543.041,70.614,543.041,68z"/>
	<path fill="#FFFFFF" d="M546.238,67.057c-0.1-0.005-0.179-0.011-0.258-0.011c-0.393-0.001-0.785-0.003-1.178,0.001
		c-0.112,0.001-0.175-0.019-0.175-0.154c0.004-0.968,0.004-1.936,0-2.904c-0.001-0.136,0.065-0.154,0.176-0.153
		c0.399,0.003,0.799,0.002,1.198,0.001c0.073,0,0.145-0.007,0.237-0.012c0-0.091,0-0.164,0-0.237c0-0.684-0.002-1.368,0.001-2.051
		c0.002-0.58,0.313-0.897,0.886-0.897c4.746-0.001,9.492-0.001,14.238,0c0.556,0,0.887,0.325,0.888,0.883
		c0.003,2.613,0.003,5.227,0,7.84c-0.001,0.557-0.331,0.882-0.889,0.882c-4.746,0.001-9.492,0.001-14.238,0
		c-0.564,0-0.882-0.317-0.885-0.878c-0.003-0.691-0.001-1.381-0.001-2.072C546.238,67.22,546.238,67.148,546.238,67.057z
		 M554.251,65.438c0,1.029-0.001,2.057,0,3.086c0.001,0.608,0.299,0.906,0.912,0.907c1.786,0.001,3.573,0.001,5.359,0
		c0.605-0.001,0.914-0.31,0.915-0.911c0.001-2.05,0.001-4.1,0-6.151c0-0.604-0.307-0.916-0.908-0.917
		c-1.793-0.002-3.586-0.002-5.379,0c-0.596,0.001-0.897,0.304-0.897,0.9C554.25,63.381,554.251,64.409,554.251,65.438z"/>
	<path display="inline" d="M275.877,255.916c0-25.218-0.024-50.436,0.009-75.654c0.019-14.615,7.389-22.058,22.004-22.073
		c43.966-0.046,87.931-0.045,131.897-0.002c14.738,0.014,22.268,7.659,22.273,22.476c0.018,50.27,0.021,100.54-0.002,150.811
		c-0.006,14.734-7.595,22.314-22.423,22.327c-43.8,0.037-87.6,0.035-131.399,0c-15.007-0.012-22.334-7.33-22.351-22.23
		C275.856,306.352,275.877,281.134,275.877,255.916z"/>
</g>
<g display="none">
	<path display="inline" d="M1,318.745c0-41.836,0-83.672,0-125.508c4.55-12.563,14.021-16.657,26.612-15.691
		c4.064,0.312,8.173,0.049,12.73,0.049c0-6.149,0.015-11.593-0.003-17.037c-0.046-13.464,3.076-26.002,11.212-36.939
		c12.638-16.988,29.771-24.393,50.792-24.37c115.523,0.125,231.047,0.058,346.571,0.068c2.156,0,4.314,0.094,6.468,0.201
		c25.55,1.274,47.232,19.017,53.551,43.809c0.686,2.692,1.379,5.383,2.068,8.074c0,69.727,0,139.453,0,209.18
		c-0.337,0.907-0.847,1.789-0.986,2.726c-1.363,9.207-4.796,17.591-10.327,25.025c-12.759,17.149-30.062,24.448-51.272,24.419
		c-115.191-0.16-230.383-0.074-345.575-0.085c-2.488,0-4.981-0.064-7.463-0.233c-19.749-1.345-34.923-10.549-45.778-26.951
		c-6.92-10.455-9.323-22.19-9.263-34.556c0.026-5.395,0.004-10.79,0.004-16.539c-4.814,0-8.793-0.256-12.729,0.047
		C15.022,335.407,5.549,331.308,1,318.745z M79.396,295.331c0,2.695,0,4.506,0,6.317c0.001,16.767-0.047,33.533,0.017,50.3
		c0.054,14.075,7.799,21.801,21.928,21.804c116.204,0.023,232.409,0.024,348.613-0.001c14.006-0.003,22.051-7.893,22.065-21.858
		c0.065-63.912,0.063-127.825,0.002-191.737c-0.013-13.979-8.047-21.92-22.001-21.924c-116.204-0.027-232.409-0.025-348.613-0.003
		c-14.367,0.003-21.962,7.721-22,22.236c-0.044,16.767-0.011,33.533-0.012,50.3c0,1.76,0,3.52,0,5.89c-13.371,0-26.075,0-39.447,0
		c0,2.545,0,4.489,0,6.433c0,21.913-0.003,43.826,0.002,65.738c0.001,6.491,0.01,6.498,6.455,6.502
		C57.16,295.335,67.913,295.331,79.396,295.331z"/>
	<path fill="#FFFFFF" d="M563.841,61.175c-0.028-0.11-0.056-0.219-0.084-0.329c-0.258-1.011-1.142-1.735-2.184-1.787
		c-0.088-0.004-0.176-0.008-0.264-0.008c-4.712,0-9.423,0.002-14.135-0.003c-0.857-0.001-1.556,0.301-2.072,0.994
		c-0.332,0.446-0.459,0.957-0.457,1.507c0.001,0.222,0,0.444,0,0.695c-0.186,0-0.353,0.011-0.519-0.002
		c-0.513-0.039-0.9,0.128-1.085,0.64c0-2.612,0-5.224,0-7.838c6.933,0,13.867,0,20.8,0
		C563.841,57.088,563.841,59.131,563.841,61.175z"/>
	<path fill="#FFFFFF" d="M543.041,68c0.186,0.512,0.572,0.68,1.085,0.64c0.161-0.012,0.323-0.002,0.519-0.002
		c0,0.234,0.001,0.454,0,0.675c-0.003,0.504,0.096,0.983,0.378,1.409c0.443,0.669,1.062,1.044,1.867,1.099
		c0.101,0.007,0.203,0.009,0.304,0.009c4.698,0,9.396-0.003,14.094,0.003c0.865,0.001,1.571-0.296,2.091-0.996
		c0.226-0.303,0.366-0.645,0.421-1.021c0.006-0.038,0.026-0.074,0.04-0.111c0,2.045,0,4.09,0,6.134c-6.933,0-13.867,0-20.8,0
		C543.041,73.227,543.041,70.614,543.041,68z"/>
	<path fill="#FFFFFF" d="M546.238,67.045c-0.468,0-0.907,0-1.346,0c-0.263,0-0.263,0-0.263-0.265c0-0.894,0-1.787,0-2.681
		c0-0.079,0-0.159,0-0.262c0.545,0,1.063,0,1.609,0c0-0.097,0-0.168,0-0.24c0-0.684-0.001-1.368,0-2.051
		c0.002-0.592,0.311-0.907,0.897-0.907c4.739-0.001,9.479-0.001,14.218,0c0.569,0,0.897,0.324,0.897,0.894
		c0.002,2.607,0.003,5.213,0,7.82c-0.001,0.57-0.329,0.891-0.9,0.891c-4.739,0.001-9.479,0.001-14.218,0
		c-0.576,0-0.892-0.315-0.894-0.889c-0.003-0.684-0.001-1.368-0.001-2.051C546.238,67.229,546.238,67.155,546.238,67.045z
		 M555.82,69.43c1.564,0,3.128,0.005,4.692-0.007c0.199-0.002,0.42-0.056,0.592-0.155c0.268-0.155,0.334-0.439,0.334-0.74
		c-0.002-2.038-0.01-4.076,0.005-6.114c0.004-0.526-0.264-0.978-0.972-0.97c-1.726,0.021-3.453,0.007-5.179,0.007
		c-1.374,0-2.749,0.001-4.123-0.001c-0.236,0-0.458,0.029-0.644,0.192c-0.223,0.195-0.282,0.45-0.282,0.732
		c0.001,2.031,0.008,4.062-0.004,6.094c-0.003,0.561,0.289,0.979,0.971,0.97C552.746,69.416,554.283,69.43,555.82,69.43z"/>
	<path display="inline" d="M314.349,353.813c-37.684,0-75.373-0.347-113.051,0.159c-16.737,0.225-23.897-10.011-23.813-23.774
		c0.304-49.801,0.133-99.606,0.104-149.409c-0.004-6.907,1.432-13.157,6.91-17.939c4.571-3.991,10.012-4.717,15.799-4.708
		c33.7,0.055,67.4,0.026,101.1,0.026c42.333,0,84.669,0.34,126.996-0.164c17.338-0.206,23.917,10.893,23.822,23.78
		c-0.368,49.966-0.175,99.937-0.123,149.906c0.008,7.383-1.613,14.35-8.193,18.146c-4.201,2.424-9.62,3.771-14.508,3.809
		C391.047,353.946,352.697,353.813,314.349,353.813z"/>
</g>
<g display="none">
	<path display="inline" d="M1,318.745c0-41.836,0-83.672,0-125.508c4.55-12.563,14.021-16.657,26.612-15.691
		c4.064,0.312,8.173,0.049,12.73,0.049c0-6.149,0.015-11.593-0.003-17.037c-0.046-13.464,3.076-26.002,11.212-36.939
		c12.638-16.988,29.771-24.393,50.792-24.37c115.523,0.125,231.047,0.058,346.571,0.068c2.156,0,4.314,0.094,6.468,0.201
		c25.55,1.274,47.232,19.017,53.551,43.809c0.686,2.692,1.379,5.383,2.068,8.074c0,69.727,0,139.453,0,209.18
		c-0.337,0.907-0.847,1.789-0.986,2.726c-1.363,9.207-4.796,17.591-10.327,25.025c-12.759,17.149-30.062,24.448-51.272,24.419
		c-115.191-0.16-230.383-0.074-345.575-0.085c-2.488,0-4.981-0.064-7.463-0.233c-19.749-1.345-34.923-10.549-45.778-26.951
		c-6.92-10.455-9.323-22.19-9.263-34.556c0.026-5.395,0.004-10.79,0.004-16.539c-4.814,0-8.793-0.256-12.729,0.047
		C15.022,335.407,5.549,331.308,1,318.745z M79.396,295.621c0,2.237,0,4.023,0,5.809c0.001,16.933-0.058,33.866,0.022,50.798
		c0.065,13.75,7.873,21.519,21.704,21.522c116.37,0.028,232.741,0.029,349.111-0.002c13.657-0.004,21.763-7.966,21.78-21.635
		c0.077-64.078,0.077-128.157,0-192.235c-0.016-13.67-8.122-21.638-21.773-21.641c-116.37-0.032-232.741-0.03-349.111-0.002
		c-13.833,0.003-21.646,7.771-21.711,21.516c-0.08,16.932-0.021,33.865-0.022,50.798c0,1.787,0,3.573,0,5.801
		c-2.254,0.118-4.032,0.286-5.811,0.291c-9.794,0.028-19.589,0.067-29.383-0.016c-2.717-0.023-4.314,0.431-4.299,3.757
		c0.103,23.738,0.103,47.478,0,71.216c-0.014,3.32,1.569,3.788,4.293,3.764c9.628-0.085,19.256-0.045,28.885-0.017
		C75.022,295.349,76.964,295.509,79.396,295.621z"/>
	<path fill="#FFFFFF" d="M563.841,61.175c-0.028-0.11-0.056-0.219-0.084-0.329c-0.258-1.011-1.142-1.735-2.184-1.787
		c-0.088-0.004-0.176-0.008-0.264-0.008c-4.712,0-9.423,0.002-14.135-0.003c-0.857-0.001-1.556,0.301-2.072,0.994
		c-0.332,0.446-0.459,0.957-0.457,1.507c0.001,0.222,0,0.444,0,0.695c-0.186,0-0.353,0.011-0.519-0.002
		c-0.513-0.039-0.9,0.128-1.085,0.64c0-2.612,0-5.224,0-7.838c6.933,0,13.867,0,20.8,0
		C563.841,57.088,563.841,59.131,563.841,61.175z"/>
	<path fill="#FFFFFF" d="M543.041,68c0.186,0.512,0.572,0.68,1.085,0.64c0.161-0.012,0.323-0.002,0.519-0.002
		c0,0.234,0.001,0.454,0,0.675c-0.003,0.504,0.096,0.983,0.378,1.409c0.443,0.669,1.062,1.044,1.867,1.099
		c0.101,0.007,0.203,0.009,0.304,0.009c4.698,0,9.396-0.003,14.094,0.003c0.865,0.001,1.571-0.296,2.091-0.996
		c0.226-0.303,0.366-0.645,0.421-1.021c0.006-0.038,0.026-0.074,0.04-0.111c0,2.045,0,4.09,0,6.134c-6.933,0-13.867,0-20.8,0
		C543.041,73.227,543.041,70.614,543.041,68z"/>
	<path fill="#FFFFFF" d="M546.238,67.057c-0.099-0.005-0.178-0.011-0.258-0.011c-0.393-0.001-0.785-0.003-1.178,0.001
		c-0.111,0.001-0.176-0.018-0.175-0.154c0.004-0.968,0.004-1.936,0-2.904c-0.001-0.136,0.065-0.154,0.175-0.153
		c0.399,0.003,0.799,0.002,1.198,0.001c0.073,0,0.145-0.007,0.237-0.012c0-0.091,0-0.164,0-0.237c0-0.691-0.002-1.381,0.001-2.072
		c0.003-0.561,0.321-0.877,0.885-0.877c4.746-0.001,9.492-0.001,14.238,0c0.557,0,0.887,0.325,0.888,0.883
		c0.003,2.613,0.003,5.227,0,7.84c-0.001,0.557-0.331,0.882-0.888,0.882c-4.746,0.001-9.492,0.001-14.238,0
		c-0.564,0-0.883-0.317-0.885-0.878c-0.003-0.691-0.001-1.381-0.001-2.072C546.238,67.221,546.238,67.148,546.238,67.057z
		 M555.03,69.43c1.834,0,3.669,0.001,5.503-0.001c0.591-0.001,0.903-0.313,0.903-0.902c0.001-2.058,0.001-4.116,0-6.173
		c0-0.581-0.31-0.902-0.882-0.902c-3.676-0.002-7.351-0.002-11.027,0c-0.568,0-0.878,0.315-0.878,0.881
		c-0.001,2.071-0.001,4.143,0,6.214c0,0.087,0.001,0.177,0.02,0.262c0.092,0.402,0.399,0.62,0.877,0.62
		C551.375,69.431,553.202,69.43,555.03,69.43z"/>
	<path display="inline" d="M294.974,353.812c-44.813,0-89.625,0.019-134.438-0.014c-11.729-0.009-19.264-5.348-21.509-15.208
		c-0.472-2.072-0.489-4.279-0.49-6.424c-0.025-50.788-0.035-101.575-0.01-152.363c0.007-13.89,7.59-21.599,21.525-21.606
		c90.123-0.047,180.247-0.048,270.37,0c14.034,0.008,21.628,7.871,21.635,22.117c0.026,50.456,0.027,100.911,0,151.367
		c-0.008,14.436-7.646,22.098-22.146,22.113C384.931,353.842,339.952,353.812,294.974,353.812z"/>
</g>
<g display="none">
	<path display="inline" d="M511,151.402c0,69.727,0,139.453,0,209.18c-0.337,0.907-0.847,1.789-0.986,2.726
		c-1.363,9.207-4.796,17.591-10.327,25.025c-12.759,17.149-30.062,24.448-51.272,24.419c-115.191-0.16-230.383-0.074-345.575-0.085
		c-2.488,0-4.981-0.064-7.463-0.233c-19.749-1.345-34.923-10.549-45.778-26.951c-6.92-10.455-9.323-22.19-9.263-34.556
		c0.026-5.395,0.004-10.79,0.004-16.539c-4.814,0-8.793-0.256-12.729,0.047C15.022,335.407,5.549,331.308,1,318.745
		c0-41.836,0-83.672,0-125.508c4.55-12.563,14.021-16.657,26.612-15.691c4.064,0.312,8.173,0.049,12.73,0.049
		c0-6.149,0.015-11.593-0.003-17.037c-0.046-13.464,3.076-26.002,11.212-36.939c12.638-16.988,29.771-24.393,50.792-24.37
		c115.523,0.125,231.047,0.058,346.571,0.068c2.156,0,4.314,0.094,6.468,0.201c25.55,1.274,47.232,19.017,53.551,43.809
		C509.618,146.02,510.311,148.71,511,151.402z M79.396,295.62c0,2.23,0,4.019,0,5.808c0.001,16.933-0.058,33.866,0.022,50.798
		c0.065,13.751,7.873,21.52,21.703,21.523c116.37,0.028,232.741,0.029,349.111-0.002c13.658-0.004,21.765-7.965,21.781-21.633
		c0.077-64.078,0.077-128.157,0-192.235c-0.016-13.67-8.121-21.639-21.772-21.643c-116.37-0.032-232.741-0.03-349.111-0.002
		c-13.833,0.003-21.647,7.771-21.712,21.514c-0.08,16.932-0.021,33.865-0.022,50.798c0,1.787,0,3.574,0,5.802
		c-2.253,0.118-4.031,0.286-5.81,0.291c-9.794,0.028-19.589,0.066-29.383-0.016c-2.716-0.023-4.315,0.429-4.3,3.756
		c0.103,23.738,0.103,47.478,0,71.216c-0.014,3.318,1.566,3.79,4.292,3.765c9.628-0.085,19.256-0.045,28.885-0.017
		C75.021,295.349,76.963,295.509,79.396,295.62z"/>
	<path fill="#FFFFFF" d="M564.841,113.175c-0.028-0.11-0.056-0.219-0.084-0.329c-0.258-1.011-1.142-1.735-2.184-1.787
		c-0.088-0.004-0.176-0.008-0.264-0.008c-4.712,0-9.423,0.002-14.135-0.003c-0.857-0.001-1.556,0.301-2.072,0.994
		c-0.332,0.446-0.459,0.957-0.457,1.507c0.001,0.222,0,0.444,0,0.695c-0.186,0-0.353,0.011-0.519-0.002
		c-0.513-0.039-0.9,0.128-1.085,0.64c0-2.612,0-5.224,0-7.838c6.933,0,13.867,0,20.8,0
		C564.841,109.088,564.841,111.131,564.841,113.175z"/>
	<path fill="#FFFFFF" d="M544.041,120c0.186,0.512,0.572,0.68,1.085,0.64c0.161-0.012,0.323-0.002,0.519-0.002
		c0,0.234,0.001,0.454,0,0.675c-0.003,0.504,0.096,0.983,0.378,1.409c0.443,0.669,1.062,1.044,1.867,1.099
		c0.101,0.007,0.203,0.009,0.304,0.009c4.698,0,9.396-0.003,14.094,0.003c0.865,0.001,1.571-0.296,2.091-0.996
		c0.226-0.303,0.366-0.645,0.421-1.021c0.006-0.038,0.026-0.074,0.04-0.111c0,2.045,0,4.09,0,6.134c-6.933,0-13.867,0-20.8,0
		C544.041,125.227,544.041,122.614,544.041,120z"/>
	<path fill="#FFFFFF" d="M547.238,119.057c-0.099-0.005-0.178-0.011-0.258-0.011c-0.393-0.001-0.785-0.003-1.178,0.001
		c-0.111,0.001-0.176-0.018-0.175-0.154c0.004-0.968,0.004-1.936,0-2.905c-0.001-0.136,0.065-0.154,0.175-0.153
		c0.399,0.003,0.799,0.002,1.198,0.001c0.073,0,0.145-0.007,0.237-0.012c0-0.091,0-0.164,0-0.237c0-0.691-0.002-1.381,0.001-2.072
		c0.003-0.561,0.321-0.877,0.885-0.877c4.746-0.001,9.492-0.001,14.238,0c0.557,0,0.887,0.325,0.888,0.883
		c0.003,2.613,0.003,5.227,0,7.84c-0.001,0.557-0.331,0.882-0.888,0.882c-4.746,0.001-9.492,0.001-14.238,0
		c-0.564,0-0.883-0.317-0.885-0.878c-0.003-0.691-0.001-1.381-0.001-2.072C547.238,119.221,547.238,119.148,547.238,119.057z
		 M555.233,121.43c2.085,0,4.171,0.002,6.256-0.003c0.159,0,0.332-0.012,0.475-0.073c0.353-0.151,0.475-0.453,0.474-0.823
		c-0.002-2.031-0.011-4.063,0.006-6.094c0.005-0.553-0.263-0.998-0.99-0.994c-3.033,0.017-6.067,0.007-9.1,0.007
		c-1.144,0-2.289-0.002-3.433,0.001c-0.546,0.002-0.866,0.297-0.868,0.827c-0.007,2.106-0.005,4.211-0.001,6.317
		c0.001,0.418,0.222,0.716,0.581,0.804c0.123,0.03,0.255,0.029,0.383,0.029C551.089,121.431,553.161,121.43,555.233,121.43z"/>
	<path display="inline" d="M275.423,353.813c-50.8,0-101.601,0.012-152.401-0.028c-3.136-0.002-6.379,0.025-9.389-0.71
		c-8.819-2.155-14.233-9.467-14.253-19.71c-0.102-51.63-0.139-103.261,0.021-154.891c0.04-12.995,7.882-20.23,21.274-20.273
		c28.056-0.091,56.113-0.031,84.169-0.032c74.375-0.001,148.751,0.242,223.123-0.176c17.824-0.1,24.377,10.801,24.264,24.361
		c-0.413,49.801-0.193,99.607-0.139,149.412c0.01,9.07-2.978,16.485-11.631,20.182c-3.506,1.498-7.738,1.783-11.641,1.791
		C377.688,353.851,326.555,353.813,275.423,353.813z"/>
</g>
</svg>
