<?xml version="1.0" encoding="utf-8"?>
<!-- Generator: Adobe Illustrator 17.0.0, SVG Export Plug-In . SVG Version: 6.00 Build 0)  -->
<!DOCTYPE svg PUBLIC "-//W3C//DTD SVG 1.1//EN" "http://www.w3.org/Graphics/SVG/1.1/DTD/svg11.dtd">
<svg version="1.1" id="Layer_1" xmlns="http://www.w3.org/2000/svg" xmlns:xlink="http://www.w3.org/1999/xlink" x="0px" y="0px"
	 width="512px" height="512px" viewBox="0 0 512 512" enable-background="new 0 0 512 512" xml:space="preserve">
<g>
	<line fill="none" stroke="#B35047" x1="32" y1="0" x2="32" y2="512"/>
	<line fill="none" stroke="#B35047" x1="64" y1="0" x2="64" y2="512"/>
	<line fill="none" stroke="#B35047" x1="96" y1="0" x2="96" y2="512"/>
	<line fill="none" stroke="#B35047" x1="128" y1="0" x2="128" y2="512"/>
	<line fill="none" stroke="#B35047" x1="160" y1="0" x2="160" y2="512"/>
	<line fill="none" stroke="#B35047" x1="192" y1="0" x2="192" y2="512"/>
	<line fill="none" stroke="#B35047" x1="224" y1="0" x2="224" y2="512"/>
	<line fill="none" stroke="#B35047" x1="256" y1="0" x2="256" y2="512"/>
	<line fill="none" stroke="#B35047" x1="288" y1="0" x2="288" y2="512"/>
	<line fill="none" stroke="#B35047" x1="320" y1="0" x2="320" y2="512"/>
	<line fill="none" stroke="#B35047" x1="352" y1="0" x2="352" y2="512"/>
	<line fill="none" stroke="#B35047" x1="384" y1="0" x2="384" y2="512"/>
	<line fill="none" stroke="#B35047" x1="416" y1="0" x2="416" y2="512"/>
	<line fill="none" stroke="#B35047" x1="448" y1="0" x2="448" y2="512"/>
	<line fill="none" stroke="#B35047" x1="480" y1="0" x2="480" y2="512"/>
	<line fill="none" stroke="#B35047" x1="0" y1="32" x2="512" y2="32"/>
	<line fill="none" stroke="#B35047" x1="0" y1="64" x2="512" y2="64"/>
	<line fill="none" stroke="#B35047" x1="0" y1="96" x2="512" y2="96"/>
	<line fill="none" stroke="#B35047" x1="0" y1="128" x2="512" y2="128"/>
	<line fill="none" stroke="#B35047" x1="0" y1="160" x2="512" y2="160"/>
	<line fill="none" stroke="#B35047" x1="0" y1="192" x2="512" y2="192"/>
	<line fill="none" stroke="#B35047" x1="0" y1="224" x2="512" y2="224"/>
	<line fill="none" stroke="#B35047" x1="0" y1="256" x2="512" y2="256"/>
	<line fill="none" stroke="#B35047" x1="0" y1="288" x2="512" y2="288"/>
	<line fill="none" stroke="#B35047" x1="0" y1="320" x2="512" y2="320"/>
	<line fill="none" stroke="#B35047" x1="0" y1="352" x2="512" y2="352"/>
	<line fill="none" stroke="#B35047" x1="0" y1="384" x2="512" y2="384"/>
	<line fill="none" stroke="#B35047" x1="0" y1="416" x2="512" y2="416"/>
	<line fill="none" stroke="#B35047" x1="0" y1="448" x2="512" y2="448"/>
	<line fill="none" stroke="#B35047" x1="0" y1="480" x2="512" y2="480"/>
	<rect x="0" fill="none" stroke="#B35047" width="512" height="512"/>
</g>
<g>
	<path d="M437.289,511c-120.859,0-241.719,0-362.578,0c-1.079-0.362-2.137-0.82-3.242-1.073
		c-11.838-2.704-20.677-9.359-26.503-20.016c-3.954-7.232-4.634-15.106-4.633-23.138c0.01-140.516,0.007-281.031,0.008-421.547
		c0-1.493-0.031-2.989,0.045-4.478C41.37,21.434,52.254,7.165,69.53,2.498C71.265,2.029,72.984,1.501,74.711,1
		C195.57,1,316.43,1,437.289,1c1.079,0.362,2.137,0.82,3.242,1.073c11.838,2.704,20.677,9.359,26.503,20.015
		c3.954,7.232,4.634,15.107,4.633,23.138c-0.01,140.516-0.007,281.031-0.008,421.547c0,1.493,0.031,2.989-0.045,4.478
		c-0.984,19.314-11.868,33.583-29.144,38.251C440.735,509.971,439.016,510.499,437.289,511z M432.604,39.949
		c-2.464,0-4.245,0-6.026,0c-113.714,0-227.428,0.029-341.141-0.101c-4.699-0.005-6.15,1.099-6.146,5.981
		c0.13,140.109,0.104,280.217,0.115,420.326c0,1.771,0.146,3.542,0.249,5.895c2.537,0,4.65,0,6.763,0
		c113.05,0,226.099,0,339.149-0.001c7.032,0,7.036-0.004,7.036-6.876c0.001-139.445,0.001-278.889,0.001-418.334
		C432.604,44.866,432.604,42.89,432.604,39.949z"/>
	<path display="none" fill="#FFFFFF" d="M418.047,174.041c-0.07,0.02-0.141,0.042-0.211,0.061c-0.705,0.19-1.148,0.772-1.189,1.56
		c-0.003,0.061-0.002,0.122-0.002,0.183c0,5.731,0,11.462,0,17.192c0,0.328,0.028,0.649,0.189,0.944
		c0.238,0.435,0.598,0.706,1.081,0.816c0.045,0.01,0.088,0.029,0.132,0.044c-1.002,0-2.004,0-3.006,0c0-6.933,0-13.867,0-20.8
		C416.043,174.041,417.045,174.041,418.047,174.041z"/>
	<path display="none" fill="#FFFFFF" d="M432.834,194.841c0.07-0.02,0.141-0.042,0.211-0.061c0.705-0.19,1.148-0.772,1.189-1.56
		c0.003-0.061,0.002-0.122,0.002-0.183c0-5.731,0-11.462,0-17.192c0-0.328-0.028-0.649-0.189-0.944
		c-0.238-0.435-0.598-0.706-1.081-0.816c-0.045-0.01-0.088-0.029-0.132-0.044c1.001,0,2.003,0,3.005,0c0,6.933,0,13.867,0,20.8
		C434.837,194.841,433.836,194.841,432.834,194.841z"/>
	<path display="none" fill="#FFFFFF" d="M432.643,175.629c0,0.12,0,0.201,0,0.281c0,5.687,0,11.374,0,17.061
		c0,0.28,0,0.28-0.287,0.28c-4.611,0-9.221,0-13.832,0c-0.086,0-0.172,0-0.276,0c-0.004-0.096-0.01-0.168-0.01-0.24
		c0-5.714,0.001-11.428-0.005-17.143c0-0.199,0.059-0.244,0.251-0.244c4.638,0.005,9.275,0.004,13.913,0.004
		C432.47,175.629,432.543,175.629,432.643,175.629z M425.459,178.05c-1.008,0-2.016-0.001-3.024,0.001
		c-0.121,0-0.245,0.004-0.363,0.026c-0.455,0.085-0.735,0.602-0.565,1.033c0.141,0.356,0.419,0.527,0.87,0.527
		c2.037,0.001,4.073,0,6.11,0c0.041,0,0.081,0.002,0.122-0.001c0.642-0.048,0.998-0.608,0.724-1.156
		c-0.163-0.327-0.458-0.432-0.809-0.431C427.503,178.053,426.481,178.05,425.459,178.05z M423.464,187.651
		c-0.92,0-1.841-0.004-2.761,0.001c-0.53,0.003-0.872,0.358-0.838,0.851c0.03,0.432,0.365,0.726,0.843,0.728
		c0.988,0.003,1.976,0.001,2.964,0.001c0.832,0,1.665,0.003,2.497-0.001c0.52-0.003,0.862-0.34,0.851-0.823
		c-0.01-0.428-0.351-0.752-0.816-0.755C425.291,187.647,424.378,187.651,423.464,187.651z M423.454,182.852
		c-0.203,0-0.406,0-0.609,0c-0.711,0-1.421-0.003-2.132,0.001c-0.393,0.002-0.68,0.182-0.794,0.484
		c-0.209,0.55,0.153,1.079,0.759,1.096c0.392,0.011,0.785,0.002,1.177,0.002c1.428,0,2.856,0.002,4.284-0.001
		c0.502-0.001,0.865-0.308,0.883-0.735c0.021-0.491-0.313-0.841-0.827-0.845C425.281,182.848,424.368,182.853,423.454,182.852z
		 M423.471,185.251c-0.866,0-1.732,0-2.599,0c-0.101,0-0.204-0.003-0.304,0.009c-0.474,0.059-0.766,0.445-0.699,0.917
		c0.057,0.394,0.399,0.655,0.872,0.655c1.617,0.001,3.235,0.001,4.852,0c0.203,0,0.406,0.006,0.609-0.002
		c0.479-0.018,0.817-0.342,0.818-0.777c0.001-0.47-0.332-0.799-0.829-0.802C425.285,185.248,424.378,185.252,423.471,185.251z
		 M429.872,182.836c0,0.009-0.001,0.018-0.001,0.027c-0.175,0-0.353-0.016-0.526,0.003c-0.385,0.044-0.677,0.363-0.689,0.728
		c-0.013,0.405,0.24,0.761,0.64,0.807c0.351,0.04,0.714,0.036,1.067,0c0.372-0.038,0.637-0.344,0.661-0.683
		c0.026-0.378-0.184-0.717-0.551-0.821C430.282,182.842,430.073,182.854,429.872,182.836z M429.866,185.233
		c-0.001,0.007-0.001,0.014-0.002,0.021c-0.148,0-0.298-0.009-0.445,0.002c-0.438,0.031-0.762,0.36-0.763,0.766
		c-0.001,0.439,0.316,0.782,0.765,0.807c0.269,0.015,0.54,0.014,0.81,0.001c0.424-0.021,0.737-0.298,0.788-0.679
		c0.051-0.371-0.162-0.738-0.535-0.85C430.29,185.242,430.073,185.254,429.866,185.233z M429.873,187.632
		c-0.001,0.008-0.001,0.015-0.002,0.023c-0.155,0-0.311-0.011-0.465,0.002c-0.439,0.037-0.753,0.368-0.749,0.778
		c0.004,0.423,0.309,0.763,0.737,0.79c0.289,0.018,0.581,0.019,0.87,0.001c0.405-0.025,0.698-0.298,0.754-0.667
		c0.056-0.368-0.156-0.741-0.526-0.855C430.297,187.643,430.08,187.653,429.873,187.632z"/>
	<path d="M256.462,99.317c25.051,0.001,50.101,0.06,75.151-0.031c8.605-0.031,15.82,2.556,19.827,10.572
		c6.711,13.424-2.017,27.156-17.76,28.338c-0.99,0.074-1.99,0.028-2.985,0.028c-49.935,0.001-99.87,0.011-149.806-0.007
		c-11.06-0.004-17.897-4.189-21.342-12.916c-4.166-10.553,2.694-23.237,13.845-25.323c2.91-0.545,5.938-0.629,8.913-0.635
		C207.024,99.295,231.743,99.316,256.462,99.317z"/>
	<path d="M207.534,334.717c22.401,0.002,44.803-0.091,67.203,0.041c11.39,0.067,19.768,8.015,20.006,18.503
		c0.269,11.841-8.137,20.118-20.876,20.19c-20.409,0.115-40.82,0.033-61.23,0.034c-24.226,0-48.453,0.054-72.679-0.026
		c-11.709-0.039-19.931-7.26-20.67-17.841c-0.845-12.081,7.553-20.79,20.544-20.866C162.399,334.62,184.967,334.715,207.534,334.717
		z"/>
	<path d="M207.293,217.056c22.4,0.006,44.801-0.111,67.2,0.051c12.594,0.092,20.784,8.685,20.28,20.714
		c-0.439,10.483-9.337,18.011-21.652,18.032c-35.011,0.059-70.022,0.022-105.032,0.021c-9.624,0-19.254,0.212-28.87-0.059
		c-14.86-0.419-23.716-13.383-18.6-26.868c2.806-7.395,9.835-11.813,19.473-11.866c17.422-0.097,34.845-0.03,52.267-0.031
		C197.337,217.051,202.315,217.051,207.293,217.056z"/>
	<path d="M207.719,275.88c22.235,0.004,44.471-0.091,66.706,0.042c12.203,0.073,20.361,8.152,20.338,19.669
		c-0.022,10.66-8.312,18.606-20.06,19.04c-4.971,0.183-9.955,0.04-14.933,0.04c-39.659,0.001-79.317,0.019-118.976-0.012
		c-11.589-0.009-19.991-6.391-21.379-16.062c-1.661-11.57,5.501-21.039,17.129-22.486c2.457-0.306,4.969-0.224,7.455-0.226
		C165.24,275.869,186.479,275.876,207.719,275.88z"/>
	<path d="M364.662,216.651c4.921,0.445,10.05,0.158,14.717,1.492c9.002,2.574,14.151,10.883,13.503,20.142
		c-0.582,8.312-7.077,15.828-16.206,16.754c-8.643,0.878-17.533,0.985-26.151-0.001c-9.798-1.121-16.013-9.843-15.687-19.776
		c0.294-8.954,7.47-16.778,16.9-17.856c4.244-0.485,8.589-0.082,12.888-0.082C364.638,217.099,364.65,216.875,364.662,216.651z"/>
	<path d="M364.506,275.436c5.077,0.5,10.389,0.223,15.182,1.667c9.125,2.748,14.348,11.756,13.108,20.841
		c-1.273,9.329-8.939,16.13-19.332,16.638c-6.604,0.323-13.254,0.338-19.854-0.028c-11.023-0.612-18.783-9.009-18.761-19.78
		c0.02-9.953,7.95-18.011,18.696-18.771c3.623-0.256,7.278-0.041,10.919-0.041C364.478,275.786,364.492,275.611,364.506,275.436z"/>
	<path d="M364.681,334.246c5.074,0.528,10.387,0.278,15.169,1.751c9.08,2.797,14.266,11.945,12.899,20.963
		c-1.373,9.056-8.569,15.733-18.488,16.356c-7.087,0.445-14.247,0.428-21.335-0.017c-10.482-0.658-17.982-8.993-18.07-19.376
		c-0.085-10.046,7.598-18.149,18.366-19.065c3.778-0.321,7.607-0.051,11.412-0.051C364.65,334.621,364.665,334.434,364.681,334.246z
		"/>
</g>
<g display="none">
	<path fill="#FFFFFF" d="M266.435,266.441c-6.929,0-13.86,0-20.793,0c0-6.931,0-13.862,0-20.796c6.928,0,13.857,0,20.793,0
		C266.435,252.574,266.435,259.507,266.435,266.441z M264.584,249.463c-0.102,0.31-0.196,0.598-0.29,0.886
		c-1.091,3.327-2.207,6.645-3.459,9.915c-0.392,1.023-0.787,2.045-1.367,2.982c-0.468,0.757-1.052,1.349-1.993,1.483
		c-1.004,0.143-1.811-0.314-2.176-1.256c-0.212-0.546-0.288-1.114-0.267-1.691c0.009-0.243-0.08-0.333-0.289-0.417
		c-2.735-1.097-5.467-2.203-8.199-3.307c-0.193-0.078-0.386-0.154-0.617-0.247c-0.051,0.421-0.122,0.813-0.142,1.208
		c-0.05,0.996,0.165,1.921,0.795,2.722c0.439,0.558,1.019,0.908,1.661,1.194c2.179,0.973,4.347,1.97,6.522,2.952
		c0.754,0.34,1.532,0.527,2.378,0.477c1.447-0.085,2.574-0.696,3.405-1.876c0.581-0.824,1.007-1.729,1.376-2.661
		c1.644-4.149,3.04-8.386,4.411-12.63c0.191-0.591-0.076-1.021-0.701-1.145c-3.845-0.766-7.691-1.529-11.536-2.292
		c-0.574-0.114-0.898,0.072-1.099,0.623c-1.007,2.762-2.013,5.524-3.02,8.286c-0.248,0.679-0.502,1.356-0.744,2.038
		c-0.233,0.656,0.211,1.24,0.855,1.128c0.371-0.065,0.546-0.333,0.666-0.664c1.137-3.132,2.279-6.262,3.42-9.392
		c0.043-0.119,0.09-0.236,0.138-0.36C257.743,248.101,261.155,248.781,264.584,249.463z M259.206,259.329
		c-0.006-0.372-0.218-0.64-0.626-0.775c-1.097-0.363-2.194-0.725-3.293-1.08c-0.137-0.044-0.294-0.066-0.436-0.052
		c-0.372,0.037-0.639,0.311-0.684,0.666c-0.049,0.381,0.161,0.733,0.554,0.864c1.14,0.382,2.281,0.761,3.428,1.123
		C258.702,260.25,259.215,259.873,259.206,259.329z M260.509,256.092c-0.01-0.376-0.219-0.637-0.629-0.772
		c-1.09-0.359-2.182-0.716-3.273-1.071c-0.096-0.031-0.196-0.054-0.296-0.066c-0.328-0.04-0.689,0.193-0.794,0.507
		c-0.159,0.478,0.068,0.89,0.593,1.063c1.078,0.355,2.156,0.707,3.234,1.059c0.09,0.029,0.182,0.054,0.275,0.068
		C260.099,256.952,260.522,256.575,260.509,256.092z M260.925,253.393c0.527,0.052,0.872-0.182,0.969-0.526
		c0.13-0.467-0.098-0.868-0.592-1.009c-0.649-0.186-1.302-0.361-1.954-0.536c-0.535-0.144-1.068-0.295-1.608-0.415
		c-0.286-0.064-0.535,0.065-0.707,0.3c-0.353,0.481-0.124,1.084,0.476,1.254c0.663,0.188,1.329,0.364,1.993,0.546
		C260.03,253.149,260.557,253.293,260.925,253.393z M253.954,253.459c-0.431-0.016-0.791,0.326-0.805,0.763
		c-0.014,0.458,0.35,0.807,0.863,0.828c0.442,0.018,0.805-0.316,0.829-0.764C254.866,253.836,254.482,253.478,253.954,253.459z
		 M252.746,258.115c0.46,0.011,0.81-0.315,0.819-0.764c0.009-0.45-0.362-0.806-0.851-0.818c-0.469-0.011-0.84,0.314-0.841,0.767
		C251.872,257.768,252.24,258.122,252.746,258.115z M255.271,251.731c0.462,0.006,0.809-0.321,0.815-0.769
		c0.007-0.462-0.361-0.804-0.874-0.812c-0.457-0.007-0.806,0.319-0.821,0.768C254.376,251.364,254.767,251.725,255.271,251.731z"/>
	<path display="inline" d="M465.97,93.267c-84.706-16.861-169.006-33.64-253.761-50.51c-1.185,3.079-2.351,5.974-3.419,8.905
		c-28.181,77.336-56.382,154.664-84.483,232.03c-2.971,8.179-7.297,14.799-16.457,16.394c-15.91,2.77-26.88-11.654-21.134-27.857
		c5.971-16.836,12.253-33.561,18.372-50.345c24.876-68.234,49.743-136.472,74.611-204.71c4.957-13.603,12.953-18.198,27.146-15.381
		c95.003,18.854,190.004,37.718,284.996,56.63c15.439,3.074,22.028,13.676,17.31,28.285
		c-33.867,104.864-68.353,209.519-108.961,312.025c-9.115,23.01-19.643,45.368-33.995,65.732
		c-20.538,29.141-48.387,44.238-84.127,46.339c-20.91,1.229-40.123-3.383-58.748-11.787
		c-53.737-24.247-107.299-48.884-161.13-72.918c-15.853-7.078-30.17-15.725-41.023-29.507C5.59,376.807,0.284,353.945,1.521,329.348
		c0.49-9.752,2.249-19.441,3.513-29.839c5.708,2.281,10.482,4.171,15.243,6.094c67.503,27.266,134.982,54.592,202.551,81.693
		c5.156,2.068,7.352,4.292,7.132,10.297c-0.522,14.26,1.373,28.304,6.602,41.785c9.031,23.283,28.975,34.556,53.766,31.03
		c23.26-3.308,37.685-17.944,49.245-36.638c14.315-23.148,24.093-48.407,33.768-73.674c30.936-80.789,58.514-162.754,85.459-244.938
		C461.134,108.043,463.463,100.925,465.97,93.267z"/>
	<path display="inline" d="M333.095,336.999c0.222,13.436-12.452,22.749-26.137,18.425c-28.323-8.949-56.522-18.298-84.686-27.739
		c-9.695-3.25-14.896-11.936-13.681-21.353c1.133-8.774,7.725-15.525,16.91-16.451c3.527-0.355,7.383,0.192,10.78,1.287
		c27.161,8.755,54.259,17.704,81.351,26.672C327.717,321.179,332.943,327.798,333.095,336.999z"/>
	<path display="inline" d="M365.305,257.025c0.321,11.937-10.146,21.261-21.965,19.473c-2.297-0.348-4.577-0.963-6.79-1.685
		c-26.645-8.693-53.286-17.398-79.906-26.166c-12.972-4.272-18.593-14.452-14.654-26.263c2.581-7.74,11.501-13.507,19.607-12.515
		c2.468,0.302,4.945,0.857,7.31,1.627c26.967,8.78,53.922,17.595,80.86,26.464C359.903,241.298,365.055,247.731,365.305,257.025z"/>
	<path display="inline" d="M375.561,190.354c-9.079-2.475-22.102-6.022-35.123-9.575c-16.419-4.48-32.87-8.848-49.246-13.482
		c-14.84-4.199-20.49-19.076-11.767-30.97c4.25-5.795,10.382-8.981,17.455-7.406c13.34,2.972,26.511,6.713,39.718,10.262
		c16.114,4.33,32.231,8.656,48.273,13.239c12.203,3.487,17.836,13.382,14.616,24.926
		C397.113,185.864,388.593,191.633,375.561,190.354z"/>
	<path display="inline" d="M203.353,191.982c13.052,0.48,22.521,9.306,21.927,20.436c-0.59,11.058-9.554,19.318-20.476,18.868
		c-12.689-0.523-21.677-9.144-21.331-20.461C183.803,200.038,192.715,191.591,203.353,191.982z"/>
	<path display="inline" d="M173.503,306.994c-12.48,0.196-21.577-8.555-21.554-20.115c0.022-11.199,9.18-19.228,20.77-18.956
		c12.073,0.283,21.245,9.098,21.023,20.204C193.521,299.203,184.876,307.261,173.503,306.994z"/>
	<path display="inline" d="M235.883,149.3c-12.452-0.168-22.089-9.08-21.726-20.09c0.366-11.084,8.988-19.148,20.282-18.969
		c12.668,0.201,21.751,8.64,21.586,20.058C255.864,141.376,247.3,149.454,235.883,149.3z"/>
</g>
</svg>
