<?xml version="1.0" encoding="utf-8"?>
<!-- Generator: Adobe Illustrator 17.0.0, SVG Export Plug-In . SVG Version: 6.00 Build 0)  -->
<!DOCTYPE svg PUBLIC "-//W3C//DTD SVG 1.1//EN" "http://www.w3.org/Graphics/SVG/1.1/DTD/svg11.dtd">
<svg version="1.1" id="Layer_1" xmlns="http://www.w3.org/2000/svg" xmlns:xlink="http://www.w3.org/1999/xlink" x="0px" y="0px"
	 width="512px" height="512px" viewBox="0 0 512 512" enable-background="new 0 0 512 512" xml:space="preserve">
<g>
	<line fill="none" stroke="#B35047" x1="32" y1="0" x2="32" y2="512"/>
	<line fill="none" stroke="#B35047" x1="64" y1="0" x2="64" y2="512"/>
	<line fill="none" stroke="#B35047" x1="96" y1="0" x2="96" y2="512"/>
	<line fill="none" stroke="#B35047" x1="128" y1="0" x2="128" y2="512"/>
	<line fill="none" stroke="#B35047" x1="160" y1="0" x2="160" y2="512"/>
	<line fill="none" stroke="#B35047" x1="192" y1="0" x2="192" y2="512"/>
	<line fill="none" stroke="#B35047" x1="224" y1="0" x2="224" y2="512"/>
	<line fill="none" stroke="#B35047" x1="256" y1="0" x2="256" y2="512"/>
	<line fill="none" stroke="#B35047" x1="288" y1="0" x2="288" y2="512"/>
	<line fill="none" stroke="#B35047" x1="320" y1="0" x2="320" y2="512"/>
	<line fill="none" stroke="#B35047" x1="352" y1="0" x2="352" y2="512"/>
	<line fill="none" stroke="#B35047" x1="384" y1="0" x2="384" y2="512"/>
	<line fill="none" stroke="#B35047" x1="416" y1="0" x2="416" y2="512"/>
	<line fill="none" stroke="#B35047" x1="448" y1="0" x2="448" y2="512"/>
	<line fill="none" stroke="#B35047" x1="480" y1="0" x2="480" y2="512"/>
	<line fill="none" stroke="#B35047" x1="0" y1="32" x2="512" y2="32"/>
	<line fill="none" stroke="#B35047" x1="0" y1="64" x2="512" y2="64"/>
	<line fill="none" stroke="#B35047" x1="0" y1="96" x2="512" y2="96"/>
	<line fill="none" stroke="#B35047" x1="0" y1="128" x2="512" y2="128"/>
	<line fill="none" stroke="#B35047" x1="0" y1="160" x2="512" y2="160"/>
	<line fill="none" stroke="#B35047" x1="0" y1="192" x2="512" y2="192"/>
	<line fill="none" stroke="#B35047" x1="0" y1="224" x2="512" y2="224"/>
	<line fill="none" stroke="#B35047" x1="0" y1="256" x2="512" y2="256"/>
	<line fill="none" stroke="#B35047" x1="0" y1="288" x2="512" y2="288"/>
	<line fill="none" stroke="#B35047" x1="0" y1="320" x2="512" y2="320"/>
	<line fill="none" stroke="#B35047" x1="0" y1="352" x2="512" y2="352"/>
	<line fill="none" stroke="#B35047" x1="0" y1="384" x2="512" y2="384"/>
	<line fill="none" stroke="#B35047" x1="0" y1="416" x2="512" y2="416"/>
	<line fill="none" stroke="#B35047" x1="0" y1="448" x2="512" y2="448"/>
	<line fill="none" stroke="#B35047" x1="0" y1="480" x2="512" y2="480"/>
	<rect x="0" fill="none" stroke="#B35047" width="512" height="512"/>
</g>
<image display="none" overflow="visible" width="512" height="512" xlink:href="../../../Knowledge/Icon/[+++++] (Full) Windows 8 Icons [icons8]/Printed_Matter/book/book-512.png"  transform="matrix(0.0406 0 0 0.0406 601 57)">
</image>
<image display="none" overflow="visible" width="512" height="512" xlink:href="../../../Knowledge/Icon/[+++++] (Full) Windows 8 Icons [icons8]/Printed_Matter/newspaper/newspaper-512.png"  transform="matrix(0.0406 0 0 0.0406 601 57)">
</image>
<image display="none" overflow="visible" width="512" height="512" xlink:href="../../../Knowledge/Icon/[+++++] (Full) Windows 8 Icons [icons8]/Printed_Matter/magazine/magazine-512.png"  transform="matrix(0.0406 0 0 0.0406 601 57)">
</image>
<image display="none" overflow="visible" width="512" height="512" xlink:href="../../../Knowledge/Icon/[+++++] (Full) Windows 8 Icons [icons8]/Printed_Matter/book_stack/book_stack-512.png"  transform="matrix(0.0406 0 0 0.0406 601 57)">
</image>
<g>
	<path display="none" fill="#FFFFFF" d="M612.334,77.841c-3.764,0-7.527,0-11.292,0c0-6.931,0-13.861,0-20.796
		c6.928,0,13.857,0,20.792,0c0,6.929,0,13.863,0,20.796c-3.11,0-6.223,0-9.337,0c0.086-0.014,0.172-0.026,0.257-0.041
		c0.272-0.048,0.547-0.083,0.814-0.149c0.496-0.124,0.907-0.417,1.307-0.718c1.628-1.224,3.245-2.461,4.878-3.679
		c0.351-0.262,0.488-0.573,0.487-1.002c-0.009-3.303-0.004-6.606-0.006-9.909c0-0.115-0.006-0.23-0.02-0.344
		c-0.039-0.312-0.218-0.517-0.504-0.629c-0.328-0.128-0.604-0.009-0.865,0.191c-1.425,1.089-2.848,2.179-4.279,3.26
		c-0.577,0.436-1.155,0.875-1.836,1.146c-0.456,0.182-0.92,0.316-1.42,0.266c-0.329-0.033-0.577-0.196-0.634-0.452
		c-0.074-0.338-0.052-0.665,0.215-0.925c0.14-0.136,0.286-0.271,0.445-0.382c1.065-0.743,2.135-1.48,3.204-2.218
		c0.053-0.037,0.11-0.069,0.164-0.102c0.294,0.406,0.619,0.547,0.969,0.431c0.383-0.127,0.558-0.412,0.559-0.907
		c0-0.305,0.009-0.61-0.004-0.914c-0.006-0.145-0.027-0.303-0.091-0.429c-0.24-0.477-0.749-0.581-1.221-0.256
		c-1.522,1.046-3.043,2.094-4.562,3.145c-0.144,0.1-0.28,0.214-0.41,0.332c-0.545,0.494-0.889,1.1-0.891,1.846
		c-0.01,3.344-0.005,6.688-0.004,10.031c0,0.412,0.128,0.786,0.376,1.115c0.468,0.619,1.118,0.948,1.851,1.125
		C611.622,77.755,611.981,77.786,612.334,77.841z M608.289,59.292c0.024,0.033,0.049,0.057,0.063,0.087
		c0.16,0.328,0.564,0.468,0.856,0.398c0.351-0.084,0.59-0.347,0.614-0.738c0.023-0.391,0.034-0.787,0.004-1.177
		c-0.053-0.708-0.687-1.011-1.292-0.628c-1.566,0.991-3.13,1.987-4.693,2.983c-0.492,0.313-0.821,0.755-1.018,1.302
		c-0.169,0.467-0.183,0.947-0.182,1.438c0.009,3.074,0.014,6.148-0.001,9.221c-0.004,0.903,0.392,1.533,1.178,1.918
		c1.18,0.578,2.418,0.638,3.679,0.32c0.533-0.134,0.728-0.416,0.728-0.971c0-2.431-0.002-4.861,0.002-7.292
		c0.001-0.365,0.014-0.731,0.047-1.094c0.093-1.027,0.485-1.887,1.379-2.476c1.232-0.812,2.454-1.637,3.679-2.459
		c0.106-0.071,0.209-0.151,0.298-0.243c0.295-0.305,0.266-0.893-0.051-1.175c-0.311-0.276-0.681-0.285-1.079-0.022
		c-1.474,0.972-2.943,1.953-4.425,2.913c-0.669,0.434-1.353,0.846-2.049,1.235c-0.384,0.215-0.811,0.342-1.265,0.311
		c-0.28-0.019-0.413-0.133-0.485-0.405c-0.123-0.467,0.071-0.964,0.491-1.231c1.131-0.718,2.263-1.433,3.396-2.149
		C608.2,59.335,608.243,59.316,608.289,59.292z"/>
	<path d="M277.954,511c-8.669-1.349-17.478-2.113-25.977-4.167c-17.988-4.346-33.964-12.426-45.443-27.625
		c-6.096-8.072-9.223-17.263-9.228-27.366c-0.038-82.09-0.147-164.181,0.095-246.27c0.054-18.292,8.487-33.172,21.877-45.308
		c3.194-2.895,6.528-5.692,10.069-8.141c37.292-25.79,74.614-51.537,111.988-77.209c11.608-7.974,24.096-5.415,29.985,6.284
		c1.567,3.114,2.068,6.984,2.224,10.543c0.327,7.464,0.105,14.951,0.1,22.429c-0.009,12.162-4.311,19.14-13.715,22.269
		c-8.589,2.857-16.563-0.607-23.788-10.578c-1.325,0.818-2.723,1.598-4.034,2.504c-26.236,18.127-52.497,36.217-78.65,54.463
		c-3.921,2.736-7.495,6.04-10.931,9.387c-6.539,6.372-7.096,14.409-5.268,22.7c1.387,6.293,7.479,10.284,15.561,11.093
		c12.267,1.229,23.666-2.073,34.855-6.531c16.719-6.661,30.909-17.444,45.075-28.139c35.132-26.526,70.081-53.294,105.06-80.023
		c6.414-4.902,13.17-7.831,21.233-4.691c7.04,2.742,11.434,7.79,12.38,15.443c0.345,2.792,0.502,5.626,0.503,8.441
		c0.026,81.093-0.074,162.187,0.136,243.279c0.027,10.521-3.327,18.165-11.952,24.593c-40.088,29.88-79.807,60.256-119.766,90.31
		c-9.819,7.385-19.912,14.579-32.092,17.629c-6.559,1.642-13.318,2.487-19.991,3.67c-2.099,0.372-4.21,0.676-6.315,1.01
		C280.614,511,279.284,511,277.954,511z M432.825,212.346c-1.652,1.067-2.362,1.453-2.992,1.942
		c-30.952,24.01-61.92,47.999-92.77,72.139c-1.398,1.094-2.387,3.533-2.441,5.379c-0.254,8.626-0.114,17.264-0.114,25.898
		c0,3.03,0,6.059,0,9.117c1.051-0.102,1.249-0.06,1.353-0.14c31.634-24.477,63.27-48.951,94.845-73.502
		c1.025-0.797,2.014-2.389,2.029-3.622C432.885,237.475,432.825,225.392,432.825,212.346z"/>
	<path d="M178.644,55.629c-1.14,0.591-2.197,1.044-3.158,1.651c-27.797,17.571-55.607,35.123-83.362,52.76
		c-10.315,6.555-15.069,18.746-12.049,30.222c1.758,6.678,5.046,9.486,11.908,9.951c11.148,0.756,21.629-2.369,31.05-7.636
		c17.081-9.549,33.883-19.667,50.302-30.317c36.372-23.591,72.432-47.663,108.628-71.527c9.774-6.444,18.859-6.236,26.5,0.546
		c7.793,6.917,8.505,21.361,1.253,28.851c-2.174,2.245-4.706,4.215-7.309,5.961c-30.069,20.177-60.084,40.436-90.318,60.363
		c-21.945,14.464-31.576,35.577-33.846,60.785c-0.803,8.919-1.141,17.908-1.156,26.866c-0.098,59.671-0.048,119.342-0.053,179.013
		c-0.001,13.614-4.777,20.535-17.866,23.835c-30.948,7.802-61.344,6.333-90.316-7.868c-19.294-9.457-29.019-24.914-28.912-47.095
		c0.365-75.46,0.244-150.923,0.032-226.383c-0.034-12.05,0.317-23.848,4.47-35.311c4.859-13.411,12.925-24.265,25.004-31.958
		c38.384-24.448,76.761-48.906,115.217-73.24c14.857-9.401,30.421-1.951,31.717,15.419c0.715,9.578,0.467,19.285-0.109,28.888
		c-0.576,9.599-6.443,16.059-15.072,18.122c-7.163,1.712-17.083-1.71-21.009-9.773C179.838,57.033,179.237,56.433,178.644,55.629z"
		/>
	<path display="none" fill="#FFFFFF" d="M618.643,65.676c0,0.531,0.002,1.024-0.004,1.516c-0.001,0.05-0.041,0.115-0.083,0.148
		c-1.286,1-2.575,1.997-3.863,2.994c-0.004,0.003-0.012,0.002-0.055,0.006c0-0.125,0-0.248,0-0.371c0-0.352-0.006-0.704,0.005-1.055
		c0.002-0.075,0.043-0.175,0.099-0.219c1.257-0.983,2.518-1.96,3.779-2.938C618.547,65.735,618.575,65.719,618.643,65.676z"/>
</g>
</svg>
