<?xml version="1.0" encoding="utf-8"?>
<!-- Generator: Adobe Illustrator 17.0.0, SVG Export Plug-In . SVG Version: 6.00 Build 0)  -->
<!DOCTYPE svg PUBLIC "-//W3C//DTD SVG 1.1//EN" "http://www.w3.org/Graphics/SVG/1.1/DTD/svg11.dtd">
<svg version="1.1" id="Layer_1" xmlns="http://www.w3.org/2000/svg" xmlns:xlink="http://www.w3.org/1999/xlink" x="0px" y="0px"
	 width="512px" height="512px" viewBox="0 0 512 512" enable-background="new 0 0 512 512" xml:space="preserve">
<g>
	<line fill="none" stroke="#B35047" x1="32" y1="0" x2="32" y2="512"/>
	<line fill="none" stroke="#B35047" x1="64" y1="0" x2="64" y2="512"/>
	<line fill="none" stroke="#B35047" x1="96" y1="0" x2="96" y2="512"/>
	<line fill="none" stroke="#B35047" x1="128" y1="0" x2="128" y2="512"/>
	<line fill="none" stroke="#B35047" x1="160" y1="0" x2="160" y2="512"/>
	<line fill="none" stroke="#B35047" x1="192" y1="0" x2="192" y2="512"/>
	<line fill="none" stroke="#B35047" x1="224" y1="0" x2="224" y2="512"/>
	<line fill="none" stroke="#B35047" x1="256" y1="0" x2="256" y2="512"/>
	<line fill="none" stroke="#B35047" x1="288" y1="0" x2="288" y2="512"/>
	<line fill="none" stroke="#B35047" x1="320" y1="0" x2="320" y2="512"/>
	<line fill="none" stroke="#B35047" x1="352" y1="0" x2="352" y2="512"/>
	<line fill="none" stroke="#B35047" x1="384" y1="0" x2="384" y2="512"/>
	<line fill="none" stroke="#B35047" x1="416" y1="0" x2="416" y2="512"/>
	<line fill="none" stroke="#B35047" x1="448" y1="0" x2="448" y2="512"/>
	<line fill="none" stroke="#B35047" x1="480" y1="0" x2="480" y2="512"/>
	<line fill="none" stroke="#B35047" x1="0" y1="32" x2="512" y2="32"/>
	<line fill="none" stroke="#B35047" x1="0" y1="64" x2="512" y2="64"/>
	<line fill="none" stroke="#B35047" x1="0" y1="96" x2="512" y2="96"/>
	<line fill="none" stroke="#B35047" x1="0" y1="128" x2="512" y2="128"/>
	<line fill="none" stroke="#B35047" x1="0" y1="160" x2="512" y2="160"/>
	<line fill="none" stroke="#B35047" x1="0" y1="192" x2="512" y2="192"/>
	<line fill="none" stroke="#B35047" x1="0" y1="224" x2="512" y2="224"/>
	<line fill="none" stroke="#B35047" x1="0" y1="256" x2="512" y2="256"/>
	<line fill="none" stroke="#B35047" x1="0" y1="288" x2="512" y2="288"/>
	<line fill="none" stroke="#B35047" x1="0" y1="320" x2="512" y2="320"/>
	<line fill="none" stroke="#B35047" x1="0" y1="352" x2="512" y2="352"/>
	<line fill="none" stroke="#B35047" x1="0" y1="384" x2="512" y2="384"/>
	<line fill="none" stroke="#B35047" x1="0" y1="416" x2="512" y2="416"/>
	<line fill="none" stroke="#B35047" x1="0" y1="448" x2="512" y2="448"/>
	<line fill="none" stroke="#B35047" x1="0" y1="480" x2="512" y2="480"/>
	<rect x="0" fill="none" stroke="#B35047" width="512" height="512"/>
</g>
<image display="none" overflow="visible" width="512" height="512" xlink:href="../../../Knowledge/Icon/[+++++] (Full) Windows 8 Icons [icons8]/Printed_Matter/book/book-512.png"  transform="matrix(0.0406 0 0 0.0406 601 57)">
</image>
<image display="none" overflow="visible" width="512" height="512" xlink:href="../../../Knowledge/Icon/[+++++] (Full) Windows 8 Icons [icons8]/Printed_Matter/newspaper/newspaper-512.png"  transform="matrix(0.0406 0 0 0.0406 601 57)">
</image>
<image display="none" overflow="visible" width="512" height="512" xlink:href="../../../Knowledge/Icon/[+++++] (Full) Windows 8 Icons [icons8]/Printed_Matter/magazine/magazine-512.png"  transform="matrix(0.0406 0 0 0.0406 601 57)">
</image>
<g>
	<path d="M310.196,511c-2.001,0-4.001,0-6.002,0c-2.674-0.834-5.353-1.652-8.021-2.506
		c-76.539-24.501-153.044-49.109-229.642-73.425c-16.228-5.151-28.39-15.161-35.889-29.872
		c-14.215-27.885-15.34-56.161,1.005-83.893c1.447-2.455,0.792-3.932-0.193-6.248c-3.369-7.916-7.444-15.822-8.987-24.151
		c-1.923-10.377-2.068-21.167-2.152-31.785c-0.186-23.553,7.135-44.365,23.244-62.021c22.807-24.998,45.281-50.299,67.896-75.471
		C145.1,84.181,178.815,46.796,212.328,9.23c6.464-7.245,13.635-9.632,23.16-7.454C312.87,19.468,390.3,36.948,467.716,54.49
		c2.597,0.588,5.213,1.095,7.804,1.706c17.168,4.041,22.002,18.475,10.631,31.908c-58.8,69.464-117.665,138.873-176.372,208.415
		c-6.68,7.913-14.222,9.94-23.978,6.968c-53.163-16.192-106.383-32.194-159.586-48.257c-13.221-3.992-26.418-8.064-39.679-11.92
		c-12.35-3.591-23.087,1.803-25.991,13.345c-2.966,11.786-1.896,23.479,2.493,34.81c1.844,4.76,5.177,7.813,10.26,9.363
		c73.528,22.424,147.045,44.883,220.479,67.612c5.062,1.567,7.545,0.595,10.705-3.326c47.38-58.785,94.897-117.46,142.511-176.056
		c2.777-3.417,3.638-6.594,3.078-10.881c-1.634-12.506,0.483-24.685,5.424-36.135c5.782-13.4,24.313-14.905,32.919-3.128
		c4.591,6.282,3.934,12.936,2.522,20.04c-1.15,5.787-3.187,12.567-1.277,17.543c3.584,9.336,1.879,17.259-1.053,26.026
		c-8.378,25.056-9.662,50.369,0.649,75.216c4.348,10.477,3.038,18.988-4.113,27.663c-52.902,64.178-105.647,128.486-158.332,192.842
		C322.196,503.879,317.343,508.836,310.196,511z M443.077,255.942c-1.598,1.924-3.064,3.651-4.489,5.411
		c-37.962,46.882-75.915,93.772-113.884,140.648c-8.075,9.969-14.994,12.04-27.247,8.281
		c-75.228-23.077-150.472-46.105-225.65-69.344c-4.744-1.466-6.847-0.234-8.793,3.875c-4.82,10.178-4.783,20.607-2.214,31.234
		c2.717,11.234,8.597,19.129,20.416,22.859c71.55,22.575,142.99,45.5,214.412,68.479c3.734,1.201,5.623,0.425,7.937-2.427
		c16.172-19.926,32.51-39.718,48.793-59.555c31.718-38.643,63.455-77.271,95.077-115.993c1.254-1.536,2.283-4.141,1.928-5.956
		C447.611,274.516,445.356,265.677,443.077,255.942z M328.843,132.081c8.886,0.079,14.269-1.733,18.369-6.46
		c4.147-4.782,8.271-9.591,12.228-14.529c3.444-4.299,2.567-8.058-2.356-10.518c-1.762-0.881-3.712-1.46-5.636-1.935
		c-20.022-4.946-40.053-9.858-60.089-14.748c-20.198-4.93-40.425-9.745-60.6-14.767c-10.723-2.669-19.745-0.804-26.524,8.588
		c-2.042,2.829-4.474,5.377-6.734,8.047c-7.356,8.691-6.05,12.806,5.009,15.757c0.482,0.129,0.967,0.246,1.452,0.365
		c32.481,7.913,64.957,15.844,97.445,23.728C311.413,128.036,321.448,130.339,328.843,132.081z"/>
	<path display="none" fill="#FFFFFF" d="M613.634,77.841c0.29-0.088,0.487-0.289,0.675-0.518c2.14-2.614,4.281-5.225,6.43-7.831
		c0.29-0.352,0.344-0.698,0.167-1.123c-0.419-1.009-0.367-2.037-0.026-3.055c0.119-0.356,0.188-0.678,0.043-1.057
		c-0.078-0.202,0.005-0.477,0.052-0.712c0.057-0.288,0.084-0.559-0.102-0.814c-0.349-0.478-1.102-0.417-1.337,0.127
		c-0.201,0.465-0.287,0.96-0.22,1.467c0.023,0.174-0.012,0.303-0.125,0.442c-1.934,2.38-3.863,4.762-5.787,7.15
		c-0.128,0.159-0.229,0.199-0.435,0.135c-2.982-0.923-5.968-1.835-8.954-2.746c-0.206-0.063-0.342-0.187-0.417-0.38
		c-0.178-0.46-0.222-0.935-0.101-1.414c0.118-0.469,0.554-0.688,1.056-0.542c0.538,0.157,1.074,0.322,1.611,0.484
		c2.161,0.652,4.322,1.302,6.481,1.96c0.396,0.121,0.703,0.038,0.974-0.283c2.384-2.824,4.775-5.643,7.162-8.464
		c0.462-0.545,0.265-1.132-0.432-1.296c-0.105-0.025-0.211-0.045-0.317-0.069c-3.144-0.712-6.288-1.422-9.431-2.141
		c-0.387-0.088-0.678,0.008-0.94,0.303c-1.361,1.526-2.73,3.044-4.096,4.564c-0.918,1.022-1.831,2.05-2.757,3.065
		c-0.654,0.717-0.951,1.562-0.944,2.519c0.003,0.431,0.009,0.869,0.087,1.291c0.063,0.338,0.228,0.659,0.365,0.981
		c0.04,0.094,0.067,0.154,0.008,0.254c-0.664,1.126-0.618,2.274-0.041,3.407c0.305,0.597,0.798,1.004,1.457,1.213
		c3.111,0.987,6.217,1.987,9.326,2.982c0.108,0.035,0.217,0.068,0.326,0.102c-4.116,0-8.231,0-12.349,0c0-6.931,0-13.861,0-20.796
		c6.927,0,13.856,0,20.792,0c0,6.929,0,13.863,0,20.796C619.104,77.841,616.369,77.841,613.634,77.841z"/>
	<path display="none" fill="#FFFFFF" d="M619.031,67.483c0.093,0.395,0.184,0.754,0.255,1.117c0.014,0.074-0.027,0.18-0.078,0.242
		c-1.284,1.572-2.573,3.141-3.861,4.71c-0.661,0.806-1.325,1.609-1.981,2.418c-0.094,0.116-0.171,0.147-0.322,0.099
		c-2.9-0.933-5.802-1.864-8.707-2.781c-0.48-0.151-0.719-0.472-0.829-0.928c-0.104-0.432-0.106-0.855,0.09-1.268
		c0.079-0.167,0.164-0.217,0.357-0.157c3.053,0.944,6.109,1.879,9.164,2.816c0.498,0.153,0.779,0.069,1.107-0.336
		c1.542-1.904,3.083-3.808,4.625-5.712C618.906,67.631,618.966,67.561,619.031,67.483z"/>
	<path display="none" fill="#FFFFFF" d="M614.392,62.453c-0.3-0.071-0.708-0.164-1.114-0.263c-1.319-0.32-2.638-0.642-3.957-0.964
		c-0.02-0.005-0.039-0.01-0.059-0.015c-0.449-0.12-0.502-0.287-0.203-0.64c0.092-0.108,0.191-0.212,0.273-0.327
		c0.275-0.381,0.642-0.457,1.077-0.349c0.819,0.204,1.641,0.399,2.461,0.6c0.814,0.199,1.627,0.398,2.44,0.599
		c0.078,0.019,0.157,0.043,0.229,0.079c0.2,0.1,0.236,0.253,0.096,0.427c-0.161,0.201-0.328,0.396-0.497,0.59
		C614.971,62.382,614.753,62.456,614.392,62.453z"/>
</g>
<g display="none">
	<path fill="#FFFFFF" d="M612.334,77.841c-3.764,0-7.527,0-11.292,0c0-6.931,0-13.861,0-20.796c6.928,0,13.857,0,20.792,0
		c0,6.929,0,13.863,0,20.796c-3.11,0-6.223,0-9.337,0c0.086-0.014,0.172-0.026,0.257-0.041c0.272-0.048,0.547-0.083,0.814-0.149
		c0.496-0.124,0.907-0.417,1.307-0.718c1.628-1.224,3.245-2.461,4.878-3.679c0.351-0.262,0.488-0.573,0.487-1.002
		c-0.009-3.303-0.004-6.606-0.006-9.909c0-0.115-0.006-0.23-0.02-0.344c-0.039-0.312-0.218-0.517-0.504-0.629
		c-0.328-0.128-0.604-0.009-0.865,0.191c-1.425,1.089-2.848,2.179-4.279,3.26c-0.577,0.436-1.155,0.875-1.836,1.146
		c-0.456,0.182-0.92,0.316-1.42,0.266c-0.329-0.033-0.577-0.196-0.634-0.452c-0.074-0.338-0.052-0.665,0.215-0.925
		c0.14-0.136,0.286-0.271,0.445-0.382c1.065-0.743,2.135-1.48,3.204-2.218c0.053-0.037,0.11-0.069,0.164-0.102
		c0.294,0.406,0.619,0.547,0.969,0.431c0.383-0.127,0.558-0.412,0.559-0.907c0-0.305,0.009-0.61-0.004-0.914
		c-0.006-0.145-0.027-0.303-0.091-0.429c-0.24-0.477-0.749-0.581-1.221-0.256c-1.522,1.046-3.043,2.094-4.562,3.145
		c-0.144,0.1-0.28,0.214-0.41,0.332c-0.545,0.494-0.889,1.1-0.891,1.846c-0.01,3.344-0.005,6.688-0.004,10.031
		c0,0.412,0.128,0.786,0.376,1.115c0.468,0.619,1.118,0.948,1.851,1.125C611.622,77.755,611.981,77.786,612.334,77.841z
		 M608.289,59.292c0.024,0.033,0.049,0.057,0.063,0.087c0.16,0.328,0.564,0.468,0.856,0.398c0.351-0.084,0.59-0.347,0.614-0.738
		c0.023-0.391,0.034-0.787,0.004-1.177c-0.053-0.708-0.687-1.011-1.292-0.628c-1.566,0.991-3.13,1.987-4.693,2.983
		c-0.492,0.313-0.821,0.755-1.018,1.302c-0.169,0.467-0.183,0.947-0.182,1.438c0.009,3.074,0.014,6.148-0.001,9.221
		c-0.004,0.903,0.392,1.533,1.178,1.918c1.18,0.578,2.418,0.638,3.679,0.32c0.533-0.134,0.728-0.416,0.728-0.971
		c0-2.431-0.002-4.861,0.002-7.292c0.001-0.365,0.014-0.731,0.047-1.094c0.093-1.027,0.485-1.887,1.379-2.476
		c1.232-0.812,2.454-1.637,3.679-2.459c0.106-0.071,0.209-0.151,0.298-0.243c0.295-0.305,0.266-0.893-0.051-1.175
		c-0.311-0.276-0.681-0.285-1.079-0.022c-1.474,0.972-2.943,1.953-4.425,2.913c-0.669,0.434-1.353,0.846-2.049,1.235
		c-0.384,0.215-0.811,0.342-1.265,0.311c-0.28-0.019-0.413-0.133-0.485-0.405c-0.123-0.467,0.071-0.964,0.491-1.231
		c1.131-0.718,2.263-1.433,3.396-2.149C608.2,59.335,608.243,59.316,608.289,59.292z"/>
	<path display="inline" d="M277.954,511c-8.669-1.349-17.478-2.113-25.977-4.167c-17.988-4.346-33.964-12.426-45.443-27.625
		c-6.096-8.072-9.223-17.263-9.228-27.366c-0.038-82.09-0.147-164.181,0.095-246.27c0.054-18.292,8.487-33.172,21.877-45.308
		c3.194-2.895,6.528-5.692,10.069-8.141c37.292-25.79,74.614-51.537,111.988-77.209c11.608-7.974,24.096-5.415,29.985,6.284
		c1.567,3.114,2.068,6.984,2.224,10.543c0.327,7.464,0.105,14.951,0.1,22.429c-0.009,12.162-4.311,19.14-13.715,22.269
		c-8.589,2.857-16.563-0.607-23.788-10.578c-1.325,0.818-2.723,1.598-4.034,2.504c-26.236,18.127-52.497,36.217-78.65,54.463
		c-3.921,2.736-7.495,6.04-10.931,9.387c-6.539,6.372-7.096,14.409-5.268,22.7c1.387,6.293,7.479,10.284,15.561,11.093
		c12.267,1.229,23.666-2.073,34.855-6.531c16.719-6.661,30.909-17.444,45.075-28.139c35.132-26.526,70.081-53.294,105.06-80.023
		c6.414-4.902,13.17-7.831,21.233-4.691c7.04,2.742,11.434,7.79,12.38,15.443c0.345,2.792,0.502,5.626,0.503,8.441
		c0.026,81.093-0.074,162.187,0.136,243.279c0.027,10.521-3.327,18.165-11.952,24.593c-40.088,29.88-79.807,60.256-119.766,90.31
		c-9.819,7.385-19.912,14.579-32.092,17.629c-6.559,1.642-13.318,2.487-19.991,3.67c-2.099,0.372-4.21,0.676-6.315,1.01
		C280.614,511,279.284,511,277.954,511z M432.825,212.346c-1.652,1.067-2.362,1.453-2.992,1.942
		c-30.952,24.01-61.92,47.999-92.77,72.139c-1.398,1.094-2.387,3.533-2.441,5.379c-0.254,8.626-0.114,17.264-0.114,25.898
		c0,3.03,0,6.059,0,9.117c1.051-0.102,1.249-0.06,1.353-0.14c31.634-24.477,63.27-48.951,94.845-73.502
		c1.025-0.797,2.014-2.389,2.029-3.622C432.885,237.475,432.825,225.392,432.825,212.346z"/>
	<path display="inline" d="M178.644,55.629c-1.14,0.591-2.197,1.044-3.158,1.651c-27.797,17.571-55.607,35.123-83.362,52.76
		c-10.315,6.555-15.069,18.746-12.049,30.222c1.758,6.678,5.046,9.486,11.908,9.951c11.148,0.756,21.629-2.369,31.05-7.636
		c17.081-9.549,33.883-19.667,50.302-30.317c36.372-23.591,72.432-47.663,108.628-71.527c9.774-6.444,18.859-6.236,26.5,0.546
		c7.793,6.917,8.505,21.361,1.253,28.851c-2.174,2.245-4.706,4.215-7.309,5.961c-30.069,20.177-60.084,40.436-90.318,60.363
		c-21.945,14.464-31.576,35.577-33.846,60.785c-0.803,8.919-1.141,17.908-1.156,26.866c-0.098,59.671-0.048,119.342-0.053,179.013
		c-0.001,13.614-4.777,20.535-17.866,23.835c-30.948,7.802-61.344,6.333-90.316-7.868c-19.294-9.457-29.019-24.914-28.912-47.095
		c0.365-75.46,0.244-150.923,0.032-226.383c-0.034-12.05,0.317-23.848,4.47-35.311c4.859-13.411,12.925-24.265,25.004-31.958
		c38.384-24.448,76.761-48.906,115.217-73.24c14.857-9.401,30.421-1.951,31.717,15.419c0.715,9.578,0.467,19.285-0.109,28.888
		c-0.576,9.599-6.443,16.059-15.072,18.122c-7.163,1.712-17.083-1.71-21.009-9.773C179.838,57.033,179.237,56.433,178.644,55.629z"
		/>
	<path fill="#FFFFFF" d="M618.643,65.676c0,0.531,0.002,1.024-0.004,1.516c-0.001,0.05-0.041,0.115-0.083,0.148
		c-1.286,1-2.575,1.997-3.863,2.994c-0.004,0.003-0.012,0.002-0.055,0.006c0-0.125,0-0.248,0-0.371c0-0.352-0.006-0.704,0.005-1.055
		c0.002-0.075,0.043-0.175,0.099-0.219c1.257-0.983,2.518-1.96,3.779-2.938C618.547,65.735,618.575,65.719,618.643,65.676z"/>
</g>
</svg>
