<?xml version="1.0" encoding="utf-8"?>
<!-- Generator: Adobe Illustrator 17.0.0, SVG Export Plug-In . SVG Version: 6.00 Build 0)  -->
<!DOCTYPE svg PUBLIC "-//W3C//DTD SVG 1.1//EN" "http://www.w3.org/Graphics/SVG/1.1/DTD/svg11.dtd">
<svg version="1.1" id="Layer_1" xmlns="http://www.w3.org/2000/svg" xmlns:xlink="http://www.w3.org/1999/xlink" x="0px" y="0px"
	 width="512px" height="512px" viewBox="0 0 512 512" enable-background="new 0 0 512 512" xml:space="preserve">
<g>
	<line fill="none" stroke="#B35047" x1="32" y1="0" x2="32" y2="512"/>
	<line fill="none" stroke="#B35047" x1="64" y1="0" x2="64" y2="512"/>
	<line fill="none" stroke="#B35047" x1="96" y1="0" x2="96" y2="512"/>
	<line fill="none" stroke="#B35047" x1="128" y1="0" x2="128" y2="512"/>
	<line fill="none" stroke="#B35047" x1="160" y1="0" x2="160" y2="512"/>
	<line fill="none" stroke="#B35047" x1="192" y1="0" x2="192" y2="512"/>
	<line fill="none" stroke="#B35047" x1="224" y1="0" x2="224" y2="512"/>
	<line fill="none" stroke="#B35047" x1="256" y1="0" x2="256" y2="512"/>
	<line fill="none" stroke="#B35047" x1="288" y1="0" x2="288" y2="512"/>
	<line fill="none" stroke="#B35047" x1="320" y1="0" x2="320" y2="512"/>
	<line fill="none" stroke="#B35047" x1="352" y1="0" x2="352" y2="512"/>
	<line fill="none" stroke="#B35047" x1="384" y1="0" x2="384" y2="512"/>
	<line fill="none" stroke="#B35047" x1="416" y1="0" x2="416" y2="512"/>
	<line fill="none" stroke="#B35047" x1="448" y1="0" x2="448" y2="512"/>
	<line fill="none" stroke="#B35047" x1="480" y1="0" x2="480" y2="512"/>
	<line fill="none" stroke="#B35047" x1="0" y1="32" x2="512" y2="32"/>
	<line fill="none" stroke="#B35047" x1="0" y1="64" x2="512" y2="64"/>
	<line fill="none" stroke="#B35047" x1="0" y1="96" x2="512" y2="96"/>
	<line fill="none" stroke="#B35047" x1="0" y1="128" x2="512" y2="128"/>
	<line fill="none" stroke="#B35047" x1="0" y1="160" x2="512" y2="160"/>
	<line fill="none" stroke="#B35047" x1="0" y1="192" x2="512" y2="192"/>
	<line fill="none" stroke="#B35047" x1="0" y1="224" x2="512" y2="224"/>
	<line fill="none" stroke="#B35047" x1="0" y1="256" x2="512" y2="256"/>
	<line fill="none" stroke="#B35047" x1="0" y1="288" x2="512" y2="288"/>
	<line fill="none" stroke="#B35047" x1="0" y1="320" x2="512" y2="320"/>
	<line fill="none" stroke="#B35047" x1="0" y1="352" x2="512" y2="352"/>
	<line fill="none" stroke="#B35047" x1="0" y1="384" x2="512" y2="384"/>
	<line fill="none" stroke="#B35047" x1="0" y1="416" x2="512" y2="416"/>
	<line fill="none" stroke="#B35047" x1="0" y1="448" x2="512" y2="448"/>
	<line fill="none" stroke="#B35047" x1="0" y1="480" x2="512" y2="480"/>
	<rect x="0" fill="none" stroke="#B35047" width="512" height="512"/>
</g>
<image display="none" overflow="visible" width="512" height="512" xlink:href="../../../Knowledge/Icon/[+++++] (Full) Windows 8 Icons [icons8]/Ecommerce/alarm_clock/alarm_clock-512.png"  transform="matrix(0.0406 0 0 0.0406 575 39)">
</image>
<image display="none" overflow="visible" width="512" height="512" xlink:href="../../../Knowledge/Icon/[+++++] (Full) Windows 8 Icons [icons8]/Ecommerce/new/new-512_.png"  transform="matrix(0.0406 0 0 0.0406 575 39)">
</image>
<image display="none" overflow="visible" width="512" height="512" xlink:href="../../../Knowledge/Icon/[+++++] (Full) Windows 8 Icons [icons8]/Ecommerce/qr_code/qr_code-512.png"  transform="matrix(0.0406 0 0 0.0406 575 39)">
</image>
<image display="none" overflow="visible" width="512" height="512" xlink:href="../../../Knowledge/Icon/[+++++] (Full) Windows 8 Icons [icons8]/Ecommerce/tag/tag-512.png"  transform="matrix(0.0406 0 0 0.0406 575 39)">
</image>
<image display="none" overflow="visible" width="512" height="512" xlink:href="../../../Knowledge/Icon/[+++++] (Full) Windows 8 Icons [icons8]/Ecommerce/shoping_basket/shoping_basket-512.png"  transform="matrix(0.0406 0 0 0.0406 575 39)">
</image>
<image display="none" overflow="visible" width="512" height="512" xlink:href="../../../Knowledge/Icon/[+++++] (Full) Windows 8 Icons [icons8]/Ecommerce/shoping_bag/shoping_bag-512.png"  transform="matrix(0.0406 0 0 0.0406 575 39)">
</image>
<image display="none" overflow="visible" width="512" height="512" xlink:href="../../../Knowledge/Icon/[+++++] (Full) Windows 8 Icons [icons8]/Ecommerce/sell/sell-512.png"  transform="matrix(0.0406 0 0 0.0406 575 39)">
</image>
<image display="none" overflow="visible" width="512" height="512" xlink:href="../../../Knowledge/Icon/[+++++] (Full) Windows 8 Icons [icons8]/Ecommerce/sale/sale-512.png"  transform="matrix(0.0406 0 0 0.0406 575 39)">
</image>
<image display="none" overflow="visible" width="512" height="512" xlink:href="../../../Knowledge/Icon/[+++++] (Full) Windows 8 Icons [icons8]/Ecommerce/price_tag/price_tag-512.png"  transform="matrix(0.0406 0 0 0.0406 575 39)">
</image>
<image display="none" overflow="visible" width="512" height="512" xlink:href="../../../Knowledge/Icon/[+++++] (Full) Windows 8 Icons [icons8]/Ecommerce/one_free/one_free-512.png"  transform="matrix(0.0406 0 0 0.0406 575 39)">
</image>
<image display="none" overflow="visible" width="512" height="512" xlink:href="../../../Knowledge/Icon/[+++++] (Full) Windows 8 Icons [icons8]/Ecommerce/idea/idea-512.png"  transform="matrix(0.0406 0 0 0.0406 575 39)">
</image>
<image display="none" overflow="visible" width="512" height="512" xlink:href="../../../Knowledge/Icon/[+++++] (Full) Windows 8 Icons [icons8]/Ecommerce/handshake/handshake-512.png"  transform="matrix(0.0406 0 0 0.0406 575 39)">
</image>
<image display="none" overflow="visible" width="512" height="512" xlink:href="../../../Knowledge/Icon/[+++++] (Full) Windows 8 Icons [icons8]/Ecommerce/gift/gift-512.png"  transform="matrix(0.0406 0 0 0.0406 575 39)">
</image>
<image display="none" overflow="visible" width="512" height="512" xlink:href="../../../Knowledge/Icon/[+++++] (Full) Windows 8 Icons [icons8]/Ecommerce/return/return-512.png"  transform="matrix(0.0406 0 0 0.0406 575 39)">
</image>
<image display="none" overflow="visible" width="512" height="512" xlink:href="../../../Knowledge/Icon/[+++++] (Full) Windows 8 Icons [icons8]/Ecommerce/buy/buy-512.png"  transform="matrix(0.0406 0 0 0.0406 575 39)">
</image>
<image display="none" overflow="visible" width="512" height="512" xlink:href="../../../Knowledge/Icon/[+++++] (Full) Windows 8 Icons [icons8]/Ecommerce/shoping_cart_filled/shoping_cart_filled-512.png"  transform="matrix(0.0406 0 0 0.0406 575 39)">
</image>
<image display="none" overflow="visible" width="512" height="512" xlink:href="../../../Knowledge/Icon/[+++++] (Full) Windows 8 Icons [icons8]/Ecommerce/shoping_cart/shoping_cart-512.png"  transform="matrix(0.0406 0 0 0.0406 575 39)">
</image>
<image display="none" overflow="visible" width="512" height="512" xlink:href="../../../Knowledge/Icon/[+++++] (Full) Windows 8 Icons [icons8]/Ecommerce/checkout/checkout-512.png"  transform="matrix(0.0406 0 0 0.0406 575 39)">
</image>
<image display="none" overflow="visible" width="512" height="512" xlink:href="../../../Knowledge/Icon/[+++++] (Full) Windows 8 Icons [icons8]/Ecommerce/free_shipping/free_shipping-512_.png"  transform="matrix(0.0406 0 0 0.0406 577 117)">
</image>
<image display="none" overflow="visible" width="512" height="512" xlink:href="../../../Knowledge/Icon/[+++++] (Full) Windows 8 Icons [icons8]/Ecommerce/box/box-512_.png"  transform="matrix(0.0406 0 0 0.0406 575 39)">
</image>
<image display="none" overflow="visible" width="512" height="512" xlink:href="../../../Knowledge/Icon/[+++++] (Full) Windows 8 Icons [icons8]/Ecommerce/box/box-512_.png"  transform="matrix(0.0406 0 0 0.0406 577 117)">
</image>
<g>
	<path d="M511,196.244c0,1.328,0,2.656,0,3.984c-2.164,7.43-7.345,12.672-12.661,17.924c-14.391,14.214-28.581,28.632-42.984,42.834
		c-2.446,2.412-3.377,4.849-3.36,8.264c0.131,26.859-0.045,53.72,0.145,80.579c0.056,7.871-2.39,14.41-7.295,20.495
		c-23.301,28.91-46.501,57.902-69.575,86.993c-4.74,5.976-9.422,11.792-16.672,14.845c-100.605,0-201.211,0-301.816,0
		c-2.512-1.19-5.191-2.121-7.504-3.618c-7.389-4.783-8.958-12.212-8.954-20.364c0.03-57.534,0.016-115.067,0.016-172.601
		c0-2.096,0-4.193,0-7.089c-3.026,1.422-5.155,2.682-7.45,3.445c-4.183,1.389-8.458,3.476-12.705,3.502
		C10.239,275.497,5.125,270.375,1,258.002c0-1.66,0-3.32,0-4.98c1.85-4.003,3.607-8.053,5.567-12.001
		c11.79-23.75,23.529-47.528,35.564-71.154c1.657-3.253,4.422-6.343,7.419-8.449c35.69-25.088,71.584-49.888,107.26-74.996
		c6.42-4.518,13.115-6.538,20.861-6.534c84.644,0.047,169.289-0.019,253.933-0.048c8.179-0.003,14.215,3.698,18.379,10.664
		c17.696,29.603,35.488,59.148,53.039,88.837C506.179,184.679,508.365,190.594,511,196.244z M79.682,433.213
		c2.208,0,4.151,0,6.094,0c80.812,0,161.623,0.001,242.435-0.002c6.357,0,6.364-0.011,6.364-6.589
		c0.002-74.174,0.002-148.348,0-222.523c0-6.553-0.008-6.567-6.406-6.568c-80.812-0.003-161.623-0.002-242.435-0.002
		c-1.937,0-3.875,0-6.051,0C79.682,276.358,79.682,354.451,79.682,433.213z M384.375,119.157c-2.288-0.131-3.866-0.299-5.444-0.299
		c-65.202-0.013-130.403-0.046-195.604,0.104c-2.906,0.007-6.235,1.067-8.642,2.704c-16.043,10.907-31.893,22.099-47.793,33.216
		c-1.228,0.858-2.368,1.842-4.145,3.234c1.555,0.209,2.045,0.333,2.534,0.333c72.336,0.011,144.671,0.035,217.006-0.098
		c2.005-0.004,4.462-1.221,5.939-2.662c11.281-11.006,22.374-22.203,33.509-33.357C382.512,121.552,383.153,120.636,384.375,119.157
		z"/>
	<path display="none" fill="#FFFFFF" d="M597.841,126.587c-0.107-0.23-0.197-0.472-0.325-0.689
		c-0.716-1.211-1.441-2.416-2.163-3.623c-0.17-0.284-0.416-0.435-0.75-0.435c-3.452,0.001-6.904,0.004-10.357,0.002
		c-0.316,0-0.589,0.082-0.851,0.266c-1.455,1.024-2.919,2.035-4.375,3.059c-0.122,0.086-0.235,0.212-0.303,0.345
		c-0.491,0.964-0.97,1.933-1.451,2.902c-0.08,0.161-0.152,0.326-0.227,0.489c0-3.952,0-7.905,0-11.86c6.933,0,13.867,0,20.8,0
		C597.841,120.226,597.841,123.407,597.841,126.587z"/>
	<path display="none" fill="#FFFFFF" d="M591.625,137.841c0.296-0.125,0.487-0.362,0.68-0.605c0.941-1.186,1.887-2.369,2.838-3.548
		c0.2-0.248,0.3-0.515,0.297-0.836c-0.008-1.095-0.001-2.191-0.006-3.286c-0.001-0.139,0.037-0.239,0.137-0.337
		c0.587-0.579,1.166-1.167,1.753-1.747c0.217-0.214,0.428-0.428,0.516-0.731c0,3.697,0,7.394,0,11.091
		C595.769,137.841,593.697,137.841,591.625,137.841z"/>
	<path display="none" fill="#FFFFFF" d="M577.041,129.106c0.168,0.505,0.377,0.714,0.782,0.711c0.173-0.001,0.348-0.086,0.518-0.143
		c0.094-0.031,0.18-0.082,0.304-0.14c0,0.118,0,0.204,0,0.289c0,2.346,0.001,4.693-0.001,7.039c0,0.332,0.064,0.635,0.365,0.831
		c0.094,0.061,0.204,0.099,0.306,0.148c-0.758,0-1.517,0-2.275,0C577.041,134.929,577.041,132.018,577.041,129.106z"/>
	<path display="none" fill="#FFFFFF" d="M580.25,136.252c0-3.212,0-6.397,0-9.612c0.089,0,0.168,0,0.247,0c3.296,0,6.592,0,9.888,0
		c0.261,0,0.261,0.001,0.261,0.268c0,3.025,0,6.05,0,9.075c0,0.268,0,0.269-0.26,0.269c-3.296,0-6.592,0-9.888,0
		C580.419,136.252,580.34,136.252,580.25,136.252z M585.408,129.028c0.669,0,1.339,0.008,2.008-0.003
		c0.473-0.008,0.804-0.335,0.803-0.763c-0.001-0.47-0.314-0.808-0.799-0.812c-1.312-0.011-2.623-0.01-3.935-0.001
		c-0.494,0.003-0.839,0.358-0.827,0.809c0.011,0.434,0.342,0.761,0.803,0.768C584.109,129.035,584.758,129.028,585.408,129.028z"/>
	<path display="none" fill="#FFFFFF" d="M592.676,123.444c-0.05,0.06-0.076,0.098-0.108,0.129c-0.454,0.455-0.907,0.912-1.367,1.36
		c-0.06,0.059-0.16,0.108-0.242,0.109c-2.95,0.005-5.9,0.004-8.85,0.004c-0.02,0-0.04-0.005-0.103-0.014
		c0.072-0.057,0.119-0.097,0.169-0.132c0.648-0.453,1.295-0.91,1.949-1.355c0.098-0.067,0.234-0.11,0.352-0.11
		c2.659-0.006,5.318-0.005,7.978-0.004C592.519,123.431,592.583,123.438,592.676,123.444z"/>
	<path d="M206.15,256.086c-15.915,0-31.831,0.165-47.743-0.055c-11.309-0.157-19.427-8.172-19.697-18.823
		c-0.281-11.056,8.163-19.751,20.285-19.836c32.159-0.226,64.322-0.237,96.481,0.021c11.882,0.095,19.553,8.386,19.587,19.915
		c0.031,10.501-8.087,18.528-19.678,18.712C238.977,256.28,222.562,256.086,206.15,256.086z"/>
</g>
<g display="none">
	<path display="inline" d="M1,257.457c0-1.66,0-3.32,0-4.98c1.558-3.407,3.024-6.861,4.689-10.215
		c12.085-24.341,24.125-48.704,36.427-72.935c1.586-3.124,4.151-6.157,7.012-8.166c36.778-25.839,73.664-51.524,110.626-77.098
		c2.758-1.908,6.253-3.611,9.498-3.798c11.568-0.667,23.243-1.51,34.752-0.633c12.138,0.925,22.051-1.364,29.024-11.977
		c0.53-0.807,1.41-1.399,2.174-2.035c7.178-5.986,17.452-6.216,24.666-0.2c4.277,3.566,8.138,7.632,12.466,11.739
		c11.547-9.852,23.406-19.945,35.236-30.073c10.996-9.413,21.42-8.93,31.493,1.572c8.845,9.221,17.544,18.587,26.556,27.641
		c1.637,1.645,4.468,2.937,6.762,2.961c19.413,0.202,38.83,0.151,58.245,0.003c8.574-0.066,14.976,3.371,19.363,10.71
		c17.694,29.599,35.485,59.14,53.034,88.824c3.157,5.34,5.343,11.254,7.977,16.903c0,1.328,0,2.656,0,3.984
		c-2.164,7.43-7.345,12.672-12.661,17.924c-14.391,14.214-28.581,28.632-42.984,42.834c-2.446,2.412-3.377,4.849-3.36,8.264
		c0.131,26.859-0.045,53.72,0.145,80.579c0.056,7.871-2.39,14.41-7.295,20.495c-23.301,28.91-46.501,57.902-69.575,86.993
		c-4.74,5.976-9.422,11.792-16.672,14.845c-100.605,0-201.211,0-301.816,0c-2.512-1.19-5.191-2.121-7.504-3.618
		c-7.389-4.783-8.958-12.212-8.954-20.364c0.03-57.534,0.016-115.067,0.016-172.601c0-2.096,0-4.193,0-7.089
		c-3.026,1.422-5.155,2.682-7.45,3.445c-4.183,1.389-8.458,3.476-12.705,3.502C10.239,274.953,5.125,269.831,1,257.457z
		 M79.686,432.668c2.421,0,4.221,0,6.021,0c80.81,0,161.62,0.001,242.429-0.001c6.43,0,6.438-0.01,6.438-6.515
		c0.002-74.173,0.001-148.345,0.001-222.518c0-1.949,0-3.898,0-6.245c-85.241,0-169.92,0-254.89,0
		C79.686,275.775,79.686,353.866,79.686,432.668z M321.37,86.476c-8.265,7.062-16.028,13.694-24.076,20.57
		c3.371,3.875,6.384,7.357,9.417,10.823c10.913,12.466,21.854,24.91,32.734,37.405c2.069,2.376,4.431,4.122,7.116,1.538
		c7.233-6.961,14.21-14.187,21.488-21.507C352.394,118.929,337.076,102.905,321.37,86.476z M289.85,157.683
		c-14.665-16.725-28.59-32.607-40.98-46.739c-16.522,15.6-32.7,30.876-49.5,46.739C229.785,157.683,259.217,157.683,289.85,157.683z
		 M182.849,120.229c-0.435-0.504-0.869-1.008-1.304-1.513c-3.848-0.129-52.076,32.176-57.828,38.742
		c11.917,1.57,23.353,1.984,31.021-9.981c1.753-2.735,4.509-4.852,6.907-7.145C168.685,133.602,175.777,126.927,182.849,120.229z"/>
	<path fill="#FFFFFF" d="M597.841,126.587c-0.107-0.23-0.197-0.472-0.325-0.689c-0.716-1.211-1.441-2.415-2.163-3.623
		c-0.179-0.299-0.44-0.439-0.79-0.437c-0.792,0.006-1.584,0.008-2.375,0c-0.094-0.001-0.209-0.054-0.276-0.121
		c-0.368-0.369-0.722-0.751-1.083-1.127c-0.411-0.428-0.836-0.448-1.284-0.064c-0.482,0.413-0.966,0.825-1.437,1.226
		c-0.177-0.168-0.334-0.333-0.508-0.479c-0.294-0.245-0.713-0.236-1.006,0.008c-0.031,0.026-0.067,0.05-0.089,0.083
		c-0.284,0.433-0.689,0.526-1.184,0.488c-0.469-0.036-0.946-0.001-1.417,0.026c-0.132,0.008-0.275,0.077-0.387,0.155
		c-1.508,1.043-3.012,2.091-4.512,3.144c-0.117,0.082-0.221,0.206-0.286,0.333c-0.502,0.988-0.993,1.982-1.486,2.975
		c-0.068,0.137-0.128,0.278-0.191,0.417c0-3.952,0-7.905,0-11.86c6.933,0,13.867,0,20.8,0
		C597.841,120.226,597.841,123.407,597.841,126.587z"/>
	<path fill="#FFFFFF" d="M591.625,137.841c0.296-0.125,0.487-0.362,0.68-0.605c0.941-1.186,1.887-2.369,2.838-3.548
		c0.2-0.248,0.3-0.515,0.297-0.836c-0.008-1.095-0.001-2.191-0.006-3.286c-0.001-0.139,0.037-0.239,0.137-0.337
		c0.587-0.579,1.166-1.167,1.753-1.747c0.217-0.214,0.428-0.428,0.516-0.731c0,3.697,0,7.394,0,11.091
		C595.769,137.841,593.697,137.841,591.625,137.841z"/>
	<path fill="#FFFFFF" d="M577.041,129.106c0.168,0.505,0.377,0.714,0.782,0.711c0.173-0.001,0.348-0.086,0.518-0.143
		c0.094-0.031,0.18-0.082,0.304-0.14c0,0.118,0,0.204,0,0.289c0,2.346,0.001,4.693-0.001,7.039c0,0.332,0.064,0.635,0.365,0.831
		c0.094,0.061,0.204,0.099,0.306,0.148c-0.758,0-1.517,0-2.275,0C577.041,134.929,577.041,132.018,577.041,129.106z"/>
	<path fill="#FFFFFF" d="M580.25,136.252c0-3.214,0-6.399,0-9.596c3.465,0,6.919,0,10.396,0c0,0.096,0,0.175,0,0.255
		c0,3.025,0,6.05,0,9.075c0,0.265,0,0.266-0.263,0.266c-3.296,0-6.591,0-9.887,0C580.422,136.252,580.349,136.252,580.25,136.252z
		 M585.409,129.028c0.669,0,1.339,0.008,2.008-0.003c0.473-0.008,0.803-0.335,0.801-0.764c-0.002-0.47-0.315-0.807-0.8-0.811
		c-1.312-0.01-2.623-0.01-3.935-0.001c-0.494,0.004-0.838,0.359-0.826,0.81c0.011,0.434,0.343,0.76,0.805,0.766
		C584.111,129.035,584.76,129.028,585.409,129.028z"/>
	<path fill="#FFFFFF" d="M590.107,122.133c0.641,0.67,1.265,1.324,1.904,1.991c-0.297,0.299-0.581,0.593-0.876,0.877
		c-0.109,0.105-0.206,0.034-0.29-0.063c-0.444-0.51-0.89-1.017-1.335-1.526c-0.124-0.141-0.247-0.283-0.384-0.441
		C589.453,122.691,589.77,122.421,590.107,122.133z"/>
	<path fill="#FFFFFF" d="M588.821,125.037c-1.249,0-2.45,0-3.69,0c0.685-0.647,1.345-1.27,2.019-1.906
		C587.655,123.707,588.223,124.355,588.821,125.037z"/>
	<path fill="#FFFFFF" d="M584.457,123.51c-0.288,0.273-0.578,0.545-0.865,0.82c-0.098,0.094-0.21,0.18-0.282,0.291
		c-0.313,0.488-0.779,0.471-1.265,0.407c0.235-0.268,2.202-1.585,2.358-1.58C584.422,123.468,584.439,123.489,584.457,123.51z"/>
	<path display="inline" d="M206.183,255.541c-15.915,0.001-31.831,0.164-47.743-0.053c-11.326-0.155-19.448-8.145-19.729-18.792
		c-0.292-11.067,8.131-19.778,20.252-19.865c32.159-0.232,64.322-0.237,96.481,0.016c11.888,0.093,19.573,8.364,19.618,19.885
		c0.041,10.517-8.055,18.554-19.645,18.741C239.009,255.737,222.594,255.539,206.183,255.541z"/>
</g>
</svg>
