<?xml version="1.0" encoding="utf-8"?>
<!-- Generator: Adobe Illustrator 17.0.0, SVG Export Plug-In . SVG Version: 6.00 Build 0)  -->
<!DOCTYPE svg PUBLIC "-//W3C//DTD SVG 1.1//EN" "http://www.w3.org/Graphics/SVG/1.1/DTD/svg11.dtd">
<svg version="1.1" id="Layer_1" xmlns="http://www.w3.org/2000/svg" xmlns:xlink="http://www.w3.org/1999/xlink" x="0px" y="0px"
	 width="512px" height="512px" viewBox="0 0 512 512" enable-background="new 0 0 512 512" xml:space="preserve">
<g>
	<line fill="none" stroke="#B35047" x1="32" y1="0" x2="32" y2="512"/>
	<line fill="none" stroke="#B35047" x1="64" y1="0" x2="64" y2="512"/>
	<line fill="none" stroke="#B35047" x1="96" y1="0" x2="96" y2="512"/>
	<line fill="none" stroke="#B35047" x1="128" y1="0" x2="128" y2="512"/>
	<line fill="none" stroke="#B35047" x1="160" y1="0" x2="160" y2="512"/>
	<line fill="none" stroke="#B35047" x1="192" y1="0" x2="192" y2="512"/>
	<line fill="none" stroke="#B35047" x1="224" y1="0" x2="224" y2="512"/>
	<line fill="none" stroke="#B35047" x1="256" y1="0" x2="256" y2="512"/>
	<line fill="none" stroke="#B35047" x1="288" y1="0" x2="288" y2="512"/>
	<line fill="none" stroke="#B35047" x1="320" y1="0" x2="320" y2="512"/>
	<line fill="none" stroke="#B35047" x1="352" y1="0" x2="352" y2="512"/>
	<line fill="none" stroke="#B35047" x1="384" y1="0" x2="384" y2="512"/>
	<line fill="none" stroke="#B35047" x1="416" y1="0" x2="416" y2="512"/>
	<line fill="none" stroke="#B35047" x1="448" y1="0" x2="448" y2="512"/>
	<line fill="none" stroke="#B35047" x1="480" y1="0" x2="480" y2="512"/>
	<line fill="none" stroke="#B35047" x1="0" y1="32" x2="512" y2="32"/>
	<line fill="none" stroke="#B35047" x1="0" y1="64" x2="512" y2="64"/>
	<line fill="none" stroke="#B35047" x1="0" y1="96" x2="512" y2="96"/>
	<line fill="none" stroke="#B35047" x1="0" y1="128" x2="512" y2="128"/>
	<line fill="none" stroke="#B35047" x1="0" y1="160" x2="512" y2="160"/>
	<line fill="none" stroke="#B35047" x1="0" y1="192" x2="512" y2="192"/>
	<line fill="none" stroke="#B35047" x1="0" y1="224" x2="512" y2="224"/>
	<line fill="none" stroke="#B35047" x1="0" y1="256" x2="512" y2="256"/>
	<line fill="none" stroke="#B35047" x1="0" y1="288" x2="512" y2="288"/>
	<line fill="none" stroke="#B35047" x1="0" y1="320" x2="512" y2="320"/>
	<line fill="none" stroke="#B35047" x1="0" y1="352" x2="512" y2="352"/>
	<line fill="none" stroke="#B35047" x1="0" y1="384" x2="512" y2="384"/>
	<line fill="none" stroke="#B35047" x1="0" y1="416" x2="512" y2="416"/>
	<line fill="none" stroke="#B35047" x1="0" y1="448" x2="512" y2="448"/>
	<line fill="none" stroke="#B35047" x1="0" y1="480" x2="512" y2="480"/>
	<rect x="0" fill="none" stroke="#B35047" width="512" height="512"/>
</g>
<g>
	<path d="M224.141,511c-6.309,0-12.617,0-18.926,0c-5.142-1.057-10.317-1.975-15.421-3.193
		c-23.459-5.599-42.396-17.452-54.29-39.177c-0.846-1.545-3.092-2.797-4.918-3.246c-5.609-1.378-11.407-2-16.994-3.446
		c-37.079-9.598-58.192-41.252-52.814-79.123c0.441-3.105-0.61-4.801-3.12-6.497c-8.89-6.004-16.546-13.409-22.253-22.494
		C15.229,321.71,16.768,289.319,34.921,257c1.637-2.915,1.856-5.044,0.613-8.152c-11.028-27.577-17.119-55.979-13.526-85.877
		c5.149-42.842,25.079-75.986,65.075-94.227c11.675-5.325,20.221-11.668,27.852-22.103C132.41,22.743,157.534,9.997,186.25,4.104
		c5.633-1.156,11.314-2.075,16.973-3.104c7.969,0,15.938,0,23.906,0c0.415,0.263,0.805,0.695,1.25,0.764
		c9.442,1.461,18.287,4.325,25.997,10.269c0.794,0.612,2.916,0.059,4.135-0.539c4.282-2.103,8.283-4.85,12.686-6.614
		C275.58,3.124,280.32,2.257,284.903,1c7.969,0,15.938,0,23.906,0c1.077,0.357,2.131,0.845,3.236,1.05
		c7.797,1.447,15.778,2.219,23.377,4.356c26.459,7.44,49.155,21.023,64.727,44.145c5.242,7.783,10.268,14.212,19.978,15.653
		c1.735,0.257,3.364,1.353,4.996,2.154c43.407,21.31,63.091,57.728,65.74,104.507c1.514,26.739-4.627,52.253-14.594,76.96
		c-0.71,1.759-0.314,4.41,0.483,6.25c2.688,6.21,6.273,12.059,8.651,18.371c14.241,37.803,1.699,78.894-31.048,101.847
		c-3.021,2.117-3.305,4.23-2.923,7.497c2.393,20.459-1.61,39.25-15.345,55.233c-12.227,14.228-28.292,21.805-46.36,24.787
		c-8.05,1.329-14.505,3.205-17.432,11.575c-0.575,1.643-2.067,2.984-3.203,4.41c-12.111,15.197-28.298,23.614-46.854,28.01
		c-5.106,1.21-10.279,2.137-15.422,3.193c-6.309,0-12.617,0-18.926,0c-6.95-2.363-14.035-4.401-20.798-7.215
		c-3.88-1.614-7.266-6.344-10.821-6.288c-3.793,0.06-7.305,4.634-11.329,6.295C238.171,506.587,231.091,508.637,224.141,511z
		 M337.551,456.048c-1.08-0.83-1.728-1.331-2.38-1.827c-22.004-16.74-29.591-39.551-27.291-66.192
		c0.785-9.096,8.866-15.286,18.833-15.82c8.4-0.45,17.014,5.511,18.988,13.727c1.075,4.474,1.376,9.166,1.703,13.782
		c1.004,14.179,9.56,25.346,21.866,26.482c12.946,1.195,25.005-2.244,35.155-10.781c4.762-4.005,7.405-9.518,7.923-15.582
		c0.447-5.233-0.136-10.576-0.526-15.85c-0.194-2.62-0.898-5.215-1.506-7.79c-2.914-12.344,0.65-20.488,11.98-26.269
		c9.493-4.843,17.824-10.932,23.212-20.336c7.924-13.83,7.637-28.122,2.46-43.445c-2.136,1.857-3.583,3.182-5.099,4.424
		c-22.867,18.735-48.327,29.188-78.557,25.197c-15.128-1.997-23.182-15.98-16.286-29.035c3.813-7.218,11.972-10.931,22.28-9.461
		c11.146,1.59,21.57-0.599,31.253-5.775c24.18-12.925,40.239-32.014,46.05-59.554c4.883-23.146,6.691-45.975-2.295-68.382
		c-9.446-23.556-26.128-39.276-51.657-43.961c-9.975-1.831-16.049-7.065-20.149-16.22c-2.855-6.375-6.696-12.76-11.557-17.706
		c-20.274-20.629-45.853-26.549-73.802-24.838c-4.785,0.293-8.256,2.871-9.068,7.743c-1.301,7.809-3.119,15.684-3.131,23.534
		c-0.195,126.16-0.138,252.32-0.138,378.481c0,0.83-0.015,1.66,0.006,2.49c0.247,10.157,7.217,18.106,17.295,18.09
		c8.018-0.013,16.157-1.111,24.014-2.792C324.927,466.711,332.016,463.017,337.551,456.048z M67.473,224.928
		c21.562-11.558,43.346-14.758,65.842-12.44c10.804,1.113,21.714,3.113,32.044,6.388c11.237,3.562,15.111,17.654,8.806,27.655
		c-4.975,7.891-13.208,10.791-23.987,7.957c-11.836-3.111-23.841-4.384-35.992-3.498c-16.505,1.204-30.723,7.037-41.616,20.319
		c-13.994,17.065-16.276,43.183-4.526,60.752c5.604,8.379,13.662,13.778,22.477,18.327c10.412,5.374,14.071,13.835,11.382,25.241
		c-0.759,3.22-1.661,6.438-2.043,9.71c-2.088,17.88,0.813,31.652,23.304,38.291c7.217,2.13,14.943,3.336,22.462,3.466
		c12.519,0.217,19.374,6.835,22.435,17.254c2.895,9.853,9.28,16.712,18.424,20.983c9.758,4.558,20.096,6.624,30.883,6.123
		c11.912-0.553,18.841-7.827,18.842-19.808c0.012-126.817,0.055-253.634-0.119-380.451c-0.01-7.196-1.348-14.501-2.954-21.553
		c-1.646-7.231-4.036-8.557-11.654-8.988c-12.351-0.698-24.561,0.303-36.345,4.102c-21.685,6.99-39.372,18.748-47.918,41.199
		c-3.136,8.237-9.912,12.052-18.269,13.485c-21.59,3.701-37.104,15.875-47.789,34.579c-10.286,18.005-12.363,37.668-10.15,57.769
		C62.211,202.662,65.154,213.34,67.473,224.928z"/>
	<path display="none" fill="#FFFFFF" d="M635.287,45.041c-0.231,0.042-0.462,0.079-0.692,0.127c-1.171,0.24-2.196,0.76-2.909,1.735
		c-0.311,0.426-0.66,0.684-1.136,0.901c-1.631,0.744-2.444,2.096-2.654,3.843c-0.147,1.219,0.102,2.378,0.552,3.502
		c0.051,0.127,0.042,0.214-0.025,0.332c-0.74,1.318-0.803,2.639,0.02,3.949c0.233,0.371,0.545,0.673,0.908,0.917
		c0.102,0.069,0.145,0.138,0.127,0.265c-0.219,1.545,0.642,2.836,2.154,3.227c0.228,0.059,0.464,0.084,0.693,0.141
		c0.074,0.018,0.166,0.069,0.201,0.132c0.485,0.886,1.257,1.369,2.214,1.598c0.208,0.05,0.419,0.087,0.629,0.13
		c-2.776,0-5.552,0-8.328,0c0-6.933,0-13.867,0-20.8C629.79,45.041,632.539,45.041,635.287,45.041z"/>
	<path display="none" fill="#FFFFFF" d="M639.512,65.841c0.21-0.043,0.421-0.081,0.629-0.13c0.757-0.179,1.417-0.523,1.911-1.142
		c0.046-0.058,0.107-0.113,0.131-0.18c0.119-0.341,0.383-0.418,0.711-0.472c0.737-0.122,1.392-0.431,1.891-1.011
		c0.56-0.652,0.723-1.418,0.626-2.253c-0.016-0.133-0.004-0.219,0.119-0.306c1.336-0.936,1.847-2.612,1.266-4.154
		c-0.097-0.257-0.243-0.496-0.353-0.749c-0.032-0.075-0.049-0.183-0.02-0.255c0.407-1.008,0.657-2.048,0.595-3.139
		c-0.108-1.908-0.911-3.393-2.681-4.262c-0.067-0.033-0.133-0.077-0.204-0.088c-0.396-0.059-0.601-0.321-0.815-0.638
		c-0.635-0.943-1.561-1.497-2.64-1.8c-0.31-0.087-0.635-0.119-0.953-0.178c-0.045-0.008-0.088-0.028-0.132-0.043
		c2.747,0,5.495,0,8.245,0c0,6.933,0,13.867,0,20.8C645.062,65.841,642.287,65.841,639.512,65.841z"/>
	<path display="none" fill="#FFFFFF" d="M636.141,65.841c0.283-0.096,0.572-0.18,0.848-0.294c0.164-0.068,0.307-0.254,0.462-0.257
		c0.145-0.002,0.283,0.191,0.441,0.256c0.276,0.115,0.565,0.198,0.848,0.294C637.874,65.841,637.007,65.841,636.141,65.841z"/>
	<path display="none" fill="#FFFFFF" d="M638.619,45.041c-0.187,0.051-0.38,0.087-0.559,0.158c-0.18,0.072-0.343,0.184-0.517,0.27
		c-0.05,0.024-0.136,0.047-0.169,0.022c-0.314-0.242-0.675-0.359-1.06-0.419c-0.018-0.003-0.034-0.02-0.051-0.031
		C637.048,45.041,637.833,45.041,638.619,45.041z"/>
	<path display="none" fill="#FFFFFF" d="M640.766,63.599c-0.226,0.284-0.515,0.435-0.833,0.503c-0.32,0.069-0.652,0.113-0.979,0.114
		c-0.411,0.001-0.695-0.324-0.705-0.738c-0.001-0.034,0-0.068,0-0.102c0-5.145-0.002-10.291,0.006-15.436
		c0-0.32,0.075-0.641,0.128-0.96c0.033-0.199,0.175-0.304,0.37-0.316c1.14-0.07,2.183,0.172,3.01,1.013
		c0.198,0.202,0.355,0.462,0.471,0.722c0.167,0.373,0.415,0.587,0.822,0.662c1.041,0.191,1.722,0.832,2.107,1.793
		c0.366,0.914,0.293,1.845,0.094,2.789c-0.237,1.123-0.892,1.902-1.878,2.429c-0.395,0.211-0.82,0.3-1.275,0.236
		c-0.42-0.06-0.753,0.091-0.909,0.386c-0.281,0.532,0.047,1.103,0.664,1.184c1.233,0.163,2.271-0.264,3.204-1.028
		c0.062-0.051,0.121-0.105,0.208-0.18c0.211,0.625,0.223,1.208-0.1,1.772c-0.22,0.384-0.56,0.632-0.947,0.829
		c-0.462,0.236-0.607,0.568-0.489,1.071c0.025,0.105,0.054,0.211,0.061,0.318c0.016,0.215,0.04,0.433,0.021,0.646
		c-0.021,0.247-0.129,0.472-0.323,0.636c-0.414,0.348-0.906,0.488-1.434,0.44c-0.502-0.046-0.851-0.502-0.892-1.08
		c-0.013-0.188-0.026-0.38-0.069-0.562c-0.081-0.335-0.432-0.578-0.774-0.56c-0.407,0.022-0.736,0.274-0.768,0.645
		c-0.094,1.087,0.216,2.017,1.113,2.7C640.695,63.545,640.722,63.566,640.766,63.599z M643.358,53.842
		c0.24-0.034,0.484-0.053,0.72-0.107c0.263-0.06,0.433-0.246,0.507-0.503c0.171-0.592-0.274-1.084-0.912-1.017
		c-1,0.104-1.685-0.307-2.054-1.244c-0.089-0.225-0.148-0.462-0.229-0.691c-0.154-0.435-0.519-0.633-0.958-0.525
		c-0.388,0.095-0.644,0.479-0.555,0.906c0.069,0.335,0.176,0.666,0.303,0.985C640.721,53.006,641.924,53.823,643.358,53.842z"/>
	<path display="none" fill="#FFFFFF" d="M629.751,54.173c-0.095-0.473-0.215-0.908-0.263-1.351c-0.09-0.82-0.006-1.622,0.414-2.356
		c0.436-0.763,1.069-1.259,1.949-1.41c0.341-0.058,0.617-0.214,0.745-0.55c0.349-0.916,1.07-1.395,1.954-1.68
		c0.481-0.155,0.979-0.196,1.482-0.167c0.311,0.018,0.408,0.072,0.475,0.367c0.065,0.288,0.12,0.586,0.12,0.879
		c0.007,5.172,0.005,10.344,0.005,15.516c0,0.489-0.283,0.785-0.768,0.808c-0.44,0.02-0.862-0.064-1.26-0.25
		c-0.373-0.174-0.633-0.454-0.751-0.856c-0.125-0.425-0.404-0.695-0.915-0.704c-0.307-0.005-0.622-0.054-0.916-0.141
		c-0.917-0.271-1.036-0.832-0.95-1.562c0.016-0.133,0.052-0.265,0.083-0.396c0.11-0.465-0.04-0.81-0.464-1.029
		c-0.359-0.186-0.688-0.406-0.917-0.747c-0.479-0.717-0.386-1.782,0.185-2.478c0.444-0.542,1.024-0.78,1.697-0.829
		c0.496-0.036,0.985,0.016,1.468,0.143c0.44,0.116,0.775-0.003,0.978-0.325c0.257-0.408,0.099-0.983-0.359-1.128
		c-0.421-0.134-0.866-0.215-1.307-0.261C631.519,53.571,630.63,53.702,629.751,54.173z M634.244,61.819
		c0.495-0.011,0.837-0.405,0.784-0.926c-0.12-1.196-0.574-2.23-1.511-3.018c-0.434-0.365-0.924-0.637-1.472-0.787
		c-0.329-0.09-0.616,0.003-0.827,0.281c-0.199,0.263-0.212,0.549-0.07,0.838c0.117,0.241,0.341,0.351,0.58,0.443
		c0.773,0.295,1.305,0.83,1.554,1.622c0.086,0.275,0.127,0.565,0.176,0.85C633.533,61.549,633.842,61.828,634.244,61.819z
		 M632.813,52.197c0.168-0.017,0.336-0.032,0.503-0.053c1.19-0.144,2.193-1.03,2.476-2.183c0.125-0.51-0.142-0.938-0.641-1.029
		c-0.401-0.073-0.758,0.184-0.905,0.66c-0.162,0.526-0.512,0.849-1.047,0.961c-0.184,0.038-0.375,0.04-0.564,0.054
		c-0.624,0.048-0.971,0.647-0.671,1.182C632.147,52.114,632.455,52.214,632.813,52.197z"/>
	<path d="M401.098,216.805c-35.144-0.475-64.651-20.503-77.97-53.849c-3.117-7.803-5.732-15.928-7.432-24.143
		c-2.164-10.451,4.106-19.865,13.616-22.205c10.75-2.645,19.717,2.209,23.488,12.871c1.984,5.611,3.446,11.418,5.625,16.947
		c9.048,22.965,25.845,33.05,50.374,30.494c15.663-1.632,26.565,10.423,22.373,24.947c-1.814,6.286-5.975,10.842-12.43,12.324
		C412.964,215.517,406.987,215.968,401.098,216.805z"/>
	<path d="M177.647,412.401c-9.874,0.212-17.431-6.63-19.251-17.092c-1.217-6.993-2.209-14.108-4.327-20.846
		c-6.105-19.423-19.145-32.554-38.108-39.776c-5.866-2.234-11.341-4.947-14.219-10.85c-3.459-7.097-3.162-14.102,1.729-20.547
		c5.18-6.825,12.221-9.108,20.279-6.89c13.431,3.697,25.439,10.347,36.087,19.307c22.959,19.32,34.094,44.658,37.044,73.987
		C198.167,402.475,189.785,412.141,177.647,412.401z"/>
	<path d="M142.558,176.466c-8.795,0.412-16.339-2.041-20.803-9.998c-7.361-13.12,1.144-27.808,16.451-28.985
		c4.618-0.355,9.318-0.39,13.822-1.329c13.122-2.735,21.689-10.65,25.667-23.552c3.603-11.686,12.352-17.981,22.178-16.189
		c12.233,2.23,18.779,12.741,15.72,25.24c-6.919,28.268-31.535,49.988-60.7,53.522C150.79,175.673,146.67,176.039,142.558,176.466z"
		/>
</g>
<g display="none">
	<path fill="#FFFFFF" d="M627.041,56.944c0-1.016,0-2.031,0-3.047c0.079,0.407,0.329,0.634,0.722,0.754
		c3.367,1.03,6.732,2.066,10.096,3.105c0.301,0.093,0.577,0.072,0.862-0.061c1.176-0.55,2.355-1.093,3.535-1.634
		c0.879-0.402,1.775-0.769,2.639-1.201c0.986-0.493,1.696-1.246,1.95-2.358c0.19-0.833,0.182-1.681,0.16-2.526
		c-0.012-0.452-0.249-0.683-0.703-0.795c-2.349-0.581-4.698-1.16-7.047-1.739c-1.017-0.251-2.034-0.501-3.051-0.752
		c-0.668-0.165-1.087,0.141-1.13,0.823c-0.019,0.31-0.041,0.621-0.064,0.931c-0.078,1.033-0.577,1.761-1.545,2.166
		c-1.889,0.791-3.772,1.596-5.663,2.384c-0.362,0.151-0.657,0.34-0.76,0.742c0-2.896,0-5.793,0-8.692c6.928,0,13.857,0,20.8,0
		c0,3.708,0,7.419,0,11.129c-0.071-0.15-0.115-0.324-0.219-0.446c-0.265-0.31-0.61-0.345-1.052-0.144
		c-2.732,1.242-5.463,2.482-8.193,3.728c-0.132,0.06-0.246,0.072-0.385,0.029c-2.562-0.792-5.125-1.581-7.689-2.37
		c-0.704-0.217-1.408-0.431-2.111-0.65c-0.309-0.096-0.615-0.104-0.855,0.132C627.205,56.581,627.137,56.777,627.041,56.944z"/>
	<path fill="#FFFFFF" d="M647.841,59.544c0,2.099,0,4.198,0,6.297c-6.933,0-13.867,0-20.8,0c0-1.842,0-3.683,0-5.525
		c0.094,0.435,0.392,0.636,0.8,0.761c3.342,1.02,6.68,2.049,10.019,3.079c0.293,0.09,0.565,0.075,0.846-0.053
		c2.793-1.273,5.586-2.544,8.383-3.808C647.441,60.135,647.74,59.945,647.841,59.544z"/>
	<path display="inline" d="M1,214.444c2.538-9.841,9.771-14.487,18.643-18.184c46.355-19.315,92.527-39.066,138.853-58.45
		c23.732-9.93,35.977-27.76,37.885-53.099c0.573-7.606,1.104-15.215,1.58-22.827c1.046-16.708,11.33-24.209,27.701-20.172
		c24.938,6.15,49.88,12.286,74.818,18.436c57.599,14.205,115.2,28.4,172.792,42.635c11.119,2.748,16.941,8.403,17.227,19.49
		c0.534,20.712,0.729,41.508-3.924,61.927c-6.218,27.284-23.629,45.739-47.807,57.823c-21.182,10.586-43.154,19.584-64.7,29.451
		c-28.937,13.251-57.837,26.584-86.669,40.062c-6.988,3.267-13.763,3.778-21.146,1.499
		c-82.488-25.465-164.994-50.873-247.548-76.121C9.07,233.966,2.929,228.397,1,218.428C1,217.1,1,215.772,1,214.444z
		 M77.902,214.037c2.354,0.837,3.708,1.375,5.096,1.803c62.371,19.209,124.734,38.444,187.159,57.476
		c2.502,0.763,5.917,0.322,8.358-0.776c37.171-16.728,74.256-33.647,111.348-50.55c10.4-4.74,20.911-9.272,31.101-14.432
		c16.168-8.188,27.284-20.472,29.138-39.311c0.811-8.243,0.757-16.573,1.618-24.808c0.512-4.896-1.444-6.497-5.903-7.586
		c-68.556-16.735-137.071-33.637-205.6-50.48c-1.371-0.337-2.802-0.428-4.53-0.681c-0.294,2.314-0.546,4.101-0.745,5.894
		c-4.221,38.044-22.947,65.843-58.249,81.571c-18.914,8.426-38.108,16.225-57.179,24.298
		C105.963,202.189,92.407,207.909,77.902,214.037z"/>
	<path display="inline" d="M511,356.885c-2.476,9.835-9.791,14.49-18.463,18.408c-68.579,30.98-137.071,62.151-205.544,93.364
		c-6.87,3.132-13.556,3.515-20.734,1.301c-81.858-25.249-163.717-50.494-245.65-75.496C10.616,391.412,3.311,386.479,1,375.811
		c0-1.66,0-3.32,0-4.98c1.024-2.2,1.842-4.527,3.108-6.577c5.525-8.945,13.857-11.432,25.695-7.789
		c79.967,24.608,159.923,49.252,239.937,73.707c2.661,0.813,6.266,0.545,8.816-0.596c31.169-13.935,62.222-28.129,93.306-42.254
		c36.365-16.525,72.741-33.026,109.087-49.592c6.349-2.894,12.61-3.779,19.109-0.532c6.534,3.264,9.298,9.073,10.941,15.703
		C511,354.229,511,355.557,511,356.885z"/>
	<path display="inline" d="M1,293.135c2.37-4.083,4.027-8.886,7.265-12.091c5.87-5.808,13.372-5.611,20.954-3.248
		c17.237,5.372,34.509,10.629,51.764,15.942c62.846,19.349,125.697,38.681,188.518,58.11c3.399,1.051,6.207,0.772,9.443-0.704
		c66.935-30.533,133.92-60.955,200.895-91.398c10.843-4.928,19.301-4.073,25.789,3.528c2.555,2.993,3.625,7.252,5.372,10.935
		c0,1.328,0,2.656,0,3.984c-2.245,8.68-7.932,13.911-16.017,17.565c-69.172,31.259-138.278,62.664-207.336,94.176
		c-7.372,3.364-14.418,3.725-22.095,1.355c-81.684-25.22-163.381-50.395-245.147-75.348C10.377,312.882,3.157,307.846,1,297.119
		C1,295.791,1,294.463,1,293.135z"/>
	<path fill="#FFFFFF" d="M627.041,57.106c0.088,0.437,0.382,0.643,0.791,0.768c3.335,1.018,6.667,2.044,9.998,3.073
		c0.313,0.097,0.6,0.082,0.901-0.055c2.816-1.285,5.635-2.566,8.456-3.841c0.33-0.149,0.562-0.362,0.653-0.716
		c0,1.016,0,2.031,0,3.047c-0.067-0.27-0.18-0.507-0.446-0.64c-0.265-0.132-0.52-0.096-0.779,0.022
		c-1.482,0.676-2.966,1.349-4.449,2.023c-1.268,0.576-2.534,1.155-3.805,1.723c-0.104,0.046-0.251,0.057-0.36,0.024
		c-3.263-0.997-6.524-2.002-9.786-3.006c-0.483-0.149-0.823-0.047-1.048,0.318c-0.052,0.084-0.085,0.179-0.127,0.268
		C627.041,59.11,627.041,58.108,627.041,57.106z"/>
	<path fill="#FFFFFF" d="M630.177,53.718c0.592-0.25,1.144-0.483,1.697-0.717c0.778-0.329,1.561-0.647,2.332-0.991
		c1.44-0.641,2.204-1.775,2.376-3.327c0.008-0.073,0.018-0.146,0.03-0.24c0.07,0.01,0.129,0.014,0.185,0.028
		c2.795,0.687,5.589,1.376,8.385,2.059c0.182,0.044,0.262,0.11,0.241,0.309c-0.035,0.336-0.033,0.676-0.066,1.012
		c-0.076,0.768-0.529,1.269-1.188,1.603c-0.416,0.21-0.844,0.395-1.268,0.589c-1.513,0.689-3.025,1.379-4.541,2.062
		c-0.1,0.045-0.239,0.063-0.341,0.032c-2.546-0.776-5.089-1.561-7.633-2.344C630.328,53.774,630.273,53.752,630.177,53.718z"/>
</g>
<g display="none">
	<path fill="#FFFFFF" d="M647.841,65.84c-6.931,0-13.863,0-20.797,0c0-6.929,0-13.859,0-20.794c6.93,0,13.864,0,20.797,0
		C647.841,51.976,647.841,58.908,647.841,65.84z M647.739,50.839c-0.013-0.152-0.025-0.409-0.06-0.663
		c-0.364-2.678-2.477-4.746-5.15-4.999c-1.694-0.161-3.22,0.304-4.463,1.479c-1.367,1.292-2.682,2.641-4.014,3.97
		c-1.707,1.702-3.415,3.402-5.108,5.117c-0.34,0.344-0.65,0.729-0.91,1.137c-0.752,1.179-1.001,2.48-0.818,3.861
		c0.118,0.891,0.433,1.714,0.948,2.451c0.953,1.363,2.251,2.199,3.897,2.463c1.099,0.176,2.167,0.038,3.193-0.401
		c0.731-0.313,1.36-0.774,1.919-1.335c2.621-2.626,5.242-5.251,7.863-7.877c0.316-0.316,0.632-0.631,0.948-0.948
		C647.126,53.945,647.715,52.564,647.739,50.839z"/>
	<path display="inline" d="M510.989,142.08c-0.594,42.737-15.191,76.975-43.5,105.4c-7.813,7.845-15.66,15.656-23.482,23.492
		c-64.945,65.057-129.891,130.114-194.83,195.178c-13.865,13.892-29.438,25.333-47.561,33.08
		c-25.414,10.864-51.883,14.295-79.114,9.929c-40.791-6.541-72.951-27.247-96.567-61.022
		c-12.764-18.255-20.568-38.663-23.498-60.735c-4.543-34.221,1.648-66.452,20.271-95.665c6.435-10.094,14.134-19.645,22.548-28.169
		c41.95-42.504,84.281-84.634,126.574-126.797c33.024-32.922,65.593-66.334,99.469-98.359
		C302.096,9.297,339.925-2.219,381.891,1.763c66.25,6.286,118.594,57.516,127.618,123.877
		C510.365,131.939,510.659,138.314,510.989,142.08z M350.113,308.943c0.933-0.768,1.61-1.237,2.184-1.811
		c29.66-29.649,59.399-59.219,88.929-88.998c17.636-17.784,27.917-39.34,29.925-64.299c2.526-31.388-6.836-59.108-28.926-81.741
		c-24.29-24.887-54.164-34.963-88.704-30.765c-24.627,2.994-45.026,14.384-62.311,31.874c-31.94,32.318-63.876,64.642-95.94,96.837
		c-37.761,37.914-75.865,75.489-113.413,113.612c-20.668,20.984-33.677,46.153-37.042,75.76c-1.059,9.321,0.087,18.452,3.896,27.811
		c63.501-63.501,126.46-126.461,189.898-189.899C275.873,234.628,312.923,271.715,350.113,308.943z"/>
	<path fill="#FFFFFF" d="M641.246,57.573c-1.501-1.502-2.996-2.999-4.5-4.505c-2.56,2.56-5.101,5.101-7.664,7.664
		c-0.154-0.378-0.2-0.746-0.157-1.122c0.136-1.195,0.661-2.211,1.495-3.058c1.515-1.539,3.053-3.055,4.577-4.585
		c1.294-1.299,2.583-2.604,3.872-3.908c0.698-0.706,1.521-1.166,2.515-1.286c1.394-0.169,2.6,0.237,3.58,1.242
		c0.892,0.913,1.269,2.032,1.167,3.299c-0.081,1.007-0.496,1.877-1.208,2.595c-1.192,1.202-2.392,2.395-3.589,3.592
		C641.311,57.523,641.284,57.542,641.246,57.573z"/>
</g>
<g display="none">
	<path fill="#FFFFFF" d="M266.4,53.044c0,4.266,0,8.531,0,12.797c-6.933,0-13.867,0-20.8,0c0-6.933,0-13.867,0-20.8
		c6.933,0,13.867,0,20.8,0c0,2.654,0,5.308,0,7.962c-0.013-0.078-0.034-0.156-0.039-0.235c-0.086-1.283-0.33-2.531-0.821-3.725
		c-0.556-1.351-1.464-2.366-2.802-2.988c-1.276-0.593-2.625-0.857-4.016-0.979c-0.425-0.037-0.725,0.099-1.021,0.398
		c-2.926,2.942-5.863,5.873-8.797,8.807c-0.991,0.991-1.98,1.983-2.973,2.971c-0.199,0.198-0.307,0.421-0.282,0.706
		c0.1,1.143,0.33,2.258,0.719,3.34c0.625,1.739,1.763,2.982,3.498,3.663c1.084,0.425,2.206,0.668,3.36,0.808
		c0.476,0.058,0.801-0.089,1.13-0.42c3.845-3.861,7.7-7.712,11.554-11.564C266.125,53.571,266.352,53.368,266.4,53.044z"/>
	<path display="inline" d="M511,197.459c-1.175,7.96-6.763,12.957-12.05,18.241c-94.701,94.661-189.444,189.281-283.919,284.167
		c-8.077,8.112-16.058,11.735-27.759,10.31c-28.349-3.452-55.93-9.411-82.558-19.864c-42.629-16.734-70.581-47.293-85.949-90.017
		c-9.561-26.579-15.219-53.968-17.678-82.067c-0.613-7,2.033-12.486,6.921-17.349c24.408-24.285,48.717-48.669,73.063-73.017
		c72.096-72.102,144.272-144.124,216.166-216.427c7.285-7.326,14.663-10.679,25.095-9.771c34.172,2.976,67.337,9.482,98.684,24.047
		c32.878,15.276,55.201,40.212,68.853,73.422c12.063,29.346,18.049,60.014,20.167,91.546c0.13,1.939,0.634,3.854,0.964,5.78
		C511,196.793,511,197.126,511,197.459z M478.641,186.103c-2.826-26.461-7.68-51.302-17.486-75.035
		c-10.808-26.158-28.251-45.758-54.312-57.663c-26.69-12.192-54.893-17.714-83.822-20.348c-1.864-0.17-4.357,1.36-5.828,2.83
		C223.376,129.577,129.642,223.351,35.84,317.057c-2.33,2.328-3.355,4.566-2.932,7.874c2.79,21.816,7.488,43.162,14.787,63.947
		c12.209,34.767,34.658,59.577,69.417,72.937c22.792,8.76,46.349,14.038,70.489,17.177c3.932,0.511,5.766-1.771,7.966-3.971
		c93.043-93.049,186.07-186.114,279.179-279.097C477.969,192.705,480.107,189.651,478.641,186.103z"/>
	<path fill="#FFFFFF" d="M265.083,52.582c0.06,0.144-0.027,0.269-0.159,0.4c-3.789,3.784-7.575,7.571-11.361,11.358
		c-0.09,0.09-0.164,0.182-0.324,0.162c-0.982-0.128-1.941-0.343-2.868-0.699c-1.414-0.544-2.328-1.553-2.825-2.968
		c-0.297-0.846-0.488-1.714-0.602-2.602c-0.017-0.135,0.024-0.226,0.119-0.32c3.817-3.813,7.632-7.629,11.449-11.442
		c0.06-0.06,0.161-0.122,0.237-0.115c1.177,0.107,2.325,0.332,3.411,0.828c1.061,0.484,1.77,1.282,2.21,2.347
		C264.771,50.494,264.968,51.505,265.083,52.582z M254.98,51.765c-0.003,0.3,0.111,0.467,0.266,0.62
		c1.269,1.266,2.536,2.535,3.805,3.801c0.076,0.076,0.162,0.145,0.254,0.2c0.271,0.162,0.653,0.061,0.818-0.209
		c0.177-0.29,0.129-0.578-0.149-0.857c-1.281-1.283-2.564-2.565-3.847-3.846c-0.052-0.052-0.112-0.097-0.172-0.141
		c-0.2-0.148-0.423-0.157-0.633-0.051C255.105,51.392,254.974,51.579,254.98,51.765z M257.019,59.046
		c0.003-0.225-0.108-0.393-0.262-0.547c-1.269-1.266-2.536-2.535-3.805-3.801c-0.076-0.076-0.162-0.145-0.253-0.2
		c-0.271-0.164-0.653-0.065-0.818,0.204c-0.182,0.296-0.131,0.581,0.159,0.872c1.272,1.273,2.545,2.546,3.818,3.817
		c0.057,0.057,0.121,0.107,0.186,0.156c0.199,0.149,0.423,0.159,0.633,0.054C256.892,59.493,257.025,59.306,257.019,59.046z
		 M259.289,50.656c0.006-0.498-0.376-0.896-0.869-0.904c-0.505-0.008-0.911,0.384-0.913,0.883c-0.002,0.488,0.396,0.894,0.883,0.9
		C258.878,51.541,259.284,51.144,259.289,50.656z M261.689,53.046c0.002-0.497-0.385-0.891-0.879-0.895
		c-0.501-0.004-0.907,0.398-0.905,0.894c0.003,0.487,0.407,0.888,0.894,0.888C261.292,53.933,261.687,53.538,261.689,53.046z
		 M251.186,58.73c0.502,0.005,0.909-0.393,0.909-0.89c0-0.486-0.403-0.89-0.89-0.892c-0.492-0.002-0.89,0.391-0.893,0.883
		C250.308,58.329,250.693,58.725,251.186,58.73z M253.601,61.129c0.493,0,0.89-0.393,0.892-0.885
		c0.002-0.488-0.397-0.894-0.884-0.899c-0.496-0.005-0.901,0.4-0.899,0.9C252.712,60.741,253.105,61.129,253.601,61.129z
		 M261.595,50.73c0.493,0.002,0.893-0.389,0.9-0.878c0.006-0.492-0.407-0.908-0.9-0.905c-0.49,0.003-0.884,0.402-0.884,0.894
		C260.711,50.337,261.099,50.728,261.595,50.73z M251.289,61.035c-0.002-0.495-0.393-0.884-0.889-0.884
		c-0.492,0-0.891,0.394-0.894,0.884c-0.003,0.493,0.413,0.906,0.905,0.9C250.9,61.929,251.291,61.528,251.289,61.035z"/>
	<path display="inline" d="M230.376,166.028c-0.144-4.558,3.065-9.168,8.383-11.855c5.151-2.602,10.64-2.382,15.553,1.246
		c1.464,1.081,2.942,2.182,4.224,3.463c31.528,31.486,63.042,62.986,94.528,94.514c6.851,6.86,8.016,13.92,3.672,21.056
		c-4.037,6.632-13.426,9.123-20.09,5.139c-2.254-1.348-4.372-3.048-6.235-4.906c-31.193-31.115-62.318-62.297-93.511-93.412
		C233.116,177.498,230.306,173.405,230.376,166.028z"/>
	<path display="inline" d="M280.474,344.945c0.148,6.402-3.12,10.992-8.435,13.644c-5.153,2.571-10.664,2.327-15.553-1.339
		c-1.588-1.19-3.167-2.428-4.568-3.827c-31.292-31.251-62.567-62.52-93.825-93.806c-7.138-7.144-8.376-14.158-3.914-21.422
		c4.059-6.608,13.457-9.042,20.113-5.023c2.249,1.358,4.361,3.061,6.224,4.919c31.192,31.115,62.317,62.298,93.512,93.411
		C277.821,335.286,280.559,339.411,280.474,344.945z"/>
	<path display="inline" d="M336.268,138.778c-0.137,12.001-10.105,21.745-22.102,21.605c-11.962-0.14-21.748-10.112-21.692-22.104
		c0.058-12.275,10.019-21.915,22.432-21.709C327.021,116.77,336.407,126.529,336.268,138.778z"/>
	<path display="inline" d="M395.228,197.51c-0.039,12.104-9.759,21.81-21.841,21.807c-11.983-0.002-21.914-9.861-21.978-21.817
		c-0.066-12.2,9.914-22.068,22.229-21.981C385.758,175.605,395.268,185.291,395.228,197.51z"/>
	<path display="inline" d="M137.126,337.197c-12.102-0.124-21.567-9.856-21.486-22.093c0.08-12.089,9.853-21.755,21.944-21.703
		c11.973,0.051,21.874,9.972,21.875,21.92C159.459,327.538,149.47,337.323,137.126,337.197z"/>
	<path display="inline" d="M196.481,396.154c-12.2-0.001-21.838-9.554-21.886-21.693c-0.049-12.29,9.892-22.251,22.084-22.125
		c11.96,0.123,21.76,10.089,21.714,22.081C218.347,386.49,208.605,396.154,196.481,396.154z"/>
	<path display="inline" d="M392.919,140.591c-12.172-0.05-21.716-9.652-21.715-21.849c0.001-12.1,9.682-21.896,21.717-21.975
		c12.102-0.079,22.263,10.142,22.104,22.236C414.867,131.039,405.035,140.641,392.919,140.591z"/>
	<path display="inline" d="M139.666,393.843c0.05,12.116-9.551,21.948-21.587,22.107c-12.093,0.16-22.315-10.002-22.236-22.104
		c0.078-12.036,9.874-21.717,21.974-21.718C130.013,372.127,139.616,381.671,139.666,393.843z"/>
</g>
</svg>
