<?xml version="1.0" encoding="utf-8"?>
<!-- Generator: Adobe Illustrator 17.0.0, SVG Export Plug-In . SVG Version: 6.00 Build 0)  -->
<!DOCTYPE svg PUBLIC "-//W3C//DTD SVG 1.1//EN" "http://www.w3.org/Graphics/SVG/1.1/DTD/svg11.dtd">
<svg version="1.1" id="Layer_1" xmlns="http://www.w3.org/2000/svg" xmlns:xlink="http://www.w3.org/1999/xlink" x="0px" y="0px"
	 width="512px" height="512px" viewBox="0 0 512 512" enable-background="new 0 0 512 512" xml:space="preserve">
<g>
	<line fill="none" stroke="#B35047" x1="32" y1="0" x2="32" y2="512"/>
	<line fill="none" stroke="#B35047" x1="64" y1="0" x2="64" y2="512"/>
	<line fill="none" stroke="#B35047" x1="96" y1="0" x2="96" y2="512"/>
	<line fill="none" stroke="#B35047" x1="128" y1="0" x2="128" y2="512"/>
	<line fill="none" stroke="#B35047" x1="160" y1="0" x2="160" y2="512"/>
	<line fill="none" stroke="#B35047" x1="192" y1="0" x2="192" y2="512"/>
	<line fill="none" stroke="#B35047" x1="224" y1="0" x2="224" y2="512"/>
	<line fill="none" stroke="#B35047" x1="256" y1="0" x2="256" y2="512"/>
	<line fill="none" stroke="#B35047" x1="288" y1="0" x2="288" y2="512"/>
	<line fill="none" stroke="#B35047" x1="320" y1="0" x2="320" y2="512"/>
	<line fill="none" stroke="#B35047" x1="352" y1="0" x2="352" y2="512"/>
	<line fill="none" stroke="#B35047" x1="384" y1="0" x2="384" y2="512"/>
	<line fill="none" stroke="#B35047" x1="416" y1="0" x2="416" y2="512"/>
	<line fill="none" stroke="#B35047" x1="448" y1="0" x2="448" y2="512"/>
	<line fill="none" stroke="#B35047" x1="480" y1="0" x2="480" y2="512"/>
	<line fill="none" stroke="#B35047" x1="0" y1="32" x2="512" y2="32"/>
	<line fill="none" stroke="#B35047" x1="0" y1="64" x2="512" y2="64"/>
	<line fill="none" stroke="#B35047" x1="0" y1="96" x2="512" y2="96"/>
	<line fill="none" stroke="#B35047" x1="0" y1="128" x2="512" y2="128"/>
	<line fill="none" stroke="#B35047" x1="0" y1="160" x2="512" y2="160"/>
	<line fill="none" stroke="#B35047" x1="0" y1="192" x2="512" y2="192"/>
	<line fill="none" stroke="#B35047" x1="0" y1="224" x2="512" y2="224"/>
	<line fill="none" stroke="#B35047" x1="0" y1="256" x2="512" y2="256"/>
	<line fill="none" stroke="#B35047" x1="0" y1="288" x2="512" y2="288"/>
	<line fill="none" stroke="#B35047" x1="0" y1="320" x2="512" y2="320"/>
	<line fill="none" stroke="#B35047" x1="0" y1="352" x2="512" y2="352"/>
	<line fill="none" stroke="#B35047" x1="0" y1="384" x2="512" y2="384"/>
	<line fill="none" stroke="#B35047" x1="0" y1="416" x2="512" y2="416"/>
	<line fill="none" stroke="#B35047" x1="0" y1="448" x2="512" y2="448"/>
	<line fill="none" stroke="#B35047" x1="0" y1="480" x2="512" y2="480"/>
	<rect x="0" fill="none" stroke="#B35047" width="512" height="512"/>
</g>
<image display="none" overflow="visible" width="512" height="512" xlink:href="../../../Knowledge/Icon/[+++++] (Full) Windows 8 Icons [icons8]/Business/package/package-512.png"  transform="matrix(0.0406 0 0 0.0406 540 50)">
</image>
<image display="none" overflow="visible" width="512" height="512" xlink:href="../../../Knowledge/Icon/[+++++] (Full) Windows 8 Icons [icons8]/Business/money_bag/money_bag-512.png"  transform="matrix(0.0406 0 0 0.0406 540 50)">
</image>
<image display="none" overflow="visible" width="512" height="512" xlink:href="../../../Knowledge/Icon/[+++++] (Full) Windows 8 Icons [icons8]/Business/delivery/delivery-512.png"  transform="matrix(0.0406 0 0 0.0406 540 50)">
</image>
<g>
	<path d="M511,216.268c0,65.41,0,130.82,0,196.23c-0.34,1.592-0.761,3.171-1.008,4.777c-5.809,37.838-26.466,63.978-62.16,77.721
		c-8.086,3.113-16.969,4.157-25.484,6.154c-110.898,0-221.797,0-332.695,0c-1.447-0.325-2.88-0.742-4.343-0.96
		c-38.069-5.683-64.367-26.362-78.173-62.266c-3.103-8.069-4.146-16.93-6.137-25.426c0-65.41,0-130.82,0-196.23
		c0.337-1.273,0.813-2.526,0.989-3.82c6.579-48.41,45.528-83.528,94.194-83.669c106.543-0.31,213.089-0.256,319.632-0.014
		c40.887,0.093,75.54,24.966,89.298,63.464C507.876,199.955,509.079,208.24,511,216.268z M255.887,346.241
		c22.622,0.127,40.976-18.024,41.338-40.881c0.36-22.734-18.185-41.483-41.113-41.565c-22.718-0.081-41.026,18.008-41.337,40.842
		C214.466,327.372,232.984,346.112,255.887,346.241z"/>
	<path display="none" fill="#FFFFFF" d="M560.841,59.222c-0.078-0.327-0.127-0.665-0.24-0.98c-0.561-1.57-1.974-2.585-3.642-2.588
		c-4.345-0.01-8.691-0.012-13.036,0.001c-1.985,0.006-3.573,1.438-3.842,3.412c-0.007,0.053-0.027,0.104-0.04,0.156
		c0-3.059,0-6.118,0-9.179c6.933,0,13.867,0,20.8,0C560.841,53.104,560.841,56.163,560.841,59.222z M545.625,54.791
		c0.523,0.028,1.034,0.054,1.564,0.082c0.014-0.27,0.032-0.519,0.039-0.767c0.031-1.018,0.701-1.67,1.724-1.672
		c0.982-0.002,1.963-0.001,2.944,0c1.074,0.001,1.726,0.642,1.757,1.722c0.007,0.234,0.026,0.468,0.04,0.719
		c0.541-0.03,1.056-0.058,1.579-0.087c-0.015-0.301-0.034-0.571-0.042-0.841c-0.047-1.687-1.411-3.059-3.099-3.088
		c-1.144-0.02-2.288-0.018-3.432,0.003c-0.859,0.015-1.58,0.374-2.178,0.987C545.725,52.667,545.601,53.692,545.625,54.791z"/>
	<path display="none" fill="#FFFFFF" d="M540.041,67.225c0.081,0.347,0.124,0.708,0.25,1.037c0.563,1.464,1.636,2.308,3.188,2.539
		c0.06,0.009,0.118,0.026,0.177,0.039c-1.202,0-2.404,0-3.616,0C540.041,69.635,540.041,68.43,540.041,67.225z"/>
	<path display="none" fill="#FFFFFF" d="M557.225,70.841c0.347-0.081,0.71-0.124,1.039-0.251c1.456-0.561,2.298-1.627,2.535-3.17
		c0.01-0.065,0.027-0.13,0.041-0.195c0,1.205,0,2.41,0,3.616C559.635,70.841,558.43,70.841,557.225,70.841z"/>
	<path display="none" fill="#FFFFFF" d="M550.436,64.523c-0.934-0.005-1.689-0.77-1.677-1.697c0.013-0.931,0.759-1.669,1.686-1.666
		c0.935,0.003,1.691,0.768,1.677,1.695C552.107,63.788,551.359,64.528,550.436,64.523z"/>
	<path d="M137.928,107.619c-0.592-26.931,2.445-52.082,21.995-72.161c14.646-15.042,32.34-23.831,53.393-24.208
		c28.039-0.501,56.101-0.545,84.141-0.063c41.411,0.712,74.835,34.363,75.997,75.72c0.186,6.627,0.65,13.246,1.025,20.631
		c-12.82,0.708-25.456,1.406-38.718,2.139c-0.349-6.15-0.813-11.883-0.976-17.625c-0.752-26.479-16.741-42.208-43.07-42.227
		c-24.066-0.018-48.131-0.033-72.197,0.005c-25.086,0.039-41.506,16.033-42.267,40.998c-0.186,6.095-0.618,12.182-0.964,18.813
		C163.271,108.955,150.751,108.295,137.928,107.619z"/>
</g>
<g display="none">
	<path fill="#FFFFFF" d="M549.994,50.041c3.616,0,7.231,0,10.847,0c0,6.933,0,13.867,0,20.8c-6.933,0-13.867,0-20.8,0
		c0-6.933,0-13.867,0-20.8c3.074,0,6.148,0,9.222,0c-0.073,0.012-0.145,0.031-0.218,0.035c-0.801,0.036-1.588,0.165-2.349,0.419
		c-2.494,0.834-4.08,2.514-4.71,5.079c-0.296,1.205-0.309,2.425-0.186,3.65c0.014,0.143-0.031,0.235-0.118,0.341
		c-0.817,1.006-1.087,2.137-0.606,3.355c0.38,0.964,1.14,1.615,2.062,2.064c0.178,0.087,0.285,0.187,0.349,0.374
		c0.381,1.117,1.06,2.031,1.945,2.8c0.415,0.361,0.919,0.326,1.226-0.08c0.254-0.336,0.182-0.79-0.191-1.119
		c-0.814-0.717-1.393-1.576-1.64-2.645c-0.076-0.327-0.277-0.552-0.606-0.647c-0.097-0.028-0.204-0.028-0.295-0.066
		c-0.559-0.237-1-0.617-1.315-1.134c-0.302-0.497-0.167-0.993,0.016-1.507c0.061,0.044,0.094,0.066,0.126,0.09
		c0.325,0.249,0.739,0.228,1.034-0.051c0.198-0.187,0.247-0.424,0.244-0.684c-0.01-0.678,0.046-1.351,0.186-2.016
		c0.029-0.139,0.088-0.212,0.23-0.233c0.194-0.029,0.383-0.087,0.577-0.108c0.798-0.085,1.353-0.507,1.697-1.217
		c0.153-0.316,0.284-0.642,0.424-0.964c0.028-0.063,0.056-0.127,0.087-0.198c0.153,0.322,0.28,0.628,0.441,0.916
		c0.436,0.781,1.077,1.291,1.981,1.428c0.638,0.096,1.269,0.027,1.895-0.105c0.978-0.205,1.957-0.411,2.934-0.62
		c0.177-0.038,0.261,0.015,0.324,0.195c0.323,0.925,0.452,1.876,0.441,2.852c-0.002,0.178,0.028,0.367,0.093,0.531
		c0.119,0.297,0.383,0.42,0.68,0.456c0.011,0.024,0.021,0.036,0.021,0.048c0.002,0.616,0.006,1.232,0.002,1.848
		c0,0.057-0.04,0.134-0.086,0.167c-0.235,0.173-0.477,0.326-0.782,0.359c-0.357,0.038-0.618,0.241-0.699,0.587
		c-0.171,0.732-0.493,1.384-0.948,1.977c-0.144,0.187-0.229,0.404-0.183,0.644c0.064,0.334,0.254,0.561,0.595,0.642
		c0.349,0.083,0.625-0.043,0.837-0.315c0.457-0.585,0.82-1.223,1.061-1.928c0.024-0.071,0.096-0.139,0.163-0.179
		c0.285-0.166,0.605-0.287,0.859-0.49c0.248-0.198,0.492-0.167,0.765-0.152c0,0.052,0.007,0.093-0.001,0.131
		c-0.224,1.013-0.641,1.931-1.305,2.738c-0.36,0.437-0.795,0.719-1.354,0.818c-0.273,0.048-0.539,0.135-0.812,0.174
		c-0.755,0.107-1.513,0.197-2.269,0.294c-0.032-0.09-0.052-0.139-0.067-0.189c-0.113-0.377-0.34-0.678-0.651-0.908
		c-0.912-0.673-2.149-0.667-3.067,0.004c-0.853,0.624-0.942,1.746-0.196,2.49c0.908,0.906,2.55,0.913,3.458,0.009
		c0.107-0.107,0.218-0.151,0.369-0.167c0.994-0.107,1.989-0.214,2.98-0.349c1.153-0.158,2.106-0.653,2.804-1.632
		c0.783-1.099,1.269-2.302,1.454-3.632c0.02-0.145,0.061-0.258,0.181-0.363c0.501-0.442,0.775-1.007,0.793-1.675
		c0.018-0.649,0.019-1.3-0.002-1.949c-0.032-0.986-0.752-1.866-1.708-2.107c-0.232-0.059-0.475-0.076-0.721-0.114
		c-0.003-0.059-0.002-0.12-0.009-0.179c-0.082-0.718-0.103-1.449-0.257-2.151c-0.711-3.242-3.136-5.115-6.149-5.523
		C550.732,50.115,550.362,50.081,549.994,50.041z M546.355,59.659c-0.908,0.044-1.542,0.815-1.499,1.642
		c0.053,1.022,0.905,1.579,1.682,1.524c0.934-0.066,1.541-0.837,1.487-1.656C547.963,60.247,547.202,59.581,546.355,59.659z
		 M554.427,61.24c0-0.877-0.708-1.587-1.586-1.59c-0.872-0.003-1.588,0.715-1.587,1.59c0.001,0.876,0.715,1.593,1.588,1.591
		C553.716,62.831,554.427,62.117,554.427,61.24z"/>
	<path display="inline" d="M246.007,1c9.111,1.009,18.247,1.827,27.328,3.057c74.448,10.079,134.364,56.362,151.943,136.474
		c3.806,17.344,4.335,35.408,6.349,53.143c0.167,1.471,0.149,2.964,0.216,4.428c6.077,0.931,12.071,1.365,17.809,2.814
		c23.624,5.966,41.399,27.694,42.199,52.064c0.527,16.041,0.487,32.122,0.048,48.168c-0.451,16.505-7.226,30.453-19.603,41.379
		c-2.943,2.598-3.964,5.389-4.463,8.971c-4.582,32.871-16.585,62.606-35.939,89.758c-17.233,24.176-40.791,36.43-69.283,40.324
		c-24.48,3.346-49.062,5.975-73.63,8.63c-3.744,0.405-6.473,1.492-9.129,4.135c-22.431,22.328-63.013,22.159-85.44-0.228
		c-18.421-18.388-16.233-46.121,4.855-61.542c22.684-16.588,53.247-16.747,75.778-0.105c7.682,5.674,13.284,13.117,16.075,22.439
		c0.374,1.25,0.869,2.465,1.66,4.682c18.691-2.392,37.409-4.626,56.071-7.262c6.757-0.954,13.338-3.1,20.071-4.297
		c13.799-2.451,24.553-9.411,33.449-20.22c16.406-19.935,26.709-42.623,32.257-67.65c0.206-0.93,0.026-1.945,0.026-3.233
		c-6.732-0.386-12.778-1.141-18.897,3.75c-6.281,5.02-14.177,7.993-21.227,12.1c-1.661,0.968-3.425,2.667-4.021,4.413
		c-5.947,17.441-14.924,33.191-26.22,47.651c-5.247,6.717-12.061,9.845-20.691,7.788c-8.419-2.006-13.135-7.615-14.705-15.869
		c-1.132-5.948,0.971-11.295,4.52-15.921c11.249-14.659,19.198-30.762,23.431-48.858c2.003-8.566,8.459-13.563,17.268-14.513
		c7.536-0.813,13.517-4.604,19.315-8.871c1.136-0.836,2.103-2.726,2.113-4.137c0.11-15.22,0.014-30.44-0.046-45.661
		c-0.001-0.295-0.253-0.589-0.529-1.189c-7.341-0.895-13.863-3.928-16.795-11.27c-1.619-4.053-2.36-8.741-2.309-13.129
		c0.28-24.121-2.917-47.615-10.886-70.472c-1.553-4.454-3.636-5.761-8.004-4.828c-24.159,5.16-48.335,10.243-72.513,15.312
		c-15.469,3.243-31.044,4.968-46.816,2.587c-22.336-3.372-38.173-15.974-48.951-35.282c-3.971-7.115-7.104-14.697-10.896-22.645
		c-0.769,1.748-1.46,3.314-2.146,4.882c-3.478,7.948-6.705,16.017-10.483,23.82c-8.5,17.552-22.215,27.979-41.942,30.084
		c-4.794,0.512-9.483,1.951-14.265,2.662c-3.521,0.523-4.969,2.329-5.692,5.761c-3.465,16.442-4.846,33.055-4.606,49.822
		c0.092,6.416-1.13,12.269-6.019,16.892c-7.29,6.893-17.525,7.416-25.562,1.261c-0.783-0.6-1.601-1.154-3.102-2.231
		c-4.531,12.707-7.855,24.958-0.393,37.237c7.766,12.78,18.681,22.177,32.489,28.024c2.257,0.956,4.902,0.946,7.293,1.642
		c8.118,2.363,13.098,7.912,14.969,15.992c6.113,26.402,20.402,47.639,40.523,65.35c9.222,8.117,10.998,19.335,4.719,27.647
		c-7.58,10.033-20.044,10.901-30.302,1.984c-21.855-18.999-38.643-41.577-48.06-69.185c-1.575-4.617-4.223-7.107-8.616-9.25
		c-22.786-11.112-41.545-27.194-50.946-51.009c-11.882-30.1-5.227-58.055,14.968-82.905c2.138-2.63,3.266-4.886,2.909-8.431
		c-3.041-30.286-2.704-60.439,4.601-90.204c15.553-63.374,54.752-104.906,116.381-125.51c18.802-6.286,38.232-9.461,58.038-10.362
		c1.805-0.082,3.592-0.562,5.388-0.857C233.96,1,239.983,1,246.007,1z"/>
	<path display="inline" d="M156.078,238.689c20.938-1.935,39.74,14.526,41.253,37.316c1.343,20.225-13.661,39.27-36.747,40.91
		c-19.2,1.364-40.259-12.398-41.559-37.655C117.974,258.819,133.644,239.773,156.078,238.689z"/>
	<path display="inline" d="M355.549,277.761c0,21.671-17.564,39.297-39.188,39.325c-21.551,0.028-39.215-17.68-39.229-39.326
		c-0.014-21.629,17.685-39.356,39.228-39.292C338.049,238.532,355.549,256.079,355.549,277.761z"/>
</g>
<g display="none">
	<path fill="#FFFFFF" d="M560.834,70.841c-6.929,0-13.86,0-20.793,0c0-6.931,0-13.862,0-20.796c6.928,0,13.858,0,20.793,0
		C560.834,56.974,560.834,63.907,560.834,70.841z M541.792,65.817c-0.008,0.317,0.167,0.552,0.563,0.667
		c0.623,0.181,1.246,0.363,1.871,0.534c0.15,0.041,0.237,0.111,0.298,0.26c0.247,0.607,0.507,1.209,0.766,1.811
		c0.166,0.384,0.422,0.526,0.821,0.448c0.643-0.126,1.286-0.258,1.926-0.396c0.165-0.036,0.287-0.014,0.421,0.101
		c0.479,0.409,0.97,0.802,1.458,1.201c0.388,0.317,0.66,0.316,1.051-0.004c0.487-0.398,0.978-0.793,1.458-1.2
		c0.127-0.107,0.242-0.137,0.402-0.102c0.62,0.137,1.243,0.262,1.866,0.39c0.472,0.097,0.722-0.034,0.913-0.481
		c0.258-0.603,0.509-1.209,0.775-1.808c0.037-0.084,0.135-0.17,0.222-0.197c0.627-0.192,1.258-0.369,1.888-0.55
		c0.462-0.133,0.63-0.381,0.589-0.852c-0.057-0.654-0.112-1.308-0.155-1.963c-0.006-0.091,0.044-0.211,0.109-0.275
		c0.457-0.453,0.924-0.894,1.388-1.34c0.378-0.364,0.409-0.626,0.125-1.075c-0.344-0.543-0.693-1.083-1.027-1.632
		c-0.047-0.078-0.061-0.207-0.034-0.294c0.191-0.606,0.396-1.207,0.598-1.809c0.18-0.538,0.094-0.764-0.404-1.051
		c-0.551-0.318-1.104-0.631-1.65-0.957c-0.073-0.044-0.144-0.143-0.158-0.227c-0.117-0.666-0.22-1.334-0.329-2.001
		c-0.045-0.279-0.171-0.505-0.457-0.589c-0.141-0.041-0.293-0.049-0.441-0.055c-0.582-0.024-1.163-0.047-1.745-0.059
		c-0.177-0.004-0.296-0.059-0.403-0.208c-0.367-0.511-0.751-1.01-1.129-1.513c-0.295-0.392-0.56-0.458-1.003-0.248
		c-0.586,0.278-1.174,0.555-1.756,0.84c-0.122,0.06-0.22,0.056-0.339-0.002c-0.565-0.276-1.134-0.543-1.702-0.813
		c-0.516-0.245-0.747-0.187-1.094,0.275c-0.362,0.482-0.729,0.959-1.08,1.449c-0.11,0.154-0.23,0.217-0.418,0.221
		c-0.656,0.016-1.313,0.037-1.968,0.076c-0.401,0.024-0.607,0.238-0.67,0.633c-0.106,0.661-0.209,1.322-0.326,1.981
		c-0.016,0.089-0.088,0.197-0.166,0.243c-0.563,0.337-1.135,0.659-1.703,0.987c-0.42,0.243-0.518,0.503-0.363,0.967
		c0.203,0.609,0.402,1.219,0.615,1.825c0.051,0.144,0.032,0.25-0.049,0.375c-0.35,0.539-0.692,1.083-1.035,1.627
		c-0.253,0.401-0.218,0.682,0.124,1.011c0.473,0.456,0.951,0.906,1.417,1.369c0.065,0.064,0.111,0.186,0.105,0.277
		C541.911,64.372,541.852,65.059,541.792,65.817z"/>
	<path display="inline" d="M41.809,388.871c1.481-18.773,2.942-35.805,4.029-52.861c0.144-2.258-0.989-5.269-2.594-6.86
		c-11.545-11.452-23.381-22.612-35.093-33.897c-8.464-8.156-9.323-15.127-3.065-25.05c8.491-13.463,16.954-26.946,25.625-40.293
		c2.003-3.084,2.462-5.7,1.207-9.277c-5.265-14.997-10.208-30.108-15.223-45.192c-3.823-11.498-1.411-17.927,9-23.95
		c14.064-8.137,28.223-16.113,42.169-24.447c1.924-1.15,3.72-3.801,4.114-6.017c2.901-16.319,5.453-32.7,8.07-49.069
		c1.566-9.796,6.664-15.094,16.605-15.679c16.23-0.955,32.49-1.491,48.745-1.877c4.638-0.11,7.61-1.677,10.341-5.484
		c8.694-12.119,17.798-23.943,26.753-35.875c8.588-11.444,14.314-12.89,27.09-6.821c14.065,6.681,28.156,13.308,42.151,20.132
		c2.969,1.447,5.384,1.54,8.409,0.059c14.436-7.066,28.977-13.918,43.501-20.801c10.972-5.2,17.53-3.57,24.834,6.134
		c9.374,12.455,18.873,24.821,27.972,37.474c2.663,3.703,5.604,5.068,9.991,5.16c14.413,0.303,28.823,0.867,43.228,1.472
		c3.665,0.154,7.45,0.347,10.933,1.366c7.091,2.074,10.194,7.674,11.316,14.583c2.683,16.528,5.238,33.078,8.143,49.567
		c0.365,2.071,2.107,4.529,3.924,5.614c13.517,8.072,27.217,15.838,40.854,23.709c12.33,7.117,14.463,12.723,10.001,26.037
		c-4.999,14.914-10.085,29.8-14.811,44.8c-0.682,2.165-0.334,5.366,0.841,7.292c8.29,13.585,16.934,26.954,25.441,40.406
		c7.035,11.125,6.278,17.619-3.092,26.628c-11.482,11.041-23.066,21.978-34.373,33.194c-1.616,1.603-2.838,4.58-2.694,6.822
		c1.045,16.219,2.418,32.418,3.828,48.611c1.015,11.66-3.137,17.805-14.58,21.103c-15.598,4.496-31.231,8.878-46.751,13.631
		c-2.166,0.663-4.585,2.8-5.505,4.868c-6.595,14.835-12.806,29.84-19.192,44.769c-4.735,11.07-10.921,14.319-22.611,11.914
		c-15.412-3.171-30.838-6.281-46.204-9.662c-3.966-0.873-6.822-0.14-9.96,2.52c-11.892,10.08-24.042,19.856-36.113,29.724
		c-9.676,7.911-16.411,7.939-26.023,0.088c-12.075-9.863-24.246-19.614-36.099-29.737c-3.331-2.845-6.356-3.386-10.434-2.505
		c-15.869,3.43-31.777,6.692-47.709,9.819c-9.887,1.94-16.229-1.573-20.34-11.095c-6.436-14.907-12.867-29.82-18.981-44.86
		c-1.5-3.69-3.661-5.422-7.382-6.443c-15.492-4.25-30.918-8.744-46.344-13.231C45.952,402.535,41.606,396.731,41.809,388.871z
		 M235.421,295.488c-1.77-1.992-3.041-3.555-4.447-4.986c-15.86-16.145-31.701-32.31-47.634-48.383
		c-7.636-7.703-15.62-7.689-23.264-0.097c-5.591,5.552-11.068,11.218-16.594,16.834c-9.275,9.425-9.281,16.877,0.03,26.35
		c25.738,26.182,51.486,52.355,77.243,78.519c1.527,1.551,3.085,3.088,4.759,4.473c12.522,10.351,25.769,8.811,34.836-4.706
		c37.333-55.657,74.493-111.43,111.631-167.217c5.504-8.267,3.677-16.439-4.564-22.239c-6.44-4.532-12.964-8.945-19.455-13.403
		c-11.083-7.611-18.18-6.26-25.643,4.913c-27.731,41.519-55.454,83.045-83.184,124.565
		C238.122,291.628,237.063,293.114,235.421,295.488z"/>
	<path fill="#FFFFFF" d="M549.61,62.047c0.066-0.096,0.109-0.156,0.15-0.217c1.12-1.676,2.239-3.353,3.359-5.03
		c0.301-0.451,0.588-0.506,1.035-0.198c0.262,0.18,0.526,0.358,0.786,0.541c0.333,0.234,0.406,0.564,0.184,0.898
		c-1.5,2.253-3,4.505-4.507,6.752c-0.366,0.546-0.901,0.608-1.407,0.19c-0.068-0.056-0.131-0.118-0.192-0.181
		c-1.04-1.056-2.08-2.113-3.119-3.17c-0.376-0.382-0.376-0.683-0.001-1.064c0.223-0.227,0.444-0.456,0.67-0.68
		c0.309-0.307,0.631-0.307,0.939,0.004c0.643,0.649,1.283,1.302,1.923,1.954C549.487,61.903,549.538,61.966,549.61,62.047z"/>
</g>
</svg>
