<?xml version="1.0" encoding="utf-8"?>
<!-- Generator: Adobe Illustrator 17.0.0, SVG Export Plug-In . SVG Version: 6.00 Build 0)  -->
<!DOCTYPE svg PUBLIC "-//W3C//DTD SVG 1.1//EN" "http://www.w3.org/Graphics/SVG/1.1/DTD/svg11.dtd">
<svg version="1.1" id="Layer_1" xmlns="http://www.w3.org/2000/svg" xmlns:xlink="http://www.w3.org/1999/xlink" x="0px" y="0px"
	 width="512px" height="512px" viewBox="0 0 512 512" enable-background="new 0 0 512 512" xml:space="preserve">
<g>
	<line fill="none" stroke="#B35047" x1="32" y1="0" x2="32" y2="512"/>
	<line fill="none" stroke="#B35047" x1="64" y1="0" x2="64" y2="512"/>
	<line fill="none" stroke="#B35047" x1="96" y1="0" x2="96" y2="512"/>
	<line fill="none" stroke="#B35047" x1="128" y1="0" x2="128" y2="512"/>
	<line fill="none" stroke="#B35047" x1="160" y1="0" x2="160" y2="512"/>
	<line fill="none" stroke="#B35047" x1="192" y1="0" x2="192" y2="512"/>
	<line fill="none" stroke="#B35047" x1="224" y1="0" x2="224" y2="512"/>
	<line fill="none" stroke="#B35047" x1="256" y1="0" x2="256" y2="512"/>
	<line fill="none" stroke="#B35047" x1="288" y1="0" x2="288" y2="512"/>
	<line fill="none" stroke="#B35047" x1="320" y1="0" x2="320" y2="512"/>
	<line fill="none" stroke="#B35047" x1="352" y1="0" x2="352" y2="512"/>
	<line fill="none" stroke="#B35047" x1="384" y1="0" x2="384" y2="512"/>
	<line fill="none" stroke="#B35047" x1="416" y1="0" x2="416" y2="512"/>
	<line fill="none" stroke="#B35047" x1="448" y1="0" x2="448" y2="512"/>
	<line fill="none" stroke="#B35047" x1="480" y1="0" x2="480" y2="512"/>
	<line fill="none" stroke="#B35047" x1="0" y1="32" x2="512" y2="32"/>
	<line fill="none" stroke="#B35047" x1="0" y1="64" x2="512" y2="64"/>
	<line fill="none" stroke="#B35047" x1="0" y1="96" x2="512" y2="96"/>
	<line fill="none" stroke="#B35047" x1="0" y1="128" x2="512" y2="128"/>
	<line fill="none" stroke="#B35047" x1="0" y1="160" x2="512" y2="160"/>
	<line fill="none" stroke="#B35047" x1="0" y1="192" x2="512" y2="192"/>
	<line fill="none" stroke="#B35047" x1="0" y1="224" x2="512" y2="224"/>
	<line fill="none" stroke="#B35047" x1="0" y1="256" x2="512" y2="256"/>
	<line fill="none" stroke="#B35047" x1="0" y1="288" x2="512" y2="288"/>
	<line fill="none" stroke="#B35047" x1="0" y1="320" x2="512" y2="320"/>
	<line fill="none" stroke="#B35047" x1="0" y1="352" x2="512" y2="352"/>
	<line fill="none" stroke="#B35047" x1="0" y1="384" x2="512" y2="384"/>
	<line fill="none" stroke="#B35047" x1="0" y1="416" x2="512" y2="416"/>
	<line fill="none" stroke="#B35047" x1="0" y1="448" x2="512" y2="448"/>
	<line fill="none" stroke="#B35047" x1="0" y1="480" x2="512" y2="480"/>
	<rect x="0" fill="none" stroke="#B35047" width="512" height="512"/>
</g>
<image display="none" overflow="visible" width="512" height="512" xlink:href="../../../Knowledge/Icon/[+++++] (Full) Windows 8 Icons [icons8]/Debug/copy_link/copy_link-512.png"  transform="matrix(0.0406 0 0 0.0406 613 26)">
</image>
<g>
	<path d="M511,290.781c0,1.992,0,3.984,0,5.977c-4.373,13.296-14.238,17.006-27.194,16.132c-7.602-0.513-15.267-0.094-22.903-0.094
		c-17.099,0-34.199-0.072-51.296,0.114c-1.697,0.018-4.51,1.275-4.883,2.528c-2.53,8.516-4.545,17.186-6.78,26.019
		c1.487,0.627,2.972,1.334,4.511,1.89c20.261,7.317,38.37,18.096,53.457,33.595c25.841,26.546,36.036,59.017,34.862,95.328
		c-0.452,13.982-18.164,21.664-29.661,13.694c-6.7-4.645-8.67-11.259-8.869-18.934c-0.682-26.266-8.398-49.558-28.867-67.373
		c-12.333-10.733-26.579-17.775-42.286-22.453c-24.972,40.975-58.258,71.212-105.216,85.708c0-2.777,0-4.752,0-6.727
		c0-46.815,0.045-93.63-0.034-140.445c-0.019-11.139-0.638-22.278-4.986-32.753c-2.859-6.889-6.412-14.035-15.039-13.931
		c-8.322,0.101-11.838,7.077-14.633,13.81c-4.414,10.635-5.014,21.937-5.031,33.244c-0.07,46.815-0.03,93.63-0.03,140.445
		c0,1.916,0,3.833,0,6.193c-20.412-5.767-38.127-15.24-54.362-27.581c-19.797-15.048-35.758-33.557-48.759-54.677
		c-1.169-1.898-1.856-3.544-4.868-2.538c-20.598,6.878-38.748,17.353-51.858,35.145c-12.091,16.409-16.154,35.322-16.59,55.297
		c-0.275,12.627-8.177,20.726-19.942,20.641c-11.205-0.081-18.95-8.617-18.763-21.152c0.101-6.788,0.339-13.639,1.333-20.34
		c7.513-50.673,36.714-83.87,83.411-102.809c2.875-1.166,5.784-2.25,8.471-3.292c-2.228-8.33-4.655-16.101-6.279-24.036
		c-0.786-3.838-2.362-4.696-5.936-4.678c-25.233,0.126-50.472-0.228-75.699,0.185C12.809,313.136,4.686,308.855,1,295.761
		c0-1.992,0-3.984,0-5.977c4.781-13.276,15.005-16.253,27.94-15.958c22.726,0.519,45.471,0.145,68.209,0.145
		c1.764,0,3.527,0,6.304,0c0-11.231,0.131-21.823-0.143-32.404c-0.04-1.562-1.79-3.288-3.105-4.574
		c-8.394-8.21-17.953-15.478-25.159-24.61c-26.763-33.917-34.637-73.821-34.251-115.889c0.099-10.754,7.953-17.737,18.989-18.409
		c8.672-0.528,17.433,6.308,18.741,15.834c1.552,11.305,1.704,22.799,3.164,34.121c2.933,22.744,10.654,43.599,24.827,62
		c9.257,12.018,22.269,17.657,35.437,23.727c50.472,23.268,103.156,29.62,157.84,21.663c24.229-3.526,47.4-10.637,70.087-19.867
		c15.076-6.134,27.501-15.162,37.294-27.947c15.115-19.733,21.59-42.668,24.161-66.929c0.96-9.055,0.912-18.229,2.126-27.24
		c1.256-9.329,9.955-15.625,19.727-15.261c9.294,0.346,17.695,7.548,17.749,16.798c0.071,12.062-0.393,24.224-1.909,36.18
		c-5.469,43.128-22.277,80.251-58.395,106.729c-1.048,0.768-2.182,2.278-2.201,3.459c-0.169,10.723-0.099,21.449-0.099,32.618
		c3.221,0,5.008,0,6.795,0c23.401,0,46.809,0.319,70.201-0.127C498.19,273.6,507.175,277.952,511,290.781z"/>
	<path display="none" fill="#FFFFFF" d="M633.841,37.131c-0.156-0.523-0.522-0.701-1.047-0.691
		c-0.954,0.018-1.909,0.005-2.863,0.005c-0.073,0-0.146,0-0.277,0c0-0.455-0.003-0.893,0.004-1.33
		c0.001-0.048,0.047-0.11,0.09-0.141c1.473-1.08,2.159-2.594,2.382-4.353c0.062-0.488,0.081-0.984,0.078-1.476
		c-0.002-0.377-0.345-0.671-0.724-0.685c-0.399-0.015-0.753,0.242-0.805,0.622c-0.049,0.368-0.048,0.742-0.087,1.111
		c-0.105,0.989-0.369,1.925-0.985,2.73c-0.399,0.521-0.906,0.89-1.521,1.14c-0.925,0.376-1.87,0.666-2.858,0.81
		c-2.23,0.325-4.379,0.065-6.437-0.884c-0.537-0.248-1.068-0.478-1.445-0.968c-0.578-0.75-0.893-1.601-1.013-2.529
		c-0.06-0.462-0.066-0.931-0.129-1.392c-0.053-0.388-0.411-0.667-0.764-0.646c-0.45,0.027-0.77,0.312-0.774,0.751
		c-0.016,1.716,0.305,3.343,1.397,4.726c0.294,0.372,0.684,0.669,1.026,1.004c0.054,0.052,0.125,0.123,0.127,0.187
		c0.011,0.432,0.006,0.863,0.006,1.322c-0.113,0-0.185,0-0.257,0c-0.927,0-1.855,0.015-2.782-0.006
		c-0.528-0.012-0.945,0.109-1.14,0.651c0-3.682,0-7.363,0-11.047c6.928,0,13.857,0,20.8,0
		C633.841,29.737,633.841,33.434,633.841,37.131z M623.44,33.917c0.653-0.054,1.308-0.095,1.959-0.168
		c0.499-0.056,0.981-0.193,1.431-0.426c0.766-0.397,1.119-1.058,1.22-1.891c0.117-0.96-0.086-1.802-0.844-2.457
		c-0.41-0.354-0.884-0.593-1.387-0.786c-0.073-0.028-0.158-0.11-0.175-0.181c-0.262-1.098-1.134-1.812-2.22-1.806
		c-1.066,0.006-1.937,0.727-2.185,1.798c-0.017,0.073-0.098,0.151-0.17,0.187c-0.223,0.112-0.465,0.188-0.683,0.308
		c-0.913,0.499-1.555,1.192-1.579,2.302c-0.013,0.602,0.051,1.192,0.369,1.722c0.386,0.644,1.012,0.935,1.703,1.111
		C621.718,33.844,622.577,33.88,623.44,33.917z"/>
	<path display="none" fill="#FFFFFF" d="M613.041,37.334c0.15,0.534,0.482,0.709,1.031,0.7c1.029-0.017,2.058-0.002,3.087-0.008
		c0.146-0.001,0.21,0.034,0.242,0.191c0.066,0.324,0.165,0.641,0.256,0.98c-0.11,0.042-0.228,0.087-0.346,0.134
		c-1.904,0.772-3.095,2.126-3.402,4.193c-0.041,0.273-0.05,0.553-0.054,0.83c-0.008,0.511,0.308,0.859,0.765,0.863
		c0.48,0.003,0.802-0.327,0.813-0.842c0.018-0.815,0.183-1.586,0.677-2.255c0.535-0.726,1.275-1.153,2.115-1.433
		c0.123-0.041,0.151,0.026,0.199,0.104c0.53,0.861,1.181,1.616,1.989,2.23c0.662,0.503,1.385,0.89,2.217,1.125
		c0-0.096,0-0.174,0-0.253c0-1.909-0.002-3.819,0.001-5.728c0.001-0.461,0.025-0.922,0.205-1.356
		c0.114-0.275,0.257-0.559,0.597-0.563c0.352-0.004,0.497,0.287,0.613,0.568c0.177,0.427,0.203,0.882,0.203,1.336
		c0.003,1.909,0.001,3.819,0.001,5.728c0,0.081,0,0.161,0,0.274c1.915-0.591,3.273-1.824,4.291-3.496
		c0.641,0.191,1.222,0.478,1.725,0.916c0.835,0.727,1.15,1.677,1.177,2.748c0.008,0.313,0.089,0.583,0.362,0.772
		c0.469,0.325,1.191,0.012,1.21-0.558c0.048-1.481-0.368-2.805-1.422-3.888c-0.615-0.632-1.354-1.072-2.18-1.37
		c-0.063-0.023-0.123-0.051-0.184-0.077c0.091-0.36,0.173-0.714,0.276-1.061c0.015-0.051,0.13-0.102,0.199-0.103
		c0.697-0.008,1.395-0.005,2.092-0.005c0.311,0,0.624-0.017,0.934,0.004c0.528,0.036,0.931-0.116,1.109-0.658
		c0,3.155,0,6.31,0,9.466c-6.933,0-13.867,0-20.8,0C613.041,43.672,613.041,40.503,613.041,37.334z"/>
	<path d="M255.998,211.974c-21.18-0.912-42.224-1.795-62.792-7.039c-16.954-4.322-32.287-11.461-41.762-27.245
		c-7.801-12.995-9.378-27.456-9.055-42.224c0.594-27.212,16.327-44.2,38.713-56.431c5.355-2.926,11.279-4.797,16.747-7.54
		c1.752-0.879,3.75-2.8,4.164-4.585c6.088-26.256,27.452-43.953,53.585-44.093c26.637-0.142,48.004,17.359,54.43,44.279
		c0.42,1.759,2.518,3.763,4.298,4.447c12.322,4.728,23.948,10.589,34.006,19.273c18.602,16.062,23.567,36.706,20.704,60.241
		c-2.484,20.414-11.135,36.614-29.924,46.357c-11.017,5.713-22.846,9.078-35.079,10.443
		C288.067,209.64,272.013,210.638,255.998,211.974z"/>
</g>
<g display="none">
	<path fill="#FFFFFF" d="M613.041,26.041c6.933,0,13.867,0,20.8,0c0,6.933,0,13.867,0,20.8c-6.933,0-13.867,0-20.8,0
		C613.041,39.907,613.041,32.974,613.041,26.041z M623.444,46.679c5.663-0.003,10.238-4.581,10.235-10.241
		c-0.003-5.662-4.582-10.239-10.241-10.236c-5.662,0.003-10.239,4.583-10.236,10.242C613.206,42.107,617.784,46.682,623.444,46.679z
		"/>
	<path display="inline" d="M256.082,511C115.125,511.079,1.088,397.115,1,256.082C0.913,115.148,114.917,1.075,255.929,1
		C396.88,0.925,510.931,114.912,511,255.928C511.069,396.902,397.119,510.921,256.082,511z M51.584,272.662
		c5.827,100.288,93.082,182.971,188.021,187.662c-6.446-7.844-6.048-16.825-5.72-25.736c0.405-11.019,9.763-20.615,20.576-21.336
		c10.971-0.731,21.065,6.939,22.9,17.853c1.693,10.07,2.11,20.093-5.553,29.95c50.99-4.725,93.758-24.381,128.973-59.404
		c35.493-35.299,55.483-78.286,60.277-129.824c-8.681,7.016-17.665,6.632-26.579,6.282c-11.007-0.432-20.63-9.918-21.239-20.678
		c-0.624-11.038,6.997-20.969,17.973-22.81c10.066-1.688,20.082-2.049,29.85,5.548c-4.832-51.757-25.035-94.985-60.96-130.434
		c-35.083-34.618-77.552-54.033-127.354-58.68c5.485,11.527,6.063,14.524,5.387,26.606c-0.615,10.98-10.15,20.634-20.842,21.102
		c-11.162,0.489-20.846-7.021-22.695-18.11c-1.674-10.041-1.96-20.034,5.577-29.795c-58.027,5.871-104.708,30.387-141.867,73.378
		c-25.927,29.995-51.224,92.657-46.131,114.983c7.849-6.266,17.056-5.751,26.117-5.258c10.001,0.544,17.808,8.015,19.977,18.411
		c1.843,8.836-2.528,18.858-11.186,22.727C75.26,280.381,63.328,279.904,51.584,272.662z"/>
	<path fill="#FFFFFF" d="M615.233,37.11c0.472,0.291,0.951,0.31,1.425,0.098c0.348-0.155,0.523-0.558,0.449-0.913
		c-0.087-0.417-0.401-0.717-0.802-0.739c-0.364-0.02-0.734-0.04-1.049,0.211c-0.204-0.896,0.811-3.412,1.852-4.617
		c1.492-1.726,3.366-2.71,5.696-2.946c-0.303,0.392-0.291,0.793-0.224,1.196c0.074,0.445,0.463,0.747,0.911,0.727
		c0.429-0.019,0.812-0.406,0.837-0.847c0.027-0.485,0.004-0.605-0.216-1.068c2,0.187,3.705,0.966,5.113,2.356
		c1.442,1.423,2.254,3.159,2.448,5.237c-0.392-0.305-0.794-0.291-1.199-0.223c-0.441,0.074-0.747,0.473-0.722,0.916
		c0.024,0.432,0.411,0.813,0.853,0.83c0.358,0.014,0.719,0.029,1.067-0.252c-0.192,2.069-0.995,3.795-2.42,5.213
		c-1.414,1.406-3.131,2.195-5.178,2.385c0.308-0.396,0.291-0.798,0.223-1.203c-0.074-0.438-0.479-0.746-0.919-0.717
		c-0.434,0.029-0.81,0.414-0.826,0.857c-0.013,0.358-0.029,0.718,0.23,1.033C618.97,44.456,615.467,41.136,615.233,37.11z
		 M622.19,36.446c-0.009,0.664,0.55,1.222,1.25,1.249c0.102,0.004,0.223,0.05,0.3,0.117c0.745,0.649,1.48,1.308,2.222,1.96
		c0.26,0.228,0.574,0.23,0.807,0.019c0.268-0.242,0.274-0.577,0.01-0.881c-0.652-0.751-1.307-1.499-1.955-2.253
		c-0.069-0.08-0.12-0.195-0.135-0.3c-0.049-0.357-0.19-0.656-0.468-0.893c-0.056-0.048-0.091-0.147-0.095-0.225
		c-0.047-0.932-0.084-1.865-0.128-2.797c-0.018-0.378-0.029-0.757-0.076-1.132c-0.032-0.258-0.238-0.415-0.473-0.423
		c-0.231-0.008-0.428,0.145-0.496,0.399c-0.024,0.09-0.032,0.186-0.037,0.28c-0.066,1.236-0.128,2.472-0.199,3.707
		c-0.005,0.082-0.054,0.18-0.115,0.237C622.34,35.764,622.211,36.072,622.19,36.446z"/>
	<path display="inline" d="M224.853,256.146c0.514-9.335,3.728-16.988,10.303-23.283c1.497-1.434,2.735-3.864,2.852-5.906
		c1.765-30.773,3.31-61.558,4.95-92.338c0.124-2.335,0.314-4.724,0.921-6.967c1.709-6.312,6.598-10.122,12.361-9.933
		c5.854,0.191,10.983,4.096,11.782,10.532c1.158,9.331,1.443,18.78,1.887,28.188c1.095,23.22,2.019,46.448,3.183,69.664
		c0.097,1.931,0.971,4.407,2.365,5.592c6.945,5.899,10.441,13.344,11.665,22.243c0.359,2.61,1.635,5.46,3.352,7.461
		c16.125,18.795,32.454,37.414,48.687,56.116c6.567,7.565,6.425,15.914-0.26,21.947c-5.823,5.255-13.641,5.21-20.107-0.475
		c-18.473-16.24-36.792-32.655-55.338-48.81c-1.915-1.668-4.918-2.815-7.466-2.914C238.54,286.586,224.629,272.678,224.853,256.146z
		"/>
</g>
<g display="none">
	<path fill="#FFFFFF" d="M633.841,37.456c0,3.128,0,6.256,0,9.384c-2.532,0-5.065,0-7.597,0c0.264-0.055,0.531-0.098,0.791-0.168
		c1.535-0.41,2.75-1.912,2.778-3.498c0.03-1.712,0.014-3.425,0.017-5.138c0-0.037-0.009-0.073-0.018-0.136
		c-0.066,0.059-0.111,0.097-0.152,0.138c-0.69,0.689-1.376,1.381-2.07,2.066c-0.107,0.105-0.142,0.213-0.141,0.357
		c0.005,0.792,0.009,1.584,0.001,2.376c-0.01,0.966-0.641,1.607-1.582,1.608c-2.952,0.003-5.903,0.003-8.855,0
		c-0.927-0.001-1.576-0.647-1.577-1.571c-0.004-2.958-0.005-5.917,0.006-8.875c0.001-0.242,0.059-0.504,0.164-0.722
		c0.287-0.598,0.805-0.847,1.453-0.847c0.812,0,1.625,0.005,2.437-0.006c0.107-0.001,0.239-0.054,0.315-0.129
		c0.701-0.687,1.393-1.383,2.087-2.078c0.04-0.04,0.075-0.086,0.132-0.153c-0.09-0.007-0.148-0.015-0.206-0.015
		c-1.604-0.001-3.209-0.004-4.813,0.003c-0.289,0.001-0.586,0.017-0.866,0.084c-1.568,0.374-2.567,1.346-2.984,2.906
		c-0.052,0.194-0.08,0.395-0.119,0.593c0-2.529,0-5.059,0-7.597c3.155,0,6.31,0,9.466,0c-0.184,0.04-0.373,0.066-0.551,0.125
		c-0.225,0.074-0.285,0.222-0.17,0.426c0.092,0.163,0.203,0.322,0.334,0.455c0.859,0.873,1.726,1.738,2.59,2.606
		c0.051,0.052,0.1,0.106,0.159,0.168c-0.059,0.062-0.108,0.116-0.16,0.168c-1.392,1.392-2.786,2.784-4.177,4.177
		c-1.018,1.02-1.018,2.43-0.003,3.449c0.592,0.595,1.186,1.188,1.78,1.78c0.096,0.095,0.194,0.19,0.301,0.271
		c0.97,0.736,2.24,0.636,3.134-0.254c1.4-1.394,2.795-2.794,4.192-4.191c0.055-0.055,0.113-0.107,0.188-0.178
		c0.065,0.074,0.111,0.134,0.163,0.186c0.853,0.851,1.704,1.703,2.563,2.547c0.143,0.14,0.313,0.258,0.487,0.359
		c0.183,0.106,0.308,0.052,0.376-0.151C633.768,37.813,633.799,37.633,633.841,37.456z"/>
	<path display="inline" d="M511,280.902c-1.031,4.322-1.777,8.739-3.168,12.942c-1.647,4.977-4.729,6.312-9.21,3.702
		c-4.253-2.477-8.437-5.363-11.934-8.799c-21.064-20.7-41.926-41.606-62.836-62.462c-1.287-1.284-2.409-2.734-4.003-4.561
		c-1.833,1.729-3.259,3.008-4.611,4.36c-34.259,34.258-68.453,68.582-102.785,102.768c-21.907,21.814-53.059,24.262-76.836,6.225
		c-2.631-1.996-5.04-4.316-7.387-6.652c-14.58-14.516-29.137-29.056-43.655-43.634c-24.889-24.993-24.879-59.577,0.077-84.575
		c34.112-34.17,68.284-68.281,102.425-102.424c1.266-1.266,2.47-2.594,3.914-4.116c-1.436-1.52-2.636-2.848-3.897-4.116
		c-21.186-21.284-42.442-42.5-63.507-63.903c-3.209-3.26-5.928-7.164-8.185-11.159c-2.83-5.01-1.35-8.631,4.167-10.444
		C223.94,2.62,228.574,1.988,233.09,1c79.355,0,158.711,0,238.066,0c3.594,0.369,7.179,0.868,10.782,1.086
		c17.61,1.067,24.622,7.213,27.493,24.531c0.779,4.7,1.06,9.482,1.569,14.226C511,120.863,511,200.883,511,280.902z"/>
	<path display="inline" d="M1,187.27c0.956-4.853,1.639-9.78,2.913-14.549c10.223-38.266,34.732-62.08,73.174-71.259
		c6.855-1.637,14.138-2.018,21.227-2.052c39.34-0.19,78.681-0.096,118.021-0.081c1.422,0.001,2.843,0.197,5.047,0.361
		c-1.401,1.632-2.249,2.761-3.237,3.75c-17.011,17.028-33.97,34.11-51.165,50.95c-1.864,1.825-5.107,3.118-7.731,3.152
		c-19.916,0.259-39.837,0.138-59.756,0.146c-15.913,0.006-28.595,6.101-35.639,20.769c-2.563,5.338-3.989,11.763-4.01,17.698
		c-0.265,72.538-0.229,145.078-0.14,217.618c0.028,22.667,15.94,38.501,38.659,38.526c72.373,0.078,144.747,0.075,217.12,0.002
		c23.082-0.023,38.546-15.753,38.787-39.435c0.198-19.419,0.11-38.843-0.017-58.263c-0.023-3.545,0.846-6.175,3.468-8.762
		c17.017-16.785,33.853-33.754,50.76-50.651c1.015-1.015,2.126-1.935,3.736-3.39c0.211,1.545,0.444,2.446,0.442,3.346
		c-0.081,41.994,0.316,83.997-0.425,125.98c-0.686,38.869-30.473,75.703-68.111,85.757c-6.376,1.703-12.924,2.761-19.393,4.117
		c-78.359,0-156.719,0-235.078,0c-1.447-0.325-2.88-0.742-4.343-0.96c-38.069-5.683-64.367-26.362-78.173-62.266
		c-3.103-8.069-4.146-16.93-6.137-25.426C1,343.988,1,265.629,1,187.27z"/>
	<path fill="#FFFFFF" d="M613.041,43.225c0.081,0.347,0.124,0.708,0.25,1.037c0.563,1.464,1.636,2.308,3.188,2.539
		c0.06,0.009,0.118,0.026,0.177,0.039c-1.202,0-2.404,0-3.616,0C613.041,45.635,613.041,44.43,613.041,43.225z"/>
	<path fill="#FFFFFF" d="M633.841,27.666c-0.021-0.193-0.032-0.389-0.064-0.58c-0.117-0.706-0.403-0.957-1.121-1
		c-0.147-0.009-0.293-0.029-0.44-0.044c0.542,0,1.083,0,1.625,0C633.841,26.582,633.841,27.124,633.841,27.666z"/>
</g>
</svg>
