<?xml version="1.0" encoding="utf-8"?>
<!-- Generator: Adobe Illustrator 17.0.0, SVG Export Plug-In . SVG Version: 6.00 Build 0)  -->
<!DOCTYPE svg PUBLIC "-//W3C//DTD SVG 1.1//EN" "http://www.w3.org/Graphics/SVG/1.1/DTD/svg11.dtd">
<svg version="1.1" id="Layer_1" xmlns="http://www.w3.org/2000/svg" xmlns:xlink="http://www.w3.org/1999/xlink" x="0px" y="0px"
	 width="512px" height="512px" viewBox="0 0 512 512" enable-background="new 0 0 512 512" xml:space="preserve">
<g>
	<line fill="none" stroke="#B35047" x1="32" y1="0" x2="32" y2="512"/>
	<line fill="none" stroke="#B35047" x1="64" y1="0" x2="64" y2="512"/>
	<line fill="none" stroke="#B35047" x1="96" y1="0" x2="96" y2="512"/>
	<line fill="none" stroke="#B35047" x1="128" y1="0" x2="128" y2="512"/>
	<line fill="none" stroke="#B35047" x1="160" y1="0" x2="160" y2="512"/>
	<line fill="none" stroke="#B35047" x1="192" y1="0" x2="192" y2="512"/>
	<line fill="none" stroke="#B35047" x1="224" y1="0" x2="224" y2="512"/>
	<line fill="none" stroke="#B35047" x1="256" y1="0" x2="256" y2="512"/>
	<line fill="none" stroke="#B35047" x1="288" y1="0" x2="288" y2="512"/>
	<line fill="none" stroke="#B35047" x1="320" y1="0" x2="320" y2="512"/>
	<line fill="none" stroke="#B35047" x1="352" y1="0" x2="352" y2="512"/>
	<line fill="none" stroke="#B35047" x1="384" y1="0" x2="384" y2="512"/>
	<line fill="none" stroke="#B35047" x1="416" y1="0" x2="416" y2="512"/>
	<line fill="none" stroke="#B35047" x1="448" y1="0" x2="448" y2="512"/>
	<line fill="none" stroke="#B35047" x1="480" y1="0" x2="480" y2="512"/>
	<line fill="none" stroke="#B35047" x1="0" y1="32" x2="512" y2="32"/>
	<line fill="none" stroke="#B35047" x1="0" y1="64" x2="512" y2="64"/>
	<line fill="none" stroke="#B35047" x1="0" y1="96" x2="512" y2="96"/>
	<line fill="none" stroke="#B35047" x1="0" y1="128" x2="512" y2="128"/>
	<line fill="none" stroke="#B35047" x1="0" y1="160" x2="512" y2="160"/>
	<line fill="none" stroke="#B35047" x1="0" y1="192" x2="512" y2="192"/>
	<line fill="none" stroke="#B35047" x1="0" y1="224" x2="512" y2="224"/>
	<line fill="none" stroke="#B35047" x1="0" y1="256" x2="512" y2="256"/>
	<line fill="none" stroke="#B35047" x1="0" y1="288" x2="512" y2="288"/>
	<line fill="none" stroke="#B35047" x1="0" y1="320" x2="512" y2="320"/>
	<line fill="none" stroke="#B35047" x1="0" y1="352" x2="512" y2="352"/>
	<line fill="none" stroke="#B35047" x1="0" y1="384" x2="512" y2="384"/>
	<line fill="none" stroke="#B35047" x1="0" y1="416" x2="512" y2="416"/>
	<line fill="none" stroke="#B35047" x1="0" y1="448" x2="512" y2="448"/>
	<line fill="none" stroke="#B35047" x1="0" y1="480" x2="512" y2="480"/>
	<rect x="0" fill="none" stroke="#B35047" width="512" height="512"/>
</g>
<g display="none">
	<path fill="#FFFFFF" d="M557.841,26.855c0,3.44,0,6.879,0,10.319c-6.933,0-13.867,0-20.8,0c0-6.933,0-13.867,0-20.8
		c1.855,0,3.71,0,5.566,0c-0.24,0.183-0.49,0.354-0.72,0.549c-1.53,1.298-2.643,2.906-3.461,4.724
		c-0.704,1.566-1.113,3.21-1.276,4.923c-0.155,1.633-0.008,3.226,0.503,4.785c0.501,1.53,1.242,2.923,2.352,4.1
		c0.289,0.306,0.611,0.581,0.918,0.869c0.014-0.012,0.027-0.024,0.041-0.036c-0.009-0.023-0.018-0.046-0.028-0.068
		c-1.071-2.248-1.625-4.605-1.505-7.106c0.052-1.092,0.288-2.141,0.725-3.143c0.123-0.282,0.272-0.552,0.423-0.854
		c0.171,0.517,0.318,0.993,0.486,1.461c0.138,0.384,0.323,0.747,0.63,1.028c0.313,0.286,0.652,0.261,0.874-0.099
		c0.146-0.237,0.255-0.51,0.317-0.781c0.23-1.002,0.141-2.004-0.06-2.999c-0.074-0.368-0.173-0.732-0.26-1.098
		c1.161,1.035,1.779,2.344,1.933,3.869c0.157,1.546-0.282,2.932-1.214,4.182c0.369-0.14,0.725-0.286,1.065-0.461
		c1.13-0.583,1.89-1.459,2.164-2.73c0.232-1.076,0.074-2.109-0.271-3.131c-0.367-1.086-0.873-2.109-1.386-3.13
		c-0.553-1.099-1.131-2.186-1.658-3.297c-0.235-0.495-0.372-1.038-0.553-1.558c5.065,0,10.129,0,15.194,0c0,3.44,0,6.879,0,10.319
		c-0.089-0.312-0.237-0.573-0.577-0.667c-0.273-0.076-0.514,0.002-0.755,0.133c-3.837,2.089-7.675,4.175-11.515,6.257
		c-0.088,0.047-0.211,0.09-0.299,0.066c-0.985-0.275-2.178,0.328-2.628,1.175c-0.312,0.587-0.231,1.205,0.244,1.575
		c0.382,0.299,0.83,0.355,1.291,0.272c0.866-0.156,1.523-0.596,1.888-1.426c0.042-0.094,0.131-0.188,0.222-0.237
		c3.818-2.081,7.638-4.158,11.46-6.231C557.493,27.436,557.76,27.234,557.841,26.855z"/>
	<path display="inline" d="M137.557,10.811c4.456,12.803,7.817,26.126,13.592,38.304c12.95,27.311,27.161,54.023,40.745,81.036
		c12.613,25.083,25.059,50.241,34.072,76.93c8.486,25.129,12.359,50.521,6.658,76.96c-6.737,31.244-25.415,52.771-53.193,67.097
		c-8.364,4.314-17.111,7.886-26.188,11.337c22.906-30.707,33.705-64.78,29.847-102.777c-3.806-37.483-18.988-69.64-47.52-95.084
		c2.147,8.99,4.561,17.926,6.39,26.981c4.942,24.464,7.127,49.094,1.476,73.711c-1.532,6.672-4.214,13.392-7.801,19.205
		c-5.459,8.847-13.787,9.457-21.487,2.43c-7.56-6.899-12.099-15.835-15.488-25.269c-4.135-11.509-7.746-23.205-11.942-35.908
		c-3.701,7.425-7.376,14.066-10.398,20.992c-10.743,24.618-16.528,50.39-17.814,77.241c-2.943,61.472,10.665,119.396,36.996,174.646
		c0.258,0.541,0.465,1.107,0.695,1.661c-0.335,0.295-0.67,0.591-1.005,0.886c-7.545-7.103-15.47-13.847-22.568-21.371
		c-27.306-28.942-45.506-63.181-57.821-100.784C2.246,340.701-1.373,301.563,2.447,261.42c4.005-42.084,14.045-82.494,31.36-120.989
		c20.098-44.682,47.461-84.207,85.064-116.116c5.648-4.793,11.78-9.016,17.688-13.503C136.892,10.811,137.224,10.811,137.557,10.811
		z"/>
	<path display="inline" d="M511,268.427c-1.972,9.308-8.546,14.274-16.453,18.561c-93.957,50.931-187.843,101.993-281.682,153.14
		c-2.244,1.223-4.447,3.514-5.467,5.836c-8.964,20.395-25.123,31.217-46.402,35.045c-11.331,2.039-22.33,0.663-31.722-6.675
		c-11.661-9.11-13.664-24.279-5.988-38.716c11.069-20.819,40.404-35.642,64.604-28.889c2.151,0.6,5.194-0.455,7.346-1.622
		c94.384-51.19,188.724-102.462,283.026-153.802c5.924-3.225,11.86-5.141,18.564-3.273c8.347,2.325,11.993,8.736,14.176,16.4
		C511,265.764,511,267.095,511,268.427z"/>
</g>
<g display="none">
	<path display="inline" d="M511,124.516c0,5.645,0,11.289,0,16.934c-2.097,3.908-3.812,8.086-6.348,11.685
		c-60.21,85.447-120.51,170.832-180.792,256.229c-17.032,24.128-34.026,48.283-51.106,72.377c-6.557,9.249-16.74,11.914-26.16,6.702
		c-8.323-4.605-10.383-12.264-9.607-21.203c2.682-30.883,1.01-61.322-9.721-90.771c-6.753-18.533-16.766-35.185-33.888-45.439
		c-36.753-22.009-75.583-23.227-112.908-3.277c-45.491,24.314-54.1,83.982-18.949,120.651
		c19.854,20.712,44.951,26.292,72.635,22.186c10.333-1.533,19.933-5.108,27.792-12.31c12.792-11.723,16.169-26.81,15.536-43.424
		c-1.254-32.921-36.594-52.657-65.628-36.583c-7.905,4.376-12.18,10.985-12.793,19.992c-0.436,6.402,3.721,13.053,9.399,14.116
		c2.661,0.498,6.066,0.694,8.172-0.572c2.01-1.208,2.887-4.439,4.058-6.879c3.984-8.301,12.857-12.685,21.889-10.711
		c8.601,1.88,14.497,9.202,14.796,18.174c0.365,10.952-4.57,19.585-12.132,26.796c-22.954,21.89-62.784,14.726-78.41-13.958
		c-15.86-29.112-2.189-67.999,28.814-82.448c16.651-7.761,34.043-9.717,51.97-6.928c25.714,4.001,46.057,16.377,58.765,39.661
		c9.128,16.725,10.985,34.875,9.719,53.583c-2.376,35.123-25.509,65.217-59.044,75.679c-9.265,2.89-19.026,4.192-28.56,6.223
		c-5.977,0-11.953,0-17.93,0c-4.075-0.653-8.163-1.234-12.222-1.972c-43.019-7.817-73.324-31.646-89.106-72.541
		C4.961,425.393,3.666,413.147,1,401.43c0-5.313,0-10.625,0-15.938c0.331-1.268,0.797-2.518,0.972-3.807
		c4.368-32.066,19.29-58.111,44.509-78.339c3.74-3,7.489-6.047,10.852-9.45c87.674-88.72,175.41-177.38,262.794-266.385
		c11.529-11.743,24.727-19.199,40.428-22.745c6.915-1.562,13.965-2.53,20.953-3.767c6.309,0,12.617,0,18.926,0
		c4.901,0.689,9.81,1.323,14.701,2.075c24.039,3.696,45.442,12.738,62.52,30.677c16.456,17.286,24.995,38.368,29.28,61.383
		C508.743,104.844,509.672,114.717,511,124.516z M359.495,291.268c1.414-1.951,2.467-3.374,3.489-4.82
		c13.965-19.771,27.841-39.605,41.961-59.265c2.595-3.613,3.836-7.24,3.406-11.541c-0.378-3.791-0.541-7.629-1.268-11.355
		c-10.626-54.488-62.687-92.801-117.489-86.356c-2.526,0.297-5.368,1.803-7.188,3.622c-19.123,19.111-38.071,38.398-57.052,57.65
		c-0.997,1.011-1.865,2.149-3.044,3.52C289.251,192.028,333.689,229.121,359.495,291.268z M275.38,410.047
		c1.317-1.65,2.378-2.849,3.297-4.15c11.487-16.254,22.768-32.66,34.544-48.701c3.361-4.579,4.331-9.077,3.506-14.352
		c-6.152-39.333-26.386-69.582-59.55-91.149c-23.993-15.603-50.839-21.195-79.126-20.54c-2.449,0.057-5.388,1.595-7.187,3.37
		c-12.52,12.354-24.804,24.947-37.143,37.483c-0.959,0.974-1.759,2.104-2.45,2.941c12.13,1.381,24.058,2.076,35.726,4.196
		c29.955,5.444,55.032,19.674,74.316,43.508c15.231,18.825,24.162,40.609,29.459,64.01
		C272.478,394.195,273.772,401.82,275.38,410.047z M451.95,160.417c6.58-9.343,12.888-18.231,19.077-27.2
		c0.587-0.85,0.615-2.219,0.59-3.339c-0.353-15.327-2.276-30.428-7.509-44.911c-6.705-18.554-18.514-32.459-37.567-39.128
		c-17.576-6.152-35.591-6.748-53.965-4.166c-16.695,2.347-25.894,14.512-36.572,25.694
		C391.438,77.719,431.276,106.653,451.95,160.417z"/>
	<path fill="#FFFFFF" d="M542.241,96.041c0.389-0.083,0.787-0.136,1.165-0.254c1.368-0.427,2.311-1.654,2.408-3.086
		c0.052-0.763-0.024-1.503-0.396-2.185c-0.518-0.95-1.348-1.454-2.397-1.618c-0.731-0.114-1.44-0.034-2.12,0.283
		c-1.264,0.589-1.822,2.175-1.175,3.363c0.637,1.17,2.262,1.462,3.198,0.569c0.308-0.294,0.51-0.646,0.495-1.093
		c-0.012-0.366-0.253-0.665-0.603-0.741c-0.368-0.081-0.73,0.098-0.893,0.437c-0.048,0.1-0.083,0.231-0.165,0.281
		c-0.086,0.052-0.225,0.044-0.333,0.023c-0.232-0.043-0.401-0.315-0.383-0.576c0.025-0.367,0.199-0.637,0.522-0.815
		c1.184-0.656,2.625,0.149,2.677,1.492c0.026,0.678-0.112,1.293-0.634,1.771c-0.32,0.294-0.712,0.44-1.133,0.502
		c-1.129,0.167-2.153-0.06-2.962-0.905c-1.434-1.496-1.082-3.929,0.773-4.921c1.522-0.814,3.106-0.764,4.605,0.134
		c0.698,0.418,1.107,1.097,1.382,1.853c0.438,1.201,0.506,2.442,0.396,3.702c-0.032,0.365,0.052,0.677,0.392,0.865
		c0.384,0.213,0.799,0.104,1.067-0.273c0.697-0.983,1.39-1.968,2.084-2.952c2.459-3.483,4.918-6.965,7.373-10.45
		c0.103-0.147,0.173-0.317,0.259-0.477c0,5.024,0,10.048,0,15.072C552.641,96.041,547.441,96.041,542.241,96.041z"/>
	<path fill="#FFFFFF" d="M552.559,75.241c-0.285,0.05-0.573,0.09-0.855,0.154c-0.64,0.145-1.179,0.449-1.649,0.928
		c-3.564,3.63-7.142,7.246-10.718,10.864c-0.137,0.139-0.29,0.263-0.443,0.385c-1.029,0.825-1.637,1.887-1.815,3.195
		c-0.007,0.053-0.026,0.104-0.04,0.155c0-5.224,0-10.447,0-15.681C542.214,75.241,547.386,75.241,552.559,75.241z"/>
	<path fill="#FFFFFF" d="M537.041,91.572c0.109,0.478,0.162,0.977,0.336,1.43c0.644,1.668,1.88,2.64,3.634,2.959
		c0.166,0.03,0.332,0.054,0.498,0.08c-1.486,0-2.972,0-4.469,0C537.041,94.551,537.041,93.061,537.041,91.572z"/>
	<path fill="#FFFFFF" d="M557.841,80.278c-0.054-0.4-0.092-0.802-0.166-1.198c-0.175-0.939-0.523-1.798-1.194-2.503
		c-0.696-0.732-1.569-1.1-2.55-1.251c-0.199-0.031-0.4-0.057-0.6-0.085c1.503,0,3.006,0,4.509,0
		C557.841,76.92,557.841,78.599,557.841,80.278z"/>
	<path fill="#FFFFFF" d="M551.662,87.079c-1.052-2.535-2.865-4.047-5.595-4.427c0.048-0.056,0.083-0.102,0.124-0.144
		c0.774-0.785,1.547-1.572,2.327-2.351c0.074-0.074,0.19-0.136,0.293-0.148c2.235-0.263,4.358,1.3,4.792,3.522
		c0.03,0.152,0.036,0.309,0.052,0.463c0.018,0.175-0.033,0.323-0.139,0.471c-0.576,0.802-1.142,1.611-1.711,2.417
		C551.762,86.941,551.719,86.999,551.662,87.079z"/>
	<path fill="#FFFFFF" d="M548.231,91.923c-0.066-0.336-0.118-0.646-0.188-0.954c-0.216-0.954-0.58-1.843-1.201-2.611
		c-0.786-0.972-1.809-1.552-3.031-1.774c-0.476-0.086-0.962-0.115-1.457-0.171c0.028-0.034,0.061-0.08,0.1-0.12
		c0.503-0.511,1.004-1.025,1.515-1.529c0.073-0.072,0.193-0.135,0.293-0.137c1.154-0.027,2.249,0.201,3.227,0.838
		c1.353,0.88,2.178,2.113,2.429,3.717c0.034,0.215-0.006,0.399-0.143,0.585c-0.48,0.654-0.94,1.323-1.409,1.986
		C548.328,91.807,548.285,91.856,548.231,91.923z"/>
	<path fill="#FFFFFF" d="M555.432,81.742c-0.843-2.193-2.468-3.373-4.729-3.795c0.435-0.456,0.811-0.952,1.492-1.048
		c0.749-0.105,1.484-0.081,2.201,0.17c0.777,0.272,1.259,0.839,1.532,1.596c0.213,0.591,0.292,1.207,0.306,1.832
		c0.001,0.046,0,0.102-0.024,0.136C555.958,80.999,555.701,81.361,555.432,81.742z"/>
</g>
<image display="none" overflow="visible" width="512" height="512" xlink:href="../../../Knowledge/Icon/[+++++] (Full) Windows 8 Icons [icons8]/Charts/combo/combo-512.png"  transform="matrix(0.0406 0 0 0.0406 539 48)">
</image>
<g>
	<path display="none" fill="#FFFFFF" d="M546.881,68.841c-0.691,0-1.381,0-2.072,0c0.382-0.164,0.625-0.417,0.624-0.869
		c-0.006-2.354,0-4.707-0.004-7.061c-0.001-0.546-0.307-0.86-0.856-0.863c-1.555-0.008-3.111-0.005-4.667-0.001
		c-0.408,0.001-0.698,0.183-0.828,0.585c-0.005,0.017-0.025,0.029-0.038,0.043c0-4.209,0-8.418,0-12.631c6.933,0,13.867,0,20.8,0
		c0,0.742,0,1.486,0,2.231c-0.19-0.51-0.578-0.643-1.09-0.636c-1.434,0.018-2.869,0.006-4.303,0.007
		c-0.115,0-0.231,0.004-0.344,0.021c-0.337,0.049-0.603,0.327-0.64,0.666c-0.011,0.101-0.013,0.203-0.013,0.304
		c-0.001,5.738-0.001,11.476,0,17.214c0,0.088,0.002,0.176,0.009,0.263c0.024,0.304,0.187,0.513,0.456,0.646
		c0.053,0.026,0.104,0.054,0.156,0.081c-0.691,0-1.381,0-2.072,0c0.423-0.162,0.641-0.454,0.641-0.922
		c-0.005-3.655-0.002-7.309-0.003-10.964c0-0.587-0.32-0.906-0.902-0.906c-1.53-0.001-3.059-0.001-4.589,0
		c-0.088,0-0.177,0-0.262,0.018c-0.412,0.087-0.64,0.411-0.64,0.908c-0.001,3.601,0.005,7.201-0.006,10.802
		C546.236,68.285,546.379,68.659,546.881,68.841z M546.223,49.662c-1.595,0-3.166,0-4.737,0c-0.009,0.015-0.019,0.03-0.028,0.045
		c0.525,0.514,1.051,1.028,1.615,1.58c-1.064,1.062-2.11,2.106-3.122,3.115c0.505,0.507,1.014,1.018,1.546,1.553
		c1.026-1.025,2.069-2.067,3.153-3.15c0.519,0.523,1.043,1.052,1.574,1.588C546.223,52.813,546.223,51.244,546.223,49.662z"/>
	<path d="M369.555,491.41c-1.277-0.665-2.544-1.352-3.834-1.99c-6.593-3.26-10.57-8.374-11.168-15.838
		c-0.172-2.146-0.227-4.307-0.227-6.461c-0.01-140.689-0.011-281.378,0.003-422.067c0-2.485,0.037-4.986,0.309-7.451
		c0.916-8.312,7.429-15.115,15.703-16.32c2.777-0.405,5.618-0.508,8.429-0.511c35.172-0.033,70.348,0.268,105.515-0.176
		c12.544-0.159,22.065,3.095,26.716,15.601c0,146.426,0,292.852,0,439.277c-2.709,7.916-8.021,13.229-15.938,15.938
		C453.227,491.41,411.391,491.41,369.555,491.41z"/>
	<path d="M193.246,491.41c-12.318-4.441-15.824-13.626-15.785-26.097c0.27-88.281,0.137-176.564,0.152-264.846
		c0.002-12.184,5.595-20.133,15.696-22.26c2.084-0.439,4.285-0.448,6.432-0.449c37.503-0.025,75.007-0.034,112.51-0.01
		c14.293,0.009,22.124,7.81,22.129,22.215c0.032,89.61-0.036,179.219,0.082,268.829c0.015,11.484-5.333,18.647-15.707,22.618
		C276.918,491.41,235.082,491.41,193.246,491.41z"/>
	<path d="M1,291.196c0.319-0.351,0.8-0.65,0.933-1.062c3.187-9.858,10.294-14.318,20.293-14.338
		c38.14-0.076,76.28-0.157,114.419,0.035c13.455,0.068,20.968,7.765,20.99,21.161c0.097,57.707-0.032,115.415,0.104,173.122
		c0.026,11.067-5.917,17.274-15.294,21.298c-41.836,0-83.672,0-125.508,0C9.021,488.702,3.709,483.389,1,475.473
		C1,414.047,1,352.621,1,291.196z"/>
	<path display="none" fill="#FFFFFF" d="M539.041,68.191c0.11,0.323,0.327,0.54,0.65,0.65c-0.217,0-0.433,0-0.65,0
		C539.041,68.624,539.041,68.407,539.041,68.191z"/>
	<path display="none" fill="#FFFFFF" d="M559.191,68.841c0.323-0.11,0.539-0.327,0.65-0.65c0,0.217,0,0.433,0,0.65
		C559.624,68.841,559.407,68.841,559.191,68.841z"/>
	<path d="M177.109,21.16c0,38.803,0,77.271,0,115.995c-13.031-13.143-25.884-26.105-38.598-38.928
		c-26.577,26.552-52.136,52.086-77.299,77.225c-13.054-13.111-25.534-25.645-37.907-38.072
		c24.804-24.749,50.461-50.35,76.552-76.383C86.018,47.462,73.136,34.861,60.253,22.26c0.232-0.367,0.464-0.733,0.696-1.1
		C99.475,21.16,138.001,21.16,177.109,21.16z"/>
</g>
<g display="none">
	<path fill="#FFFFFF" d="M554.072,68.841c-0.691,0-1.381,0-2.072,0c0.424-0.161,0.641-0.454,0.64-0.922
		c-0.005-3.655-0.002-7.309-0.003-10.964c0-0.589-0.318-0.906-0.902-0.906c-1.53-0.001-3.059-0.001-4.589,0.001
		c-0.094,0-0.191,0.003-0.282,0.024c-0.405,0.095-0.621,0.41-0.621,0.902c-0.001,3.594,0.005,7.188-0.006,10.781
		c-0.002,0.513,0.132,0.899,0.644,1.085c-0.691,0-1.381,0-2.072,0c0.008-0.01,0.014-0.027,0.024-0.03
		c0.448-0.145,0.601-0.47,0.6-0.92c-0.005-4.107-0.003-8.214-0.003-12.322c0-1.671,0.001-3.343-0.001-5.014
		c-0.001-0.583-0.292-0.903-0.854-0.906c-1.556-0.008-3.112-0.004-4.669-0.002c-0.381,0-0.662,0.164-0.811,0.527
		c-0.015,0.035-0.037,0.068-0.055,0.102c0-0.744,0-1.489,0-2.234c6.929,0,13.858,0,20.8,0c0,4.211,0,8.422,0,12.634
		c-0.16-0.387-0.419-0.631-0.866-0.63c-1.555,0.003-3.111,0-4.667,0.002c-0.344,0-0.631,0.126-0.772,0.454
		c-0.064,0.149-0.082,0.327-0.083,0.492c-0.005,2.299-0.004,4.599-0.003,6.898c0,0.074,0.003,0.149,0.009,0.223
		c0.025,0.304,0.188,0.512,0.456,0.646C553.968,68.786,554.02,68.813,554.072,68.841z M554.284,56.021c1.578,0,3.155,0,4.73,0
		c0-1.588,0-3.16,0-4.732c-0.017-0.012-0.034-0.025-0.052-0.037c-0.524,0.53-1.049,1.061-1.596,1.614
		c-1.05-1.048-2.091-2.088-3.124-3.12c-0.51,0.507-1.022,1.017-1.569,1.56c1.045,1.041,2.093,2.085,3.171,3.159
		C555.325,54.984,554.805,55.502,554.284,56.021z"/>
	<path display="inline" d="M1,36.133c0.455-0.83,0.994-1.625,1.351-2.496c3.653-8.903,10.54-12.907,19.889-12.917
		c38.158-0.043,76.318-0.154,114.475,0.054c13.792,0.075,20.93,7.942,20.949,22.227c0.054,40.979,0.021,81.958,0.021,122.937
		c0,100.705-0.05,201.411,0.07,302.116c0.013,11.034-3.725,18.996-14.713,22.561c-0.252,0.082-0.4,0.482-0.596,0.733
		c-41.836,0-83.672,0-125.508,0C9.021,488.639,3.709,483.327,1,475.411C1,328.985,1,182.559,1,36.133z"/>
	<path display="inline" d="M193.246,491.348c-12.558-4.548-15.828-14.019-15.789-26.601c0.277-88.115,0.141-176.232,0.155-264.348
		c0.002-12.056,5.297-19.777,15.232-22.107c2.228-0.522,4.6-0.588,6.906-0.59c37.503-0.034,75.007-0.041,112.51-0.016
		c14.312,0.009,22.113,7.788,22.119,22.221c0.032,89.61-0.034,179.219,0.079,268.829c0.015,11.472-5.317,18.654-15.704,22.612
		C276.918,491.348,235.082,491.348,193.246,491.348z"/>
	<path display="inline" d="M369.555,491.348c-1.277-0.664-2.544-1.347-3.832-1.99c-6.565-3.277-10.557-8.376-11.174-15.835
		c-0.15-1.815-0.223-3.642-0.223-5.463c-0.011-56.381-0.049-112.762,0.075-169.142c0.009-4.048,0.456-8.42,2.025-12.072
		c3.458-8.047,10.492-11.122,18.93-11.13c38.14-0.036,76.28,0.026,114.42-0.039c10.949-0.019,17.309,5.968,21.225,15.456
		c0,61.426,0,122.852,0,184.277c-2.709,7.916-8.021,13.229-15.938,15.938C453.227,491.348,411.391,491.348,369.555,491.348z"/>
	<path fill="#FFFFFF" d="M539.041,68.191c0.11,0.323,0.327,0.54,0.65,0.65c-0.217,0-0.433,0-0.65,0
		C539.041,68.624,539.041,68.407,539.041,68.191z"/>
	<path fill="#FFFFFF" d="M559.191,68.841c0.323-0.11,0.539-0.327,0.65-0.65c0,0.217,0,0.433,0,0.65
		C559.624,68.841,559.407,68.841,559.191,68.841z"/>
	<path display="inline" d="M374.767,177.029c12.776-12.738,25.518-25.443,38.258-38.145c-26.427-26.334-52.127-51.942-77.741-77.465
		c13.391-13.315,25.965-25.818,38.46-38.243c25.334,25.3,50.872,50.803,76.609,76.506c13.415-13.566,26.274-26.569,39.133-39.573
		c0.422,0.302,0.844,0.604,1.267,0.907c0,38.542,0,77.084,0,116.014C452.134,177.029,413.446,177.029,374.767,177.029z"/>
</g>
<g display="none">
	<path fill="#FFFFFF" d="M539.042,68.841c0-6.931,0-13.863,0-20.797c6.929,0,13.859,0,20.794,0c0,6.93,0,13.864,0,20.797
		C552.905,68.841,545.973,68.841,539.042,68.841z M549.44,59.403c-0.852,0.001-1.503,0.716-1.423,1.57
		c0.013,0.136-0.023,0.223-0.132,0.309c-0.548,0.431-1.094,0.865-1.631,1.309c-0.13,0.107-0.238,0.128-0.399,0.08
		c-0.562-0.166-1.062-0.035-1.461,0.392c-0.122,0.131-0.229,0.152-0.386,0.123c-0.598-0.109-1.198-0.214-1.798-0.313
		c-0.125-0.021-0.195-0.067-0.247-0.192c-0.275-0.652-0.986-1.011-1.643-0.845c-0.615,0.156-1.061,0.659-1.11,1.251
		c-0.054,0.646,0.284,1.226,0.859,1.476c0.566,0.246,1.211,0.098,1.653-0.367c0.051-0.054,0.162-0.089,0.237-0.077
		c0.641,0.102,1.279,0.22,1.92,0.323c0.127,0.02,0.196,0.065,0.253,0.186c0.303,0.647,0.994,0.982,1.642,0.811
		c0.724-0.191,1.157-0.796,1.096-1.543c-0.01-0.121,0.014-0.198,0.112-0.276c0.574-0.452,1.144-0.91,1.711-1.372
		c0.098-0.08,0.18-0.067,0.295-0.05c0.25,0.037,0.507,0.057,0.759,0.041c0.119-0.007,0.196-0.005,0.282,0.082
		c0.643,0.65,1.289,1.296,1.938,1.939c0.083,0.082,0.099,0.155,0.074,0.267c-0.131,0.591,0.099,1.187,0.598,1.506
		c0.522,0.334,1.062,0.335,1.589,0.01c0.489-0.301,0.735-0.894,0.621-1.479c-0.025-0.13,0.002-0.211,0.093-0.303
		c0.893-0.906,1.783-1.816,2.67-2.729c0.094-0.097,0.171-0.127,0.313-0.095c0.773,0.178,1.506-0.28,1.712-1.053
		c0.194-0.729-0.243-1.495-0.984-1.723c-1.005-0.309-1.996,0.558-1.836,1.6c0.015,0.1,0.015,0.247-0.044,0.309
		c-0.91,0.947-1.83,1.884-2.753,2.818c-0.044,0.045-0.136,0.057-0.206,0.058c-0.234,0.004-0.469,0.001-0.703-0.011
		c-0.083-0.004-0.189-0.017-0.242-0.069c-0.656-0.645-1.304-1.3-1.957-1.949c-0.082-0.081-0.094-0.152-0.068-0.267
		C551.041,60.247,550.357,59.402,549.44,59.403z M540.652,56.149c-0.007,0.018-0.014,0.037-0.02,0.055
		c-1.058,0.007-1.759,1.131-1.286,2.064c0.3,0.593,0.887,0.891,1.548,0.786c0.609-0.097,1.086-0.591,1.17-1.234
		c0.019-0.145,0.073-0.221,0.204-0.284c0.718-0.348,1.432-0.703,2.144-1.063c0.107-0.054,0.186-0.061,0.295,0.001
		c0.509,0.29,1.027,0.287,1.516-0.03c0.483-0.313,0.696-0.78,0.645-1.355c-0.011-0.125,0.025-0.198,0.119-0.273
		c0.568-0.449,1.134-0.901,1.694-1.36c0.102-0.084,0.189-0.098,0.31-0.055c0.377,0.134,0.742,0.089,1.104-0.075
		c0.074-0.033,0.199-0.023,0.271,0.018c0.497,0.288,0.985,0.593,1.481,0.884c0.112,0.066,0.155,0.137,0.16,0.27
		c0.034,0.847,0.768,1.469,1.605,1.371c0.823-0.096,1.394-0.869,1.238-1.692c-0.026-0.136,0-0.223,0.096-0.321
		c0.893-0.906,1.783-1.816,2.67-2.728c0.087-0.09,0.159-0.124,0.295-0.092c0.674,0.162,1.331-0.163,1.635-0.79
		c0.284-0.587,0.108-1.32-0.418-1.736c-0.468-0.371-1.104-0.409-1.636-0.098c-0.5,0.292-0.768,0.884-0.667,1.478
		c0.019,0.113,0.039,0.207-0.063,0.311c-0.914,0.924-1.819,1.856-2.733,2.781c-0.048,0.048-0.154,0.078-0.221,0.063
		c-0.358-0.079-0.695-0.04-1.029,0.114c-0.074,0.034-0.2,0.029-0.271-0.012c-0.498-0.287-0.986-0.591-1.481-0.884
		c-0.102-0.06-0.148-0.123-0.154-0.252c-0.029-0.636-0.341-1.096-0.939-1.317c-1.023-0.379-2.044,0.462-1.916,1.501
		c0.015,0.121-0.021,0.198-0.118,0.274c-0.574,0.453-1.144,0.91-1.711,1.372c-0.089,0.073-0.164,0.083-0.273,0.049
		c-0.934-0.297-1.792,0.264-1.916,1.241c-0.009,0.07-0.069,0.162-0.131,0.193c-0.741,0.377-1.486,0.747-2.233,1.111
		c-0.058,0.028-0.149,0.014-0.215-0.008C541.163,56.339,540.908,56.242,540.652,56.149z"/>
	<path display="inline" d="M256.024,309.722c22.838-0.024,39.848,21.019,34.956,43.553c-0.623,2.871-0.331,4.632,1.706,6.656
		c16.259,16.152,32.377,32.445,48.719,48.511c1.316,1.294,3.954,1.609,6.012,1.713c5.826,0.296,11.672,0.359,17.506,0.263
		c1.741-0.029,4.024-0.338,5.119-1.447c22.972-23.259,45.872-46.591,68.525-70.16c1.472-1.532,1.472-5.184,1.087-7.686
		c-3.987-25.936,20.686-47.511,45.71-39.82c18.43,5.664,29.325,24.747,24.488,42.891c-5.134,19.258-23.372,30.657-42.625,26.219
		c-3.538-0.815-5.466-0.044-7.8,2.358c-22.075,22.723-44.224,45.374-66.46,67.94c-2.258,2.292-2.943,4.314-2.311,7.539
		c2.855,14.564-3.274,29.313-15.448,36.812c-13.127,8.087-26.574,8.055-39.558-0.255c-12.413-7.944-18.157-22.786-14.885-37.489
		c0.622-2.796,0.228-4.606-1.832-6.645c-16.167-16.005-32.253-32.092-48.254-48.262c-2.149-2.171-4.051-2.228-7.022-2.046
		c-6.266,0.384-12.666-0.116-18.897-1.029c-2.85-0.418-4.907-0.744-7.344,1.243c-14.101,11.498-28.294,22.885-42.585,34.146
		c-2.448,1.929-3.044,3.857-2.801,6.861c1.506,18.605-9.281,33.653-27.293,38.42c-16.125,4.268-33.326-4.074-40.875-20.177
		c-1.419-3.027-3.138-4.125-6.294-4.635c-15.947-2.573-31.834-5.516-47.787-8.043c-1.857-0.294-4.623,0.577-5.902,1.922
		c-11.002,11.564-27.041,15.255-41.138,9.129C8.423,431.982,0.03,417.561,1.366,401.472c1.225-14.758,12.328-27.276,27.631-31.151
		c16.346-4.139,34.043,4.81,40.896,21.032c1.311,3.104,3.036,4.255,6.157,4.77c14.941,2.464,29.86,5.07,44.757,7.792
		c3.909,0.714,6.575,0.181,9.614-3.073c9.929-10.632,22.378-13.906,36.358-9.763c4.027,1.193,6.711,0.677,9.944-1.997
		c13.371-11.058,26.947-21.871,40.592-32.592c2.711-2.13,3.617-4.297,3.297-7.69C218.603,327.545,234.819,309.745,256.024,309.722z"
		/>
	<path display="inline" d="M37.265,228.711c6.374,2.325,12.714,4.753,19.146,6.903c1.653,0.552,3.928,0.9,5.362,0.202
		c18.609-9.062,37.149-18.268,55.595-27.659c1.537-0.783,3.028-3.062,3.25-4.811c3.09-24.312,24.443-38.279,47.703-30.882
		c2.704,0.86,4.563,0.6,6.79-1.213c14.109-11.487,28.296-22.88,42.583-34.145c2.415-1.904,3.31-3.815,2.938-6.828
		c-3.187-25.862,22.23-46.799,47.706-37.375c14.888,5.507,22.659,16.937,23.386,32.779c0.148,3.218,1.305,4.768,3.84,6.27
		c12.312,7.293,24.469,14.852,36.86,22.005c1.767,1.02,4.897,1.152,6.749,0.296c8.297-3.836,16.689-4.79,25.608-2.832
		c1.673,0.367,4.305-0.361,5.497-1.568c22.74-23.012,45.275-46.227,68.03-69.223c2.544-2.571,2.048-4.925,1.572-7.733
		c-2.507-14.781,4.166-29.513,16.61-36.782c13.237-7.732,29.073-6.78,40.72,2.448c13.086,10.37,17.477,28.615,10.403,43.228
		c-7.56,15.616-23.915,23.709-40.69,19.678c-3.376-0.811-5.175,0.05-7.347,2.283c-22.09,22.706-44.229,45.364-66.47,67.923
		c-2.393,2.427-3.037,4.596-2.397,7.983c3.866,20.472-10.346,39.726-30.827,42.116c-20.82,2.43-39.092-13.057-39.947-34.13
		c-0.134-3.295-1.181-5.076-3.981-6.717c-12.344-7.237-24.48-14.83-36.865-21.995c-1.787-1.034-4.899-1.288-6.744-0.455
		c-9.01,4.072-18.1,5.184-27.479,1.859c-3.016-1.069-5.177-0.725-7.725,1.36c-13.951,11.414-28.034,22.668-42.169,33.854
		c-2.354,1.863-3.246,3.689-2.972,6.796c1.26,14.311-4.033,25.93-16.059,33.726c-12.189,7.902-25.087,7.971-37.746,0.75
		c-2.714-1.549-4.678-1.381-7.352-0.031c-17.722,8.952-35.495,17.806-53.364,26.458c-3.261,1.579-4.608,3.462-5.081,7.08
		c-2.092,16.01-13.967,28.314-29.132,30.717c-16.448,2.606-31.06-4.818-38.532-19.577c-11.758-23.225,5.681-51.205,32.021-51.376
		C36.928,229.631,37.096,229.171,37.265,228.711z"/>
</g>
</svg>
