<?xml version="1.0" encoding="utf-8"?>
<!-- Generator: Adobe Illustrator 17.0.0, SVG Export Plug-In . SVG Version: 6.00 Build 0)  -->
<!DOCTYPE svg PUBLIC "-//W3C//DTD SVG 1.1//EN" "http://www.w3.org/Graphics/SVG/1.1/DTD/svg11.dtd">
<svg version="1.1" id="Layer_1" xmlns="http://www.w3.org/2000/svg" xmlns:xlink="http://www.w3.org/1999/xlink" x="0px" y="0px"
	 width="512px" height="512px" viewBox="0 0 512 512" enable-background="new 0 0 512 512" xml:space="preserve">
<g>
	<line fill="none" stroke="#B35047" x1="32" y1="0" x2="32" y2="512"/>
	<line fill="none" stroke="#B35047" x1="64" y1="0" x2="64" y2="512"/>
	<line fill="none" stroke="#B35047" x1="96" y1="0" x2="96" y2="512"/>
	<line fill="none" stroke="#B35047" x1="128" y1="0" x2="128" y2="512"/>
	<line fill="none" stroke="#B35047" x1="160" y1="0" x2="160" y2="512"/>
	<line fill="none" stroke="#B35047" x1="192" y1="0" x2="192" y2="512"/>
	<line fill="none" stroke="#B35047" x1="224" y1="0" x2="224" y2="512"/>
	<line fill="none" stroke="#B35047" x1="256" y1="0" x2="256" y2="512"/>
	<line fill="none" stroke="#B35047" x1="288" y1="0" x2="288" y2="512"/>
	<line fill="none" stroke="#B35047" x1="320" y1="0" x2="320" y2="512"/>
	<line fill="none" stroke="#B35047" x1="352" y1="0" x2="352" y2="512"/>
	<line fill="none" stroke="#B35047" x1="384" y1="0" x2="384" y2="512"/>
	<line fill="none" stroke="#B35047" x1="416" y1="0" x2="416" y2="512"/>
	<line fill="none" stroke="#B35047" x1="448" y1="0" x2="448" y2="512"/>
	<line fill="none" stroke="#B35047" x1="480" y1="0" x2="480" y2="512"/>
	<line fill="none" stroke="#B35047" x1="0" y1="32" x2="512" y2="32"/>
	<line fill="none" stroke="#B35047" x1="0" y1="64" x2="512" y2="64"/>
	<line fill="none" stroke="#B35047" x1="0" y1="96" x2="512" y2="96"/>
	<line fill="none" stroke="#B35047" x1="0" y1="128" x2="512" y2="128"/>
	<line fill="none" stroke="#B35047" x1="0" y1="160" x2="512" y2="160"/>
	<line fill="none" stroke="#B35047" x1="0" y1="192" x2="512" y2="192"/>
	<line fill="none" stroke="#B35047" x1="0" y1="224" x2="512" y2="224"/>
	<line fill="none" stroke="#B35047" x1="0" y1="256" x2="512" y2="256"/>
	<line fill="none" stroke="#B35047" x1="0" y1="288" x2="512" y2="288"/>
	<line fill="none" stroke="#B35047" x1="0" y1="320" x2="512" y2="320"/>
	<line fill="none" stroke="#B35047" x1="0" y1="352" x2="512" y2="352"/>
	<line fill="none" stroke="#B35047" x1="0" y1="384" x2="512" y2="384"/>
	<line fill="none" stroke="#B35047" x1="0" y1="416" x2="512" y2="416"/>
	<line fill="none" stroke="#B35047" x1="0" y1="448" x2="512" y2="448"/>
	<line fill="none" stroke="#B35047" x1="0" y1="480" x2="512" y2="480"/>
	<rect x="0" fill="none" stroke="#B35047" width="512" height="512"/>
</g>
<g>
	<path display="none" fill="#FFFFFF" d="M590.834,79.841c-6.929,0-13.86,0-20.793,0c0-6.931,0-13.862,0-20.796
		c6.928,0,13.858,0,20.793,0C590.834,65.974,590.834,72.907,590.834,79.841z M580.959,75.284c0.055,0.036,0.094,0.062,0.133,0.088
		c1.874,1.232,4.48,0.528,5.413-1.481c0.154-0.332,0.281-0.598,0.705-0.524c0.044,0.008,0.092-0.018,0.139-0.024
		c1.751-0.252,3.184-1.774,3.32-3.526c0.148-1.91-1.026-3.608-2.86-4.149c-0.076-0.022-0.162-0.096-0.194-0.167
		c-0.94-2.086-3.13-2.991-5.255-2.163c-0.123,0.048-0.183,0.025-0.268-0.072c-1.221-1.405-2.76-2.006-4.602-1.745
		c-2.143,0.304-3.785,1.905-4.178,4.031c-0.027,0.149-0.094,0.198-0.219,0.239c-1.887,0.608-3.143,2.497-2.851,4.577
		c0.243,1.734,1.739,3.262,3.48,3.494c0.125,0.017,0.181,0.069,0.235,0.179c0.133,0.273,0.267,0.549,0.436,0.799
		c1.023,1.521,3.07,2.187,4.796,1.585C579.867,76.188,580.45,75.812,580.959,75.284z"/>
	<path d="M268.881,411.158c-12.677,13.133-27.188,22.499-44.082,28.399c-42.976,15.009-93.935-1.59-119.413-39.456
		c-4.203-6.247-7.536-13.118-10.849-19.908c-1.335-2.736-2.728-4.049-5.846-4.464c-43.346-5.78-80.604-43.844-86.648-87.01
		c-7.251-51.792,24.005-98.823,71.001-113.972c3.118-1.005,4.776-2.24,5.458-5.942c9.764-52.935,50.653-92.816,104.023-100.375
		c45.86-6.495,84.2,8.472,114.592,43.445c2.107,2.424,3.606,2.992,6.675,1.795c52.934-20.634,107.463,1.916,130.863,53.849
		c0.804,1.784,2.941,3.613,4.826,4.169c45.661,13.466,74.887,55.763,71.206,103.316c-3.378,43.632-39.057,81.525-82.66,87.8
		c-1.166,0.168-2.38,0.794-3.466,0.604c-10.558-1.85-13.73,4.792-17.565,13.047c-23.245,50.034-88.132,67.553-134.798,36.884
		C271.225,412.699,270.251,412.059,268.881,411.158z M114.857,206.727c-6.676,1.082-13.123,2.242-19.604,3.158
		c-29.96,4.234-53.895,30.911-54.765,61.125c-1.069,37.12,28.62,67.003,66.176,66.615c5.499-0.057,12.828-2.257,16.01,0.436
		c3.57,3.021,3.424,10.464,4.836,15.998c6.954,27.257,24.052,44.584,51.591,50.094c27.622,5.527,52.86-6.192,68.173-29.978
		c5.275-8.194,10.569-16.374,16.146-25.011c7.128,7.886,13.645,15.604,20.699,22.796c15.533,15.838,34.344,21.167,55.491,14.456
		c21.112-6.701,33.548-21.627,36.934-43.742c1.112-7.262,2.197-14.528,3.335-22.064c8.15,1.192,15.815,2.206,23.442,3.447
		c34.892,5.679,67.669-21.721,68.172-57.045c0.429-30.152-22.017-55.291-52.775-59.104c-13.991-1.735-13.99-1.735-17.578-15.016
		c-0.088-0.325-0.191-0.646-0.277-0.972c-10.953-41.561-55.787-59.252-92.032-36.316c-6.926,4.383-13.859,8.756-21.093,13.327
		c-4.758-7.57-9.218-14.688-13.7-21.792c-20.918-33.157-58.404-47.751-96.417-37.545c-34.532,9.271-59.9,40.992-61.462,76.758
		C115.864,193.06,115.309,199.757,114.857,206.727z"/>
	<path display="none" fill="#FFFFFF" d="M574.774,67.074c0.018-0.28,0.04-0.549,0.052-0.818c0.063-1.436,1.081-2.71,2.468-3.083
		c1.527-0.41,3.032,0.176,3.872,1.508c0.18,0.285,0.359,0.571,0.55,0.875c0.291-0.184,0.569-0.359,0.847-0.535
		c1.456-0.921,3.256-0.211,3.696,1.458c0.003,0.013,0.008,0.026,0.011,0.039c0.144,0.533,0.144,0.533,0.706,0.603
		c1.235,0.153,2.137,1.163,2.119,2.374c-0.02,1.419-1.336,2.519-2.738,2.291c-0.306-0.05-0.614-0.091-0.941-0.138
		c-0.046,0.303-0.089,0.594-0.134,0.886c-0.136,0.888-0.635,1.488-1.483,1.757c-0.849,0.27-1.605,0.056-2.229-0.581
		c-0.283-0.289-0.545-0.599-0.831-0.916c-0.224,0.347-0.437,0.675-0.648,1.004c-0.615,0.955-1.629,1.426-2.738,1.204
		c-1.106-0.221-1.793-0.917-2.072-2.012c-0.057-0.222-0.051-0.521-0.194-0.642c-0.128-0.108-0.422-0.02-0.643-0.017
		c-1.508,0.016-2.701-1.185-2.658-2.675c0.035-1.213,0.996-2.285,2.199-2.455C574.247,67.164,574.506,67.118,574.774,67.074z"/>
</g>
<g display="none">
	<path fill="#FFFFFF" d="M590.841,73.706c0,2.045,0,4.09,0,6.134c-1.869,0-3.737,0-5.606,0c-0.001-0.243-0.001-0.487-0.003-0.73
		c-0.004-0.538-0.318-0.856-0.859-0.857c-2.089-0.003-4.179-0.003-6.268,0c-0.541,0.001-0.849,0.313-0.861,0.858
		c-0.005,0.243-0.008,0.486-0.012,0.729c-0.745,0-1.49,0-2.234,0c0.413-0.158,0.642-0.437,0.642-0.899
		c-0.003-5.799-0.001-11.598-0.003-17.398c0-0.567-0.309-0.892-0.872-0.896c-1.286-0.008-2.571-0.004-3.857-0.001
		c-0.408,0.001-0.698,0.182-0.828,0.585c-0.005,0.017-0.025,0.029-0.038,0.044c0-0.744,0-1.488,0-2.233c6.933,0,13.867,0,20.8,0
		c0,1.246,0,2.491,0,3.736c-0.023-0.09-0.047-0.18-0.07-0.271c-0.282-1.151-1.21-1.86-2.46-1.861
		c-3.615-0.003-7.23-0.001-10.845-0.001c-0.071,0-0.142,0.01-0.207,0.015c0,0.537,0,1.048,0,1.577c0.096,0,0.175,0,0.255,0
		c1.801,0,3.602,0,5.402,0c1.807,0,3.615-0.001,5.422,0c0.447,0,0.745,0.182,0.856,0.541c0.043,0.139,0.054,0.293,0.054,0.44
		c0.003,2.809,0.002,5.619,0.002,8.428c0,0.701-0.302,1.003-0.999,1.003c-3.581,0-7.162,0-10.743,0c-0.084,0-0.169,0-0.253,0
		c0,1.074,0,2.114,0,3.186c0.535,0,1.058,0,1.596,0c0,0.255-0.001,0.478,0,0.701c0.004,0.588,0.314,0.899,0.905,0.9
		c0.988,0.001,1.977,0.001,2.965,0c0.599-0.001,0.911-0.315,0.915-0.916c0.001-0.222,0-0.443,0-0.69c0.111,0,0.197,0,0.284,0
		c1.543-0.002,3.087,0.015,4.63-0.014c1.08-0.02,1.949-0.766,2.213-1.821C590.789,73.899,590.815,73.803,590.841,73.706z"/>
	<path display="inline" d="M1,36.138c0.318-0.353,0.797-0.654,0.931-1.067c3.191-9.865,10.31-14.307,20.312-14.334
		c31.524-0.083,63.05-0.164,94.573,0.025c13.809,0.083,21.388,8.065,21.391,21.959c0.028,142.192-0.008,284.385,0.064,426.577
		c0.006,11.337-5.618,18.188-15.748,22.054c-35.195,0-70.391,0-105.586,0C9.003,488.662,3.715,483.326,1,475.415
		C1,328.99,1,182.564,1,36.138z M69.817,415.962c17.951-0.09,32.645-14.873,32.459-32.657c-0.187-17.874-15.055-32.587-32.79-32.449
		c-17.817,0.139-32.706,15.155-32.506,32.782C37.185,401.576,51.891,416.051,69.817,415.962z"/>
	<path display="inline" d="M511,340.943c-0.62,2.367-1.263,4.728-1.858,7.102c-6.481,25.88-27.783,44.164-54.269,44.651
		c-37.832,0.697-75.684,0.282-113.528,0.341c-2.117,0.003-4.235,0-6.95,0c0,6.041,0.026,11.474-0.005,16.908
		c-0.085,14.737-7.751,22.445-22.435,22.465c-24.234,0.033-48.468,0.034-72.702-0.001c-14.486-0.021-22.11-7.629-22.196-22.057
		c-0.033-5.462-0.005-10.924-0.005-17.176c-13.194,0-26.022,0-39.14,0c0-26.283,0-51.773,0-78.114c2.076,0,4.144,0,6.212,0
		c87.807,0,175.614,0.001,263.421-0.001c17.102,0,24.504-7.426,24.505-24.603c0.004-68.885,0.021-137.769-0.053-206.654
		c-0.004-3.607-0.273-7.376-1.331-10.787c-2.73-8.8-10.043-13.253-20.996-13.259c-44.319-0.024-88.637-0.01-132.956-0.01
		c-44.153,0-88.305,0-132.458,0c-1.959,0-3.919,0-6.263,0c0-12.987,0-25.513,0-38.678c1.603-0.119,3.339-0.361,5.074-0.362
		c88.637-0.018,177.274-0.065,265.911,0.013c30.651,0.027,53.41,17.405,60.317,45.638c0.543,2.218,1.136,4.423,1.705,6.634
		C511,162.31,511,251.626,511,340.943z"/>
	<path display="inline" d="M177.309,491.353c0.1-5.959,0.175-11.918,0.305-17.876c0.292-13.357,7.838-21.025,21.113-21.042
		c51.23-0.066,102.46-0.063,153.689,0c13.275,0.016,20.958,7.823,21.061,21.014c0.047,5.968,0.043,11.936,0.062,17.905
		C308.129,491.353,242.719,491.353,177.309,491.353z"/>
	<path fill="#FFFFFF" d="M570.041,79.191c0.111,0.323,0.326,0.54,0.65,0.65c-0.217,0-0.433,0-0.65,0
		C570.041,79.624,570.041,79.407,570.041,79.191z"/>
	<path fill="#FFFFFF" d="M572.847,76.766c-0.731,0.004-1.331-0.587-1.339-1.318c-0.008-0.719,0.599-1.331,1.326-1.337
		c0.723-0.006,1.33,0.594,1.337,1.323C574.179,76.159,573.579,76.762,572.847,76.766z"/>
</g>
<g display="none">
	<path fill="#FFFFFF" d="M570.041,59.041c6.933,0,13.867,0,20.8,0c0,6.933,0,13.867,0,20.8c-6.933,0-13.867,0-20.8,0
		C570.041,72.907,570.041,65.974,570.041,59.041z M580.219,61.437c-0.4,0.033-1.03,0.058-1.653,0.143
		c-2.197,0.3-4.211,1.087-6.007,2.389c-0.578,0.419-1.12,0.897-1.628,1.398c-0.383,0.377-0.345,1.021-0.001,1.452
		c0.345,0.433,0.949,0.596,1.418,0.33c0.289-0.164,0.536-0.405,0.794-0.621c2.346-1.962,5.043-2.854,8.096-2.66
		c1.604,0.102,3.109,0.551,4.523,1.309c0.864,0.463,1.649,1.036,2.363,1.706c0.29,0.272,0.626,0.435,1.029,0.381
		c0.482-0.064,0.831-0.328,0.985-0.795c0.164-0.497,0.036-0.938-0.346-1.293C587.161,62.726,584.04,61.498,580.219,61.437z
		 M587.547,69.2c-0.002-0.475-0.145-0.776-0.425-1.043c-1.055-1.003-2.264-1.746-3.646-2.213c-1.478-0.499-2.988-0.61-4.524-0.38
		c-1.357,0.203-2.608,0.697-3.755,1.444c-0.596,0.388-1.17,0.814-1.625,1.367c-0.294,0.357-0.324,0.78-0.128,1.203
		c0.184,0.398,0.5,0.624,0.94,0.675c0.415,0.048,0.752-0.11,1.045-0.389c0.759-0.724,1.623-1.28,2.621-1.614
		c2.373-0.793,4.585-0.461,6.627,0.976c0.358,0.252,0.669,0.57,1.023,0.829c0.375,0.274,0.792,0.289,1.206,0.079
		C587.332,69.918,587.528,69.554,587.547,69.2z M580.524,69.447c-0.863,0.01-1.616,0.154-2.33,0.473
		c-0.777,0.347-1.471,0.815-1.987,1.5c-0.278,0.369-0.289,0.792-0.074,1.206c0.202,0.39,0.527,0.601,0.969,0.634
		c0.453,0.033,0.777-0.19,1.086-0.491c0.803-0.78,1.766-1.07,2.869-0.869c0.696,0.127,1.263,0.484,1.76,0.981
		c0.519,0.52,1.231,0.52,1.739,0.029c0.438-0.424,0.443-1.183,0.001-1.653C583.442,70.072,582.064,69.48,580.524,69.447z
		 M580.422,76.477c0.794,0.015,1.448-0.624,1.459-1.428c0.011-0.78-0.622-1.427-1.421-1.452c-0.778-0.024-1.449,0.635-1.459,1.434
		C578.989,75.815,579.626,76.463,580.422,76.477z"/>
	<path display="inline" d="M250.403,59.826c99.652,1.591,181.088,33.626,249.751,97.569c9.959,9.274,13.298,20.787,9.025,33.739
		c-4.012,12.162-13.11,19.048-25.693,20.727c-10.513,1.402-19.288-2.847-26.843-9.939c-18.633-17.49-39.117-32.43-61.645-44.515
		c-36.887-19.787-76.146-31.499-117.979-34.156c-79.642-5.059-150.005,18.214-211.204,69.39
		c-6.735,5.632-13.178,11.925-20.722,16.209c-12.232,6.946-27.983,2.683-36.986-8.612c-8.969-11.252-9.973-28.033,0.018-37.878
		c13.271-13.076,27.405-25.546,42.475-36.475c46.851-33.977,99.381-54.489,156.695-62.327
		C223.528,61.337,239.978,60.696,250.403,59.826z"/>
	<path display="inline" d="M441.553,262.328c-0.503,9.236-5.622,18.724-16.725,24.357c-10.804,5.481-21.677,5.099-31.452-2.053
		c-9.233-6.754-17.353-15.053-26.697-21.628c-53.275-37.488-110.978-46.126-172.871-25.453
		c-26.042,8.699-48.572,23.208-68.37,42.095c-7.644,7.292-16.429,11.4-27.266,10.149c-11.466-1.324-19.712-7.217-24.522-17.609
		c-5.104-11.029-4.333-22.054,3.337-31.375c11.866-14.42,26.839-25.522,42.387-35.649c29.937-19.501,62.58-32.388,97.967-37.677
		c40.062-5.988,79.448-3.096,118.015,9.921c36.045,12.166,67.588,31.564,95.099,57.722
		C437.764,242.078,441.499,249.927,441.553,262.328z"/>
	<path display="inline" d="M258.343,268.776c40.174,0.864,76.125,16.31,105.204,47.236c11.531,12.263,11.402,32.058-0.025,43.111
		c-13.258,12.824-31.829,12.821-45.363-0.746c-12.956-12.987-27.753-22.294-45.912-25.602c-28.772-5.242-53.896,2.308-74.846,22.665
		c-8.059,7.831-16.528,13.666-28.34,12.799c-11.52-0.846-19.989-6.358-25.266-16.534c-5.597-10.794-5.312-21.823,1.934-31.449
		c13.464-17.886,31.576-30.088,51.838-39.135C216.19,272.805,235.836,269.041,258.343,268.776z"/>
	<path display="inline" d="M255.679,452.168c-20.748-0.387-37.362-17.279-37.088-37.71c0.28-20.851,17.777-38.048,38.074-37.42
		c20.838,0.645,37.364,17.528,37.075,37.876C293.442,435.877,276.405,452.554,255.679,452.168z"/>
</g>
<g display="none">
	<path display="inline" d="M92.641,1c108.906,0,217.813,0,326.719,0c0.553,0.317,1.075,0.827,1.664,0.922
		c9.898,1.598,17.945,6.407,24.737,13.698c12.836,13.779,20.28,30.72,27,47.789c12.135,30.826,23.237,62.06,34.756,93.128
		c0.606,1.634,1.084,3.316,1.231,3.77c-8.283-0.873-16.582-2.503-24.882-2.511c-148.552-0.154-297.103-0.128-445.655-0.081
		c-11.793,0.004-23.779-1.399-35.762,4.596c0.98-2.75,1.561-4.444,2.184-6.123c9.108-24.542,17.893-49.209,27.442-73.578
		c6.938-17.707,14.14-35.391,22.622-52.387C61.349,16.893,71.778,6.579,87.045,2.647C88.927,2.162,90.776,1.552,92.641,1z"/>
	<path display="inline" d="M1,259.984c0-22.246,0-44.492,0-66.738c4.547-12.549,14.01-15.803,26.587-15.785
		c152.275,0.22,304.551,0.22,456.826,0c12.577-0.018,22.04,3.235,26.587,15.785c0,22.246,0,44.492,0,66.738
		c-1.303,2.445-2.373,5.053-3.953,7.304c-4.936,7.035-12.262,8.269-20.236,8.266c-153.874-0.046-307.749-0.032-461.623-0.054
		c-2.48,0-4.978-0.153-7.436-0.48c-6.998-0.93-11.769-4.912-14.811-11.15C2.307,262.569,1.648,261.28,1,259.984z M442.184,197.113
		c-16.187,0.061-29.385,13.325-29.357,29.502c0.029,16.144,13.31,29.445,29.436,29.479c16.303,0.034,30.036-13.752,29.688-29.804
		C471.598,209.984,458.405,197.052,442.184,197.113z"/>
	<path display="inline" d="M511,310.785c0,22.246,0,44.492,0,66.738c-4.386,12.359-13.573,15.855-26.046,15.838
		c-152.636-0.21-305.273-0.21-457.909,0C14.573,393.379,5.386,389.883,1,377.523c0-22.246,0-44.492,0-66.738
		c1.313-2.434,2.403-5.023,3.98-7.272c5.078-7.243,12.651-8.211,20.754-8.209c153.511,0.048,307.022,0.033,460.534,0.051
		c2.483,0,4.979,0.12,7.445,0.394c7.211,0.801,12.186,4.744,15.321,11.179C509.664,308.226,510.343,309.5,511,310.785z
		 M442.266,373.719c16.224,0.017,29.441-13.002,29.687-29.244c0.244-16.069-13.558-29.869-29.771-29.767
		c-16.101,0.101-29.38,13.496-29.349,29.604C412.864,360.52,426.057,373.702,442.266,373.719z"/>
	<path display="inline" d="M511,429.32c0,21.914,0,43.828,0,65.742c-2.709,7.916-8.021,13.229-15.938,15.938
		c-159.375,0-318.75,0-478.125,0C9.021,508.291,3.709,502.979,1,495.063c0-21.914,0-43.828,0-65.742
		c1.38-2.805,2.424-5.846,4.204-8.368c4.844-6.86,12.056-7.832,19.862-7.828c153.956,0.072,307.912,0.053,461.868,0.06
		c1.989,0,3.985,0.014,5.966,0.167c7.649,0.588,12.939,4.584,16.186,11.42C509.791,426.256,510.366,427.803,511,429.32z
		 M442.484,491.394c16.225-0.084,29.486-13.335,29.473-29.449c-0.013-15.959-13.483-29.476-29.495-29.596
		c-16.181-0.122-29.852,13.667-29.614,29.871C413.088,478.557,426.213,491.478,442.484,491.394z"/>
	<path fill="#FFFFFF" d="M221.507,231.881c-0.185-0.512-0.571-0.645-1.084-0.644c-6.21,0.009-12.421,0.009-18.631,0
		c-0.513-0.001-0.899,0.132-1.084,0.644c0-2.609,0-5.218,0-7.841c1.246,0,2.492,0,3.737,0c-0.076,0.023-0.151,0.047-0.228,0.067
		c-0.623,0.16-1.048,0.581-1.319,1.125c-0.346,0.693-0.64,1.414-0.923,2.137c-0.389,0.994-0.748,2-1.119,3.001
		c-0.025,0.068-0.049,0.138-0.089,0.25c0.489-0.244,0.978-0.187,1.459-0.187c6.059-0.002,12.117-0.003,18.176,0.003
		c0.339,0,0.677,0.067,1.015,0.102c-0.006-0.019-0.025-0.087-0.05-0.154c-0.47-1.267-0.923-2.541-1.417-3.798
		c-0.274-0.696-0.578-1.387-1.101-1.949c-0.277-0.297-0.605-0.493-1.009-0.559c-0.024-0.004-0.045-0.025-0.068-0.038
		c1.244,0,2.487,0,3.738,0C221.507,226.654,221.507,229.268,221.507,231.881z"/>
	<path fill="#FFFFFF" d="M221.507,241.509c-0.026-0.062-0.049-0.125-0.078-0.186c-0.132-0.279-0.348-0.442-0.66-0.466
		c-0.081-0.006-0.162-0.007-0.243-0.007c-6.279,0-12.558,0-18.837-0.002c-0.318,0-0.612,0.039-0.81,0.319
		c-0.073,0.103-0.115,0.227-0.171,0.341c0-0.704,0-1.408,0-2.113c0.179,0.504,0.554,0.647,1.062,0.646
		c6.225-0.009,12.45-0.009,18.675,0c0.509,0.001,0.883-0.142,1.062-0.646C221.507,240.101,221.507,240.805,221.507,241.509z"/>
	<path fill="#FFFFFF" d="M221.507,236.675c-0.027-0.052-0.054-0.104-0.08-0.157c-0.128-0.262-0.331-0.423-0.625-0.456
		c-0.101-0.011-0.202-0.016-0.304-0.016c-6.261-0.001-12.522,0-18.783-0.002c-0.33,0-0.639,0.039-0.846,0.335
		c-0.064,0.092-0.109,0.197-0.162,0.297c0-0.691,0-1.381,0-2.072c0.026,0.053,0.053,0.105,0.079,0.159
		c0.124,0.254,0.319,0.417,0.604,0.455c0.1,0.013,0.202,0.02,0.303,0.02c6.276,0.001,12.551,0,18.827,0.002
		c0.325,0,0.624-0.05,0.825-0.337c0.064-0.092,0.108-0.198,0.161-0.298C221.507,235.294,221.507,235.984,221.507,236.675z"/>
	<path fill="#FFFFFF" d="M200.707,244.191c0.11,0.323,0.327,0.54,0.65,0.65c-0.217,0-0.433,0-0.65,0
		C200.707,244.624,200.707,244.407,200.707,244.191z"/>
	<path fill="#FFFFFF" d="M220.857,244.841c0.323-0.11,0.54-0.327,0.65-0.65c0,0.217,0,0.433,0,0.65
		C221.291,244.841,221.074,244.841,220.857,244.841z"/>
	<path fill="#FFFFFF" d="M218.701,232.039c0.662-0.003,1.2,0.525,1.214,1.19c0.014,0.655-0.546,1.217-1.211,1.216
		c-0.658-0.001-1.199-0.544-1.201-1.202C217.502,232.582,218.04,232.041,218.701,232.039z"/>
	<path fill="#FFFFFF" d="M218.704,239.242c-0.661-0.001-1.199-0.538-1.2-1.199c-0.001-0.657,0.54-1.203,1.197-1.207
		c0.661-0.004,1.224,0.559,1.214,1.214C219.905,238.711,219.366,239.242,218.704,239.242z"/>
	<path fill="#FFFFFF" d="M218.713,244.041c-0.664,0.003-1.199-0.524-1.209-1.19c-0.01-0.661,0.548-1.223,1.208-1.218
		c0.653,0.005,1.202,0.556,1.203,1.207C219.915,243.497,219.375,244.038,218.713,244.041z"/>
</g>
</svg>
