<?xml version="1.0" encoding="utf-8"?>
<!-- Generator: Adobe Illustrator 17.0.0, SVG Export Plug-In . SVG Version: 6.00 Build 0)  -->
<!DOCTYPE svg PUBLIC "-//W3C//DTD SVG 1.1//EN" "http://www.w3.org/Graphics/SVG/1.1/DTD/svg11.dtd">
<svg version="1.1" id="Layer_1" xmlns="http://www.w3.org/2000/svg" xmlns:xlink="http://www.w3.org/1999/xlink" x="0px" y="0px"
	 width="512px" height="512px" viewBox="0 0 512 512" enable-background="new 0 0 512 512" xml:space="preserve">
<g display="none">
	<path fill="#FFFFFF" d="M609.841,63.839c-6.931,0-13.861,0-20.796,0c0-6.928,0-13.857,0-20.792c6.929,0,13.863,0,20.796,0
		C609.841,49.975,609.841,56.906,609.841,63.839z M599.437,56.168c0.095,0.122,0.139,0.192,0.196,0.249
		c1.306,1.308,2.613,2.615,3.92,3.921c0.423,0.423,0.853,0.424,1.274,0.005c0.499-0.497,0.997-0.995,1.494-1.493
		c0.449-0.449,0.448-0.866-0.004-1.318c-1.307-1.307-2.614-2.614-3.92-3.922c-0.055-0.055-0.107-0.113-0.183-0.193
		c0.078-0.063,0.14-0.106,0.192-0.158c1.313-1.311,2.625-2.622,3.936-3.934c0.419-0.419,0.418-0.855-0.002-1.275
		c-0.493-0.494-0.987-0.985-1.481-1.478c-0.465-0.464-0.87-0.466-1.33-0.005c-1.307,1.307-2.614,2.613-3.922,3.92
		c-0.052,0.052-0.106,0.101-0.168,0.159c-0.062-0.059-0.116-0.107-0.168-0.159c-1.302-1.302-2.604-2.604-3.907-3.906
		c-0.48-0.48-0.874-0.478-1.359,0.006c-0.479,0.478-0.958,0.957-1.437,1.436c-0.461,0.462-0.462,0.871-0.001,1.332
		c1.302,1.302,2.604,2.604,3.906,3.907c0.056,0.056,0.109,0.115,0.171,0.18c-0.062,0.064-0.111,0.118-0.163,0.17
		c-1.316,1.317-2.633,2.633-3.949,3.95c-0.411,0.412-0.412,0.85-0.003,1.26c0.497,0.498,0.997,0.995,1.496,1.492
		c0.462,0.46,0.867,0.458,1.331-0.006c1.303-1.302,2.606-2.603,3.907-3.906C599.318,56.35,599.354,56.282,599.437,56.168z"/>
	<path display="inline" d="M599.437,56.168c-0.082,0.114-0.119,0.182-0.171,0.234c-1.301,1.303-2.604,2.605-3.907,3.906
		c-0.464,0.464-0.87,0.465-1.331,0.006c-0.499-0.497-0.998-0.993-1.496-1.492c-0.409-0.41-0.409-0.848,0.003-1.26
		c1.316-1.317,2.633-2.633,3.949-3.95c0.052-0.052,0.102-0.106,0.163-0.17c-0.062-0.065-0.115-0.124-0.171-0.18
		c-1.302-1.302-2.604-2.604-3.906-3.907c-0.461-0.461-0.46-0.87,0.001-1.332c0.479-0.479,0.958-0.957,1.437-1.436
		c0.485-0.485,0.878-0.487,1.359-0.006c1.302,1.302,2.604,2.604,3.907,3.906c0.052,0.052,0.106,0.1,0.168,0.159
		c0.062-0.059,0.116-0.108,0.168-0.159c1.307-1.307,2.614-2.613,3.922-3.92c0.46-0.46,0.865-0.458,1.33,0.005
		c0.494,0.492,0.988,0.984,1.481,1.478c0.419,0.42,0.421,0.856,0.002,1.275c-1.311,1.312-2.623,2.624-3.936,3.934
		c-0.052,0.052-0.115,0.095-0.192,0.158c0.076,0.08,0.128,0.138,0.183,0.193c1.307,1.307,2.614,2.614,3.92,3.922
		c0.451,0.452,0.453,0.869,0.004,1.318c-0.498,0.498-0.995,0.996-1.494,1.493c-0.421,0.419-0.85,0.418-1.274-0.005
		c-1.308-1.306-2.615-2.613-3.92-3.921C599.576,56.36,599.532,56.29,599.437,56.168z"/>
</g>
<g>
	<line fill="none" stroke="#B35047" x1="32" y1="0" x2="32" y2="512"/>
	<line fill="none" stroke="#B35047" x1="64" y1="0" x2="64" y2="512"/>
	<line fill="none" stroke="#B35047" x1="96" y1="0" x2="96" y2="512"/>
	<line fill="none" stroke="#B35047" x1="128" y1="0" x2="128" y2="512"/>
	<line fill="none" stroke="#B35047" x1="160" y1="0" x2="160" y2="512"/>
	<line fill="none" stroke="#B35047" x1="192" y1="0" x2="192" y2="512"/>
	<line fill="none" stroke="#B35047" x1="224" y1="0" x2="224" y2="512"/>
	<line fill="none" stroke="#B35047" x1="256" y1="0" x2="256" y2="512"/>
	<line fill="none" stroke="#B35047" x1="288" y1="0" x2="288" y2="512"/>
	<line fill="none" stroke="#B35047" x1="320" y1="0" x2="320" y2="512"/>
	<line fill="none" stroke="#B35047" x1="352" y1="0" x2="352" y2="512"/>
	<line fill="none" stroke="#B35047" x1="384" y1="0" x2="384" y2="512"/>
	<line fill="none" stroke="#B35047" x1="416" y1="0" x2="416" y2="512"/>
	<line fill="none" stroke="#B35047" x1="448" y1="0" x2="448" y2="512"/>
	<line fill="none" stroke="#B35047" x1="480" y1="0" x2="480" y2="512"/>
	<line fill="none" stroke="#B35047" x1="0" y1="32" x2="512" y2="32"/>
	<line fill="none" stroke="#B35047" x1="0" y1="64" x2="512" y2="64"/>
	<line fill="none" stroke="#B35047" x1="0" y1="96" x2="512" y2="96"/>
	<line fill="none" stroke="#B35047" x1="0" y1="128" x2="512" y2="128"/>
	<line fill="none" stroke="#B35047" x1="0" y1="160" x2="512" y2="160"/>
	<line fill="none" stroke="#B35047" x1="0" y1="192" x2="512" y2="192"/>
	<line fill="none" stroke="#B35047" x1="0" y1="224" x2="512" y2="224"/>
	<line fill="none" stroke="#B35047" x1="0" y1="256" x2="512" y2="256"/>
	<line fill="none" stroke="#B35047" x1="0" y1="288" x2="512" y2="288"/>
	<line fill="none" stroke="#B35047" x1="0" y1="320" x2="512" y2="320"/>
	<line fill="none" stroke="#B35047" x1="0" y1="352" x2="512" y2="352"/>
	<line fill="none" stroke="#B35047" x1="0" y1="384" x2="512" y2="384"/>
	<line fill="none" stroke="#B35047" x1="0" y1="416" x2="512" y2="416"/>
	<line fill="none" stroke="#B35047" x1="0" y1="448" x2="512" y2="448"/>
	<line fill="none" stroke="#B35047" x1="0" y1="480" x2="512" y2="480"/>
	<rect x="0" fill="none" stroke="#B35047" width="512" height="512"/>
</g>
<image display="none" overflow="visible" width="512" height="512" xlink:href="../../../Knowledge/Icon/[+++++] (Full) Windows 8 Icons [icons8]/User_Role/administrator/administrator-512.png"  transform="matrix(0.0406 0 0 0.0406 588 41)">
</image>
<image display="none" overflow="visible" width="512" height="512" xlink:href="../../../Knowledge/Icon/[+++++] (Full) Windows 8 Icons [icons8]/User_Role/reviewer/reviewer-512.png"  transform="matrix(0.0406 0 0 0.0406 588 41)">
</image>
<image display="none" overflow="visible" width="512" height="512" xlink:href="../../../Knowledge/Icon/[+++++] (Full) Windows 8 Icons [icons8]/User_Role/moderator/moderator-512.png"  transform="matrix(0.0406 0 0 0.0406 588 41)">
</image>
<g>
	<path display="none" fill="#FFFFFF" d="M608.834,61.841c-6.929,0-13.86,0-20.793,0c0-6.931,0-13.862,0-20.796
		c6.928,0,13.858,0,20.793,0C608.834,47.974,608.834,54.907,608.834,61.841z M593.945,47.525c-0.061,0.131-0.146,0.247-0.17,0.375
		c-0.135,0.696,0.067,1.338,0.347,1.964c0.12,0.267,0.305,0.474,0.568,0.613c0.066,0.035,0.128,0.119,0.148,0.193
		c0.199,0.74,0.516,1.421,0.99,2.027c0.045,0.057,0.085,0.124,0.105,0.193c0.139,0.492-0.3,1.193-0.795,1.321
		c-0.62,0.161-1.246,0.317-1.847,0.535c-1.044,0.378-2.017,0.893-2.801,1.704c-0.408,0.422-0.727,0.901-0.756,1.508
		c-0.024,0.52-0.022,1.042-0.005,1.562c0.011,0.334,0.18,0.616,0.445,0.812c0.248,0.184,0.511,0.361,0.792,0.483
		c1.1,0.476,2.276,0.639,3.457,0.729c1.126,0.085,2.257,0.127,3.386,0.142c2.142,0.03,4.252-0.222,6.312-0.83
		c0.61-0.18,1.207-0.401,1.738-0.764c0.327-0.223,0.537-0.501,0.498-0.929c-0.024-0.269-0.016-0.542-0.002-0.812
		c0.038-0.769-0.266-1.392-0.792-1.928c-0.775-0.791-1.725-1.303-2.749-1.675c-0.614-0.223-1.252-0.383-1.887-0.543
		c-0.699-0.176-0.983-0.692-0.69-1.324c0.045-0.097,0.115-0.183,0.174-0.273c0.375-0.573,0.708-1.166,0.886-1.836
		c0.019-0.072,0.074-0.143,0.13-0.196c0.308-0.293,0.573-0.622,0.727-1.016c0.262-0.671,0.362-1.355,0.032-2.041
		c-0.018-0.038-0.01-0.092-0.004-0.137c0.058-0.421,0.147-0.84,0.171-1.263c0.056-0.974-0.027-1.935-0.425-2.842
		c-0.328-0.748-0.858-1.238-1.716-1.287c-0.249-0.014-0.715-0.189-0.914-0.336c-0.396-0.293-0.847-0.447-1.33-0.509
		c-1.13-0.146-2.142,0.132-2.921,0.977c-1.01,1.097-1.382,2.445-1.326,3.909C593.74,46.538,593.869,47.04,593.945,47.525z"/>
	<path d="M154.559,160.029c-1.878-12.01-5.075-24.465-5.553-37.024c-1.384-36.286,7.831-69.697,32.852-96.871
		c19.296-20.957,44.378-27.828,72.374-24.219c11.955,1.541,23.144,5.364,32.953,12.626c4.937,3.655,16.491,7.99,22.659,8.336
		c21.257,1.195,34.39,13.354,42.526,31.885c9.87,22.482,11.921,46.296,10.545,70.43c-0.598,10.481-2.809,20.869-4.24,31.306
		c-0.153,1.116-0.358,2.455,0.09,3.389c8.167,17.004,5.705,33.945-0.792,50.572c-3.819,9.774-10.391,17.926-18.013,25.187
		c-1.386,1.32-2.757,3.075-3.231,4.868c-4.39,16.595-12.657,31.284-21.947,45.495c-1.465,2.241-3.19,4.368-4.303,6.775
		c-7.243,15.664-0.212,28.456,17.108,32.807c15.726,3.95,31.54,7.933,46.753,13.452c25.381,9.208,48.931,21.896,68.134,41.496
		c13.016,13.286,20.565,28.728,19.615,47.783c-0.334,6.693-0.541,13.461,0.058,20.117c0.956,10.607-4.257,17.485-12.353,23.011
		c-13.176,8.993-27.954,14.461-43.074,18.922c-51.042,15.056-103.335,21.308-156.418,20.569c-27.986-0.389-56.01-1.424-83.914-3.531
		c-29.254-2.209-58.389-6.25-85.66-18.054c-6.976-3.019-13.491-7.414-19.634-11.965c-6.561-4.861-10.757-11.845-11.028-20.121
		c-0.423-12.892-0.48-25.831,0.12-38.713c0.7-15.041,8.62-26.915,18.726-37.368c19.435-20.102,43.543-32.869,69.42-42.227
		c14.909-5.392,30.398-9.264,45.775-13.247c12.252-3.174,23.145-20.555,19.693-32.748c-0.482-1.704-1.495-3.358-2.599-4.771
		c-11.733-15.019-19.581-31.895-24.523-50.241c-0.491-1.823-2.032-3.913-3.668-4.78c-6.531-3.464-11.118-8.588-14.082-15.203
		c-6.943-15.49-11.944-31.403-8.595-48.659C150.947,166.152,153.038,163.275,154.559,160.029z M285.992,475.061
		c33.036,0,65.768,0,98.739,0c0-19.897,0-39.433,0-59.28c-33.011,0-65.761,0-98.739,0
		C285.992,435.674,285.992,455.205,285.992,475.061z"/>
	<path display="none" fill="#FFFFFF" d="M599.249,60.238c0-0.801,0-1.589,0-2.392c1.331,0,2.652,0,3.984,0c0,0.801,0,1.589,0,2.392
		C601.903,60.238,600.582,60.238,599.249,60.238z"/>
</g>
<g display="none">
	<path fill="#FFFFFF" d="M588.041,61.84c0-6.937,0-13.862,0-20.793c6.933,0,13.867,0,20.8,0c0,6.929,0,13.861,0,20.793
		C601.91,61.84,594.979,61.84,588.041,61.84z M597.317,61.685c2.306,0.052,4.579-0.175,6.799-0.828
		c0.604-0.178,1.194-0.396,1.722-0.75c0.341-0.228,0.563-0.512,0.52-0.958c-0.026-0.268-0.016-0.542-0.003-0.812
		c0.036-0.762-0.269-1.379-0.788-1.91c-0.779-0.796-1.735-1.312-2.767-1.684c-0.608-0.219-1.239-0.381-1.867-0.537
		c-0.708-0.176-0.997-0.708-0.69-1.339c0.044-0.09,0.109-0.171,0.165-0.255c0.376-0.573,0.708-1.167,0.888-1.835
		c0.021-0.078,0.082-0.154,0.142-0.212c0.391-0.379,0.706-0.813,0.836-1.344c0.139-0.568,0.208-1.145-0.085-1.699
		c-0.024-0.045-0.01-0.118,0.003-0.174c0.268-1.233,0.255-2.46-0.113-3.669c-0.097-0.318-0.255-0.63-0.443-0.905
		c-0.409-0.599-1.004-0.841-1.723-0.766c-0.17,0.018-0.291,0.012-0.413-0.151c-0.116-0.155-0.298-0.279-0.474-0.37
		c-1.545-0.798-3.644-0.379-4.617,1.515c-0.728,1.418-0.937,2.893-0.437,4.436c0.014,0.043-0.009,0.106-0.031,0.152
		c-0.051,0.104-0.143,0.198-0.165,0.306c-0.135,0.674,0.054,1.299,0.315,1.909c0.126,0.295,0.319,0.53,0.61,0.681
		c0.061,0.031,0.116,0.112,0.134,0.18c0.202,0.747,0.522,1.434,0.999,2.045c0.044,0.057,0.082,0.126,0.099,0.195
		c0.129,0.504-0.305,1.197-0.814,1.304c-0.802,0.17-1.585,0.403-2.336,0.734c-0.854,0.376-1.654,0.836-2.308,1.517
		c-0.499,0.519-0.795,1.119-0.763,1.858c0.012,0.284,0.02,0.57-0.002,0.853c-0.052,0.694,0.299,1.137,0.868,1.456
		c0.787,0.442,1.654,0.621,2.53,0.76C594.502,61.608,595.908,61.667,597.317,61.685z"/>
	<path display="inline" d="M238.195,510.823c-34.889-0.425-69.715-1.908-104.224-7.388c-21.693-3.445-43.173-7.895-62.66-18.833
		c-14.082-7.904-22.778-18.867-21.495-36.061c0.523-7.003,0.341-14.09,0.037-21.119c-0.793-18.307,6.556-33.176,18.909-46.02
		c16.209-16.853,36.032-28.249,57.178-37.566c18.602-8.197,37.984-13.982,57.857-18.188c12.614-2.669,23.351-19.835,20.161-32.311
		c-0.438-1.712-1.362-3.424-2.457-4.826c-11.832-15.148-19.761-32.164-24.755-50.66c-0.457-1.692-1.82-3.681-3.318-4.458
		c-7.23-3.744-11.997-9.56-15.12-16.861c-6.468-15.121-11.168-30.604-7.815-47.291c0.54-2.688,2.824-4.996,4.093-7.583
		c0.555-1.131,1.118-2.694,0.771-3.767c-12.375-38.217-7.21-74.756,10.83-109.873c24.093-46.899,76.082-57.274,114.362-37.515
		c4.376,2.259,8.867,5.316,11.75,9.167c3.018,4.032,6.007,4.185,10.226,3.745c17.807-1.857,32.547,4.139,42.68,18.985
		c4.655,6.82,8.578,14.548,10.973,22.43c9.102,29.948,9.436,60.351,2.794,90.886c-0.304,1.398-0.656,3.194-0.063,4.318
		c7.248,13.724,5.539,28.009,2.104,42.075c-3.217,13.173-11.017,23.906-20.703,33.3c-1.491,1.446-3.003,3.313-3.524,5.249
		c-4.459,16.562-12.685,31.262-21.988,45.457c-1.376,2.1-2.99,4.085-4.079,6.325c-7.602,15.633-0.448,28.815,17.082,33.165
		c15.567,3.863,31.192,7.866,46.256,13.293c25.563,9.209,49.247,21.979,68.544,41.703c12.854,13.139,20.401,28.436,19.511,47.304
		c-0.316,6.692-0.576,13.463,0.068,20.107c1.071,11.049-4.45,18.072-12.887,23.727c-13.096,8.777-27.706,14.183-42.665,18.584
		C351.635,506.501,295.328,512.109,238.195,510.823z"/>
</g>
</svg>
