<?xml version="1.0" encoding="utf-8"?>
<!-- Generator: Adobe Illustrator 17.0.0, SVG Export Plug-In . SVG Version: 6.00 Build 0)  -->
<!DOCTYPE svg PUBLIC "-//W3C//DTD SVG 1.1//EN" "http://www.w3.org/Graphics/SVG/1.1/DTD/svg11.dtd">
<svg version="1.1" id="Layer_1" xmlns="http://www.w3.org/2000/svg" xmlns:xlink="http://www.w3.org/1999/xlink" x="0px" y="0px"
	 width="512px" height="512px" viewBox="0 0 512 512" enable-background="new 0 0 512 512" xml:space="preserve">
<g>
	<line fill="none" stroke="#B35047" x1="32" y1="0" x2="32" y2="512"/>
	<line fill="none" stroke="#B35047" x1="64" y1="0" x2="64" y2="512"/>
	<line fill="none" stroke="#B35047" x1="96" y1="0" x2="96" y2="512"/>
	<line fill="none" stroke="#B35047" x1="128" y1="0" x2="128" y2="512"/>
	<line fill="none" stroke="#B35047" x1="160" y1="0" x2="160" y2="512"/>
	<line fill="none" stroke="#B35047" x1="192" y1="0" x2="192" y2="512"/>
	<line fill="none" stroke="#B35047" x1="224" y1="0" x2="224" y2="512"/>
	<line fill="none" stroke="#B35047" x1="256" y1="0" x2="256" y2="512"/>
	<line fill="none" stroke="#B35047" x1="288" y1="0" x2="288" y2="512"/>
	<line fill="none" stroke="#B35047" x1="320" y1="0" x2="320" y2="512"/>
	<line fill="none" stroke="#B35047" x1="352" y1="0" x2="352" y2="512"/>
	<line fill="none" stroke="#B35047" x1="384" y1="0" x2="384" y2="512"/>
	<line fill="none" stroke="#B35047" x1="416" y1="0" x2="416" y2="512"/>
	<line fill="none" stroke="#B35047" x1="448" y1="0" x2="448" y2="512"/>
	<line fill="none" stroke="#B35047" x1="480" y1="0" x2="480" y2="512"/>
	<line fill="none" stroke="#B35047" x1="0" y1="32" x2="512" y2="32"/>
	<line fill="none" stroke="#B35047" x1="0" y1="64" x2="512" y2="64"/>
	<line fill="none" stroke="#B35047" x1="0" y1="96" x2="512" y2="96"/>
	<line fill="none" stroke="#B35047" x1="0" y1="128" x2="512" y2="128"/>
	<line fill="none" stroke="#B35047" x1="0" y1="160" x2="512" y2="160"/>
	<line fill="none" stroke="#B35047" x1="0" y1="192" x2="512" y2="192"/>
	<line fill="none" stroke="#B35047" x1="0" y1="224" x2="512" y2="224"/>
	<line fill="none" stroke="#B35047" x1="0" y1="256" x2="512" y2="256"/>
	<line fill="none" stroke="#B35047" x1="0" y1="288" x2="512" y2="288"/>
	<line fill="none" stroke="#B35047" x1="0" y1="320" x2="512" y2="320"/>
	<line fill="none" stroke="#B35047" x1="0" y1="352" x2="512" y2="352"/>
	<line fill="none" stroke="#B35047" x1="0" y1="384" x2="512" y2="384"/>
	<line fill="none" stroke="#B35047" x1="0" y1="416" x2="512" y2="416"/>
	<line fill="none" stroke="#B35047" x1="0" y1="448" x2="512" y2="448"/>
	<line fill="none" stroke="#B35047" x1="0" y1="480" x2="512" y2="480"/>
	<rect x="0" fill="none" stroke="#B35047" width="512" height="512"/>
</g>
<image overflow="visible" width="512" height="512" xlink:href="../../../Knowledge/Icon/[+++++] (Full) Windows 8 Icons [icons8]/Kitchen/list_ingredients/list_ingredients-512_.png"  transform="matrix(0.0406 0 0 0.0406 625 127)">
</image>
<image overflow="visible" width="512" height="512" xlink:href="../../../Knowledge/Icon/[+++++] (Full) Windows 8 Icons [icons8]/Management/archive/archive-512.png"  transform="matrix(0.0406 0 0 0.0406 637 229)">
</image>
<image overflow="visible" width="512" height="512" xlink:href="../../../Knowledge/Icon/[+++++] (Full) Windows 8 Icons [icons8]/Management/statistics/statistics-512.png"  transform="matrix(0.0406 0 0 0.0406 637 229)">
</image>
<image overflow="visible" width="512" height="512" xlink:href="../../../Knowledge/Icon/[+++++] (Full) Windows 8 Icons [icons8]/Management/online_support/online_support-512.png"  transform="matrix(0.0406 0 0 0.0406 637 229)">
</image>
<image overflow="visible" width="512" height="512" xlink:href="../../../Knowledge/Icon/[+++++] (Full) Windows 8 Icons [icons8]/Management/manager/manager-512.png"  transform="matrix(0.0406 0 0 0.0406 637 229)">
</image>
<g>
	<path display="none" fill="#FFFFFF" d="M657.841,241.35c0,2.83,0,5.66,0,8.491c-6.933,0-13.867,0-20.8,0c0-2.83,0-5.66,0-8.491
		c0.013,0.037,0.033,0.074,0.039,0.112c0.247,1.633,1.546,2.76,3.196,2.769c0.541,0.003,1.083,0.006,1.624-0.003
		c0.152-0.003,0.223,0.042,0.28,0.187c0.42,1.069,0.851,2.134,1.277,3.2c0.099,0.247,0.237,0.458,0.499,0.552
		c0.447,0.16,0.857-0.034,1.045-0.5c0.425-1.052,0.85-2.105,1.261-3.163c0.08-0.206,0.174-0.281,0.405-0.28
		c2.646,0.01,5.292,0.01,7.939,0.005c1.584-0.003,2.873-1.068,3.174-2.608C657.797,241.532,657.82,241.441,657.841,241.35z"/>
	<path d="M511,312.799c-0.502,2.232-1.059,4.452-1.498,6.696c-7.37,37.751-38.967,63.87-77.816,63.938
		c-64.882,0.114-129.766,0.123-194.647-0.126c-5.664-0.022-7.966,1.821-9.926,6.863c-10.081,25.938-20.505,51.745-30.93,77.548
		c-4.619,11.434-14.67,16.182-25.625,12.265c-6.441-2.303-9.825-7.493-12.243-13.544c-10.45-26.153-21.02-52.258-31.313-78.471
		c-1.4-3.565-3.149-4.655-6.865-4.592c-13.271,0.227-26.549,0.147-39.824,0.076c-40.454-0.216-72.299-27.846-78.36-67.898
		C1.81,314.61,1.325,313.716,1,312.799c0-70.391,0-140.781,0-211.172c1.446-5.932,2.445-12.017,4.412-17.772
		c11.11-32.505,40.35-52.944,75.803-52.974c81.832-0.069,163.664-0.03,245.496-0.02c36.019,0.004,72.053-0.585,108.053,0.254
		c31.023,0.723,53.925,16.05,67.838,43.661c4.164,8.263,5.673,17.863,8.398,26.85C511,172.018,511,242.408,511,312.799z
		 M177.529,409.74c6.863-17.112,13.15-32.784,19.434-48.457c5.241-13.072,10.4-16.588,24.41-16.588
		c69.214-0.003,138.428,0.014,207.642-0.01c26.411-0.009,42.998-16.463,43.019-42.79c0.051-63.239,0.044-126.478-0.045-189.716
		c-0.006-4.274-0.411-8.667-1.447-12.8c-4.614-18.396-20.005-29.706-40.236-29.71C314.45,69.641,198.596,69.645,82.741,69.66
		c-26.327,0.003-42.76,16.477-42.778,42.965c-0.041,63.073-0.046,126.146,0.002,189.218c0.02,26.354,16.585,42.803,42.969,42.843
		c17.76,0.027,35.521,0.095,53.28-0.027c10.184-0.07,16.959,4.691,20.843,13.873c1.807,4.272,3.436,8.618,5.158,12.926
		C167.119,383.726,172.028,395.99,177.529,409.74z"/>
	<path display="none" fill="#FFFFFF" d="M657.841,232.737c-0.111-0.367-0.173-0.758-0.342-1.095
		c-0.567-1.126-1.502-1.751-2.767-1.781c-1.468-0.034-2.938-0.01-4.407-0.01c-3.337,0-6.675-0.002-10.012,0.001
		c-1.446,0.001-2.638,0.835-3.092,2.16c-0.08,0.235-0.121,0.483-0.18,0.725c0-1.231,0-2.463,0-3.696c6.933,0,13.867,0,20.8,0
		C657.841,230.275,657.841,231.506,657.841,232.737z"/>
	<path display="none" fill="#FFFFFF" d="M644.24,245.304c-0.224-0.561-0.425-1.061-0.625-1.561c-0.07-0.176-0.137-0.353-0.21-0.527
		c-0.158-0.374-0.435-0.569-0.85-0.566c-0.724,0.005-1.449,0.002-2.173,0.001c-1.076-0.002-1.752-0.672-1.752-1.747
		c-0.002-2.572-0.002-5.145,0-7.717c0.001-1.08,0.671-1.752,1.745-1.752c4.725-0.001,9.45-0.001,14.175,0
		c0.825,0,1.453,0.461,1.641,1.212c0.042,0.169,0.059,0.348,0.059,0.522c0.004,2.579,0.004,5.158,0.002,7.737
		c-0.001,1.074-0.677,1.745-1.754,1.745c-2.823,0.001-5.646,0-8.469,0c-0.571,0-0.782,0.143-0.996,0.677
		C644.777,243.967,644.52,244.606,644.24,245.304z"/>
</g>
<g display="none">
	<path display="inline" d="M511,130.509c0,83.672,0,167.344,0,251.016c-0.38,1.406-0.912,2.789-1.117,4.22
		c-4.849,33.871-33.388,62.048-67.504,65.338c-14.645,1.413-29.491,0.852-44.247,0.969c-16.771,0.134-24.341-7.492-24.356-24.17
		c-0.004-4.898-0.001-9.797-0.001-15.172c-5.882,0-11.003,0.127-16.115-0.047c-3.187-0.108-3.973,1.369-3.871,4.216
		c0.147,4.143,0.046,8.296,0.031,12.444c-0.057,14.932-7.769,22.74-22.651,22.748c-50.445,0.03-100.891,0.031-151.336-0.002
		c-13.32-0.009-21.307-7.903-21.629-21.273c-0.116-4.81,0.128-9.633-0.142-14.43c-0.069-1.235-1.41-3.386-2.257-3.432
		c-5.723-0.306-11.47-0.16-17.584-0.16c0,6.7,0.012,12.656-0.003,18.612c-0.025,9.669-6.612,19.658-16.947,19.961
		c-16.879,0.494-33.898,1.313-50.655-0.219c-32.983-3.015-59.344-26.936-67.248-59.041c-0.862-3.503-1.581-7.041-2.367-10.563
		c0-83.672,0-167.344,0-251.016c1.485-5.905,2.534-11.962,4.528-17.69c11.296-32.443,40.624-52.83,75.983-52.85
		c93.26-0.053,186.519-0.019,279.779-0.019c23.398,0,46.797-0.117,70.194,0.029c38.939,0.242,70.521,26.2,77.969,63.861
		C509.895,126.077,510.481,128.287,511,130.509z M314.933,412.869c0-5.561-0.007-10.825,0.001-16.09
		c0.023-15.008,7.963-22.944,23.097-22.978c17.431-0.04,34.862-0.03,52.293-0.002c14.307,0.023,22.122,7.762,22.346,22.111
		c0.072,4.647-0.147,9.308,0.155,13.937c0.075,1.155,1.677,3.183,2.541,3.163c8.93-0.2,18.111,0.45,26.724-1.426
		c18.805-4.096,29.932-20.033,29.943-41.021c0.04-76.365,0.039-152.73-0.045-229.095c-0.005-4.274-0.409-8.668-1.445-12.801
		c-4.716-18.825-20.196-29.815-41.726-29.819c-115.211-0.02-230.423-0.022-345.634,0.042c-4.285,0.002-8.689,0.255-12.835,1.241
		c-18.864,4.487-30.371,20.198-30.382,41.335c-0.041,76.365-0.039,152.729,0.045,229.094c0.005,4.274,0.408,8.668,1.443,12.801
		c4.715,18.827,20.195,29.802,41.727,29.804c5.105,0,12.04,1.559,14.792-1.082c2.677-2.568,1.265-9.602,1.306-14.678
		c0.128-16.148,7.579-23.601,23.876-23.612c16.933-0.012,33.866-0.013,50.799,0.001c15.091,0.012,23.047,7.918,23.109,22.95
		c0.022,5.269,0.003,10.538,0.003,16.124C236.529,412.869,275.443,412.869,314.933,412.869z"/>
	<path fill="#FFFFFF" d="M637.041,244.559c0.032,0.144,0.061,0.288,0.096,0.431c0.322,1.309,1.398,2.285,2.743,2.408
		c0.683,0.062,1.378,0.029,2.066,0.009c0.422-0.012,0.69-0.42,0.691-0.814c0.001-0.243,0-0.486,0-0.759
		c0.249,0,0.484-0.006,0.717,0.007c0.035,0.002,0.089,0.09,0.092,0.14c0.011,0.196,0.001,0.392,0.006,0.589
		c0.013,0.545,0.339,0.867,0.882,0.868c2.057,0.001,4.115,0.001,6.172,0c0.607,0,0.922-0.319,0.924-0.928
		c0.001-0.169,0.005-0.339-0.001-0.508c-0.004-0.116,0.028-0.176,0.158-0.172c0.208,0.007,0.417,0.002,0.657,0.002
		c0,0.219,0,0.419,0,0.619c0.001,0.68,0.309,0.991,0.993,0.986c0.602-0.005,1.207,0.018,1.805-0.04
		c1.391-0.134,2.555-1.283,2.753-2.665c0.008-0.058,0.03-0.115,0.046-0.172c0,1.76,0,3.521,0,5.281c-6.933,0-13.867,0-20.8,0
		C637.041,248.08,637.041,246.32,637.041,244.559z"/>
	<path fill="#FFFFFF" d="M657.841,234.322c-0.021-0.091-0.045-0.181-0.063-0.272c-0.304-1.536-1.592-2.595-3.18-2.605
		c-0.954-0.006-1.909-0.001-2.863-0.001c-3.804,0-7.607-0.001-11.411,0.001c-1.442,0.001-2.638,0.832-3.099,2.155
		c-0.081,0.234-0.124,0.481-0.185,0.721c0-1.759,0-3.519,0-5.28c6.933,0,13.867,0,20.8,0
		C657.841,230.803,657.841,232.563,657.841,234.322z"/>
	<path fill="#FFFFFF" d="M649.844,245.838c-1.611,0-3.198,0-4.807,0c0-0.228,0.001-0.443,0-0.658
		c-0.003-0.613-0.327-0.936-0.943-0.936c-0.691-0.001-1.381-0.001-2.072,0c-0.665,0-0.969,0.304-0.974,0.963
		c-0.002,0.207,0.056,0.494-0.053,0.599c-0.112,0.108-0.395,0.044-0.603,0.044c-0.878,0-1.509-0.448-1.702-1.216
		c-0.042-0.169-0.059-0.348-0.059-0.522c-0.003-3.114-0.004-6.229-0.002-9.343c0-0.862,0.47-1.503,1.239-1.686
		c0.169-0.04,0.349-0.051,0.523-0.051c4.699-0.003,9.398-0.002,14.096-0.002c0.878,0,1.509,0.448,1.702,1.216
		c0.042,0.169,0.059,0.348,0.059,0.522c0.003,3.114,0.003,6.229,0.002,9.343c0,0.856-0.454,1.506-1.221,1.673
		c-0.351,0.077-0.726,0.05-1.09,0.058c-0.035,0.001-0.101-0.082-0.104-0.129c-0.012-0.189-0.003-0.379-0.006-0.568
		c-0.009-0.585-0.328-0.901-0.911-0.902c-0.711-0.001-1.422-0.002-2.133,0c-0.617,0.001-0.941,0.325-0.942,0.937
		C649.844,245.396,649.844,245.611,649.844,245.838z M653.401,239.566c0-1.097,0-2.169,0-3.248c-0.318,0-0.613,0-0.908,0
		c-0.01,0.071-0.018,0.129-0.029,0.207c-0.049-0.029-0.083-0.047-0.114-0.069c-0.28-0.197-0.588-0.263-0.925-0.2
		c-0.552,0.102-0.945,0.419-1.2,0.908c-0.331,0.634-0.344,1.301-0.154,1.973c0.347,1.227,1.487,1.411,2.327,0.911
		c0.044-0.026,0.092-0.045,0.14-0.069c0.03,0.091,0.055,0.167,0.084,0.253c0.648,0,1.291,0.003,1.933-0.005
		c0.057-0.001,0.139-0.056,0.167-0.109c0.547-0.998,0.683-2.054,0.335-3.135c-0.827-2.573-4.135-2.939-5.76-1.195
		c-0.823,0.883-1.102,1.946-0.901,3.119c0.229,1.337,0.978,2.267,2.292,2.687c0.85,0.271,1.712,0.181,2.569,0.018
		c0.037-0.007,0.089-0.069,0.091-0.107c0.008-0.241,0.004-0.482,0.004-0.706c-0.495,0.059-0.961,0.139-1.431,0.165
		c-0.681,0.037-1.3-0.157-1.812-0.624c-0.677-0.619-0.878-1.42-0.84-2.301c0.06-1.398,1.161-2.486,2.535-2.511
		c1.211-0.022,2.096,0.601,2.403,1.717c0.178,0.647,0.151,1.299-0.025,1.945c-0.103,0.378-0.103,0.378-0.502,0.378
		C653.601,239.566,653.52,239.566,653.401,239.566z M643.666,241.803c0.291-0.021,0.815-0.029,1.328-0.106
		c0.39-0.059,0.776-0.179,1.145-0.322c0.306-0.119,0.435-0.381,0.451-0.727c0.02-0.425-0.173-0.72-0.511-0.898
		c-0.506-0.267-1.036-0.489-1.561-0.717c-0.283-0.122-0.383-0.238-0.327-0.54c0.027-0.143,0.106-0.293,0.203-0.403
		c0.593-0.676,0.727-1.449,0.495-2.294c-0.348-1.269-1.827-1.338-2.476-0.716c-0.508,0.487-0.582,1.11-0.517,1.762
		c0.053,0.525,0.32,0.951,0.669,1.337c0.274,0.303,0.174,0.678-0.205,0.832c-0.194,0.079-0.392,0.149-0.585,0.23
		c-0.43,0.182-0.845,0.387-1.209,0.692c-0.397,0.333-0.411,1.213,0.182,1.456c0.094,0.038,0.185,0.084,0.28,0.116
		C641.812,241.768,642.624,241.78,643.666,241.803z"/>
	<path display="inline" d="M402.143,259.091c2.926,0,4.905-0.001,6.884,0c9.767,0.003,9.764,0.002,12.297-9.271
		c4.328-15.842,4.993-31.827,0.623-47.682c-7.539-27.355-29.228-42.644-58.929-42.101c-33.702,0.616-60.705,27.294-62.167,61.567
		c-0.922,21.618,4.008,41.243,20.605,56.429c12.534,11.469,27.731,16.207,44.42,15.309c11.512-0.62,22.952-2.591,35.078-4.036
		c0,5.509,0.1,11.418-0.103,17.318c-0.032,0.932-1.314,2.456-2.224,2.629c-21.018,4.001-42.14,6.213-62.993-0.444
		c-32.236-10.29-50.598-33.091-56.209-65.879c-4.921-28.759,1.917-54.81,22.102-76.468c39.843-42.752,120.965-33.787,141.241,29.305
		c8.524,26.523,5.185,52.419-8.219,76.879c-0.708,1.292-2.697,2.654-4.106,2.671c-15.755,0.189-31.512,0.119-47.401,0.119
		c-0.706-2.126-1.325-3.988-2.063-6.211c-1.185,0.574-2.364,1.042-3.439,1.682c-20.591,12.264-48.551,7.76-57.048-22.328
		c-4.655-16.482-4.345-32.843,3.773-48.378c6.261-11.982,15.89-19.75,29.422-22.263c8.26-1.534,15.811,0.081,22.688,4.905
		c0.765,0.537,1.604,0.968,2.798,1.68c0.264-1.922,0.458-3.332,0.699-5.078c7.235,0,14.46,0,22.269,0
		C402.143,205.909,402.143,232.204,402.143,259.091z M378.963,225.614c0-7.284,0.095-14.571-0.082-21.851
		c-0.034-1.401-0.764-3.553-1.798-4.046c-11.633-5.541-26.735-6.094-32.659,11.379c-3.616,10.668-3.398,21.51-0.831,32.31
		c2.744,11.543,9.78,16.205,21.519,14.689c9.132-1.18,13.855-6.496,13.856-15.595C378.968,236.872,378.968,231.243,378.963,225.614z
		"/>
	<path display="inline" d="M163.457,313.936c-25.549-0.55-45.474-0.843-64.648-7.302c-2.346-0.79-4.577-1.915-6.874-2.855
		c-14.539-5.947-14.199-27.542-4.469-35.696c8.927-7.481,19.098-12.498,29.652-16.961c4.729-2,9.577-3.716,14.337-5.647
		c9.303-3.775,11.754-12.98,5.029-20.398c-8.572-9.456-15.119-19.9-16.41-32.777c-1.604-15.999,0.208-31.279,12.668-43.213
		c15.93-15.257,52.185-13.55,60.715,17.559c5.682,20.721,2.41,39.685-12.131,56.259c-2.374,2.705-4.321,6.376-4.974,9.878
		c-1.379,7.401,1.079,10.24,8.012,13.242c12.885,5.581,25.877,11.034,38.276,17.579c8.29,4.376,13.001,11.606,12.521,22.022
		c-0.391,8.485-3.555,14.926-11.067,17.837c-9.036,3.502-18.515,6.45-28.066,7.885C183.442,313.236,170.6,313.421,163.457,313.936z"
		/>
	<path fill="#FFFFFF" d="M652.456,238.201c0,0.23,0,0.459,0,0.689c0,0.371-0.193,0.588-0.565,0.636
		c-0.479,0.062-0.766-0.128-0.878-0.599c-0.105-0.44-0.114-0.883,0.034-1.318c0.242-0.713,0.858-0.69,1.332-0.464
		c0.042,0.02,0.072,0.108,0.073,0.165C652.459,237.606,652.456,237.904,652.456,238.201z"/>
</g>
</svg>
