<?xml version="1.0" encoding="utf-8"?>
<!-- Generator: Adobe Illustrator 17.0.0, SVG Export Plug-In . SVG Version: 6.00 Build 0)  -->
<!DOCTYPE svg PUBLIC "-//W3C//DTD SVG 1.1//EN" "http://www.w3.org/Graphics/SVG/1.1/DTD/svg11.dtd">
<svg version="1.1" id="Layer_1" xmlns="http://www.w3.org/2000/svg" xmlns:xlink="http://www.w3.org/1999/xlink" x="0px" y="0px"
	 width="512px" height="512px" viewBox="0 0 512 512" enable-background="new 0 0 512 512" xml:space="preserve">
<g>
	<line fill="none" stroke="#B35047" x1="32" y1="0" x2="32" y2="512"/>
	<line fill="none" stroke="#B35047" x1="64" y1="0" x2="64" y2="512"/>
	<line fill="none" stroke="#B35047" x1="96" y1="0" x2="96" y2="512"/>
	<line fill="none" stroke="#B35047" x1="128" y1="0" x2="128" y2="512"/>
	<line fill="none" stroke="#B35047" x1="160" y1="0" x2="160" y2="512"/>
	<line fill="none" stroke="#B35047" x1="192" y1="0" x2="192" y2="512"/>
	<line fill="none" stroke="#B35047" x1="224" y1="0" x2="224" y2="512"/>
	<line fill="none" stroke="#B35047" x1="256" y1="0" x2="256" y2="512"/>
	<line fill="none" stroke="#B35047" x1="288" y1="0" x2="288" y2="512"/>
	<line fill="none" stroke="#B35047" x1="320" y1="0" x2="320" y2="512"/>
	<line fill="none" stroke="#B35047" x1="352" y1="0" x2="352" y2="512"/>
	<line fill="none" stroke="#B35047" x1="384" y1="0" x2="384" y2="512"/>
	<line fill="none" stroke="#B35047" x1="416" y1="0" x2="416" y2="512"/>
	<line fill="none" stroke="#B35047" x1="448" y1="0" x2="448" y2="512"/>
	<line fill="none" stroke="#B35047" x1="480" y1="0" x2="480" y2="512"/>
	<line fill="none" stroke="#B35047" x1="0" y1="32" x2="512" y2="32"/>
	<line fill="none" stroke="#B35047" x1="0" y1="64" x2="512" y2="64"/>
	<line fill="none" stroke="#B35047" x1="0" y1="96" x2="512" y2="96"/>
	<line fill="none" stroke="#B35047" x1="0" y1="128" x2="512" y2="128"/>
	<line fill="none" stroke="#B35047" x1="0" y1="160" x2="512" y2="160"/>
	<line fill="none" stroke="#B35047" x1="0" y1="192" x2="512" y2="192"/>
	<line fill="none" stroke="#B35047" x1="0" y1="224" x2="512" y2="224"/>
	<line fill="none" stroke="#B35047" x1="0" y1="256" x2="512" y2="256"/>
	<line fill="none" stroke="#B35047" x1="0" y1="288" x2="512" y2="288"/>
	<line fill="none" stroke="#B35047" x1="0" y1="320" x2="512" y2="320"/>
	<line fill="none" stroke="#B35047" x1="0" y1="352" x2="512" y2="352"/>
	<line fill="none" stroke="#B35047" x1="0" y1="384" x2="512" y2="384"/>
	<line fill="none" stroke="#B35047" x1="0" y1="416" x2="512" y2="416"/>
	<line fill="none" stroke="#B35047" x1="0" y1="448" x2="512" y2="448"/>
	<line fill="none" stroke="#B35047" x1="0" y1="480" x2="512" y2="480"/>
	<rect x="0" fill="none" stroke="#B35047" width="512" height="512"/>
</g>
<image display="none" overflow="visible" width="512" height="512" xlink:href="../../../Knowledge/Icon/[+++++] (Full) Windows 8 Icons [icons8]/Editing/cllipboard/cllipboard-512.png"  transform="matrix(0.0406 0 0 0.0406 561 47)">
</image>
<image display="none" overflow="visible" width="512" height="512" xlink:href="../../../Knowledge/Icon/[+++++] (Full) Windows 8 Icons [icons8]/Editing/attach/attach-512.png"  transform="matrix(0.0406 0 0 0.0406 561 47)">
</image>
<image display="none" overflow="visible" width="512" height="512" xlink:href="../../../Knowledge/Icon/[+++++] (Full) Windows 8 Icons [icons8]/Editing/erase/erase-512.png"  transform="matrix(0.0406 0 0 0.0406 561 47)">
</image>
<image display="none" overflow="visible" width="512" height="512" xlink:href="../../../Knowledge/Icon/[+++++] (Full) Windows 8 Icons [icons8]/Editing/edit/edit-512.png"  transform="matrix(0.0406 0 0 0.0406 561 47)">
</image>
<image display="none" overflow="visible" width="512" height="512" xlink:href="../../../Knowledge/Icon/[+++++] (Full) Windows 8 Icons [icons8]/Editing/delete/delete-512.png"  transform="matrix(0.0406 0 0 0.0406 561 47)">
</image>
<image display="none" overflow="visible" width="512" height="512" xlink:href="../../../Knowledge/Icon/[+++++] (Full) Windows 8 Icons [icons8]/Editing/cut/cut-512.png"  transform="matrix(0.0406 0 0 0.0406 561 47)">
</image>
<g>
	<path display="none" fill="#FFFFFF" d="M567.581,47.041c4.753,0,9.506,0,14.259,0c0,3.426,0,6.852,0,10.278
		c-0.026-0.097-0.049-0.195-0.078-0.291c-0.166-0.548-0.518-0.982-0.905-1.378c-1.136-1.161-2.288-2.307-3.438-3.454
		c-0.191-0.191-0.399-0.367-0.611-0.535c-0.407-0.322-0.836-0.607-1.384-0.608c-1.09-0.002-2.18,0.001-3.269,0.004
		c-0.425,0.001-0.836,0.088-1.217,0.274c-1.236,0.604-1.882,1.6-1.887,2.974c-0.012,3.053-0.004,6.106-0.004,9.159
		c0,0.44-0.01,0.88,0.007,1.32c0.047,1.278,0.888,2.423,2.095,2.85c0.252,0.089,0.519,0.139,0.779,0.207c-3.625,0-7.25,0-10.887,0
		c0-2.302,0-4.604,0-6.906c0.015,0.058,0.035,0.116,0.044,0.175c0.211,1.492,1.483,2.667,2.997,2.706
		c1.339,0.034,2.68,0.012,4.021,0.014c0.038,0,0.076-0.012,0.116-0.019c0-0.524,0-1.035,0-1.566c-0.092,0-0.172,0-0.251,0
		c-1.198,0-2.396,0.001-3.595,0c-1.065-0.001-1.741-0.672-1.742-1.734c-0.002-3.378-0.002-6.756,0.002-10.134
		c0-0.174,0.015-0.354,0.06-0.521c0.206-0.772,0.814-1.22,1.655-1.224c1.049-0.005,2.099-0.003,3.148-0.003
		c0.319,0,0.535,0.133,0.63,0.438c0.065,0.21,0.103,0.436,0.108,0.655c0.015,0.67,0.008,1.34,0.011,2.01
		c0.001,0.211,0.03,0.413,0.202,0.6c0.253-0.628,0.633-1.137,1.171-1.514c0.538-0.377,1.141-0.569,1.826-0.585
		c-0.043-0.054-0.064-0.087-0.09-0.113c-0.602-0.604-1.196-1.217-1.81-1.808C568.973,47.763,568.399,47.209,567.581,47.041z
		 M568.224,53.469c-1.333,0-2.646,0-3.96,0c0,0.529,0,1.039,0,1.552c1.327,0,2.641,0,3.96,0
		C568.224,54.5,568.224,53.994,568.224,53.469z M564.262,55.864c0,0.529,0,1.04,0,1.558c1.325,0,2.639,0,3.957,0
		c0-0.524,0-1.035,0-1.558C566.899,55.864,565.59,55.864,564.262,55.864z M568.224,58.268c-1.334,0-2.647,0-3.96,0
		c0,0.527,0,1.038,0,1.55c1.327,0,2.641,0,3.96,0C568.224,59.297,568.224,58.791,568.224,58.268z"/>
	<path d="M267.953,511c-6.374-1.667-12.908-2.883-19.096-5.076c-29.577-10.484-50.206-38.561-51.362-69.891
		c-0.398-10.774-0.159-21.573-0.16-32.361c-0.009-74.854-0.213-149.709,0.091-224.561c0.137-33.695,15.978-58.13,46.273-72.929
		c9.34-4.562,19.409-6.686,29.84-6.712c26.72-0.068,53.441-0.138,80.161-0.09c13.425,0.024,23.95,7.009,33.932,14.904
		c5.198,4.111,10.282,8.436,14.97,13.112c28.2,28.129,56.435,56.226,84.292,84.692c9.504,9.712,18.132,20.344,22.198,33.786
		c0.713,2.356,1.275,4.758,1.907,7.138c0,62.422,0,124.844,0,187.266c-0.351,1.077-0.842,2.129-1.031,3.233
		c-5.24,30.493-22.206,51.484-51.113,62.52c-5.957,2.274-12.374,3.344-18.578,4.969C382.836,511,325.395,511,267.953,511z
		 M236.125,305.136c0,41.501-0.052,83.003,0.019,124.504c0.044,25.193,16.539,42.247,41.493,42.347
		c50.963,0.203,101.927,0.114,152.891,0.025c13.496-0.023,24.884-4.87,33.326-15.807c6.293-8.153,8.193-17.573,8.194-27.569
		c0.005-53.454,0.003-106.908,0.003-160.361c0-3.486,0.077-6.974-0.019-10.458c-0.338-12.227-4.518-17.272-16.542-20.004
		c-1.769-0.402-3.582-0.816-5.381-0.849c-17.919-0.325-35.838-0.638-53.759-0.82c-15.06-0.153-22.529-7.58-22.572-22.733
		c-0.046-16.102,0.17-32.211-0.249-48.304c-0.149-5.708-1.277-11.546-2.96-17.017c-1.761-5.725-6.045-9.82-12.414-9.842
		c-28.385-0.097-56.772-0.04-85.156,0.206c-8.016,0.069-15.194,3.183-21.5,8.134c-11.035,8.664-15.38,20.369-15.376,34.043
		C236.131,222.133,236.125,263.635,236.125,305.136z"/>
	<path d="M161.371,1c20.062,4.135,34.116,17.71,48.082,31.132c15.076,14.489,29.626,29.524,44.391,44.335
		c0.653,0.655,1.164,1.453,2.211,2.779c-16.795,0.397-31.595,5.107-44.778,14.343c-13.202,9.25-22.495,21.732-28.71,37.131
		c-4.219-4.573-4.932-9.541-4.954-14.711c-0.07-16.432,0.104-32.869-0.272-49.293c-0.123-5.387-1.056-10.924-2.658-16.069
		c-2.329-7.485-7.629-10.749-15.447-10.748c-25.727,0.005-51.455-0.051-77.181,0.071c-20.626,0.098-35.533,11.088-40.576,30.017
		c-1.094,4.105-1.464,8.514-1.468,12.783c-0.083,82.825-0.092,165.65-0.043,248.475c0.015,26.055,16.597,42.49,42.714,42.521
		c29.379,0.034,58.758,0.008,88.136,0.008c1.951,0,3.902,0,6.159,0c0,13.02,0,25.545,0,38.393c-0.974,0.17-1.904,0.475-2.834,0.474
		c-32.862-0.046-65.74,0.483-98.583-0.352c-37.111-0.944-68.32-29.751-73.486-66.345c-0.205-1.449-0.71-2.855-1.075-4.281
		c0-89.98,0-179.961,0-269.941c0.351-1.077,0.842-2.129,1.031-3.233c5.24-30.493,22.206-51.484,51.113-62.52
		C59.101,3.695,65.518,2.625,71.723,1C101.605,1,131.488,1,161.371,1z"/>
	<path display="none" fill="#FFFFFF" d="M563.925,47.041c-0.253,0.066-0.515,0.11-0.758,0.203c-1.179,0.45-1.871,1.306-2.085,2.55
		c-0.008,0.045-0.028,0.088-0.042,0.132c0-0.961,0-1.923,0-2.884C562.002,47.041,562.964,47.041,563.925,47.041z"/>
	<path display="none" fill="#FFFFFF" d="M578.956,67.841c0.253-0.066,0.515-0.11,0.758-0.203c1.179-0.45,1.871-1.306,2.085-2.55
		c0.008-0.045,0.028-0.088,0.042-0.132c0,0.961,0,1.923,0,2.884C580.879,67.841,579.918,67.841,578.956,67.841z"/>
	<path d="M177.131,158.62c0,12.87,0,25.275,0,38.064c-32.348,0-64.565,0-97.102,0c0-12.582,0-25.101,0-38.064
		C112.244,158.62,144.443,158.62,177.131,158.62z"/>
	<path d="M79.98,217.347c32.572,0,64.664,0,97.032,0c0,12.819,0,25.343,0,38.199c-32.325,0-64.543,0-97.032,0
		C79.98,242.842,79.98,230.321,79.98,217.347z"/>
	<path d="M177.137,276.285c0,12.824,0,25.226,0,38.007c-32.355,0-64.568,0-97.105,0c0-12.56,0-25.077,0-38.007
		C112.229,276.285,144.434,276.285,177.137,276.285z"/>
	<path display="none" fill="#FFFFFF" d="M570.63,59.445c0-1.693,0-3.385,0-5.078c0-0.558,0.177-1.035,0.627-1.388
		c0.257-0.202,0.55-0.329,0.877-0.332c1.158-0.01,2.315-0.012,3.473-0.008c0.26,0.001,0.434,0.168,0.506,0.401
		c0.069,0.223,0.115,0.461,0.121,0.694c0.017,0.656,0.008,1.313,0.01,1.97c0.002,0.618,0.306,0.921,0.921,0.927
		c0.731,0.007,1.462,0.02,2.193,0.033c0.073,0.001,0.147,0.018,0.219,0.035c0.49,0.111,0.661,0.317,0.675,0.816
		c0.004,0.142,0.001,0.284,0.001,0.427c0,2.18,0,4.36,0,6.54c0,0.408-0.078,0.792-0.334,1.124c-0.344,0.446-0.809,0.644-1.359,0.645
		c-2.078,0.004-4.157,0.007-6.236-0.001c-1.018-0.004-1.69-0.7-1.692-1.727C570.628,62.83,570.63,61.137,570.63,59.445z
		 M572.259,59.011c2.134,0,4.247,0,6.358,0c0-0.529,0-1.039,0-1.55c-2.127,0-4.241,0-6.358,0
		C572.259,57.983,572.259,58.489,572.259,59.011z M578.623,62.26c-2.134,0-4.246,0-6.358,0c0,0.528,0,1.039,0,1.552
		c2.127,0,4.239,0,6.358,0C578.623,63.287,578.623,62.781,578.623,62.26z M572.259,61.415c1.6,0,3.179,0,4.76,0
		c0-0.531,0-1.046,0-1.554c-1.597,0-3.177,0-4.76,0C572.259,60.383,572.259,60.889,572.259,61.415z"/>
	<path d="M276.056,294.516c0-12.801,0-25.212,0-38.007c51.921,0,103.741,0,155.897,0c0,12.523,0,25.047,0,38.007
		C380.188,294.516,328.385,294.516,276.056,294.516z"/>
	<path d="M432.116,374.177c0,12.774,0,25.18,0,38.047c-51.956,0-103.741,0-155.884,0c0-12.582,0-25.112,0-38.047
		C328.001,374.177,379.8,374.177,432.116,374.177z"/>
	<path d="M276.066,353.447c0-12.891,0-25.3,0-38.112c38.822,0,77.552,0,116.721,0c0,12.458,0,25.095,0,38.112
		C354.023,353.447,315.307,353.447,276.066,353.447z"/>
</g>
</svg>
