<?xml version="1.0" encoding="utf-8"?>
<!-- Generator: Adobe Illustrator 17.0.0, SVG Export Plug-In . SVG Version: 6.00 Build 0)  -->
<!DOCTYPE svg PUBLIC "-//W3C//DTD SVG 1.1//EN" "http://www.w3.org/Graphics/SVG/1.1/DTD/svg11.dtd">
<svg version="1.1" id="Layer_1" xmlns="http://www.w3.org/2000/svg" xmlns:xlink="http://www.w3.org/1999/xlink" x="0px" y="0px"
	 width="512px" height="512px" viewBox="0 0 512 512" enable-background="new 0 0 512 512" xml:space="preserve">
<g>
	<line fill="none" stroke="#B35047" x1="32" y1="0" x2="32" y2="512"/>
	<line fill="none" stroke="#B35047" x1="64" y1="0" x2="64" y2="512"/>
	<line fill="none" stroke="#B35047" x1="96" y1="0" x2="96" y2="512"/>
	<line fill="none" stroke="#B35047" x1="128" y1="0" x2="128" y2="512"/>
	<line fill="none" stroke="#B35047" x1="160" y1="0" x2="160" y2="512"/>
	<line fill="none" stroke="#B35047" x1="192" y1="0" x2="192" y2="512"/>
	<line fill="none" stroke="#B35047" x1="224" y1="0" x2="224" y2="512"/>
	<line fill="none" stroke="#B35047" x1="256" y1="0" x2="256" y2="512"/>
	<line fill="none" stroke="#B35047" x1="288" y1="0" x2="288" y2="512"/>
	<line fill="none" stroke="#B35047" x1="320" y1="0" x2="320" y2="512"/>
	<line fill="none" stroke="#B35047" x1="352" y1="0" x2="352" y2="512"/>
	<line fill="none" stroke="#B35047" x1="384" y1="0" x2="384" y2="512"/>
	<line fill="none" stroke="#B35047" x1="416" y1="0" x2="416" y2="512"/>
	<line fill="none" stroke="#B35047" x1="448" y1="0" x2="448" y2="512"/>
	<line fill="none" stroke="#B35047" x1="480" y1="0" x2="480" y2="512"/>
	<line fill="none" stroke="#B35047" x1="0" y1="32" x2="512" y2="32"/>
	<line fill="none" stroke="#B35047" x1="0" y1="64" x2="512" y2="64"/>
	<line fill="none" stroke="#B35047" x1="0" y1="96" x2="512" y2="96"/>
	<line fill="none" stroke="#B35047" x1="0" y1="128" x2="512" y2="128"/>
	<line fill="none" stroke="#B35047" x1="0" y1="160" x2="512" y2="160"/>
	<line fill="none" stroke="#B35047" x1="0" y1="192" x2="512" y2="192"/>
	<line fill="none" stroke="#B35047" x1="0" y1="224" x2="512" y2="224"/>
	<line fill="none" stroke="#B35047" x1="0" y1="256" x2="512" y2="256"/>
	<line fill="none" stroke="#B35047" x1="0" y1="288" x2="512" y2="288"/>
	<line fill="none" stroke="#B35047" x1="0" y1="320" x2="512" y2="320"/>
	<line fill="none" stroke="#B35047" x1="0" y1="352" x2="512" y2="352"/>
	<line fill="none" stroke="#B35047" x1="0" y1="384" x2="512" y2="384"/>
	<line fill="none" stroke="#B35047" x1="0" y1="416" x2="512" y2="416"/>
	<line fill="none" stroke="#B35047" x1="0" y1="448" x2="512" y2="448"/>
	<line fill="none" stroke="#B35047" x1="0" y1="480" x2="512" y2="480"/>
	<rect x="0" fill="none" stroke="#B35047" width="512" height="512"/>
</g>
<image display="none" overflow="visible" width="512" height="512" xlink:href="../../../Knowledge/Icon/[+++++] (Full) Windows 8 Icons [icons8]/Editing/cllipboard/cllipboard-512.png"  transform="matrix(0.0406 0 0 0.0406 561 47)">
</image>
<image display="none" overflow="visible" width="512" height="512" xlink:href="../../../Knowledge/Icon/[+++++] (Full) Windows 8 Icons [icons8]/Editing/attach/attach-512.png"  transform="matrix(0.0406 0 0 0.0406 561 47)">
</image>
<image display="none" overflow="visible" width="512" height="512" xlink:href="../../../Knowledge/Icon/[+++++] (Full) Windows 8 Icons [icons8]/Editing/erase/erase-512.png"  transform="matrix(0.0406 0 0 0.0406 561 47)">
</image>
<image display="none" overflow="visible" width="512" height="512" xlink:href="../../../Knowledge/Icon/[+++++] (Full) Windows 8 Icons [icons8]/Editing/edit/edit-512.png"  transform="matrix(0.0406 0 0 0.0406 561 47)">
</image>
<image display="none" overflow="visible" width="512" height="512" xlink:href="../../../Knowledge/Icon/[+++++] (Full) Windows 8 Icons [icons8]/Editing/delete/delete-512.png"  transform="matrix(0.0406 0 0 0.0406 561 47)">
</image>
<g>
	<path display="none" fill="#FFFFFF" d="M581.834,67.841c-6.929,0-13.86,0-20.793,0c0-6.931,0-13.862,0-20.796
		c6.928,0,13.858,0,20.793,0C581.834,53.974,581.834,60.907,581.834,67.841z M575.031,47.31c-0.784,0.235-1.473,0.557-2.102,1
		c-1.168,0.824-2.002,1.895-2.346,3.299c-0.815,3.327-1.618,6.656-2.416,9.987c-0.273,1.14-0.486,2.29-0.379,3.473
		c0.052,0.566,0.188,1.108,0.529,1.576c0.4,0.549,0.971,0.806,1.624,0.893c0.959,0.128,1.804-0.117,2.343-0.954
		c0.809-1.255,0.964-2.624,0.464-4.036c-0.229-0.646-0.713-1.077-1.366-1.295c-0.216-0.072-0.446-0.105-0.669-0.158
		c-0.324-0.077-0.448-0.274-0.378-0.598c0.016-0.072,0.037-0.144,0.061-0.214c0.242-0.715,0.654-1.331,1.119-1.917
		c0.704-0.887,1.187-1.887,1.468-2.98c0.571-2.218,1.13-4.439,1.694-6.658C574.793,48.27,574.906,47.813,575.031,47.31z
		 M581.782,55.113c-0.48,0.068-0.915,0.128-1.348,0.191c-2.101,0.306-4.202,0.615-6.303,0.918c-0.119,0.017-0.197,0.046-0.24,0.171
		c-0.344,0.992-0.862,1.892-1.461,2.75c-0.102,0.146-0.186,0.306-0.294,0.487c0.786-0.098,1.53-0.19,2.274-0.283
		c0.92-0.114,1.844-0.198,2.758-0.349c1.519-0.252,2.716-1.056,3.659-2.257C581.208,56.255,581.517,55.728,581.782,55.113z
		 M568.001,58.234c-0.373-0.093-0.416-0.147-0.422-0.505c-0.001-0.041-0.001-0.081-0.002-0.122
		c-0.039-1.007-0.505-1.738-1.428-2.151c-0.882-0.395-1.81-0.411-2.746-0.265c-0.549,0.086-1.061,0.276-1.489,0.642
		c-0.75,0.643-0.914,1.484-0.77,2.412c0.112,0.721,0.5,1.256,1.144,1.605c0.527,0.285,1.1,0.407,1.687,0.468
		c1.16,0.121,2.309-0.005,3.455-0.17c0.053-0.008,0.128-0.064,0.14-0.111C567.719,59.441,567.858,58.843,568.001,58.234z"/>
	<path d="M344.57,6.259c-3.102,12.402-5.886,23.672-8.742,34.924c-13.892,54.728-27.684,109.482-41.757,164.164
		c-6.937,26.954-18.836,51.589-36.19,73.468c-11.454,14.44-21.612,29.63-27.586,47.262c-0.586,1.73-1.115,3.492-1.501,5.276
		c-1.731,8.001,1.338,12.854,9.321,14.749c5.502,1.306,11.168,2.1,16.507,3.883c16.116,5.383,28.045,16.004,33.686,31.936
		c12.332,34.832,8.5,68.568-11.44,99.519c-13.297,20.639-34.119,26.662-57.77,23.517c-16.106-2.142-30.17-8.475-40.04-22.008
		c-8.41-11.532-11.772-24.887-13.042-38.847c-2.653-29.159,2.601-57.524,9.334-85.625c19.677-82.122,39.479-164.216,59.572-246.237
		c8.475-34.597,29.03-61.024,57.831-81.328C308.256,19.982,325.231,12.043,344.57,6.259z M197.892,434.884
		c0,2.502-0.217,5.027,0.039,7.503c0.919,8.907,2.663,17.605,9.638,24.022c15.241,14.023,38.788,9.296,47.696-9.778
		c7.31-15.652,8.972-32.393,7.46-49.394c-0.729-8.197-3.024-16.16-9.548-21.97c-15.393-13.708-38.392-9.04-47.47,9.721
		C199.624,407.558,198.052,421.117,197.892,434.884z M198.825,294.552c-0.098,8.803,6.81,15.953,15.621,16.17
		c8.818,0.217,16.443-7.227,16.408-16.018c-0.035-8.693-7.21-15.803-15.991-15.845C206.064,278.817,198.922,285.806,198.825,294.552
		z"/>
	<path d="M511,198.638c-6.519,15.157-14.154,28.171-23.563,40.144c-23.258,29.594-52.766,49.436-90.223,55.638
		c-22.52,3.729-45.316,5.787-67.987,8.601c-18.35,2.278-36.699,4.564-56.069,6.974c2.677-4.459,4.734-8.388,7.253-11.997
		c14.758-21.146,27.521-43.346,36.012-67.801c1.066-3.069,2.998-3.792,5.929-4.215c51.811-7.479,103.605-15.081,155.406-22.636
		C488.45,201.786,499.155,200.313,511,198.638z"/>
	<path d="M171.242,275.596c-3.545,15.019-6.962,29.767-10.619,44.454c-0.289,1.159-2.161,2.552-3.456,2.738
		c-28.26,4.067-56.594,7.183-85.192,4.195c-14.487-1.514-28.609-4.505-41.603-11.543c-15.874-8.599-25.444-21.789-28.203-39.565
		c-3.551-22.881,0.489-43.609,18.986-59.472c10.541-9.04,23.178-13.726,36.712-15.834c23.089-3.597,45.962-3.196,67.708,6.542
		c22.749,10.187,34.236,28.202,35.198,53.027c0.039,1,0.043,2.001,0.06,3.002C160.986,271.961,162.038,273.296,171.242,275.596z
		 M78.593,294.554c13.167-0.043,23.788-0.795,33.755-5.309c11.402-5.164,16.711-14.028,16.775-26.54
		c0.064-12.695-4.936-22.323-16.836-26.908c-20.696-7.975-41.805-7.912-62.54-0.104c-11.959,4.504-17.123,14.163-17.121,26.764
		c0.003,12.595,5.358,21.723,17.064,26.893C59.7,293.771,70.309,294.499,78.593,294.554z"/>
	<path display="none" fill="#FFFFFF" d="M569.082,64.695c0.007-0.558,0.07-1.108,0.317-1.618c0.368-0.761,1.301-0.95,1.925-0.394
		c0.265,0.236,0.358,0.559,0.387,0.891c0.061,0.69-0.006,1.369-0.303,2.003c-0.361,0.774-1.316,0.965-1.935,0.397
		c-0.283-0.26-0.354-0.613-0.391-0.974C569.073,64.899,569.082,64.796,569.082,64.695z"/>
	<path display="none" fill="#FFFFFF" d="M569.12,59.003c0.004-0.355,0.294-0.638,0.65-0.636c0.356,0.002,0.647,0.29,0.649,0.643
		c0.001,0.357-0.308,0.658-0.666,0.65C569.396,59.65,569.116,59.36,569.12,59.003z"/>
	<path display="none" fill="#FFFFFF" d="M564.243,59.003c-0.336-0.002-0.766-0.032-1.172-0.211c-0.475-0.21-0.692-0.58-0.692-1.091
		c0-0.511,0.209-0.903,0.694-1.086c0.841-0.317,1.697-0.319,2.537,0.004c0.483,0.186,0.685,0.576,0.683,1.091
		c-0.003,0.507-0.218,0.867-0.68,1.076C565.208,58.971,564.778,59.001,564.243,59.003z"/>
</g>
<g display="none">
	<path fill="#FFFFFF" d="M567.581,47.041c4.753,0,9.506,0,14.259,0c0,3.426,0,6.852,0,10.278c-0.026-0.097-0.049-0.195-0.078-0.291
		c-0.166-0.548-0.518-0.982-0.905-1.378c-1.136-1.161-2.288-2.307-3.438-3.454c-0.191-0.191-0.399-0.367-0.611-0.535
		c-0.407-0.322-0.836-0.607-1.384-0.608c-1.09-0.002-2.18,0.001-3.269,0.004c-0.425,0.001-0.836,0.088-1.217,0.274
		c-1.236,0.604-1.882,1.6-1.887,2.974c-0.012,3.053-0.004,6.106-0.004,9.159c0,0.44-0.01,0.88,0.007,1.32
		c0.047,1.278,0.888,2.423,2.095,2.85c0.252,0.089,0.519,0.139,0.779,0.207c-3.625,0-7.25,0-10.887,0c0-2.302,0-4.604,0-6.906
		c0.015,0.058,0.035,0.116,0.044,0.175c0.211,1.492,1.483,2.667,2.997,2.706c1.339,0.034,2.68,0.012,4.021,0.014
		c0.038,0,0.076-0.012,0.116-0.019c0-0.524,0-1.035,0-1.566c-0.092,0-0.172,0-0.251,0c-1.198,0-2.396,0.001-3.595,0
		c-1.065-0.001-1.741-0.672-1.742-1.734c-0.002-3.378-0.002-6.756,0.002-10.134c0-0.174,0.015-0.354,0.06-0.521
		c0.206-0.772,0.814-1.22,1.655-1.224c1.049-0.005,2.099-0.003,3.148-0.003c0.319,0,0.535,0.133,0.63,0.438
		c0.065,0.21,0.103,0.436,0.108,0.655c0.015,0.67,0.008,1.34,0.011,2.01c0.001,0.211,0.03,0.413,0.202,0.6
		c0.253-0.628,0.633-1.137,1.171-1.514c0.538-0.377,1.141-0.569,1.826-0.585c-0.043-0.054-0.064-0.087-0.09-0.113
		c-0.602-0.604-1.196-1.217-1.81-1.808C568.973,47.763,568.399,47.209,567.581,47.041z M568.224,53.469c-1.333,0-2.646,0-3.96,0
		c0,0.529,0,1.039,0,1.552c1.327,0,2.641,0,3.96,0C568.224,54.5,568.224,53.994,568.224,53.469z M564.262,55.864
		c0,0.529,0,1.04,0,1.558c1.325,0,2.639,0,3.957,0c0-0.524,0-1.035,0-1.558C566.899,55.864,565.59,55.864,564.262,55.864z
		 M568.224,58.268c-1.334,0-2.647,0-3.96,0c0,0.527,0,1.038,0,1.55c1.327,0,2.641,0,3.96,0
		C568.224,59.297,568.224,58.791,568.224,58.268z"/>
	<path display="inline" d="M267.953,511c-6.374-1.667-12.908-2.883-19.096-5.076c-29.577-10.484-50.206-38.561-51.362-69.891
		c-0.398-10.774-0.159-21.573-0.16-32.361c-0.009-74.854-0.213-149.709,0.091-224.561c0.137-33.695,15.978-58.13,46.273-72.929
		c9.34-4.562,19.409-6.686,29.84-6.712c26.72-0.068,53.441-0.138,80.161-0.09c13.425,0.024,23.95,7.009,33.932,14.904
		c5.198,4.111,10.282,8.436,14.97,13.112c28.2,28.129,56.435,56.226,84.292,84.692c9.504,9.712,18.132,20.344,22.198,33.786
		c0.713,2.356,1.275,4.758,1.907,7.138c0,62.422,0,124.844,0,187.266c-0.351,1.077-0.842,2.129-1.031,3.233
		c-5.24,30.493-22.206,51.484-51.113,62.52c-5.957,2.274-12.374,3.344-18.578,4.969C382.836,511,325.395,511,267.953,511z
		 M236.125,305.136c0,41.501-0.052,83.003,0.019,124.504c0.044,25.193,16.539,42.247,41.493,42.347
		c50.963,0.203,101.927,0.114,152.891,0.025c13.496-0.023,24.884-4.87,33.326-15.807c6.293-8.153,8.193-17.573,8.194-27.569
		c0.005-53.454,0.003-106.908,0.003-160.361c0-3.486,0.077-6.974-0.019-10.458c-0.338-12.227-4.518-17.272-16.542-20.004
		c-1.769-0.402-3.582-0.816-5.381-0.849c-17.919-0.325-35.838-0.638-53.759-0.82c-15.06-0.153-22.529-7.58-22.572-22.733
		c-0.046-16.102,0.17-32.211-0.249-48.304c-0.149-5.708-1.277-11.546-2.96-17.017c-1.761-5.725-6.045-9.82-12.414-9.842
		c-28.385-0.097-56.772-0.04-85.156,0.206c-8.016,0.069-15.194,3.183-21.5,8.134c-11.035,8.664-15.38,20.369-15.376,34.043
		C236.131,222.133,236.125,263.635,236.125,305.136z"/>
	<path display="inline" d="M161.371,1c20.062,4.135,34.116,17.71,48.082,31.132c15.076,14.489,29.626,29.524,44.391,44.335
		c0.653,0.655,1.164,1.453,2.211,2.779c-16.795,0.397-31.595,5.107-44.778,14.343c-13.202,9.25-22.495,21.732-28.71,37.131
		c-4.219-4.573-4.932-9.541-4.954-14.711c-0.07-16.432,0.104-32.869-0.272-49.293c-0.123-5.387-1.056-10.924-2.658-16.069
		c-2.329-7.485-7.629-10.749-15.447-10.748c-25.727,0.005-51.455-0.051-77.181,0.071c-20.626,0.098-35.533,11.088-40.576,30.017
		c-1.094,4.105-1.464,8.514-1.468,12.783c-0.083,82.825-0.092,165.65-0.043,248.475c0.015,26.055,16.597,42.49,42.714,42.521
		c29.379,0.034,58.758,0.008,88.136,0.008c1.951,0,3.902,0,6.159,0c0,13.02,0,25.545,0,38.393c-0.974,0.17-1.904,0.475-2.834,0.474
		c-32.862-0.046-65.74,0.483-98.583-0.352c-37.111-0.944-68.32-29.751-73.486-66.345c-0.205-1.449-0.71-2.855-1.075-4.281
		c0-89.98,0-179.961,0-269.941c0.351-1.077,0.842-2.129,1.031-3.233c5.24-30.493,22.206-51.484,51.113-62.52
		C59.101,3.695,65.518,2.625,71.723,1C101.605,1,131.488,1,161.371,1z"/>
	<path fill="#FFFFFF" d="M563.925,47.041c-0.253,0.066-0.515,0.11-0.758,0.203c-1.179,0.45-1.871,1.306-2.085,2.55
		c-0.008,0.045-0.028,0.088-0.042,0.132c0-0.961,0-1.923,0-2.884C562.002,47.041,562.964,47.041,563.925,47.041z"/>
	<path fill="#FFFFFF" d="M578.956,67.841c0.253-0.066,0.515-0.11,0.758-0.203c1.179-0.45,1.871-1.306,2.085-2.55
		c0.008-0.045,0.028-0.088,0.042-0.132c0,0.961,0,1.923,0,2.884C580.879,67.841,579.918,67.841,578.956,67.841z"/>
	<path display="inline" d="M177.131,158.62c0,12.87,0,25.275,0,38.064c-32.348,0-64.565,0-97.102,0c0-12.582,0-25.101,0-38.064
		C112.244,158.62,144.443,158.62,177.131,158.62z"/>
	<path display="inline" d="M79.98,217.347c32.572,0,64.664,0,97.032,0c0,12.819,0,25.343,0,38.199c-32.325,0-64.543,0-97.032,0
		C79.98,242.842,79.98,230.321,79.98,217.347z"/>
	<path display="inline" d="M177.137,276.285c0,12.824,0,25.226,0,38.007c-32.355,0-64.568,0-97.105,0c0-12.56,0-25.077,0-38.007
		C112.229,276.285,144.434,276.285,177.137,276.285z"/>
	<path fill="#FFFFFF" d="M570.63,59.445c0-1.693,0-3.385,0-5.078c0-0.558,0.177-1.035,0.627-1.388
		c0.257-0.202,0.55-0.329,0.877-0.332c1.158-0.01,2.315-0.012,3.473-0.008c0.26,0.001,0.434,0.168,0.506,0.401
		c0.069,0.223,0.115,0.461,0.121,0.694c0.017,0.656,0.008,1.313,0.01,1.97c0.002,0.618,0.306,0.921,0.921,0.927
		c0.731,0.007,1.462,0.02,2.193,0.033c0.073,0.001,0.147,0.018,0.219,0.035c0.49,0.111,0.661,0.317,0.675,0.816
		c0.004,0.142,0.001,0.284,0.001,0.427c0,2.18,0,4.36,0,6.54c0,0.408-0.078,0.792-0.334,1.124c-0.344,0.446-0.809,0.644-1.359,0.645
		c-2.078,0.004-4.157,0.007-6.236-0.001c-1.018-0.004-1.69-0.7-1.692-1.727C570.628,62.83,570.63,61.137,570.63,59.445z
		 M572.259,59.011c2.134,0,4.247,0,6.358,0c0-0.529,0-1.039,0-1.55c-2.127,0-4.241,0-6.358,0
		C572.259,57.983,572.259,58.489,572.259,59.011z M578.623,62.26c-2.134,0-4.246,0-6.358,0c0,0.528,0,1.039,0,1.552
		c2.127,0,4.239,0,6.358,0C578.623,63.287,578.623,62.781,578.623,62.26z M572.259,61.415c1.6,0,3.179,0,4.76,0
		c0-0.531,0-1.046,0-1.554c-1.597,0-3.177,0-4.76,0C572.259,60.383,572.259,60.889,572.259,61.415z"/>
	<path display="inline" d="M276.056,294.516c0-12.801,0-25.212,0-38.007c51.921,0,103.741,0,155.897,0c0,12.523,0,25.047,0,38.007
		C380.188,294.516,328.385,294.516,276.056,294.516z"/>
	<path display="inline" d="M432.116,374.177c0,12.774,0,25.18,0,38.047c-51.956,0-103.741,0-155.884,0c0-12.582,0-25.112,0-38.047
		C328.001,374.177,379.8,374.177,432.116,374.177z"/>
	<path display="inline" d="M276.066,353.447c0-12.891,0-25.3,0-38.112c38.822,0,77.552,0,116.721,0c0,12.458,0,25.095,0,38.112
		C354.023,353.447,315.307,353.447,276.066,353.447z"/>
</g>
</svg>
