<?xml version="1.0" encoding="utf-8"?>
<!-- Generator: Adobe Illustrator 17.0.0, SVG Export Plug-In . SVG Version: 6.00 Build 0)  -->
<!DOCTYPE svg PUBLIC "-//W3C//DTD SVG 1.1//EN" "http://www.w3.org/Graphics/SVG/1.1/DTD/svg11.dtd">
<svg version="1.1" id="Layer_1" xmlns="http://www.w3.org/2000/svg" xmlns:xlink="http://www.w3.org/1999/xlink" x="0px" y="0px"
	 width="512px" height="512px" viewBox="0 0 512 512" enable-background="new 0 0 512 512" xml:space="preserve">
<g display="none">
	<path fill="#FFFFFF" d="M609.841,63.839c-6.931,0-13.861,0-20.796,0c0-6.928,0-13.857,0-20.792c6.929,0,13.863,0,20.796,0
		C609.841,49.975,609.841,56.906,609.841,63.839z M599.437,56.168c0.095,0.122,0.139,0.192,0.196,0.249
		c1.306,1.308,2.613,2.615,3.92,3.921c0.423,0.423,0.853,0.424,1.274,0.005c0.499-0.497,0.997-0.995,1.494-1.493
		c0.449-0.449,0.448-0.866-0.004-1.318c-1.307-1.307-2.614-2.614-3.92-3.922c-0.055-0.055-0.107-0.113-0.183-0.193
		c0.078-0.063,0.14-0.106,0.192-0.158c1.313-1.311,2.625-2.622,3.936-3.934c0.419-0.419,0.418-0.855-0.002-1.275
		c-0.493-0.494-0.987-0.985-1.481-1.478c-0.465-0.464-0.87-0.466-1.33-0.005c-1.307,1.307-2.614,2.613-3.922,3.92
		c-0.052,0.052-0.106,0.101-0.168,0.159c-0.062-0.059-0.116-0.107-0.168-0.159c-1.302-1.302-2.604-2.604-3.907-3.906
		c-0.48-0.48-0.874-0.478-1.359,0.006c-0.479,0.478-0.958,0.957-1.437,1.436c-0.461,0.462-0.462,0.871-0.001,1.332
		c1.302,1.302,2.604,2.604,3.906,3.907c0.056,0.056,0.109,0.115,0.171,0.18c-0.062,0.064-0.111,0.118-0.163,0.17
		c-1.316,1.317-2.633,2.633-3.949,3.95c-0.411,0.412-0.412,0.85-0.003,1.26c0.497,0.498,0.997,0.995,1.496,1.492
		c0.462,0.46,0.867,0.458,1.331-0.006c1.303-1.302,2.606-2.603,3.907-3.906C599.318,56.35,599.354,56.282,599.437,56.168z"/>
	<path display="inline" d="M599.437,56.168c-0.082,0.114-0.119,0.182-0.171,0.234c-1.301,1.303-2.604,2.605-3.907,3.906
		c-0.464,0.464-0.87,0.465-1.331,0.006c-0.499-0.497-0.998-0.993-1.496-1.492c-0.409-0.41-0.409-0.848,0.003-1.26
		c1.316-1.317,2.633-2.633,3.949-3.95c0.052-0.052,0.102-0.106,0.163-0.17c-0.062-0.065-0.115-0.124-0.171-0.18
		c-1.302-1.302-2.604-2.604-3.906-3.907c-0.461-0.461-0.46-0.87,0.001-1.332c0.479-0.479,0.958-0.957,1.437-1.436
		c0.485-0.485,0.878-0.487,1.359-0.006c1.302,1.302,2.604,2.604,3.907,3.906c0.052,0.052,0.106,0.1,0.168,0.159
		c0.062-0.059,0.116-0.108,0.168-0.159c1.307-1.307,2.614-2.613,3.922-3.92c0.46-0.46,0.865-0.458,1.33,0.005
		c0.494,0.492,0.988,0.984,1.481,1.478c0.419,0.42,0.421,0.856,0.002,1.275c-1.311,1.312-2.623,2.624-3.936,3.934
		c-0.052,0.052-0.115,0.095-0.192,0.158c0.076,0.08,0.128,0.138,0.183,0.193c1.307,1.307,2.614,2.614,3.92,3.922
		c0.451,0.452,0.453,0.869,0.004,1.318c-0.498,0.498-0.995,0.996-1.494,1.493c-0.421,0.419-0.85,0.418-1.274-0.005
		c-1.308-1.306-2.615-2.613-3.92-3.921C599.576,56.36,599.532,56.29,599.437,56.168z"/>
</g>
<g>
	<line fill="none" stroke="#B35047" x1="32" y1="0" x2="32" y2="512"/>
	<line fill="none" stroke="#B35047" x1="64" y1="0" x2="64" y2="512"/>
	<line fill="none" stroke="#B35047" x1="96" y1="0" x2="96" y2="512"/>
	<line fill="none" stroke="#B35047" x1="128" y1="0" x2="128" y2="512"/>
	<line fill="none" stroke="#B35047" x1="160" y1="0" x2="160" y2="512"/>
	<line fill="none" stroke="#B35047" x1="192" y1="0" x2="192" y2="512"/>
	<line fill="none" stroke="#B35047" x1="224" y1="0" x2="224" y2="512"/>
	<line fill="none" stroke="#B35047" x1="256" y1="0" x2="256" y2="512"/>
	<line fill="none" stroke="#B35047" x1="288" y1="0" x2="288" y2="512"/>
	<line fill="none" stroke="#B35047" x1="320" y1="0" x2="320" y2="512"/>
	<line fill="none" stroke="#B35047" x1="352" y1="0" x2="352" y2="512"/>
	<line fill="none" stroke="#B35047" x1="384" y1="0" x2="384" y2="512"/>
	<line fill="none" stroke="#B35047" x1="416" y1="0" x2="416" y2="512"/>
	<line fill="none" stroke="#B35047" x1="448" y1="0" x2="448" y2="512"/>
	<line fill="none" stroke="#B35047" x1="480" y1="0" x2="480" y2="512"/>
	<line fill="none" stroke="#B35047" x1="0" y1="32" x2="512" y2="32"/>
	<line fill="none" stroke="#B35047" x1="0" y1="64" x2="512" y2="64"/>
	<line fill="none" stroke="#B35047" x1="0" y1="96" x2="512" y2="96"/>
	<line fill="none" stroke="#B35047" x1="0" y1="128" x2="512" y2="128"/>
	<line fill="none" stroke="#B35047" x1="0" y1="160" x2="512" y2="160"/>
	<line fill="none" stroke="#B35047" x1="0" y1="192" x2="512" y2="192"/>
	<line fill="none" stroke="#B35047" x1="0" y1="224" x2="512" y2="224"/>
	<line fill="none" stroke="#B35047" x1="0" y1="256" x2="512" y2="256"/>
	<line fill="none" stroke="#B35047" x1="0" y1="288" x2="512" y2="288"/>
	<line fill="none" stroke="#B35047" x1="0" y1="320" x2="512" y2="320"/>
	<line fill="none" stroke="#B35047" x1="0" y1="352" x2="512" y2="352"/>
	<line fill="none" stroke="#B35047" x1="0" y1="384" x2="512" y2="384"/>
	<line fill="none" stroke="#B35047" x1="0" y1="416" x2="512" y2="416"/>
	<line fill="none" stroke="#B35047" x1="0" y1="448" x2="512" y2="448"/>
	<line fill="none" stroke="#B35047" x1="0" y1="480" x2="512" y2="480"/>
	<rect x="0" fill="none" stroke="#B35047" width="512" height="512"/>
</g>
<image display="none" overflow="visible" width="512" height="512" xlink:href="../../../Knowledge/Icon/[+++++] (Full) Windows 8 Icons [icons8]/Timeline_List_Grid/list/list-512.png"  transform="matrix(0.0406 0 0 0.0406 587 70)">
</image>
<image display="none" overflow="visible" width="512" height="512" xlink:href="../../../Knowledge/Icon/[+++++] (Full) Windows 8 Icons [icons8]/Timewise/today/today-512_.png"  transform="matrix(0.0406 0 0 0.0406 595 154)">
</image>
<g>
	<path display="none" fill="#FFFFFF" d="M597.041,187.778c0-1.243,0-2.486,0-3.738c1.815,0,3.629,0,5.444,0
		c-0.296,0.125-0.595,0.289-0.605,0.637c-0.026,0.91-0.034,1.823,0.004,2.732c0.017,0.396,0.411,0.64,0.823,0.614
		c0.377-0.024,0.702-0.318,0.71-0.703c0.017-0.851,0.012-1.703,0.002-2.554c-0.004-0.304-0.185-0.512-0.453-0.645
		c-0.052-0.026-0.104-0.054-0.156-0.081c2.559,0,5.119,0,7.678,0c-0.393,0.151-0.644,0.408-0.643,0.856
		c0.001,0.765-0.004,1.53,0.002,2.294c0.004,0.487,0.332,0.83,0.783,0.835c0.465,0.005,0.795-0.329,0.799-0.832
		c0.007-0.771,0.006-1.543,0-2.315c-0.003-0.422-0.188-0.662-0.585-0.802c-0.025-0.009-0.047-0.025-0.071-0.038
		c2.356,0,4.713,0,7.069,0c0,6.933,0,13.867,0,20.8c-6.933,0-13.867,0-20.8,0c0-0.975,0-1.95,0-2.925
		c0.036,0.135,0.068,0.272,0.108,0.406c0.312,1.044,1.227,1.707,2.372,1.707c3.907,0.002,7.813,0.001,11.72,0.001
		c0.894,0,1.788,0.01,2.681-0.006c1.214-0.021,2.228-0.992,2.294-2.2c0.03-0.554,0.015-1.11,0.019-1.665
		c0-0.032-0.011-0.064-0.023-0.125c-0.519,0.47-1.02,0.922-1.517,1.379c-0.033,0.031-0.046,0.095-0.05,0.146
		c-0.048,0.632-0.325,0.889-0.962,0.889c-4.699,0-9.398,0-14.097,0c-0.644,0-0.957-0.314-0.957-0.961
		c0-3.602,0.002-7.204-0.006-10.806c0-0.216,0.069-0.254,0.265-0.254c5.166,0.005,10.332,0.004,15.498,0.004
		c0.079,0,0.158,0,0.257,0c0,0.292-0.012,0.556,0.006,0.818c0.007,0.101,0.056,0.223,0.128,0.291
		c0.428,0.404,0.869,0.795,1.306,1.19c0.037,0.034,0.08,0.061,0.135,0.103c0.008-0.047,0.017-0.072,0.017-0.098
		c0-1.564,0.023-3.129-0.009-4.692c-0.024-1.226-0.787-2.159-1.94-2.334c-0.655-0.099-1.335-0.038-2.003-0.047
		c-0.009,0-0.019,0.017-0.047,0.043c0,0.545,0.019,1.107-0.005,1.667c-0.029,0.696-0.555,1.276-1.257,1.436
		c-0.663,0.15-1.377-0.172-1.718-0.763c-0.168-0.292-0.223-0.606-0.226-0.934c-0.004-0.48-0.001-0.959-0.001-1.452
		c-1.601,0-3.181,0-4.786,0c0,0.086,0,0.158,0,0.231c-0.003,0.494,0.009,0.989-0.012,1.482c-0.029,0.69-0.554,1.276-1.258,1.435
		c-0.653,0.148-1.374-0.171-1.709-0.745c-0.177-0.303-0.233-0.631-0.234-0.973c-0.002-0.473,0-0.945,0-1.42
		c-0.054-0.011-0.086-0.023-0.119-0.023c-0.535,0.003-1.071-0.015-1.604,0.015c-1.098,0.062-1.954,0.799-2.204,1.864
		C597.084,187.611,597.062,187.694,597.041,187.778z M617.766,196.445c-0.058-0.057-0.104-0.105-0.153-0.15
		c-1.469-1.332-2.941-2.661-4.404-4c-0.183-0.168-0.372-0.225-0.589-0.147c-0.226,0.081-0.332,0.274-0.341,0.507
		c-0.017,0.432-0.024,0.865-0.034,1.298c-0.003,0.16-0.001,0.319-0.001,0.493c-0.109,0-0.189,0-0.27,0c-1.212,0-2.423-0.001-3.635,0
		c-0.57,0.001-0.892,0.324-0.893,0.896c-0.002,0.711-0.001,1.422,0,2.132c0,0.661,0.292,0.955,0.95,0.956
		c1.198,0.001,2.396,0,3.594,0c0.079,0,0.158,0,0.254,0c0,0.104-0.001,0.178,0,0.252c0.01,0.5,0.012,1.001,0.035,1.501
		c0.011,0.244,0.128,0.445,0.372,0.532c0.223,0.079,0.404,0.014,0.585-0.153c1.151-1.058,2.313-2.104,3.472-3.155
		C617.058,197.089,617.408,196.771,617.766,196.445z"/>
	<path d="M1,101.991c0.515-2.063,1.056-4.119,1.542-6.189c6.154-26.223,27.213-44.357,54.236-45.877
		c13.122-0.738,26.31-0.308,39.469-0.372c0.8-0.004,1.602,0.298,2.927,0.563c0,11.669-0.027,23.3,0.009,34.931
		c0.027,8.426,1.403,16.481,5.757,23.944c8.236,14.116,25.986,21.967,42.054,18.325c17.304-3.922,30.227-18.329,30.944-35.315
		c0.512-12.142,0.23-24.318,0.298-36.478c0.01-1.785,0.001-3.57,0.001-5.677c39.488,0,78.38,0,117.767,0
		c0,12.116-0.074,23.918,0.026,35.719c0.068,8.065,1.412,15.806,5.556,22.987c8.387,14.536,25.976,22.466,42.28,18.766
		c17.28-3.921,30.211-18.191,30.934-35.327c0.582-13.793,0.118-27.63,0.118-41.032c0.687-0.639,0.924-1.051,1.155-1.048
		c16.453,0.234,33.176-1.286,49.298,1.16c28.372,4.304,47.139,27.285,47.741,57.443c0.768,38.471,0.212,76.969,0.21,115.456
		c0,0.621-0.208,1.242-0.416,2.405c-1.356-1.026-2.409-1.706-3.328-2.536c-10.757-9.713-21.597-19.341-32.137-29.285
		c-1.771-1.67-2.975-4.685-3.142-7.166c-0.434-6.446-0.146-12.94-0.146-20.119c-2.419,0-4.368,0-6.318,0
		c-127.123,0-254.246,0.024-381.369-0.094c-4.812-0.004-6.521,0.913-6.51,6.238c0.185,88.636,0.126,177.272,0.138,265.908
		c0.002,15.931,7.707,23.647,23.558,23.647c115.627,0.004,231.254,0.003,346.881,0.001c15.676,0,22.477-6.33,23.663-21.875
		c0.094-1.237,0.4-2.826,1.223-3.582c12.235-11.239,24.574-22.364,37.336-33.922c0.285,1.513,0.567,2.297,0.561,3.079
		c-0.099,13.658,0.284,27.343-0.464,40.967c-1.633,29.709-26.584,53.596-56.452,54.125c-21.986,0.39-43.983,0.14-65.975,0.141
		c-96.134,0.007-192.267,0.033-288.401-0.018c-28.176-0.015-50.689-16.32-58.361-42.015c-0.986-3.302-1.781-6.66-2.664-9.992
		C1,333.914,1,217.952,1,101.991z"/>
	<path d="M338.888,10.021c0.58,0.314,1.13,0.712,1.745,0.928c9.781,3.43,14.321,9.356,14.401,19.729
		c0.146,18.984,0.163,37.971,0,56.955c-0.106,12.372-8.226,20.611-19.67,20.477c-11.085-0.13-19.171-8.569-19.262-20.559
		c-0.142-18.818-0.02-37.637-0.046-56.456c-0.015-11.027,6.167-17.347,15.834-21.074C334.223,10.021,336.556,10.021,338.888,10.021z
		"/>
	<path d="M142.953,10.021c1.28,0.666,2.551,1.351,3.843,1.996c6.584,3.284,11.046,8.391,11.137,15.875
		c0.255,20.944,0.362,41.9-0.047,62.839c-0.185,9.469-8.184,16.712-17.465,17.295c-10.134,0.636-19.835-5.369-20.241-15.102
		c-0.934-22.376-0.757-44.83-0.107-67.226c0.248-8.555,7.612-12.609,14.884-15.677C137.621,10.021,140.287,10.021,142.953,10.021z"
		/>
	<path d="M511,315.263c-8.822,8.017-17.419,15.844-26.032,23.654c-28.503,25.847-57.1,51.591-85.425,77.632
		c-4.469,4.109-8.905,5.72-14.4,3.771c-6.006-2.13-8.883-7.094-9.16-13.092c-0.567-12.296-0.616-24.616-0.865-36.926
		c-0.037-1.811-0.005-3.623-0.005-6.192c-2.358,0-4.298,0-6.239,0c-29.484,0-58.968,0.014-88.452-0.006
		c-16.196-0.011-23.376-7.257-23.381-23.522c-0.005-17.49-0.03-34.981,0.009-52.471c0.031-14.072,7.941-22.02,21.979-22.037
		c29.817-0.037,59.634-0.012,89.451-0.012c1.971,0,3.942,0,6.633,0c0-4.279-0.07-8.209,0.013-12.135
		c0.225-10.645,0.397-21.294,0.826-31.932c0.232-5.746,2.848-10.495,8.397-12.481c5.346-1.913,9.987-0.498,14.497,3.629
		c36.003,32.948,72.229,65.652,108.38,98.439C508.436,312.678,509.568,313.861,511,315.263z"/>
</g>
<g display="none">
	<path fill="#FFFFFF" d="M617.841,201.916c0,0.975,0,1.95,0,2.925c-6.933,0-13.867,0-20.8,0c0-2.356,0-4.712,0-7.069
		c0.158,0.503,0.509,0.674,1.023,0.665c1.177-0.02,2.355-0.007,3.533-0.006c0.078,0,0.156,0.006,0.248,0.01
		c0,0.106-0.001,0.186,0,0.267c0.01,0.493,0.012,0.987,0.036,1.48c0.011,0.235,0.123,0.431,0.358,0.52
		c0.232,0.088,0.415,0.02,0.602-0.151c1.443-1.321,2.895-2.631,4.344-3.945c0.059-0.053,0.116-0.108,0.175-0.163
		c-0.022-0.03-0.031-0.048-0.045-0.061c-1.534-1.392-3.068-2.783-4.604-4.172c-0.051-0.046-0.127-0.079-0.195-0.09
		c-0.353-0.053-0.614,0.146-0.633,0.512c-0.028,0.52-0.027,1.041-0.037,1.561c-0.002,0.078,0,0.156,0,0.246c-0.106,0-0.18,0-0.253,0
		c-1.164,0-2.329,0.014-3.492-0.006c-0.513-0.009-0.883,0.144-1.058,0.651c0-3.679,0-7.358,0-11.05c2.356,0,4.712,0,7.069,0
		c-0.346,0.122-0.637,0.318-0.645,0.718c-0.018,0.852-0.009,1.705-0.004,2.558c0.001,0.222,0.113,0.402,0.285,0.538
		c0.251,0.198,0.533,0.231,0.82,0.103c0.316-0.141,0.466-0.406,0.469-0.746c0.006-0.704-0.015-1.408,0.008-2.111
		c0.016-0.512-0.145-0.882-0.649-1.06c2.559,0,5.119,0,7.678,0c-0.052,0.027-0.104,0.055-0.156,0.081
		c-0.268,0.133-0.449,0.341-0.453,0.645c-0.01,0.851-0.013,1.703,0.002,2.554c0.006,0.328,0.207,0.55,0.513,0.661
		c0.533,0.193,1.049-0.19,1.057-0.792c0.009-0.696-0.014-1.393,0.008-2.088c0.016-0.509-0.143-0.882-0.646-1.061
		c1.815,0,3.629,0,5.444,0c0,1.246,0,2.492,0,3.738c-0.014-0.037-0.034-0.073-0.04-0.112c-0.158-0.985-0.886-1.799-1.866-1.948
		c-0.637-0.097-1.295-0.054-1.943-0.072c-0.039-0.001-0.079,0.012-0.14,0.022c0,0.083,0.001,0.163,0,0.243
		c-0.008,0.501,0.003,1.002-0.028,1.501c-0.043,0.688-0.572,1.253-1.269,1.4c-0.658,0.139-1.37-0.186-1.698-0.767
		c-0.162-0.286-0.222-0.591-0.219-0.915c0.004-0.485,0.001-0.971,0.001-1.471c-1.603,0-3.184,0-4.786,0c0,0.091,0.001,0.171,0,0.251
		c-0.009,0.514,0.013,1.031-0.036,1.541c-0.063,0.643-0.442,1.086-1.047,1.296c-0.649,0.226-1.231,0.069-1.706-0.426
		c-0.305-0.317-0.429-0.712-0.425-1.15c0.004-0.499,0.001-0.999,0.001-1.502c-0.051-0.01-0.083-0.023-0.116-0.023
		c-0.514,0.001-1.03-0.021-1.543,0.01c-1.347,0.081-2.245,0.975-2.321,2.322c-0.036,0.641-0.012,1.286-0.013,1.929
		c-0.001,0.907,0.003,1.814-0.003,2.722c-0.001,0.154,0.036,0.219,0.203,0.21c0.236-0.013,0.474-0.003,0.711-0.003
		c0.221,0,0.442,0,0.684,0c0-0.814,0-1.596,0-2.405c0.1,0,0.18,0,0.259,0c5.166,0,10.331,0.001,15.497-0.004
		c0.199,0,0.263,0.042,0.263,0.255c-0.007,3.595-0.005,7.19-0.005,10.785c0,0.675-0.306,0.981-0.978,0.981
		c-4.692,0-9.383,0-14.075,0c-0.047,0-0.095,0.001-0.142,0c-0.471-0.013-0.806-0.337-0.816-0.806
		c-0.009-0.453-0.003-0.907-0.003-1.361c0-0.072,0-0.144,0-0.223c-0.541,0-1.053,0-1.584,0c0,0.561-0.011,1.115,0.005,1.668
		c0.007,0.227,0.047,0.46,0.119,0.675c0.336,1.008,1.222,1.627,2.325,1.628c2.607,0.003,5.213,0.001,7.819,0.001
		c2.153,0,4.306,0.003,6.459-0.001c1.193-0.002,2.119-0.73,2.393-1.864C617.794,202.081,617.818,201.999,617.841,201.916z"/>
	<path display="inline" d="M511,449.207c-0.545,2.038-1.134,4.066-1.629,6.116c-6.722,27.808-29.428,45.64-58.671,45.696
		c-52.787,0.102-105.573,0.031-158.36,0.031c-63.908,0-127.817,0.054-191.725-0.029c-27.03-0.035-48.776-15.213-57.002-39.917
		c-1.755-5.272-2.743-11.003-2.911-16.559c-0.411-13.555-0.134-27.132-0.134-40.898c13.001,0,25.567,0,38.83,0
		c0,1.937-0.001,3.7,0,5.463c0.01,11.122-0.146,22.247,0.076,33.364c0.231,11.514,8.439,19.452,19.999,19.771
		c1.161,0.032,2.324,0.012,3.486,0.012c115.035,0,230.07,0.002,345.106-0.001c16.487,0,23.984-7.507,23.985-24.049
		c0.006-88.144-0.047-176.288,0.13-264.431c0.011-5.225-1.563-6.269-6.439-6.264c-126.655,0.125-253.31,0.099-379.965,0.099
		c-1.948,0-3.895,0-6.35,0c0,19.841,0,39.027,0,58.976c-5.914,0-11.337,0-16.761,0c-5.81,0-11.633-0.244-17.425,0.082
		c-4.078,0.23-4.995-1.359-4.97-5.142c0.145-22.243,0.049-44.486,0.078-66.73c0.021-15.768-0.572-31.574,0.31-47.295
		C42.51,74.469,64.538,52.54,97.559,50.558c12.571-0.755,25.22-0.225,37.834-0.245c0.791-0.001,1.583,0.3,2.834,0.554
		c0,12.34,0.071,24.585-0.021,36.828c-0.081,10.749,2.95,20.424,10.426,28.201c11.664,12.135,25.928,15.97,41.837,10.44
		c14.842-5.16,24.139-16.016,25.683-31.783c1.225-12.504,0.671-25.182,0.894-37.783c0.035-1.958,0.005-3.918,0.005-6.15
		c39.281,0,78.029,0,117.346,0c0,12.248,0.081,24.153-0.028,36.056c-0.073,7.957,1.399,15.432,5.362,22.441
		c8.049,14.235,25.502,22.194,41.644,18.796c17.083-3.596,30.056-17.458,31.115-34.317c0.769-12.236,0.5-24.538,0.684-36.811
		c0.029-1.956,0.004-3.913,0.004-5.95c1.498-0.243,2.466-0.558,3.425-0.531c15.903,0.439,32.039-0.625,47.651,1.753
		c24.049,3.663,41.889,23.634,45.764,47.775c0.151,0.94,0.647,1.825,0.983,2.736C511,218.114,511,333.66,511,449.207z"/>
	<path display="inline" d="M1,281.864c4.278-12.432,13.364-16.187,25.935-15.969c28.537,0.494,57.088,0.156,85.633,0.156
		c1.806,0,3.611,0,6.207,0c0-2.206-0.034-4.114,0.005-6.02c0.261-12.763,0.237-25.541,0.913-38.282
		c0.476-8.981,6.88-13.853,15.527-12.559c1.68,0.251,3.535,1.064,4.786,2.195c37.675,34.048,75.285,68.169,112.896,102.288
		c0.349,0.317,0.575,0.769,1.106,1.5c-1.445,1.347-2.848,2.689-4.286,3.993c-35.529,32.216-71.134,64.35-106.505,96.738
		c-4.596,4.208-9.095,5.864-14.773,3.709c-5.759-2.185-8.506-7.009-8.785-12.761c-0.586-12.083-0.628-24.192-0.878-36.291
		c-0.041-1.974-0.006-3.949-0.006-6.546c-2.246-0.099-4.158-0.255-6.07-0.256c-28.877-0.016-57.761-0.354-86.629,0.148
		C13.489,364.126,4.882,359.938,1,347.606C1,325.692,1,303.778,1,281.864z"/>
	<path display="inline" d="M181.293,10.926c12.358,4.347,16.315,13.434,15.912,25.981c-0.554,17.24-0.041,34.512-0.191,51.769
		c-0.072,8.317-3.738,14.832-11.493,18.281c-7.05,3.135-13.957,2.331-20.111-2.527c-4.227-3.337-6.958-7.751-6.993-13.19
		c-0.133-20.904-0.348-41.815,0.089-62.711c0.205-9.813,7.327-14.611,15.814-17.604C176.645,10.926,178.969,10.926,181.293,10.926z"
		/>
	<path display="inline" d="M377.523,10.926c12.335,4.38,16.216,13.526,15.832,26.008c-0.524,17.051,0.033,34.133-0.188,51.197
		c-0.19,14.76-12.852,24.16-25.911,19.428c-7.512-2.722-12.447-8.163-12.587-16.212c-0.362-20.866-0.295-41.745-0.042-62.615
		c0.091-7.457,4.537-12.545,11.097-15.818c1.287-0.642,2.553-1.325,3.829-1.989C372.211,10.926,374.867,10.926,377.523,10.926z"/>
</g>
</svg>
