<?xml version="1.0" encoding="utf-8"?>
<!-- Generator: Adobe Illustrator 17.0.0, SVG Export Plug-In . SVG Version: 6.00 Build 0)  -->
<!DOCTYPE svg PUBLIC "-//W3C//DTD SVG 1.1//EN" "http://www.w3.org/Graphics/SVG/1.1/DTD/svg11.dtd">
<svg version="1.1" id="Layer_1" xmlns="http://www.w3.org/2000/svg" xmlns:xlink="http://www.w3.org/1999/xlink" x="0px" y="0px"
	 width="512px" height="512px" viewBox="0 0 512 512" enable-background="new 0 0 512 512" xml:space="preserve">
<g>
	<line fill="none" stroke="#B35047" x1="32" y1="0" x2="32" y2="512"/>
	<line fill="none" stroke="#B35047" x1="64" y1="0" x2="64" y2="512"/>
	<line fill="none" stroke="#B35047" x1="96" y1="0" x2="96" y2="512"/>
	<line fill="none" stroke="#B35047" x1="128" y1="0" x2="128" y2="512"/>
	<line fill="none" stroke="#B35047" x1="160" y1="0" x2="160" y2="512"/>
	<line fill="none" stroke="#B35047" x1="192" y1="0" x2="192" y2="512"/>
	<line fill="none" stroke="#B35047" x1="224" y1="0" x2="224" y2="512"/>
	<line fill="none" stroke="#B35047" x1="256" y1="0" x2="256" y2="512"/>
	<line fill="none" stroke="#B35047" x1="288" y1="0" x2="288" y2="512"/>
	<line fill="none" stroke="#B35047" x1="320" y1="0" x2="320" y2="512"/>
	<line fill="none" stroke="#B35047" x1="352" y1="0" x2="352" y2="512"/>
	<line fill="none" stroke="#B35047" x1="384" y1="0" x2="384" y2="512"/>
	<line fill="none" stroke="#B35047" x1="416" y1="0" x2="416" y2="512"/>
	<line fill="none" stroke="#B35047" x1="448" y1="0" x2="448" y2="512"/>
	<line fill="none" stroke="#B35047" x1="480" y1="0" x2="480" y2="512"/>
	<line fill="none" stroke="#B35047" x1="0" y1="32" x2="512" y2="32"/>
	<line fill="none" stroke="#B35047" x1="0" y1="64" x2="512" y2="64"/>
	<line fill="none" stroke="#B35047" x1="0" y1="96" x2="512" y2="96"/>
	<line fill="none" stroke="#B35047" x1="0" y1="128" x2="512" y2="128"/>
	<line fill="none" stroke="#B35047" x1="0" y1="160" x2="512" y2="160"/>
	<line fill="none" stroke="#B35047" x1="0" y1="192" x2="512" y2="192"/>
	<line fill="none" stroke="#B35047" x1="0" y1="224" x2="512" y2="224"/>
	<line fill="none" stroke="#B35047" x1="0" y1="256" x2="512" y2="256"/>
	<line fill="none" stroke="#B35047" x1="0" y1="288" x2="512" y2="288"/>
	<line fill="none" stroke="#B35047" x1="0" y1="320" x2="512" y2="320"/>
	<line fill="none" stroke="#B35047" x1="0" y1="352" x2="512" y2="352"/>
	<line fill="none" stroke="#B35047" x1="0" y1="384" x2="512" y2="384"/>
	<line fill="none" stroke="#B35047" x1="0" y1="416" x2="512" y2="416"/>
	<line fill="none" stroke="#B35047" x1="0" y1="448" x2="512" y2="448"/>
	<line fill="none" stroke="#B35047" x1="0" y1="480" x2="512" y2="480"/>
	<rect x="0" fill="none" stroke="#B35047" width="512" height="512"/>
</g>
<image display="none" overflow="visible" width="512" height="512" xlink:href="../../../Knowledge/Icon/[+++++] (Full) Windows 8 Icons [icons8]/Ecommerce/alarm_clock/alarm_clock-512.png"  transform="matrix(0.0406 0 0 0.0406 575 39)">
</image>
<image display="none" overflow="visible" width="512" height="512" xlink:href="../../../Knowledge/Icon/[+++++] (Full) Windows 8 Icons [icons8]/Ecommerce/new/new-512_.png"  transform="matrix(0.0406 0 0 0.0406 575 39)">
</image>
<image display="none" overflow="visible" width="512" height="512" xlink:href="../../../Knowledge/Icon/[+++++] (Full) Windows 8 Icons [icons8]/Ecommerce/qr_code/qr_code-512.png"  transform="matrix(0.0406 0 0 0.0406 575 39)">
</image>
<image display="none" overflow="visible" width="512" height="512" xlink:href="../../../Knowledge/Icon/[+++++] (Full) Windows 8 Icons [icons8]/Ecommerce/tag/tag-512.png"  transform="matrix(0.0406 0 0 0.0406 575 39)">
</image>
<image display="none" overflow="visible" width="512" height="512" xlink:href="../../../Knowledge/Icon/[+++++] (Full) Windows 8 Icons [icons8]/Ecommerce/shoping_basket/shoping_basket-512.png"  transform="matrix(0.0406 0 0 0.0406 575 39)">
</image>
<image display="none" overflow="visible" width="512" height="512" xlink:href="../../../Knowledge/Icon/[+++++] (Full) Windows 8 Icons [icons8]/Ecommerce/shoping_bag/shoping_bag-512.png"  transform="matrix(0.0406 0 0 0.0406 575 39)">
</image>
<image display="none" overflow="visible" width="512" height="512" xlink:href="../../../Knowledge/Icon/[+++++] (Full) Windows 8 Icons [icons8]/Ecommerce/sell/sell-512.png"  transform="matrix(0.0406 0 0 0.0406 575 39)">
</image>
<image display="none" overflow="visible" width="512" height="512" xlink:href="../../../Knowledge/Icon/[+++++] (Full) Windows 8 Icons [icons8]/Ecommerce/sale/sale-512.png"  transform="matrix(0.0406 0 0 0.0406 575 39)">
</image>
<image display="none" overflow="visible" width="512" height="512" xlink:href="../../../Knowledge/Icon/[+++++] (Full) Windows 8 Icons [icons8]/Ecommerce/price_tag/price_tag-512.png"  transform="matrix(0.0406 0 0 0.0406 575 39)">
</image>
<image display="none" overflow="visible" width="512" height="512" xlink:href="../../../Knowledge/Icon/[+++++] (Full) Windows 8 Icons [icons8]/Ecommerce/one_free/one_free-512.png"  transform="matrix(0.0406 0 0 0.0406 575 39)">
</image>
<image display="none" overflow="visible" width="512" height="512" xlink:href="../../../Knowledge/Icon/[+++++] (Full) Windows 8 Icons [icons8]/Ecommerce/idea/idea-512.png"  transform="matrix(0.0406 0 0 0.0406 575 39)">
</image>
<image display="none" overflow="visible" width="512" height="512" xlink:href="../../../Knowledge/Icon/[+++++] (Full) Windows 8 Icons [icons8]/Ecommerce/handshake/handshake-512.png"  transform="matrix(0.0406 0 0 0.0406 575 39)">
</image>
<image display="none" overflow="visible" width="512" height="512" xlink:href="../../../Knowledge/Icon/[+++++] (Full) Windows 8 Icons [icons8]/Ecommerce/gift/gift-512.png"  transform="matrix(0.0406 0 0 0.0406 575 39)">
</image>
<image display="none" overflow="visible" width="512" height="512" xlink:href="../../../Knowledge/Icon/[+++++] (Full) Windows 8 Icons [icons8]/Ecommerce/return/return-512.png"  transform="matrix(0.0406 0 0 0.0406 575 39)">
</image>
<image display="none" overflow="visible" width="512" height="512" xlink:href="../../../Knowledge/Icon/[+++++] (Full) Windows 8 Icons [icons8]/Ecommerce/buy/buy-512.png"  transform="matrix(0.0406 0 0 0.0406 575 39)">
</image>
<image display="none" overflow="visible" width="512" height="512" xlink:href="../../../Knowledge/Icon/[+++++] (Full) Windows 8 Icons [icons8]/Ecommerce/shoping_cart_filled/shoping_cart_filled-512.png"  transform="matrix(0.0406 0 0 0.0406 575 39)">
</image>
<image display="none" overflow="visible" width="512" height="512" xlink:href="../../../Knowledge/Icon/[+++++] (Full) Windows 8 Icons [icons8]/Ecommerce/shoping_cart/shoping_cart-512.png"  transform="matrix(0.0406 0 0 0.0406 575 39)">
</image>
<image display="none" overflow="visible" width="512" height="512" xlink:href="../../../Knowledge/Icon/[+++++] (Full) Windows 8 Icons [icons8]/Ecommerce/checkout/checkout-512.png"  transform="matrix(0.0406 0 0 0.0406 575 39)">
</image>
<g>
	<path d="M1,377.475C1,276.87,1,176.264,1,75.659C5.388,63.29,14.585,59.787,27.061,59.818
		c101.417,0.248,202.835,0.132,304.253,0.149c14.848,0.002,22.443,7.531,22.494,22.29c0.057,16.764,0.004,33.529,0.028,50.294
		c0.003,1.9,0.191,3.799,0.308,5.961c2.457,0,4.27,0,6.083,0c20.416,0.001,40.833,0.043,61.249-0.021
		c6.89-0.021,13.534,1.27,18.293,6.339c5.629,5.996,11.301,12.255,15.438,19.292c12.939,22.009,24.992,44.535,37.729,66.665
		c7.528,13.08,15.474,25.889,18.064,41.102c0,35.195,0,70.391,0,105.586c-7.1,17.158-15.935,16.78-38.714,15.147
		c-12.874-40.047-35.229-59.224-69.059-59.307c-15.098-0.037-28.797,4.347-40.917,13.26c-15.682,11.532-24.816,27.234-28.181,46.406
		c-45.737,0-91.139,0-136.495,0c-6.721-38.326-38.683-59.446-68.485-59.78c-27.638-0.31-62.26,18.421-69.957,60.049
		c-10.682,0-21.468-0.428-32.205,0.112C14.437,393.992,5.348,389.836,1,377.475z M373.884,177.306c0,33.351,0,65.76,0,98.198
		c34.93,0,69.459,0,105.032,0c-1.622-3.819-2.763-7.049-4.328-10.059c-2.136-4.11-4.697-7.997-6.898-12.076
		c-12.112-22.447-24.256-44.878-36.191-67.42c-3.238-6.115-7.731-8.921-14.724-8.727c-11.267,0.312-22.549,0.084-33.825,0.084
		C380.013,177.306,377.074,177.306,373.884,177.306z M192.834,276.955c-6.252-6.55-7.834-13.572-8.25-20.926
		c-0.578-10.209-0.402-20.596-8.742-28.409c1.03-0.906,1.703-1.401,2.26-2.002c8.347-9.027,9.781-19.674,6.701-31.055
		c-2.802-10.351-10.214-17.011-20.493-17.753c-15.116-1.091-30.369-0.281-45.698-0.281c0,33.35,0,66.725,0,100.093
		c5.832,0,11.219,0,17.192,0c0-13.489,0-26.655,0-40.225c5.207,0,9.829-0.001,14.451,0c12.976,0.003,15.621,2.37,16.982,15.209
		c0.07,0.66,0.074,1.326,0.139,1.986c0.6,6.094,1.024,12.214,1.881,18.273c0.49,3.468,2.527,5.416,6.539,5.169
		C180.909,276.716,186.058,276.955,192.834,276.955z M293.111,233.956c13.149,0,25.96,0,38.73,0c0-5.912,0-11.143,0-16.902
		c-13.031,0-25.723,0-38.636,0c0-8.229,0-15.921,0-24.43c14.251,0,28.209,0,42.17,0c0-5.904,0-10.987,0-16.41
		c-20.072,0-39.854,0-59.75,0c0,33.715,0,67.076,0,100.352c20.312,0,40.127,0,59.955,0c0-5.634,0-10.873,0-16.713
		c-14.275,0-28.272,0-42.468,0C293.111,251.161,293.111,243.072,293.111,233.956z M197.204,276.648c20.124,0,39.634,0,59.326,0
		c0-5.661,0-11.007,0-16.976c-14.243,0-28.075,0-41.774,0c0-8.846,0-17.054,0-25.725c12.912,0,25.451,0,37.987,0
		c0-5.847,0-11.21,0-17.072c-12.915,0-25.442,0-37.964,0c0-8.206,0-15.892,0-24.115c13.949,0,27.503,0,41.171,0
		c0-5.903,0-11.247,0-16.571c-19.796,0-39.138,0-58.746,0C197.204,209.786,197.204,243.058,197.204,276.648z M39.494,176.152
		c0,33.681,0,67.071,0,100.371c5.984,0,11.522,0,17.526,0c0-14.29,0-28.153,0-42.593c12.648,0,24.819,0,37.113,0
		c0-5.823,0-11.05,0-16.878c-12.491,0-24.67,0-36.956,0c0-8.307,0-16.006,0-24.364c14.337,0,28.343,0,42.416,0
		c0-5.892,0-11.112,0-16.535C79.412,176.152,59.578,176.152,39.494,176.152z"/>
	<path display="none" fill="#FFFFFF" d="M597.841,130.487c-0.106-0.62-0.43-1.143-0.737-1.676c-0.519-0.903-1.011-1.821-1.539-2.719
		c-0.169-0.287-0.4-0.542-0.63-0.787c-0.194-0.207-0.465-0.259-0.746-0.259c-0.833,0.003-1.665,0.001-2.498,0.001
		c-0.074,0-0.148,0-0.248,0c-0.005-0.088-0.012-0.166-0.013-0.243c-0.001-0.684,0.001-1.367-0.001-2.051
		c-0.002-0.602-0.312-0.909-0.917-0.909c-4.136-0.001-8.272,0.004-12.409-0.006c-0.509-0.001-0.884,0.142-1.063,0.646
		c0-1.814,0-3.627,0-5.442c6.929,0,13.858,0,20.8,0C597.841,121.523,597.841,126.005,597.841,130.487z"/>
	<path display="none" fill="#FFFFFF" d="M577.041,134.794c0.177,0.504,0.548,0.674,1.06,0.648c0.438-0.022,0.878-0.005,1.313-0.005
		c0.314-1.698,1.726-2.462,2.853-2.449c1.215,0.014,2.519,0.875,2.793,2.438c1.85,0,3.701,0,5.567,0
		c0.137-0.782,0.51-1.422,1.149-1.893c0.494-0.364,1.053-0.542,1.669-0.541c1.38,0.003,2.291,0.786,2.817,2.419
		c0.929,0.067,1.289,0.082,1.579-0.618c0,1.016,0,2.031,0,3.047c-1.381,0-2.762,0-4.144,0c0.036-0.014,0.071-0.034,0.109-0.042
		c1.034-0.224,1.75-1.18,1.617-2.161c-0.202-1.486-1.719-2.234-3.021-1.49c-1.117,0.638-1.27,2.333-0.294,3.171
		c0.324,0.279,0.703,0.415,1.103,0.522c-3.575,0-7.15,0-10.725,0c0.043-0.015,0.086-0.034,0.131-0.044
		c0.399-0.088,0.753-0.265,1.04-0.557c0.57-0.579,0.732-1.448,0.417-2.179c-0.325-0.754-1.077-1.23-1.902-1.206
		c-0.895,0.027-1.654,0.656-1.872,1.553c-0.202,0.831,0.212,1.76,0.985,2.165c0.223,0.117,0.475,0.18,0.714,0.268
		c-1.648,0-3.296,0-4.956,0C577.041,136.825,577.041,135.809,577.041,134.794z"/>
	<path d="M122.523,452.182c-5.855-2.152-12.028-3.696-17.506-6.565c-18.952-9.927-29.098-32.706-24.151-53.085
		c5.334-21.976,23.941-37.412,45.893-38.069c20.24-0.607,38.663,11.071,46.636,29.561c7.735,17.937,3.765,39.228-10.215,53.435
		c-7.036,7.15-15.718,11.49-25.502,13.656c-1.092,0.242-2.135,0.707-3.201,1.069C130.492,452.182,126.508,452.182,122.523,452.182z"
		/>
	<path d="M397.445,452.182c-9.786-2.627-19.087-5.972-27.034-12.805c-23.916-20.562-20.181-62.125,7.216-77.76
		c31.934-18.223,69.118,0.121,74.077,36.546c3.275,24.056-14.276,47.501-39.637,52.984c-0.921,0.199-1.781,0.684-2.67,1.035
		C405.414,452.182,401.43,452.182,397.445,452.182z"/>
	<path display="none" fill="#FFFFFF" d="M592.248,126.63c0.13,0,0.25,0,0.37,0c0.46,0,0.92,0.009,1.38-0.003
		c0.285-0.008,0.468,0.107,0.601,0.356c0.487,0.919,0.982,1.834,1.476,2.75c0.09,0.166,0.194,0.325,0.281,0.493
		c0.064,0.123,0.11,0.254,0.177,0.41c-1.451,0-2.859,0-4.284,0C592.248,129.312,592.248,127.99,592.248,126.63z"/>
	<path display="none" fill="#FFFFFF" d="M584.864,130.694c-0.276,0-0.486-0.01-0.695,0.003c-0.164,0.01-0.247-0.069-0.267-0.211
		c-0.035-0.247-0.052-0.497-0.077-0.745c-0.003-0.027-0.003-0.054-0.006-0.081c-0.056-0.524-0.163-0.62-0.693-0.62
		c-0.189,0-0.377,0-0.589,0c0,0.553,0,1.09,0,1.641c-0.244,0-0.463,0-0.701,0c0-1.361,0-2.722,0-4.082
		c0.625,0,1.247-0.033,1.864,0.011c0.419,0.03,0.721,0.302,0.836,0.724c0.126,0.464,0.067,0.898-0.273,1.267
		c-0.023,0.025-0.05,0.045-0.092,0.082c0.34,0.319,0.333,0.742,0.357,1.159C584.545,130.141,584.609,130.427,584.864,130.694z
		 M582.542,128.316c0.325,0,0.642,0.024,0.953-0.008c0.254-0.026,0.372-0.22,0.374-0.498c0.001-0.292-0.105-0.502-0.316-0.518
		c-0.332-0.025-0.668-0.007-1.011-0.007C582.542,127.636,582.542,127.977,582.542,128.316z"/>
	<path display="none" fill="#FFFFFF" d="M588.954,128.94c0,0.372,0,0.702,0,1.056c0.579,0,1.15,0,1.732,0c0,0.238,0,0.452,0,0.682
		c-0.809,0-1.617,0-2.445,0c0-1.357,0-2.718,0-4.093c0.811,0,1.618,0,2.437,0c0,0.221,0,0.428,0,0.669c-0.569,0-1.139,0-1.72,0
		c0,0.347,0,0.661,0,0.996c0.527,0,1.044,0,1.576,0c0,0.235,0,0.448,0,0.689C590.013,128.94,589.49,128.94,588.954,128.94z"/>
	<path display="none" fill="#FFFFFF" d="M585.043,130.682c0-1.37,0-2.727,0-4.097c0.8,0,1.589,0,2.396,0c0,0.217,0,0.435,0,0.676
		c-0.557,0-1.11,0-1.679,0c0,0.335,0,0.649,0,0.984c0.511,0,1.022,0,1.548,0c0,0.239,0,0.458,0,0.696c-0.511,0-1.023,0-1.549,0
		c0,0.354,0,0.688,0,1.049c0.559,0,1.123,0,1.704,0c0,0.243,0,0.461,0,0.692C586.659,130.682,585.863,130.682,585.043,130.682z"/>
	<path display="none" fill="#FFFFFF" d="M578.611,126.583c0.819,0,1.628,0,2.451,0c0,0.221,0,0.434,0,0.674c-0.574,0-1.145,0-1.73,0
		c0,0.341,0,0.655,0,0.994c0.501,0,0.998,0,1.507,0c0,0.238,0,0.451,0,0.688c-0.501,0-0.998,0-1.514,0c0,0.589,0,1.154,0,1.737
		c-0.245,0-0.471,0-0.715,0C578.611,129.318,578.611,127.957,578.611,126.583z"/>
	<path d="M135.901,218.647c0-8.321,0-16.675,0-25.256c8.406,0,16.634-0.451,24.78,0.163c5.165,0.389,7.776,5.536,7.742,12.7
		c-0.033,6.804-2.94,11.571-9.163,12.206C151.635,219.24,143.871,218.647,135.901,218.647z"/>
</g>
<g display="none">
	<path fill="#FFFFFF" d="M579.316,137.841c-0.758,0-1.517,0-2.275,0c0-6.933,0-13.867,0-20.8c6.933,0,13.867,0,20.8,0
		c0,6.933,0,13.867,0,20.8c-2.072,0-4.144,0-6.216,0c0.163-0.123,0.36-0.219,0.485-0.373c1.019-1.256,2.022-2.524,3.035-3.785
		c0.2-0.249,0.295-0.517,0.294-0.838c-0.005-3.276-0.003-6.551-0.003-9.827c0-0.122,0.005-0.244,0-0.365
		c-0.016-0.405-0.259-0.714-0.654-0.794c-0.163-0.033-0.337-0.015-0.505-0.015c-3.37-0.001-6.741,0-10.111-0.001
		c-0.255,0-0.495,0.039-0.71,0.192c-1.48,1.047-2.963,2.09-4.444,3.135c-0.258,0.182-0.373,0.438-0.373,0.748
		c0,0.426,0.006,0.853,0.006,1.279c0.001,3.215,0.001,6.43-0.001,9.644c0,0.339,0.056,0.651,0.365,0.852
		C579.104,137.754,579.213,137.792,579.316,137.841z"/>
	<path display="inline" d="M55.685,473.138c-2.526-1.197-5.222-2.133-7.547-3.64c-7.626-4.945-9.002-12.637-8.998-20.988
		c0.037-79.214,0.029-158.429,0.014-237.643c-0.002-10.504-0.158-21.009-0.154-31.513c0.003-7.637,2.836-13.939,9.2-18.427
		c36.508-25.744,73.036-51.46,109.513-77.247c5.316-3.758,11.229-4.72,17.505-4.719c83.05,0.014,166.1,0.006,249.15,0.02
		c4.16,0.001,8.442-0.44,12.456,0.371c9.714,1.963,15.723,9.579,16.106,19.562c0.115,2.997-0.001,6.003-0.001,9.004
		c-0.001,80.715-0.046,161.431,0.07,242.146c0.011,7.905-2.324,14.51-7.256,20.641c-24.975,31.049-49.691,62.308-74.793,93.253
		c-3.078,3.795-7.926,6.155-11.954,9.179C257.893,473.138,156.789,473.138,55.685,473.138z M78.736,197.146
		c0,79.293,0,157.763,0,236.85c2.106,0,3.893,0,5.68,0c81.386,0,162.772-0.047,244.158,0.113c5.034,0.01,6.413-1.227,6.401-6.353
		c-0.175-74.715-0.119-149.43-0.121-224.145c0-6.451-0.009-6.463-6.576-6.463c-81.219-0.003-162.439-0.002-243.658-0.002
		C82.816,197.146,81.011,197.146,78.736,197.146z M252.525,157.409c1.782,0.279,2.389,0.457,2.996,0.458
		c29.193,0.016,58.385,0.073,87.577-0.108c1.995-0.012,4.396-1.398,5.9-2.868c11.093-10.844,22.014-21.865,32.964-32.854
		c0.954-0.957,1.735-2.087,2.825-3.416c-1.146-0.285-1.61-0.5-2.073-0.5c-26.69-0.024-53.38-0.054-80.07,0.025
		c-1.552,0.005-3.438,0.5-4.601,1.456C283.111,131.881,268.282,144.285,252.525,157.409z M121.106,157.405
		c1.964,0.293,2.571,0.462,3.178,0.463c25.345,0.015,50.69,0.057,76.034-0.074c1.79-0.009,3.897-0.918,5.309-2.076
		c13.918-11.422,27.724-22.979,41.541-34.524c0.785-0.656,1.378-1.54,2.764-3.121c-2.824,0-4.607,0-6.39,0
		c-18.342,0-36.694,0.359-55.02-0.162c-8.293-0.236-14.927,1.94-21.549,6.906C152.326,135.8,137.148,146.077,121.106,157.405z"/>
	<path fill="#FFFFFF" d="M580.251,126.64c0.092,0,0.166,0,0.239,0c3.296,0,6.592,0,9.888,0c0.267,0,0.267,0.001,0.267,0.262
		c0,3.032-0.002,6.064,0.005,9.097c0,0.208-0.055,0.258-0.26,0.258c-3.303-0.006-6.606-0.005-9.909-0.005c-0.073,0-0.145,0-0.231,0
		C580.251,133.042,580.251,129.858,580.251,126.64z M585.409,129.028c0.669,0,1.339,0.008,2.008-0.003
		c0.473-0.008,0.803-0.336,0.801-0.764c-0.002-0.47-0.315-0.807-0.8-0.811c-1.312-0.01-2.623-0.01-3.935-0.001
		c-0.494,0.004-0.838,0.359-0.826,0.81c0.012,0.434,0.343,0.76,0.805,0.766C584.111,129.035,584.76,129.028,585.409,129.028z"/>
	<path fill="#FFFFFF" d="M587.304,125.027c0.639-0.533,1.241-1.036,1.847-1.534c0.047-0.039,0.124-0.059,0.187-0.059
		c1.083-0.003,2.166-0.002,3.25-0.001c0.019,0,0.038,0.009,0.084,0.02c-0.044,0.054-0.076,0.1-0.115,0.139
		c-0.444,0.446-0.888,0.893-1.338,1.333c-0.061,0.06-0.159,0.116-0.239,0.116c-1.185,0.007-2.369,0.005-3.554,0.004
		C587.401,125.046,587.376,125.039,587.304,125.027z"/>
	<path fill="#FFFFFF" d="M581.971,125.027c0.651-0.46,1.267-0.877,1.861-1.323c0.269-0.202,0.538-0.29,0.875-0.28
		c0.744,0.021,1.489,0.007,2.233,0.007c0.072,0,0.145,0,0.259,0c-0.056,0.064-0.08,0.1-0.112,0.127
		c-0.561,0.469-1.121,0.938-1.686,1.401c-0.057,0.047-0.143,0.084-0.215,0.084c-1.029,0.005-2.057,0.004-3.086,0.003
		C582.075,125.046,582.05,125.039,581.971,125.027z"/>
	<path display="inline" d="M205.83,255.991c-15.993,0.002-31.989,0.164-47.98-0.053c-11.384-0.155-19.547-8.183-19.83-18.882
		c-0.294-11.123,8.168-19.879,20.349-19.967c32.318-0.234,64.641-0.238,96.959,0.015c11.947,0.094,19.672,8.402,19.719,19.981
		c0.043,10.571-8.092,18.649-19.739,18.838C238.82,256.189,222.323,255.989,205.83,255.991z"/>
</g>
<g display="none">
	<path display="inline" d="M511,196.244c0,1.328,0,2.656,0,3.984c-2.164,7.43-7.345,12.672-12.661,17.924
		c-14.391,14.214-28.581,28.632-42.984,42.834c-2.446,2.412-3.377,4.849-3.36,8.264c0.131,26.859-0.045,53.72,0.145,80.579
		c0.056,7.871-2.39,14.41-7.295,20.495c-23.301,28.91-46.501,57.902-69.575,86.993c-4.74,5.976-9.422,11.792-16.672,14.845
		c-100.605,0-201.211,0-301.816,0c-2.512-1.19-5.191-2.121-7.504-3.618c-7.389-4.783-8.958-12.212-8.954-20.364
		c0.03-57.534,0.016-115.067,0.016-172.601c0-2.096,0-4.193,0-7.089c-3.026,1.422-5.155,2.682-7.45,3.445
		c-4.183,1.389-8.458,3.476-12.705,3.502C10.239,275.497,5.125,270.375,1,258.002c0-1.66,0-3.32,0-4.98
		c1.85-4.003,3.607-8.053,5.567-12.001c11.79-23.75,23.529-47.528,35.564-71.154c1.657-3.253,4.422-6.343,7.419-8.449
		c35.69-25.088,71.584-49.888,107.26-74.996c6.42-4.518,13.115-6.538,20.861-6.534c84.644,0.047,169.289-0.019,253.933-0.048
		c8.179-0.003,14.215,3.698,18.379,10.664c17.696,29.603,35.488,59.148,53.039,88.837C506.179,184.679,508.365,190.594,511,196.244z
		 M79.682,433.213c2.208,0,4.151,0,6.094,0c80.812,0,161.623,0.001,242.435-0.002c6.357,0,6.364-0.011,6.364-6.589
		c0.002-74.174,0.002-148.348,0-222.523c0-6.553-0.008-6.567-6.406-6.568c-80.812-0.003-161.623-0.002-242.435-0.002
		c-1.937,0-3.875,0-6.051,0C79.682,276.358,79.682,354.451,79.682,433.213z M384.375,119.157c-2.288-0.131-3.866-0.299-5.444-0.299
		c-65.202-0.013-130.403-0.046-195.604,0.104c-2.906,0.007-6.235,1.067-8.642,2.704c-16.043,10.907-31.893,22.099-47.793,33.216
		c-1.228,0.858-2.368,1.842-4.145,3.234c1.555,0.209,2.045,0.333,2.534,0.333c72.336,0.011,144.671,0.035,217.006-0.098
		c2.005-0.004,4.462-1.221,5.939-2.662c11.281-11.006,22.374-22.203,33.509-33.357C382.512,121.552,383.153,120.636,384.375,119.157
		z"/>
	<path fill="#FFFFFF" d="M597.841,126.587c-0.107-0.23-0.197-0.472-0.325-0.689c-0.716-1.211-1.441-2.416-2.163-3.623
		c-0.17-0.284-0.416-0.435-0.75-0.435c-3.452,0.001-6.904,0.004-10.357,0.002c-0.316,0-0.589,0.082-0.851,0.266
		c-1.455,1.024-2.919,2.035-4.375,3.059c-0.122,0.086-0.235,0.212-0.303,0.345c-0.491,0.964-0.97,1.933-1.451,2.902
		c-0.08,0.161-0.152,0.326-0.227,0.489c0-3.952,0-7.905,0-11.86c6.933,0,13.867,0,20.8,0
		C597.841,120.226,597.841,123.407,597.841,126.587z"/>
	<path fill="#FFFFFF" d="M591.625,137.841c0.296-0.125,0.487-0.362,0.68-0.605c0.941-1.186,1.887-2.369,2.838-3.548
		c0.2-0.248,0.3-0.515,0.297-0.836c-0.008-1.095-0.001-2.191-0.006-3.286c-0.001-0.139,0.037-0.239,0.137-0.337
		c0.587-0.579,1.166-1.167,1.753-1.747c0.217-0.214,0.428-0.428,0.516-0.731c0,3.697,0,7.394,0,11.091
		C595.769,137.841,593.697,137.841,591.625,137.841z"/>
	<path fill="#FFFFFF" d="M577.041,129.106c0.168,0.505,0.377,0.714,0.782,0.711c0.173-0.001,0.348-0.086,0.518-0.143
		c0.094-0.031,0.18-0.082,0.304-0.14c0,0.118,0,0.204,0,0.289c0,2.346,0.001,4.693-0.001,7.039c0,0.332,0.064,0.635,0.365,0.831
		c0.094,0.061,0.204,0.099,0.306,0.148c-0.758,0-1.517,0-2.275,0C577.041,134.929,577.041,132.018,577.041,129.106z"/>
	<path fill="#FFFFFF" d="M580.25,136.252c0-3.212,0-6.397,0-9.612c0.089,0,0.168,0,0.247,0c3.296,0,6.592,0,9.888,0
		c0.261,0,0.261,0.001,0.261,0.268c0,3.025,0,6.05,0,9.075c0,0.268,0,0.269-0.26,0.269c-3.296,0-6.592,0-9.888,0
		C580.419,136.252,580.34,136.252,580.25,136.252z M585.408,129.028c0.669,0,1.339,0.008,2.008-0.003
		c0.473-0.008,0.804-0.335,0.803-0.763c-0.001-0.47-0.314-0.808-0.799-0.812c-1.312-0.011-2.623-0.01-3.935-0.001
		c-0.494,0.003-0.839,0.358-0.827,0.809c0.011,0.434,0.342,0.761,0.803,0.768C584.109,129.035,584.758,129.028,585.408,129.028z"/>
	<path fill="#FFFFFF" d="M592.676,123.444c-0.05,0.06-0.076,0.098-0.108,0.129c-0.454,0.455-0.907,0.912-1.367,1.36
		c-0.06,0.059-0.16,0.108-0.242,0.109c-2.95,0.005-5.9,0.004-8.85,0.004c-0.02,0-0.04-0.005-0.103-0.014
		c0.072-0.057,0.119-0.097,0.169-0.132c0.648-0.453,1.295-0.91,1.949-1.355c0.098-0.067,0.234-0.11,0.352-0.11
		c2.659-0.006,5.318-0.005,7.978-0.004C592.519,123.431,592.583,123.438,592.676,123.444z"/>
	<path display="inline" d="M206.15,256.086c-15.915,0-31.831,0.165-47.743-0.055c-11.309-0.157-19.427-8.172-19.697-18.823
		c-0.281-11.056,8.163-19.751,20.285-19.836c32.159-0.226,64.322-0.237,96.481,0.021c11.882,0.095,19.553,8.386,19.587,19.915
		c0.031,10.501-8.087,18.528-19.678,18.712C238.977,256.28,222.562,256.086,206.15,256.086z"/>
</g>
<g display="none">
	<path display="inline" d="M1,257.457c0-1.66,0-3.32,0-4.98c1.558-3.407,3.024-6.861,4.689-10.215
		c12.085-24.341,24.125-48.704,36.427-72.935c1.586-3.124,4.151-6.157,7.012-8.166c36.778-25.839,73.664-51.524,110.626-77.098
		c2.758-1.908,6.253-3.611,9.498-3.798c11.568-0.667,23.243-1.51,34.752-0.633c12.138,0.925,22.051-1.364,29.024-11.977
		c0.53-0.807,1.41-1.399,2.174-2.035c7.178-5.986,17.452-6.216,24.666-0.2c4.277,3.566,8.138,7.632,12.466,11.739
		c11.547-9.852,23.406-19.945,35.236-30.073c10.996-9.413,21.42-8.93,31.493,1.572c8.845,9.221,17.544,18.587,26.556,27.641
		c1.637,1.645,4.468,2.937,6.762,2.961c19.413,0.202,38.83,0.151,58.245,0.003c8.574-0.066,14.976,3.371,19.363,10.71
		c17.694,29.599,35.485,59.14,53.034,88.824c3.157,5.34,5.343,11.254,7.977,16.903c0,1.328,0,2.656,0,3.984
		c-2.164,7.43-7.345,12.672-12.661,17.924c-14.391,14.214-28.581,28.632-42.984,42.834c-2.446,2.412-3.377,4.849-3.36,8.264
		c0.131,26.859-0.045,53.72,0.145,80.579c0.056,7.871-2.39,14.41-7.295,20.495c-23.301,28.91-46.501,57.902-69.575,86.993
		c-4.74,5.976-9.422,11.792-16.672,14.845c-100.605,0-201.211,0-301.816,0c-2.512-1.19-5.191-2.121-7.504-3.618
		c-7.389-4.783-8.958-12.212-8.954-20.364c0.03-57.534,0.016-115.067,0.016-172.601c0-2.096,0-4.193,0-7.089
		c-3.026,1.422-5.155,2.682-7.45,3.445c-4.183,1.389-8.458,3.476-12.705,3.502C10.239,274.953,5.125,269.831,1,257.457z
		 M79.686,432.668c2.421,0,4.221,0,6.021,0c80.81,0,161.62,0.001,242.429-0.001c6.43,0,6.438-0.01,6.438-6.515
		c0.002-74.173,0.001-148.345,0.001-222.518c0-1.949,0-3.898,0-6.245c-85.241,0-169.92,0-254.89,0
		C79.686,275.775,79.686,353.866,79.686,432.668z M321.37,86.476c-8.265,7.062-16.028,13.694-24.076,20.57
		c3.371,3.875,6.384,7.357,9.417,10.823c10.913,12.466,21.854,24.91,32.734,37.405c2.069,2.376,4.431,4.122,7.116,1.538
		c7.233-6.961,14.21-14.187,21.488-21.507C352.394,118.929,337.076,102.905,321.37,86.476z M289.85,157.683
		c-14.665-16.725-28.59-32.607-40.98-46.739c-16.522,15.6-32.7,30.876-49.5,46.739C229.785,157.683,259.217,157.683,289.85,157.683z
		 M182.849,120.229c-0.435-0.504-0.869-1.008-1.304-1.513c-3.848-0.129-52.076,32.176-57.828,38.742
		c11.917,1.57,23.353,1.984,31.021-9.981c1.753-2.735,4.509-4.852,6.907-7.145C168.685,133.602,175.777,126.927,182.849,120.229z"/>
	<path fill="#FFFFFF" d="M597.841,126.587c-0.107-0.23-0.197-0.472-0.325-0.689c-0.716-1.211-1.441-2.415-2.163-3.623
		c-0.179-0.299-0.44-0.439-0.79-0.437c-0.792,0.006-1.584,0.008-2.375,0c-0.094-0.001-0.209-0.054-0.276-0.121
		c-0.368-0.369-0.722-0.751-1.083-1.127c-0.411-0.428-0.836-0.448-1.284-0.064c-0.482,0.413-0.966,0.825-1.437,1.226
		c-0.177-0.168-0.334-0.333-0.508-0.479c-0.294-0.245-0.713-0.236-1.006,0.008c-0.031,0.026-0.067,0.05-0.089,0.083
		c-0.284,0.433-0.689,0.526-1.184,0.488c-0.469-0.036-0.946-0.001-1.417,0.026c-0.132,0.008-0.275,0.077-0.387,0.155
		c-1.508,1.043-3.012,2.091-4.512,3.144c-0.117,0.082-0.221,0.206-0.286,0.333c-0.502,0.988-0.993,1.982-1.486,2.975
		c-0.068,0.137-0.128,0.278-0.191,0.417c0-3.952,0-7.905,0-11.86c6.933,0,13.867,0,20.8,0
		C597.841,120.226,597.841,123.407,597.841,126.587z"/>
	<path fill="#FFFFFF" d="M591.625,137.841c0.296-0.125,0.487-0.362,0.68-0.605c0.941-1.186,1.887-2.369,2.838-3.548
		c0.2-0.248,0.3-0.515,0.297-0.836c-0.008-1.095-0.001-2.191-0.006-3.286c-0.001-0.139,0.037-0.239,0.137-0.337
		c0.587-0.579,1.166-1.167,1.753-1.747c0.217-0.214,0.428-0.428,0.516-0.731c0,3.697,0,7.394,0,11.091
		C595.769,137.841,593.697,137.841,591.625,137.841z"/>
	<path fill="#FFFFFF" d="M577.041,129.106c0.168,0.505,0.377,0.714,0.782,0.711c0.173-0.001,0.348-0.086,0.518-0.143
		c0.094-0.031,0.18-0.082,0.304-0.14c0,0.118,0,0.204,0,0.289c0,2.346,0.001,4.693-0.001,7.039c0,0.332,0.064,0.635,0.365,0.831
		c0.094,0.061,0.204,0.099,0.306,0.148c-0.758,0-1.517,0-2.275,0C577.041,134.929,577.041,132.018,577.041,129.106z"/>
	<path fill="#FFFFFF" d="M580.25,136.252c0-3.214,0-6.399,0-9.596c3.465,0,6.919,0,10.396,0c0,0.096,0,0.175,0,0.255
		c0,3.025,0,6.05,0,9.075c0,0.265,0,0.266-0.263,0.266c-3.296,0-6.591,0-9.887,0C580.422,136.252,580.349,136.252,580.25,136.252z
		 M585.409,129.028c0.669,0,1.339,0.008,2.008-0.003c0.473-0.008,0.803-0.335,0.801-0.764c-0.002-0.47-0.315-0.807-0.8-0.811
		c-1.312-0.01-2.623-0.01-3.935-0.001c-0.494,0.004-0.838,0.359-0.826,0.81c0.011,0.434,0.343,0.76,0.805,0.766
		C584.111,129.035,584.76,129.028,585.409,129.028z"/>
	<path fill="#FFFFFF" d="M590.107,122.133c0.641,0.67,1.265,1.324,1.904,1.991c-0.297,0.299-0.581,0.593-0.876,0.877
		c-0.109,0.105-0.206,0.034-0.29-0.063c-0.444-0.51-0.89-1.017-1.335-1.526c-0.124-0.141-0.247-0.283-0.384-0.441
		C589.453,122.691,589.77,122.421,590.107,122.133z"/>
	<path fill="#FFFFFF" d="M588.821,125.037c-1.249,0-2.45,0-3.69,0c0.685-0.647,1.345-1.27,2.019-1.906
		C587.655,123.707,588.223,124.355,588.821,125.037z"/>
	<path fill="#FFFFFF" d="M584.457,123.51c-0.288,0.273-0.578,0.545-0.865,0.82c-0.098,0.094-0.21,0.18-0.282,0.291
		c-0.313,0.488-0.779,0.471-1.265,0.407c0.235-0.268,2.202-1.585,2.358-1.58C584.422,123.468,584.439,123.489,584.457,123.51z"/>
	<path display="inline" d="M206.183,255.541c-15.915,0.001-31.831,0.164-47.743-0.053c-11.326-0.155-19.448-8.145-19.729-18.792
		c-0.292-11.067,8.131-19.778,20.252-19.865c32.159-0.232,64.322-0.237,96.481,0.016c11.888,0.093,19.573,8.364,19.618,19.885
		c0.041,10.517-8.055,18.554-19.645,18.741C239.009,255.737,222.594,255.539,206.183,255.541z"/>
</g>
</svg>
