<?xml version="1.0" encoding="utf-8"?>
<!-- Generator: Adobe Illustrator 17.0.0, SVG Export Plug-In . SVG Version: 6.00 Build 0)  -->
<!DOCTYPE svg PUBLIC "-//W3C//DTD SVG 1.1//EN" "http://www.w3.org/Graphics/SVG/1.1/DTD/svg11.dtd">
<svg version="1.1" id="Layer_1" xmlns="http://www.w3.org/2000/svg" xmlns:xlink="http://www.w3.org/1999/xlink" x="0px" y="0px"
	 width="512px" height="512px" viewBox="0 0 512 512" enable-background="new 0 0 512 512" xml:space="preserve">
<g display="none">
	<path fill="#FFFFFF" d="M609.841,63.839c-6.931,0-13.861,0-20.796,0c0-6.928,0-13.857,0-20.792c6.929,0,13.863,0,20.796,0
		C609.841,49.975,609.841,56.906,609.841,63.839z M599.437,56.168c0.095,0.122,0.139,0.192,0.196,0.249
		c1.306,1.308,2.613,2.615,3.92,3.921c0.423,0.423,0.853,0.424,1.274,0.005c0.499-0.497,0.997-0.995,1.494-1.493
		c0.449-0.449,0.448-0.866-0.004-1.318c-1.307-1.307-2.614-2.614-3.92-3.922c-0.055-0.055-0.107-0.113-0.183-0.193
		c0.078-0.063,0.14-0.106,0.192-0.158c1.313-1.311,2.625-2.622,3.936-3.934c0.419-0.419,0.418-0.855-0.002-1.275
		c-0.493-0.494-0.987-0.985-1.481-1.478c-0.465-0.464-0.87-0.466-1.33-0.005c-1.307,1.307-2.614,2.613-3.922,3.92
		c-0.052,0.052-0.106,0.101-0.168,0.159c-0.062-0.059-0.116-0.107-0.168-0.159c-1.302-1.302-2.604-2.604-3.907-3.906
		c-0.48-0.48-0.874-0.478-1.359,0.006c-0.479,0.478-0.958,0.957-1.437,1.436c-0.461,0.462-0.462,0.871-0.001,1.332
		c1.302,1.302,2.604,2.604,3.906,3.907c0.056,0.056,0.109,0.115,0.171,0.18c-0.062,0.064-0.111,0.118-0.163,0.17
		c-1.316,1.317-2.633,2.633-3.949,3.95c-0.411,0.412-0.412,0.85-0.003,1.26c0.497,0.498,0.997,0.995,1.496,1.492
		c0.462,0.46,0.867,0.458,1.331-0.006c1.303-1.302,2.606-2.603,3.907-3.906C599.318,56.35,599.354,56.282,599.437,56.168z"/>
	<path display="inline" d="M599.437,56.168c-0.082,0.114-0.119,0.182-0.171,0.234c-1.301,1.303-2.604,2.605-3.907,3.906
		c-0.464,0.464-0.87,0.465-1.331,0.006c-0.499-0.497-0.998-0.993-1.496-1.492c-0.409-0.41-0.409-0.848,0.003-1.26
		c1.316-1.317,2.633-2.633,3.949-3.95c0.052-0.052,0.102-0.106,0.163-0.17c-0.062-0.065-0.115-0.124-0.171-0.18
		c-1.302-1.302-2.604-2.604-3.906-3.907c-0.461-0.461-0.46-0.87,0.001-1.332c0.479-0.479,0.958-0.957,1.437-1.436
		c0.485-0.485,0.878-0.487,1.359-0.006c1.302,1.302,2.604,2.604,3.907,3.906c0.052,0.052,0.106,0.1,0.168,0.159
		c0.062-0.059,0.116-0.108,0.168-0.159c1.307-1.307,2.614-2.613,3.922-3.92c0.46-0.46,0.865-0.458,1.33,0.005
		c0.494,0.492,0.988,0.984,1.481,1.478c0.419,0.42,0.421,0.856,0.002,1.275c-1.311,1.312-2.623,2.624-3.936,3.934
		c-0.052,0.052-0.115,0.095-0.192,0.158c0.076,0.08,0.128,0.138,0.183,0.193c1.307,1.307,2.614,2.614,3.92,3.922
		c0.451,0.452,0.453,0.869,0.004,1.318c-0.498,0.498-0.995,0.996-1.494,1.493c-0.421,0.419-0.85,0.418-1.274-0.005
		c-1.308-1.306-2.615-2.613-3.92-3.921C599.576,56.36,599.532,56.29,599.437,56.168z"/>
</g>
<g>
	<line fill="none" stroke="#B35047" x1="32" y1="0" x2="32" y2="512"/>
	<line fill="none" stroke="#B35047" x1="64" y1="0" x2="64" y2="512"/>
	<line fill="none" stroke="#B35047" x1="96" y1="0" x2="96" y2="512"/>
	<line fill="none" stroke="#B35047" x1="128" y1="0" x2="128" y2="512"/>
	<line fill="none" stroke="#B35047" x1="160" y1="0" x2="160" y2="512"/>
	<line fill="none" stroke="#B35047" x1="192" y1="0" x2="192" y2="512"/>
	<line fill="none" stroke="#B35047" x1="224" y1="0" x2="224" y2="512"/>
	<line fill="none" stroke="#B35047" x1="256" y1="0" x2="256" y2="512"/>
	<line fill="none" stroke="#B35047" x1="288" y1="0" x2="288" y2="512"/>
	<line fill="none" stroke="#B35047" x1="320" y1="0" x2="320" y2="512"/>
	<line fill="none" stroke="#B35047" x1="352" y1="0" x2="352" y2="512"/>
	<line fill="none" stroke="#B35047" x1="384" y1="0" x2="384" y2="512"/>
	<line fill="none" stroke="#B35047" x1="416" y1="0" x2="416" y2="512"/>
	<line fill="none" stroke="#B35047" x1="448" y1="0" x2="448" y2="512"/>
	<line fill="none" stroke="#B35047" x1="480" y1="0" x2="480" y2="512"/>
	<line fill="none" stroke="#B35047" x1="0" y1="32" x2="512" y2="32"/>
	<line fill="none" stroke="#B35047" x1="0" y1="64" x2="512" y2="64"/>
	<line fill="none" stroke="#B35047" x1="0" y1="96" x2="512" y2="96"/>
	<line fill="none" stroke="#B35047" x1="0" y1="128" x2="512" y2="128"/>
	<line fill="none" stroke="#B35047" x1="0" y1="160" x2="512" y2="160"/>
	<line fill="none" stroke="#B35047" x1="0" y1="192" x2="512" y2="192"/>
	<line fill="none" stroke="#B35047" x1="0" y1="224" x2="512" y2="224"/>
	<line fill="none" stroke="#B35047" x1="0" y1="256" x2="512" y2="256"/>
	<line fill="none" stroke="#B35047" x1="0" y1="288" x2="512" y2="288"/>
	<line fill="none" stroke="#B35047" x1="0" y1="320" x2="512" y2="320"/>
	<line fill="none" stroke="#B35047" x1="0" y1="352" x2="512" y2="352"/>
	<line fill="none" stroke="#B35047" x1="0" y1="384" x2="512" y2="384"/>
	<line fill="none" stroke="#B35047" x1="0" y1="416" x2="512" y2="416"/>
	<line fill="none" stroke="#B35047" x1="0" y1="448" x2="512" y2="448"/>
	<line fill="none" stroke="#B35047" x1="0" y1="480" x2="512" y2="480"/>
	<rect x="0" fill="none" stroke="#B35047" width="512" height="512"/>
</g>
<image display="none" overflow="visible" width="512" height="512" xlink:href="../../../Knowledge/Icon/[+++++] (Full) Windows 8 Icons [icons8]/Updates/available_updates/available_updates-512.png"  transform="matrix(0.0406 0 0 0.0406 597 111)">
</image>
<image display="none" overflow="visible" width="512" height="512" xlink:href="../../../Knowledge/Icon/[+++++] (Full) Windows 8 Icons [icons8]/Updates/installing_updates/installing_updates-512.png"  transform="matrix(0.0406 0 0 0.0406 597 111)">
</image>
<g>
	<path display="none" fill="#FFFFFF" d="M609.309,111.041c2.841,0,5.683,0,8.531,0c0,5.065,0,10.129,0,15.194
		c-0.525,0-1.05,0-1.589,0c0,0.122,0,0.203,0,0.284c0,0.921,0,1.841,0,2.762c0,0.657-0.315,0.972-0.971,0.972
		c-5.227,0-10.453,0-15.68,0c-0.657,0-0.971-0.315-0.971-0.972c-0.001-0.928,0-1.855,0-2.783c0-0.078,0-0.157,0-0.263
		c-0.549,0-1.069,0-1.589,0c0-5.065,0-10.129,0-15.194c2.844,0,5.687,0,8.531,0c-0.212,0.062-0.431,0.107-0.635,0.19
		c-0.934,0.375-1.483,1.227-1.484,2.304c-0.003,2.031-0.003,4.061,0.003,6.092c0,0.176-0.044,0.231-0.226,0.23
		c-0.893-0.007-1.787-0.005-2.68,0.005c-0.173,0.002-0.349,0.038-0.518,0.081c-0.17,0.043-0.235,0.169-0.141,0.326
		c0.104,0.172,0.21,0.351,0.351,0.492c2.014,2.026,4.031,4.048,6.055,6.064c0.233,0.232,0.5,0.435,0.77,0.624
		c0.248,0.174,0.529,0.169,0.784,0.002c0.197-0.129,0.392-0.269,0.559-0.434c1.206-1.187,2.407-2.379,3.604-3.574
		c0.886-0.884,1.77-1.772,2.645-2.667c0.139-0.142,0.24-0.324,0.339-0.499c0.09-0.159,0.016-0.284-0.147-0.33
		c-0.161-0.046-0.33-0.082-0.497-0.084c-0.812-0.01-1.624-0.008-2.437-0.01c-0.487-0.001-0.487,0-0.487-0.49
		c0-1.943,0.003-3.885-0.001-5.828c-0.002-1.227-0.721-2.154-1.869-2.43C609.476,111.085,609.393,111.062,609.309,111.041z"/>
	<path d="M301.82,1c2.047,0.529,4.086,1.09,6.141,1.582c28.152,6.748,45.775,29.495,45.834,59.57
		c0.093,47.632,0.026,95.265,0.027,142.897c0,12.002,0,11.985,11.934,12.005c19.915,0.035,39.832-0.018,59.745,0.233
		c4.074,0.051,8.231,0.936,12.173,2.058c3.991,1.136,5.805,4.199,3.596,8.092c-2.429,4.28-4.915,8.751-8.312,12.223
		c-21.47,21.945-43.127,43.71-64.862,65.394c-29.371,29.303-58.812,58.537-88.379,87.642c-4.097,4.034-8.885,7.467-13.71,10.635
		c-6.244,4.1-13.124,4.221-19.217-0.039c-6.628-4.635-13.175-9.602-18.89-15.295c-49.62-49.425-99.08-99.011-148.453-148.682
		c-3.44-3.461-6.058-7.837-8.599-12.064c-2.315-3.852-0.715-6.926,3.458-7.989c4.138-1.053,8.447-1.937,12.691-1.983
		c21.905-0.238,43.814-0.309,65.72-0.127c4.462,0.037,5.561-1.315,5.549-5.635c-0.139-49.789-0.142-99.58-0.064-149.369
		c0.042-26.411,13.486-47.3,36.394-56.504C199.605,3.635,204.976,2.525,210.18,1C240.727,1,271.273,1,301.82,1z"/>
	<path d="M1,373.539c12.74,0,25.48,0,38.949,0c0,2.608,0,4.532,0,6.456c0,22.742-0.012,45.484,0.004,68.226
		c0.012,16.111,7.713,23.825,23.819,23.826c128.152,0.008,256.304,0.008,384.455,0c16.106-0.001,23.807-7.715,23.819-23.826
		c0.017-22.576,0.004-45.152,0.004-67.728c0-1.978,0-3.956,0-6.954c13.215,0,26.082,0,38.949,0c0,28.223,0,56.445,0,84.668
		c-0.341,1.091-0.796,2.159-1.005,3.275c-4.298,22.956-17.568,38.317-39.398,46.286c-3.991,1.457-8.253,2.174-12.39,3.233
		c-134.805,0-269.609,0-404.414,0c-0.924-0.323-1.825-0.78-2.777-0.95c-23.416-4.179-38.98-17.626-46.924-39.923
		c-1.372-3.852-2.078-7.941-3.092-11.92C1,429.984,1,401.762,1,373.539z"/>
	<path display="none" fill="#FFFFFF" d="M597.041,129.687c0.041,0.162,0.07,0.329,0.126,0.486c0.324,0.909,0.959,1.458,1.914,1.628
		c0.039,0.007,0.076,0.026,0.113,0.039c-0.718,0-1.435,0-2.153,0C597.041,131.123,597.041,130.405,597.041,129.687z"/>
	<path display="none" fill="#FFFFFF" d="M615.688,131.841c0.169-0.043,0.342-0.072,0.505-0.132c0.89-0.325,1.432-0.951,1.607-1.888
		c0.008-0.045,0.027-0.089,0.041-0.134c0,0.718,0,1.435,0,2.153C617.123,131.841,616.405,131.841,615.688,131.841z"/>
</g>
</svg>
