<?xml version="1.0" encoding="utf-8"?>
<!-- Generator: Adobe Illustrator 17.0.0, SVG Export Plug-In . SVG Version: 6.00 Build 0)  -->
<!DOCTYPE svg PUBLIC "-//W3C//DTD SVG 1.1//EN" "http://www.w3.org/Graphics/SVG/1.1/DTD/svg11.dtd">
<svg version="1.1" id="Layer_1" xmlns="http://www.w3.org/2000/svg" xmlns:xlink="http://www.w3.org/1999/xlink" x="0px" y="0px"
	 width="512px" height="512px" viewBox="0 0 512 512" enable-background="new 0 0 512 512" xml:space="preserve">
<g>
	<line fill="none" stroke="#B35047" x1="32" y1="0" x2="32" y2="512"/>
	<line fill="none" stroke="#B35047" x1="64" y1="0" x2="64" y2="512"/>
	<line fill="none" stroke="#B35047" x1="96" y1="0" x2="96" y2="512"/>
	<line fill="none" stroke="#B35047" x1="128" y1="0" x2="128" y2="512"/>
	<line fill="none" stroke="#B35047" x1="160" y1="0" x2="160" y2="512"/>
	<line fill="none" stroke="#B35047" x1="192" y1="0" x2="192" y2="512"/>
	<line fill="none" stroke="#B35047" x1="224" y1="0" x2="224" y2="512"/>
	<line fill="none" stroke="#B35047" x1="256" y1="0" x2="256" y2="512"/>
	<line fill="none" stroke="#B35047" x1="288" y1="0" x2="288" y2="512"/>
	<line fill="none" stroke="#B35047" x1="320" y1="0" x2="320" y2="512"/>
	<line fill="none" stroke="#B35047" x1="352" y1="0" x2="352" y2="512"/>
	<line fill="none" stroke="#B35047" x1="384" y1="0" x2="384" y2="512"/>
	<line fill="none" stroke="#B35047" x1="416" y1="0" x2="416" y2="512"/>
	<line fill="none" stroke="#B35047" x1="448" y1="0" x2="448" y2="512"/>
	<line fill="none" stroke="#B35047" x1="480" y1="0" x2="480" y2="512"/>
	<line fill="none" stroke="#B35047" x1="0" y1="32" x2="512" y2="32"/>
	<line fill="none" stroke="#B35047" x1="0" y1="64" x2="512" y2="64"/>
	<line fill="none" stroke="#B35047" x1="0" y1="96" x2="512" y2="96"/>
	<line fill="none" stroke="#B35047" x1="0" y1="128" x2="512" y2="128"/>
	<line fill="none" stroke="#B35047" x1="0" y1="160" x2="512" y2="160"/>
	<line fill="none" stroke="#B35047" x1="0" y1="192" x2="512" y2="192"/>
	<line fill="none" stroke="#B35047" x1="0" y1="224" x2="512" y2="224"/>
	<line fill="none" stroke="#B35047" x1="0" y1="256" x2="512" y2="256"/>
	<line fill="none" stroke="#B35047" x1="0" y1="288" x2="512" y2="288"/>
	<line fill="none" stroke="#B35047" x1="0" y1="320" x2="512" y2="320"/>
	<line fill="none" stroke="#B35047" x1="0" y1="352" x2="512" y2="352"/>
	<line fill="none" stroke="#B35047" x1="0" y1="384" x2="512" y2="384"/>
	<line fill="none" stroke="#B35047" x1="0" y1="416" x2="512" y2="416"/>
	<line fill="none" stroke="#B35047" x1="0" y1="448" x2="512" y2="448"/>
	<line fill="none" stroke="#B35047" x1="0" y1="480" x2="512" y2="480"/>
	<rect x="0" fill="none" stroke="#B35047" width="512" height="512"/>
</g>
<image display="none" overflow="visible" width="512" height="512" xlink:href="../../../Knowledge/Icon/[+++++] (Full) Windows 8 Icons [icons8]/Editing/cllipboard/cllipboard-512.png"  transform="matrix(0.0406 0 0 0.0406 561 47)">
</image>
<image display="none" overflow="visible" width="512" height="512" xlink:href="../../../Knowledge/Icon/[+++++] (Full) Windows 8 Icons [icons8]/Editing/attach/attach-512.png"  transform="matrix(0.0406 0 0 0.0406 561 47)">
</image>
<g>
	<path display="none" fill="#FFFFFF" d="M581.834,67.841c-6.929,0-13.86,0-20.793,0c0-6.931,0-13.862,0-20.796
		c6.928,0,13.858,0,20.793,0C581.834,53.974,581.834,60.907,581.834,67.841z M579.364,53.987c0.009,0,0.017,0,0.026,0
		c0-0.514,0.014-1.029-0.005-1.543c-0.011-0.307-0.043-0.621-0.12-0.918c-0.154-0.592-0.376-1.155-0.83-1.6
		c-0.653-0.64-1.291-1.294-1.943-1.935c-0.158-0.155-0.333-0.301-0.522-0.416c-1.059-0.643-2.406-0.481-3.287,0.399
		c-2.803,2.797-5.602,5.599-8.402,8.399c-0.057,0.057-0.114,0.116-0.167,0.178c-0.384,0.444-0.631,0.954-0.636,1.544
		c-0.016,1.821-0.016,3.642-0.013,5.463c0.001,0.771,0.311,1.413,0.863,1.948c0.462,0.447,0.912,0.906,1.366,1.363
		c0.275,0.277,0.582,0.511,0.952,0.641c1.105,0.386,2.076,0.162,2.904-0.667c2.996-2.997,5.992-5.994,8.988-8.991
		c0.072-0.072,0.143-0.145,0.209-0.222c0.359-0.418,0.591-0.9,0.611-1.45C579.383,55.449,579.364,54.717,579.364,53.987z"/>
	<path d="M453.324,170.165c0,18.17,0.476,36.357-0.156,54.505c-0.476,13.687-6.265,25.675-15.185,36.07
		c-1.642,1.914-3.403,3.733-5.187,5.518C358.294,340.8,283.789,415.339,209.27,489.864c-20.595,20.596-44.737,26.178-72.214,16.578
		c-9.2-3.214-16.823-9.044-23.669-15.932c-11.275-11.343-22.483-22.759-33.968-33.887c-13.731-13.304-21.435-29.264-21.471-48.434
		c-0.084-45.284-0.067-90.57,0.322-135.851c0.126-14.669,6.259-27.371,15.82-38.404c1.322-1.525,2.722-2.987,4.15-4.415
		c69.641-69.642,139.248-139.317,208.959-208.888c21.913-21.869,55.409-25.897,81.741-9.915c4.696,2.85,9.045,6.484,12.975,10.345
		C398.127,36.989,414,53.262,430.227,69.174c11.283,11.063,16.817,25.059,20.635,39.792c1.912,7.378,2.7,15.174,2.982,22.818
		c0.471,12.778,0.129,25.585,0.129,38.38C453.757,170.164,453.54,170.164,453.324,170.165z M280.644,362.754
		c-18.692-18.694-37.176-37.18-55.055-55.062c-39.413,39.407-79.348,79.336-119.388,119.369c-0.116-0.198,0.001,0.141,0.229,0.37
		c10.57,10.612,21.115,21.251,31.738,31.811c15.312,15.223,33.587,15.034,48.773-0.488c30.366-31.039,60.708-62.101,91.055-93.159
		C279.161,364.402,280.27,363.156,280.644,362.754z M95.513,379.322c1.702-1.557,2.93-2.597,4.064-3.73
		c33.696-33.672,67.42-67.317,100.971-101.133c1.856-1.871,3.192-5.164,3.216-7.809c0.314-35.01,0.353-70.023,0.442-105.035
		c0.004-1.749-0.153-3.498-0.277-6.159c-1.706,1.511-2.707,2.31-3.61,3.209c-9.063,9.029-18.113,18.071-27.16,27.115
		c-21.191,21.182-42.4,42.346-63.557,63.561c-9.055,9.08-14.142,19.952-14.199,32.922c-0.137,31.305-0.231,62.611-0.324,93.917
		C95.077,376.965,95.289,377.75,95.513,379.322z"/>
	<path display="none" fill="#FFFFFF" d="M572.42,61.731c-0.015,0.016-0.06,0.066-0.107,0.114c-1.22,1.249-2.44,2.498-3.661,3.746
		c-0.611,0.624-1.345,0.632-1.961,0.02c-0.427-0.425-0.851-0.852-1.276-1.279c-0.009-0.009-0.014-0.023-0.009-0.015
		c1.61-1.61,3.216-3.215,4.801-4.8C570.925,60.236,571.669,60.979,572.42,61.731z"/>
	<path display="none" fill="#FFFFFF" d="M564.976,62.397c-0.009-0.063-0.018-0.095-0.017-0.126c0.004-1.259,0.008-2.518,0.013-3.776
		c0.002-0.522,0.207-0.959,0.571-1.324c0.851-0.853,1.704-1.704,2.556-2.556c0.364-0.364,0.728-0.727,1.092-1.09
		c0.036-0.036,0.077-0.068,0.145-0.129c0.005,0.107,0.011,0.177,0.011,0.248c-0.004,1.408-0.005,2.816-0.018,4.223
		c-0.001,0.106-0.055,0.239-0.129,0.314c-1.349,1.36-2.705,2.713-4.06,4.067C565.094,62.293,565.045,62.334,564.976,62.397z"/>
</g>
<g display="none">
	<path fill="#FFFFFF" d="M581.841,67.839c-6.931,0-13.861,0-20.796,0c0-6.928,0-13.857,0-20.792c6.929,0,13.863,0,20.796,0
		C581.841,53.975,581.841,60.906,581.841,67.839z M572.044,51.418c-0.039,0.037-0.089,0.082-0.137,0.129
		c-0.842,0.833-1.683,1.668-2.525,2.501c-2.046,2.023-4.094,4.043-6.136,6.07c-0.106,0.105-0.198,0.249-0.24,0.392
		c-0.612,2.06-1.216,4.122-1.818,6.185c-0.068,0.232-0.065,0.468,0.078,0.682c0.214,0.322,0.539,0.428,0.962,0.305
		c1.881-0.55,3.758-1.112,5.643-1.648c0.477-0.135,0.859-0.359,1.213-0.713c2.748-2.747,5.513-5.478,8.274-8.212
		c0.067-0.066,0.15-0.115,0.204-0.156c-0.416-0.418-0.796-0.798-1.213-1.217c-0.037,0.052-0.076,0.127-0.133,0.183
		c-2.8,2.8-5.602,5.6-8.407,8.395c-0.1,0.1-0.237,0.184-0.371,0.224c-1.048,0.316-2.1,0.618-3.149,0.93
		c-0.131,0.039-0.223,0.035-0.321-0.075c-0.152-0.172-0.316-0.335-0.488-0.488c-0.104-0.093-0.107-0.181-0.071-0.304
		c0.327-1.101,0.644-2.205,0.976-3.305c0.042-0.141,0.131-0.283,0.235-0.388c2.754-2.76,5.514-5.516,8.274-8.27
		c0.066-0.066,0.153-0.112,0.212-0.154C572.726,52.103,572.389,51.764,572.044,51.418z M566.644,63.515
		c2.922-2.93,5.831-5.846,8.732-8.753c-0.453-0.451-0.931-0.927-1.4-1.394c-2.901,2.909-5.812,5.829-8.72,8.746
		c0.333,0.076,0.687,0.162,1.044,0.234c0.128,0.026,0.178,0.08,0.194,0.21C566.533,62.877,566.592,63.194,566.644,63.515z
		 M575.023,48.552c1.78,1.777,3.533,3.528,5.286,5.279c0.231-0.227,0.48-0.464,0.721-0.71c0.795-0.812,0.81-1.903,0.018-2.714
		c-0.85-0.871-1.713-1.731-2.582-2.583c-0.667-0.653-1.578-0.786-2.317-0.287C575.729,47.821,575.387,48.218,575.023,48.552z
		 M579.596,54.868c-1.839-1.839-3.665-3.665-5.506-5.506c-0.396,0.371-0.807,0.757-1.2,1.125c1.843,1.843,3.67,3.67,5.506,5.506
		C578.794,55.62,579.202,55.237,579.596,54.868z"/>
	<path display="inline" d="M272.294,105.113c8.573,8.612,16.965,17.042,26.427,26.548c-1.467,1.049-3.629,2.186-5.28,3.834
		C224.763,204.032,156.11,272.593,87.574,341.27c-2.594,2.599-4.788,6.141-5.845,9.643c-8.263,27.36-16.165,54.829-24.292,82.231
		c-0.905,3.051-0.818,5.256,1.764,7.559c4.266,3.807,8.351,7.863,12.139,12.145c2.422,2.738,4.718,2.838,7.977,1.868
		c26.105-7.769,52.288-15.275,78.363-23.142c3.355-1.012,6.752-3.103,9.243-5.585c69.809-69.548,139.508-139.207,209.188-208.885
		c1.413-1.413,2.382-3.27,3.305-4.563c10.378,10.406,19.829,19.883,30.191,30.274c-1.343,1.009-3.425,2.228-5.085,3.872
		c-68.707,68.029-137.511,135.961-205.884,204.324c-8.808,8.806-18.314,14.376-30.175,17.745
		c-46.899,13.323-93.611,27.306-140.406,40.997c-10.528,3.08-18.615,0.428-23.943-7.58c-3.546-5.33-3.622-11.19-1.937-16.969
		c14.963-51.328,29.996-102.635,45.23-153.883c1.054-3.547,3.335-7.123,5.978-9.747c50.806-50.427,101.759-100.706,152.665-151.032
		c20.963-20.724,41.888-41.488,62.836-62.227C270.069,107.142,271.314,106.031,272.294,105.113z"/>
	<path display="inline" d="M137.916,406.095c-1.286-7.991-2.744-15.872-3.741-23.812c-0.407-3.243-1.653-4.584-4.838-5.223
		c-8.887-1.782-17.7-3.935-25.979-5.813c72.368-72.585,144.798-145.231,216.974-217.623c11.669,11.614,23.573,23.463,34.841,34.678
		C283.01,260.644,210.632,333.2,137.916,406.095z"/>
	<path display="inline" d="M346.402,33.799c9.061-8.314,17.584-18.2,28.021-25.255c18.38-12.426,41.048-9.124,57.639,7.134
		c21.636,21.202,43.098,42.591,64.257,64.268c19.697,20.179,19.31,47.329-0.459,67.526c-5.989,6.119-12.194,12.027-17.932,17.671
		C434.315,121.589,390.687,78.022,346.402,33.799z"/>
	<path display="inline" d="M460.199,190.936c-9.811,9.199-19.972,18.727-29.851,27.991c-45.671-45.671-91.131-91.13-137.001-136.999
		c9.775-9.164,20.005-18.755,29.854-27.99C369.003,99.739,414.448,145.184,460.199,190.936z"/>
</g>
<g display="none">
	<path display="inline" d="M214.113,1c27.891,0,55.781,0,83.672,0c0.901,0.365,1.776,0.821,2.707,1.082
		c30.637,8.569,48.293,28.808,53.495,59.964c0.939,5.626,0.623,11.461,0.907,17.665c2.376,0,4.336,0,6.296,0
		c22.744,0,45.488-0.02,68.232,0.027c2.635,0.005,5.362,0.016,7.887,0.654c8.957,2.264,14.449,9.628,14.673,19.514
		c0.141,6.223,0.026,12.451,0.026,19.107c6.93,0,12.996,0,19.272,0c0,13.004,0,25.544,0,38.899c-13.127,0-25.944,0-39.041,0
		c0,2.96,0,5.106,0,7.251c0,94.13,0,188.26-0.001,282.39c0,1.992,0.062,3.988-0.044,5.975c-1.181,22.269-11.074,39.457-30.862,49.93
		c-6.993,3.701-15.207,5.096-22.863,7.543c-81.68,0-163.359,0-245.039,0c-1.255-0.336-2.49-0.821-3.767-0.985
		c-9.936-1.281-18.833-5.1-26.711-11.184c-16.115-12.446-23.339-29.077-23.324-49.286c0.072-94.96,0.032-189.92,0.032-284.88
		c0-2.104,0-4.208,0-6.937c-13.307,0-26.016,0-38.94,0c0-13.303,0-25.97,0-39.084c6.505,0,12.585,0,19.163,0
		c0-5.874-0.019-11.31,0.004-16.746c0.06-14.466,7.695-22.16,22.092-22.178c23.076-0.03,46.152-0.008,69.228-0.009
		c1.909,0,3.819,0,6.13,0c0-2.648-0.008-4.449,0.001-6.251c0.149-29.869,12.99-52.234,39.637-66.106
		C202.337,4.562,208.383,3.084,214.113,1z M393.465,158.13c-92.04,0-183.36,0-275.032,0c0,2.254,0,4.064,0,5.874
		c0,94.444-0.005,188.889,0.024,283.333c0.001,2.808,0.086,5.668,0.606,8.414c1.63,8.601,7.801,14.455,16.428,15.699
		c2.779,0.401,5.614,0.575,8.423,0.576c74.692,0.03,149.385,0.031,224.077-0.003c2.974-0.001,5.983-0.173,8.915-0.643
		c7.549-1.212,12.749-5.635,15.139-12.772c1.13-3.374,1.362-7.174,1.365-10.781c0.069-94.776,0.055-189.553,0.055-284.329
		C393.465,161.855,393.465,160.211,393.465,158.13z M198.297,79.062c38.778,0,77.177,0,115.789,0c0-2.298,0.006-3.948-0.001-5.598
		c-0.084-20.589-12.211-32.649-32.847-32.657c-16.908-0.006-33.838,0.552-50.717-0.145C210.666,39.84,194.567,55.563,198.297,79.062
		z"/>
	<path fill="#FFFFFF" d="M569.734,47.041c-0.234,0.085-0.48,0.145-0.699,0.259c-1.087,0.566-1.611,1.478-1.617,2.696
		c0,0.073,0,0.147,0,0.255c-0.094,0-0.172,0-0.25,0c-0.941,0-1.882-0.001-2.823,0c-0.587,0.001-0.898,0.315-0.901,0.905
		c-0.001,0.222,0,0.443,0,0.683c-0.268,0-0.516,0-0.782,0c0,0.535,0,1.051,0,1.594c0.527,0,1.045,0,1.588,0c0,0.111,0,0.197,0,0.283
		c0,3.873,0.002,7.746-0.001,11.619c-0.001,0.824,0.294,1.503,0.951,2.01c0.321,0.248,0.684,0.404,1.089,0.456
		c0.052,0.007,0.102,0.026,0.154,0.04c-1.801,0-3.602,0-5.403,0c0-6.933,0-13.867,0-20.8
		C563.939,47.041,566.836,47.041,569.734,47.041z"/>
	<path fill="#FFFFFF" d="M576.438,67.841c0.312-0.1,0.647-0.157,0.932-0.308c0.807-0.427,1.211-1.128,1.259-2.036
		c0.004-0.081,0.002-0.162,0.002-0.244c0-3.839,0-7.678,0-11.517c0-0.087,0-0.175,0-0.296c0.534,0,1.057,0,1.592,0
		c0-0.545,0-1.056,0-1.586c-0.256,0-0.503,0-0.786,0c0-0.271,0.005-0.525-0.001-0.779c-0.009-0.403-0.233-0.704-0.598-0.796
		c-0.103-0.026-0.214-0.026-0.322-0.027c-0.928-0.002-1.855-0.001-2.783-0.001c-0.08,0-0.16,0-0.257,0
		c-0.012-0.253,0.001-0.491-0.037-0.72c-0.212-1.271-0.932-2.096-2.182-2.446c-0.038-0.011-0.074-0.029-0.11-0.044
		c2.896,0,5.792,0,8.691,0c0,6.933,0,13.867,0,20.8C580.037,67.841,578.237,67.841,576.438,67.841z"/>
	<path fill="#FFFFFF" d="M577.049,53.449c0,0.085,0,0.152,0,0.219c0,3.865,0.001,7.731-0.002,11.596c0,0.147-0.01,0.302-0.056,0.44
		c-0.097,0.291-0.31,0.471-0.617,0.521c-0.12,0.019-0.242,0.026-0.364,0.026c-3.046,0.001-6.093,0.001-9.139,0
		c-0.115,0-0.23-0.007-0.344-0.023c-0.352-0.051-0.604-0.289-0.67-0.64c-0.021-0.112-0.025-0.229-0.025-0.343
		c-0.001-3.852-0.001-7.704-0.001-11.556c0-0.074,0-0.148,0-0.24C569.571,53.449,573.295,53.449,577.049,53.449z M572.223,55.056
		c-0.528,0-1.04,0-1.564,0c0,3.192,0,6.375,0,9.565c0.526,0,1.039,0,1.564,0C572.223,61.434,572.223,58.257,572.223,55.056z
		 M569.021,64.624c0-3.201,0-6.383,0-9.563c-0.527,0-1.038,0-1.552,0c0,3.194,0,6.375,0,9.563
		C567.993,64.624,568.499,64.624,569.021,64.624z M575.412,64.623c0-3.201,0-6.383,0-9.563c-0.529,0-1.04,0-1.552,0
		c0,3.195,0,6.377,0,9.563C574.382,64.623,574.888,64.623,575.412,64.623z"/>
	<path fill="#FFFFFF" d="M569.089,50.224c-0.152-0.958,0.504-1.6,1.314-1.566c0.688,0.028,1.379,0.006,2.068,0.006
		c0.842,0,1.336,0.492,1.34,1.332c0,0.067,0,0.135,0,0.228C572.237,50.224,570.671,50.224,569.089,50.224z"/>
	<path display="inline" d="M275.137,197.539c0,78.474,0,156.385,0,234.523c-12.889,0-25.445,0-38.355,0
		c0-78.218,0-156.265,0-234.523C249.646,197.539,262.202,197.539,275.137,197.539z"/>
	<path display="inline" d="M196.634,432.121c-12.804,0-25.214,0-38.065,0c0-78.168,0-156.169,0-234.481c12.604,0,25.142,0,38.065,0
		C196.634,275.612,196.634,353.627,196.634,432.121z"/>
	<path display="inline" d="M353.321,432.118c-12.835,0-25.245,0-38.047,0c0-78.119,0-156.136,0-234.471c12.543,0,25.068,0,38.047,0
		C353.321,275.623,353.321,353.621,353.321,432.118z"/>
</g>
<g display="none">
	<path fill="#FFFFFF" d="M581.834,67.841c-6.929,0-13.86,0-20.793,0c0-6.931,0-13.862,0-20.796c6.928,0,13.858,0,20.793,0
		C581.834,53.974,581.834,60.907,581.834,67.841z M575.031,47.31c-0.784,0.235-1.473,0.557-2.102,1
		c-1.168,0.824-2.002,1.895-2.346,3.299c-0.815,3.327-1.618,6.656-2.416,9.987c-0.273,1.14-0.486,2.29-0.379,3.473
		c0.052,0.566,0.188,1.108,0.529,1.576c0.4,0.549,0.971,0.806,1.624,0.893c0.959,0.128,1.804-0.117,2.343-0.954
		c0.809-1.255,0.964-2.624,0.464-4.036c-0.229-0.646-0.713-1.077-1.366-1.295c-0.216-0.072-0.446-0.105-0.669-0.158
		c-0.324-0.077-0.448-0.274-0.378-0.598c0.016-0.072,0.037-0.144,0.061-0.214c0.242-0.715,0.654-1.331,1.119-1.917
		c0.704-0.887,1.187-1.887,1.468-2.98c0.571-2.218,1.13-4.439,1.694-6.658C574.793,48.27,574.906,47.813,575.031,47.31z
		 M581.782,55.113c-0.48,0.068-0.915,0.128-1.348,0.191c-2.101,0.306-4.202,0.615-6.303,0.918c-0.119,0.017-0.197,0.046-0.24,0.171
		c-0.344,0.992-0.862,1.892-1.461,2.75c-0.102,0.146-0.186,0.306-0.294,0.487c0.786-0.098,1.53-0.19,2.274-0.283
		c0.92-0.114,1.844-0.198,2.758-0.349c1.519-0.252,2.716-1.056,3.659-2.257C581.208,56.255,581.517,55.728,581.782,55.113z
		 M568.001,58.234c-0.373-0.093-0.416-0.147-0.422-0.505c-0.001-0.041-0.001-0.081-0.002-0.122
		c-0.039-1.007-0.505-1.738-1.428-2.151c-0.882-0.395-1.81-0.411-2.746-0.265c-0.549,0.086-1.061,0.276-1.489,0.642
		c-0.75,0.643-0.914,1.484-0.77,2.412c0.112,0.721,0.5,1.256,1.144,1.605c0.527,0.285,1.1,0.407,1.687,0.468
		c1.16,0.121,2.309-0.005,3.455-0.17c0.053-0.008,0.128-0.064,0.14-0.111C567.719,59.441,567.858,58.843,568.001,58.234z"/>
	<path display="inline" d="M344.57,6.259c-3.102,12.402-5.886,23.672-8.742,34.924c-13.892,54.728-27.684,109.482-41.757,164.164
		c-6.937,26.954-18.836,51.589-36.19,73.468c-11.454,14.44-21.612,29.63-27.586,47.262c-0.586,1.73-1.115,3.492-1.501,5.276
		c-1.731,8.001,1.338,12.854,9.321,14.749c5.502,1.306,11.168,2.1,16.507,3.883c16.116,5.383,28.045,16.004,33.686,31.936
		c12.332,34.832,8.5,68.568-11.44,99.519c-13.297,20.639-34.119,26.662-57.77,23.517c-16.106-2.142-30.17-8.475-40.04-22.008
		c-8.41-11.532-11.772-24.887-13.042-38.847c-2.653-29.159,2.601-57.524,9.334-85.625c19.677-82.122,39.479-164.216,59.572-246.237
		c8.475-34.597,29.03-61.024,57.831-81.328C308.256,19.982,325.231,12.043,344.57,6.259z M197.892,434.884
		c0,2.502-0.217,5.027,0.039,7.503c0.919,8.907,2.663,17.605,9.638,24.022c15.241,14.023,38.788,9.296,47.696-9.778
		c7.31-15.652,8.972-32.393,7.46-49.394c-0.729-8.197-3.024-16.16-9.548-21.97c-15.393-13.708-38.392-9.04-47.47,9.721
		C199.624,407.558,198.052,421.117,197.892,434.884z M198.825,294.552c-0.098,8.803,6.81,15.953,15.621,16.17
		c8.818,0.217,16.443-7.227,16.408-16.018c-0.035-8.693-7.21-15.803-15.991-15.845C206.064,278.817,198.922,285.806,198.825,294.552
		z"/>
	<path display="inline" d="M511,198.638c-6.519,15.157-14.154,28.171-23.563,40.144c-23.258,29.594-52.766,49.436-90.223,55.638
		c-22.52,3.729-45.316,5.787-67.987,8.601c-18.35,2.278-36.699,4.564-56.069,6.974c2.677-4.459,4.734-8.388,7.253-11.997
		c14.758-21.146,27.521-43.346,36.012-67.801c1.066-3.069,2.998-3.792,5.929-4.215c51.811-7.479,103.605-15.081,155.406-22.636
		C488.45,201.786,499.155,200.313,511,198.638z"/>
	<path display="inline" d="M171.242,275.596c-3.545,15.019-6.962,29.767-10.619,44.454c-0.289,1.159-2.161,2.552-3.456,2.738
		c-28.26,4.067-56.594,7.183-85.192,4.195c-14.487-1.514-28.609-4.505-41.603-11.543c-15.874-8.599-25.444-21.789-28.203-39.565
		c-3.551-22.881,0.489-43.609,18.986-59.472c10.541-9.04,23.178-13.726,36.712-15.834c23.089-3.597,45.962-3.196,67.708,6.542
		c22.749,10.187,34.236,28.202,35.198,53.027c0.039,1,0.043,2.001,0.06,3.002C160.986,271.961,162.038,273.296,171.242,275.596z
		 M78.593,294.554c13.167-0.043,23.788-0.795,33.755-5.309c11.402-5.164,16.711-14.028,16.775-26.54
		c0.064-12.695-4.936-22.323-16.836-26.908c-20.696-7.975-41.805-7.912-62.54-0.104c-11.959,4.504-17.123,14.163-17.121,26.764
		c0.003,12.595,5.358,21.723,17.064,26.893C59.7,293.771,70.309,294.499,78.593,294.554z"/>
	<path fill="#FFFFFF" d="M569.082,64.695c0.007-0.558,0.07-1.108,0.317-1.618c0.368-0.761,1.301-0.95,1.925-0.394
		c0.265,0.236,0.358,0.559,0.387,0.891c0.061,0.69-0.006,1.369-0.303,2.003c-0.361,0.774-1.316,0.965-1.935,0.397
		c-0.283-0.26-0.354-0.613-0.391-0.974C569.073,64.899,569.082,64.796,569.082,64.695z"/>
	<path fill="#FFFFFF" d="M569.12,59.003c0.004-0.355,0.294-0.638,0.65-0.636c0.356,0.002,0.647,0.29,0.649,0.643
		c0.001,0.357-0.308,0.658-0.666,0.65C569.396,59.65,569.116,59.36,569.12,59.003z"/>
	<path fill="#FFFFFF" d="M564.243,59.003c-0.336-0.002-0.766-0.032-1.172-0.211c-0.475-0.21-0.692-0.58-0.692-1.091
		c0-0.511,0.209-0.903,0.694-1.086c0.841-0.317,1.697-0.319,2.537,0.004c0.483,0.186,0.685,0.576,0.683,1.091
		c-0.003,0.507-0.218,0.867-0.68,1.076C565.208,58.971,564.778,59.001,564.243,59.003z"/>
</g>
<g display="none">
	<path fill="#FFFFFF" d="M567.581,47.041c4.753,0,9.506,0,14.259,0c0,3.426,0,6.852,0,10.278c-0.026-0.097-0.049-0.195-0.078-0.291
		c-0.166-0.548-0.518-0.982-0.905-1.378c-1.136-1.161-2.288-2.307-3.438-3.454c-0.191-0.191-0.399-0.367-0.611-0.535
		c-0.407-0.322-0.836-0.607-1.384-0.608c-1.09-0.002-2.18,0.001-3.269,0.004c-0.425,0.001-0.836,0.088-1.217,0.274
		c-1.236,0.604-1.882,1.6-1.887,2.974c-0.012,3.053-0.004,6.106-0.004,9.159c0,0.44-0.01,0.88,0.007,1.32
		c0.047,1.278,0.888,2.423,2.095,2.85c0.252,0.089,0.519,0.139,0.779,0.207c-3.625,0-7.25,0-10.887,0c0-2.302,0-4.604,0-6.906
		c0.015,0.058,0.035,0.116,0.044,0.175c0.211,1.492,1.483,2.667,2.997,2.706c1.339,0.034,2.68,0.012,4.021,0.014
		c0.038,0,0.076-0.012,0.116-0.019c0-0.524,0-1.035,0-1.566c-0.092,0-0.172,0-0.251,0c-1.198,0-2.396,0.001-3.595,0
		c-1.065-0.001-1.741-0.672-1.742-1.734c-0.002-3.378-0.002-6.756,0.002-10.134c0-0.174,0.015-0.354,0.06-0.521
		c0.206-0.772,0.814-1.22,1.655-1.224c1.049-0.005,2.099-0.003,3.148-0.003c0.319,0,0.535,0.133,0.63,0.438
		c0.065,0.21,0.103,0.436,0.108,0.655c0.015,0.67,0.008,1.34,0.011,2.01c0.001,0.211,0.03,0.413,0.202,0.6
		c0.253-0.628,0.633-1.137,1.171-1.514c0.538-0.377,1.141-0.569,1.826-0.585c-0.043-0.054-0.064-0.087-0.09-0.113
		c-0.602-0.604-1.196-1.217-1.81-1.808C568.973,47.763,568.399,47.209,567.581,47.041z M568.224,53.469c-1.333,0-2.646,0-3.96,0
		c0,0.529,0,1.039,0,1.552c1.327,0,2.641,0,3.96,0C568.224,54.5,568.224,53.994,568.224,53.469z M564.262,55.864
		c0,0.529,0,1.04,0,1.558c1.325,0,2.639,0,3.957,0c0-0.524,0-1.035,0-1.558C566.899,55.864,565.59,55.864,564.262,55.864z
		 M568.224,58.268c-1.334,0-2.647,0-3.96,0c0,0.527,0,1.038,0,1.55c1.327,0,2.641,0,3.96,0
		C568.224,59.297,568.224,58.791,568.224,58.268z"/>
	<path display="inline" d="M267.953,511c-6.374-1.667-12.908-2.883-19.096-5.076c-29.577-10.484-50.206-38.561-51.362-69.891
		c-0.398-10.774-0.159-21.573-0.16-32.361c-0.009-74.854-0.213-149.709,0.091-224.561c0.137-33.695,15.978-58.13,46.273-72.929
		c9.34-4.562,19.409-6.686,29.84-6.712c26.72-0.068,53.441-0.138,80.161-0.09c13.425,0.024,23.95,7.009,33.932,14.904
		c5.198,4.111,10.282,8.436,14.97,13.112c28.2,28.129,56.435,56.226,84.292,84.692c9.504,9.712,18.132,20.344,22.198,33.786
		c0.713,2.356,1.275,4.758,1.907,7.138c0,62.422,0,124.844,0,187.266c-0.351,1.077-0.842,2.129-1.031,3.233
		c-5.24,30.493-22.206,51.484-51.113,62.52c-5.957,2.274-12.374,3.344-18.578,4.969C382.836,511,325.395,511,267.953,511z
		 M236.125,305.136c0,41.501-0.052,83.003,0.019,124.504c0.044,25.193,16.539,42.247,41.493,42.347
		c50.963,0.203,101.927,0.114,152.891,0.025c13.496-0.023,24.884-4.87,33.326-15.807c6.293-8.153,8.193-17.573,8.194-27.569
		c0.005-53.454,0.003-106.908,0.003-160.361c0-3.486,0.077-6.974-0.019-10.458c-0.338-12.227-4.518-17.272-16.542-20.004
		c-1.769-0.402-3.582-0.816-5.381-0.849c-17.919-0.325-35.838-0.638-53.759-0.82c-15.06-0.153-22.529-7.58-22.572-22.733
		c-0.046-16.102,0.17-32.211-0.249-48.304c-0.149-5.708-1.277-11.546-2.96-17.017c-1.761-5.725-6.045-9.82-12.414-9.842
		c-28.385-0.097-56.772-0.04-85.156,0.206c-8.016,0.069-15.194,3.183-21.5,8.134c-11.035,8.664-15.38,20.369-15.376,34.043
		C236.131,222.133,236.125,263.635,236.125,305.136z"/>
	<path display="inline" d="M161.371,1c20.062,4.135,34.116,17.71,48.082,31.132c15.076,14.489,29.626,29.524,44.391,44.335
		c0.653,0.655,1.164,1.453,2.211,2.779c-16.795,0.397-31.595,5.107-44.778,14.343c-13.202,9.25-22.495,21.732-28.71,37.131
		c-4.219-4.573-4.932-9.541-4.954-14.711c-0.07-16.432,0.104-32.869-0.272-49.293c-0.123-5.387-1.056-10.924-2.658-16.069
		c-2.329-7.485-7.629-10.749-15.447-10.748c-25.727,0.005-51.455-0.051-77.181,0.071c-20.626,0.098-35.533,11.088-40.576,30.017
		c-1.094,4.105-1.464,8.514-1.468,12.783c-0.083,82.825-0.092,165.65-0.043,248.475c0.015,26.055,16.597,42.49,42.714,42.521
		c29.379,0.034,58.758,0.008,88.136,0.008c1.951,0,3.902,0,6.159,0c0,13.02,0,25.545,0,38.393c-0.974,0.17-1.904,0.475-2.834,0.474
		c-32.862-0.046-65.74,0.483-98.583-0.352c-37.111-0.944-68.32-29.751-73.486-66.345c-0.205-1.449-0.71-2.855-1.075-4.281
		c0-89.98,0-179.961,0-269.941c0.351-1.077,0.842-2.129,1.031-3.233c5.24-30.493,22.206-51.484,51.113-62.52
		C59.101,3.695,65.518,2.625,71.723,1C101.605,1,131.488,1,161.371,1z"/>
	<path fill="#FFFFFF" d="M563.925,47.041c-0.253,0.066-0.515,0.11-0.758,0.203c-1.179,0.45-1.871,1.306-2.085,2.55
		c-0.008,0.045-0.028,0.088-0.042,0.132c0-0.961,0-1.923,0-2.884C562.002,47.041,562.964,47.041,563.925,47.041z"/>
	<path fill="#FFFFFF" d="M578.956,67.841c0.253-0.066,0.515-0.11,0.758-0.203c1.179-0.45,1.871-1.306,2.085-2.55
		c0.008-0.045,0.028-0.088,0.042-0.132c0,0.961,0,1.923,0,2.884C580.879,67.841,579.918,67.841,578.956,67.841z"/>
	<path display="inline" d="M177.131,158.62c0,12.87,0,25.275,0,38.064c-32.348,0-64.565,0-97.102,0c0-12.582,0-25.101,0-38.064
		C112.244,158.62,144.443,158.62,177.131,158.62z"/>
	<path display="inline" d="M79.98,217.347c32.572,0,64.664,0,97.032,0c0,12.819,0,25.343,0,38.199c-32.325,0-64.543,0-97.032,0
		C79.98,242.842,79.98,230.321,79.98,217.347z"/>
	<path display="inline" d="M177.137,276.285c0,12.824,0,25.226,0,38.007c-32.355,0-64.568,0-97.105,0c0-12.56,0-25.077,0-38.007
		C112.229,276.285,144.434,276.285,177.137,276.285z"/>
	<path fill="#FFFFFF" d="M570.63,59.445c0-1.693,0-3.385,0-5.078c0-0.558,0.177-1.035,0.627-1.388
		c0.257-0.202,0.55-0.329,0.877-0.332c1.158-0.01,2.315-0.012,3.473-0.008c0.26,0.001,0.434,0.168,0.506,0.401
		c0.069,0.223,0.115,0.461,0.121,0.694c0.017,0.656,0.008,1.313,0.01,1.97c0.002,0.618,0.306,0.921,0.921,0.927
		c0.731,0.007,1.462,0.02,2.193,0.033c0.073,0.001,0.147,0.018,0.219,0.035c0.49,0.111,0.661,0.317,0.675,0.816
		c0.004,0.142,0.001,0.284,0.001,0.427c0,2.18,0,4.36,0,6.54c0,0.408-0.078,0.792-0.334,1.124c-0.344,0.446-0.809,0.644-1.359,0.645
		c-2.078,0.004-4.157,0.007-6.236-0.001c-1.018-0.004-1.69-0.7-1.692-1.727C570.628,62.83,570.63,61.137,570.63,59.445z
		 M572.259,59.011c2.134,0,4.247,0,6.358,0c0-0.529,0-1.039,0-1.55c-2.127,0-4.241,0-6.358,0
		C572.259,57.983,572.259,58.489,572.259,59.011z M578.623,62.26c-2.134,0-4.246,0-6.358,0c0,0.528,0,1.039,0,1.552
		c2.127,0,4.239,0,6.358,0C578.623,63.287,578.623,62.781,578.623,62.26z M572.259,61.415c1.6,0,3.179,0,4.76,0
		c0-0.531,0-1.046,0-1.554c-1.597,0-3.177,0-4.76,0C572.259,60.383,572.259,60.889,572.259,61.415z"/>
	<path display="inline" d="M276.056,294.516c0-12.801,0-25.212,0-38.007c51.921,0,103.741,0,155.897,0c0,12.523,0,25.047,0,38.007
		C380.188,294.516,328.385,294.516,276.056,294.516z"/>
	<path display="inline" d="M432.116,374.177c0,12.774,0,25.18,0,38.047c-51.956,0-103.741,0-155.884,0c0-12.582,0-25.112,0-38.047
		C328.001,374.177,379.8,374.177,432.116,374.177z"/>
	<path display="inline" d="M276.066,353.447c0-12.891,0-25.3,0-38.112c38.822,0,77.552,0,116.721,0c0,12.458,0,25.095,0,38.112
		C354.023,353.447,315.307,353.447,276.066,353.447z"/>
</g>
</svg>
