<?xml version="1.0" encoding="utf-8"?>
<!-- Generator: Adobe Illustrator 17.0.0, SVG Export Plug-In . SVG Version: 6.00 Build 0)  -->
<!DOCTYPE svg PUBLIC "-//W3C//DTD SVG 1.1//EN" "http://www.w3.org/Graphics/SVG/1.1/DTD/svg11.dtd">
<svg version="1.1" id="Layer_1" xmlns="http://www.w3.org/2000/svg" xmlns:xlink="http://www.w3.org/1999/xlink" x="0px" y="0px"
	 width="512px" height="512px" viewBox="0 0 512 512" enable-background="new 0 0 512 512" xml:space="preserve">
<g>
	<line fill="none" stroke="#B35047" x1="32" y1="0" x2="32" y2="512"/>
	<line fill="none" stroke="#B35047" x1="64" y1="0" x2="64" y2="512"/>
	<line fill="none" stroke="#B35047" x1="96" y1="0" x2="96" y2="512"/>
	<line fill="none" stroke="#B35047" x1="128" y1="0" x2="128" y2="512"/>
	<line fill="none" stroke="#B35047" x1="160" y1="0" x2="160" y2="512"/>
	<line fill="none" stroke="#B35047" x1="192" y1="0" x2="192" y2="512"/>
	<line fill="none" stroke="#B35047" x1="224" y1="0" x2="224" y2="512"/>
	<line fill="none" stroke="#B35047" x1="256" y1="0" x2="256" y2="512"/>
	<line fill="none" stroke="#B35047" x1="288" y1="0" x2="288" y2="512"/>
	<line fill="none" stroke="#B35047" x1="320" y1="0" x2="320" y2="512"/>
	<line fill="none" stroke="#B35047" x1="352" y1="0" x2="352" y2="512"/>
	<line fill="none" stroke="#B35047" x1="384" y1="0" x2="384" y2="512"/>
	<line fill="none" stroke="#B35047" x1="416" y1="0" x2="416" y2="512"/>
	<line fill="none" stroke="#B35047" x1="448" y1="0" x2="448" y2="512"/>
	<line fill="none" stroke="#B35047" x1="480" y1="0" x2="480" y2="512"/>
	<line fill="none" stroke="#B35047" x1="0" y1="32" x2="512" y2="32"/>
	<line fill="none" stroke="#B35047" x1="0" y1="64" x2="512" y2="64"/>
	<line fill="none" stroke="#B35047" x1="0" y1="96" x2="512" y2="96"/>
	<line fill="none" stroke="#B35047" x1="0" y1="128" x2="512" y2="128"/>
	<line fill="none" stroke="#B35047" x1="0" y1="160" x2="512" y2="160"/>
	<line fill="none" stroke="#B35047" x1="0" y1="192" x2="512" y2="192"/>
	<line fill="none" stroke="#B35047" x1="0" y1="224" x2="512" y2="224"/>
	<line fill="none" stroke="#B35047" x1="0" y1="256" x2="512" y2="256"/>
	<line fill="none" stroke="#B35047" x1="0" y1="288" x2="512" y2="288"/>
	<line fill="none" stroke="#B35047" x1="0" y1="320" x2="512" y2="320"/>
	<line fill="none" stroke="#B35047" x1="0" y1="352" x2="512" y2="352"/>
	<line fill="none" stroke="#B35047" x1="0" y1="384" x2="512" y2="384"/>
	<line fill="none" stroke="#B35047" x1="0" y1="416" x2="512" y2="416"/>
	<line fill="none" stroke="#B35047" x1="0" y1="448" x2="512" y2="448"/>
	<line fill="none" stroke="#B35047" x1="0" y1="480" x2="512" y2="480"/>
	<rect x="0" fill="none" stroke="#B35047" width="512" height="512"/>
</g>
<image display="none" overflow="visible" width="512" height="512" xlink:href="../../../Knowledge/Icon/[+++++] (Full) Windows 8 Icons [icons8]/Emoticons/guestion/guestion-512.png"  transform="matrix(0.0406 0 0 0.0406 577 40.3333)">
</image>
<image display="none" overflow="visible" width="512" height="512" xlink:href="../../../Knowledge/Icon/[+++++] (Full) Windows 8 Icons [icons8]/Emoticons/wink/wink-512.png"  transform="matrix(0.0406 0 0 0.0406 577 40.3333)">
</image>
<image display="none" overflow="visible" width="512" height="512" xlink:href="../../../Knowledge/Icon/[+++++] (Full) Windows 8 Icons [icons8]/Emoticons/sad/sad-512.png"  transform="matrix(0.0406 0 0 0.0406 577 40.3333)">
</image>
<g>
	<path display="none" fill="#FFFFFF" d="M234.441,266.439c-6.93,0-13.861,0-20.796,0c0-6.927,0-13.856,0-20.791
		c6.929,0,13.862,0,20.796,0C234.441,252.574,234.441,259.505,234.441,266.439z M234.279,256.047
		c0.006-5.659-4.569-10.238-10.233-10.244c-5.657-0.006-10.239,4.57-10.245,10.233c-0.006,5.658,4.57,10.239,10.233,10.244
		C229.694,266.285,234.273,261.711,234.279,256.047z"/>
	<path d="M511,256.147C510.857,397.213,396.811,511.132,255.863,511C114.817,510.867,0.855,396.783,1,255.863
		C1.145,114.817,115.247,0.843,256.148,1C397.216,1.158,511.143,115.216,511,256.147z M255.98,471.605
		c118.622,0.013,215.639-96.977,215.624-215.565c-0.015-118.642-96.95-215.604-215.569-215.629
		c-118.611-0.024-215.611,96.951-215.624,215.57C40.398,374.605,137.36,471.591,255.98,471.605z"/>
	<path display="none" fill="#FFFFFF" d="M224.04,264.697c-4.763-0.001-8.656-3.895-8.655-8.658c0.001-4.763,3.895-8.656,8.658-8.655
		c4.763,0.001,8.655,3.894,8.655,8.658C232.698,260.804,228.803,264.698,224.04,264.697z M218.568,257.71
		c0.102,1.958,0.874,3.57,2.592,4.637c1.814,1.127,4.472,0.989,6.192-0.284c1.578-1.168,2.217-3.179,2.123-4.34
		C225.848,258.877,222.224,258.877,218.568,257.71z M220.769,252.836c-0.882,0.185-1.694,0.612-2.261,1.426
		c-0.145,0.208-0.034,0.386,0.238,0.381c0.336-0.006,0.674-0.044,1.007-0.092c0.61-0.087,1.218-0.183,1.829-0.011
		c0.169,0.047,0.339,0.092,0.512,0.121c0.282,0.048,0.373-0.03,0.317-0.315c-0.041-0.207-0.116-0.419-0.225-0.599
		C221.882,253.246,221.461,252.897,220.769,252.836z M229.172,254.668c0.001-0.004,0.001-0.008,0.002-0.013
		c0.068-0.003,0.136,0,0.202-0.01c0.241-0.035,0.311-0.17,0.2-0.386c-0.024-0.048-0.056-0.093-0.089-0.135
		c-0.435-0.543-1.006-0.888-1.642-1.146c-0.667-0.27-1.216-0.087-1.685,0.414c-0.267,0.285-0.473,0.61-0.503,1.015
		c-0.016,0.214,0.062,0.292,0.271,0.266c0.133-0.017,0.266-0.049,0.395-0.087c0.494-0.144,0.993-0.181,1.504-0.101
		C228.274,254.554,228.724,254.608,229.172,254.668z"/>
	<path d="M119.705,297.582c91.054,29.06,181.314,29.062,271.652,0.315c2.349,28.909-13.575,78.996-52.875,108.093
		c-42.828,31.709-109.03,35.136-154.21,7.073C141.483,386.484,122.24,346.34,119.705,297.582z"/>
	<path d="M174.524,176.195c17.221,1.513,27.715,10.199,35.279,22.701c2.713,4.485,4.576,9.763,5.599,14.923
		c1.405,7.091-0.86,9.038-7.894,7.833c-4.296-0.736-8.543-1.842-12.745-3.021c-15.23-4.271-30.358-1.886-45.557,0.285
		c-8.306,1.186-16.706,2.133-25.08,2.286c-6.767,0.123-9.53-4.312-5.925-9.487C132.334,191.431,152.551,180.803,174.524,176.195z"/>
	<path d="M383.806,221.814c-11.167-1.507-22.363-2.831-33.493-4.57c-12.713-1.986-25.137-1.06-37.447,2.527
		c-3.219,0.938-6.518,1.743-9.837,2.162c-5.215,0.658-7.158-1.297-6.759-6.619c0.758-10.091,5.883-18.17,12.528-25.279
		c11.665-12.477,25.358-17.04,41.961-10.312c15.847,6.422,30.077,15.005,40.9,28.541c0.837,1.046,1.617,2.172,2.225,3.362
		c2.748,5.379,1.014,8.741-4.986,9.621c-1.658,0.243-3.361,0.174-5.043,0.249C383.838,221.603,383.822,221.709,383.806,221.814z"/>
</g>
<g display="none">
	<path fill="#FFFFFF" d="M266.398,266.396c-6.93,0-13.861,0-20.796,0c0-6.927,0-13.856,0-20.791c6.929,0,13.862,0,20.796,0
		C266.398,252.53,266.398,259.462,266.398,266.396z M266.236,255.994c-0.003-5.662-4.583-10.239-10.242-10.235
		c-5.662,0.003-10.239,4.584-10.235,10.242c0.004,5.663,4.583,10.238,10.242,10.235
		C261.664,266.233,266.239,261.655,266.236,255.994z"/>
	<path display="inline" d="M510.998,255.919c0.076,140.972-113.871,254.993-254.911,255.079
		C115.132,511.083,1.092,397.121,0.998,256.086C0.904,115.154,114.903,1.081,255.919,0.998
		C396.866,0.914,510.922,114.9,510.998,255.919z M256.247,471.602c118.657-0.164,215.543-97.264,215.356-215.833
		c-0.187-118.661-97.257-215.516-215.837-215.36C137.127,40.565,40.242,137.666,40.409,256.247
		C40.576,374.899,137.66,471.766,256.247,471.602z"/>
	<path fill="#FFFFFF" d="M256.008,264.654c-4.761,0.007-8.659-3.883-8.666-8.647c-0.007-4.761,3.883-8.66,8.647-8.666
		c4.761-0.006,8.659,3.883,8.666,8.647C264.662,260.749,260.772,264.648,256.008,264.654z M261.66,258.578
		c-1.714,1.164-3.603,1.765-5.669,1.764c-2.063-0.001-3.95-0.606-5.663-1.763C253.233,262.567,259.078,262.292,261.66,258.578z
		 M254.386,254.392c-0.006-0.873-0.721-1.588-1.588-1.588c-0.874,0-1.6,0.735-1.59,1.609c0.01,0.871,0.74,1.59,1.601,1.578
		C253.681,255.979,254.392,255.258,254.386,254.392z M257.61,254.396c-0.002,0.869,0.711,1.588,1.581,1.595
		c0.863,0.008,1.589-0.712,1.597-1.582c0.007-0.874-0.724-1.611-1.594-1.605C258.324,252.81,257.612,253.525,257.61,254.396z"/>
	<path display="inline" d="M397.024,320.261c-64.32,92.498-209.877,99.367-282.24,0.037c42.652,28.814,89.668,43.883,141.041,43.902
		C307.282,364.219,354.344,349.264,397.024,320.261z"/>
	<path display="inline" d="M215.856,216.007c0.159,21.57-17.555,39.526-39.289,39.826c-21.444,0.296-39.61-17.616-39.865-39.309
		c-0.256-21.756,17.842-40.068,39.599-40.067C197.894,176.458,215.696,194.258,215.856,216.007z"/>
	<path display="inline" d="M296.141,216.103c0.056-21.681,17.789-39.5,39.457-39.649c21.662-0.149,39.883,18.198,39.697,39.974
		c-0.185,21.67-18.273,39.591-39.771,39.404C313.837,255.643,296.085,237.735,296.141,216.103z"/>
</g>
</svg>
