<?xml version="1.0" encoding="utf-8"?>
<!-- Generator: Adobe Illustrator 17.0.0, SVG Export Plug-In . SVG Version: 6.00 Build 0)  -->
<!DOCTYPE svg PUBLIC "-//W3C//DTD SVG 1.1//EN" "http://www.w3.org/Graphics/SVG/1.1/DTD/svg11.dtd">
<svg version="1.1" id="Layer_1" xmlns="http://www.w3.org/2000/svg" xmlns:xlink="http://www.w3.org/1999/xlink" x="0px" y="0px"
	 width="512px" height="512px" viewBox="0 0 512 512" enable-background="new 0 0 512 512" xml:space="preserve">
<g>
	<line fill="none" stroke="#B35047" x1="32" y1="0" x2="32" y2="512"/>
	<line fill="none" stroke="#B35047" x1="64" y1="0" x2="64" y2="512"/>
	<line fill="none" stroke="#B35047" x1="96" y1="0" x2="96" y2="512"/>
	<line fill="none" stroke="#B35047" x1="128" y1="0" x2="128" y2="512"/>
	<line fill="none" stroke="#B35047" x1="160" y1="0" x2="160" y2="512"/>
	<line fill="none" stroke="#B35047" x1="192" y1="0" x2="192" y2="512"/>
	<line fill="none" stroke="#B35047" x1="224" y1="0" x2="224" y2="512"/>
	<line fill="none" stroke="#B35047" x1="256" y1="0" x2="256" y2="512"/>
	<line fill="none" stroke="#B35047" x1="288" y1="0" x2="288" y2="512"/>
	<line fill="none" stroke="#B35047" x1="320" y1="0" x2="320" y2="512"/>
	<line fill="none" stroke="#B35047" x1="352" y1="0" x2="352" y2="512"/>
	<line fill="none" stroke="#B35047" x1="384" y1="0" x2="384" y2="512"/>
	<line fill="none" stroke="#B35047" x1="416" y1="0" x2="416" y2="512"/>
	<line fill="none" stroke="#B35047" x1="448" y1="0" x2="448" y2="512"/>
	<line fill="none" stroke="#B35047" x1="480" y1="0" x2="480" y2="512"/>
	<line fill="none" stroke="#B35047" x1="0" y1="32" x2="512" y2="32"/>
	<line fill="none" stroke="#B35047" x1="0" y1="64" x2="512" y2="64"/>
	<line fill="none" stroke="#B35047" x1="0" y1="96" x2="512" y2="96"/>
	<line fill="none" stroke="#B35047" x1="0" y1="128" x2="512" y2="128"/>
	<line fill="none" stroke="#B35047" x1="0" y1="160" x2="512" y2="160"/>
	<line fill="none" stroke="#B35047" x1="0" y1="192" x2="512" y2="192"/>
	<line fill="none" stroke="#B35047" x1="0" y1="224" x2="512" y2="224"/>
	<line fill="none" stroke="#B35047" x1="0" y1="256" x2="512" y2="256"/>
	<line fill="none" stroke="#B35047" x1="0" y1="288" x2="512" y2="288"/>
	<line fill="none" stroke="#B35047" x1="0" y1="320" x2="512" y2="320"/>
	<line fill="none" stroke="#B35047" x1="0" y1="352" x2="512" y2="352"/>
	<line fill="none" stroke="#B35047" x1="0" y1="384" x2="512" y2="384"/>
	<line fill="none" stroke="#B35047" x1="0" y1="416" x2="512" y2="416"/>
	<line fill="none" stroke="#B35047" x1="0" y1="448" x2="512" y2="448"/>
	<line fill="none" stroke="#B35047" x1="0" y1="480" x2="512" y2="480"/>
	<rect x="0" fill="none" stroke="#B35047" width="512" height="512"/>
</g>
<image display="none" overflow="visible" width="512" height="512" xlink:href="../../../Knowledge/Icon/[+++++] (Full) Windows 8 Icons [icons8]/Emoticons/guestion/guestion-512.png"  transform="matrix(0.0406 0 0 0.0406 577 40.3333)">
</image>
<g>
	<path display="none" fill="#FFFFFF" d="M597.841,61.172c-6.93,0-13.861,0-20.796,0c0-6.927,0-13.856,0-20.791
		c6.929,0,13.862,0,20.796,0C597.841,47.307,597.841,54.239,597.841,61.172z M597.679,50.783
		c0.009-5.657-4.563-10.238-10.229-10.248c-5.656-0.01-10.238,4.565-10.248,10.23c-0.01,5.656,4.565,10.239,10.23,10.248
		C593.09,61.021,597.67,56.449,597.679,50.783z"/>
	<path d="M511,256.234C510.774,397.337,396.69,511.216,255.776,511C114.697,510.783,0.763,396.649,1,255.776
		C1.238,114.684,115.374,0.752,256.234,1C397.346,1.249,511.225,115.337,511,256.234z M471.604,255.856
		C471.47,137.197,374.446,40.312,255.851,40.412c-118.632,0.1-215.55,97.16-215.44,215.754
		c0.111,118.642,97.158,215.548,215.754,215.439C374.815,471.495,471.738,374.433,471.604,255.856z"/>
	<path display="none" fill="#FFFFFF" d="M596.097,50.768c0.005,4.761-3.886,8.658-8.65,8.663c-4.762,0.004-8.658-3.887-8.663-8.65
		c-0.004-4.762,3.887-8.659,8.65-8.663C592.196,42.114,596.092,46.004,596.097,50.768z M582.957,54.162
		c-0.003-0.006,0.006,0.016,0.021,0.035c1.533,1.993,4.072,2.42,6.07,1.791c1.262-0.397,2.218-1.218,2.961-2.295
		c0.405-0.587,0.71-1.224,0.913-1.96c-0.073,0.078-0.113,0.123-0.155,0.165c-0.504,0.499-0.977,1.035-1.519,1.489
		c-0.966,0.808-2.066,1.378-3.341,1.488c-1.213,0.105-2.423,0.016-3.609-0.267C583.837,54.497,583.395,54.309,582.957,54.162z
		 M585.823,49.244c0.058-0.872-0.623-1.624-1.547-1.656c-0.842-0.03-1.563,0.605-1.622,1.504c-0.058,0.875,0.63,1.62,1.542,1.673
		C585.031,50.813,585.764,50.129,585.823,49.244z M590.716,49.917c0,0.012,0,0.024,0,0.035c0.095,0,0.189,0.002,0.284,0
		c0.541-0.012,1.081-0.019,1.621-0.043c0.113-0.005,0.224-0.07,0.335-0.107c-0.044-0.109-0.065-0.239-0.137-0.324
		c-0.518-0.607-1.186-0.956-1.972-1.049c-0.653-0.078-1.263,0.113-1.822,0.436c-0.245,0.142-0.466,0.345-0.655,0.557
		c-0.169,0.19-0.099,0.35,0.145,0.422c0.128,0.038,0.264,0.068,0.397,0.07C589.513,49.921,590.115,49.917,590.716,49.917z"/>
	<path d="M144.344,340.371c10.892,3.683,21.902,8.362,33.376,11.098c29.538,7.045,59.684,9.268,89.883,6.65
		c31.755-2.752,59.158-16.951,83.213-37.065c13.506-11.294,25.293-24.643,37.845-37.076c1.055-1.045,2.038-2.165,3.864-4.114
		c-5.044,18.341-12.648,34.203-22.738,48.828c-18.509,26.83-42.33,47.261-73.754,57.153c-49.767,15.666-112.983,5.032-151.175-44.61
		C144.501,340.773,144.259,340.224,144.344,340.371z"/>
	<path d="M215.711,217.904c-1.477,22.025-19.728,39.078-40.536,37.875c-22.714-1.313-39.827-19.855-38.392-41.657
		c1.474-22.394,19.424-38.207,40.404-37.47C200.191,177.461,217.166,196.194,215.711,217.904z"/>
	<path d="M337.578,234.655c-14.979,0-29.96,0.102-44.937-0.08c-3.306-0.04-6.687-0.789-9.88-1.732
		c-6.082-1.796-7.818-5.787-3.605-10.514c4.721-5.297,10.218-10.35,16.32-13.878c13.912-8.043,29.121-12.799,45.381-10.863
		c19.578,2.331,36.211,11.024,49.112,26.136c1.809,2.119,2.31,5.355,3.416,8.074c-2.783,0.927-5.536,2.541-8.353,2.663
		c-13.451,0.58-26.919,0.762-40.381,1.065c-2.357,0.053-4.715,0.008-7.073,0.008C337.578,235.241,337.578,234.948,337.578,234.655z"
		/>
</g>
<g display="none">
	<path fill="#FFFFFF" d="M577.042,61.165c0-6.922,0-13.853,0-20.788c6.928,0,13.857,0,20.793,0c0,6.924,0,13.852,0,20.788
		C590.908,61.165,583.975,61.165,577.042,61.165z M587.433,40.535c-5.664,0.008-10.24,4.59-10.231,10.247
		c0.008,5.665,4.589,10.238,10.247,10.231c5.665-0.008,10.238-4.588,10.231-10.246C597.672,45.102,593.09,40.527,587.433,40.535z"/>
	<path display="inline" d="M255.813,1C396.706,0.802,510.819,114.747,511,255.812C511.181,396.742,397.287,510.808,256.198,511
		C115.286,511.191,1.211,397.294,1,256.199C0.79,115.322,114.74,1.199,255.813,1z M471.604,255.923
		c-0.09-118.659-97.077-215.567-215.687-215.512C137.294,40.467,40.345,137.497,40.411,256.099
		c0.066,118.638,97.081,215.571,215.687,215.506C374.74,471.539,471.695,374.506,471.604,255.923z"/>
	<path fill="#FFFFFF" d="M596.097,50.771c0.004,4.761-3.889,8.657-8.653,8.66c-4.762,0.003-8.657-3.889-8.66-8.653
		c-0.003-4.762,3.89-8.658,8.653-8.66C592.2,42.116,596.094,46.007,596.097,50.771z M593.127,56.125
		c-1.538-1.97-3.557-2.982-6.076-2.855c-2.206,0.111-3.964,1.119-5.334,2.894C585.547,53.779,589.331,53.78,593.127,56.125z
		 M585.823,49.244c0.058-0.872-0.623-1.624-1.547-1.656c-0.842-0.029-1.563,0.605-1.622,1.505c-0.058,0.875,0.63,1.62,1.542,1.672
		C585.031,50.813,585.764,50.129,585.823,49.244z M589.054,49.147c-0.028,0.86,0.665,1.582,1.554,1.62
		c0.85,0.036,1.596-0.68,1.622-1.555c0.026-0.872-0.669-1.611-1.568-1.625C589.78,47.572,589.074,48.259,589.054,49.147z"/>
	<path display="inline" d="M397.619,389.27c-94.53-58.409-188.78-58.417-284.196,0.95c34.135-44.207,77.922-69.31,132.859-72.066
		C309.022,315.006,359.31,340.21,397.619,389.27z"/>
	<path display="inline" d="M215.711,217.902c-1.476,22.025-19.725,39.079-40.534,37.878c-22.713-1.31-39.828-19.852-38.394-41.655
		c1.473-22.393,19.419-38.207,40.402-37.473C200.187,177.458,217.166,196.192,215.711,217.902z"/>
	<path display="inline" d="M296.185,215.468c0.49-22.102,18.068-39.211,40.052-38.875c22.381,0.342,39.684,18.748,39.045,40.476
		c-0.64,21.795-19.233,39.623-40.394,38.734C312.749,254.873,295.483,236.879,296.185,215.468z"/>
</g>
<g display="none">
	<path fill="#FFFFFF" d="M234.441,266.439c-6.93,0-13.861,0-20.796,0c0-6.927,0-13.856,0-20.791c6.929,0,13.862,0,20.796,0
		C234.441,252.574,234.441,259.505,234.441,266.439z M234.279,256.047c0.006-5.659-4.569-10.238-10.233-10.244
		c-5.657-0.006-10.239,4.57-10.245,10.233c-0.006,5.658,4.57,10.239,10.233,10.244C229.694,266.285,234.273,261.711,234.279,256.047
		z"/>
	<path display="inline" d="M511,256.147C510.857,397.213,396.811,511.132,255.863,511C114.817,510.867,0.855,396.783,1,255.863
		C1.145,114.817,115.247,0.843,256.148,1C397.216,1.158,511.143,115.216,511,256.147z M255.98,471.605
		c118.622,0.013,215.639-96.977,215.624-215.565c-0.015-118.642-96.95-215.604-215.569-215.629
		c-118.611-0.024-215.611,96.951-215.624,215.57C40.398,374.605,137.36,471.591,255.98,471.605z"/>
	<path fill="#FFFFFF" d="M224.04,264.697c-4.763-0.001-8.656-3.895-8.655-8.658c0.001-4.763,3.895-8.656,8.658-8.655
		c4.763,0.001,8.655,3.894,8.655,8.658C232.698,260.804,228.803,264.698,224.04,264.697z M218.568,257.71
		c0.102,1.958,0.874,3.57,2.592,4.637c1.814,1.127,4.472,0.989,6.192-0.284c1.578-1.168,2.217-3.179,2.123-4.34
		C225.848,258.877,222.224,258.877,218.568,257.71z M220.769,252.836c-0.882,0.185-1.694,0.612-2.261,1.426
		c-0.145,0.208-0.034,0.386,0.238,0.381c0.336-0.006,0.674-0.044,1.007-0.092c0.61-0.087,1.218-0.183,1.829-0.011
		c0.169,0.047,0.339,0.092,0.512,0.121c0.282,0.048,0.373-0.03,0.317-0.315c-0.041-0.207-0.116-0.419-0.225-0.599
		C221.882,253.246,221.461,252.897,220.769,252.836z M229.172,254.668c0.001-0.004,0.001-0.008,0.002-0.013
		c0.068-0.003,0.136,0,0.202-0.01c0.241-0.035,0.311-0.17,0.2-0.386c-0.024-0.048-0.056-0.093-0.089-0.135
		c-0.435-0.543-1.006-0.888-1.642-1.146c-0.667-0.27-1.216-0.087-1.685,0.414c-0.267,0.285-0.473,0.61-0.503,1.015
		c-0.016,0.214,0.062,0.292,0.271,0.266c0.133-0.017,0.266-0.049,0.395-0.087c0.494-0.144,0.993-0.181,1.504-0.101
		C228.274,254.554,228.724,254.608,229.172,254.668z"/>
	<path display="inline" d="M119.705,297.582c91.054,29.06,181.314,29.062,271.652,0.315c2.349,28.909-13.575,78.996-52.875,108.093
		c-42.828,31.709-109.03,35.136-154.21,7.073C141.483,386.484,122.24,346.34,119.705,297.582z"/>
	<path display="inline" d="M174.524,176.195c17.221,1.513,27.715,10.199,35.279,22.701c2.713,4.485,4.576,9.763,5.599,14.923
		c1.405,7.091-0.86,9.038-7.894,7.833c-4.296-0.736-8.543-1.842-12.745-3.021c-15.23-4.271-30.358-1.886-45.557,0.285
		c-8.306,1.186-16.706,2.133-25.08,2.286c-6.767,0.123-9.53-4.312-5.925-9.487C132.334,191.431,152.551,180.803,174.524,176.195z"/>
	<path display="inline" d="M383.806,221.814c-11.167-1.507-22.363-2.831-33.493-4.57c-12.713-1.986-25.137-1.06-37.447,2.527
		c-3.219,0.938-6.518,1.743-9.837,2.162c-5.215,0.658-7.158-1.297-6.759-6.619c0.758-10.091,5.883-18.17,12.528-25.279
		c11.665-12.477,25.358-17.04,41.961-10.312c15.847,6.422,30.077,15.005,40.9,28.541c0.837,1.046,1.617,2.172,2.225,3.362
		c2.748,5.379,1.014,8.741-4.986,9.621c-1.658,0.243-3.361,0.174-5.043,0.249C383.838,221.603,383.822,221.709,383.806,221.814z"/>
</g>
<g display="none">
	<path fill="#FFFFFF" d="M266.398,266.396c-6.93,0-13.861,0-20.796,0c0-6.927,0-13.856,0-20.791c6.929,0,13.862,0,20.796,0
		C266.398,252.53,266.398,259.462,266.398,266.396z M266.236,255.994c-0.003-5.662-4.583-10.239-10.242-10.235
		c-5.662,0.003-10.239,4.584-10.235,10.242c0.004,5.663,4.583,10.238,10.242,10.235
		C261.664,266.233,266.239,261.655,266.236,255.994z"/>
	<path display="inline" d="M510.998,255.919c0.076,140.972-113.871,254.993-254.911,255.079
		C115.132,511.083,1.092,397.121,0.998,256.086C0.904,115.154,114.903,1.081,255.919,0.998
		C396.866,0.914,510.922,114.9,510.998,255.919z M256.247,471.602c118.657-0.164,215.543-97.264,215.356-215.833
		c-0.187-118.661-97.257-215.516-215.837-215.36C137.127,40.565,40.242,137.666,40.409,256.247
		C40.576,374.899,137.66,471.766,256.247,471.602z"/>
	<path fill="#FFFFFF" d="M256.008,264.654c-4.761,0.007-8.659-3.883-8.666-8.647c-0.007-4.761,3.883-8.66,8.647-8.666
		c4.761-0.006,8.659,3.883,8.666,8.647C264.662,260.749,260.772,264.648,256.008,264.654z M261.66,258.578
		c-1.714,1.164-3.603,1.765-5.669,1.764c-2.063-0.001-3.95-0.606-5.663-1.763C253.233,262.567,259.078,262.292,261.66,258.578z
		 M254.386,254.392c-0.006-0.873-0.721-1.588-1.588-1.588c-0.874,0-1.6,0.735-1.59,1.609c0.01,0.871,0.74,1.59,1.601,1.578
		C253.681,255.979,254.392,255.258,254.386,254.392z M257.61,254.396c-0.002,0.869,0.711,1.588,1.581,1.595
		c0.863,0.008,1.589-0.712,1.597-1.582c0.007-0.874-0.724-1.611-1.594-1.605C258.324,252.81,257.612,253.525,257.61,254.396z"/>
	<path display="inline" d="M397.024,320.261c-64.32,92.498-209.877,99.367-282.24,0.037c42.652,28.814,89.668,43.883,141.041,43.902
		C307.282,364.219,354.344,349.264,397.024,320.261z"/>
	<path display="inline" d="M215.856,216.007c0.159,21.57-17.555,39.526-39.289,39.826c-21.444,0.296-39.61-17.616-39.865-39.309
		c-0.256-21.756,17.842-40.068,39.599-40.067C197.894,176.458,215.696,194.258,215.856,216.007z"/>
	<path display="inline" d="M296.141,216.103c0.056-21.681,17.789-39.5,39.457-39.649c21.662-0.149,39.883,18.198,39.697,39.974
		c-0.185,21.67-18.273,39.591-39.771,39.404C313.837,255.643,296.085,237.735,296.141,216.103z"/>
</g>
</svg>
