<?xml version="1.0" encoding="utf-8"?>
<!-- Generator: Adobe Illustrator 17.0.0, SVG Export Plug-In . SVG Version: 6.00 Build 0)  -->
<!DOCTYPE svg PUBLIC "-//W3C//DTD SVG 1.1//EN" "http://www.w3.org/Graphics/SVG/1.1/DTD/svg11.dtd">
<svg version="1.1" id="Layer_1" xmlns="http://www.w3.org/2000/svg" xmlns:xlink="http://www.w3.org/1999/xlink" x="0px" y="0px"
	 width="512px" height="512px" viewBox="0 0 512 512" enable-background="new 0 0 512 512" xml:space="preserve">
<g>
	<line fill="none" stroke="#B35047" x1="32" y1="0" x2="32" y2="512"/>
	<line fill="none" stroke="#B35047" x1="64" y1="0" x2="64" y2="512"/>
	<line fill="none" stroke="#B35047" x1="96" y1="0" x2="96" y2="512"/>
	<line fill="none" stroke="#B35047" x1="128" y1="0" x2="128" y2="512"/>
	<line fill="none" stroke="#B35047" x1="160" y1="0" x2="160" y2="512"/>
	<line fill="none" stroke="#B35047" x1="192" y1="0" x2="192" y2="512"/>
	<line fill="none" stroke="#B35047" x1="224" y1="0" x2="224" y2="512"/>
	<line fill="none" stroke="#B35047" x1="256" y1="0" x2="256" y2="512"/>
	<line fill="none" stroke="#B35047" x1="288" y1="0" x2="288" y2="512"/>
	<line fill="none" stroke="#B35047" x1="320" y1="0" x2="320" y2="512"/>
	<line fill="none" stroke="#B35047" x1="352" y1="0" x2="352" y2="512"/>
	<line fill="none" stroke="#B35047" x1="384" y1="0" x2="384" y2="512"/>
	<line fill="none" stroke="#B35047" x1="416" y1="0" x2="416" y2="512"/>
	<line fill="none" stroke="#B35047" x1="448" y1="0" x2="448" y2="512"/>
	<line fill="none" stroke="#B35047" x1="480" y1="0" x2="480" y2="512"/>
	<line fill="none" stroke="#B35047" x1="0" y1="32" x2="512" y2="32"/>
	<line fill="none" stroke="#B35047" x1="0" y1="64" x2="512" y2="64"/>
	<line fill="none" stroke="#B35047" x1="0" y1="96" x2="512" y2="96"/>
	<line fill="none" stroke="#B35047" x1="0" y1="128" x2="512" y2="128"/>
	<line fill="none" stroke="#B35047" x1="0" y1="160" x2="512" y2="160"/>
	<line fill="none" stroke="#B35047" x1="0" y1="192" x2="512" y2="192"/>
	<line fill="none" stroke="#B35047" x1="0" y1="224" x2="512" y2="224"/>
	<line fill="none" stroke="#B35047" x1="0" y1="256" x2="512" y2="256"/>
	<line fill="none" stroke="#B35047" x1="0" y1="288" x2="512" y2="288"/>
	<line fill="none" stroke="#B35047" x1="0" y1="320" x2="512" y2="320"/>
	<line fill="none" stroke="#B35047" x1="0" y1="352" x2="512" y2="352"/>
	<line fill="none" stroke="#B35047" x1="0" y1="384" x2="512" y2="384"/>
	<line fill="none" stroke="#B35047" x1="0" y1="416" x2="512" y2="416"/>
	<line fill="none" stroke="#B35047" x1="0" y1="448" x2="512" y2="448"/>
	<line fill="none" stroke="#B35047" x1="0" y1="480" x2="512" y2="480"/>
	<rect x="0" fill="none" stroke="#B35047" width="512" height="512"/>
</g>
<image display="none" overflow="visible" width="512" height="512" xlink:href="../../../Knowledge/Icon/[+++++] (Full) Windows 8 Icons [icons8]/Emoticons/guestion/guestion-512.png"  transform="matrix(0.0406 0 0 0.0406 577 40.3333)">
</image>
<image display="none" overflow="visible" width="512" height="512" xlink:href="../../../Knowledge/Icon/[+++++] (Full) Windows 8 Icons [icons8]/Emoticons/wink/wink-512.png"  transform="matrix(0.0406 0 0 0.0406 577 40.3333)">
</image>
<image display="none" overflow="visible" width="512" height="512" xlink:href="../../../Knowledge/Icon/[+++++] (Full) Windows 8 Icons [icons8]/Emoticons/sad/sad-512.png"  transform="matrix(0.0406 0 0 0.0406 577 40.3333)">
</image>
<image display="none" overflow="visible" width="512" height="512" xlink:href="../../../Knowledge/Icon/[+++++] (Full) Windows 8 Icons [icons8]/Emoticons/lol/lol-512.png"  transform="matrix(0.0406 0 0 0.0406 577 40.3333)">
</image>
<g>
	<path display="none" fill="#FFFFFF" d="M266.398,266.396c-6.93,0-13.861,0-20.796,0c0-6.927,0-13.856,0-20.791
		c6.929,0,13.862,0,20.796,0C266.398,252.53,266.398,259.462,266.398,266.396z M266.236,255.994
		c-0.003-5.662-4.583-10.239-10.242-10.235c-5.662,0.003-10.239,4.584-10.235,10.242c0.004,5.663,4.583,10.238,10.242,10.235
		C261.664,266.233,266.239,261.655,266.236,255.994z"/>
	<path d="M510.998,255.919c0.076,140.972-113.871,254.993-254.911,255.079C115.132,511.083,1.092,397.121,0.998,256.086
		C0.904,115.154,114.903,1.081,255.919,0.998C396.866,0.914,510.922,114.9,510.998,255.919z M256.247,471.602
		c118.657-0.164,215.543-97.264,215.356-215.833c-0.187-118.661-97.257-215.516-215.837-215.36
		C137.127,40.565,40.242,137.666,40.409,256.247C40.576,374.899,137.66,471.766,256.247,471.602z"/>
	<path display="none" fill="#FFFFFF" d="M256.008,264.654c-4.761,0.007-8.659-3.883-8.666-8.647
		c-0.007-4.761,3.883-8.66,8.647-8.666c4.761-0.006,8.659,3.883,8.666,8.647C264.662,260.749,260.772,264.648,256.008,264.654z
		 M261.66,258.578c-1.714,1.164-3.603,1.765-5.669,1.764c-2.063-0.001-3.95-0.606-5.663-1.763
		C253.233,262.567,259.078,262.292,261.66,258.578z M254.386,254.392c-0.006-0.873-0.721-1.588-1.588-1.588
		c-0.874,0-1.6,0.735-1.59,1.609c0.01,0.871,0.74,1.59,1.601,1.578C253.681,255.979,254.392,255.258,254.386,254.392z
		 M257.61,254.396c-0.002,0.869,0.711,1.588,1.581,1.595c0.863,0.008,1.589-0.712,1.597-1.582c0.007-0.874-0.724-1.611-1.594-1.605
		C258.324,252.81,257.612,253.525,257.61,254.396z"/>
	<path d="M397.024,320.261c-64.32,92.498-209.877,99.367-282.24,0.037c42.652,28.814,89.668,43.883,141.041,43.902
		C307.282,364.219,354.344,349.264,397.024,320.261z"/>
	<path d="M215.856,216.007c0.159,21.57-17.555,39.526-39.289,39.826c-21.444,0.296-39.61-17.616-39.865-39.309
		c-0.256-21.756,17.842-40.068,39.599-40.067C197.894,176.458,215.696,194.258,215.856,216.007z"/>
	<path d="M296.141,216.103c0.056-21.681,17.789-39.5,39.457-39.649c21.662-0.149,39.883,18.198,39.697,39.974
		c-0.185,21.67-18.273,39.591-39.771,39.404C313.837,255.643,296.085,237.735,296.141,216.103z"/>
</g>
</svg>
