<?xml version="1.0" encoding="utf-8"?>
<!-- Generator: Adobe Illustrator 17.0.0, SVG Export Plug-In . SVG Version: 6.00 Build 0)  -->
<!DOCTYPE svg PUBLIC "-//W3C//DTD SVG 1.1//EN" "http://www.w3.org/Graphics/SVG/1.1/DTD/svg11.dtd">
<svg version="1.1" id="Layer_1" xmlns="http://www.w3.org/2000/svg" xmlns:xlink="http://www.w3.org/1999/xlink" x="0px" y="0px"
	 width="512px" height="512px" viewBox="0 0 512 512" enable-background="new 0 0 512 512" xml:space="preserve">
<g>
	<line fill="none" stroke="#B35047" x1="32" y1="0" x2="32" y2="512"/>
	<line fill="none" stroke="#B35047" x1="64" y1="0" x2="64" y2="512"/>
	<line fill="none" stroke="#B35047" x1="96" y1="0" x2="96" y2="512"/>
	<line fill="none" stroke="#B35047" x1="128" y1="0" x2="128" y2="512"/>
	<line fill="none" stroke="#B35047" x1="160" y1="0" x2="160" y2="512"/>
	<line fill="none" stroke="#B35047" x1="192" y1="0" x2="192" y2="512"/>
	<line fill="none" stroke="#B35047" x1="224" y1="0" x2="224" y2="512"/>
	<line fill="none" stroke="#B35047" x1="256" y1="0" x2="256" y2="512"/>
	<line fill="none" stroke="#B35047" x1="288" y1="0" x2="288" y2="512"/>
	<line fill="none" stroke="#B35047" x1="320" y1="0" x2="320" y2="512"/>
	<line fill="none" stroke="#B35047" x1="352" y1="0" x2="352" y2="512"/>
	<line fill="none" stroke="#B35047" x1="384" y1="0" x2="384" y2="512"/>
	<line fill="none" stroke="#B35047" x1="416" y1="0" x2="416" y2="512"/>
	<line fill="none" stroke="#B35047" x1="448" y1="0" x2="448" y2="512"/>
	<line fill="none" stroke="#B35047" x1="480" y1="0" x2="480" y2="512"/>
	<line fill="none" stroke="#B35047" x1="0" y1="32" x2="512" y2="32"/>
	<line fill="none" stroke="#B35047" x1="0" y1="64" x2="512" y2="64"/>
	<line fill="none" stroke="#B35047" x1="0" y1="96" x2="512" y2="96"/>
	<line fill="none" stroke="#B35047" x1="0" y1="128" x2="512" y2="128"/>
	<line fill="none" stroke="#B35047" x1="0" y1="160" x2="512" y2="160"/>
	<line fill="none" stroke="#B35047" x1="0" y1="192" x2="512" y2="192"/>
	<line fill="none" stroke="#B35047" x1="0" y1="224" x2="512" y2="224"/>
	<line fill="none" stroke="#B35047" x1="0" y1="256" x2="512" y2="256"/>
	<line fill="none" stroke="#B35047" x1="0" y1="288" x2="512" y2="288"/>
	<line fill="none" stroke="#B35047" x1="0" y1="320" x2="512" y2="320"/>
	<line fill="none" stroke="#B35047" x1="0" y1="352" x2="512" y2="352"/>
	<line fill="none" stroke="#B35047" x1="0" y1="384" x2="512" y2="384"/>
	<line fill="none" stroke="#B35047" x1="0" y1="416" x2="512" y2="416"/>
	<line fill="none" stroke="#B35047" x1="0" y1="448" x2="512" y2="448"/>
	<line fill="none" stroke="#B35047" x1="0" y1="480" x2="512" y2="480"/>
	<rect x="0" fill="none" stroke="#B35047" width="512" height="512"/>
</g>
<g display="none">
	<path fill="#FFFFFF" d="M624.834,50.841c-6.929,0-13.86,0-20.793,0c0-6.931,0-13.862,0-20.796c6.928,0,13.858,0,20.793,0
		C624.834,36.974,624.834,43.907,624.834,50.841z M616.545,50.519c0.151-0.028,0.256-0.044,0.359-0.067
		c2.436-0.559,4.25-2.628,4.629-5.097c0.286-1.859-0.02-3.669-0.684-5.417c-0.589-1.552-1.484-2.928-2.509-4.223
		c-1.572-1.987-3.377-3.752-5.223-5.477c-0.031-0.029-0.072-0.047-0.082-0.054c-0.243,0.789-0.457,1.579-0.728,2.349
		c-0.523,1.485-1.262,2.869-2.056,4.225c-0.786,1.342-1.625,2.654-2.239,4.09c-0.465,1.086-0.758,2.21-0.761,3.4
		c-0.003,1.249,0.295,2.41,1.002,3.452c0.622,0.917,1.454,1.598,2.425,2.113c0.412,0.219,0.847,0.397,1.26,0.588
		c-0.366-0.436-0.753-0.844-1.079-1.297c-0.511-0.709-0.799-1.499-0.722-2.395c0.059-0.693,0.21-1.361,0.496-1.998
		c0.36-0.801,0.728-1.599,1.072-2.407c0.141-0.333,0.227-0.689,0.345-1.055c0.47,0.402,0.827,0.87,1.096,1.406
		c0.27,0.538,0.44,1.109,0.521,1.712c1.288-2.19,1.895-4.531,1.574-7.114c0.058,0.042,0.08,0.054,0.099,0.071
		c1.285,1.146,2.385,2.438,3.113,4.015c0.801,1.735,1.025,3.535,0.538,5.399c-0.339,1.298-0.978,2.428-1.951,3.36
		C616.895,50.235,616.734,50.358,616.545,50.519z"/>
	<path display="inline" d="M308.651,511c4.751-4.036,8.773-7.113,12.407-10.595c24.402-23.373,40.423-51.714,48.921-84.268
		c12.201-46.74,6.577-91.875-13.505-135.39c-18.244-39.532-45.828-71.938-78.062-100.682c-0.462-0.412-1.01-0.728-2.476-1.77
		c8.037,64.78-7.177,123.478-39.484,178.41c-2.041-15.124-6.299-29.429-13.065-42.934c-6.735-13.444-15.681-25.198-27.478-35.273
		c-2.959,9.193-5.115,18.127-8.661,26.47c-8.616,20.272-17.861,40.276-26.884,60.374c-7.162,15.955-10.942,32.715-12.431,50.097
		c-1.925,22.464,5.304,42.29,18.112,60.06c8.181,11.35,17.888,21.6,27.064,32.526c-10.371-4.804-21.259-9.265-31.601-14.754
		c-24.331-12.913-45.202-29.991-60.808-52.99c-17.732-26.132-25.196-55.24-25.131-86.574c0.062-29.855,7.429-58.043,19.079-85.279
		c15.4-36.005,36.454-68.929,56.161-102.575c19.918-34.007,38.457-68.701,51.574-105.95C209.182,40.598,214.556,20.792,220.639,1
		c0.258,0.166,1.279,0.626,2.053,1.35c46.301,43.275,91.566,87.548,130.993,137.369c25.702,32.478,48.153,66.99,62.921,105.906
		c16.634,43.834,24.306,89.238,17.142,135.853c-9.518,61.934-54.991,113.815-116.093,127.832
		C315.066,509.904,312.431,510.296,308.651,511z"/>
</g>
<g display="none">
	<path fill="#FFFFFF" d="M617.609,50.841c-4.523,0-9.046,0-13.569,0c0-1.3,0-2.6,0-3.9c0.013,0.038,0.032,0.075,0.037,0.114
		c0.113,0.803,0.546,1.379,1.247,1.767c0.599,0.332,1.253,0.411,1.921,0.413c1.516,0.003,3.032,0.001,4.548,0
		c0.078,0,0.156-0.008,0.231-0.012c0-0.535,0-1.047,0-1.58c-0.091,0-0.171,0-0.25,0c-1.617-0.002-3.235,0.006-4.852-0.017
		c-0.287-0.004-0.587-0.099-0.854-0.215c-0.335-0.144-0.498-0.466-0.415-0.82c0.076-0.324,0.188-0.652,0.352-0.939
		c0.682-1.191,1.39-2.367,2.09-3.548c0.026-0.044,0.061-0.083,0.095-0.131c0.457,0.273,0.901,0.539,1.366,0.817
		c0-1.596,0-3.159,0-4.752c-1.328,0.797-2.632,1.579-3.96,2.376c0.427,0.257,0.819,0.493,1.216,0.732
		c-0.047,0.083-0.083,0.148-0.12,0.211c-0.674,1.141-1.36,2.276-2.016,3.426c-0.216,0.378-0.363,0.796-0.53,1.2
		c-0.055,0.134-0.071,0.284-0.105,0.427c0-5.457,0-10.915,0-16.372c6.933,0,13.867,0,20.8,0c0,5.457,0,10.915,0,16.372
		c-0.013-0.03-0.035-0.059-0.039-0.09c-0.055-0.435-0.193-0.846-0.414-1.221c-0.664-1.123-1.339-2.24-2.01-3.358
		c-0.009-0.015-0.03-0.023-0.052-0.039c-0.443,0.268-0.885,0.535-1.334,0.806c0.63,1.045,1.249,2.061,1.854,3.085
		c0.143,0.242,0.267,0.504,0.347,0.772c0.17,0.57-0.049,0.97-0.614,1.152c-0.197,0.063-0.409,0.109-0.615,0.111
		c-1.394,0.012-2.788,0.009-4.182,0.011c-0.039,0-0.078-0.006-0.139-0.012c0-0.525,0-1.041,0-1.591
		c-1.348,0.809-2.662,1.598-4.001,2.402c0.76,0.456,1.484,0.889,2.206,1.326C616.436,50.123,617.022,50.483,617.609,50.841z
		 M619.476,36.756c-0.051-0.082-0.09-0.144-0.128-0.208c-0.771-1.304-1.532-2.615-2.319-3.91c-0.223-0.367-0.485-0.724-0.792-1.021
		c-0.661-0.642-1.456-0.918-2.381-0.689c-0.779,0.193-1.36,0.678-1.768,1.339c-0.827,1.341-1.616,2.706-2.42,4.062
		c-0.009,0.015-0.006,0.038-0.01,0.065c0.446,0.263,0.892,0.525,1.341,0.79c0.052-0.085,0.091-0.148,0.129-0.212
		c0.695-1.177,1.379-2.36,2.09-3.526c0.183-0.3,0.421-0.583,0.688-0.812c0.34-0.291,0.74-0.288,1.077,0.005
		c0.261,0.226,0.495,0.503,0.674,0.798c0.793,1.307,1.562,2.628,2.34,3.944c0.036,0.062,0.071,0.124,0.11,0.194
		c-0.429,0.259-0.838,0.506-1.269,0.765c1.332,0.799,2.64,1.583,3.963,2.376c0-1.598,0-3.162,0-4.754
		C620.352,36.233,619.924,36.488,619.476,36.756z"/>
	<path display="inline" d="M1,392.515c0.831-3.504,1.223-7.189,2.575-10.478c4.078-9.921,7.702-20.16,12.991-29.426
		c16.106-28.217,32.912-56.035,49.441-84.012c0.922-1.561,1.797-3.151,2.95-5.181c-9.735-5.865-19.335-11.649-29.806-17.957
		c32.576-19.546,64.547-38.729,97.102-58.263c0,39.068,0,77.395,0,116.528c-11.408-6.822-22.303-13.338-33.501-20.036
		c-0.853,1.16-1.697,2.122-2.338,3.204c-17.148,28.959-34.509,57.796-51.236,86.997c-4.033,7.041-6.769,15.1-8.631,23.035
		c-2.034,8.673,1.984,16.567,10.186,20.102c6.551,2.823,13.905,5.163,20.936,5.26c39.652,0.546,79.315,0.349,118.974,0.405
		c1.949,0.003,3.899,0,6.132,0c0,13.07,0,25.616,0,38.74c-1.847,0.103-3.76,0.302-5.674,0.303
		c-37.171,0.018-74.342,0.068-111.513-0.012c-16.392-0.035-32.424-1.969-47.109-10.12c-17.172-9.531-27.802-23.642-30.565-43.333
		c-0.135-0.96-0.603-1.872-0.916-2.807C1,401.148,1,396.832,1,392.515z"/>
	<path display="inline" d="M333.695,501.09c-14.396-8.779-28.766-17.604-43.196-26.326c-17.707-10.703-35.465-21.32-54.091-32.508
		c32.817-19.7,65.046-39.046,98.096-58.886c0,13.508,0,26.146,0,39.02c1.508,0.131,2.461,0.288,3.414,0.287
		c34.177-0.042,68.355,0.012,102.53-0.274c5.041-0.042,10.241-1.169,15.068-2.724c13.851-4.461,19.224-14.267,15.055-28.242
		c-1.964-6.583-5.005-13.006-8.508-18.941c-14.828-25.117-30.013-50.023-45.45-75.642c11.007-6.649,21.852-13.2,32.715-19.763
		c0.533,0.385,1.052,0.577,1.274,0.948c16.466,27.426,33.017,54.803,49.293,82.342c5.433,9.193,8.816,19.253,10.16,29.927
		c0.096,0.764,0.62,1.474,0.945,2.209c0,4.316,0,8.633,0,12.949c-0.314,0.934-0.784,1.847-0.918,2.806
		c-2.749,19.697-13.386,33.799-30.556,43.332c-14.841,8.241-31.046,10.087-47.601,10.126c-30.365,0.071-60.729,0.021-91.094,0.021
		c-1.931,0-3.861,0-6.139,0c0,13.544,0,26.441,0,39.339C334.359,501.09,334.027,501.09,333.695,501.09z"/>
	<path fill="#FFFFFF" d="M617.65,50.841c0-0.526,0-1.052,0-1.604c0.093,0,0.172,0,0.25,0c1.238,0,2.477,0.002,3.715-0.001
		c0.675-0.002,1.336-0.077,1.941-0.413c0.7-0.389,1.134-0.964,1.246-1.767c0.005-0.039,0.025-0.076,0.037-0.114c0,1.3,0,2.6,0,3.9
		C622.444,50.841,620.047,50.841,617.65,50.841z"/>
	<path display="inline" d="M379.463,155.747c10.993-6.568,21.481-12.834,32.517-19.428c0,39.033,0,77.398,0,116.57
		c-32.431-19.446-64.495-38.672-97.159-58.258c10.546-6.361,20.584-12.415,31.103-18.76c-0.964-1.701-1.804-3.24-2.695-4.749
		c-19.068-32.272-37.927-64.67-57.379-96.709c-4.391-7.232-10.146-14.02-16.535-19.557c-8.283-7.179-18.084-7.267-26.415-0.124
		c-6.535,5.603-12.376,12.548-16.866,19.909c-17.443,28.6-34.221,57.606-51.252,86.457c-0.924,1.565-1.892,3.105-3.165,5.188
		c-11.024-6.497-21.947-12.936-32.885-19.382c0.099-0.68,0.031-1.228,0.254-1.604c19.706-33.241,39.043-66.711,59.328-99.595
		c10.003-16.217,24.243-28.106,43.353-32.843c22.675-5.62,42.175,1.161,58.386,16.89c7.517,7.293,13.959,16.053,19.421,25.039
		c19.294,31.746,37.952,63.878,56.857,95.86C377.252,152.206,378.223,153.73,379.463,155.747z"/>
</g>
<g display="none">
	<path display="inline" d="M495.063,511c-15.605,0-31.211,0-46.816,0c-12.556-4.548-16.445-14.002-15.741-26.602
		c0.508-9.097,0.11-18.246,0.088-27.372c-0.004-1.574-0.147-3.148-0.222-4.658c-46.027,0-91.421,0-137.421,0
		c0,2.061,0.001,3.843,0,5.626c-0.01,11.117-0.027,22.234-0.031,33.351c-0.002,6.006-2.174,11.139-6.918,14.758
		c-2.703,2.062-6.039,3.293-9.09,4.899c-15.273,0-30.547,0-45.82,0c-12.267-3.96-17.182-12.547-16.092-25.136
		c0.342-3.953,0.053-7.96,0.053-11.942c0-7.089,0-14.178,0-21.551c-46.125,0-91.642,0-137.655,0c0,10.875-0.423,21.475,0.109,32.027
		c0.635,12.602-3.196,22.054-15.751,26.602c-15.605,0-31.211,0-46.816,0C9.021,508.291,3.709,502.979,1,495.063
		c0-159.375,0-318.75,0-478.125C3.709,9.021,9.021,3.709,16.938,1c15.605,0,31.211,0,46.816,0
		c12.555,4.548,16.445,14.002,15.741,26.602c-0.508,9.097-0.11,18.246-0.088,27.372c0.004,1.574,0.147,3.148,0.222,4.658
		c46.027,0,91.421,0,137.421,0c0-2.071-0.001-3.848,0-5.626c0.01-11.117,0.027-22.234,0.031-33.351
		c0.002-6.006,2.174-11.139,6.918-14.758c2.703-2.062,6.039-3.293,9.09-4.899c15.273,0,30.547,0,45.82,0
		c12.267,3.96,17.182,12.547,16.092,25.136c-0.342,3.953-0.053,7.96-0.053,11.942c0,7.089,0,14.178,0,21.551
		c46.125,0,91.642,0,137.655,0c0-10.875,0.423-21.475-0.109-32.027C431.86,15.001,435.691,5.548,448.246,1
		c15.605,0,31.211,0,46.816,0c7.916,2.709,13.229,8.021,15.938,15.938c0,159.375,0,318.75,0,478.125
		C508.291,502.979,502.979,508.291,495.063,511z M79.657,177.272c46.008,0,91.402,0,137.394,0c0-2.106,0-3.886,0-5.665
		c0-22.235-0.13-44.472,0.105-66.705c0.05-4.696-1.097-6.212-6.011-6.189c-41.981,0.192-83.963,0.107-125.944,0.12
		c-1.778,0.001-3.556,0.148-5.544,0.237C79.657,125.352,79.657,151.161,79.657,177.272z M295.263,177.268
		c45.79,0,91.301,0,137.076,0c0-26.099,0-51.909,0-78.097c-1.636-0.125-3.085-0.332-4.533-0.332
		c-42.645-0.017-85.291,0.037-127.936-0.097c-4.04-0.013-5.02,1.334-4.995,5.154c0.15,22.898,0.069,45.798,0.087,68.697
		C294.964,174.045,295.145,175.499,295.263,177.268z M79.683,412.822c1.562,0.124,3.006,0.339,4.449,0.339
		c42.645,0.018,85.291-0.031,127.935,0.092c3.932,0.011,5.092-1.159,5.064-5.085c-0.166-23.064-0.075-46.129-0.099-69.194
		c-0.001-1.416-0.242-2.831-0.375-4.287c-45.898,0-91.293,0-136.974,0C79.683,360.632,79.683,386.289,79.683,412.822z
		 M432.349,334.721c-46.001,0-91.395,0-137.137,0c-0.097,1.915-0.25,3.536-0.251,5.157c-0.016,22.567,0.139,45.136-0.13,67.7
		c-0.058,4.858,1.692,5.693,6.006,5.68c41.981-0.132,83.963-0.077,125.944-0.089c1.779-0.001,3.557-0.147,5.568-0.235
		C432.349,386.66,432.349,360.851,432.349,334.721z M79.676,294.97c1.105,0.17,1.595,0.311,2.085,0.311
		c43.783,0.024,87.566-0.003,131.349,0.12c4.111,0.012,3.966-2.261,3.961-5.089c-0.037-22.555-0.156-45.112,0.089-67.664
		c0.052-4.784-1.288-6.112-6.077-6.092c-41.958,0.181-83.918,0.101-125.877,0.115c-1.767,0.001-3.534,0.162-5.53,0.26
		C79.676,243.124,79.676,268.904,79.676,294.97z M432.159,295.339c0-26.578,0-52.478,0-78.334c-0.931-0.144-1.421-0.286-1.911-0.286
		c-43.783-0.025-87.566,0.003-131.349-0.121c-4.103-0.012-3.975,2.243-3.971,5.081c0.039,22.555,0.156,45.111-0.088,67.664
		c-0.052,4.773,1.269,6.121,6.068,6.101c41.958-0.181,83.918-0.105,125.876-0.105C428.434,295.339,430.083,295.339,432.159,295.339z
		"/>
	<path fill="#FFFFFF" d="M613.506,30.041c-0.124,0.065-0.26,0.116-0.371,0.2c-0.193,0.148-0.282,0.357-0.282,0.602
		c0,0.453-0.001,0.907-0.001,1.36c0,0.072,0,0.145,0,0.229c-1.876,0-3.727,0-5.605,0c-0.003-0.062-0.009-0.126-0.009-0.19
		c-0.001-0.372-0.017-0.745,0.004-1.116c0.029-0.514-0.13-0.899-0.642-1.085C608.902,30.041,611.204,30.041,613.506,30.041z"/>
	<path fill="#FFFFFF" d="M622.281,30.041c-0.512,0.185-0.668,0.571-0.642,1.085c0.022,0.43,0.004,0.863,0.004,1.306
		c-1.877,0-3.733,0-5.614,0c0-0.301,0-0.59,0-0.879c0-0.162-0.012-0.326,0.002-0.487c0.044-0.513-0.156-0.864-0.656-1.025
		C617.677,30.041,619.979,30.041,622.281,30.041z"/>
	<path fill="#FFFFFF" d="M606.6,50.841c0.512-0.185,0.668-0.571,0.642-1.085c-0.022-0.43-0.004-0.863-0.004-1.306
		c1.877,0,3.733,0,5.614,0c0,0.301,0,0.59,0,0.879c0,0.162,0.012,0.326-0.002,0.487c-0.044,0.513,0.156,0.864,0.656,1.025
		C611.204,50.841,608.902,50.841,606.6,50.841z"/>
	<path fill="#FFFFFF" d="M615.375,50.841c0.124-0.065,0.26-0.116,0.371-0.2c0.193-0.148,0.282-0.357,0.282-0.602
		c0-0.453,0.001-0.907,0.001-1.36c0-0.073,0-0.145,0-0.229c1.876,0,3.727,0,5.605,0c0.003,0.062,0.009,0.126,0.009,0.19
		c0.001,0.372,0.017,0.745-0.004,1.116c-0.029,0.514,0.13,0.899,0.642,1.085C619.979,50.841,617.677,50.841,615.375,50.841z"/>
	<path fill="#FFFFFF" d="M604.691,30.041c-0.323,0.11-0.539,0.327-0.65,0.65c0-0.217,0-0.433,0-0.65
		C604.257,30.041,604.474,30.041,604.691,30.041z"/>
	<path fill="#FFFFFF" d="M624.841,30.691c-0.11-0.323-0.327-0.54-0.65-0.65c0.217,0,0.433,0,0.65,0
		C624.841,30.257,624.841,30.474,624.841,30.691z"/>
	<path fill="#FFFFFF" d="M604.041,50.191c0.11,0.323,0.327,0.54,0.65,0.65c-0.217,0-0.433,0-0.65,0
		C604.041,50.624,604.041,50.407,604.041,50.191z"/>
	<path fill="#FFFFFF" d="M624.191,50.841c0.323-0.11,0.539-0.327,0.65-0.65c0,0.217,0,0.433,0,0.65
		C624.624,50.841,624.407,50.841,624.191,50.841z"/>
	<path fill="#FFFFFF" d="M607.249,37.23c0-1.065,0-2.118,0-3.189c0.081-0.004,0.154-0.01,0.226-0.01
		c1.712-0.001,3.424,0.003,5.137-0.005c0.2-0.001,0.247,0.061,0.245,0.252c-0.01,0.907-0.004,1.814-0.004,2.721
		c0,0.073,0,0.145,0,0.231C610.976,37.23,609.125,37.23,607.249,37.23z"/>
	<path fill="#FFFFFF" d="M616.042,37.23c-0.005-0.072-0.012-0.131-0.012-0.191c-0.001-0.934,0.003-1.868-0.004-2.802
		c-0.001-0.156,0.039-0.211,0.204-0.21c1.739,0.005,3.478,0.003,5.218,0.004c0.059,0,0.118,0.008,0.185,0.014
		c0,1.068,0,2.121,0,3.185C619.766,37.23,617.909,37.23,616.042,37.23z"/>
	<path fill="#FFFFFF" d="M607.25,46.836c0-1.082,0-2.129,0-3.187c1.863,0,3.714,0,5.586,0c0.005,0.059,0.015,0.117,0.015,0.175
		c0.001,0.941-0.003,1.881,0.004,2.822c0.001,0.16-0.046,0.208-0.206,0.207c-1.739-0.005-3.479-0.003-5.218-0.004
		C607.372,46.85,607.313,46.842,607.25,46.836z"/>
	<path fill="#FFFFFF" d="M621.633,43.651c0,1.066,0,2.118,0,3.19c-0.082,0.004-0.155,0.01-0.227,0.01
		c-1.712,0.001-3.424-0.002-5.137,0.004c-0.176,0.001-0.247-0.034-0.245-0.232c0.011-0.92,0.005-1.841,0.005-2.761
		c0-0.066,0.006-0.132,0.01-0.21C617.905,43.651,619.757,43.651,621.633,43.651z"/>
	<path fill="#FFFFFF" d="M607.249,42.03c0-1.063,0-2.115,0-3.183c0.081-0.004,0.154-0.011,0.226-0.011
		c1.711-0.001,3.423,0.003,5.134-0.005c0.195-0.001,0.25,0.053,0.248,0.248c-0.01,0.92-0.005,1.84-0.004,2.76
		c0,0.115,0.006,0.208-0.162,0.208c-1.786-0.005-3.571-0.004-5.357-0.005C607.314,42.043,607.294,42.037,607.249,42.03z"/>
	<path fill="#FFFFFF" d="M621.625,42.045c-0.085,0-0.152,0-0.219,0c-1.711,0-3.423-0.003-5.134,0.004
		c-0.196,0.001-0.25-0.054-0.247-0.249c0.01-0.92,0.005-1.84,0.004-2.76c0-0.116-0.005-0.208,0.162-0.207
		c1.786,0.005,3.571,0.004,5.357,0.005c0.02,0,0.04,0.006,0.078,0.012C621.625,39.905,621.625,40.961,621.625,42.045z"/>
</g>
<g display="none">
	<path fill="#FFFFFF" d="M611.8,30.041c4.347,0,8.694,0,13.041,0c0,6.933,0,13.867,0,20.8c-2.221,0-4.442,0-6.662,0
		c0.108-0.036,0.22-0.062,0.322-0.109c0.502-0.231,0.732-0.634,0.732-1.18c0-4.197-0.004-8.393,0.005-12.59
		c0.001-0.485,0.041-0.975,0.125-1.452c0.177-0.999,0.659-1.399,1.67-1.464c0.168-0.011,0.338-0.028,0.502-0.063
		c0.519-0.111,0.881-0.588,0.891-1.16c0.009-0.499-0.371-1.033-0.868-1.107c-0.381-0.057-0.782-0.043-1.166,0.003
		c-0.811,0.096-1.538,0.409-2.142,0.975c-0.84,0.787-1.185,1.803-1.326,2.909c-0.043,0.339-0.062,0.68-0.094,1.033
		c-2.405-0.401-4.79-0.798-7.19-1.198c-0.011-0.747,0.014-1.473,0.323-2.157c0.182-0.404,0.494-0.66,0.922-0.754
		c0.243-0.053,0.494-0.074,0.743-0.089c0.513-0.031,0.952-0.322,1.108-0.752c0.185-0.508,0.08-0.995-0.335-1.339
		C612.234,30.206,612.003,30.14,611.8,30.041z"/>
	<path display="inline" d="M181.488,1c4.979,2.442,10.648,4.05,14.799,7.49c10.176,8.433,12.732,20.385,8.202,32.83
		c-3.84,10.55-14.593,17.675-27.177,18.433c-6.098,0.367-12.263,0.88-18.211,2.182c-10.51,2.3-18.146,8.592-22.615,18.488
		c-7.581,16.787-8.191,34.577-7.913,52.895c58.838,9.807,117.316,19.553,176.284,29.381c0.767-8.655,1.236-17.031,2.294-25.332
		c3.454-27.105,11.904-52.018,32.503-71.322c14.796-13.867,32.615-21.544,52.51-23.902c9.428-1.118,19.258-1.459,28.597-0.071
		c12.185,1.81,21.504,14.904,21.28,27.139c-0.257,14.039-9.117,25.727-21.854,28.453c-4.034,0.864-8.195,1.276-12.32,1.541
		c-24.798,1.593-36.615,11.41-40.948,35.897c-2.068,11.689-3.039,23.721-3.066,35.601c-0.231,102.898-0.139,205.796-0.126,308.694
		c0.002,13.388-5.647,23.253-17.953,28.928c-2.51,1.157-5.259,1.796-7.897,2.674c-1.992,0-3.984,0-5.977,0
		c-4.16-1.53-8.652-2.494-12.417-4.7c-10.264-6.014-14.267-15.703-14.295-27.219c-0.06-25.067-0.019-50.133-0.02-75.2
		c0-1.776,0-3.553,0-5.552c-59.123-9.852-117.7-19.613-176.708-29.445c0,2.797,0,4.608,0,6.42
		c-0.002,15.438,0.145,30.879-0.043,46.315c-0.234,19.252-15.259,32.205-34.165,29.724c-14.113-1.852-24.278-14.47-24.282-30.597
		c-0.022-99.935-0.029-199.869,0.104-299.804c0.022-16.478,2.123-32.786,6.972-48.59c10.862-35.399,33.289-59.027,70.004-67.694
		c6.743-1.592,13.658-2.457,20.493-3.657C172.191,1,176.839,1,181.488,1z M128.459,172.733c0,18.524,0.117,36.082-0.09,53.636
		c-0.047,3.966,1.158,5.288,5.108,5.932c41.035,6.689,82.031,13.622,123.041,20.462c15.99,2.667,31.99,5.272,48.344,7.965
		c0-19.723,0-39.04,0-58.607C246.175,192.343,187.701,182.602,128.459,172.733z M128.756,270.901c0,19.874,0,39.054,0,58.59
		c58.789,9.793,117.347,19.548,176.401,29.386c0-19.164,0.066-37.562-0.165-55.957c-0.014-1.102-2.279-2.907-3.708-3.152
		c-37.244-6.381-74.514-12.616-111.785-18.838C169.405,277.576,149.3,274.291,128.756,270.901z"/>
	<path fill="#FFFFFF" d="M611.231,30.041c-0.279,0.049-0.561,0.084-0.836,0.149c-1.497,0.353-2.412,1.317-2.855,2.761
		c-0.198,0.645-0.283,1.31-0.284,1.982c-0.005,4.076-0.005,8.152-0.004,12.227c0,0.658,0.415,1.172,0.99,1.248
		c0.771,0.101,1.384-0.427,1.393-1.212c0.008-0.63,0.002-1.259,0.002-1.889c0-0.074,0-0.148,0-0.262
		c2.407,0.401,4.796,0.799,7.207,1.201c0,0.082,0,0.154,0,0.226c0,1.022-0.002,2.045,0.001,3.067c0.001,0.47,0.164,0.865,0.583,1.11
		c0.154,0.09,0.337,0.129,0.506,0.192c-4.631,0-9.262,0-13.894,0c0-6.933,0-13.867,0-20.8
		C606.438,30.041,608.834,30.041,611.231,30.041z"/>
	<path fill="#FFFFFF" d="M609.637,37.045c2.416,0.403,4.801,0.8,7.194,1.199c0,0.798,0,1.586,0,2.39
		c-0.667-0.11-1.32-0.216-1.972-0.325c-1.673-0.279-3.345-0.562-5.018-0.835c-0.161-0.026-0.21-0.08-0.208-0.242
		C609.642,38.516,609.637,37.8,609.637,37.045z"/>
	<path fill="#FFFFFF" d="M609.649,41.048c0.838,0.138,1.658,0.272,2.477,0.409c1.52,0.254,3.04,0.508,4.559,0.768
		c0.058,0.01,0.151,0.084,0.151,0.129c0.009,0.75,0.007,1.501,0.007,2.282c-2.408-0.401-4.797-0.799-7.194-1.198
		C609.649,42.641,609.649,41.859,609.649,41.048z"/>
</g>
<g>
	<path d="M224.125,1c20.918,0,41.836,0,62.754,0c0.235,0.615,0.578,1.212,0.69,1.849c3.386,19.258,6.841,38.505,10.023,57.796
		c0.521,3.159,1.768,4.521,4.773,5.245c19.472,4.69,37.823,12.176,54.839,22.768c2.864,1.783,4.787,1.513,7.441-0.434
		c14.713-10.791,29.652-21.274,44.334-32.106c3.266-2.41,5.359-2.897,8.172,0.521c2.939,3.571,6.485,6.644,9.775,9.925
		c10.444,10.413,20.894,20.821,31.423,31.313c-11.788,16.786-23.285,33.227-34.885,49.594c-1.585,2.236-2.176,3.923-0.528,6.578
		c10.741,17.304,18.404,35.917,23.41,55.671c0.432,1.705,2.653,3.703,4.417,4.178c4.455,1.201,9.129,1.575,13.705,2.346
		c15.513,2.612,31.021,5.252,46.531,7.881c0,20.918,0,41.836,0,62.754c-0.61,0.243-1.199,0.601-1.832,0.713
		c-19.087,3.363-38.159,6.815-57.285,9.943c-3.499,0.572-5.074,1.814-5.901,5.28c-4.571,19.149-11.988,37.177-22.358,53.918
		c-1.965,3.172-1.821,5.277,0.396,8.282c11.024,14.944,21.825,30.055,32.537,45.225c0.852,1.206,1.242,4.102,0.482,4.879
		c-14.137,14.451-28.481,28.7-42.949,43.158c-15.685-11.006-31.293-21.637-46.496-32.819c-4.656-3.425-7.789-3.375-12.992-0.763
		c-13.564,6.81-27.418,13.284-41.705,18.344c-14.431,5.11-14.562,4.322-17.182,19.612c-2.767,16.147-5.875,32.235-8.835,48.349
		c-20.918,0-41.836,0-62.754,0c-0.23-0.618-0.57-1.218-0.675-1.856c-3.113-18.805-6.325-37.596-9.203-56.437
		c-0.641-4.197-2.263-6.161-6.485-7.169c-18.173-4.339-35.349-11.315-51.21-21.217c-4.088-2.552-6.853-2.574-10.872,0.35
		c-15.67,11.4-31.673,22.342-47.934,33.722c-13.957-14.038-27.683-27.984-41.61-41.726c-2.561-2.527-2.632-4.121-0.527-7.004
		c10.956-15.007,21.614-30.231,32.514-45.28c1.768-2.441,2.263-4.299,0.563-7.055c-10.608-17.199-18.138-35.69-23.079-55.291
		c-0.422-1.675-2.752-3.632-4.532-4.061c-5.948-1.435-12.06-2.181-18.09-3.289c-14-2.572-27.989-5.202-41.983-7.808
		c0-20.918,0-41.836,0-62.754c0.623-0.221,1.229-0.541,1.871-0.647c18.796-3.114,37.576-6.332,56.409-9.208
		c4.21-0.643,6.142-2.27,7.145-6.493c4.436-18.669,11.828-36.192,21.937-52.492c2.125-3.427,1.693-5.63-0.513-8.718
		c-11.458-16.039-22.675-32.251-34.072-48.54c1.031-1.122,1.882-2.119,2.806-3.043C69.485,82.078,82.492,69.274,95.232,56.21
		c2.765-2.836,4.513-2.494,7.404-0.386c15.009,10.939,30.201,21.626,45.241,32.523c2.308,1.672,4.076,2.012,6.626,0.442
		c17.195-10.591,35.664-18.148,55.242-23.128c1.694-0.431,3.672-2.683,4.134-4.451c1.208-4.626,1.603-9.46,2.404-14.197
		C218.877,31.671,221.508,16.337,224.125,1z M394.472,256.073c0.102-76.006-62.253-138.415-138.402-138.522
		c-76.007-0.107-138.435,62.265-138.519,138.396c-0.084,76.032,62.271,138.446,138.394,138.526
		C331.975,394.551,394.369,332.215,394.472,256.073z"/>
	<path display="none" fill="#FFFFFF" d="M615.7,50.841c0.121-0.657,0.247-1.313,0.36-1.972c0.107-0.624,0.112-0.591,0.701-0.8
		c0.583-0.206,1.148-0.47,1.701-0.748c0.212-0.107,0.34-0.109,0.53,0.031c0.62,0.456,1.257,0.89,1.896,1.338
		c0.59-0.59,1.175-1.171,1.752-1.76c0.031-0.032,0.015-0.15-0.02-0.199c-0.437-0.619-0.877-1.235-1.327-1.844
		c-0.09-0.123-0.096-0.208-0.016-0.338c0.423-0.683,0.725-1.418,0.912-2.199c0.034-0.141,0.098-0.192,0.241-0.215
		c0.78-0.128,1.558-0.268,2.336-0.406c0.026-0.005,0.05-0.019,0.075-0.029c0,3.047,0,6.094,0,9.141
		C621.794,50.841,618.747,50.841,615.7,50.841z"/>
	<path display="none" fill="#FFFFFF" d="M624.841,39.141c-0.633-0.107-1.265-0.215-1.898-0.321
		c-0.187-0.031-0.377-0.047-0.559-0.096c-0.072-0.019-0.163-0.101-0.18-0.17c-0.204-0.806-0.517-1.565-0.955-2.271
		c-0.067-0.108-0.043-0.177,0.021-0.268c0.473-0.668,0.942-1.338,1.423-2.023c-0.429-0.428-0.856-0.852-1.282-1.277
		c-0.134-0.134-0.279-0.259-0.399-0.405c-0.115-0.139-0.2-0.12-0.333-0.021c-0.599,0.442-1.208,0.869-1.808,1.309
		c-0.108,0.079-0.187,0.09-0.304,0.018c-0.694-0.432-1.442-0.737-2.237-0.929c-0.123-0.03-0.173-0.085-0.195-0.214
		c-0.13-0.787-0.271-1.572-0.409-2.357c-0.005-0.026-0.018-0.05-0.028-0.075c3.047,0,6.094,0,9.141,0
		C624.841,33.074,624.841,36.107,624.841,39.141z"/>
	<path display="none" fill="#FFFFFF" d="M604.041,41.7c0.571,0.106,1.141,0.214,1.712,0.318c0.246,0.045,0.495,0.076,0.738,0.134
		c0.073,0.018,0.168,0.097,0.185,0.166c0.201,0.799,0.509,1.554,0.941,2.255c0.069,0.112,0.049,0.188-0.023,0.288
		c-0.445,0.614-0.879,1.235-1.326,1.847c-0.086,0.118-0.083,0.183,0.021,0.286c0.568,0.56,1.128,1.129,1.697,1.702
		c0.663-0.464,1.316-0.91,1.955-1.375c0.164-0.119,0.277-0.118,0.443-0.014c0.647,0.404,1.347,0.688,2.089,0.865
		c0.172,0.041,0.238,0.121,0.265,0.292c0.117,0.768,0.248,1.535,0.375,2.302c0.004,0.026,0.018,0.051,0.028,0.076
		c-3.033,0-6.067,0-9.1,0C604.041,47.794,604.041,44.747,604.041,41.7z"/>
	<path display="none" fill="#FFFFFF" d="M613.141,30.041c-0.107,0.625-0.214,1.251-0.32,1.877c-0.033,0.193-0.049,0.39-0.098,0.579
		c-0.019,0.072-0.1,0.164-0.169,0.182c-0.798,0.203-1.552,0.511-2.253,0.943c-0.104,0.064-0.176,0.05-0.27-0.018
		c-0.613-0.444-1.233-0.88-1.845-1.326c-0.118-0.086-0.189-0.1-0.302,0.016c-0.52,0.533-1.05,1.055-1.576,1.581
		c-0.038,0.038-0.072,0.078-0.114,0.124c0.465,0.664,0.922,1.326,1.39,1.98c0.09,0.126,0.108,0.216,0.021,0.356
		c-0.412,0.665-0.714,1.379-0.895,2.141c-0.041,0.172-0.12,0.239-0.291,0.265c-0.768,0.117-1.534,0.249-2.301,0.376
		c-0.026,0.004-0.051,0.017-0.076,0.026c0-3.03,0-6.06,0-9.1C607.074,30.041,610.107,30.041,613.141,30.041z"/>
	<path display="none" fill="#FFFFFF" d="M620.088,40.444c-0.004,3.105-2.549,5.648-5.65,5.645c-3.105-0.003-5.648-2.549-5.644-5.65
		c0.003-3.105,2.549-5.649,5.649-5.644C617.549,34.798,620.092,37.344,620.088,40.444z M618.428,40.433
		c-0.009-2.213-1.792-3.988-3.995-3.979c-2.213,0.009-3.988,1.791-3.979,3.995c0.009,2.212,1.792,3.988,3.995,3.979
		C616.661,44.419,618.437,42.636,618.428,40.433z"/>
	<path d="M353.766,255.802c0.218,54.019-43.335,97.747-97.571,97.963c-54.02,0.215-97.748-43.34-97.96-97.573
		c-0.212-54.037,43.32-97.742,97.571-97.958C309.84,158.02,353.547,201.552,353.766,255.802z M305.068,255.887
		c-0.055-27.014-22.151-49.01-49.181-48.955c-27.015,0.055-49.01,22.151-48.956,49.181c0.055,27.015,22.151,49.01,49.181,48.956
		C283.128,305.013,305.123,282.917,305.068,255.887z"/>
	<path display="none" fill="#FFFFFF" d="M616.442,40.436c0.002,1.102-0.895,2.004-1.997,2.006c-1.102,0.002-2.004-0.895-2.006-1.997
		c-0.002-1.102,0.895-2.004,1.997-2.006C615.538,38.437,616.44,39.334,616.442,40.436z"/>
</g>
<image display="none" overflow="visible" width="512" height="512" xlink:href="../../../Knowledge/Icon/[+++++] (Full) Windows 8 Icons [icons8]/Industry/greentech/greentech-512_.png"  transform="matrix(0.0406 0 0 0.0406 604 30)">
</image>
<image display="none" overflow="visible" width="512" height="512" xlink:href="../../../Knowledge/Icon/[+++++] (Full) Windows 8 Icons [icons8]/Industry/biohazard/biohazard-512_.png"  transform="matrix(0.0406 0 0 0.0406 605 116)">
</image>
</svg>
