<?xml version="1.0" encoding="utf-8"?>
<!-- Generator: Adobe Illustrator 17.0.0, SVG Export Plug-In . SVG Version: 6.00 Build 0)  -->
<!DOCTYPE svg PUBLIC "-//W3C//DTD SVG 1.1//EN" "http://www.w3.org/Graphics/SVG/1.1/DTD/svg11.dtd">
<svg version="1.1" id="Layer_1" xmlns="http://www.w3.org/2000/svg" xmlns:xlink="http://www.w3.org/1999/xlink" x="0px" y="0px"
	 width="512px" height="512px" viewBox="0 0 512 512" enable-background="new 0 0 512 512" xml:space="preserve">
<g>
	<line fill="none" stroke="#B35047" x1="32" y1="0" x2="32" y2="512"/>
	<line fill="none" stroke="#B35047" x1="64" y1="0" x2="64" y2="512"/>
	<line fill="none" stroke="#B35047" x1="96" y1="0" x2="96" y2="512"/>
	<line fill="none" stroke="#B35047" x1="128" y1="0" x2="128" y2="512"/>
	<line fill="none" stroke="#B35047" x1="160" y1="0" x2="160" y2="512"/>
	<line fill="none" stroke="#B35047" x1="192" y1="0" x2="192" y2="512"/>
	<line fill="none" stroke="#B35047" x1="224" y1="0" x2="224" y2="512"/>
	<line fill="none" stroke="#B35047" x1="256" y1="0" x2="256" y2="512"/>
	<line fill="none" stroke="#B35047" x1="288" y1="0" x2="288" y2="512"/>
	<line fill="none" stroke="#B35047" x1="320" y1="0" x2="320" y2="512"/>
	<line fill="none" stroke="#B35047" x1="352" y1="0" x2="352" y2="512"/>
	<line fill="none" stroke="#B35047" x1="384" y1="0" x2="384" y2="512"/>
	<line fill="none" stroke="#B35047" x1="416" y1="0" x2="416" y2="512"/>
	<line fill="none" stroke="#B35047" x1="448" y1="0" x2="448" y2="512"/>
	<line fill="none" stroke="#B35047" x1="480" y1="0" x2="480" y2="512"/>
	<line fill="none" stroke="#B35047" x1="0" y1="32" x2="512" y2="32"/>
	<line fill="none" stroke="#B35047" x1="0" y1="64" x2="512" y2="64"/>
	<line fill="none" stroke="#B35047" x1="0" y1="96" x2="512" y2="96"/>
	<line fill="none" stroke="#B35047" x1="0" y1="128" x2="512" y2="128"/>
	<line fill="none" stroke="#B35047" x1="0" y1="160" x2="512" y2="160"/>
	<line fill="none" stroke="#B35047" x1="0" y1="192" x2="512" y2="192"/>
	<line fill="none" stroke="#B35047" x1="0" y1="224" x2="512" y2="224"/>
	<line fill="none" stroke="#B35047" x1="0" y1="256" x2="512" y2="256"/>
	<line fill="none" stroke="#B35047" x1="0" y1="288" x2="512" y2="288"/>
	<line fill="none" stroke="#B35047" x1="0" y1="320" x2="512" y2="320"/>
	<line fill="none" stroke="#B35047" x1="0" y1="352" x2="512" y2="352"/>
	<line fill="none" stroke="#B35047" x1="0" y1="384" x2="512" y2="384"/>
	<line fill="none" stroke="#B35047" x1="0" y1="416" x2="512" y2="416"/>
	<line fill="none" stroke="#B35047" x1="0" y1="448" x2="512" y2="448"/>
	<line fill="none" stroke="#B35047" x1="0" y1="480" x2="512" y2="480"/>
	<rect x="0" fill="none" stroke="#B35047" width="512" height="512"/>
</g>
<image display="none" overflow="visible" width="512" height="512" xlink:href="../../../Knowledge/Icon/[+++++] (Full) Windows 8 Icons [icons8]/System/save_as/save_as-512.png"  transform="matrix(0.0406 0 0 0.0406 589 43)">
</image>
<image display="none" overflow="visible" width="512" height="512" xlink:href="../../../Knowledge/Icon/[+++++] (Full) Windows 8 Icons [icons8]/System/save/save-512.png"  transform="matrix(0.0406 0 0 0.0406 589 43)">
</image>
<image display="none" overflow="visible" width="512" height="512" xlink:href="../../../Knowledge/Icon/[+++++] (Full) Windows 8 Icons [icons8]/System/public/public-512.png"  transform="matrix(0.0406 0 0 0.0406 589 43)">
</image>
<image display="none" overflow="visible" width="512" height="512" xlink:href="../../../Knowledge/Icon/[+++++] (Full) Windows 8 Icons [icons8]/System/private/private-512.png"  transform="matrix(0.0406 0 0 0.0406 589 43)">
</image>
<image display="none" overflow="visible" width="512" height="512" xlink:href="../../../Knowledge/Icon/[+++++] (Full) Windows 8 Icons [icons8]/System/logout/logout-512.png"  transform="matrix(0.0406 0 0 0.0406 589 43)">
</image>
<image display="none" overflow="visible" width="512" height="512" xlink:href="../../../Knowledge/Icon/[+++++] (Full) Windows 8 Icons [icons8]/System/login/login-512.png"  transform="matrix(0.0406 0 0 0.0406 589 43)">
</image>
<image display="none" overflow="visible" width="512" height="512" xlink:href="../../../Knowledge/Icon/[+++++] (Full) Windows 8 Icons [icons8]/System/help/help-512.png"  transform="matrix(0.0406 0 0 0.0406 589 43)">
</image>
<g>
	<path display="none" fill="#FFFFFF" d="M589.042,63.841c0-6.931,0-13.861,0-20.796c6.928,0,13.857,0,20.792,0
		c0,6.929,0,13.863,0,20.796C602.907,63.841,595.975,63.841,589.042,63.841z M599.441,62.236c2.62,0,5.24,0.006,7.86-0.006
		c0.381-0.002,0.775-0.042,1.141-0.143c0.861-0.236,1.306-0.899,1.229-1.761c-0.04-0.454-0.223-0.86-0.448-1.25
		c-2.651-4.592-5.301-9.185-7.959-13.774c-0.171-0.295-0.383-0.579-0.623-0.82c-0.675-0.679-1.553-0.728-2.276-0.101
		c-0.3,0.26-0.556,0.596-0.756,0.941c-2.631,4.533-5.249,9.074-7.868,13.615c-0.145,0.251-0.281,0.511-0.385,0.781
		c-0.455,1.186,0.076,2.174,1.316,2.438c0.302,0.064,0.618,0.077,0.928,0.078C594.214,62.239,596.827,62.236,599.441,62.236z"/>
	<path d="M256.076,483.745c-65.063,0-130.126,0.062-195.188-0.082c-7.714-0.017-15.601-0.338-23.108-1.932
		C6.903,475.174-6.315,450.57,5.006,421.038c2.576-6.719,5.976-13.189,9.579-19.438C79.771,288.543,144.961,175.487,210.469,62.617
		c4.988-8.594,11.369-16.952,18.833-23.424c17.995-15.602,39.855-14.389,56.663,2.526c5.98,6.018,11.25,13.069,15.509,20.421
		c66.18,114.233,132.141,228.594,198.151,342.926c5.6,9.699,10.158,19.826,11.162,31.121c1.91,21.473-9.168,37.97-30.608,43.849
		c-9.123,2.501-18.915,3.51-28.41,3.553C386.54,483.885,321.308,483.745,256.076,483.745z M274.202,323.483
		c0.377-1.925,0.758-3.534,1.001-5.164c5.359-35.96,10.852-71.901,15.956-107.897c1.456-10.266,3.139-20.808,2.287-31.02
		c-1.187-14.228-9.433-24.941-23.007-30.044c-14.225-5.347-27.976-3.716-39.591,6.855c-12.104,11.015-14.562,25.034-12.085,40.66
		c6.508,41.057,12.721,82.161,19.202,123.223c0.2,1.264,2.043,3.216,3.157,3.241C252.054,323.58,262.993,323.483,274.202,323.483z
		 M294.526,384.421c-0.067-20.813-17.49-38.195-38.375-38.287c-20.957-0.092-38.758,17.761-38.526,38.638
		c0.229,20.596,17.563,37.633,38.375,37.717C276.915,422.573,294.592,405.107,294.526,384.421z"/>
	<path display="none" fill="#FFFFFF" d="M600.169,55.799c-0.45,0-0.89,0.004-1.329-0.006c-0.045-0.001-0.119-0.079-0.127-0.13
		c-0.26-1.649-0.51-3.3-0.771-4.949c-0.099-0.628-0.001-1.191,0.485-1.633c0.466-0.425,1.019-0.49,1.59-0.275
		c0.545,0.205,0.876,0.635,0.924,1.207c0.034,0.41-0.033,0.834-0.092,1.246c-0.205,1.446-0.426,2.889-0.641,4.334
		C600.199,55.657,600.184,55.722,600.169,55.799z"/>
	<path display="none" fill="#FFFFFF" d="M600.985,58.247c0.003,0.831-0.707,1.532-1.547,1.529c-0.836-0.003-1.532-0.688-1.541-1.515
		c-0.009-0.839,0.706-1.556,1.547-1.552C600.283,56.713,600.982,57.411,600.985,58.247z"/>
</g>
<g display="none">
	<path fill="#FFFFFF" d="M609.841,63.839c-6.931,0-13.861,0-20.796,0c0-6.928,0-13.857,0-20.792c6.929,0,13.863,0,20.796,0
		C609.841,49.975,609.841,56.906,609.841,63.839z M599.437,56.168c0.095,0.122,0.139,0.192,0.196,0.249
		c1.306,1.308,2.613,2.615,3.92,3.921c0.423,0.423,0.853,0.424,1.274,0.005c0.499-0.497,0.997-0.995,1.494-1.493
		c0.449-0.449,0.448-0.866-0.004-1.318c-1.307-1.307-2.614-2.614-3.92-3.922c-0.055-0.055-0.107-0.113-0.183-0.193
		c0.078-0.063,0.14-0.106,0.192-0.158c1.313-1.311,2.625-2.622,3.936-3.934c0.419-0.419,0.418-0.855-0.002-1.275
		c-0.493-0.494-0.987-0.985-1.481-1.478c-0.465-0.464-0.87-0.466-1.33-0.005c-1.307,1.307-2.614,2.613-3.922,3.92
		c-0.052,0.052-0.106,0.101-0.168,0.159c-0.062-0.059-0.116-0.107-0.168-0.159c-1.302-1.302-2.604-2.604-3.907-3.906
		c-0.48-0.48-0.874-0.478-1.359,0.006c-0.479,0.478-0.958,0.957-1.437,1.436c-0.461,0.462-0.462,0.871-0.001,1.332
		c1.302,1.302,2.604,2.604,3.906,3.907c0.056,0.056,0.109,0.115,0.171,0.18c-0.062,0.064-0.111,0.118-0.163,0.17
		c-1.316,1.317-2.633,2.633-3.949,3.95c-0.411,0.412-0.412,0.85-0.003,1.26c0.497,0.498,0.997,0.995,1.496,1.492
		c0.462,0.46,0.867,0.458,1.331-0.006c1.303-1.302,2.606-2.603,3.907-3.906C599.318,56.35,599.354,56.282,599.437,56.168z"/>
	<path display="inline" d="M599.437,56.168c-0.082,0.114-0.119,0.182-0.171,0.234c-1.301,1.303-2.604,2.605-3.907,3.906
		c-0.464,0.464-0.87,0.465-1.331,0.006c-0.499-0.497-0.998-0.993-1.496-1.492c-0.409-0.41-0.409-0.848,0.003-1.26
		c1.316-1.317,2.633-2.633,3.949-3.95c0.052-0.052,0.102-0.106,0.163-0.17c-0.062-0.065-0.115-0.124-0.171-0.18
		c-1.302-1.302-2.604-2.604-3.906-3.907c-0.461-0.461-0.46-0.87,0.001-1.332c0.479-0.479,0.958-0.957,1.437-1.436
		c0.485-0.485,0.878-0.487,1.359-0.006c1.302,1.302,2.604,2.604,3.907,3.906c0.052,0.052,0.106,0.1,0.168,0.159
		c0.062-0.059,0.116-0.108,0.168-0.159c1.307-1.307,2.614-2.613,3.922-3.92c0.46-0.46,0.865-0.458,1.33,0.005
		c0.494,0.492,0.988,0.984,1.481,1.478c0.419,0.42,0.421,0.856,0.002,1.275c-1.311,1.312-2.623,2.624-3.936,3.934
		c-0.052,0.052-0.115,0.095-0.192,0.158c0.076,0.08,0.128,0.138,0.183,0.193c1.307,1.307,2.614,2.614,3.92,3.922
		c0.451,0.452,0.453,0.869,0.004,1.318c-0.498,0.498-0.995,0.996-1.494,1.493c-0.421,0.419-0.85,0.418-1.274-0.005
		c-1.308-1.306-2.615-2.613-3.92-3.921C599.576,56.36,599.532,56.29,599.437,56.168z"/>
</g>
<g display="none">
	<path fill="#FFFFFF" d="M589.041,63.841c0-6.931,0-13.863,0-20.797c6.929,0,13.859,0,20.794,0c0,6.93,0,13.864,0,20.797
		C602.905,63.841,595.973,63.841,589.041,63.841z M609.679,53.442c0.001-5.66-4.576-10.238-10.237-10.24
		c-5.66-0.001-10.239,4.577-10.24,10.238c-0.001,5.661,4.576,10.239,10.238,10.239C605.101,63.68,609.678,59.104,609.679,53.442z"/>
	<path display="inline" d="M511,256.031C510.97,397.048,396.976,511.02,255.98,511C114.981,510.98,0.979,396.96,1,255.98
		C1.021,114.996,115.073,0.967,256.031,1C397.038,1.033,511.03,115.052,511,256.031z M256.003,458.198
		c110.911-0.005,202.199-91.295,202.194-202.201c-0.004-110.911-91.295-202.199-202.201-202.195
		c-110.911,0.004-202.2,91.296-202.195,202.201C53.807,366.914,145.098,458.203,256.003,458.198z"/>
	<path fill="#FFFFFF" d="M599.441,61.559c-4.453,0-8.118-3.665-8.119-8.118c0-4.453,3.665-8.118,8.118-8.119
		c4.453,0,8.118,3.665,8.119,8.118C607.559,57.893,603.894,61.559,599.441,61.559z M606.171,49.64
		c-0.05-0.193-0.15-0.107-0.237-0.07c-1.92,0.819-3.84,1.641-5.763,2.454c-0.106,0.045-0.247,0.047-0.362,0.023
		c-0.53-0.114-1-0.006-1.383,0.376c-0.383,0.382-0.51,0.857-0.372,1.38c0.171,0.651,0.724,1.071,1.38,1.079
		c0.642,0.008,1.209-0.419,1.387-1.067c0.043-0.157,0.123-0.256,0.247-0.347c0.501-0.37,0.997-0.746,1.494-1.12
		C603.764,51.447,604.965,50.546,606.171,49.64z M598.792,47.019c0.012,0.174,0.012,0.344,0.039,0.51
		c0.053,0.329,0.315,0.548,0.63,0.541c0.294-0.006,0.57-0.24,0.594-0.56c0.025-0.327,0.018-0.661-0.013-0.988
		c-0.029-0.301-0.308-0.51-0.611-0.51c-0.272,0-0.543,0.211-0.595,0.488C598.803,46.672,598.805,46.849,598.792,47.019z
		 M593.046,54.086c0.151-0.01,0.315-0.009,0.473-0.034c0.336-0.054,0.549-0.302,0.55-0.622c0.001-0.298-0.24-0.58-0.57-0.606
		c-0.314-0.025-0.635-0.021-0.948,0.011c-0.327,0.033-0.532,0.29-0.539,0.606c-0.006,0.296,0.221,0.564,0.538,0.613
		C592.71,54.079,592.874,54.076,593.046,54.086z M605.884,52.769c-0.002,0.008-0.005,0.016-0.007,0.024
		c-0.175,0.012-0.351,0.011-0.523,0.038c-0.329,0.052-0.548,0.315-0.542,0.629c0.006,0.293,0.24,0.57,0.559,0.594
		c0.327,0.025,0.661,0.017,0.988-0.013c0.277-0.025,0.458-0.243,0.501-0.531c0.037-0.246-0.086-0.518-0.332-0.611
		C606.326,52.823,606.099,52.81,605.884,52.769z M603.48,47.553c-0.023-0.271-0.18-0.499-0.417-0.582
		c-0.264-0.093-0.556-0.031-0.708,0.194c-0.177,0.261-0.342,0.536-0.474,0.822c-0.149,0.324-0.019,0.659,0.273,0.814
		c0.283,0.15,0.642,0.053,0.831-0.241c0.142-0.221,0.272-0.451,0.394-0.684C603.429,47.778,603.447,47.662,603.48,47.553z
		 M593.551,49.399c-0.271,0.027-0.499,0.187-0.581,0.424c-0.089,0.258-0.033,0.546,0.183,0.694c0.266,0.182,0.546,0.351,0.839,0.485
		c0.323,0.149,0.661,0.015,0.812-0.277c0.148-0.285,0.049-0.641-0.245-0.83c-0.216-0.139-0.439-0.266-0.666-0.384
		C593.787,49.456,593.665,49.435,593.551,49.399z M605.292,57.461c0.31-0.009,0.533-0.166,0.616-0.394
		c0.092-0.254,0.041-0.551-0.173-0.697c-0.283-0.193-0.583-0.368-0.894-0.51c-0.283-0.129-0.613,0.018-0.759,0.288
		c-0.133,0.244-0.081,0.605,0.156,0.767c0.282,0.193,0.592,0.346,0.895,0.508C605.195,57.457,605.274,57.458,605.292,57.461z
		 M597.065,48.18c-0.081-0.362-0.318-0.707-0.568-1.039c-0.161-0.214-0.444-0.262-0.696-0.16c-0.241,0.097-0.412,0.321-0.374,0.585
		c0.07,0.474,0.33,0.867,0.667,1.189c0.181,0.173,0.444,0.153,0.665,0.024C596.96,48.662,597.061,48.476,597.065,48.18z
		 M594.861,56.455c0.012-0.449-0.431-0.772-0.849-0.59c-0.282,0.122-0.552,0.285-0.805,0.462c-0.295,0.207-0.358,0.582-0.18,0.857
		c0.178,0.274,0.542,0.36,0.86,0.191c0.214-0.114,0.424-0.237,0.631-0.364C594.723,56.885,594.864,56.713,594.861,56.455z"/>
	<path display="inline" d="M423.614,161.346c-30.029,22.549-59.941,45.008-89.851,67.47c-12.397,9.31-24.745,18.685-37.217,27.892
		c-3.083,2.276-5.083,4.751-6.158,8.65c-4.454,16.15-18.564,26.772-34.556,26.579c-16.339-0.198-30.108-10.677-34.372-26.883
		c-3.43-13.038-0.284-24.858,9.26-34.38c9.542-9.519,21.246-12.205,34.438-9.372c2.856,0.613,6.372,0.545,9.009-0.57
		c47.897-20.253,95.705-40.718,143.536-61.126C419.874,158.681,422.365,156.547,423.614,161.346z"/>
	<path display="inline" d="M239.854,96.067c0.319-4.225,0.258-8.647,1.065-12.906c1.306-6.89,8.059-12.144,14.825-12.153
		c7.551-0.01,14.503,5.198,15.226,12.69c0.786,8.146,0.942,16.451,0.327,24.607c-0.6,7.961-7.478,13.783-14.792,13.939
		c-7.828,0.166-14.373-5.28-15.684-13.481C240.162,104.641,240.163,100.412,239.854,96.067z"/>
	<path display="inline" d="M96.74,272.085c-4.293-0.252-8.363-0.174-12.325-0.79c-7.889-1.226-13.55-7.904-13.392-15.279
		c0.169-7.891,5.256-14.273,13.412-15.103c7.808-0.794,15.787-0.886,23.611-0.272c8.214,0.645,14.225,7.68,14.189,15.091
		c-0.039,7.972-5.331,14.151-13.706,15.493C104.572,271.861,100.509,271.831,96.74,272.085z"/>
	<path display="inline" d="M416.471,239.269c5.368,1.028,11.005,1.349,16.034,3.266c6.113,2.33,9.18,9.101,8.257,15.228
		c-1.078,7.162-5.572,12.597-12.473,13.216c-8.155,0.732-16.452,0.932-24.609,0.315c-7.956-0.601-13.781-7.494-13.925-14.803
		c-0.154-7.829,5.289-14.375,13.496-15.668c4.289-0.676,8.687-0.658,13.036-0.954C416.349,239.669,416.41,239.469,416.471,239.269z"
		/>
	<path display="inline" d="M356.596,109.373c-0.822,2.699-1.259,5.599-2.543,8.056c-3.036,5.805-6.257,11.539-9.804,17.044
		c-4.714,7.315-13.633,9.724-20.692,5.992c-7.273-3.846-10.507-12.191-6.792-20.271c3.28-7.134,7.386-13.968,11.796-20.48
		c3.797-5.607,11.067-7.165,17.644-4.843C352.11,96.953,356.028,102.629,356.596,109.373z"/>
	<path display="inline" d="M109.307,155.331c2.845,0.903,5.886,1.427,8.494,2.785c5.661,2.949,11.229,6.123,16.597,9.574
		c7.325,4.709,9.789,13.572,6.112,20.669c-3.773,7.281-12.183,10.61-20.224,6.902c-7.281-3.357-14.264-7.547-20.885-12.089
		c-5.385-3.695-6.785-10.868-4.563-17.287C96.883,159.978,102.569,156,109.307,155.331z"/>
	<path display="inline" d="M401.742,356.142c-0.448-0.097-2.436-0.102-3.978-0.933c-7.524-4.052-15.245-7.862-22.279-12.662
		c-5.9-4.027-7.186-13.026-3.885-19.102c3.657-6.732,11.868-10.397,18.914-7.176c7.746,3.541,15.203,7.916,22.254,12.711
		c5.331,3.625,6.614,11.015,4.321,17.348C415.028,352.018,409.456,355.926,401.742,356.142z"/>
	<path display="inline" d="M196.844,124.968c-0.111,7.38-2.618,12.017-7.581,14.913c-5.513,3.218-12.075,3.718-16.574-0.589
		c-8.391-8.032-14.886-17.808-16.62-29.624c-0.964-6.57,3.305-12.144,9.303-14.566c6.272-2.533,13.323-1.334,17.332,3.99
		C188.931,107.361,194.832,115.945,196.844,124.968z"/>
	<path display="inline" d="M141.94,331.067c0.075,6.422-3.425,10.726-8.542,13.876c-5.146,3.168-10.372,6.228-15.71,9.059
		c-7.91,4.195-16.992,2.068-21.422-4.768c-4.442-6.856-2.871-16.208,4.475-21.354c6.294-4.408,13.006-8.47,20.04-11.514
		C131.213,311.851,142.24,319.875,141.94,331.067z"/>
</g>
<g display="none">
	<path display="inline" d="M282.192,511c-16.63,0-33.261,0-49.891,0c-1.274-0.332-2.529-0.831-3.824-0.972
		c-32.066-3.485-62.571-12.412-90.765-28.017C59.252,438.585,13.991,372.153,3.17,283.134c-5.16-42.449,0.279-84.22,17.671-123.417
		C63.959,62.542,139.122,9.372,245.133,1.623c46.174-3.375,90.286,7.043,131.051,29.226
		c66.715,36.305,109.795,91.385,128.579,165.14c2.403,9.436,3.975,19.084,5.932,28.633c0,20.954,0,41.909,0,62.863
		c-0.449,2.42-0.951,4.833-1.34,7.263c-7.211,45.074-24.567,85.763-53.367,121.25c-39.408,48.558-89.873,79.043-151.341,91.067
		C297.191,508.525,289.678,509.696,282.192,511z M154.447,233.375c24.968-25.29,54.22-35.986,88.743-31.228
		c3.919,0.54,5.993-0.461,8.304-3.422c23.835-30.53,47.783-60.972,71.765-91.388c7.351-9.323,13.706-9.802,21.994-1.572
		c20.058,19.917,40.022,39.929,59.969,59.957c1.619,1.626,3.142,3.506,4.157,5.543c3.13,6.278,1.103,11.771-6.287,17.412
		c-30.39,23.198-60.779,46.399-91.252,69.487c-2.828,2.143-3.979,4.067-3.305,7.83c2.217,12.376,1.943,24.805-0.6,37.15
		c-4.296,20.855-15.111,37.959-30.661,53.447c-15.462-15.498-30.69-30.761-46.167-46.274
		c-42.448,32.524-85.02,65.143-127.636,97.795c74.977,78.552,211.596,91.793,303.245,3.909
		c86.44-82.889,90.388-221.93,2.448-308.756C317.495,12.76,173.407,19.689,90.57,118.647
		C12.448,211.974,32.595,339.67,102.924,407.18c32.63-42.609,65.229-85.178,97.834-127.756
		C185.223,263.976,170.029,248.868,154.447,233.375z"/>
	<path fill="#FFFFFF" d="M609.841,52.181c-0.08-0.389-0.144-0.782-0.242-1.166c-0.765-3.003-2.519-5.245-5.235-6.723
		c-1.66-0.903-3.456-1.327-5.336-1.19c-4.316,0.315-7.376,2.48-9.132,6.437c-0.708,1.596-0.93,3.296-0.719,5.025
		c0.44,3.624,2.283,6.329,5.478,8.097c1.148,0.635,2.39,0.999,3.695,1.141c0.053,0.006,0.104,0.026,0.156,0.04
		c-3.154,0-6.308,0-9.464,0c0-6.93,0-13.86,0-20.795c6.932,0,13.865,0,20.798,0C609.841,46.09,609.841,49.135,609.841,52.181z"/>
	<path fill="#FFFFFF" d="M600.537,63.841c0.305-0.053,0.611-0.101,0.914-0.16c2.503-0.49,4.557-1.731,6.162-3.708
		c1.173-1.445,1.879-3.101,2.173-4.936c0.016-0.099,0.036-0.197,0.055-0.296c0,3.033,0,6.067,0,9.1
		C606.74,63.841,603.639,63.841,600.537,63.841z"/>
	<path fill="#FFFFFF" d="M595.337,52.538c0.634,0.631,1.253,1.246,1.885,1.875c-1.327,1.733-2.655,3.467-3.983,5.201
		c-2.863-2.749-3.684-7.947-0.503-11.747c3.372-4.029,9.239-4.311,12.971-0.626c3.58,3.535,3.42,9.196-0.1,12.57
		c-3.731,3.578-9.294,3.039-12.346-0.159c1.735-1.329,3.468-2.657,5.196-3.982c0.63,0.632,1.25,1.253,1.88,1.884
		c0.633-0.631,1.073-1.327,1.248-2.176c0.104-0.503,0.115-1.009,0.024-1.513c-0.027-0.153,0.019-0.232,0.135-0.319
		c1.241-0.94,2.478-1.885,3.715-2.829c0.301-0.23,0.383-0.453,0.256-0.709c-0.041-0.083-0.103-0.16-0.169-0.226
		c-0.812-0.815-1.625-1.63-2.442-2.441c-0.337-0.335-0.596-0.316-0.895,0.064c-0.976,1.238-1.951,2.478-2.922,3.721
		c-0.094,0.121-0.179,0.161-0.338,0.139C597.544,51.072,596.353,51.508,595.337,52.538z"/>
</g>
<g display="none">
	<path display="inline" d="M282.192,511c-16.63,0-33.261,0-49.891,0c-1.274-0.332-2.529-0.831-3.824-0.972
		c-32.066-3.485-62.571-12.412-90.765-28.017C59.252,438.585,13.991,372.153,3.17,283.134c-5.16-42.449,0.279-84.22,17.671-123.417
		C63.959,62.542,139.122,9.372,245.133,1.623c46.174-3.375,90.286,7.043,131.051,29.226
		c66.715,36.305,109.795,91.385,128.579,165.14c2.403,9.436,3.975,19.084,5.932,28.633c0,20.954,0,41.909,0,62.863
		c-0.449,2.42-0.951,4.833-1.34,7.263c-7.211,45.074-24.567,85.763-53.367,121.25c-39.408,48.558-89.873,79.043-151.341,91.067
		C297.191,508.525,289.678,509.696,282.192,511z M421.975,395.428c68.176-79.08,72.549-207.792-12.958-292.361
		c-88.23-87.262-216.761-76.847-290.589-12.115c1.223,1.305,2.412,2.648,3.678,3.915c19.629,19.644,39.278,39.27,58.889,58.931
		c1.754,1.758,3.475,3.607,4.885,5.641c6.491,9.364,3.119,22.537-6.996,27.722c-8.63,4.424-16.753,2.77-24.759-5.216
		c-19.899-19.845-39.751-39.737-59.63-59.602c-1.249-1.248-2.568-2.426-3.871-3.652c-75.425,89.772-60.533,218.658,12.312,288.475
		c32.631-42.611,65.231-85.182,98.137-128.153c-15.552-15.543-30.793-30.776-46.148-46.122
		c24.528-24.829,53.79-35.516,88.314-30.734c3.953,0.548,5.992-0.546,8.281-3.477c23.844-30.528,47.791-60.975,71.777-91.392
		c7.334-9.301,13.683-9.743,22.002-1.48c20.056,19.922,40.021,39.937,59.977,59.96c1.507,1.512,2.921,3.242,3.912,5.118
		c3.394,6.424,1.429,12.048-6.154,17.835c-30.526,23.298-61.052,46.596-91.657,69.79c-2.579,1.955-3.454,3.764-2.895,7.067
		c3.147,18.586,1.567,36.799-5.638,54.291c-5.683,13.797-14.243,25.685-25.78,36.817c-15.428-15.528-30.616-30.816-46.022-46.321
		c-42.452,32.529-85.025,65.149-127.651,97.811c80.47,82.609,210.363,83.927,291.922,13.703c-1.559-1.122-3.222-2.012-4.502-3.288
		c-20.381-20.304-40.722-40.647-61.038-61.015c-1.871-1.876-3.716-3.84-5.22-6.008c-4.858-7.003-4.198-16.761,1.382-23.076
		c8.239-9.325,20.461-9.239,30.171,0.415c18.398,18.289,36.72,36.653,55.031,55.029
		C414.764,387.579,418.199,391.415,421.975,395.428z"/>
	<path fill="#FFFFFF" d="M609.841,52.181c-0.08-0.389-0.144-0.782-0.242-1.166c-0.765-3.003-2.519-5.245-5.235-6.723
		c-1.66-0.903-3.456-1.327-5.336-1.19c-4.316,0.315-7.376,2.48-9.132,6.437c-0.708,1.596-0.93,3.296-0.719,5.025
		c0.44,3.624,2.283,6.329,5.478,8.097c1.148,0.635,2.39,0.999,3.695,1.141c0.053,0.006,0.104,0.026,0.156,0.04
		c-3.154,0-6.308,0-9.464,0c0-6.93,0-13.86,0-20.795c6.932,0,13.865,0,20.798,0C609.841,46.09,609.841,49.135,609.841,52.181z"/>
	<path fill="#FFFFFF" d="M600.537,63.841c0.305-0.053,0.611-0.101,0.914-0.16c2.503-0.49,4.557-1.731,6.162-3.708
		c1.173-1.445,1.879-3.101,2.173-4.936c0.016-0.099,0.036-0.197,0.055-0.296c0,3.033,0,6.067,0,9.1
		C606.74,63.841,603.639,63.841,600.537,63.841z"/>
	<path fill="#FFFFFF" d="M606.229,59.135c-0.154-0.163-0.294-0.32-0.441-0.468c-0.745-0.748-1.491-1.496-2.24-2.24
		c-0.395-0.393-0.893-0.397-1.228-0.017c-0.227,0.257-0.254,0.654-0.056,0.94c0.061,0.088,0.136,0.168,0.213,0.245
		c0.827,0.829,1.655,1.657,2.485,2.484c0.052,0.052,0.12,0.088,0.183,0.134c-3.321,2.859-8.609,2.805-11.885-0.558
		c1.735-1.33,3.469-2.658,5.197-3.982c0.627,0.631,1.246,1.254,1.874,1.886c0.47-0.453,0.818-0.937,1.05-1.499
		c0.293-0.712,0.358-1.454,0.23-2.21c-0.023-0.134,0.013-0.208,0.118-0.288c1.246-0.944,2.489-1.893,3.732-2.841
		c0.309-0.236,0.389-0.465,0.251-0.726c-0.04-0.076-0.098-0.147-0.159-0.208c-0.813-0.815-1.625-1.63-2.442-2.441
		c-0.339-0.336-0.597-0.318-0.896,0.06c-0.977,1.238-1.952,2.478-2.922,3.721c-0.093,0.119-0.176,0.164-0.337,0.142
		c-1.406-0.195-2.597,0.24-3.596,1.251c0.625,0.625,1.246,1.245,1.879,1.878c-1.34,1.749-2.667,3.483-3.995,5.218
		c-2.966-2.842-3.572-8.09-0.501-11.745c0.053,0.05,0.107,0.098,0.158,0.149c0.809,0.809,1.618,1.619,2.428,2.427
		c0.326,0.325,0.657,0.392,1.008,0.212c0.412-0.211,0.549-0.747,0.285-1.129c-0.057-0.083-0.128-0.158-0.199-0.23
		c-0.798-0.8-1.598-1.6-2.398-2.399c-0.052-0.052-0.1-0.106-0.15-0.159c3.006-2.635,8.239-3.059,11.831,0.493
		C609.182,50.675,609.004,55.916,606.229,59.135z"/>
</g>
<g display="none">
	<path fill="#FFFFFF" d="M609.834,63.841c-6.929,0-13.86,0-20.793,0c0-6.931,0-13.862,0-20.796c6.928,0,13.858,0,20.793,0
		C609.834,49.974,609.834,56.907,609.834,63.841z M592.741,51.987c0.983,0.983,1.948,1.952,2.92,2.914
		c0.127,0.125,0.133,0.202,0.023,0.345c-2.108,2.742-4.21,5.488-6.313,8.234c-0.042,0.055-0.081,0.113-0.122,0.17
		c0.011,0.01,0.022,0.02,0.033,0.03c2.858-2.189,5.717-4.379,8.604-6.59c1.035,1.035,2.052,2.053,3.081,3.082
		c0.195-0.222,0.399-0.438,0.587-0.668c0.796-0.974,1.315-2.07,1.47-3.331c0.087-0.705,0.057-1.405-0.058-2.102
		c-0.025-0.155,0.019-0.243,0.143-0.337c1.79-1.358,3.577-2.721,5.363-4.084c0.344-0.263,0.697-0.517,1.019-0.805
		c0.344-0.307,0.364-0.766,0.085-1.135c-0.065-0.086-0.142-0.164-0.218-0.24c-1.306-1.307-2.613-2.614-3.922-3.92
		c-0.091-0.09-0.185-0.18-0.29-0.252c-0.3-0.205-0.644-0.193-0.919,0.039c-0.118,0.099-0.218,0.222-0.314,0.344
		c-1.607,2.043-3.214,4.086-4.815,6.133c-0.091,0.116-0.178,0.159-0.323,0.138c-0.665-0.099-1.332-0.124-2.003-0.045
		C595.176,50.095,593.878,50.858,592.741,51.987z"/>
	<path display="inline" d="M87.844,220.454c28.245-28.073,60.488-47.015,100.164-51.665c16.658-1.952,33.235-1.322,49.765,1.13
		c3.592,0.533,5.76-0.535,8.019-3.423c39.799-50.859,79.713-101.628,119.648-152.38c2.381-3.026,4.878-6.072,7.8-8.541
		c6.827-5.768,15.378-6.071,22.829-0.977c2.615,1.787,4.963,4.023,7.216,6.271c32.506,32.44,64.98,64.913,97.443,97.397
		c1.899,1.9,3.797,3.841,5.416,5.975c6.937,9.148,6.441,20.561-2.112,28.189c-8.011,7.145-16.77,13.466-25.319,19.992
		c-44.38,33.876-88.773,67.735-133.257,101.472c-3.072,2.33-4.177,4.51-3.545,8.37c2.836,17.327,3.591,34.707,1.431,52.232
		c-3.859,31.311-16.749,58.55-36.537,82.755c-4.669,5.711-9.736,11.097-14.593,16.602c-25.578-25.588-50.852-50.871-76.559-76.587
		C143.93,402.201,72.906,456.6,1.882,511c-0.273-0.252-0.546-0.503-0.819-0.755c1.009-1.409,1.978-2.847,3.031-4.222
		c52.254-68.222,104.485-136.461,156.862-204.588c2.737-3.56,2.586-5.465-0.562-8.578
		C136.241,268.965,112.275,244.883,87.844,220.454z"/>
</g>
<g display="none">
	<path fill="#FFFFFF" d="M609.834,63.841c-6.929,0-13.86,0-20.793,0c0-6.931,0-13.862,0-20.796c6.928,0,13.858,0,20.793,0
		C609.834,49.974,609.834,56.907,609.834,63.841z M609.762,48.248c0.004-0.318-0.171-0.545-0.382-0.755
		c-1.322-1.321-2.643-2.642-3.965-3.963c-0.072-0.072-0.146-0.142-0.227-0.203c-0.332-0.247-0.716-0.226-1.014,0.059
		c-0.107,0.102-0.2,0.22-0.292,0.337c-1.598,2.032-3.195,4.066-4.793,6.099c-0.136,0.173-0.334,0.19-0.501,0.041
		c-0.045-0.04-0.087-0.086-0.13-0.129c-1.972-1.972-3.945-3.945-5.918-5.916c-0.09-0.09-0.189-0.176-0.296-0.245
		c-0.383-0.251-0.927-0.083-1.111,0.337c-0.155,0.353-0.073,0.67,0.26,1.003c5.524,5.524,11.048,11.049,16.574,16.572
		c0.081,0.081,0.17,0.156,0.265,0.219c0.378,0.251,0.933,0.086,1.116-0.328c0.161-0.365,0.087-0.664-0.25-1.002
		c-1.967-1.968-3.935-3.935-5.903-5.903c-0.048-0.048-0.099-0.093-0.142-0.145c-0.143-0.176-0.11-0.461,0.067-0.595
		c0.754-0.574,1.508-1.148,2.261-1.723c1.308-0.997,2.616-1.995,3.924-2.992C609.56,48.822,609.765,48.597,609.762,48.248z
		 M589.249,63.646c0.011,0.012,0.022,0.023,0.033,0.035c2.859-2.189,5.717-4.379,8.607-6.593c1.034,1.037,2.05,2.055,3.068,3.076
		c0.531-0.534,0.985-1.127,1.348-1.791c0.088-0.16,0.089-0.252-0.05-0.391c-2.441-2.43-4.876-4.868-7.312-7.304
		c-0.034-0.034-0.062-0.079-0.102-0.097c-0.046-0.021-0.115-0.042-0.154-0.023c-0.724,0.365-1.366,0.843-1.97,1.46
		c0.065,0.045,0.128,0.075,0.175,0.122c0.92,0.917,1.836,1.839,2.761,2.752c0.133,0.131,0.142,0.208,0.025,0.361
		c-2.108,2.74-4.209,5.486-6.311,8.231C589.327,63.538,589.288,63.592,589.249,63.646z"/>
	<path display="inline" d="M510.865,127.517c0.059,8.67-5.035,14.259-11.398,19.11c-32.502,24.776-64.994,49.565-97.495,74.342
		c-18.725,14.275-37.462,28.533-56.191,42.803c-4.388,3.344-5.216,10.416-1.667,14.795c1.054,1.3,2.337,2.416,3.526,3.605
		c48.892,48.894,97.788,97.782,146.673,146.683c8.39,8.393,10.217,15.828,6.218,24.901c-4.533,10.285-18.333,14.402-27.724,8.155
		c-2.361-1.57-4.584-3.43-6.591-5.436C328.919,319.23,191.65,181.958,54.382,44.685c-8.277-8.278-10.3-16.146-6.458-24.93
		C52.493,9.307,66.022,5.124,75.537,11.37c2.646,1.737,5.1,3.857,7.345,6.099c49.045,48.978,98.049,97.998,147.061,147.009
		c1.071,1.071,2.096,2.192,3.226,3.196c4.159,3.693,9.07,3.278,12.455-1.03c39.696-50.52,79.382-101.047,119.1-151.549
		c2.282-2.902,4.605-5.824,7.262-8.369c7.409-7.097,16.96-7.605,25.205-1.472c2.014,1.498,3.859,3.254,5.64,5.033
		c32.855,32.811,65.682,65.651,98.533,98.465C506.599,113.98,510.956,119.609,510.865,127.517z"/>
	<path display="inline" d="M1.133,510.139c0.979-1.333,1.935-2.683,2.94-3.996c52.24-68.204,104.448-136.434,156.827-204.531
		c2.916-3.791,2.691-5.702-0.62-8.97c-22.983-22.68-45.735-45.593-68.605-68.388c-1.166-1.163-2.733-1.923-4.345-3.03
		c15.022-15.334,30.962-27.211,48.954-36.288c0.96-0.484,2.675,0.035,3.821,0.56c1.004,0.459,1.704,1.584,2.536,2.416
		c60.53,60.529,121.022,121.097,181.688,181.489c3.471,3.455,3.432,5.742,1.252,9.723c-9.033,16.495-20.313,31.221-33.504,44.495
		c-25.316-25.379-50.553-50.679-76.245-76.435C144.019,402.19,72.989,456.595,1.958,511C1.683,510.713,1.408,510.426,1.133,510.139z
		"/>
</g>
</svg>
