<?xml version="1.0" encoding="utf-8"?>
<!-- Generator: Adobe Illustrator 17.0.0, SVG Export Plug-In . SVG Version: 6.00 Build 0)  -->
<!DOCTYPE svg PUBLIC "-//W3C//DTD SVG 1.1//EN" "http://www.w3.org/Graphics/SVG/1.1/DTD/svg11.dtd">
<svg version="1.1" id="Layer_1" xmlns="http://www.w3.org/2000/svg" xmlns:xlink="http://www.w3.org/1999/xlink" x="0px" y="0px"
	 width="512px" height="512px" viewBox="0 0 512 512" enable-background="new 0 0 512 512" xml:space="preserve">
<g>
	<line fill="none" stroke="#B35047" x1="32" y1="0" x2="32" y2="512"/>
	<line fill="none" stroke="#B35047" x1="64" y1="0" x2="64" y2="512"/>
	<line fill="none" stroke="#B35047" x1="96" y1="0" x2="96" y2="512"/>
	<line fill="none" stroke="#B35047" x1="128" y1="0" x2="128" y2="512"/>
	<line fill="none" stroke="#B35047" x1="160" y1="0" x2="160" y2="512"/>
	<line fill="none" stroke="#B35047" x1="192" y1="0" x2="192" y2="512"/>
	<line fill="none" stroke="#B35047" x1="224" y1="0" x2="224" y2="512"/>
	<line fill="none" stroke="#B35047" x1="256" y1="0" x2="256" y2="512"/>
	<line fill="none" stroke="#B35047" x1="288" y1="0" x2="288" y2="512"/>
	<line fill="none" stroke="#B35047" x1="320" y1="0" x2="320" y2="512"/>
	<line fill="none" stroke="#B35047" x1="352" y1="0" x2="352" y2="512"/>
	<line fill="none" stroke="#B35047" x1="384" y1="0" x2="384" y2="512"/>
	<line fill="none" stroke="#B35047" x1="416" y1="0" x2="416" y2="512"/>
	<line fill="none" stroke="#B35047" x1="448" y1="0" x2="448" y2="512"/>
	<line fill="none" stroke="#B35047" x1="480" y1="0" x2="480" y2="512"/>
	<line fill="none" stroke="#B35047" x1="0" y1="32" x2="512" y2="32"/>
	<line fill="none" stroke="#B35047" x1="0" y1="64" x2="512" y2="64"/>
	<line fill="none" stroke="#B35047" x1="0" y1="96" x2="512" y2="96"/>
	<line fill="none" stroke="#B35047" x1="0" y1="128" x2="512" y2="128"/>
	<line fill="none" stroke="#B35047" x1="0" y1="160" x2="512" y2="160"/>
	<line fill="none" stroke="#B35047" x1="0" y1="192" x2="512" y2="192"/>
	<line fill="none" stroke="#B35047" x1="0" y1="224" x2="512" y2="224"/>
	<line fill="none" stroke="#B35047" x1="0" y1="256" x2="512" y2="256"/>
	<line fill="none" stroke="#B35047" x1="0" y1="288" x2="512" y2="288"/>
	<line fill="none" stroke="#B35047" x1="0" y1="320" x2="512" y2="320"/>
	<line fill="none" stroke="#B35047" x1="0" y1="352" x2="512" y2="352"/>
	<line fill="none" stroke="#B35047" x1="0" y1="384" x2="512" y2="384"/>
	<line fill="none" stroke="#B35047" x1="0" y1="416" x2="512" y2="416"/>
	<line fill="none" stroke="#B35047" x1="0" y1="448" x2="512" y2="448"/>
	<line fill="none" stroke="#B35047" x1="0" y1="480" x2="512" y2="480"/>
	<rect x="0" fill="none" stroke="#B35047" width="512" height="512"/>
</g>
<g display="none">
	<path fill="#FFFFFF" d="M132.508,511c-43.828,0-87.656,0-131.484,0c0-170,0-340,0-510c13.281,0,26.562,0,39.844,0
		c-0.08,1.812-0.274,3.627-0.223,5.435c0.423,15.097,0.506,30.215,1.431,45.282c1.605,26.158,3.488,52.306,5.759,78.414
		c1.127,12.956,1.637,12.712,14.635,12.979c4.101,0.084,5.738-1.394,7.094-5.027c11.817-31.67,23.874-63.251,35.692-94.921
		c1.227-3.287,2.687-4.538,6.324-4.517c28.219,0.166,56.44,0.088,84.66,0.103c1.591,0.001,3.181,0.166,4.886,0.26
		c0.081,1.784,0.192,3.093,0.192,4.401c0.008,141.433-0.006,282.867,0.082,424.3c0.002,3.693-1.068,4.86-4.762,5.738
		c-20.125,4.788-40.133,10.063-60.201,15.093c-3.042,0.763-4.377,2.244-4.197,5.542C132.546,499.711,132.441,505.36,132.508,511z"/>
	<path fill="#FFFFFF" d="M471.18,1c13.272,0,26.543,0,39.796,0c0,170,0,340,0,510c-43.844,0-87.64,0-131.436,0
		c0.068-5.306-0.146-10.635,0.295-15.91c0.346-4.138-1.276-6.016-5.105-6.964c-19.267-4.766-38.456-9.858-57.787-14.34
		c-4.326-1.003-5.466-2.501-5.462-6.759c0.108-140.879,0.089-281.759,0.089-422.639c0-1.754,0-3.508,0-5.652c2.165,0,3.628,0,5.09,0
		c27.877,0,55.755,0.079,83.631-0.092c3.836-0.023,5.325,1.314,6.617,4.815c11.699,31.699,23.668,63.299,35.428,94.976
		c1.19,3.206,2.571,4.685,6.318,4.662c15.338-0.092,15.482,0.066,16.487-15.425c2.008-30.951,3.997-61.906,5.666-92.876
		C471.413,23.558,471.083,12.267,471.18,1z"/>
	<path display="inline" d="M471.27,1c-0.097,11.267,0.233,22.558-0.373,33.798c-1.669,30.971-3.658,61.925-5.666,92.876
		c-1.005,15.491-1.149,15.333-16.487,15.425c-3.747,0.023-5.128-1.456-6.318-4.662c-11.76-31.677-23.729-63.276-35.428-94.976
		c-1.292-3.501-2.781-4.839-6.617-4.815c-27.876,0.17-55.754,0.091-83.631,0.092c-1.463,0-2.925,0-5.09,0c0,2.144,0,3.898,0,5.652
		c0,140.88,0.018,281.759-0.089,422.639c-0.003,4.258,1.136,5.756,5.462,6.759c19.331,4.482,38.52,9.574,57.787,14.34
		c3.829,0.947,5.451,2.825,5.105,6.964c-0.441,5.275-0.227,10.604-0.295,15.91c-82.344,0-164.687,0-247.031,0
		c-0.068-5.64,0.038-11.289-0.269-16.916c-0.18-3.298,1.155-4.78,4.197-5.542c20.068-5.031,40.076-10.306,60.201-15.093
		c3.693-0.879,4.764-2.046,4.762-5.738c-0.088-141.433-0.074-282.867-0.082-424.3c0-1.308-0.111-2.617-0.192-4.401
		c-1.705-0.095-3.295-0.259-4.886-0.26c-28.22-0.016-56.441,0.063-84.66-0.103c-3.638-0.021-5.098,1.23-6.324,4.517
		c-11.818,31.67-23.875,63.251-35.692,94.921c-1.356,3.633-2.993,5.112-7.094,5.027c-12.998-0.267-13.508-0.024-14.635-12.979
		c-2.27-26.108-4.153-52.256-5.759-78.414C41.24,36.65,41.157,21.531,40.734,6.435C40.683,4.627,40.877,2.812,40.957,1
		C184.395,1,327.832,1,471.27,1z"/>
</g>
<image display="none" overflow="visible" width="512" height="512" xlink:href="../../../Knowledge/Icon/[+++++] (Full) Windows 8 Icons [icons8]/Image_Edition_Tools/screenshot/screenshot-512.png"  transform="matrix(0.0406 0 0 0.0406 572 39)">
</image>
<image display="none" overflow="visible" width="512" height="512" xlink:href="../../../Knowledge/Icon/[+++++] (Full) Windows 8 Icons [icons8]/Image_Edition_Tools/pencil/pencil-512.png"  transform="matrix(0.0406 0 0 0.0406 572 39)">
</image>
<image display="none" overflow="visible" width="512" height="512" xlink:href="../../../Knowledge/Icon/[+++++] (Full) Windows 8 Icons [icons8]/Image_Edition_Tools/eraser/eraser-512.png"  transform="matrix(0.0406 0 0 0.0406 572 39)">
</image>
<g>
	<path display="none" fill="#FFFFFF" d="M572.041,59.841c0-6.931,0-13.863,0-20.797c6.929,0,13.859,0,20.794,0
		c0,6.93,0,13.864,0,20.797C585.905,59.841,578.973,59.841,572.041,59.841z M577.284,57.185c0.346-0.434,0.676-0.853,1.012-1.267
		c0.487-0.599,0.973-1.198,1.469-1.788c0.198-0.235,0.23-0.474,0.118-0.751c-0.265-0.655-0.74-1.102-1.37-1.4
		c-0.309-0.147-0.581-0.131-0.856,0.11c-0.819,0.719-1.652,1.421-2.483,2.127c-0.152,0.129-0.316,0.245-0.51,0.395
		c-0.058-0.078-0.096-0.144-0.148-0.197c-0.39-0.395-0.783-0.787-1.176-1.179c-0.162-0.162-0.355-0.221-0.576-0.152
		c-0.221,0.07-0.351,0.234-0.381,0.458c-0.091,0.67-0.222,1.339-0.245,2.012c-0.04,1.182-0.017,2.367-0.008,3.551
		c0.003,0.428,0.217,0.627,0.641,0.649c1.326,0.07,2.652,0.089,3.975-0.042c0.531-0.053,1.06-0.131,1.588-0.214
		c0.341-0.054,0.546-0.323,0.476-0.634c-0.03-0.135-0.123-0.271-0.222-0.373C578.167,58.053,577.73,57.628,577.284,57.185z
		 M577.244,41.675c0.098-0.067,0.167-0.102,0.22-0.154c0.395-0.39,0.786-0.784,1.179-1.176c0.162-0.162,0.226-0.354,0.158-0.574
		c-0.071-0.23-0.241-0.359-0.474-0.39c-0.657-0.088-1.313-0.219-1.972-0.24c-1.196-0.039-2.394-0.017-3.591-0.008
		c-0.413,0.003-0.612,0.221-0.635,0.635c-0.099,1.842-0.081,3.679,0.241,5.504c0.043,0.244,0.14,0.443,0.385,0.526
		c0.245,0.083,0.446-0.006,0.622-0.184c0.385-0.39,0.775-0.776,1.163-1.163c0.051-0.051,0.105-0.098,0.164-0.154
		c0.355,0.28,0.699,0.543,1.034,0.816c0.677,0.551,1.354,1.102,2.023,1.663c0.231,0.193,0.467,0.219,0.734,0.11
		c0.711-0.29,1.185-0.809,1.46-1.518c0.091-0.234,0.058-0.444-0.112-0.639c-0.352-0.402-0.695-0.812-1.042-1.22
		C578.299,42.916,577.795,42.323,577.244,41.675z M587.59,41.706c-0.337,0.422-0.663,0.836-0.996,1.245
		c-0.487,0.599-0.971,1.199-1.47,1.787c-0.212,0.249-0.238,0.502-0.117,0.788c0.281,0.663,0.769,1.115,1.423,1.401
		c0.281,0.123,0.526,0.095,0.766-0.116c0.671-0.59,1.351-1.169,2.032-1.748c0.308-0.262,0.627-0.512,0.998-0.814
		c0.049,0.08,0.077,0.154,0.129,0.207c0.385,0.391,0.775,0.776,1.16,1.166c0.171,0.173,0.368,0.252,0.606,0.174
		c0.24-0.078,0.345-0.264,0.387-0.501c0.326-1.844,0.347-3.702,0.241-5.564c-0.021-0.371-0.22-0.577-0.587-0.598
		c-1.869-0.108-3.733-0.085-5.584,0.241c-0.238,0.042-0.423,0.154-0.498,0.392c-0.071,0.228,0.002,0.424,0.169,0.59
		c0.394,0.391,0.786,0.784,1.178,1.177C587.479,41.586,587.528,41.64,587.59,41.706z M587.603,57.164
		c-0.081,0.085-0.131,0.14-0.183,0.192c-0.388,0.388-0.774,0.776-1.164,1.162c-0.173,0.172-0.249,0.369-0.169,0.607
		c0.08,0.24,0.266,0.349,0.504,0.382c0.442,0.062,0.883,0.128,1.326,0.179c1.417,0.162,2.837,0.14,4.258,0.06
		c0.348-0.02,0.541-0.222,0.573-0.568c0.019-0.209,0.031-0.419,0.037-0.628c0.051-1.653,0.02-3.302-0.272-4.936
		c-0.044-0.244-0.137-0.443-0.383-0.528c-0.245-0.084-0.447,0.002-0.623,0.181c-0.385,0.39-0.774,0.776-1.163,1.164
		c-0.051,0.051-0.105,0.099-0.166,0.157c-0.353-0.278-0.697-0.541-1.032-0.814c-0.672-0.547-1.345-1.092-2.006-1.652
		c-0.251-0.212-0.505-0.235-0.789-0.113c-0.689,0.297-1.156,0.806-1.425,1.502c-0.09,0.234-0.06,0.444,0.111,0.64
		c0.352,0.403,0.694,0.813,1.041,1.22C586.581,55.963,587.085,56.555,587.603,57.164z"/>
	<path d="M129.145,446.491c10.982,10.909,21.712,21.344,32.128,32.084c2.434,2.509,4.726,5.847,5.47,9.165
		c1.714,7.643-3.326,14.27-11.717,15.597c-12.973,2.052-25.99,3.972-39.055,5.271c-32.55,3.236-65.171,2.771-97.791,1.037
		c-10.449-0.556-15.699-5.447-15.776-15.972c-0.215-29.118-0.786-58.262,0.196-87.349c0.559-16.551,3.787-33.022,6.023-49.501
		c0.749-5.517,3.935-9.549,9.384-11.265c5.416-1.705,10.178-0.235,14.16,3.741c9.663,9.649,19.325,19.299,28.927,29.007
		c1.278,1.292,2.21,2.927,3.629,4.845c4.771-3.676,8.801-6.524,12.545-9.706c20.425-17.361,40.931-34.631,61.073-52.314
		c6.776-5.949,13.456-6.324,21.069-2.718c15.478,7.333,27.168,18.331,33.692,34.449c2.759,6.816,1.952,12.705-2.91,18.481
		c-12.22,14.519-24.176,29.263-36.144,43.993C145.779,425.514,137.665,435.82,129.145,446.491z"/>
	<path d="M128.164,64.949c13.559,15.953,25.94,30.53,38.332,45.098c8.521,10.018,16.968,20.102,25.626,30.001
		c4.201,4.804,4.997,9.975,2.765,15.73c-6.765,17.435-18.41,30.201-35.908,37.335c-6.571,2.679-12.381,2.053-18.057-2.707
		c-16.455-13.798-33.105-27.365-49.766-40.915c-8.255-6.713-16.702-13.188-25.443-20.07c-1.46,1.363-2.788,2.533-4.039,3.78
		c-9.553,9.522-19.138,19.013-28.613,28.613c-4.332,4.389-9.294,6.57-15.312,4.534c-6.04-2.043-8.416-6.93-9.476-12.936
		C0.347,108.537-0.105,63.349,2.342,18.028C2.892,7.844,7.801,2.492,17.954,2.415c29.449-0.224,58.924-0.763,88.344,0.197
		c16.219,0.529,32.358,3.742,48.51,5.91c5.724,0.768,9.92,3.94,11.658,9.597c1.667,5.424,0.089,10.15-3.892,14.126
		c-9.662,9.649-19.291,19.331-29.006,28.926C132.278,62.445,130.567,63.293,128.164,64.949z"/>
	<path d="M382.675,65.707c-1.531-1.614-2.74-2.947-4.01-4.22c-9.646-9.665-19.279-19.343-28.97-28.963
		c-4.129-4.099-5.917-8.917-4.168-14.519c1.829-5.859,6.394-8.609,12.242-9.64c45.53-8.027,91.385-8.6,137.369-5.936
		c9.026,0.523,13.918,5.581,14.436,14.708c2.6,45.819,2.072,91.509-5.937,136.874c-1.029,5.826-3.601,10.397-9.509,12.32
		c-5.869,1.911-10.696-0.02-14.909-4.277c-9.488-9.587-19.089-19.063-28.548-28.678c-1.267-1.288-1.975-3.124-3.173-5.086
		c-9.133,7.428-16.969,13.572-24.551,20.015c-16.746,14.232-33.471,28.493-49.978,43c-5.901,5.187-11.933,5.871-18.844,2.852
		c-16.074-7.021-28.085-18.145-34.997-34.457c-2.985-7.045-2.327-13.265,2.881-19.395c12.286-14.462,24.201-29.24,36.173-43.966
		C366.36,86.28,374.382,76.091,382.675,65.707z"/>
	<path d="M382.984,445.98c-12.749-14.985-25.143-29.552-37.537-44.12c-8.522-10.017-16.953-20.115-25.603-30.02
		c-4.204-4.814-4.945-9.99-2.721-15.738c6.62-17.103,18.102-29.639,35.05-36.941c6.997-3.015,13.242-2.446,19.407,2.772
		c16.264,13.765,32.821,27.186,49.352,40.632c8.253,6.713,16.703,13.183,25.388,20.017c1.498-1.406,2.829-2.593,4.09-3.851
		c9.548-9.528,19.127-19.025,28.6-28.626c4.338-4.396,9.303-6.52,15.322-4.452c6.046,2.078,8.346,6.989,9.416,12.981
		c7.18,40.21,7.953,80.762,6.7,121.428c-0.159,5.156-0.456,10.315-0.918,15.452c-0.766,8.523-5.531,13.5-14.084,13.983
		c-34.941,1.972-69.883,2.494-104.738-1.484c-10.902-1.244-21.759-2.888-32.629-4.403c-5.852-0.816-10.426-3.489-12.395-9.39
		c-1.955-5.857-0.097-10.708,4.162-14.931c9.579-9.496,19.097-19.054,28.631-28.596C379.757,449.413,380.981,448.078,382.984,445.98
		z"/>
</g>
<g display="none">
	<path fill="#FFFFFF" d="M572.041,39.041c6.933,0,13.867,0,20.8,0c0,6.933,0,13.867,0,20.8c-6.933,0-13.867,0-20.8,0
		C572.041,52.907,572.041,45.974,572.041,39.041z M587.477,41.835c-0.068-0.096-0.104-0.165-0.156-0.217
		c-0.385-0.39-0.775-0.776-1.16-1.166c-0.167-0.168-0.362-0.24-0.59-0.171c-0.24,0.072-0.356,0.256-0.395,0.494
		c-0.045,0.28-0.095,0.56-0.13,0.842c-0.195,1.563-0.212,3.131-0.116,4.702c0.026,0.419,0.221,0.612,0.639,0.635
		c1.842,0.102,3.679,0.077,5.504-0.241c0.243-0.042,0.444-0.139,0.525-0.387c0.08-0.245-0.008-0.446-0.186-0.623
		c-0.391-0.385-0.776-0.775-1.163-1.163c-0.05-0.051-0.098-0.105-0.152-0.163c0.276-0.351,0.535-0.689,0.803-1.02
		c0.555-0.683,1.111-1.365,1.676-2.039c0.194-0.231,0.217-0.467,0.108-0.734c-0.286-0.705-0.8-1.175-1.498-1.453
		c-0.248-0.099-0.468-0.062-0.675,0.12c-0.39,0.345-0.791,0.679-1.188,1.016C588.725,40.774,588.127,41.282,587.477,41.835z
		 M574.787,54.503c-0.276,0.35-0.539,0.693-0.812,1.029c-0.551,0.677-1.101,1.355-1.663,2.023c-0.199,0.237-0.224,0.477-0.112,0.752
		c0.275,0.676,0.769,1.131,1.428,1.42c0.28,0.123,0.526,0.096,0.766-0.115c0.671-0.59,1.351-1.169,2.032-1.748
		c0.308-0.262,0.627-0.512,0.996-0.813c0.049,0.078,0.078,0.152,0.13,0.204c0.389,0.396,0.783,0.787,1.175,1.18
		c0.167,0.168,0.365,0.234,0.592,0.161c0.221-0.07,0.348-0.237,0.378-0.461c0.091-0.684,0.221-1.367,0.246-2.053
		c0.041-1.142,0.019-2.286,0.01-3.429c-0.005-0.534-0.196-0.723-0.733-0.727c-1.143-0.009-2.288-0.031-3.429,0.01
		c-0.686,0.025-1.369,0.157-2.053,0.248c-0.226,0.03-0.391,0.162-0.459,0.381c-0.067,0.217-0.008,0.414,0.154,0.576
		c0.397,0.397,0.794,0.795,1.191,1.192C574.677,54.386,574.727,54.44,574.787,54.503z M574.792,44.377
		c-0.443,0.444-0.864,0.873-1.294,1.295c-0.188,0.184-0.3,0.386-0.213,0.652c0.088,0.267,0.304,0.363,0.563,0.391
		c0.813,0.087,1.624,0.22,2.44,0.251c1.026,0.038,2.056,0.002,3.084-0.021c0.36-0.008,0.545-0.221,0.577-0.584
		c0.013-0.155,0.018-0.311,0.025-0.466c0.076-1.715,0.031-3.423-0.269-5.118c-0.042-0.237-0.154-0.424-0.394-0.496
		c-0.227-0.068-0.424,0.005-0.59,0.172c-0.391,0.394-0.785,0.785-1.178,1.177c-0.051,0.051-0.105,0.1-0.165,0.158
		c-0.348-0.274-0.687-0.532-1.017-0.801c-0.683-0.555-1.365-1.111-2.039-1.676c-0.238-0.2-0.48-0.22-0.753-0.108
		c-0.695,0.288-1.161,0.797-1.438,1.488c-0.099,0.246-0.068,0.467,0.115,0.676c0.591,0.679,1.176,1.363,1.759,2.049
		C574.271,43.728,574.526,44.051,574.792,44.377z M590.082,54.512c0.073-0.076,0.122-0.13,0.174-0.182
		c0.393-0.392,0.786-0.784,1.179-1.176c0.168-0.167,0.234-0.365,0.162-0.592c-0.073-0.23-0.249-0.353-0.48-0.383
		c-0.677-0.088-1.353-0.218-2.033-0.242c-1.142-0.04-2.286-0.019-3.429-0.01c-0.534,0.005-0.724,0.197-0.728,0.731
		c-0.009,1.143-0.032,2.287,0.01,3.429c0.025,0.686,0.156,1.369,0.248,2.053c0.03,0.225,0.161,0.391,0.38,0.459
		c0.218,0.068,0.414,0.008,0.576-0.154c0.398-0.397,0.795-0.794,1.193-1.191c0.052-0.052,0.106-0.101,0.169-0.162
		c0.35,0.275,0.693,0.538,1.028,0.811c0.677,0.551,1.355,1.101,2.023,1.663c0.245,0.206,0.493,0.224,0.771,0.106
		c0.691-0.294,1.157-0.804,1.428-1.498c0.094-0.241,0.059-0.456-0.117-0.657c-0.441-0.505-0.874-1.016-1.308-1.526
		C590.914,55.503,590.502,55.011,590.082,54.512z"/>
	<path display="inline" d="M379.921,68.922c16.005-13.598,30.716-26.086,45.413-38.587c9.767-8.307,19.623-16.514,29.229-25.004
		c5.083-4.492,10.504-5.394,16.608-2.963c17.192,6.847,29.828,18.418,36.869,35.758c2.667,6.567,2.098,12.381-2.668,18.067
		c-13.906,16.588-27.583,33.37-41.24,50.164c-6.61,8.128-12.976,16.454-19.769,25.092c1.33,1.432,2.49,2.76,3.731,4.006
		c9.523,9.556,19.013,19.147,28.62,28.618c4.395,4.333,6.557,9.296,4.584,15.318c-1.996,6.09-6.935,8.472-12.913,9.517
		c-44.885,7.846-90.083,8.456-135.416,5.941c-10.285-0.571-15.076-5.309-15.711-15.624c-2.377-38.64-1.946-77.221,2.851-115.682
		c0.864-6.929,2.09-13.815,3.2-20.712c0.944-5.864,3.799-10.386,9.711-12.155c5.617-1.681,10.422,0.074,14.518,4.215
		c9.488,9.59,19.072,19.087,28.549,28.689C377.362,64.87,378.243,66.552,379.921,68.922z"/>
	<path display="inline" d="M67.697,380.622c-1.48-1.548-2.699-2.871-3.969-4.144c-9.765-9.786-19.536-19.566-29.313-29.34
		c-4.003-4.002-5.443-8.848-3.801-14.183c1.659-5.391,5.731-8.637,11.284-9.376c16.816-2.24,33.617-5.477,50.505-6.091
		c28.093-1.021,56.25-0.465,84.378-0.246c13.2,0.103,17.916,4.746,18.03,17.881c0.242,28.125,0.777,56.28-0.237,84.371
		c-0.61,16.89-3.825,33.694-6.053,50.512c-0.732,5.528-3.863,9.615-9.291,11.35c-5.593,1.787-10.464,0.161-14.573-3.964
		c-9.639-9.677-19.329-19.303-28.906-29.041c-1.269-1.29-2.002-3.109-3.199-5.031c-9.08,7.39-16.921,13.545-24.511,19.994
		c-16.751,14.234-33.484,28.494-49.996,43.002c-5.909,5.192-11.962,5.849-18.853,2.825c-16.22-7.118-28.372-18.299-35.146-34.934
		c-2.75-6.753-2.139-12.665,2.759-18.494c13.818-16.445,27.369-33.115,40.92-49.783C54.434,397.679,60.911,389.237,67.697,380.622z"
		/>
	<path display="inline" d="M67.804,131.484c-6.539-8.019-12.806-15.967-19.352-23.678C34.119,90.922,19.727,74.084,5.178,57.386
		c-4.482-5.143-5.25-10.574-2.82-16.633c6.817-16.994,18.282-29.53,35.39-36.604c6.712-2.776,12.669-2.263,18.516,2.648
		c16.576,13.921,33.364,27.591,50.159,41.248c8.125,6.607,16.453,12.965,25.026,19.701c1.488-1.417,2.803-2.62,4.064-3.877
		c9.671-9.644,19.361-19.27,28.981-28.964c4.1-4.132,8.93-5.928,14.523-4.244c5.885,1.772,8.654,6.363,9.686,12.205
		c7.366,41.705,8.476,83.738,6.615,125.926c-0.169,3.827-0.279,7.66-0.612,11.474c-0.78,8.938-5.339,14.178-14.192,14.377
		c-25.293,0.569-50.631,1.469-75.888,0.526c-20.057-0.748-40.019-4.024-60.025-6.166c-6.387-0.684-11.691-3.052-13.862-9.626
		c-2.155-6.525,0.621-11.499,5.238-16.034C46.536,152.972,56.91,142.413,67.804,131.484z"/>
	<path display="inline" d="M444.02,380.85c10.334,12.276,20.465,24.389,30.683,36.428c10.667,12.569,21.328,25.144,32.173,37.558
		c4.327,4.954,5.188,10.234,2.871,16.17c-6.666,17.08-18.124,29.624-35.132,36.856c-6.833,2.906-12.951,2.471-18.975-2.6
		c-16.43-13.833-33.106-27.375-49.773-40.925c-8.252-6.709-16.697-13.181-25.305-19.958c-1.551,1.483-2.874,2.704-4.149,3.974
		c-9.79,9.759-19.568,19.531-29.356,29.293c-3.995,3.985-8.819,5.457-14.179,3.787c-5.405-1.685-8.618-5.763-9.357-11.301
		c-2.245-16.814-5.478-33.615-6.091-50.502c-1.02-28.091-0.463-56.246-0.243-84.372c0.103-13.155,4.778-17.885,17.921-17.997
		c28.125-0.24,56.278-0.76,84.37,0.237c16.724,0.593,33.364,3.774,50.021,5.947c5.699,0.743,10.023,3.763,11.813,9.425
		c1.769,5.596,0.133,10.461-3.995,14.567c-9.683,9.631-19.348,19.28-29.011,28.932C447.028,377.644,445.807,378.977,444.02,380.85z"
		/>
</g>
<g display="none">
	<path fill="#FFFFFF" d="M582.766,59.841c-3.574,0-7.148,0-10.724,0c0-6.931,0-13.862,0-20.796c6.928,0,13.857,0,20.792,0
		c0,6.929,0,13.863,0,20.796c-3.286,0-6.576,0-9.865,0c0.072-0.014,0.144-0.03,0.217-0.041c0.474-0.072,0.953-0.118,1.421-0.219
		c0.733-0.158,1.119-0.783,0.956-1.488c-0.138-0.597-0.775-0.965-1.442-0.848c-0.452,0.079-0.907,0.142-1.363,0.2
		c-0.501,0.063-0.865,0.307-1.034,0.787c-0.175,0.495-0.068,0.951,0.338,1.282C582.255,59.672,582.528,59.735,582.766,59.841z
		 M579.74,43.571c0.663-0.288,1.341-0.443,2.035-0.504c1.966-0.17,3.746,0.349,5.245,1.627c2.107,1.796,2.94,4.1,2.505,6.845
		c-0.115,0.723,0.28,1.344,0.976,1.462c0.628,0.107,1.243-0.309,1.373-1.022c0.189-1.042,0.233-2.09,0.055-3.13
		c-0.603-3.533-2.551-6.061-5.841-7.466c-2.533-1.082-5.102-0.981-7.621,0.139c-0.144,0.064-0.208,0.034-0.293-0.085
		c-0.453-0.632-0.914-1.259-1.374-1.887c-0.06-0.082-0.121-0.164-0.193-0.235c-0.26-0.257-0.575-0.221-0.767,0.087
		c-0.057,0.091-0.099,0.192-0.14,0.292c-0.606,1.446-1.211,2.893-1.815,4.339c-0.336,0.804-0.678,1.607-1.003,2.415
		c-0.215,0.534,0.041,0.852,0.613,0.788c0.027-0.003,0.053-0.01,0.08-0.013c1.004-0.143,2.008-0.285,3.012-0.428
		c1.385-0.198,2.771-0.392,4.156-0.596c0.529-0.078,0.629-0.326,0.333-0.78c-0.055-0.085-0.116-0.167-0.175-0.249
		c-0.343-0.47-0.686-0.94-1.029-1.411C579.829,43.7,579.788,43.64,579.74,43.571z M588.001,57.777
		c0.097-0.027,0.29-0.042,0.439-0.131c0.665-0.4,1.182-0.966,1.601-1.607c0.349-0.533,0.205-1.154-0.289-1.553
		c-0.44-0.355-1.101-0.33-1.537,0.093c-0.411,0.399-0.804,0.819-1.182,1.25c-0.336,0.383-0.376,0.831-0.154,1.285
		C587.084,57.538,587.445,57.748,588.001,57.777z M580.125,57.85c0.018-0.008,0.036-0.015,0.054-0.023
		c-0.094-0.218-0.15-0.465-0.292-0.646c-0.143-0.182-0.361-0.315-0.564-0.44c-0.419-0.258-0.841-0.514-1.278-0.739
		c-0.486-0.251-1.086-0.083-1.428,0.365c-0.33,0.432-0.34,1.073,0.037,1.455c0.553,0.561,1.24,0.937,1.98,1.184
		C579.386,59.258,580.147,58.642,580.125,57.85z M574.39,51.407c-0.759-0.04-1.378,0.75-1.144,1.518
		c0.17,0.559,0.411,1.098,0.641,1.637c0.104,0.245,0.287,0.441,0.535,0.562c0.494,0.24,1.031,0.157,1.402-0.215
		c0.343-0.343,0.422-0.899,0.216-1.374c-0.18-0.414-0.348-0.833-0.505-1.257C575.335,51.735,574.954,51.436,574.39,51.407z"/>
	<path display="inline" d="M264.432,511c-5.85-2.612-12.578-4.148-17.368-8.058c-9.992-8.157-12.628-19.379-8.321-31.585
		c4.176-11.833,13.153-17.834,25.492-19.395c11.223-1.419,22.44-2.98,33.58-4.929c16.432-2.875,32.13,6.184,35.534,20.905
		c4.018,17.377-5.495,32.773-23.548,36.664c-11.524,2.484-23.336,3.63-35.016,5.398c-1.792,0.271-3.566,0.663-5.349,0.999
		C267.769,511,266.1,511,264.432,511z"/>
	<path display="inline" d="M189.862,110.067c1.194,1.705,2.2,3.193,3.257,4.644c8.444,11.59,16.902,23.17,25.345,34.761
		c1.472,2.021,2.963,4.034,4.325,6.129c7.279,11.193,4.829,17.299-8.217,19.228c-34.116,5.044-68.271,9.826-102.413,14.698
		c-24.741,3.53-49.486,7.036-74.229,10.556c-0.66,0.094-1.311,0.257-1.972,0.331c-14.102,1.587-20.405-6.258-15.109-19.417
		c8.021-19.928,16.441-39.695,24.722-59.519C60.462,85.829,75.369,50.185,90.296,14.55c1.027-2.453,2.063-4.945,3.461-7.191
		c4.726-7.598,12.5-8.475,18.905-2.153c1.768,1.745,3.279,3.776,4.754,5.788c11.331,15.47,22.695,30.916,33.864,46.502
		c2.088,2.914,3.678,3.664,7.226,2.087c62.096-27.601,125.402-30.086,187.811-3.429c81.053,34.621,129.062,96.913,143.925,183.971
		c4.377,25.638,3.301,51.459-1.36,77.136c-3.188,17.567-18.353,27.82-33.827,25.19c-17.16-2.916-26.891-18.207-24.062-36.028
		c10.735-67.637-9.797-124.408-61.721-168.677c-36.938-31.493-80.813-44.288-129.251-40.089
		C222.917,99.141,206.198,102.981,189.862,110.067z"/>
	<path display="inline" d="M393.447,460.157c-13.703-0.724-22.589-5.903-27.697-16.34c-5.466-11.169-4.471-22.227,3.807-31.654
		c9.319-10.613,18.997-20.961,29.13-30.794c10.748-10.43,27.046-11.036,37.878-2.299c12.173,9.818,15.726,25.113,7.132,38.259
		c-10.321,15.787-23.047,29.732-39.441,39.597C400.596,459.126,395.826,459.483,393.447,460.157z"/>
	<path display="inline" d="M199.35,461.944c0.542,19.53-18.207,34.701-36.757,28.511c-18.229-6.082-35.159-15.369-48.792-29.183
		c-9.305-9.429-9.044-25.214-0.921-35.864c8.429-11.052,23.212-15.195,35.198-9.006c10.768,5.56,21.175,11.856,31.5,18.219
		c5.004,3.084,10.367,6.347,13.899,10.84c3.494,4.444,4.886,10.541,7.2,15.912C200.235,461.563,199.792,461.753,199.35,461.944z"/>
	<path display="inline" d="M58.03,303.166c13.905,0.73,23.281,8.088,28.223,21.464c3.854,10.43,8.008,20.764,12.434,30.964
		c5.077,11.7,3.13,25.4-5.313,33.858c-9.15,9.166-22.377,11.214-34.557,5.295c-6.101-2.965-10.602-7.814-13.174-13.842
		c-5.666-13.281-11.598-26.557-15.798-40.33C24.074,321.649,39.322,302.183,58.03,303.166z"/>
</g>
<g display="none">
	<path fill="#FFFFFF" d="M591.134,59.841c-0.989,0-1.977,0-2.966,0c0.267-0.075,0.507-0.194,0.629-0.461
		c0.238-0.521-0.112-1.103-0.688-1.121c-0.561-0.017-1.123-0.006-1.685-0.003c-0.073,0-0.148,0.017-0.22,0.035
		c-0.426,0.111-0.665,0.596-0.518,1.012c0.106,0.3,0.346,0.43,0.613,0.537c-0.975,0-1.95,0-2.925,0
		c0.151-0.082,0.328-0.136,0.447-0.251c0.236-0.228,0.306-0.517,0.175-0.835c-0.132-0.322-0.379-0.489-0.72-0.497
		c-0.467-0.011-0.934-0.013-1.401,0c-0.193,0.005-0.251-0.047-0.251-0.245c0.007-2.153,0.006-4.305,0.001-6.458
		c0-0.169,0.048-0.289,0.168-0.408c1.669-1.662,3.333-3.329,4.999-4.995c0.046-0.046,0.097-0.089,0.159-0.146
		c0.358,0.358,0.706,0.706,1.054,1.055c0.206,0.206,0.407,0.417,0.621,0.614c0.056,0.052,0.161,0.095,0.228,0.078
		c0.052-0.013,0.094-0.122,0.112-0.195c0.029-0.117,0.034-0.241,0.049-0.361c0.185-1.483,0.369-2.966,0.557-4.448
		c0.043-0.341-0.096-0.483-0.435-0.44c-1.389,0.175-2.778,0.348-4.167,0.521c-0.221,0.028-0.444,0.049-0.664,0.087
		c-0.219,0.037-0.258,0.154-0.118,0.323c0.034,0.042,0.075,0.078,0.113,0.117c0.474,0.474,0.948,0.948,1.421,1.422
		c0.051,0.051,0.098,0.105,0.146,0.156c-0.025,0.033-0.036,0.051-0.05,0.065c-1.718,1.719-3.435,3.438-5.157,5.153
		c-0.058,0.058-0.164,0.094-0.248,0.097c-0.331,0.011-0.663,0.005-0.995,0.005c-1.855,0-3.709-0.002-5.564,0.004
		c-0.176,0.001-0.238-0.042-0.23-0.225c0.015-0.338,0.009-0.677,0.003-1.015c-0.004-0.209,0.003-0.423-0.042-0.625
		c-0.096-0.429-0.593-0.67-1.006-0.521c-0.306,0.111-0.445,0.353-0.539,0.637c0-0.989,0-1.977,0-2.966
		c0.083,0.158,0.139,0.341,0.255,0.469c0.22,0.241,0.514,0.29,0.819,0.176c0.323-0.121,0.5-0.367,0.508-0.711
		c0.012-0.467,0.008-0.934,0.004-1.4c-0.001-0.161-0.001-0.327-0.036-0.483c-0.098-0.441-0.59-0.686-1.016-0.534
		c-0.3,0.107-0.429,0.347-0.535,0.616c0-0.989,0-1.977,0-2.966c0.014,0.037,0.031,0.074,0.041,0.112
		c0.086,0.354,0.392,0.607,0.737,0.607c0.38,0.001,0.716-0.24,0.782-0.604c0.03-0.164,0.105-0.198,0.241-0.229
		c0.351-0.079,0.599-0.416,0.582-0.774c-0.022-0.435-0.295-0.654-0.677-0.777c0.989,0,1.977,0,2.966,0
		c-0.267,0.075-0.507,0.194-0.629,0.461c-0.238,0.521,0.112,1.103,0.688,1.121c0.561,0.017,1.123,0.006,1.685,0.003
		c0.073,0,0.148-0.017,0.22-0.035c0.426-0.111,0.666-0.596,0.518-1.012c-0.106-0.3-0.346-0.43-0.613-0.537c0.975,0,1.95,0,2.925,0
		c-0.151,0.081-0.328,0.136-0.446,0.25c-0.235,0.227-0.306,0.515-0.178,0.833c0.13,0.322,0.375,0.491,0.716,0.5
		c0.479,0.012,0.959,0.007,1.438,0.004c0.148-0.001,0.299-0.004,0.442-0.037c0.439-0.102,0.687-0.593,0.534-1.014
		c-0.111-0.305-0.353-0.442-0.636-0.536c0.989,0,1.977,0,2.966,0c-0.158,0.083-0.341,0.139-0.469,0.255
		c-0.241,0.22-0.29,0.514-0.176,0.819c0.121,0.323,0.367,0.5,0.711,0.508c0.467,0.012,0.934,0.008,1.4,0.004
		c0.161-0.001,0.327-0.001,0.483-0.036c0.441-0.098,0.686-0.59,0.534-1.016c-0.107-0.3-0.347-0.429-0.616-0.535
		c0.989,0,1.977,0,2.966,0c-0.031,0.013-0.061,0.03-0.093,0.038c-0.358,0.081-0.618,0.378-0.627,0.72
		c-0.011,0.384,0.235,0.734,0.605,0.802c0.164,0.03,0.198,0.105,0.229,0.241c0.079,0.35,0.416,0.599,0.774,0.581
		c0.435-0.022,0.654-0.295,0.777-0.677c0,0.989,0,1.977,0,2.966c-0.075-0.267-0.194-0.507-0.461-0.629
		c-0.521-0.238-1.103,0.112-1.121,0.688c-0.018,0.561-0.006,1.123-0.003,1.685c0,0.073,0.016,0.148,0.035,0.22
		c0.112,0.426,0.596,0.665,1.012,0.518c0.3-0.106,0.43-0.346,0.537-0.613c0,0.975,0,1.95,0,2.925
		c-0.081-0.151-0.135-0.328-0.25-0.446c-0.227-0.235-0.515-0.306-0.833-0.178c-0.322,0.13-0.492,0.375-0.5,0.716
		c-0.012,0.479-0.007,0.959-0.004,1.438c0.001,0.148,0.004,0.299,0.037,0.442c0.101,0.439,0.593,0.687,1.014,0.534
		c0.305-0.111,0.443-0.353,0.537-0.637c0,0.989,0,1.977,0,2.966c-0.083-0.158-0.139-0.341-0.255-0.469
		c-0.22-0.241-0.514-0.29-0.819-0.176c-0.323,0.121-0.5,0.367-0.508,0.711c-0.012,0.467-0.008,0.934-0.004,1.4
		c0.001,0.161,0.001,0.327,0.036,0.483c0.098,0.441,0.59,0.686,1.016,0.534c0.3-0.107,0.429-0.347,0.535-0.616
		c0,0.989,0,1.977,0,2.966c-0.014-0.037-0.031-0.074-0.041-0.112c-0.086-0.354-0.392-0.607-0.737-0.607
		c-0.38-0.001-0.716,0.24-0.782,0.604c-0.03,0.164-0.105,0.198-0.241,0.229c-0.351,0.079-0.599,0.416-0.582,0.774
		C590.479,59.498,590.752,59.718,591.134,59.841z"/>
	<path display="inline" d="M1,233.09c2.302-6.981,5.7-12.912,13.209-15.625c10.132-3.661,22.311,2.248,24.669,12.778
		c1.106,4.939,0.938,10.199,1.031,15.32c0.151,8.296,0.297,16.607-0.061,24.891c-0.195,4.497,1.324,5.529,5.634,5.515
		c45.476-0.15,90.952-0.092,136.428-0.092c8.133,0,16.27,0.159,24.394-0.111c2.079-0.069,4.656-0.951,6.089-2.379
		c42.22-42.043,84.324-84.202,126.44-126.349c0.346-0.346,0.603-0.78,1.218-1.591c-1.168-1.254-2.334-2.583-3.581-3.832
		c-11.607-11.63-23.229-23.245-34.844-34.868c-0.938-0.939-1.921-1.844-2.765-2.863c-3.422-4.125-2.46-6.995,2.904-7.913
		c5.388-0.921,10.845-1.445,16.274-2.124c34.055-4.257,68.114-8.485,102.165-12.78c8.326-1.05,11.735,2.442,10.677,10.797
		c-4.603,36.351-9.116,72.714-13.661,109.072c-0.37,2.962-0.491,5.984-1.195,8.864c-0.438,1.795-1.48,4.461-2.745,4.781
		c-1.631,0.413-4.205-0.643-5.589-1.917c-5.246-4.829-10.178-10.001-15.223-15.048c-8.541-8.544-17.08-17.09-25.848-25.863
		c-1.517,1.39-2.749,2.436-3.888,3.575c-40.845,40.837-81.652,81.712-122.578,122.468c-2.948,2.935-4.128,5.854-4.117,10.01
		c0.133,52.779,0.152,105.558-0.02,158.336c-0.016,4.873,1.423,6.147,6.148,6.017c11.442-0.316,22.904-0.253,34.351,0.007
		c8.381,0.19,14.415,4.292,17.662,12.19c3.21,7.807,1.486,14.882-4.299,20.483c-2.913,2.821-7.267,4.155-10.969,6.162
		c-87.324,0-174.648,0-261.973,0C8.967,508.346,3.682,503.005,1,495.063C1,407.738,1,320.414,1,233.09z"/>
	<path display="inline" d="M278.91,1c6.946,2.306,12.879,5.666,15.603,13.144c3.757,10.318-2.329,22.375-13.085,24.864
		c-3.495,0.809-7.212,0.874-10.831,0.9c-11.753,0.086-23.513,0.198-35.26-0.092c-8.352-0.206-14.358-4.363-17.551-12.255
		c-3.152-7.792-1.412-14.85,4.356-20.426c2.908-2.811,7.252-4.137,10.947-6.135C248.363,1,263.637,1,278.91,1z"/>
	<path display="inline" d="M511,278.91c-2.3,6.957-5.673,12.884-13.156,15.607c-10.315,3.753-22.369-2.342-24.854-13.099
		c-0.808-3.495-0.872-7.212-0.898-10.83c-0.086-11.752-0.198-23.51,0.092-35.257c0.206-8.353,4.366-14.356,12.258-17.546
		c7.791-3.15,14.849-1.41,20.424,4.358c2.811,2.908,4.137,7.252,6.134,10.946C511,248.363,511,263.637,511,278.91z"/>
	<path display="inline" d="M161.371,1c6.546,2.637,12.435,5.813,15.04,13.177c3.609,10.201-2.265,22.077-12.708,24.81
		c-1.753,0.459-3.586,0.856-5.383,0.864c-13.769,0.064-27.548,0.353-41.304-0.075c-14.122-0.44-22.716-14.709-16.879-27.482
		c2.991-6.545,8.869-9.445,15.414-11.294C130.824,1,146.098,1,161.371,1z"/>
	<path display="inline" d="M511,161.371c-2.637,6.546-5.813,12.435-13.177,15.04c-10.201,3.609-22.077-2.265-24.81-12.708
		c-0.459-1.753-0.856-3.586-0.864-5.383c-0.064-13.769-0.353-27.548,0.075-41.304c0.44-14.122,14.709-22.716,27.482-16.879
		c6.545,2.991,9.445,8.869,11.294,15.414C511,130.824,511,146.098,511,161.371z"/>
	<path display="inline" d="M350.629,511c-6.546-2.637-12.435-5.813-15.04-13.177c-3.609-10.201,2.265-22.077,12.708-24.81
		c1.753-0.459,3.586-0.856,5.383-0.864c13.769-0.064,27.548-0.353,41.304,0.075c14.122,0.44,22.716,14.709,16.879,27.482
		c-2.991,6.546-8.87,9.445-15.414,11.294C381.176,511,365.902,511,350.629,511z"/>
	<path display="inline" d="M397.445,1c6.579,2.582,12.474,5.752,15.098,13.108c3.725,10.441-2.291,22.502-13.1,24.912
		c-3.829,0.854-7.892,0.859-11.851,0.889c-11.446,0.086-22.898,0.186-34.338-0.103c-8.429-0.213-14.469-4.539-17.427-12.465
		c-2.79-7.477-1.596-14.675,4.31-20.078c3.125-2.858,7.614-4.224,11.488-6.264C366.898,1,382.172,1,397.445,1z"/>
	<path display="inline" d="M1,114.555c2.582-6.579,5.752-12.474,13.108-15.098c10.441-3.725,22.502,2.291,24.912,13.1
		c0.854,3.829,0.859,7.892,0.889,11.851c0.086,11.446,0.186,22.898-0.103,34.338c-0.213,8.429-4.539,14.469-12.465,17.427
		c-7.477,2.791-14.675,1.596-20.078-4.31C4.405,168.738,3.04,164.248,1,160.375C1,145.102,1,129.828,1,114.555z"/>
	<path display="inline" d="M511,397.445c-2.582,6.579-5.752,12.474-13.108,15.098c-10.436,3.723-22.503-2.296-24.912-13.1
		c-0.854-3.829-0.859-7.892-0.889-11.851c-0.086-11.446-0.186-22.898,0.103-34.338c0.212-8.429,4.539-14.469,12.465-17.427
		c7.477-2.791,14.675-1.596,20.078,4.31c2.858,3.125,4.224,7.614,6.264,11.488C511,366.898,511,382.172,511,397.445z"/>
	<path display="inline" d="M42.836,1c9.369,3.009,16.062,8.394,16.591,19.053c0.436,8.781-5.663,17.052-14.26,18.987
		c-3.336,0.751-5.176,1.607-5.911,5.618c-1.638,8.944-9.875,14.84-19.184,14.821c-8.454-0.017-15.964-6.223-18.073-14.891
		C1.77,43.647,1.338,42.755,1,41.84c0-8.301,0-16.602,0-24.902C4.207,8.509,9.833,2.803,18.93,1C26.898,1,34.867,1,42.836,1z"/>
	<path display="inline" d="M511,42.836c-3.008,9.368-8.393,16.06-19.05,16.591c-8.78,0.437-17.051-5.661-18.989-14.254
		c-0.751-3.33-1.595-5.177-5.611-5.916c-9.09-1.673-15.105-10.25-14.843-19.67c0.233-8.394,6.597-15.68,15.381-17.665
		c0.787-0.178,1.516-0.608,2.272-0.922c8.301,0,16.602,0,24.902,0C503.481,4.215,509.22,9.813,511,18.93
		C511,26.898,511,34.867,511,42.836z"/>
	<path display="inline" d="M469.164,511c-9.369-3.009-16.061-8.394-16.591-19.053c-0.436-8.781,5.663-17.052,14.26-18.987
		c3.337-0.751,5.176-1.607,5.91-5.618c1.638-8.944,9.875-14.84,19.184-14.821c8.454,0.017,15.964,6.223,18.073,14.891
		c0.229,0.941,0.661,1.833,0.999,2.748c0,8.301,0,16.602,0,24.902c-3.207,8.429-8.833,14.135-17.93,15.938
		C485.102,511,477.133,511,469.164,511z"/>
	<path fill="#FFFFFF" d="M572.772,39.041c-0.371,0.074-0.6,0.306-0.731,0.65c0-0.217,0-0.433,0-0.65
		C572.284,39.041,572.528,39.041,572.772,39.041z"/>
	<path fill="#FFFFFF" d="M592.841,39.772c-0.073-0.372-0.307-0.6-0.65-0.731c0.217,0,0.433,0,0.65,0
		C592.841,39.284,592.841,39.528,592.841,39.772z"/>
	<path fill="#FFFFFF" d="M592.109,59.841c0.371-0.074,0.6-0.306,0.731-0.65c0,0.217,0,0.433,0,0.65
		C592.597,59.841,592.353,59.841,592.109,59.841z"/>
	<path fill="#FFFFFF" d="M572.041,59.191c0.109,0.324,0.325,0.542,0.65,0.65c-0.217,0-0.433,0-0.65,0
		C572.041,59.624,572.041,59.407,572.041,59.191z"/>
</g>
</svg>
