<?xml version="1.0" encoding="utf-8"?>
<!-- Generator: Adobe Illustrator 17.0.0, SVG Export Plug-In . SVG Version: 6.00 Build 0)  -->
<!DOCTYPE svg PUBLIC "-//W3C//DTD SVG 1.1//EN" "http://www.w3.org/Graphics/SVG/1.1/DTD/svg11.dtd">
<svg version="1.1" id="Layer_1" xmlns="http://www.w3.org/2000/svg" xmlns:xlink="http://www.w3.org/1999/xlink" x="0px" y="0px"
	 width="512px" height="512px" viewBox="0 0 512 512" enable-background="new 0 0 512 512" xml:space="preserve">
<g>
	<line fill="none" stroke="#B35047" x1="32" y1="0" x2="32" y2="512"/>
	<line fill="none" stroke="#B35047" x1="64" y1="0" x2="64" y2="512"/>
	<line fill="none" stroke="#B35047" x1="96" y1="0" x2="96" y2="512"/>
	<line fill="none" stroke="#B35047" x1="128" y1="0" x2="128" y2="512"/>
	<line fill="none" stroke="#B35047" x1="160" y1="0" x2="160" y2="512"/>
	<line fill="none" stroke="#B35047" x1="192" y1="0" x2="192" y2="512"/>
	<line fill="none" stroke="#B35047" x1="224" y1="0" x2="224" y2="512"/>
	<line fill="none" stroke="#B35047" x1="256" y1="0" x2="256" y2="512"/>
	<line fill="none" stroke="#B35047" x1="288" y1="0" x2="288" y2="512"/>
	<line fill="none" stroke="#B35047" x1="320" y1="0" x2="320" y2="512"/>
	<line fill="none" stroke="#B35047" x1="352" y1="0" x2="352" y2="512"/>
	<line fill="none" stroke="#B35047" x1="384" y1="0" x2="384" y2="512"/>
	<line fill="none" stroke="#B35047" x1="416" y1="0" x2="416" y2="512"/>
	<line fill="none" stroke="#B35047" x1="448" y1="0" x2="448" y2="512"/>
	<line fill="none" stroke="#B35047" x1="480" y1="0" x2="480" y2="512"/>
	<line fill="none" stroke="#B35047" x1="0" y1="32" x2="512" y2="32"/>
	<line fill="none" stroke="#B35047" x1="0" y1="64" x2="512" y2="64"/>
	<line fill="none" stroke="#B35047" x1="0" y1="96" x2="512" y2="96"/>
	<line fill="none" stroke="#B35047" x1="0" y1="128" x2="512" y2="128"/>
	<line fill="none" stroke="#B35047" x1="0" y1="160" x2="512" y2="160"/>
	<line fill="none" stroke="#B35047" x1="0" y1="192" x2="512" y2="192"/>
	<line fill="none" stroke="#B35047" x1="0" y1="224" x2="512" y2="224"/>
	<line fill="none" stroke="#B35047" x1="0" y1="256" x2="512" y2="256"/>
	<line fill="none" stroke="#B35047" x1="0" y1="288" x2="512" y2="288"/>
	<line fill="none" stroke="#B35047" x1="0" y1="320" x2="512" y2="320"/>
	<line fill="none" stroke="#B35047" x1="0" y1="352" x2="512" y2="352"/>
	<line fill="none" stroke="#B35047" x1="0" y1="384" x2="512" y2="384"/>
	<line fill="none" stroke="#B35047" x1="0" y1="416" x2="512" y2="416"/>
	<line fill="none" stroke="#B35047" x1="0" y1="448" x2="512" y2="448"/>
	<line fill="none" stroke="#B35047" x1="0" y1="480" x2="512" y2="480"/>
	<rect x="0" fill="none" stroke="#B35047" width="512" height="512"/>
</g>
<image display="none" overflow="visible" width="512" height="512" xlink:href="../../../Knowledge/Icon/[+++++] (Full) Windows 8 Icons [icons8]/Debug/copy_link/copy_link-512.png"  transform="matrix(0.0406 0 0 0.0406 613 26)">
</image>
<image display="none" overflow="visible" width="512" height="512" xlink:href="../../../Knowledge/Icon/[+++++] (Full) Windows 8 Icons [icons8]/Debug/bug/bug-512.png"  transform="matrix(0.0406 0 0 0.0406 613 26)">
</image>
<image display="none" overflow="visible" width="512" height="512" xlink:href="../../../Knowledge/Icon/[+++++] (Full) Windows 8 Icons [icons8]/Debug/watch/watch-512.png"  transform="matrix(0.0406 0 0 0.0406 613 26)">
</image>
<g>
	<path display="none" fill="#FFFFFF" d="M633.841,37.456c0,3.128,0,6.256,0,9.384c-2.532,0-5.065,0-7.597,0
		c0.264-0.055,0.531-0.098,0.791-0.168c1.535-0.41,2.75-1.912,2.778-3.498c0.03-1.712,0.014-3.425,0.017-5.138
		c0-0.037-0.009-0.073-0.018-0.136c-0.066,0.059-0.111,0.097-0.152,0.138c-0.69,0.689-1.376,1.381-2.07,2.066
		c-0.107,0.105-0.142,0.213-0.141,0.357c0.005,0.792,0.009,1.584,0.001,2.376c-0.01,0.966-0.641,1.607-1.582,1.608
		c-2.952,0.003-5.903,0.003-8.855,0c-0.927-0.001-1.576-0.647-1.577-1.571c-0.004-2.958-0.005-5.917,0.006-8.875
		c0.001-0.242,0.059-0.504,0.164-0.722c0.287-0.598,0.805-0.847,1.453-0.847c0.812,0,1.625,0.005,2.437-0.006
		c0.107-0.001,0.239-0.054,0.315-0.129c0.701-0.687,1.393-1.383,2.087-2.078c0.04-0.04,0.075-0.086,0.132-0.153
		c-0.09-0.007-0.148-0.015-0.206-0.015c-1.604-0.001-3.209-0.004-4.813,0.003c-0.289,0.001-0.586,0.017-0.866,0.084
		c-1.568,0.374-2.567,1.346-2.984,2.906c-0.052,0.194-0.08,0.395-0.119,0.593c0-2.529,0-5.059,0-7.597c3.155,0,6.31,0,9.466,0
		c-0.184,0.04-0.373,0.066-0.551,0.125c-0.225,0.074-0.285,0.222-0.17,0.426c0.092,0.163,0.203,0.322,0.334,0.455
		c0.859,0.873,1.726,1.738,2.59,2.606c0.051,0.052,0.1,0.106,0.159,0.168c-0.059,0.062-0.108,0.116-0.16,0.168
		c-1.392,1.392-2.786,2.784-4.177,4.177c-1.018,1.02-1.018,2.43-0.003,3.449c0.592,0.595,1.186,1.188,1.78,1.78
		c0.096,0.095,0.194,0.19,0.301,0.271c0.97,0.736,2.24,0.636,3.134-0.254c1.4-1.394,2.795-2.794,4.192-4.191
		c0.055-0.055,0.113-0.107,0.188-0.178c0.065,0.074,0.111,0.134,0.163,0.186c0.853,0.851,1.704,1.703,2.563,2.547
		c0.143,0.14,0.313,0.258,0.487,0.359c0.183,0.106,0.308,0.052,0.376-0.151C633.768,37.813,633.799,37.633,633.841,37.456z"/>
	<path d="M511,280.902c-1.031,4.322-1.777,8.739-3.168,12.942c-1.647,4.977-4.729,6.312-9.21,3.702
		c-4.253-2.477-8.437-5.363-11.934-8.799c-21.064-20.7-41.926-41.606-62.836-62.462c-1.287-1.284-2.409-2.734-4.003-4.561
		c-1.833,1.729-3.259,3.008-4.611,4.36c-34.259,34.258-68.453,68.582-102.785,102.768c-21.907,21.814-53.059,24.262-76.836,6.225
		c-2.631-1.996-5.04-4.316-7.387-6.652c-14.58-14.516-29.137-29.056-43.655-43.634c-24.889-24.993-24.879-59.577,0.077-84.575
		c34.112-34.17,68.284-68.281,102.425-102.424c1.266-1.266,2.47-2.594,3.914-4.116c-1.436-1.52-2.636-2.848-3.897-4.116
		c-21.186-21.284-42.442-42.5-63.507-63.903c-3.209-3.26-5.928-7.164-8.185-11.159c-2.83-5.01-1.35-8.631,4.167-10.444
		C223.94,2.62,228.574,1.988,233.09,1c79.355,0,158.711,0,238.066,0c3.594,0.369,7.179,0.868,10.782,1.086
		c17.61,1.067,24.622,7.213,27.493,24.531c0.779,4.7,1.06,9.482,1.569,14.226C511,120.863,511,200.883,511,280.902z"/>
	<path d="M1,187.27c0.956-4.853,1.639-9.78,2.913-14.549c10.223-38.266,34.732-62.08,73.174-71.259
		c6.855-1.637,14.138-2.018,21.227-2.052c39.34-0.19,78.681-0.096,118.021-0.081c1.422,0.001,2.843,0.197,5.047,0.361
		c-1.401,1.632-2.249,2.761-3.237,3.75c-17.011,17.028-33.97,34.11-51.165,50.95c-1.864,1.825-5.107,3.118-7.731,3.152
		c-19.916,0.259-39.837,0.138-59.756,0.146c-15.913,0.006-28.595,6.101-35.639,20.769c-2.563,5.338-3.989,11.763-4.01,17.698
		c-0.265,72.538-0.229,145.078-0.14,217.618c0.028,22.667,15.94,38.501,38.659,38.526c72.373,0.078,144.747,0.075,217.12,0.002
		c23.082-0.023,38.546-15.753,38.787-39.435c0.198-19.419,0.11-38.843-0.017-58.263c-0.023-3.545,0.846-6.175,3.468-8.762
		c17.017-16.785,33.853-33.754,50.76-50.651c1.015-1.015,2.126-1.935,3.736-3.39c0.211,1.545,0.444,2.446,0.442,3.346
		c-0.081,41.994,0.316,83.997-0.425,125.98c-0.686,38.869-30.473,75.703-68.111,85.757c-6.376,1.703-12.924,2.761-19.393,4.117
		c-78.359,0-156.719,0-235.078,0c-1.447-0.325-2.88-0.742-4.343-0.96c-38.069-5.683-64.367-26.362-78.173-62.266
		c-3.103-8.069-4.146-16.93-6.137-25.426C1,343.988,1,265.629,1,187.27z"/>
	<path display="none" fill="#FFFFFF" d="M613.041,43.225c0.081,0.347,0.124,0.708,0.25,1.037c0.563,1.464,1.636,2.308,3.188,2.539
		c0.06,0.009,0.118,0.026,0.177,0.039c-1.202,0-2.404,0-3.616,0C613.041,45.635,613.041,44.43,613.041,43.225z"/>
	<path display="none" fill="#FFFFFF" d="M633.841,27.666c-0.021-0.193-0.032-0.389-0.064-0.58c-0.117-0.706-0.403-0.957-1.121-1
		c-0.147-0.009-0.293-0.029-0.44-0.044c0.542,0,1.083,0,1.625,0C633.841,26.582,633.841,27.124,633.841,27.666z"/>
</g>
</svg>
