<?xml version="1.0" encoding="utf-8"?>
<!-- Generator: Adobe Illustrator 17.0.0, SVG Export Plug-In . SVG Version: 6.00 Build 0)  -->
<!DOCTYPE svg PUBLIC "-//W3C//DTD SVG 1.1//EN" "http://www.w3.org/Graphics/SVG/1.1/DTD/svg11.dtd">
<svg version="1.1" id="Layer_1" xmlns="http://www.w3.org/2000/svg" xmlns:xlink="http://www.w3.org/1999/xlink" x="0px" y="0px"
	 width="512px" height="512px" viewBox="0 0 512 512" enable-background="new 0 0 512 512" xml:space="preserve">
<g>
	<line fill="none" stroke="#B35047" x1="32" y1="0" x2="32" y2="512"/>
	<line fill="none" stroke="#B35047" x1="64" y1="0" x2="64" y2="512"/>
	<line fill="none" stroke="#B35047" x1="96" y1="0" x2="96" y2="512"/>
	<line fill="none" stroke="#B35047" x1="128" y1="0" x2="128" y2="512"/>
	<line fill="none" stroke="#B35047" x1="160" y1="0" x2="160" y2="512"/>
	<line fill="none" stroke="#B35047" x1="192" y1="0" x2="192" y2="512"/>
	<line fill="none" stroke="#B35047" x1="224" y1="0" x2="224" y2="512"/>
	<line fill="none" stroke="#B35047" x1="256" y1="0" x2="256" y2="512"/>
	<line fill="none" stroke="#B35047" x1="288" y1="0" x2="288" y2="512"/>
	<line fill="none" stroke="#B35047" x1="320" y1="0" x2="320" y2="512"/>
	<line fill="none" stroke="#B35047" x1="352" y1="0" x2="352" y2="512"/>
	<line fill="none" stroke="#B35047" x1="384" y1="0" x2="384" y2="512"/>
	<line fill="none" stroke="#B35047" x1="416" y1="0" x2="416" y2="512"/>
	<line fill="none" stroke="#B35047" x1="448" y1="0" x2="448" y2="512"/>
	<line fill="none" stroke="#B35047" x1="480" y1="0" x2="480" y2="512"/>
	<line fill="none" stroke="#B35047" x1="0" y1="32" x2="512" y2="32"/>
	<line fill="none" stroke="#B35047" x1="0" y1="64" x2="512" y2="64"/>
	<line fill="none" stroke="#B35047" x1="0" y1="96" x2="512" y2="96"/>
	<line fill="none" stroke="#B35047" x1="0" y1="128" x2="512" y2="128"/>
	<line fill="none" stroke="#B35047" x1="0" y1="160" x2="512" y2="160"/>
	<line fill="none" stroke="#B35047" x1="0" y1="192" x2="512" y2="192"/>
	<line fill="none" stroke="#B35047" x1="0" y1="224" x2="512" y2="224"/>
	<line fill="none" stroke="#B35047" x1="0" y1="256" x2="512" y2="256"/>
	<line fill="none" stroke="#B35047" x1="0" y1="288" x2="512" y2="288"/>
	<line fill="none" stroke="#B35047" x1="0" y1="320" x2="512" y2="320"/>
	<line fill="none" stroke="#B35047" x1="0" y1="352" x2="512" y2="352"/>
	<line fill="none" stroke="#B35047" x1="0" y1="384" x2="512" y2="384"/>
	<line fill="none" stroke="#B35047" x1="0" y1="416" x2="512" y2="416"/>
	<line fill="none" stroke="#B35047" x1="0" y1="448" x2="512" y2="448"/>
	<line fill="none" stroke="#B35047" x1="0" y1="480" x2="512" y2="480"/>
	<rect x="0" fill="none" stroke="#B35047" width="512" height="512"/>
</g>
<image display="none" overflow="visible" width="512" height="512" xlink:href="../../../Knowledge/Icon/[+++++] (Full) Windows 8 Icons [icons8]/Objects/male/male-512_.png"  transform="matrix(0.0406 0 0 0.0406 562 47)">
</image>
<image display="none" overflow="visible" width="512" height="512" xlink:href="../../../Knowledge/Icon/[+++++] (Full) Windows 8 Icons [icons8]/Objects/umbrella/umbrella-512.png"  transform="matrix(0.0406 0 0 0.0406 562 47)">
</image>
<image display="none" overflow="visible" width="512" height="512" xlink:href="../../../Knowledge/Icon/[+++++] (Full) Windows 8 Icons [icons8]/Objects/timer/timer-512.png"  transform="matrix(0.0406 0 0 0.0406 562 47)">
</image>
<image display="none" overflow="visible" width="512" height="512" xlink:href="../../../Knowledge/Icon/[+++++] (Full) Windows 8 Icons [icons8]/Objects/signal_horn/signal_horn-512.png"  transform="matrix(0.0406 0 0 0.0406 562 47)">
</image>
<image display="none" overflow="visible" width="512" height="512" xlink:href="../../../Knowledge/Icon/[+++++] (Full) Windows 8 Icons [icons8]/Objects/sandglass/sandglass-512.png"  transform="matrix(0.0406 0 0 0.0406 562 47)">
</image>
<image display="none" overflow="visible" width="512" height="512" xlink:href="../../../Knowledge/Icon/[+++++] (Full) Windows 8 Icons [icons8]/Objects/running_man/running_man-512.png"  transform="matrix(0.0406 0 0 0.0406 562 47)">
</image>
<image display="none" overflow="visible" width="512" height="512" xlink:href="../../../Knowledge/Icon/[+++++] (Full) Windows 8 Icons [icons8]/Objects/plugin/plugin-512.png"  transform="matrix(0.0406 0 0 0.0406 562 47)">
</image>
<image display="none" overflow="visible" width="512" height="512" xlink:href="../../../Knowledge/Icon/[+++++] (Full) Windows 8 Icons [icons8]/Objects/phone2/phone2-512.png"  transform="matrix(0.0406 0 0 0.0406 562 47)">
</image>
<image display="none" overflow="visible" width="512" height="512" xlink:href="../../../Knowledge/Icon/[+++++] (Full) Windows 8 Icons [icons8]/Objects/paper_plane/paper_plane-512.png"  transform="matrix(0.0406 0 0 0.0406 562 47)">
</image>
<image display="none" overflow="visible" width="512" height="512" xlink:href="../../../Knowledge/Icon/[+++++] (Full) Windows 8 Icons [icons8]/Objects/note/note-512.png"  transform="matrix(0.0406 0 0 0.0406 562 47)">
</image>
<image display="none" overflow="visible" width="512" height="512" xlink:href="../../../Knowledge/Icon/[+++++] (Full) Windows 8 Icons [icons8]/Objects/megafone2/megafone2-512.png"  transform="matrix(0.0406 0 0 0.0406 562 47)">
</image>
<image display="none" overflow="visible" width="512" height="512" xlink:href="../../../Knowledge/Icon/[+++++] (Full) Windows 8 Icons [icons8]/Objects/megafone1/megafone1-512.png"  transform="matrix(0.0406 0 0 0.0406 562 47)">
</image>
<image display="none" overflow="visible" width="512" height="512" xlink:href="../../../Knowledge/Icon/[+++++] (Full) Windows 8 Icons [icons8]/Objects/joystick/joystick-512.png"  transform="matrix(0.0406 0 0 0.0406 562 47)">
</image>
<image display="none" overflow="visible" width="512" height="512" xlink:href="../../../Knowledge/Icon/[+++++] (Full) Windows 8 Icons [icons8]/Objects/filled_filter/filled_filter-512.png"  transform="matrix(0.0406 0 0 0.0406 562 47)">
</image>
<image display="none" overflow="visible" width="512" height="512" xlink:href="../../../Knowledge/Icon/[+++++] (Full) Windows 8 Icons [icons8]/Objects/filing_cabinet/filing_cabinet-512.png"  transform="matrix(0.0406 0 0 0.0406 562 47)">
</image>
<image display="none" overflow="visible" width="512" height="512" xlink:href="../../../Knowledge/Icon/[+++++] (Full) Windows 8 Icons [icons8]/Objects/empty_filter/empty_filter-512.png"  transform="matrix(0.0406 0 0 0.0406 562 47)">
</image>
<image display="none" overflow="visible" width="512" height="512" xlink:href="../../../Knowledge/Icon/[+++++] (Full) Windows 8 Icons [icons8]/Objects/box/box-512.png"  transform="matrix(0.0406 0 0 0.0406 562 47)">
</image>
<g>
	<path display="none" fill="#FFFFFF" d="M562.041,60.325c0-4.428,0-8.856,0-13.284c6.933,0,13.867,0,20.8,0c0,6.933,0,13.867,0,20.8
		c-4.428,0-8.856,0-13.284,0c0.059-0.012,0.118-0.025,0.177-0.036c0.551-0.099,1.125-0.13,1.649-0.309
		c2.692-0.92,4.36-2.779,4.925-5.578c0.258-1.281,0.139-2.548-0.332-3.771c-0.177-0.458-0.404-0.897-0.593-1.312
		c0.691-0.691,1.392-1.392,2.108-2.108c0.993,0.993,2.006,2.006,3.002,3.003c0.748-0.748,1.493-1.493,2.277-2.277
		c-1.005-1.004-2.021-2.021-3.061-3.061c1.004-1.003,2.018-2.016,3.005-3.002c-0.743-0.743-1.487-1.488-2.257-2.257
		c-0.997,0.997-2.01,2.011-3.045,3.046c-1.011-1.012-2.028-2.029-3.012-3.014c-0.752,0.752-1.496,1.497-2.27,2.271
		c0.995,0.994,2.008,2.007,3.013,3.013c-0.69,0.687-1.39,1.383-2.096,2.087c-0.153-0.085-0.322-0.185-0.496-0.275
		c-0.174-0.09-0.348-0.183-0.53-0.254c-2.012-0.79-4.014-0.777-5.955,0.195c-2.167,1.086-3.468,2.852-3.907,5.243
		C562.107,59.735,562.08,60.031,562.041,60.325z"/>
	<path d="M1,325.839c0.964-7.229,1.627-14.513,2.94-21.678c10.78-58.811,42.793-102.28,96.119-128.992
		c47.755-23.922,96.999-24.256,146.512-4.806c4.477,1.759,8.764,4.033,13.045,6.252c4.272,2.214,8.425,4.66,12.194,6.761
		c17.381-17.302,34.583-34.428,51.57-51.337c-24.743-24.739-49.67-49.662-74.143-74.131c19.041-19.051,37.338-37.358,55.842-55.872
		c24.227,24.24,49.227,49.252,74.113,74.15c25.465-25.473,50.393-50.409,74.915-74.94c18.933,18.936,37.247,37.252,55.531,55.538
		c-24.301,24.276-49.235,49.184-73.948,73.872c25.575,25.573,50.595,50.592,75.311,75.305c-19.282,19.286-37.61,37.617-56.018,56.03
		c-24.516-24.524-49.443-49.46-73.866-73.891c-17.613,17.618-34.86,34.87-51.858,51.873c4.651,10.211,10.231,21.013,14.579,32.29
		c11.593,30.07,14.539,61.266,8.179,92.773c-13.905,68.884-54.945,114.609-121.178,137.25c-12.882,4.404-27.012,5.152-40.565,7.595
		c-1.457,0.263-2.904,0.582-4.356,0.875c-4.998,0-9.995,0-14.993,0c-1.622-0.293-3.235-0.774-4.868-0.85
		c-19.816-0.927-38.958-5.334-56.903-13.467C50.974,470.071,15.386,425.587,3.829,362.443C2.523,355.306,1.926,348.039,1,340.832
		C1,335.834,1,330.837,1,325.839z M177.946,432.051c54.275,0.149,98.639-43.931,98.873-98.242
		c0.233-53.946-44.158-98.529-98.446-98.874c-53.98-0.343-98.409,43.987-98.67,98.447
		C79.444,387.666,123.487,431.901,177.946,432.051z"/>
	<path display="none" fill="#FFFFFF" d="M562.041,60.934c0.038,0.293,0.062,0.588,0.115,0.878c0.47,2.566,1.916,4.374,4.281,5.446
		c0.729,0.331,1.507,0.51,2.313,0.547c0.066,0.003,0.132,0.023,0.198,0.035c-2.302,0-4.604,0-6.906,0
		C562.041,65.539,562.041,63.236,562.041,60.934z"/>
	<path display="none" fill="#FFFFFF" d="M569.232,64.642c-2.213-0.006-4.003-1.804-3.993-4.01c0.011-2.213,1.816-4.015,4.01-4.001
		c2.206,0.014,4.011,1.826,4.001,4.019C573.241,62.856,571.438,64.648,569.232,64.642z"/>
</g>
</svg>
