<?xml version="1.0" encoding="utf-8"?>
<!-- Generator: Adobe Illustrator 17.0.0, SVG Export Plug-In . SVG Version: 6.00 Build 0)  -->
<!DOCTYPE svg PUBLIC "-//W3C//DTD SVG 1.1//EN" "http://www.w3.org/Graphics/SVG/1.1/DTD/svg11.dtd">
<svg version="1.1" id="Layer_1" xmlns="http://www.w3.org/2000/svg" xmlns:xlink="http://www.w3.org/1999/xlink" x="0px" y="0px"
	 width="512px" height="512px" viewBox="0 0 512 512" enable-background="new 0 0 512 512" xml:space="preserve">
<g>
	<line fill="none" stroke="#B35047" x1="32" y1="0" x2="32" y2="512"/>
	<line fill="none" stroke="#B35047" x1="64" y1="0" x2="64" y2="512"/>
	<line fill="none" stroke="#B35047" x1="96" y1="0" x2="96" y2="512"/>
	<line fill="none" stroke="#B35047" x1="128" y1="0" x2="128" y2="512"/>
	<line fill="none" stroke="#B35047" x1="160" y1="0" x2="160" y2="512"/>
	<line fill="none" stroke="#B35047" x1="192" y1="0" x2="192" y2="512"/>
	<line fill="none" stroke="#B35047" x1="224" y1="0" x2="224" y2="512"/>
	<line fill="none" stroke="#B35047" x1="256" y1="0" x2="256" y2="512"/>
	<line fill="none" stroke="#B35047" x1="288" y1="0" x2="288" y2="512"/>
	<line fill="none" stroke="#B35047" x1="320" y1="0" x2="320" y2="512"/>
	<line fill="none" stroke="#B35047" x1="352" y1="0" x2="352" y2="512"/>
	<line fill="none" stroke="#B35047" x1="384" y1="0" x2="384" y2="512"/>
	<line fill="none" stroke="#B35047" x1="416" y1="0" x2="416" y2="512"/>
	<line fill="none" stroke="#B35047" x1="448" y1="0" x2="448" y2="512"/>
	<line fill="none" stroke="#B35047" x1="480" y1="0" x2="480" y2="512"/>
	<line fill="none" stroke="#B35047" x1="0" y1="32" x2="512" y2="32"/>
	<line fill="none" stroke="#B35047" x1="0" y1="64" x2="512" y2="64"/>
	<line fill="none" stroke="#B35047" x1="0" y1="96" x2="512" y2="96"/>
	<line fill="none" stroke="#B35047" x1="0" y1="128" x2="512" y2="128"/>
	<line fill="none" stroke="#B35047" x1="0" y1="160" x2="512" y2="160"/>
	<line fill="none" stroke="#B35047" x1="0" y1="192" x2="512" y2="192"/>
	<line fill="none" stroke="#B35047" x1="0" y1="224" x2="512" y2="224"/>
	<line fill="none" stroke="#B35047" x1="0" y1="256" x2="512" y2="256"/>
	<line fill="none" stroke="#B35047" x1="0" y1="288" x2="512" y2="288"/>
	<line fill="none" stroke="#B35047" x1="0" y1="320" x2="512" y2="320"/>
	<line fill="none" stroke="#B35047" x1="0" y1="352" x2="512" y2="352"/>
	<line fill="none" stroke="#B35047" x1="0" y1="384" x2="512" y2="384"/>
	<line fill="none" stroke="#B35047" x1="0" y1="416" x2="512" y2="416"/>
	<line fill="none" stroke="#B35047" x1="0" y1="448" x2="512" y2="448"/>
	<line fill="none" stroke="#B35047" x1="0" y1="480" x2="512" y2="480"/>
	<rect x="0" fill="none" stroke="#B35047" width="512" height="512"/>
</g>
<image display="none" overflow="visible" width="512" height="512" xlink:href="../../../Knowledge/Icon/[+++++] (Full) Windows 8 Icons [icons8]/Objects/male/male-512_.png"  transform="matrix(0.0406 0 0 0.0406 562 47)">
</image>
<image display="none" overflow="visible" width="512" height="512" xlink:href="../../../Knowledge/Icon/[+++++] (Full) Windows 8 Icons [icons8]/Objects/umbrella/umbrella-512.png"  transform="matrix(0.0406 0 0 0.0406 562 47)">
</image>
<image display="none" overflow="visible" width="512" height="512" xlink:href="../../../Knowledge/Icon/[+++++] (Full) Windows 8 Icons [icons8]/Objects/timer/timer-512.png"  transform="matrix(0.0406 0 0 0.0406 562 47)">
</image>
<image display="none" overflow="visible" width="512" height="512" xlink:href="../../../Knowledge/Icon/[+++++] (Full) Windows 8 Icons [icons8]/Objects/signal_horn/signal_horn-512.png"  transform="matrix(0.0406 0 0 0.0406 562 47)">
</image>
<image display="none" overflow="visible" width="512" height="512" xlink:href="../../../Knowledge/Icon/[+++++] (Full) Windows 8 Icons [icons8]/Objects/sandglass/sandglass-512.png"  transform="matrix(0.0406 0 0 0.0406 562 47)">
</image>
<image display="none" overflow="visible" width="512" height="512" xlink:href="../../../Knowledge/Icon/[+++++] (Full) Windows 8 Icons [icons8]/Objects/running_man/running_man-512.png"  transform="matrix(0.0406 0 0 0.0406 562 47)">
</image>
<image display="none" overflow="visible" width="512" height="512" xlink:href="../../../Knowledge/Icon/[+++++] (Full) Windows 8 Icons [icons8]/Objects/plugin/plugin-512.png"  transform="matrix(0.0406 0 0 0.0406 562 47)">
</image>
<image display="none" overflow="visible" width="512" height="512" xlink:href="../../../Knowledge/Icon/[+++++] (Full) Windows 8 Icons [icons8]/Objects/phone2/phone2-512.png"  transform="matrix(0.0406 0 0 0.0406 562 47)">
</image>
<image display="none" overflow="visible" width="512" height="512" xlink:href="../../../Knowledge/Icon/[+++++] (Full) Windows 8 Icons [icons8]/Objects/paper_plane/paper_plane-512.png"  transform="matrix(0.0406 0 0 0.0406 562 47)">
</image>
<image display="none" overflow="visible" width="512" height="512" xlink:href="../../../Knowledge/Icon/[+++++] (Full) Windows 8 Icons [icons8]/Objects/note/note-512.png"  transform="matrix(0.0406 0 0 0.0406 562 47)">
</image>
<image display="none" overflow="visible" width="512" height="512" xlink:href="../../../Knowledge/Icon/[+++++] (Full) Windows 8 Icons [icons8]/Objects/megafone2/megafone2-512.png"  transform="matrix(0.0406 0 0 0.0406 562 47)">
</image>
<image display="none" overflow="visible" width="512" height="512" xlink:href="../../../Knowledge/Icon/[+++++] (Full) Windows 8 Icons [icons8]/Objects/megafone1/megafone1-512.png"  transform="matrix(0.0406 0 0 0.0406 562 47)">
</image>
<image display="none" overflow="visible" width="512" height="512" xlink:href="../../../Knowledge/Icon/[+++++] (Full) Windows 8 Icons [icons8]/Objects/joystick/joystick-512.png"  transform="matrix(0.0406 0 0 0.0406 562 47)">
</image>
<image display="none" overflow="visible" width="512" height="512" xlink:href="../../../Knowledge/Icon/[+++++] (Full) Windows 8 Icons [icons8]/Objects/filled_filter/filled_filter-512.png"  transform="matrix(0.0406 0 0 0.0406 562 47)">
</image>
<image display="none" overflow="visible" width="512" height="512" xlink:href="../../../Knowledge/Icon/[+++++] (Full) Windows 8 Icons [icons8]/Objects/filing_cabinet/filing_cabinet-512.png"  transform="matrix(0.0406 0 0 0.0406 562 47)">
</image>
<g>
	<path display="none" fill="#FFFFFF" d="M582.841,48.666c0,6.389,0,12.779,0,19.172c-6.929,0-13.857,0-20.8,0
		c0-6.388,0-12.78,0-19.172c0.077,0.073,0.159,0.142,0.23,0.221c2.274,2.525,4.546,5.052,6.822,7.575
		c0.107,0.119,0.154,0.235,0.154,0.396c-0.005,2.376-0.005,4.752-0.001,7.129c0,0.201,0.012,0.409,0.063,0.603
		c0.233,0.891,0.789,1.509,1.637,1.859c0.525,0.217,1.053,0.424,1.582,0.631c0.585,0.229,1.164,0.477,1.76,0.673
		c0.565,0.187,1.101-0.066,1.264-0.568c0.064-0.195,0.082-0.412,0.083-0.619c0.005-3.243,0.002-6.486,0.009-9.728
		c0-0.115,0.049-0.255,0.125-0.34c2.286-2.551,4.578-5.097,6.87-7.642C582.7,48.787,582.773,48.729,582.841,48.666z"/>
	<path d="M511,41.166c-1.664,1.55-3.458,2.984-4.974,4.668c-56.197,62.415-112.393,124.831-168.439,187.381
		c-1.853,2.068-3.055,5.517-3.061,8.325c-0.162,79.51-0.094,159.02-0.215,238.529c-0.008,5.078-0.47,10.402-2.029,15.185
		c-4.01,12.302-17.155,18.493-31.003,13.92c-14.607-4.824-28.808-10.887-43.147-16.509c-12.958-5.081-25.915-10.172-38.78-15.484
		c-20.814-8.594-34.448-23.73-40.15-45.582c-1.237-4.741-1.526-9.838-1.534-14.773c-0.101-58.263-0.101-116.526,0.015-174.789
		c0.008-3.945-1.139-6.799-3.768-9.714C118.105,170.452,62.393,108.494,6.636,46.577C4.897,44.646,2.885,42.964,1,41.166
		c0-1.328,0-2.656,0-3.984c0.314-1.099,0.733-2.179,0.927-3.299c1.888-10.876,7.279-19.79,16.606-25.451
		c5.515-3.347,12.179-4.803,18.326-7.11c146.094,0,292.188,0,438.281,0c0.937,0.298,1.854,0.725,2.815,0.874
		c10.733,1.666,19.663,6.786,25.347,15.873c3.586,5.733,5.2,12.699,7.698,19.113C511,38.509,511,39.837,511,41.166z M53.997,40.522
		c1.144,1.502,1.674,2.31,2.312,3.02c45.505,50.596,91.003,101.198,136.611,151.7c1.225,1.357,3.648,2.303,5.517,2.31
		c38.341,0.132,76.683,0.138,115.025-0.012c1.994-0.008,4.562-1.104,5.889-2.572c45.283-50.125,90.451-100.355,135.62-150.583
		c0.924-1.028,1.681-2.206,2.929-3.862C323.05,40.522,189.027,40.522,53.997,40.522z M295.025,465.266
		c0.124-1.88,0.301-3.325,0.302-4.77c0.014-72.847-0.019-145.694,0.093-218.541c0.006-4.107-1.142-5.382-5.296-5.349
		c-22.4,0.181-44.805,0.236-67.203-0.031c-4.994-0.06-6.399,1.212-6.382,6.327c0.192,57.414,0.121,114.829,0.122,172.244
		c0,13.021,5.689,21.381,17.918,26.282c18.299,7.334,36.603,14.656,54.914,21.959C291.153,464.049,292.881,464.543,295.025,465.266z
		"/>
	<path display="none" fill="#FFFFFF" d="M563.503,47.041c-0.251,0.094-0.522,0.153-0.747,0.29c-0.38,0.231-0.6,0.594-0.677,1.038
		c-0.008,0.046-0.025,0.09-0.038,0.135c0-0.487,0-0.975,0-1.462C562.528,47.041,563.016,47.041,563.503,47.041z"/>
	<path display="none" fill="#FFFFFF" d="M582.841,48.503c-0.102-0.262-0.168-0.546-0.314-0.779
		c-0.232-0.371-0.596-0.579-1.034-0.647c-0.039-0.006-0.077-0.023-0.115-0.036c0.487,0,0.975,0,1.462,0
		C582.841,47.528,582.841,48.016,582.841,48.503z"/>
	<path display="none" fill="#FFFFFF" d="M564.202,48.639c5.507,0,10.973,0,16.473,0c-0.051,0.068-0.082,0.116-0.119,0.158
		c-1.842,2.049-3.684,4.097-5.531,6.141c-0.054,0.06-0.159,0.105-0.24,0.105c-1.564,0.006-3.128,0.006-4.691,0
		c-0.076,0-0.175-0.039-0.225-0.094c-1.86-2.06-3.716-4.123-5.572-6.187C564.27,48.734,564.249,48.701,564.202,48.639z"/>
	<path display="none" fill="#FFFFFF" d="M574.032,65.962c-0.087-0.029-0.158-0.05-0.226-0.077c-0.747-0.298-1.493-0.596-2.24-0.896
		c-0.499-0.2-0.731-0.541-0.731-1.072c0-2.342,0.003-4.683-0.005-7.025c-0.001-0.209,0.057-0.26,0.26-0.258
		c0.914,0.011,1.827,0.009,2.741,0.001c0.169-0.001,0.216,0.051,0.216,0.218c-0.005,2.971-0.003,5.942-0.004,8.913
		C574.044,65.827,574.037,65.886,574.032,65.962z"/>
</g>
<g display="none">
	<path display="inline" d="M1,363.622c0-87.988,0-175.977,0-263.965c1.726-0.451,3.521-0.729,5.169-1.379
		c78.1-30.804,156.196-61.621,234.248-92.547c3.16-1.252,5.788-1.304,8.954-0.155c85.446,31.022,170.922,61.96,256.405,92.879
		c1.668,0.603,3.479,0.81,5.224,1.201c0,87.988,0,175.977,0,263.965c-70.638,47.366-141.29,94.713-211.867,142.171
		c-2.928,1.969-5.052,1.801-8.038,0.327c-50.383-24.874-100.816-49.649-151.254-74.412C93.572,408.991,47.281,386.316,1,363.622z
		 M39.949,125.707c0,3.103,0,5.032,0,6.961c0,66.873,0.047,133.746-0.106,200.618c-0.01,4.435,1.265,6.678,5.313,8.659
		c80.518,39.411,160.954,78.989,241.407,118.531c7.931,3.898,8.774,3.395,8.774-5.255c0.003-74.672-0.044-149.344,0.112-224.015
		c0.01-4.565-1.343-6.577-5.623-8.236c-72.126-27.96-144.176-56.116-216.247-84.22C62.812,134.549,52.028,130.389,39.949,125.707z
		 M379.915,170.146c-1.98-0.862-3.023-1.361-4.097-1.778c-72.725-28.22-145.441-56.465-218.232-84.514
		c-2.604-1.004-6.284-0.903-8.914,0.109c-25.195,9.696-50.273,19.694-75.377,29.624c-1.457,0.576-2.853,1.308-4.97,2.287
		c2.092,0.881,3.291,1.419,4.514,1.896c76.533,29.853,153.075,59.684,229.579,89.61c3.242,1.268,5.802,1.098,8.866-0.546
		c21.318-11.44,42.734-22.699,64.111-34.029C376.667,172.133,377.878,171.349,379.915,170.146z M180.207,71.429
		c2.149,1.036,3.397,1.747,4.723,2.261c71.22,27.623,142.452,55.214,213.651,82.889c3.025,1.176,5.489,1.212,8.426-0.369
		c17.808-9.591,35.716-18.996,53.582-28.48c1.272-0.675,2.477-1.476,4.178-2.497c-1.093-0.509-1.62-0.804-2.18-1.007
		c-71.513-25.881-143.023-51.771-214.58-77.532c-1.768-0.637-4.248-0.322-6.073,0.384c-16.382,6.336-32.691,12.859-49.022,19.326
		C188.97,67.967,185.026,69.524,180.207,71.429z M378.198,231.354c0.733,1.233,1.685,4.926,3.537,5.452
		c2.726,0.775,6.617,0.146,9.1-1.374c12.845-7.863,25.465-16.1,38.024-24.418c5.524-3.659,8.856-9.119,9.221-15.72
		c0.145-2.626-0.978-6.287-2.864-7.752c-1.488-1.156-5.466-0.441-7.584,0.766c-12.651,7.211-25.158,14.686-37.562,22.318
		C383.028,214.959,379.124,221.481,378.198,231.354z"/>
	<path fill="#FFFFFF" d="M562.041,61.869c1.888,0.926,3.775,1.85,5.663,2.777c2.057,1.01,4.114,2.02,6.169,3.035
		c0.122,0.06,0.208,0.067,0.328-0.013c2.878-1.936,5.76-3.867,8.641-5.798c0,1.991,0,3.981,0,5.972c-6.933,0-13.867,0-20.8,0
		C562.041,65.85,562.041,63.859,562.041,61.869z"/>
	<path fill="#FFFFFF" d="M582.841,51.103c-0.071-0.016-0.145-0.024-0.213-0.049c-3.486-1.261-6.972-2.523-10.457-3.788
		c-0.129-0.047-0.236-0.045-0.365,0.006c-3.183,1.261-6.368,2.518-9.554,3.774c-0.067,0.027-0.14,0.038-0.211,0.056
		c0-1.353,0-2.706,0-4.061c6.933,0,13.867,0,20.8,0C582.841,48.397,582.841,49.75,582.841,51.103z"/>
	<path fill="#FFFFFF" d="M563.629,52.166c0.493,0.191,0.932,0.361,1.372,0.532c2.939,1.146,5.878,2.295,8.819,3.435
		c0.175,0.068,0.23,0.15,0.229,0.336c-0.006,3.045-0.004,6.091-0.005,9.136c0,0.353-0.034,0.373-0.358,0.214
		c-3.281-1.613-6.562-3.227-9.846-4.834c-0.165-0.081-0.217-0.172-0.217-0.353c0.006-2.727,0.004-5.455,0.004-8.182
		C563.629,52.371,563.629,52.292,563.629,52.166z"/>
	<path fill="#FFFFFF" d="M577.494,53.978c-0.083,0.049-0.133,0.081-0.184,0.108c-0.872,0.462-1.745,0.921-2.615,1.388
		c-0.125,0.067-0.229,0.074-0.362,0.022c-3.12-1.221-6.242-2.437-9.363-3.655c-0.05-0.019-0.099-0.041-0.184-0.077
		c0.086-0.04,0.143-0.07,0.203-0.093c1.024-0.405,2.047-0.813,3.074-1.208c0.107-0.041,0.257-0.045,0.364-0.004
		c2.969,1.144,5.934,2.296,8.9,3.447C577.371,53.922,577.414,53.943,577.494,53.978z"/>
	<path fill="#FFFFFF" d="M569.349,49.952c0.197-0.078,0.357-0.141,0.518-0.205c0.666-0.264,1.331-0.53,1.999-0.788
		c0.074-0.029,0.176-0.042,0.248-0.016c2.918,1.051,5.835,2.107,8.751,3.162c0.023,0.008,0.044,0.02,0.089,0.041
		c-0.069,0.042-0.119,0.074-0.17,0.102c-0.729,0.387-1.459,0.77-2.185,1.162c-0.12,0.065-0.22,0.063-0.344,0.015
		c-2.904-1.129-5.809-2.254-8.714-3.381C569.488,50.023,569.437,49.994,569.349,49.952z"/>
	<path fill="#FFFFFF" d="M577.424,56.474c0.038-0.403,0.197-0.669,0.484-0.845c0.506-0.311,1.016-0.616,1.532-0.91
		c0.086-0.049,0.249-0.078,0.309-0.031c0.077,0.06,0.123,0.209,0.117,0.316c-0.015,0.269-0.151,0.492-0.376,0.641
		c-0.512,0.339-1.027,0.675-1.551,0.996c-0.101,0.062-0.26,0.088-0.371,0.056C577.493,56.675,577.454,56.525,577.424,56.474z"/>
</g>
<g display="none">
	<path fill="#FFFFFF" d="M562.041,60.325c0-4.428,0-8.856,0-13.284c6.933,0,13.867,0,20.8,0c0,6.933,0,13.867,0,20.8
		c-4.428,0-8.856,0-13.284,0c0.059-0.012,0.118-0.025,0.177-0.036c0.551-0.099,1.125-0.13,1.649-0.309
		c2.692-0.92,4.36-2.779,4.925-5.578c0.258-1.281,0.139-2.548-0.332-3.771c-0.177-0.458-0.404-0.897-0.593-1.312
		c0.691-0.691,1.392-1.392,2.108-2.108c0.993,0.993,2.006,2.006,3.002,3.003c0.748-0.748,1.493-1.493,2.277-2.277
		c-1.005-1.004-2.021-2.021-3.061-3.061c1.004-1.003,2.018-2.016,3.005-3.002c-0.743-0.743-1.487-1.488-2.257-2.257
		c-0.997,0.997-2.01,2.011-3.045,3.046c-1.011-1.012-2.028-2.029-3.012-3.014c-0.752,0.752-1.496,1.497-2.27,2.271
		c0.995,0.994,2.008,2.007,3.013,3.013c-0.69,0.687-1.39,1.383-2.096,2.087c-0.153-0.085-0.322-0.185-0.496-0.275
		c-0.174-0.09-0.348-0.183-0.53-0.254c-2.012-0.79-4.014-0.777-5.955,0.195c-2.167,1.086-3.468,2.852-3.907,5.243
		C562.107,59.735,562.08,60.031,562.041,60.325z"/>
	<path display="inline" d="M1,325.839c0.964-7.229,1.627-14.513,2.94-21.678c10.78-58.811,42.793-102.28,96.119-128.992
		c47.755-23.922,96.999-24.256,146.512-4.806c4.477,1.759,8.764,4.033,13.045,6.252c4.272,2.214,8.425,4.66,12.194,6.761
		c17.381-17.302,34.583-34.428,51.57-51.337c-24.743-24.739-49.67-49.662-74.143-74.131c19.041-19.051,37.338-37.358,55.842-55.872
		c24.227,24.24,49.227,49.252,74.113,74.15c25.465-25.473,50.393-50.409,74.915-74.94c18.933,18.936,37.247,37.252,55.531,55.538
		c-24.301,24.276-49.235,49.184-73.948,73.872c25.575,25.573,50.595,50.592,75.311,75.305c-19.282,19.286-37.61,37.617-56.018,56.03
		c-24.516-24.524-49.443-49.46-73.866-73.891c-17.613,17.618-34.86,34.87-51.858,51.873c4.651,10.211,10.231,21.013,14.579,32.29
		c11.593,30.07,14.539,61.266,8.179,92.773c-13.905,68.884-54.945,114.609-121.178,137.25c-12.882,4.404-27.012,5.152-40.565,7.595
		c-1.457,0.263-2.904,0.582-4.356,0.875c-4.998,0-9.995,0-14.993,0c-1.622-0.293-3.235-0.774-4.868-0.85
		c-19.816-0.927-38.958-5.334-56.903-13.467C50.974,470.071,15.386,425.587,3.829,362.443C2.523,355.306,1.926,348.039,1,340.832
		C1,335.834,1,330.837,1,325.839z M177.946,432.051c54.275,0.149,98.639-43.931,98.873-98.242
		c0.233-53.946-44.158-98.529-98.446-98.874c-53.98-0.343-98.409,43.987-98.67,98.447
		C79.444,387.666,123.487,431.901,177.946,432.051z"/>
	<path fill="#FFFFFF" d="M562.041,60.934c0.038,0.293,0.062,0.588,0.115,0.878c0.47,2.566,1.916,4.374,4.281,5.446
		c0.729,0.331,1.507,0.51,2.313,0.547c0.066,0.003,0.132,0.023,0.198,0.035c-2.302,0-4.604,0-6.906,0
		C562.041,65.539,562.041,63.236,562.041,60.934z"/>
	<path fill="#FFFFFF" d="M569.232,64.642c-2.213-0.006-4.003-1.804-3.993-4.01c0.011-2.213,1.816-4.015,4.01-4.001
		c2.206,0.014,4.011,1.826,4.001,4.019C573.241,62.856,571.438,64.648,569.232,64.642z"/>
</g>
</svg>
