<?xml version="1.0" encoding="utf-8"?>
<!-- Generator: Adobe Illustrator 17.0.0, SVG Export Plug-In . SVG Version: 6.00 Build 0)  -->
<!DOCTYPE svg PUBLIC "-//W3C//DTD SVG 1.1//EN" "http://www.w3.org/Graphics/SVG/1.1/DTD/svg11.dtd">
<svg version="1.1" id="Layer_1" xmlns="http://www.w3.org/2000/svg" xmlns:xlink="http://www.w3.org/1999/xlink" x="0px" y="0px"
	 width="512px" height="512px" viewBox="0 0 512 512" enable-background="new 0 0 512 512" xml:space="preserve">
<g>
	<line fill="none" stroke="#B35047" x1="32" y1="0" x2="32" y2="512"/>
	<line fill="none" stroke="#B35047" x1="64" y1="0" x2="64" y2="512"/>
	<line fill="none" stroke="#B35047" x1="96" y1="0" x2="96" y2="512"/>
	<line fill="none" stroke="#B35047" x1="128" y1="0" x2="128" y2="512"/>
	<line fill="none" stroke="#B35047" x1="160" y1="0" x2="160" y2="512"/>
	<line fill="none" stroke="#B35047" x1="192" y1="0" x2="192" y2="512"/>
	<line fill="none" stroke="#B35047" x1="224" y1="0" x2="224" y2="512"/>
	<line fill="none" stroke="#B35047" x1="256" y1="0" x2="256" y2="512"/>
	<line fill="none" stroke="#B35047" x1="288" y1="0" x2="288" y2="512"/>
	<line fill="none" stroke="#B35047" x1="320" y1="0" x2="320" y2="512"/>
	<line fill="none" stroke="#B35047" x1="352" y1="0" x2="352" y2="512"/>
	<line fill="none" stroke="#B35047" x1="384" y1="0" x2="384" y2="512"/>
	<line fill="none" stroke="#B35047" x1="416" y1="0" x2="416" y2="512"/>
	<line fill="none" stroke="#B35047" x1="448" y1="0" x2="448" y2="512"/>
	<line fill="none" stroke="#B35047" x1="480" y1="0" x2="480" y2="512"/>
	<line fill="none" stroke="#B35047" x1="0" y1="32" x2="512" y2="32"/>
	<line fill="none" stroke="#B35047" x1="0" y1="64" x2="512" y2="64"/>
	<line fill="none" stroke="#B35047" x1="0" y1="96" x2="512" y2="96"/>
	<line fill="none" stroke="#B35047" x1="0" y1="128" x2="512" y2="128"/>
	<line fill="none" stroke="#B35047" x1="0" y1="160" x2="512" y2="160"/>
	<line fill="none" stroke="#B35047" x1="0" y1="192" x2="512" y2="192"/>
	<line fill="none" stroke="#B35047" x1="0" y1="224" x2="512" y2="224"/>
	<line fill="none" stroke="#B35047" x1="0" y1="256" x2="512" y2="256"/>
	<line fill="none" stroke="#B35047" x1="0" y1="288" x2="512" y2="288"/>
	<line fill="none" stroke="#B35047" x1="0" y1="320" x2="512" y2="320"/>
	<line fill="none" stroke="#B35047" x1="0" y1="352" x2="512" y2="352"/>
	<line fill="none" stroke="#B35047" x1="0" y1="384" x2="512" y2="384"/>
	<line fill="none" stroke="#B35047" x1="0" y1="416" x2="512" y2="416"/>
	<line fill="none" stroke="#B35047" x1="0" y1="448" x2="512" y2="448"/>
	<line fill="none" stroke="#B35047" x1="0" y1="480" x2="512" y2="480"/>
	<rect x="0" fill="none" stroke="#B35047" width="512" height="512"/>
</g>
<image display="none" overflow="visible" width="512" height="512" xlink:href="../../../Knowledge/Icon/[+++++] (Full) Windows 8 Icons [icons8]/Security/key/key-512.png"  transform="matrix(0.0406 0 0 0.0406 577 65)">
</image>
<image display="none" overflow="visible" width="512" height="512" xlink:href="../../../Knowledge/Icon/[+++++] (Full) Windows 8 Icons [icons8]/Sport_Activities/stopwatch/stopwatch-512.png"  transform="matrix(0.0406 0 0 0.0406 607 143)">
</image>
<g>
	<path display="none" fill="#FFFFFF" d="M627.841,154.334c0,3.168,0,6.335,0,9.505c-6.93,0-13.86,0-20.795,0
		c0-6.932,0-13.865,0-20.798c3.328,0,6.659,0,9.989,0c-0.052,0.011-0.104,0.029-0.157,0.032c-1.181,0.057-2.313,0.329-3.399,0.792
		c-1.049,0.447-1.997,1.051-2.83,1.833c-0.295,0.277-0.402,0.605-0.263,0.992c1.179,3.296,2.359,6.592,3.544,9.886
		c0.049,0.136,0.124,0.277,0.224,0.379c0.319,0.326,0.791,0.318,1.144-0.015c0.514-0.486,1.073-0.911,1.686-1.263
		c0.574-0.329,1.176-0.585,1.847-0.624c0.79-0.046,1.563,0.071,2.328,0.266c0.66,0.169,1.319,0.376,1.991,0.462
		c1.37,0.176,2.674-0.135,3.931-0.676C627.442,154.949,627.745,154.747,627.841,154.334z M614.56,163.604
		c0.023-0.004,0.106-0.009,0.181-0.035c0.458-0.155,0.648-0.586,0.472-1.086c-0.211-0.599-0.429-1.195-0.645-1.793
		c-1.669-4.626-3.338-9.253-5.009-13.878c-0.044-0.122-0.06-0.211,0.048-0.324c0.237-0.247,0.267-0.613,0.107-0.904
		c-0.158-0.286-0.471-0.463-0.802-0.389c-0.447,0.101-0.89,0.229-1.322,0.38c-0.316,0.11-0.503,0.484-0.457,0.807
		c0.051,0.352,0.316,0.642,0.658,0.675c0.163,0.016,0.211,0.097,0.258,0.228c1.451,4.03,2.905,8.059,4.358,12.088
		c0.433,1.201,0.866,2.402,1.3,3.603C613.863,163.405,614.127,163.613,614.56,163.604z"/>
	<path d="M511,280.91c-2.36,10.158-9.82,15.122-18.724,18.959c-30.947,13.337-63.06,20.997-96.776,16.652
		c-16.556-2.134-32.759-7.229-49.019-11.383c-18.831-4.811-37.852-7.689-57.305-6.561c-16.51,0.957-31.339,7.257-45.471,15.362
		c-15.099,8.659-28.842,19.129-41.503,31.091c-8.701,8.221-20.303,8.401-28.168,0.38c-2.467-2.515-4.319-5.974-5.527-9.334
		c-29.167-81.1-58.224-162.24-87.254-243.389c-3.411-9.535-0.79-17.59,6.479-24.418c20.501-19.257,43.851-34.138,69.668-45.139
		c26.734-11.391,54.601-18.093,83.688-19.489c1.298-0.062,2.577-0.512,3.865-0.782c6.668,0,13.336,0,20.004,0
		c1.454,0.306,2.894,0.762,4.364,0.893c13.658,1.219,27.02,3.894,39.688,9.17c18.246,7.6,36.277,15.714,54.496,23.381
		c13.487,5.676,27.613,7.365,42.062,5.077c25.388-4.021,47.422-15.718,68.305-30.096c4.732-3.258,10.068-5.64,15.126-8.426
		c2,0,4.001,0,6.001,0c8.453,3.229,14.216,8.849,16.003,18.003C511,107.546,511,194.228,511,280.91z M374.046,211.793
		c4.606,20.598,9.148,41.211,13.963,61.76c0.315,1.343,2.618,2.919,4.18,3.15c6.409,0.95,12.9,2.037,19.34,1.921
		c9.063-0.163,18.108-1.349,27.587-2.133c-1.779-21.892-3.475-42.766-5.171-63.641c11.119-3.347,22.219-6.761,33.369-10.001
		c3.661-1.064,4.693-3.151,4.666-6.907c-0.173-23.985-0.083-47.972-0.102-71.958c-0.001-1.409-0.198-2.817-0.352-4.864
		c-14.127,7.783-27.931,14.777-43.503,19.019c-1.692-20.385-3.326-40.081-5.001-60.264c-28.107,6.645-54.871,3.662-81.752-8.45
		c4.755,20.976,9.245,40.78,13.829,61c-12.31-5.228-23.731-10.731-35.614-14.927c-10.257-3.621-21.039-5.754-31.589-8.545
		c-5.219-19.777-10.538-39.528-15.563-59.354c-0.908-3.583-2.488-4.742-6.061-4.965c-29.724-1.857-58.374,2.974-86.167,13.402
		c-1.494,0.56-2.9,1.354-4.461,2.094c7.923,20.393,15.663,40.315,23.475,60.423c-2.058,0.898-3.635,1.435-5.065,2.235
		c-15.508,8.682-30.973,17.442-46.5,26.089c-3.56,1.982-4.071,4.268-2.644,8.125c7.73,20.903,15.166,41.914,22.7,62.889
		c2.508,6.982,5.005,13.968,7.674,21.42c17.914-14.21,35.948-27.079,57.057-35.366c7.929,20.778,15.673,41.071,23.598,61.838
		c24.064-8.64,48.245-7.26,73.218-4.205c-5.828-21.993-11.474-43.302-17.121-64.612c16.516,4.074,33.026,8.177,49.554,12.202
		C365.71,210.171,369.892,210.924,374.046,211.793z"/>
	<path display="none" fill="#FFFFFF" d="M626.947,143.041c-0.205,0.113-0.422,0.21-0.614,0.342
		c-0.848,0.584-1.743,1.059-2.774,1.222c-0.587,0.093-1.161,0.024-1.708-0.206c-0.74-0.311-1.472-0.641-2.214-0.95
		c-0.514-0.214-1.057-0.323-1.612-0.372c-0.06-0.005-0.118-0.024-0.177-0.036C620.88,143.041,623.914,143.041,626.947,143.041z"/>
	<path display="none" fill="#FFFFFF" d="M627.841,143.772c-0.073-0.372-0.307-0.6-0.65-0.731c0.217,0,0.433,0,0.65,0
		C627.841,143.284,627.841,143.528,627.841,143.772z"/>
	<path d="M184.022,509.133c-10.644,0.225-17.153-4.899-20.973-15.47c-10.685-29.565-21.346-59.137-32.013-88.708
		C95.255,305.76,59.466,206.567,23.739,107.353c-1.154-3.205-2.359-5.212-6.361-5.602c-8.431-0.823-14.96-7.954-16.205-16.623
		C0.031,77.185,4.635,67.98,12.422,65.27c10.651-3.708,21.552-6.863,32.552-9.346c8.152-1.84,15.87,2.528,19.748,9.566
		c3.95,7.168,3.213,16.187-2.624,22.261c-2.67,2.778-2.277,4.966-1.192,7.97c41.138,113.883,82.229,227.784,123.324,341.682
		c5.306,14.706,10.693,29.384,15.876,44.133c4.329,12.318-0.338,22.916-11.625,26.74
		C186.624,508.905,184.596,509.028,184.022,509.133z"/>
	<path display="none" fill="#FFFFFF" d="M619.759,150.925c0.229,0.866,0.459,1.731,0.695,2.624c-1.014-0.124-1.997-0.18-2.974,0.171
		c-0.322-0.844-0.636-1.668-0.958-2.512c-0.857,0.337-1.59,0.859-2.318,1.436c-0.108-0.303-0.21-0.586-0.312-0.87
		c-0.306-0.852-0.608-1.705-0.922-2.554c-0.058-0.157-0.037-0.25,0.107-0.33c0.631-0.351,1.259-0.707,1.889-1.06
		c0.058-0.033,0.122-0.054,0.206-0.091c-0.317-0.817-0.632-1.626-0.954-2.454c0.063-0.03,0.121-0.062,0.181-0.085
		c1.129-0.424,2.293-0.62,3.5-0.544c0.145,0.009,0.209,0.056,0.246,0.202c0.204,0.805,0.42,1.608,0.632,2.411l0.005-0.006
		c-1.23-0.108-2.416,0.096-3.591,0.491c0.451,1.158,0.892,2.287,1.33,3.411c0.406-0.101,0.783-0.208,1.166-0.286
		c0.687-0.141,1.374-0.04,2.059,0.037L619.759,150.925z"/>
	<path display="none" fill="#FFFFFF" d="M618.779,147.269c0.429,0.113,0.867,0.2,1.283,0.347c0.483,0.17,0.947,0.394,1.447,0.606
		c-0.186-0.821-0.369-1.626-0.562-2.478c1.092,0.492,2.179,0.613,3.321,0.343c0.068,0.82,0.134,1.62,0.203,2.448
		c0.633-0.172,1.193-0.456,1.767-0.773c0.006,0.083,0.014,0.14,0.014,0.198c0.001,0.974-0.003,1.949,0.004,2.923
		c0.001,0.153-0.041,0.237-0.19,0.281c-0.453,0.132-0.904,0.27-1.355,0.406c0,0,0.004,0.004,0.004,0.004
		c-0.012-0.066-0.029-0.132-0.035-0.199c-0.046-0.566-0.089-1.132-0.135-1.697c-0.03-0.367-0.062-0.733-0.094-1.118
		c-1.012,0.288-1.964,0.138-2.913-0.289c0.252,1.119,0.493,2.191,0.734,3.263l0.005-0.006c-0.169-0.035-0.339-0.066-0.506-0.107
		c-0.671-0.163-1.342-0.33-2.013-0.496c0,0-0.011-0.009-0.011-0.009c-0.143-0.527-0.289-1.053-0.428-1.58
		c-0.182-0.69-0.358-1.382-0.537-2.073L618.779,147.269z"/>
	<path display="none" fill="#FFFFFF" d="M624.711,151.57c0.069,0.848,0.138,1.696,0.21,2.585c-0.385,0.032-0.752,0.08-1.121,0.087
		c-0.262,0.005-0.525-0.039-0.786-0.078c-0.063-0.009-0.157-0.073-0.17-0.128c-0.196-0.835-0.38-1.672-0.567-2.509
		c0,0-0.005,0.006-0.005,0.006c0.521,0.045,1.04,0.109,1.562,0.128c0.292,0.01,0.587-0.055,0.881-0.086L624.711,151.57z"/>
	<path d="M288.029,106.815c4.399,17.01,8.741,34.035,13.215,51.025c3.422,12.992,7.011,25.94,10.526,38.908
		c-16.874-1.897-33.776-4.377-50.698-0.909c-9.419,1.93-18.694,4.561-28.698,7.041c-10.787-27.665-21.628-55.469-32.744-83.977
		C228.55,109.167,257.735,104.157,288.029,106.815z"/>
	<path d="M434.051,212.952c-7.23,0.771-14.49,2.383-21.684,2.129c-12.839-0.453-25.639-2.033-38.455-3.141
		c-5.938-26.393-11.877-52.785-18.073-80.323c23.359,10.523,46.793,14.218,71.717,7.123c0.802,9.476,1.594,18.494,2.322,27.518
		c1.124,13.928,2.187,27.861,3.323,41.789C433.335,209.694,433.761,211.318,434.051,212.952z"/>
</g>
<g display="none">
	<path display="inline" d="M510.467,70.727c0,7.637,0,15.273,0,22.91c-0.355,1.759-0.741,3.512-1.059,5.278
		c-2.139,11.885-3.407,24.005-6.552,35.617c-9.444,34.869-30.362,62.391-57.802,84.991c-17.138,14.115-35.133,27.22-53.081,40.315
		c-26.276,19.171-46.844,42.349-58.895,73.299c-8.794,22.584-21.929,43.058-38.62,61.053c-4.326,4.665-7.858,10.319-10.719,16.037
		c-5.573,11.141-3.555,21.347,5.745,29.719c4.392,3.954,9.39,7.465,14.618,10.218c14.947,7.869,30.318,14.939,45.196,22.93
		c9.249,4.968,17.748,11.222,21.64,21.736c2.86,7.728,2.109,9.02-5.768,10.545c-1.137,0.22-2.281,0.47-3.432,0.536
		c-25.161,1.458-50.323,2.882-75.483,4.343c-2.632,0.153-5.252,0.493-7.878,0.746c-14.941,0-29.883,0-44.824,0
		c-1.629-0.23-3.252-0.608-4.887-0.668c-14.592-0.53-29.207-0.675-43.774-1.59c-13.724-0.862-27.396-2.543-41.096-3.812
		c-3.793-0.352-5.042-1.959-4.204-5.906c1.84-8.668,6.559-15.584,13.912-19.803c14.627-8.393,29.874-15.696,44.639-23.86
		c8.371-4.628,16.912-9.314,24.261-15.335c9.336-7.65,10.891-17.884,5.822-28.797c-1.939-4.174-4.403-8.206-7.215-11.849
		c-4.553-5.899-9.752-11.296-14.393-17.131c-15.323-19.261-26.079-41.134-35.301-63.74c-6.439-15.784-16.209-29.096-29.097-39.737
		c-18.276-15.09-37.277-29.316-56.182-43.627c-17.122-12.961-33.554-26.652-47.074-43.433C7.135,152.21-3.944,106.781,4.011,57.323
		C8.687,28.251,27.254,10.038,56.59,3.86C62.078,2.705,67.649,1.943,73.182,1c4.316,0,8.633,0,12.949,0
		c2.239,0.526,4.473,1.078,6.719,1.575c22.071,4.88,38.717,18.051,53.273,34.56c1.422,1.613,4.05,3.065,6.122,3.07
		c69.008,0.159,138.017,0.159,207.026,0.007c2.088-0.005,4.754-1.358,6.164-2.954c10.312-11.674,21.645-22.134,35.979-28.519
		c7.464-3.325,15.572-5.206,23.389-7.739c4.648,0,9.297,0,13.945,0c4.545,0.718,9.112,1.321,13.631,2.173
		c30.653,5.778,49.023,24.187,55.733,54.46C509.071,61.96,509.691,66.36,510.467,70.727z M369.381,228.379
		c21.268-16.358,43.312-30.57,62.139-48.999c31.121-30.464,42.648-67.803,39.022-110.397c-0.856-10.059-4.529-19.606-14.5-23.994
		c-14.787-6.507-29.99-7.957-43.888,2.315c-6.47,4.782-12.041,10.81-17.805,16.491c-1.286,1.267-2.171,3.395-2.374,5.222
		c-0.604,5.432-0.541,10.939-1.158,16.368c-3.104,27.321-5.765,54.711-9.722,81.911C378.169,187.415,373.495,207.28,369.381,228.379
		z M141.905,227.934c-0.727-3.484-1.092-5.418-1.535-7.334c-11.561-50.026-18.877-100.646-21.354-151.949
		c-0.069-1.426-0.287-3.177-1.138-4.182C105.662,50.042,92.524,37.972,71.19,40.501c-17.941,2.128-28.329,10.657-29.956,28.664
		c-3.853,42.643,7.511,80.394,39.304,110.131c14.242,13.321,30.246,24.766,45.534,36.956
		C130.835,220.05,135.874,223.502,141.905,227.934z M275.67,118.112c-10.029,0-19.629-0.094-29.222,0.131
		c-1.075,0.025-2.668,1.666-3.075,2.875c-5.324,15.794-16.454,24.872-32.475,28.216c-4.808,1.003-9.747,1.376-14.594,2.033
		c0,9.108,0,17.822,0,27.149c13.231,0,26.077,0,39.461,0c0,26.415,0,52.213,0,78.085c13.579,0,26.594,0,39.905,0
		C275.67,210.499,275.67,164.746,275.67,118.112z"/>
	<path fill="#FFFFFF" d="M610.006,143.041c-0.226,0.038-0.453,0.07-0.677,0.117c-1.196,0.252-1.954,0.995-2.144,2.18
		c-0.324,2.017,0.127,3.87,1.425,5.481c0.551,0.684,1.222,1.243,1.92,1.771c0.771,0.584,1.546,1.164,2.291,1.779
		c0.526,0.434,0.924,0.977,1.187,1.621c0.376,0.922,0.815,1.814,1.44,2.6c0.189,0.238,0.401,0.458,0.587,0.699
		c0.115,0.149,0.215,0.313,0.294,0.483c0.207,0.445,0.143,0.862-0.237,1.174c-0.3,0.246-0.648,0.437-0.989,0.625
		c-0.602,0.333-1.224,0.631-1.821,0.973c-0.3,0.172-0.492,0.454-0.567,0.808c-0.034,0.161,0.017,0.227,0.171,0.241
		c0.559,0.052,1.116,0.12,1.676,0.155c0.594,0.037,1.19,0.043,1.785,0.065c0.067,0.002,0.133,0.018,0.199,0.027
		c-3.169,0-6.338,0-9.506,0c0-6.933,0-13.867,0-20.8C608.029,143.041,609.018,143.041,610.006,143.041z"/>
	<path fill="#FFFFFF" d="M618.375,163.841c0.107-0.01,0.214-0.024,0.321-0.03c1.026-0.06,2.052-0.118,3.079-0.177
		c0.047-0.003,0.094-0.013,0.14-0.022c0.321-0.062,0.352-0.115,0.235-0.43c-0.159-0.429-0.505-0.684-0.883-0.886
		c-0.607-0.326-1.234-0.614-1.843-0.935c-0.213-0.112-0.417-0.255-0.596-0.417c-0.379-0.341-0.462-0.758-0.234-1.212
		c0.117-0.233,0.261-0.464,0.437-0.654c0.681-0.734,1.216-1.569,1.575-2.49c0.492-1.262,1.33-2.208,2.402-2.989
		c0.732-0.534,1.466-1.069,2.165-1.644c1.119-0.922,1.972-2.044,2.357-3.466c0.128-0.474,0.18-0.968,0.267-1.453
		c0.013-0.072,0.029-0.144,0.043-0.215c0,5.67,0,11.339,0,17.022C624.685,163.841,621.53,163.841,618.375,163.841z"/>
	<path fill="#FFFFFF" d="M624.347,143.041c-0.319,0.103-0.649,0.18-0.954,0.316c-0.585,0.26-1.047,0.687-1.467,1.163
		c-0.058,0.065-0.166,0.12-0.251,0.12c-2.814,0.006-5.629,0.006-8.443,0c-0.084,0-0.192-0.059-0.25-0.125
		c-0.594-0.673-1.273-1.21-2.173-1.41c-0.092-0.02-0.183-0.043-0.274-0.064C615.139,143.041,619.743,143.041,624.347,143.041z"/>
	<path fill="#FFFFFF" d="M627.841,145.884c-0.032-0.178-0.057-0.358-0.096-0.534c-0.274-1.235-1.023-1.986-2.273-2.221
		c-0.184-0.035-0.371-0.059-0.556-0.089c0.975,0,1.95,0,2.925,0C627.841,143.989,627.841,144.936,627.841,145.884z"/>
	<path fill="#FFFFFF" d="M622.086,152.314c0.168-0.861,0.358-1.671,0.478-2.491c0.161-1.109,0.27-2.226,0.396-3.341
		c0.025-0.221,0.023-0.446,0.047-0.668c0.008-0.075,0.044-0.161,0.097-0.213c0.235-0.232,0.462-0.478,0.726-0.673
		c0.567-0.419,1.187-0.36,1.79-0.094c0.407,0.179,0.556,0.568,0.591,0.979c0.148,1.737-0.322,3.26-1.591,4.502
		C623.853,151.067,622.954,151.647,622.086,152.314z"/>
	<path fill="#FFFFFF" d="M612.809,152.296c-0.246-0.181-0.451-0.322-0.646-0.476c-0.624-0.497-1.276-0.964-1.857-1.507
		c-1.297-1.213-1.76-2.752-1.603-4.492c0.066-0.734,0.49-1.082,1.222-1.169c0.87-0.103,1.406,0.389,1.904,0.977
		c0.035,0.041,0.044,0.112,0.046,0.171c0.101,2.092,0.399,4.157,0.871,6.197C612.765,152.075,612.779,152.154,612.809,152.296z"/>
	<path fill="#FFFFFF" d="M618.265,147.817c0,1.902,0,3.768,0,5.648c-0.543,0-1.074,0-1.628,0c0-1.055,0-2.107,0-3.185
		c-0.546,0-1.07,0-1.609,0c0-0.38,0-0.736,0-1.107c0.198-0.027,0.399-0.042,0.595-0.083c0.653-0.136,1.107-0.507,1.324-1.151
		c0.017-0.049,0.082-0.116,0.125-0.117C617.464,147.813,617.856,147.817,618.265,147.817z"/>
</g>
</svg>
