<?xml version="1.0" encoding="utf-8"?>
<!-- Generator: Adobe Illustrator 17.0.0, SVG Export Plug-In . SVG Version: 6.00 Build 0)  -->
<!DOCTYPE svg PUBLIC "-//W3C//DTD SVG 1.1//EN" "http://www.w3.org/Graphics/SVG/1.1/DTD/svg11.dtd">
<svg version="1.1" id="Layer_1" xmlns="http://www.w3.org/2000/svg" xmlns:xlink="http://www.w3.org/1999/xlink" x="0px" y="0px"
	 width="512px" height="512px" viewBox="0 0 512 512" enable-background="new 0 0 512 512" xml:space="preserve">
<g>
	<line fill="none" stroke="#B35047" x1="32" y1="0" x2="32" y2="512"/>
	<line fill="none" stroke="#B35047" x1="64" y1="0" x2="64" y2="512"/>
	<line fill="none" stroke="#B35047" x1="96" y1="0" x2="96" y2="512"/>
	<line fill="none" stroke="#B35047" x1="128" y1="0" x2="128" y2="512"/>
	<line fill="none" stroke="#B35047" x1="160" y1="0" x2="160" y2="512"/>
	<line fill="none" stroke="#B35047" x1="192" y1="0" x2="192" y2="512"/>
	<line fill="none" stroke="#B35047" x1="224" y1="0" x2="224" y2="512"/>
	<line fill="none" stroke="#B35047" x1="256" y1="0" x2="256" y2="512"/>
	<line fill="none" stroke="#B35047" x1="288" y1="0" x2="288" y2="512"/>
	<line fill="none" stroke="#B35047" x1="320" y1="0" x2="320" y2="512"/>
	<line fill="none" stroke="#B35047" x1="352" y1="0" x2="352" y2="512"/>
	<line fill="none" stroke="#B35047" x1="384" y1="0" x2="384" y2="512"/>
	<line fill="none" stroke="#B35047" x1="416" y1="0" x2="416" y2="512"/>
	<line fill="none" stroke="#B35047" x1="448" y1="0" x2="448" y2="512"/>
	<line fill="none" stroke="#B35047" x1="480" y1="0" x2="480" y2="512"/>
	<line fill="none" stroke="#B35047" x1="0" y1="32" x2="512" y2="32"/>
	<line fill="none" stroke="#B35047" x1="0" y1="64" x2="512" y2="64"/>
	<line fill="none" stroke="#B35047" x1="0" y1="96" x2="512" y2="96"/>
	<line fill="none" stroke="#B35047" x1="0" y1="128" x2="512" y2="128"/>
	<line fill="none" stroke="#B35047" x1="0" y1="160" x2="512" y2="160"/>
	<line fill="none" stroke="#B35047" x1="0" y1="192" x2="512" y2="192"/>
	<line fill="none" stroke="#B35047" x1="0" y1="224" x2="512" y2="224"/>
	<line fill="none" stroke="#B35047" x1="0" y1="256" x2="512" y2="256"/>
	<line fill="none" stroke="#B35047" x1="0" y1="288" x2="512" y2="288"/>
	<line fill="none" stroke="#B35047" x1="0" y1="320" x2="512" y2="320"/>
	<line fill="none" stroke="#B35047" x1="0" y1="352" x2="512" y2="352"/>
	<line fill="none" stroke="#B35047" x1="0" y1="384" x2="512" y2="384"/>
	<line fill="none" stroke="#B35047" x1="0" y1="416" x2="512" y2="416"/>
	<line fill="none" stroke="#B35047" x1="0" y1="448" x2="512" y2="448"/>
	<line fill="none" stroke="#B35047" x1="0" y1="480" x2="512" y2="480"/>
	<rect x="0" fill="none" stroke="#B35047" width="512" height="512"/>
</g>
<g>
	<path display="none" fill="#FFFFFF" d="M624.834,50.841c-6.929,0-13.86,0-20.793,0c0-6.931,0-13.862,0-20.796
		c6.928,0,13.858,0,20.793,0C624.834,36.974,624.834,43.907,624.834,50.841z M616.545,50.519c0.151-0.028,0.256-0.044,0.359-0.067
		c2.436-0.559,4.25-2.628,4.629-5.097c0.286-1.859-0.02-3.669-0.684-5.417c-0.589-1.552-1.484-2.928-2.509-4.223
		c-1.572-1.987-3.377-3.752-5.223-5.477c-0.031-0.029-0.072-0.047-0.082-0.054c-0.243,0.789-0.457,1.579-0.728,2.349
		c-0.523,1.485-1.262,2.869-2.056,4.225c-0.786,1.342-1.625,2.654-2.239,4.09c-0.465,1.086-0.758,2.21-0.761,3.4
		c-0.003,1.249,0.295,2.41,1.002,3.452c0.622,0.917,1.454,1.598,2.425,2.113c0.412,0.219,0.847,0.397,1.26,0.588
		c-0.366-0.436-0.753-0.844-1.079-1.297c-0.511-0.709-0.799-1.499-0.722-2.395c0.059-0.693,0.21-1.361,0.496-1.998
		c0.36-0.801,0.728-1.599,1.072-2.407c0.141-0.333,0.227-0.689,0.345-1.055c0.47,0.402,0.827,0.87,1.096,1.406
		c0.27,0.538,0.44,1.109,0.521,1.712c1.288-2.19,1.895-4.531,1.574-7.114c0.058,0.042,0.08,0.054,0.099,0.071
		c1.285,1.146,2.385,2.438,3.113,4.015c0.801,1.735,1.025,3.535,0.538,5.399c-0.339,1.298-0.978,2.428-1.951,3.36
		C616.895,50.235,616.734,50.358,616.545,50.519z"/>
	<path d="M308.651,511c4.751-4.036,8.773-7.113,12.407-10.595c24.402-23.373,40.423-51.714,48.921-84.268
		c12.201-46.74,6.577-91.875-13.505-135.39c-18.244-39.532-45.828-71.938-78.062-100.682c-0.462-0.412-1.01-0.728-2.476-1.77
		c8.037,64.78-7.177,123.478-39.484,178.41c-2.041-15.124-6.299-29.429-13.065-42.934c-6.735-13.444-15.681-25.198-27.478-35.273
		c-2.959,9.193-5.115,18.127-8.661,26.47c-8.616,20.272-17.861,40.276-26.884,60.374c-7.162,15.955-10.942,32.715-12.431,50.097
		c-1.925,22.464,5.304,42.29,18.112,60.06c8.181,11.35,17.888,21.6,27.064,32.526c-10.371-4.804-21.259-9.265-31.601-14.754
		c-24.331-12.913-45.202-29.991-60.808-52.99c-17.732-26.132-25.196-55.24-25.131-86.574c0.062-29.855,7.429-58.043,19.079-85.279
		c15.4-36.005,36.454-68.929,56.161-102.575c19.918-34.007,38.457-68.701,51.574-105.95C209.182,40.598,214.556,20.792,220.639,1
		c0.258,0.166,1.279,0.626,2.053,1.35c46.301,43.275,91.566,87.548,130.993,137.369c25.702,32.478,48.153,66.99,62.921,105.906
		c16.634,43.834,24.306,89.238,17.142,135.853c-9.518,61.934-54.991,113.815-116.093,127.832
		C315.066,509.904,312.431,510.296,308.651,511z"/>
</g>
<image display="none" overflow="visible" width="512" height="512" xlink:href="../../../Knowledge/Icon/[+++++] (Full) Windows 8 Icons [icons8]/Industry/recycling/recycling-512_.png"  transform="matrix(0.0406 0 0 0.0406 604 30)">
</image>
<image display="none" overflow="visible" width="512" height="512" xlink:href="../../../Knowledge/Icon/[+++++] (Full) Windows 8 Icons [icons8]/Industry/rack/rack-512.png"  transform="matrix(0.0406 0 0 0.0406 604 30)">
</image>
<image display="none" overflow="visible" width="512" height="512" xlink:href="../../../Knowledge/Icon/[+++++] (Full) Windows 8 Icons [icons8]/Industry/ladder/ladder-512.png"  transform="matrix(0.0406 0 0 0.0406 604 30)">
</image>
<image display="none" overflow="visible" width="512" height="512" xlink:href="../../../Knowledge/Icon/[+++++] (Full) Windows 8 Icons [icons8]/Industry/engineering/engineering-512_.png"  transform="matrix(0.0406 0 0 0.0406 604 30)">
</image>
<image display="none" overflow="visible" width="512" height="512" xlink:href="../../../Knowledge/Icon/[+++++] (Full) Windows 8 Icons [icons8]/Industry/greentech/greentech-512_.png"  transform="matrix(0.0406 0 0 0.0406 604 30)">
</image>
<image display="none" overflow="visible" width="512" height="512" xlink:href="../../../Knowledge/Icon/[+++++] (Full) Windows 8 Icons [icons8]/Industry/biohazard/biohazard-512_.png"  transform="matrix(0.0406 0 0 0.0406 605 116)">
</image>
</svg>
