<?xml version="1.0" encoding="utf-8"?>
<!-- Generator: Adobe Illustrator 17.0.0, SVG Export Plug-In . SVG Version: 6.00 Build 0)  -->
<!DOCTYPE svg PUBLIC "-//W3C//DTD SVG 1.1//EN" "http://www.w3.org/Graphics/SVG/1.1/DTD/svg11.dtd">
<svg version="1.1" id="Layer_1" xmlns="http://www.w3.org/2000/svg" xmlns:xlink="http://www.w3.org/1999/xlink" x="0px" y="0px"
	 width="512px" height="512px" viewBox="0 0 512 512" enable-background="new 0 0 512 512" xml:space="preserve">
<g>
	<line fill="none" stroke="#B35047" x1="32" y1="0" x2="32" y2="512"/>
	<line fill="none" stroke="#B35047" x1="64" y1="0" x2="64" y2="512"/>
	<line fill="none" stroke="#B35047" x1="96" y1="0" x2="96" y2="512"/>
	<line fill="none" stroke="#B35047" x1="128" y1="0" x2="128" y2="512"/>
	<line fill="none" stroke="#B35047" x1="160" y1="0" x2="160" y2="512"/>
	<line fill="none" stroke="#B35047" x1="192" y1="0" x2="192" y2="512"/>
	<line fill="none" stroke="#B35047" x1="224" y1="0" x2="224" y2="512"/>
	<line fill="none" stroke="#B35047" x1="256" y1="0" x2="256" y2="512"/>
	<line fill="none" stroke="#B35047" x1="288" y1="0" x2="288" y2="512"/>
	<line fill="none" stroke="#B35047" x1="320" y1="0" x2="320" y2="512"/>
	<line fill="none" stroke="#B35047" x1="352" y1="0" x2="352" y2="512"/>
	<line fill="none" stroke="#B35047" x1="384" y1="0" x2="384" y2="512"/>
	<line fill="none" stroke="#B35047" x1="416" y1="0" x2="416" y2="512"/>
	<line fill="none" stroke="#B35047" x1="448" y1="0" x2="448" y2="512"/>
	<line fill="none" stroke="#B35047" x1="480" y1="0" x2="480" y2="512"/>
	<line fill="none" stroke="#B35047" x1="0" y1="32" x2="512" y2="32"/>
	<line fill="none" stroke="#B35047" x1="0" y1="64" x2="512" y2="64"/>
	<line fill="none" stroke="#B35047" x1="0" y1="96" x2="512" y2="96"/>
	<line fill="none" stroke="#B35047" x1="0" y1="128" x2="512" y2="128"/>
	<line fill="none" stroke="#B35047" x1="0" y1="160" x2="512" y2="160"/>
	<line fill="none" stroke="#B35047" x1="0" y1="192" x2="512" y2="192"/>
	<line fill="none" stroke="#B35047" x1="0" y1="224" x2="512" y2="224"/>
	<line fill="none" stroke="#B35047" x1="0" y1="256" x2="512" y2="256"/>
	<line fill="none" stroke="#B35047" x1="0" y1="288" x2="512" y2="288"/>
	<line fill="none" stroke="#B35047" x1="0" y1="320" x2="512" y2="320"/>
	<line fill="none" stroke="#B35047" x1="0" y1="352" x2="512" y2="352"/>
	<line fill="none" stroke="#B35047" x1="0" y1="384" x2="512" y2="384"/>
	<line fill="none" stroke="#B35047" x1="0" y1="416" x2="512" y2="416"/>
	<line fill="none" stroke="#B35047" x1="0" y1="448" x2="512" y2="448"/>
	<line fill="none" stroke="#B35047" x1="0" y1="480" x2="512" y2="480"/>
	<rect x="0" fill="none" stroke="#B35047" width="512" height="512"/>
</g>
<image display="none" overflow="visible" width="512" height="512" xlink:href="../../../Knowledge/Icon/[+++++] (Full) Windows 8 Icons [icons8]/Phones/conference_call/conference_call-512.png"  transform="matrix(0.0406 0 0 0.0406 611 50)">
</image>
<g>
	<path display="none" fill="#FFFFFF" d="M621.969,70.841c-3.639,0-7.279,0-10.928,0c0-3.467,0-6.933,0-10.4
		c0.015,0.064,0.037,0.127,0.045,0.192c0.203,1.588,1.253,2.924,3.031,2.999c0.53,0.023,0.909-0.292,0.911-0.826
		c0.006-1.842,0.003-3.683,0.002-5.525c0-0.379-0.174-0.643-0.527-0.787c-0.017-0.007-0.029-0.025-0.042-0.036
		c1.03-2.64,3.752-4.901,7.115-4.841c3.276,0.058,5.883,2.333,6.847,4.853c-0.346,0.141-0.568,0.383-0.569,0.776
		c-0.002,1.862-0.006,3.724,0.002,5.586c0.002,0.509,0.385,0.836,0.894,0.8c0.133-0.009,0.265-0.016,0.404-0.025
		c-0.004,0.05-0.003,0.077-0.008,0.103c-0.194,1.045-0.585,2.01-1.205,2.876c-0.437,0.61-0.951,1.147-1.594,1.544
		c-0.117,0.072-0.256,0.145-0.387,0.15c-0.426,0.019-0.853,0.013-1.279,0.001c-0.066-0.002-0.144-0.067-0.191-0.124
		c-0.2-0.243-0.35-0.544-0.59-0.734c-0.978-0.771-2.314-0.762-3.315-0.016c-0.628,0.468-0.893,1.294-0.634,2.008
		c0.19,0.524,0.561,0.896,1.059,1.12C621.313,70.672,621.648,70.741,621.969,70.841z"/>
	<path d="M268.949,510.692c-7.867-2.445-16.069-4.145-23.525-7.504c-12.21-5.5-21.296-14.634-25.967-27.47
		c-6.366-17.496,0.125-37.743,15.534-49.227c24.546-18.294,57.311-18.525,81.285,0.389c5.886,4.644,9.579,12.029,14.477,17.993
		c1.149,1.399,3.075,3.006,4.682,3.048c10.451,0.272,20.926,0.432,31.364-0.035c3.229-0.144,6.635-1.919,9.501-3.69
		c15.775-9.746,28.369-22.909,39.084-37.859c15.206-21.217,24.784-44.875,29.544-70.51c0.119-0.641,0.105-1.307,0.195-2.527
		c-3.413,0.206-6.667,0.372-9.916,0.603c-12.463,0.883-21.865-7.12-21.916-19.609c-0.187-45.651-0.099-91.303-0.05-136.955
		c0.01-9.641,5.461-15.569,13.947-19.03C403.537,96.519,339.631,40.747,259.299,39.326
		c-82.473-1.458-149.208,53.966-174.462,118.708c0.324,0.285,0.627,0.722,1.04,0.889c8.663,3.522,12.925,9.992,12.927,19.291
		c0.009,45.154,0.096,90.309-0.055,135.462c-0.044,13.102-9.338,20.814-22.337,20.26c-43.584-1.855-69.344-34.598-74.309-73.539
		c-0.203-1.59-0.729-3.138-1.104-4.706c0-6.309,0-12.617,0-18.926c0.372-1.763,0.847-3.512,1.1-5.293
		c3.612-25.381,13.885-46.872,35.663-61.81c1.739-1.193,3.32-3.308,3.952-5.316c5.854-18.591,13.85-36.182,23.86-52.894
		c20.924-34.934,49.08-62.599,84.547-82.435c45.076-25.21,93.393-33.08,144.232-24.178c47.87,8.382,88.106,31.34,121.488,66.237
		c25.388,26.541,43.159,57.775,54.306,92.791c0.65,2.041,1.98,4.347,3.689,5.494c17.228,11.57,27.724,27.785,33.05,47.524
		c1.759,6.521,2.763,13.247,4.113,19.878c0,6.309,0,12.617,0,18.926c-0.355,1.237-0.877,2.452-1.039,3.713
		c-3.173,24.699-12.867,45.794-33.352,61.066c-1.254,0.935-2.263,2.866-2.461,4.449c-3.024,24.206-9.195,47.522-20.094,69.394
		c-14.618,29.336-34.703,54.071-62.266,72.33c-8.795,5.826-18.087,9.347-28.957,8.654c-8.928-0.569-17.928-0.288-26.881,0.035
		c-1.8,0.065-4.408,1.598-5.159,3.165c-7.409,15.474-20.067,24.285-35.992,29.093c-3.923,1.185-7.935,2.075-11.907,3.101
		C278.246,510.692,273.598,510.692,268.949,510.692z"/>
	<path display="none" fill="#FFFFFF" d="M631.841,59.669c-0.055-0.27-0.096-0.545-0.168-0.811c-0.217-0.805-0.645-1.466-1.348-1.938
		c-0.07-0.047-0.124-0.141-0.15-0.224c-0.455-1.428-1.179-2.702-2.215-3.784c-1.361-1.423-3.002-2.36-4.955-2.701
		c-2.073-0.363-4.044-0.042-5.882,0.986c-1.446,0.809-2.595,1.937-3.448,3.362c-0.408,0.682-0.734,1.399-0.973,2.157
		c-0.026,0.082-0.09,0.168-0.161,0.217c-0.888,0.609-1.307,1.486-1.454,2.521c-0.01,0.073-0.03,0.144-0.045,0.216
		c0-3.208,0-6.415,0-9.626c6.933,0,13.867,0,20.8,0C631.841,53.253,631.841,56.461,631.841,59.669z"/>
	<path display="none" fill="#FFFFFF" d="M622.537,70.841c0.162-0.042,0.326-0.078,0.486-0.126c0.649-0.196,1.166-0.555,1.468-1.187
		c0.031-0.064,0.137-0.126,0.21-0.129c0.365-0.013,0.732-0.025,1.096-0.001c0.443,0.028,0.822-0.115,1.181-0.353
		c1.124-0.745,1.943-1.753,2.539-2.95c0.445-0.892,0.696-1.843,0.82-2.83c0.008-0.065,0.049-0.143,0.1-0.181
		c0.835-0.623,1.231-1.483,1.36-2.491c0.007-0.051,0.028-0.101,0.042-0.151c0,3.467,0,6.933,0,10.4
		C628.74,70.841,625.639,70.841,622.537,70.841z"/>
</g>
<g display="none">
	<path fill="#FFFFFF" d="M631.841,60.887c0,3.318,0,6.635,0,9.953c-6.933,0-13.867,0-20.8,0c0-2.356,0-4.712,0-7.069
		c0.158,0.503,0.509,0.676,1.023,0.665c1.001-0.022,2.004-0.004,3.005-0.009c0.154-0.001,0.262,0.04,0.368,0.16
		c1.439,1.637,2.882,3.271,4.332,4.898c0.145,0.163,0.329,0.308,0.522,0.408c0.432,0.225,0.856,0.064,1.02-0.395
		c0.082-0.23,0.12-0.488,0.12-0.734c0.006-5.605,0.005-11.21,0.003-16.815c0-0.148-0.011-0.299-0.044-0.443
		c-0.118-0.514-0.583-0.758-1.059-0.531c-0.213,0.102-0.419,0.256-0.576,0.432c-1.447,1.62-2.885,3.25-4.32,4.881
		c-0.104,0.118-0.21,0.165-0.366,0.164c-1.042-0.006-2.085-0.001-3.127-0.004c-0.27-0.001-0.518,0.052-0.69,0.272
		c-0.089,0.114-0.142,0.257-0.211,0.387c0-2.356,0-4.712,0-7.069c6.933,0,13.867,0,20.8,0c0,3.318,0,6.635,0,9.953
		c-0.042-0.327-0.072-0.657-0.128-0.982c-0.427-2.448-1.665-4.387-3.695-5.813c-0.362-0.254-0.758-0.476-1.167-0.645
		c-0.443-0.184-0.937,0.173-0.983,0.648c-0.04,0.416,0.173,0.669,0.515,0.858c2.192,1.212,3.491,3.051,3.804,5.542
		c0.238,1.897-0.247,3.623-1.382,5.159c-0.646,0.873-1.459,1.557-2.421,2.063c-0.241,0.127-0.442,0.295-0.503,0.576
		c-0.066,0.307,0.006,0.577,0.255,0.784c0.26,0.217,0.557,0.253,0.852,0.105c0.326-0.163,0.647-0.343,0.947-0.548
		c1.952-1.336,3.196-3.159,3.701-5.473C631.734,61.814,631.773,61.348,631.841,60.887z M627.835,60.255
		c-0.063-1.867-1.033-3.388-2.714-4.49c-0.419-0.275-0.876-0.161-1.128,0.239c-0.228,0.363-0.105,0.797,0.278,1.101
		c0.359,0.284,0.73,0.565,1.036,0.902c1.257,1.383,1.253,3.499-0.009,4.881c-0.307,0.336-0.681,0.612-1.038,0.899
		c-0.278,0.223-0.467,0.48-0.388,0.849c0.127,0.592,0.729,0.831,1.245,0.486c0.319-0.213,0.633-0.444,0.913-0.705
		C627.182,63.342,627.815,62.026,627.835,60.255z"/>
	<path display="inline" d="M1,174.259c1.698-3.19,2.99-6.696,5.18-9.501c4.217-5.399,10.293-6.699,16.909-6.676
		c25.561,0.089,51.122-0.035,76.682,0.109c3.826,0.022,6.415-1.122,8.971-4.027c35.198-39.992,70.441-79.945,105.93-119.679
		c3.86-4.321,8.899-8.093,14.123-10.588c11.654-5.565,23.068,0.416,25.954,13.014c0.806,3.518,1.079,7.229,1.081,10.851
		c0.052,137.432,0.081,274.863-0.078,412.295c-0.007,6.019-0.926,12.349-2.944,17.989c-4.021,11.237-14.411,15.189-25.003,9.674
		c-4.739-2.467-9.248-6.014-12.809-10.009c-35.554-39.898-70.922-79.962-106.212-120.094c-2.594-2.951-5.247-3.94-9.014-3.921
		c-24.564,0.126-49.138-0.313-73.691,0.221C13.488,354.191,4.883,349.952,1,337.619C1,283.166,1,228.713,1,174.259z"/>
	<path display="inline" d="M511,266.896c-1.646,11.285-2.626,22.715-5.05,33.829c-12.375,56.737-42.875,101.427-90.736,134.195
		c-7.362,5.04-15.232,9.44-23.216,13.439c-7.23,3.622-14.513,2.732-20.898-2.577c-6.096-5.068-7.87-11.699-6.242-19.226
		c1.488-6.879,6.404-11.004,12.325-14.116c23.588-12.399,43.526-29.162,59.354-50.577c27.849-37.677,39.74-80,33.896-126.501
		c-7.675-61.076-39.51-106.169-93.262-135.885c-8.392-4.64-13.627-10.843-12.635-21.044c1.132-11.639,13.246-20.379,24.113-15.879
		c10.015,4.147,19.726,9.581,28.607,15.821c49.77,34.969,80.134,82.506,90.599,142.534c1.389,7.965,2.112,16.046,3.144,24.073
		C511,252.287,511,259.591,511,266.896z"/>
	<path display="inline" d="M412.774,251.379c-0.471,43.424-16.003,75.689-44.261,102.008c-6.877,6.405-14.563,12.065-22.393,17.295
		c-12.649,8.449-27.392,2.608-30.516-11.914c-1.943-9.035,2.705-15.338,9.514-20.81c8.753-7.032,17.94-13.805,25.46-22.041
		c30.942-33.889,31.039-85.774,0.226-119.673c-7.503-8.255-16.603-15.143-25.403-22.112c-9.394-7.439-12.407-18.073-6.807-26.985
		c6.17-9.82,17.366-12.612,27.648-5.868C387.438,168.301,411.219,205.599,412.774,251.379z"/>
</g>
</svg>
