<?xml version="1.0" encoding="utf-8"?>
<!-- Generator: Adobe Illustrator 17.0.0, SVG Export Plug-In . SVG Version: 6.00 Build 0)  -->
<!DOCTYPE svg PUBLIC "-//W3C//DTD SVG 1.1//EN" "http://www.w3.org/Graphics/SVG/1.1/DTD/svg11.dtd">
<svg version="1.1" id="Layer_1" xmlns="http://www.w3.org/2000/svg" xmlns:xlink="http://www.w3.org/1999/xlink" x="0px" y="0px"
	 width="512px" height="512px" viewBox="0 0 512 512" enable-background="new 0 0 512 512" xml:space="preserve">
<g>
	<line fill="none" stroke="#B35047" x1="32" y1="0" x2="32" y2="512"/>
	<line fill="none" stroke="#B35047" x1="64" y1="0" x2="64" y2="512"/>
	<line fill="none" stroke="#B35047" x1="96" y1="0" x2="96" y2="512"/>
	<line fill="none" stroke="#B35047" x1="128" y1="0" x2="128" y2="512"/>
	<line fill="none" stroke="#B35047" x1="160" y1="0" x2="160" y2="512"/>
	<line fill="none" stroke="#B35047" x1="192" y1="0" x2="192" y2="512"/>
	<line fill="none" stroke="#B35047" x1="224" y1="0" x2="224" y2="512"/>
	<line fill="none" stroke="#B35047" x1="256" y1="0" x2="256" y2="512"/>
	<line fill="none" stroke="#B35047" x1="288" y1="0" x2="288" y2="512"/>
	<line fill="none" stroke="#B35047" x1="320" y1="0" x2="320" y2="512"/>
	<line fill="none" stroke="#B35047" x1="352" y1="0" x2="352" y2="512"/>
	<line fill="none" stroke="#B35047" x1="384" y1="0" x2="384" y2="512"/>
	<line fill="none" stroke="#B35047" x1="416" y1="0" x2="416" y2="512"/>
	<line fill="none" stroke="#B35047" x1="448" y1="0" x2="448" y2="512"/>
	<line fill="none" stroke="#B35047" x1="480" y1="0" x2="480" y2="512"/>
	<line fill="none" stroke="#B35047" x1="0" y1="32" x2="512" y2="32"/>
	<line fill="none" stroke="#B35047" x1="0" y1="64" x2="512" y2="64"/>
	<line fill="none" stroke="#B35047" x1="0" y1="96" x2="512" y2="96"/>
	<line fill="none" stroke="#B35047" x1="0" y1="128" x2="512" y2="128"/>
	<line fill="none" stroke="#B35047" x1="0" y1="160" x2="512" y2="160"/>
	<line fill="none" stroke="#B35047" x1="0" y1="192" x2="512" y2="192"/>
	<line fill="none" stroke="#B35047" x1="0" y1="224" x2="512" y2="224"/>
	<line fill="none" stroke="#B35047" x1="0" y1="256" x2="512" y2="256"/>
	<line fill="none" stroke="#B35047" x1="0" y1="288" x2="512" y2="288"/>
	<line fill="none" stroke="#B35047" x1="0" y1="320" x2="512" y2="320"/>
	<line fill="none" stroke="#B35047" x1="0" y1="352" x2="512" y2="352"/>
	<line fill="none" stroke="#B35047" x1="0" y1="384" x2="512" y2="384"/>
	<line fill="none" stroke="#B35047" x1="0" y1="416" x2="512" y2="416"/>
	<line fill="none" stroke="#B35047" x1="0" y1="448" x2="512" y2="448"/>
	<line fill="none" stroke="#B35047" x1="0" y1="480" x2="512" y2="480"/>
	<rect x="0" fill="none" stroke="#B35047" width="512" height="512"/>
</g>
<g display="none">
	<path fill="#FFFFFF" d="M609.841,63.839c-6.931,0-13.861,0-20.796,0c0-6.928,0-13.857,0-20.792c6.929,0,13.863,0,20.796,0
		C609.841,49.975,609.841,56.906,609.841,63.839z M599.437,56.168c0.095,0.122,0.139,0.192,0.196,0.249
		c1.306,1.308,2.613,2.615,3.92,3.921c0.423,0.423,0.853,0.424,1.274,0.005c0.499-0.497,0.997-0.995,1.494-1.493
		c0.449-0.449,0.448-0.866-0.004-1.318c-1.307-1.307-2.614-2.614-3.92-3.922c-0.055-0.055-0.107-0.113-0.183-0.193
		c0.078-0.063,0.14-0.106,0.192-0.158c1.313-1.311,2.625-2.622,3.936-3.934c0.419-0.419,0.418-0.855-0.002-1.275
		c-0.493-0.494-0.987-0.985-1.481-1.478c-0.465-0.464-0.87-0.466-1.33-0.005c-1.307,1.307-2.614,2.613-3.922,3.92
		c-0.052,0.052-0.106,0.101-0.168,0.159c-0.062-0.059-0.116-0.107-0.168-0.159c-1.302-1.302-2.604-2.604-3.907-3.906
		c-0.48-0.48-0.874-0.478-1.359,0.006c-0.479,0.478-0.958,0.957-1.437,1.436c-0.461,0.462-0.462,0.871-0.001,1.332
		c1.302,1.302,2.604,2.604,3.906,3.907c0.056,0.056,0.109,0.115,0.171,0.18c-0.062,0.064-0.111,0.118-0.163,0.17
		c-1.316,1.317-2.633,2.633-3.949,3.95c-0.411,0.412-0.412,0.85-0.003,1.26c0.497,0.498,0.997,0.995,1.496,1.492
		c0.462,0.46,0.867,0.458,1.331-0.006c1.303-1.302,2.606-2.603,3.907-3.906C599.318,56.35,599.354,56.282,599.437,56.168z"/>
	<path display="inline" d="M599.437,56.168c-0.082,0.114-0.119,0.182-0.171,0.234c-1.301,1.303-2.604,2.605-3.907,3.906
		c-0.464,0.464-0.87,0.465-1.331,0.006c-0.499-0.497-0.998-0.993-1.496-1.492c-0.409-0.41-0.409-0.848,0.003-1.26
		c1.316-1.317,2.633-2.633,3.949-3.95c0.052-0.052,0.102-0.106,0.163-0.17c-0.062-0.065-0.115-0.124-0.171-0.18
		c-1.302-1.302-2.604-2.604-3.906-3.907c-0.461-0.461-0.46-0.87,0.001-1.332c0.479-0.479,0.958-0.957,1.437-1.436
		c0.485-0.485,0.878-0.487,1.359-0.006c1.302,1.302,2.604,2.604,3.907,3.906c0.052,0.052,0.106,0.1,0.168,0.159
		c0.062-0.059,0.116-0.108,0.168-0.159c1.307-1.307,2.614-2.613,3.922-3.92c0.46-0.46,0.865-0.458,1.33,0.005
		c0.494,0.492,0.988,0.984,1.481,1.478c0.419,0.42,0.421,0.856,0.002,1.275c-1.311,1.312-2.623,2.624-3.936,3.934
		c-0.052,0.052-0.115,0.095-0.192,0.158c0.076,0.08,0.128,0.138,0.183,0.193c1.307,1.307,2.614,2.614,3.92,3.922
		c0.451,0.452,0.453,0.869,0.004,1.318c-0.498,0.498-0.995,0.996-1.494,1.493c-0.421,0.419-0.85,0.418-1.274-0.005
		c-1.308-1.306-2.615-2.613-3.92-3.921C599.576,56.36,599.532,56.29,599.437,56.168z"/>
</g>
<image display="none" overflow="visible" width="512" height="512" xlink:href="../../../Knowledge/Icon/[+++++] (Full) Windows 8 Icons [icons8]/Very_Basic/checkmark/checkmark-512.png"  transform="matrix(0.0406 0 0 0.0406 709 84)">
</image>
<image display="none" overflow="visible" width="512" height="512" xlink:href="../../../Knowledge/Icon/[+++++] (Full) Windows 8 Icons [icons8]/Very_Basic/plus/plus-512.png"  transform="matrix(0.0406 0 0 0.0406 709 84)">
</image>
<image display="none" overflow="visible" width="512" height="512" xlink:href="../../../Knowledge/Icon/[+++++] (Full) Windows 8 Icons [icons8]/Very_Basic/minus/minus-512.png"  transform="matrix(0.0406 0 0 0.0406 709 84)">
</image>
<image display="none" overflow="visible" width="512" height="512" xlink:href="../../../Knowledge/Icon/[+++++] (Full) Windows 8 Icons [icons8]/Very_Basic/key/key-512.png"  transform="matrix(0.0406 0 0 0.0406 709 84)">
</image>
<image display="none" overflow="visible" width="512" height="512" xlink:href="../../../Knowledge/Icon/[+++++] (Full) Windows 8 Icons [icons8]/Very_Basic/info/info-512.png"  transform="matrix(0.0406 0 0 0.0406 709 84)">
</image>
<g>
	<path display="none" fill="#FFFFFF" d="M712.778,104.841c-1.246,0-2.492,0-3.737,0c0-6.933,0-13.867,0-20.8
		c6.933,0,13.867,0,20.8,0c0,6.933,0,13.867,0,20.8c-1.246,0-2.492,0-3.737,0c0.084-0.021,0.168-0.043,0.252-0.063
		c1.147-0.269,1.874-1.207,1.88-2.446c0.006-1.367,0.005-2.734-0.005-4.102c-0.001-0.111-0.066-0.248-0.146-0.329
		c-2.824-2.833-5.653-5.661-8.482-8.489c-0.051-0.051-0.105-0.098-0.156-0.146c-0.034,0.023-0.052,0.032-0.066,0.046
		c-2.882,2.881-5.763,5.761-8.641,8.645c-0.054,0.054-0.09,0.153-0.09,0.231c-0.005,1.401-0.017,2.802,0.001,4.203
		c0.016,1.209,0.751,2.121,1.877,2.385C712.611,104.798,712.694,104.82,712.778,104.841z M719.425,87.703
		c0.106,0.128,0.154,0.196,0.211,0.253c2.843,2.844,5.687,5.688,8.531,8.53c0.086,0.085,0.18,0.165,0.279,0.233
		c0.286,0.196,0.708,0.152,0.951-0.093c0.342-0.346,0.331-0.815-0.039-1.187c-0.701-0.706-1.379-1.439-2.12-2.101
		c-0.477-0.425-0.639-0.877-0.623-1.51c0.045-1.773,0.017-3.547,0.015-5.321c-0.001-0.516-0.32-0.835-0.833-0.843
		c-0.203-0.003-0.407,0.011-0.609-0.003c-0.626-0.044-0.956,0.388-0.948,0.946c0.016,1.151,0.005,2.302,0.004,3.453
		c0,0.069-0.006,0.138-0.009,0.207c-0.021,0.011-0.043,0.022-0.064,0.033c-0.043-0.061-0.079-0.129-0.13-0.181
		c-1.315-1.318-2.631-2.635-3.948-3.95c-0.421-0.42-0.88-0.422-1.296-0.006c-3.069,3.068-6.137,6.137-9.204,9.207
		c-0.081,0.081-0.155,0.171-0.217,0.267c-0.239,0.373-0.072,0.92,0.331,1.101c0.357,0.16,0.675,0.083,1.004-0.247
		c2.849-2.848,5.697-5.696,8.544-8.546C719.311,87.89,719.348,87.814,719.425,87.703z"/>
	<path d="M88.935,495.995c-2.097-0.524-4.187-1.074-6.291-1.567c-28.183-6.612-46.575-29.421-46.963-59.679
		c-0.45-35.052-0.15-70.115-0.022-105.172c0.007-1.957,0.894-4.431,2.249-5.789c72.014-72.174,144.121-144.253,216.228-216.334
		c0.347-0.346,0.813-0.573,1.661-1.157c1.266,1.183,2.619,2.374,3.892,3.647c70.782,70.77,141.577,141.529,212.238,212.42
		c2.003,2.01,3.632,5.44,3.652,8.22c0.246,34.209,0.28,68.422,0.122,102.632c-0.144,30.994-18.335,54.469-47.036,61.209
		c-2.107,0.495-4.2,1.046-6.3,1.571C311.221,495.995,200.078,495.995,88.935,495.995z M315.792,375.524
		c0-19.138,0.032-38.276-0.01-57.414c-0.032-14.318-8.068-22.44-22.256-22.464c-25.235-0.042-50.47-0.04-75.705-0.001
		c-14.207,0.022-22.288,8.134-22.301,22.418c-0.035,38.615-0.038,77.229,0.002,115.844c0.014,13.923,8.097,22.225,21.999,22.297
		c25.404,0.132,50.809,0.129,76.212,0.002c13.953-0.07,22.009-8.322,22.046-22.252C315.831,414.477,315.792,395,315.792,375.524z"/>
	<path d="M255.256,67.175c-1.917,2.765-2.851,4.659-4.264,6.073C179.75,144.555,108.47,215.823,37.187,287.088
		c-8.251,8.249-16.211,10.186-25.133,6.183c-10.097-4.531-14.279-18.221-8.288-27.551c1.541-2.4,3.404-4.657,5.422-6.677
		c76.75-76.819,153.531-153.607,230.32-230.386c10.404-10.403,21.893-10.37,32.424,0.148c32.964,32.92,65.896,65.872,98.8,98.85
		c1.296,1.299,2.187,3.003,3.266,4.518c0.536-0.276,1.073-0.553,1.609-0.829c0.079-1.728,0.225-3.456,0.226-5.184
		c0.014-28.799,0.293-57.602-0.111-86.396c-0.196-13.981,8.078-24.773,23.733-23.682c5.058,0.353,10.161-0.004,15.243,0.074
		c12.84,0.197,20.821,8.177,20.838,21.093c0.058,44.384,0.752,88.787-0.364,133.144c-0.399,15.848,3.661,27.138,15.598,37.784
		c18.555,16.548,35.51,34.895,53.055,52.568c9.25,9.317,9.538,21.066,0.969,29.713c-6.065,6.121-16.636,7.235-23.793,2.326
		c-2.494-1.711-4.849-3.699-6.99-5.838C402.824,215.823,331.669,144.67,260.529,73.501
		C259.097,72.068,257.916,70.384,255.256,67.175z"/>
	<path display="none" fill="#FFFFFF" d="M721.844,100.026c0,0.778,0.002,1.557-0.001,2.335c-0.001,0.557-0.323,0.886-0.881,0.889
		c-1.015,0.005-2.031,0.005-3.046,0c-0.556-0.003-0.879-0.335-0.879-0.891c-0.002-1.543-0.001-3.086,0-4.63
		c0-0.571,0.323-0.895,0.891-0.896c1.008-0.002,2.017-0.002,3.025,0c0.567,0.001,0.888,0.326,0.889,0.898
		C721.845,98.496,721.844,99.261,721.844,100.026z"/>
</g>
<g display="none">
	<path fill="#FFFFFF" d="M729.834,104.841c-6.929,0-13.86,0-20.793,0c0-6.931,0-13.862,0-20.796c6.928,0,13.858,0,20.793,0
		C729.834,90.974,729.834,97.907,729.834,104.841z M719.456,84.168c-5.656-0.016-10.266,4.578-10.288,10.253
		c-0.022,5.653,4.571,10.266,10.247,10.293c5.658,0.027,10.287-4.586,10.298-10.263C729.724,88.792,725.127,84.184,719.456,84.168z"
		/>
	<path display="inline" d="M256.377,1.001C397.157,1.406,511.269,115.799,511,256.25c-0.27,140.902-115.18,255.416-255.627,254.747
		c-140.917-0.671-254.91-115.17-254.37-255.499C1.543,114.648,115.988,0.597,256.377,1.001z M387.119,78.364
		c0.048-0.435,0.095-0.869,0.142-1.304c-3.933-2.37-8.01-4.537-11.758-7.171c-3.512-2.468-6.336-6.047-10.042-8.083
		c-56.624-31.104-115.913-37.025-177.639-18.128c-15.597,4.775-30.407,11.456-44.504,19.962c1.913,1.117,3.562,2.081,4.477,2.615
		c2.134-1.772,3.836-3.898,6.047-4.888c7.052-3.159,14.168-6.29,21.513-8.638c3.988-1.275,8.487-1.171,12.763-1.241
		c2.22-0.037,4.455,0.899,7.255,1.523c0.247-0.238,1.072-1.4,2.195-2.019c1.194-0.657,2.672-0.799,4.026-1.165
		c0.01,1.212,0.007,2.425,0.034,3.636c0.02,0.923,0.077,1.844,0.074,1.776c2.607-2.059,5.262-4.247,8.021-6.295
		c1.177-0.873,2.616-2.081,3.856-1.994c1.295,0.09,2.494,1.554,3.259,2.086c4.497-3.304,9.313-7.241,14.575-10.442
		c1.422-0.865,4.54-0.075,6.278,0.964c2.964,1.77,5.238,4.713,8.23,6.41c1.482,0.84,4.331,0.706,5.851-0.191
		c9.721-5.74,20.125-3.317,30.359-2.987c0.622,0.02,1.452,0.348,1.806,0.818c2.861,3.805,6.712,5.567,11.353,6.191
		c1.038,0.14,2.764,1.834,2.634,2.518c-0.23,1.205-1.526,2.335-2.61,3.203c-0.691,0.553-1.804,0.578-2.746,0.844
		c4.272,12.056,0.421,20.605-11.333,24.785c-4.132,1.47-8.66,1.814-12.823,3.216c-4.044,1.362-7.708,3.962-11.796,5.056
		c-6.945,1.859-10.354,7.717-15.096,12.07c-4.964,4.557-13.145,2.806-15.506-3.375c-2.913-7.624-0.495-20.19,8.351-22.779
		c0-3.674,0-7.243,0-11.183c-3.327-1.524-10.254,1.458-8.905-7.587c-6.112,2.825-11.289,5.219-16.553,7.652
		c1.801,4.714,7.195,7.718,2.798,12.439c4.823,6.653,4.825,6.657-2.144,10.246c-1.042,0.536-2.119,1.004-3.172,1.518
		c-3.911,1.91-7.915,3.661-11.658,5.858c-0.931,0.546-1.316,2.515-1.432,3.874c-0.55,6.493-0.92,13.001-1.35,19.437
		c4.636,2.259,5.572,7.72,2.44,12.156c-0.619,0.877-0.812,2.452-0.517,3.515c2.006,7.235-0.635,11.045-8.335,10.451
		c-4.517-0.348-8.912-2.265-12.482-3.236c-1.526,2.786-2.193,6.046-4.05,7.007c-5.292,2.737-11.053,4.577-16.658,6.694
		c-4.651,1.757-4.669,1.709-7.205-2.324c-2.382,0.838-4.828,1.488-7.067,2.57c-1.207,0.583-2.684,1.759-2.956,2.92
		c-1.047,4.486-4.028,5.639-8.119,5.921c-2.03,0.14-4.937,0.608-5.827,1.979c-4.142,6.376-13.335,8.284-14.828,16.957
		c-0.151,0.88-1.635,1.6-2.594,2.258c-3.876,2.663-8.192,4.843-11.571,8.025c-3.269,3.078-6.333,6.839-8.109,10.902
		c-1.751,4.007-1.775,8.769-2.561,13.223c0.543,0.307,1.156,0.442,1.362,0.806c1.137,2.014,2.436,4.004,3.094,6.18
		c0.207,0.685-1.634,2.857-2.126,2.732c-1.86-0.473-3.558-1.596-5.301-2.507c-0.678-0.355-1.373-1.21-1.959-1.126
		c-5.641,0.806-5.464-2.778-5.198-6.593c0.164-2.345-0.104-4.738,0.238-7.047c0.621-4.193-1.218-5.92-5.523-5.903
		c-1.9,4.416-4.384,5.744-8.208,1.331c-2.366-2.73-4.432-1.496-6.474,1.169c-6.296,8.215-10.077,17.4-11.103,27.64
		c-0.256,2.551,0.435,5.253,1.041,7.803c0.198,0.832,1.561,1.999,2.291,1.931c0.836-0.077,2.199-1.33,2.234-2.121
		c0.331-7.432,5.929-7.198,11.023-8.033c1.522-0.249,3.41-1.175,4.212-2.395c3.158-4.8,7.927-6.018,12.716-2.796
		c4.42,2.974,8.807,5.995,12.584,8.569c2.162-1.346,3.741-2.329,5.321-3.312c1.302,2.622,2.603,5.244,3.905,7.866
		c-0.382,0.525-0.764,1.05-1.146,1.575c7.618,1.87,15.312,3.485,22.824,5.714c3.838,1.139,7.758,2.85,10.892,5.272
		c3.037,2.346,3.928,6.076,1.741,9.936c-0.306,0.541,0.349,1.584,0.453,2.407c0.449,3.568,1.901,7.413,1.053,10.651
		c-1.496,5.709,1.398,5.71,5.349,6.034c1.006,0.083,2.836,2.446,2.593,3.249c-0.92,3.042-2.536,5.874-3.839,8.671
		c4.736,5.193,4.737,5.187,11.915,5.895c0.66,0.065,1.317,0.242,1.956,0.432c11.583,3.439,17.886,13.551,25.609,21.443
		c5.205,5.319,10.307,9.792,17.421,10.158c11.058,0.57,20.205,5.653,29.568,10.475c1.208,0.622,2.412,1.884,2.917,3.133
		c3.019,7.459-0.606,21.43-7.137,25.81c-2.652,1.779-2.503,3.455-2.132,5.863c0.606,3.934,1.398,7.887,1.48,11.846
		c0.217,10.466-3.628,18.359-14.43,21.726c-0.965,0.301-2.202,3.258-1.733,4.078c4.333,7.578,1.679,14.562-1.202,21.653
		c-0.488,1.201-0.625,2.751-0.347,4.013c0.625,2.839,1.449,5.362-1.327,7.836c-0.685,0.61-0.006,3.879,1.027,5.088
		c4.191,4.91,8.63,9.633,13.267,14.127c1.701,1.648,4.203,2.47,5.383,3.132c2.163-1.557,3.807-3.504,4.661-3.204
		c2.078,0.731,3.79,2.504,5.652,3.86c-1.585,2.014-2.512,3.192-3.892,4.947c20.685,3.043,40.399,3.079,60.162,0.494
		c49.648-6.495,92.245-27.449,128.095-62.291c0.951-0.924,2.461-1.944,2.53-2.996c0.534-8.168,6.218-12.952,11.309-18.248
		c1.899-1.975,3.15-4.573,4.697-6.887c-8.857,4.235-12.822,8.517-17.965,15.672c-2.669,3.712-6.602,6.543-10.094,9.624
		c-1.588,1.401-3.783,2.171-5.206,3.692c-11.246,12.021-24.891,19.638-41.062,22.648c-1.353,0.252-2.87-0.382-4.311-0.605
		c0.243-1.388,0.35-2.819,0.776-4.148c0.297-0.929,0.95-1.782,1.578-2.561c8.788-10.897,9.463-24.885,14.212-37.318
		c0.223-0.583,0.189-1.379-0.006-1.987c-1.864-5.832,0.501-10.189,4.337-14.443c2.735-3.033,5.701-6.45,6.839-10.217
		c2.904-9.611,5.214-19.578-0.142-29.203c-3.424-6.154-3.261-11.779,0.389-17.899c3.044-5.104,0.419-8.699-5.584-8.273
		c-2.835,0.201-5.107-0.028-5.679-3.299c-0.55-3.147-2.623-3.568-5.184-3.018c-4.371,0.939-8.672,2.324-13.084,2.927
		c-8.117,1.108-16.291,1.797-24.446,2.622c-0.797,0.081-1.804,0.176-2.405-0.212c-8.563-5.537-17.644-10.617-23.524-19.244
		c-3.936-5.775-9.22-10.549-10.337-18.548c-0.516-3.7-1.547-6.726,0.547-9.851c3.958-5.906,3.473-11.84,1.152-18.176
		c-0.726-1.981-0.669-4.852,0.242-6.727c3.954-8.141,8.274-16.109,12.675-24.022c0.729-1.311,2.426-2.199,3.837-2.994
		c5.585-3.149,11.146-6.093,11.941-13.642c0.191-1.811,2.193-3.613,3.703-5.066c2.914-2.803,6.071-5.355,9.127-8.01
		c-0.24-0.486-0.48-0.971-0.719-1.457c-1.201,0-2.476,0.258-3.583-0.064c-1.465-0.426-3.536-0.953-4.059-2.051
		c-2.026-4.254-5.035-8.376-2.737-13.682c0.665-1.537,0.283-3.653,0.012-5.447c-1.194-7.905,1.458-10.561,9.651-9.52
		c2.909,0.37,5.826,0.677,8.588,0.995c1.079-4.459-0.734-7.454-4.175-7.831c-5.488-0.601-5.497-3.809-4.964-8.032
		c-7.056-0.526-2.976-4.917-2.52-7.772c-4.381,1.004-8.517,1.952-12.804,2.935c-0.572-4.321-1.252-7.711-1.344-11.117
		c-0.031-1.157,1.211-3.13,2.228-3.403c5.095-1.37,6.463-5.066,6.864-9.635c0.263-2.998,2.4-4.602,4.796-3.35
		c2.918,1.524,5.432,4.034,7.712,6.496c1.709,1.846,2.486,4.554,4.19,6.407c2.567,2.791,5.581,5.17,8.459,7.772
		c2.293-1.767,5.021-3.87,7.625-5.877c-1.665-3.814-2.393-7.459-6.955-9.815c-3.484-1.8-5.198-7.162-7.44-11.088
		c-0.365-0.639,0.307-2.396,1.03-3.044c3.926-3.52,4.02-8.25,4.414-12.908c0.637-7.538,6.845-12.159,14.148-10.473
		C370.211,74.409,378.664,76.394,387.119,78.364z M33.006,261.805c1.805,50.482,18.321,95.463,49.96,134.9
		c29.018,36.17,95.567,77.526,121.301,75.44c-3.571-2.126-7.452-4.047-10.897-6.564c-8.606-6.288-17.614-12.203-25.372-19.435
		c-14.675-13.679-26.957-29.505-37.57-46.539c-3.146-5.049-7.055-8.941-12.517-11.152c-7.583-3.071-13.174-8.427-17.981-14.854
		c-4.318-5.773-8.187-12.099-13.407-16.938c-11.402-10.569-15.51-22.557-11.188-37.733c2.067-7.259-1.07-14.323-2.82-22.092
		c-3.837,3.36-6.223,2.48-8.328-1.011c-1.002-1.661-2.604-3.689-4.277-4.078c-5.027-1.168-5.509-5.227-6.813-8.962
		c-1.098-3.144-1.831-6.655-3.771-9.211c-3.229-4.253-7.295-7.871-11.535-12.308C37.12,261.344,35.228,261.556,33.006,261.805z
		 M124.454,282.586c-1.04-6.462-2.417-13.515-3.24-20.632c-0.584-5.05-2.8-7.399-7.859-7.66c-9.461-0.488-18.91-1.208-28.678-1.852
		c-0.605,0.718-1.378,2.065-2.522,2.911c-3.636,2.689-6.781,0.808-9.367-1.726c-2.684-2.63-0.253-4.238,1.598-6.094
		c0.898-0.9,0.911-2.682,1.324-4.064c-1.347,1.142-1.728,3.196-2.779,3.631c-2.005,0.83-5.404,1.796-6.425,0.822
		c-2.808-2.68-4.685-6.335-7.053-9.782c-1.613,4.158-3.549,8.276-4.698,12.603c-0.381,1.435,0.814,4.405,2.058,4.965
		c5.991,2.698,8.278,5.827,7.962,12.184c-0.2,4.026-0.455,8.064-0.349,12.087c0.089,3.394,1.157,5.786,5.603,4.755
		c2.019-0.468,4.378,0.533,7.097,0.945c0.7-6.311,5.915-8.626,10.869-11.113c3.903-1.959,10.268,0.109,13.734,2.797
		c2.682,2.079,6.391,3.136,9.81,3.882C115.487,282.105,119.618,282.126,124.454,282.586z M434.696,183.438
		c-2.097,0.592-4.861,0.562-6.23,1.929c-2.818,2.814-7.865,3.759-10.692,0.906c-3.987-4.024-7.758-8.261-11.688-12.343
		c-1.305-1.356-2.817-2.512-4.524-4.015c-1.895,6.077-3.332,11.478-5.285,16.687c-1.415,3.774-3.927,4.854-7.413,0.954
		c0.483,2.102,0.967,4.334,2.136,4.782c6.453,2.474,13.072,4.513,19.668,6.712c2.283-5.406,5.695-6.449,11.993-4.061
		c3.984,1.511,8.159,2.868,12.356,3.34c2.525,0.284,5.256-1.264,8.644-2.195c0-1.913,0-4.966,0-8.384
		C438.309,190.727,436.529,187.252,434.696,183.438z M344.35,184.181c14.032-5.482,28.083-7.402,41.693-5.801
		c-0.386-1.432-2.058-4.395-1.252-5.436c1.118-1.443,4.1-1.442,6.762-2.194c-4.518-2.901-8.653-5.556-13.56-8.707
		c1.1,2.689,1.751,4.355,2.459,5.996c1.323,3.067-0.44,4.332-2.978,5.106c-2.713,0.828-4.078-0.361-4.621-3.023
		c-0.729-3.572-1.614-7.112-2.348-10.305c-3.135,0.224-6.076,0.433-9.018,0.643c0.249,0.419,0.498,0.839,0.746,1.258
		c-2.336,1.815-5.451,3.189-6.797,5.565c-1.466,2.587-0.448,6.661-2.045,9.074C351.426,179.328,347.879,181.252,344.35,184.181z
		 M140.514,111.973c13.34-2.058,18.184-13.63,27.631-19.809c-3.793-1.579-6.715-3.871-9.43-3.648
		c-3.244,0.266-6.353,2.601-9.444,4.189c-3.538,1.817-7.144,3.576-10.402,5.822c-1.172,0.808-2.243,3.156-1.928,4.453
		C137.707,106.139,139.312,109.094,140.514,111.973z M449.032,367.401c9.003-15.058,15.742-30.951,19.974-47.951
		c-11.344,13.336-20.498,27.818-24.48,45.327C445.785,365.511,447.153,366.307,449.032,367.401z M422.275,150.544
		c-0.377,2.068-1.426,4.146-0.835,5.518c0.73,1.695,2.89,4.019,4.315,3.94c4.444-0.245,8.832-1.494,13.171-2.34
		c-2.005-1.497-4.756-3.55-7.803-5.824C427.684,156.497,425.444,152.04,422.275,150.544z M384.058,114.269
		c-1.543-4.558-2.119-9.509-9.062-9.888c-0.516,4.086-1.023,8.103-1.567,12.41C377.455,115.835,380.495,115.114,384.058,114.269z
		 M167.055,132.23c-2.184,3.474-4.166,6.627-6.148,9.78c0.357,0.136,0.714,0.272,1.071,0.409c3.324-1.855,6.648-3.71,9.972-5.566
		c0.366,0.372,0.731,0.744,1.097,1.116c0.201-1.845,0.401-3.691,0.624-5.739C170.975,132.23,168.851,132.23,167.055,132.23z
		 M189.639,97.267c-2.484-2.718-4.579-5.009-7.274-7.958c-0.145,0.032-1.466,0.318-2.358,0.511c1.842,3.298,3.556,6.365,5.412,9.688
		C186.113,99.139,187.711,98.29,189.639,97.267z"/>
	<path fill="#FFFFFF" d="M724.723,87.284c-0.341-0.079-0.681-0.159-1.022-0.238c-0.294-0.068-0.544,0.118-0.57,0.422
		c-0.016,0.188-0.02,0.378-0.178,0.52c-0.029,0.026-0.056,0.097-0.042,0.123c0.09,0.158,0.159,0.374,0.3,0.447
		c0.184,0.095,0.213,0.242,0.28,0.395c-0.105,0.081-0.215,0.166-0.307,0.237c-0.116-0.105-0.237-0.201-0.341-0.313
		c-0.069-0.075-0.1-0.184-0.169-0.258c-0.092-0.099-0.193-0.2-0.311-0.262c-0.096-0.05-0.183,0.014-0.193,0.135
		c-0.016,0.184-0.071,0.333-0.276,0.388c-0.041,0.011-0.091,0.09-0.09,0.137c0.004,0.137,0.031,0.274,0.054,0.448
		c0.173-0.04,0.339-0.078,0.516-0.118c-0.018,0.115-0.183,0.292,0.102,0.313c-0.021,0.17-0.021,0.299,0.2,0.324
		c0.139,0.015,0.212,0.136,0.168,0.315c-0.111-0.013-0.229-0.025-0.346-0.04c-0.33-0.042-0.437,0.065-0.389,0.384
		c0.011,0.072,0.026,0.158,0,0.219c-0.093,0.214,0.029,0.38,0.11,0.551c0.021,0.044,0.104,0.065,0.164,0.083
		c0.045,0.013,0.096,0.003,0.144,0.003c0.01,0.02,0.019,0.039,0.029,0.059c-0.123,0.107-0.25,0.21-0.368,0.323
		c-0.061,0.059-0.141,0.131-0.149,0.204c-0.032,0.304-0.256,0.423-0.481,0.55c-0.057,0.032-0.125,0.068-0.155,0.121
		c-0.177,0.319-0.351,0.64-0.511,0.968c-0.037,0.076-0.039,0.191-0.01,0.271c0.094,0.255,0.113,0.494-0.046,0.732
		c-0.084,0.126-0.043,0.248-0.022,0.397c0.045,0.322,0.258,0.515,0.416,0.747c0.237,0.348,0.603,0.552,0.948,0.775
		c0.024,0.016,0.065,0.012,0.097,0.009c0.328-0.033,0.658-0.061,0.985-0.106c0.178-0.024,0.351-0.08,0.527-0.118
		c0.103-0.022,0.187-0.005,0.209,0.122c0.023,0.132,0.115,0.141,0.229,0.133c0.242-0.017,0.348,0.128,0.225,0.333
		c-0.147,0.247-0.154,0.473-0.016,0.721c0.216,0.388,0.123,0.789,0.006,1.176c-0.046,0.152-0.165,0.289-0.276,0.412
		c-0.154,0.171-0.25,0.347-0.175,0.582c0.008,0.024,0.009,0.057,0,0.08c-0.191,0.501-0.219,1.064-0.573,1.503
		c-0.025,0.031-0.052,0.066-0.064,0.103c-0.017,0.054-0.021,0.111-0.031,0.167c0.058,0.009,0.119,0.035,0.174,0.024
		c0.651-0.121,1.201-0.428,1.654-0.912c0.057-0.061,0.146-0.092,0.21-0.149c0.141-0.124,0.299-0.238,0.407-0.388
		c0.207-0.288,0.367-0.461,0.724-0.631c-0.062,0.093-0.113,0.198-0.189,0.277c-0.205,0.213-0.434,0.406-0.456,0.735
		c-0.003,0.042-0.064,0.083-0.102,0.121c-1.444,1.404-3.16,2.248-5.16,2.509c-0.796,0.104-1.59,0.103-2.424-0.02
		c0.056-0.071,0.093-0.118,0.157-0.199c-0.075-0.055-0.144-0.126-0.228-0.155c-0.034-0.012-0.101,0.066-0.188,0.129
		c-0.047-0.027-0.148-0.06-0.217-0.126c-0.187-0.181-0.366-0.371-0.534-0.569c-0.042-0.049-0.069-0.18-0.041-0.205
		c0.112-0.1,0.079-0.201,0.053-0.316c-0.011-0.051-0.006-0.113,0.014-0.162c0.116-0.286,0.223-0.567,0.048-0.872
		c-0.019-0.033,0.031-0.152,0.07-0.164c0.435-0.136,0.59-0.454,0.581-0.875c-0.003-0.159-0.035-0.319-0.06-0.477
		c-0.015-0.097-0.021-0.165,0.086-0.236c0.263-0.176,0.409-0.739,0.288-1.04c-0.02-0.05-0.069-0.101-0.118-0.126
		c-0.377-0.194-0.746-0.399-1.191-0.422c-0.287-0.015-0.492-0.195-0.702-0.409c-0.311-0.318-0.565-0.725-1.032-0.864
		c-0.026-0.008-0.052-0.015-0.079-0.017c-0.289-0.029-0.289-0.028-0.48-0.237c0.052-0.113,0.118-0.227,0.155-0.349
		c0.01-0.032-0.064-0.128-0.104-0.131c-0.159-0.013-0.276-0.013-0.216-0.243c0.034-0.13-0.024-0.285-0.042-0.429
		c-0.004-0.033-0.031-0.075-0.018-0.097c0.088-0.155,0.052-0.306-0.07-0.4c-0.126-0.098-0.284-0.166-0.439-0.212
		c-0.303-0.09-0.613-0.155-0.919-0.23c0.015-0.021,0.031-0.042,0.046-0.063c-0.052-0.106-0.105-0.211-0.157-0.317
		c-0.064,0.04-0.127,0.079-0.214,0.133c-0.152-0.104-0.329-0.225-0.507-0.345c-0.193-0.13-0.385-0.081-0.512,0.113
		c-0.032,0.049-0.108,0.086-0.17,0.096c-0.205,0.034-0.431,0.024-0.444,0.324c-0.001,0.032-0.056,0.082-0.09,0.085
		c-0.029,0.003-0.084-0.044-0.092-0.078c-0.024-0.103-0.052-0.212-0.042-0.314c0.041-0.413,0.194-0.783,0.447-1.113
		c0.082-0.107,0.165-0.157,0.261-0.047c0.154,0.178,0.254,0.124,0.331-0.054c0.173-0.001,0.247,0.069,0.222,0.238
		c-0.014,0.093-0.003,0.189-0.01,0.284c-0.011,0.154-0.018,0.298,0.209,0.266c0.024-0.003,0.052,0.031,0.079,0.045
		c0.07,0.037,0.139,0.082,0.214,0.101c0.02,0.005,0.094-0.082,0.086-0.11c-0.026-0.088-0.079-0.168-0.125-0.249
		c-0.008-0.015-0.033-0.02-0.055-0.032c0.032-0.179,0.033-0.371,0.103-0.533c0.072-0.164,0.195-0.315,0.327-0.439
		c0.136-0.128,0.31-0.216,0.466-0.323c0.039-0.027,0.098-0.056,0.105-0.091c0.06-0.349,0.43-0.426,0.597-0.683
		c0.036-0.055,0.153-0.074,0.235-0.08c0.165-0.011,0.285-0.058,0.327-0.239c0.011-0.047,0.07-0.094,0.119-0.118
		c0.09-0.044,0.189-0.07,0.285-0.104c0.102,0.162,0.103,0.164,0.29,0.094c0.226-0.085,0.458-0.159,0.671-0.27
		c0.075-0.039,0.102-0.17,0.163-0.282c0.144,0.039,0.321,0.116,0.503,0.13c0.31,0.024,0.417-0.13,0.336-0.421
		c-0.012-0.043-0.004-0.106,0.021-0.142c0.126-0.179,0.088-0.399-0.098-0.49c0.017-0.259,0.032-0.521,0.054-0.783
		c0.005-0.055,0.02-0.134,0.058-0.156c0.151-0.088,0.312-0.159,0.47-0.236c0.042-0.021,0.086-0.04,0.128-0.061
		c0.281-0.145,0.281-0.145,0.086-0.413c0.177-0.19-0.04-0.311-0.113-0.501c0.212-0.098,0.421-0.194,0.667-0.308
		c-0.054,0.364,0.225,0.244,0.359,0.306c0,0.159,0,0.303,0,0.451c-0.356,0.104-0.454,0.611-0.336,0.918
		c0.095,0.249,0.425,0.32,0.625,0.136c0.191-0.175,0.328-0.411,0.608-0.486c0.165-0.044,0.312-0.149,0.475-0.204
		c0.168-0.057,0.35-0.07,0.517-0.13c0.474-0.168,0.629-0.513,0.457-0.998c0.038-0.011,0.083-0.012,0.111-0.034
		c0.044-0.035,0.096-0.08,0.105-0.129c0.005-0.028-0.064-0.096-0.106-0.101c-0.187-0.025-0.342-0.096-0.457-0.249
		c-0.014-0.019-0.048-0.032-0.073-0.033c-0.412-0.013-0.831-0.111-1.223,0.12c-0.061,0.036-0.176,0.042-0.236,0.008
		c-0.12-0.068-0.212-0.187-0.332-0.258c-0.07-0.042-0.196-0.074-0.253-0.039c-0.212,0.129-0.406,0.288-0.587,0.421
		c-0.031-0.021-0.079-0.08-0.131-0.084c-0.05-0.003-0.108,0.045-0.155,0.08c-0.111,0.082-0.218,0.171-0.323,0.254
		c0,0.003-0.002-0.034-0.003-0.072c-0.001-0.049-0.001-0.098-0.001-0.146c-0.055,0.015-0.114,0.02-0.162,0.047
		c-0.045,0.025-0.078,0.072-0.088,0.081c-0.113-0.025-0.203-0.063-0.292-0.061c-0.172,0.003-0.354-0.001-0.514,0.05
		c-0.296,0.095-0.583,0.221-0.867,0.348c-0.089,0.04-0.158,0.126-0.244,0.197c-0.037-0.022-0.103-0.06-0.18-0.105
		c0.568-0.343,1.164-0.612,1.793-0.804c2.487-0.761,4.875-0.523,7.156,0.73c0.149,0.082,0.263,0.226,0.405,0.326
		c0.151,0.106,0.315,0.193,0.474,0.289C724.727,87.249,724.725,87.267,724.723,87.284z M720.716,87.51
		c-0.007-0.018-0.014-0.036-0.021-0.053c-0.076,0.05-0.151,0.1-0.227,0.15c0.131,0.089,0.069,0.299,0.281,0.366
		c0.263,0.084,0.459-0.019,0.666-0.121c0.035-0.017,0.057-0.161,0.032-0.181c-0.094-0.075-0.205-0.152-0.319-0.174
		C720.996,87.471,720.853,87.503,720.716,87.51z M722.023,86.324c0.005,0.018,0.004,0.046,0.016,0.054
		c0.101,0.064,0.208,0.12,0.307,0.188c0.275,0.19,0.274,0.192,0.532-0.015C722.606,86.165,722.413,86.114,722.023,86.324z
		 M723.996,97.4c0.033,0.001,0.066,0.001,0.099,0.002c0.062-0.086,0.158-0.166,0.178-0.261c0.028-0.13-0.086-0.212-0.201-0.176
		c-0.09,0.028-0.192,0.121-0.218,0.207C723.837,97.227,723.944,97.322,723.996,97.4z"/>
	<path fill="#FFFFFF" d="M710.457,94.674c0.089-0.01,0.166-0.019,0.193-0.022c0.171,0.179,0.335,0.324,0.465,0.496
		c0.078,0.103,0.108,0.244,0.152,0.371c0.053,0.15,0.072,0.314,0.274,0.361c0.067,0.016,0.132,0.097,0.172,0.164
		c0.085,0.141,0.181,0.176,0.336,0.041c0.07,0.313,0.197,0.598,0.114,0.89c-0.174,0.611-0.009,1.094,0.451,1.52
		c0.21,0.195,0.366,0.45,0.54,0.682c0.194,0.259,0.419,0.475,0.724,0.598c0.22,0.089,0.378,0.246,0.504,0.449
		c0.428,0.686,0.922,1.324,1.514,1.875c0.313,0.291,0.675,0.53,1.022,0.783c0.139,0.101,0.295,0.179,0.439,0.264
		c-1.037,0.084-3.718-1.582-4.887-3.039C711.195,98.52,710.53,96.708,710.457,94.674z"/>
	<path fill="#FFFFFF" d="M714.141,95.512c-0.195-0.019-0.361-0.019-0.52-0.054c-0.138-0.03-0.287-0.073-0.395-0.156
		c-0.14-0.108-0.396-0.192-0.553-0.113c-0.2,0.1-0.41,0.193-0.438,0.448c-0.11-0.017-0.205-0.057-0.286-0.038
		c-0.179,0.042-0.222-0.055-0.226-0.192c-0.004-0.162,0.006-0.325,0.014-0.487c0.013-0.256-0.079-0.382-0.321-0.491
		c-0.05-0.023-0.098-0.142-0.083-0.2c0.046-0.174,0.124-0.34,0.189-0.508c0.095,0.139,0.171,0.286,0.284,0.394
		c0.041,0.039,0.178,0,0.259-0.033c0.042-0.018,0.058-0.1,0.112-0.146c-0.017,0.056-0.017,0.127-0.053,0.164
		c-0.075,0.075-0.173,0.14-0.064,0.245c0.104,0.102,0.231,0.178,0.377,0.07c0.046-0.034,0.077-0.088,0.102-0.117
		c0.393,0.026,0.774,0.055,1.155,0.075c0.204,0.011,0.293,0.105,0.317,0.309C714.044,94.967,714.099,95.251,714.141,95.512z"/>
	<path fill="#FFFFFF" d="M726.64,91.517c0.074,0.154,0.146,0.294,0.361,0.174c0,0.138,0,0.261,0,0.338
		c-0.136,0.037-0.247,0.1-0.348,0.088c-0.169-0.019-0.337-0.074-0.498-0.135c-0.254-0.096-0.391-0.054-0.483,0.164
		c-0.266-0.089-0.532-0.171-0.792-0.27c-0.047-0.018-0.067-0.108-0.086-0.193c0.14,0.157,0.242,0.114,0.299-0.038
		c0.079-0.21,0.137-0.427,0.213-0.672c0.069,0.061,0.13,0.107,0.182,0.162c0.158,0.164,0.31,0.335,0.471,0.497
		c0.114,0.115,0.317,0.077,0.431-0.037C726.444,91.54,726.555,91.541,726.64,91.517z"/>
	<path fill="#FFFFFF" d="M723,91.547c0.142-0.118,0.285-0.195,0.364-0.315c0.064-0.097,0.023-0.261,0.082-0.366
		c0.054-0.096,0.18-0.151,0.274-0.224c-0.01-0.017-0.02-0.034-0.03-0.051c0.118-0.008,0.237-0.017,0.363-0.026
		c0.03,0.129,0.065,0.271,0.095,0.415c0.022,0.107,0.077,0.155,0.186,0.122c0.102-0.031,0.173-0.082,0.12-0.206
		c-0.029-0.066-0.055-0.133-0.099-0.242c0.198,0.127,0.364,0.234,0.546,0.351c-0.107,0.03-0.227,0.03-0.272,0.088
		c-0.033,0.042,0.035,0.161,0.05,0.219C724.131,91.249,723.565,91.326,723,91.547z"/>
	<path fill="#FFFFFF" d="M714.788,88.638c-0.048-0.116-0.113-0.235-0.144-0.362c-0.013-0.052,0.03-0.147,0.078-0.179
		c0.131-0.09,0.277-0.161,0.419-0.235c0.125-0.064,0.25-0.158,0.38-0.169c0.109-0.009,0.227,0.083,0.38,0.147
		C715.521,88.089,715.326,88.555,714.788,88.638z"/>
	<path fill="#FFFFFF" d="M727.217,98.929c-0.076-0.044-0.131-0.076-0.182-0.106c0.16-0.705,0.529-1.289,0.986-1.826
		C727.851,97.682,727.58,98.322,727.217,98.929z"/>
	<path fill="#FFFFFF" d="M726.139,90.192c0.128,0.06,0.218,0.24,0.356,0.052c0.123,0.092,0.234,0.174,0.314,0.235
		c-0.175,0.034-0.352,0.084-0.531,0.094c-0.057,0.003-0.144-0.09-0.174-0.159C726.082,90.359,726.124,90.276,726.139,90.192z"/>
	<path fill="#FFFFFF" d="M724.6,88.731c-0.144,0.034-0.266,0.063-0.428,0.102c0.022-0.174,0.042-0.335,0.063-0.5
		C724.514,88.348,724.537,88.547,724.6,88.731z"/>
	<path fill="#FFFFFF" d="M715.857,89.454c0.072,0,0.158,0,0.266,0c-0.009,0.083-0.017,0.157-0.025,0.231
		c-0.015-0.015-0.029-0.03-0.044-0.045c-0.134,0.075-0.268,0.149-0.402,0.224c-0.014-0.005-0.029-0.011-0.043-0.016
		C715.69,89.721,715.769,89.594,715.857,89.454z"/>
	<path fill="#FFFFFF" d="M716.767,88.046c-0.078,0.041-0.142,0.075-0.17,0.09c-0.075-0.134-0.144-0.257-0.218-0.39
		c0.036-0.008,0.089-0.019,0.095-0.021C716.583,87.844,716.667,87.936,716.767,88.046z"/>
	<path display="inline" d="M287.651,83.954c3.417-0.174,6.955-0.967,10.216-0.334c2.848,0.552,5.583,2.461,7.925,4.326
		c0.611,0.486,0.071,4.061-0.792,4.485c-5.135,2.522-9.992,5.08-16.531,3c-5.271-1.677-3.736-6.873-6.981-9.091
		c1.878-1.238,3.756-2.475,5.635-3.713C287.299,83.068,287.475,83.511,287.651,83.954z"/>
	<path display="inline" d="M320.109,54.515c9.663-5.214,14.468-3.925,21.214,5.625c-6.409,5.142-6.377,5.096-13.215,0.373
		c-2.444-1.688-5.101-3.064-7.609-4.664C320.201,55.659,320.228,54.959,320.109,54.515z"/>
	<path display="inline" d="M369.085,329.452c-1.287-1.926-3.966-4.28-3.536-5.678c0.655-2.128,3.2-4.442,5.421-5.13
		c2.85-0.884,5.682,1.149,4.987,4.373c-0.511,2.368-2.883,4.334-4.426,6.479C370.716,329.481,369.9,329.467,369.085,329.452z"/>
</g>
<image display="none" overflow="visible" width="512" height="512" xlink:href="../../../Knowledge/Icon/[+++++] (Full) Windows 8 Icons [icons8]/Very_Basic/empty_trash/empty_trash-512.png"  transform="matrix(0.0406 0 0 0.0406 709 84)">
</image>
<g display="none">
	<path display="inline" d="M426.352,99.391c8.79-0.196,17.601-0.269,26.383,0.1c10.568,0.443,18.056,7.235,18.512,17.747
		c0.603,13.908,0.634,27.879,0.045,41.787c-0.466,11.012-8.201,17.933-19.165,18.146c-3.684,0.071-4.627,1.399-5.176,4.82
		c-3.624,22.582-7.539,45.117-11.316,67.674c-8.129,48.549-16.166,97.114-24.377,145.65c-3.454,20.418-6.347,40.995-11.152,61.104
		c-4.875,20.402-16.296,37.12-35.498,46.933c-7.094,3.625-15.256,5.161-22.931,7.649c-57.109,0-114.219,0-171.328,0
		c-0.92-0.32-1.819-0.813-2.765-0.934c-12.6-1.611-23.356-7.095-32.693-15.534c-13.972-12.63-21.908-28.747-25.172-46.906
		c-6.682-37.174-12.681-74.47-18.926-111.722c-8.655-51.632-17.295-103.266-25.859-154.912c-0.427-2.576-1.25-3.611-4.019-3.775
		c-13.554-0.803-20.361-7.983-20.529-21.626c-0.141-11.446-0.131-22.896-0.004-34.342c0.161-14.509,7.669-21.847,22.324-21.916
		c14.267-0.067,28.537-0.117,42.802,0.053 M270.093,300.744c13.02,13.04,25.964,26.004,38.167,38.225
		c12.53-12.525,25.481-25.472,37.722-37.709c-12.518-12.509-25.473-25.453-38.203-38.173
		C295.328,275.53,282.434,288.413,270.093,300.744z M255.194,209.902c-12.658,12.67-25.612,25.636-38.101,38.137
		c12.665,12.633,25.635,25.571,37.808,37.715c12.588-12.557,25.546-25.483,38.182-38.086
		C280.671,235.295,267.787,222.453,255.194,209.902z M201.533,339.377c12.817-12.798,25.855-25.818,38.18-38.125
		c-12.523-12.532-25.474-25.493-37.538-37.566c-12.527,12.5-25.481,25.426-38.207,38.124
		C176.352,314.194,189.211,327.054,201.533,339.377z M255.39,316.217c-12.745,12.729-25.707,25.674-38.211,38.162
		c12.559,12.582,25.515,25.561,37.794,37.862c12.621-12.614,25.587-25.572,38.125-38.102
		C280.699,341.67,267.867,328.765,255.39,316.217z M239.943,407.955c-12.843-12.853-25.789-25.807-38.168-38.196
		c-12.389,12.373-25.262,25.23-37.739,37.691c12.624,12.593,25.58,25.516,38.256,38.161
		C214.777,433.124,227.646,420.253,239.943,407.955z M346.393,407.829c-12.833-12.903-25.746-25.885-37.757-37.963
		c-12.699,12.699-25.66,25.661-38.077,38.078c12.347,12.342,25.23,25.221,37.867,37.853
		C320.964,433.258,333.85,420.372,346.393,407.829z M153.55,214.448c-11.781,11.833-23.787,23.741-35.506,35.924
		c-1.052,1.093-1.164,4.841-0.17,5.881c10.064,10.527,20.449,20.746,30.222,30.529c13.271-13.231,26.243-26.165,38.92-38.803
		C176.278,237.219,165.183,226.103,153.55,214.448z M361.109,285.919c11.059-10.824,22.354-21.878,33.416-32.706
		c-12.699-12.758-25.56-25.679-37.993-38.17c-11.151,11.033-22.414,22.176-33.364,33.01
		C335.858,260.719,348.737,273.572,361.109,285.919z M362.757,315.819c-13.624,13.597-26.577,26.526-39.149,39.072
		c12.343,12.335,25.21,25.194,38.746,38.72c2.383-2.594,4.855-5.739,7.793-8.36c3.167-2.826,4.662-6.158,5.299-10.268
		c1.851-11.951,4.022-23.853,5.845-35.807c0.264-1.729-0.096-4.188-1.184-5.381C374.308,327.441,368.185,321.383,362.757,315.819z
		 M148.163,315.174c-4.699,4.846-9.343,10.035-14.434,14.739c-3.055,2.822-3.85,5.659-3.094,9.646
		c2.068,10.892,4.521,21.788,5.445,32.798c0.807,9.617,5.814,15.713,12.334,20.542c13.089-13.034,26.092-25.982,38.98-38.816
		C174.753,341.546,161.835,328.734,148.163,315.174z M201.898,233.041c12.678-12.706,25.636-25.693,38.801-38.886
		c-4.756-4.724-9.861-9.938-15.163-14.943c-1.075-1.015-2.889-1.721-4.377-1.747c-9.126-0.158-18.256-0.132-27.384-0.026
		c-1.398,0.016-3.194,0.338-4.115,1.231c-7.241,7.022-14.314,14.218-21.106,21.027C179.956,211.099,191.068,222.211,201.898,233.041
		z M308.11,232.992c10.814-10.779,22.039-21.968,33.503-33.395c-6.669-6.691-13.616-13.786-20.753-20.683
		c-1.029-0.994-2.965-1.442-4.492-1.465c-8.96-0.133-17.925-0.135-26.885,0.003c-1.528,0.024-3.431,0.518-4.497,1.508
		c-5.447,5.062-10.676,10.359-15.669,15.266C282.692,207.591,295.689,220.58,308.11,232.992z M255.212,422.533
		c-12.679,12.68-25.644,25.645-39.159,39.16c2.579,2.363,5.337,5.277,8.504,7.641c1.827,1.364,4.307,2.57,6.51,2.599
		c16.088,0.216,32.18,0.169,48.269,0.045c1.843-0.014,4.024-0.556,5.449-1.64c3.541-2.696,6.736-5.848,9.77-8.549
		C280.842,448.107,267.95,435.243,255.212,422.533z M361.727,421.943c-13.185,13.201-26.027,26.059-40.169,40.218
		c1.576,1.043,3.96,1.952,5.368,3.665c7.157,8.706,11.534,7.334,21.664,1.992c2.391-1.261,4.393-3.512,6.168-5.645
		c7.174-8.621,8.974-19.223,11.099-29.815C366.87,427.312,365.809,424.07,361.727,421.943z M399.686,229.305
		c2.894-17.321,5.721-34.24,8.744-52.337c-6.02,0.515-12.724-0.899-16.371,1.807c-8.121,6.024-14.713,14.108-21.656,21.079
		C380.171,209.679,389.595,219.157,399.686,229.305z M112.053,227.516c9.524-9.514,18.515-18.495,27.967-27.937
		c-5.198-5.135-11.276-10.15-16.103-16.168c-5.525-6.888-12.232-6.597-20.133-5.561
		C106.558,194.511,109.292,210.931,112.053,227.516z M148.152,421.394c-0.902,1.809-2.833,3.813-2.614,5.545
		c1.41,11.167,3.231,22.302,9.643,31.979c4.457,6.727,10.104,11.894,18.545,12.731c1.598,0.158,3.659-0.409,4.905-1.399
		c3.48-2.765,6.645-5.927,9.699-8.717C174.709,447.925,161.735,434.963,148.152,421.394z M389.802,288.277
		c-0.348-0.077-0.695-0.155-1.043-0.232c-4.363,4.428-8.726,8.855-12.892,13.083c3.025,3.248,6.113,6.565,9.965,10.701
		C387.27,303.299,388.536,295.788,389.802,288.277z M122.257,288.725c1.33,7.734,2.447,14.226,3.715,21.596
		c3.451-3.434,6.181-6.15,9.011-8.967C130.894,297.297,127.086,293.518,122.257,288.725z M145.575,177.676
		c3.349,3.239,6.011,5.813,7.907,7.647c2.856-2.432,5.66-4.82,8.979-7.647C156.742,177.676,151.696,177.676,145.575,177.676z
		 M364.741,177.727c-6.256,0-11.287,0-16.538,0c2.881,2.941,5.483,5.597,7.516,7.673
		C358.355,183.158,361.191,180.746,364.741,177.727z"/>
	<path fill="#FFFFFF" d="M722.934,104.841c0.313-0.101,0.646-0.164,0.935-0.312c0.783-0.4,1.249-1.082,1.448-1.914
		c0.196-0.82,0.314-1.659,0.455-2.492c0.335-1.979,0.663-3.96,0.994-5.94c0.154-0.92,0.314-1.839,0.461-2.76
		c0.022-0.14,0.061-0.194,0.211-0.197c0.447-0.009,0.763-0.291,0.782-0.74c0.024-0.567,0.023-1.137-0.002-1.704
		c-0.019-0.429-0.324-0.706-0.755-0.724c-0.358-0.015-0.718-0.012-1.076-0.004c-0.144,0.003-0.235-0.048-0.324-0.159
		c-0.672-0.849-1.351-1.693-2.027-2.538c-0.32-0.4-0.65-0.453-1.073-0.171c-0.726,0.483-1.451,0.968-2.188,1.459
		c-0.058-0.055-0.112-0.103-0.163-0.154c-0.651-0.651-1.305-1.299-1.952-1.954c-0.211-0.213-0.422-0.417-0.722-0.496
		c3.968,0,7.935,0,11.903,0c0,6.933,0,13.867,0,20.8C727.539,104.841,725.236,104.841,722.934,104.841z"/>
	<path fill="#FFFFFF" d="M717.775,84.041c-0.289,0.062-0.501,0.238-0.705,0.444c-1.134,1.143-2.277,2.278-3.412,3.42
		c-0.104,0.104-0.208,0.15-0.356,0.149c-0.582-0.007-1.164-0.005-1.746-0.002c-0.598,0.003-0.904,0.302-0.911,0.894
		c-0.005,0.467-0.006,0.934,0,1.401c0.007,0.556,0.284,0.849,0.837,0.882c0.113,0.007,0.146,0.049,0.164,0.154
		c0.349,2.106,0.702,4.212,1.055,6.318c0.255,1.519,0.499,3.04,0.772,4.557c0.133,0.741,0.457,1.398,1.027,1.913
		c0.381,0.344,0.82,0.568,1.333,0.634c0.039,0.005,0.075,0.025,0.113,0.038c-2.302,0-4.604,0-6.906,0c0-6.933,0-13.867,0-20.8
		C711.952,84.041,714.864,84.041,717.775,84.041z"/>
	<path fill="#FFFFFF" d="M270.093,300.744c12.341-12.331,25.234-25.215,37.686-37.656c12.73,12.72,25.684,25.664,38.203,38.173
		c-12.241,12.237-25.192,25.183-37.722,37.709C296.058,326.748,283.114,313.784,270.093,300.744z"/>
	<path fill="#FFFFFF" d="M255.194,209.902c12.593,12.552,25.477,25.394,37.889,37.765c-12.635,12.604-25.594,25.53-38.182,38.086
		c-12.173-12.143-25.143-25.081-37.808-37.715C229.582,235.538,242.535,222.572,255.194,209.902z"/>
	<path fill="#FFFFFF" d="M201.533,339.377c-12.323-12.323-25.182-25.182-37.566-37.567c12.726-12.698,25.68-25.624,38.207-38.124
		c12.064,12.073,25.016,25.034,37.538,37.566C227.389,313.559,214.35,326.578,201.533,339.377z"/>
	<path fill="#FFFFFF" d="M255.39,316.217c12.477,12.548,25.309,25.452,37.708,37.922c-12.538,12.53-25.504,25.488-38.125,38.102
		c-12.279-12.301-25.235-25.28-37.794-37.862C229.683,341.891,242.645,328.946,255.39,316.217z"/>
	<path fill="#FFFFFF" d="M239.943,407.955c-12.297,12.299-25.166,25.169-37.65,37.656c-12.676-12.645-25.632-25.568-38.256-38.161
		c12.476-12.46,25.35-25.317,37.739-37.691C214.154,382.147,227.099,395.102,239.943,407.955z"/>
	<path fill="#FFFFFF" d="M346.393,407.829c-12.543,12.543-25.429,25.429-37.968,37.969c-12.637-12.633-25.52-25.511-37.867-37.853
		c12.417-12.417,25.378-25.379,38.077-38.078C320.647,381.943,333.56,394.926,346.393,407.829z"/>
	<path fill="#FFFFFF" d="M153.55,214.448c11.633,11.656,22.727,22.772,33.466,33.531c-12.676,12.638-25.649,25.572-38.92,38.803
		c-9.773-9.783-20.158-20.002-30.222-30.529c-0.994-1.04-0.882-4.788,0.17-5.881C129.764,238.189,141.77,226.281,153.55,214.448z"/>
	<path fill="#FFFFFF" d="M361.109,285.919c-12.372-12.347-25.251-25.201-37.942-37.866c10.95-10.833,22.213-21.977,33.364-33.01
		c12.434,12.491,25.294,25.412,37.993,38.17C383.462,264.041,372.168,275.096,361.109,285.919z"/>
	<path fill="#FFFFFF" d="M362.757,315.819c5.428,5.564,11.551,11.623,17.35,17.977c1.089,1.193,1.448,3.652,1.184,5.381
		c-1.823,11.955-3.995,23.856-5.845,35.807c-0.636,4.11-2.132,7.442-5.299,10.268c-2.938,2.622-5.41,5.766-7.793,8.36
		c-13.536-13.527-26.402-26.385-38.746-38.72C336.179,342.344,349.133,329.416,362.757,315.819z"/>
	<path fill="#FFFFFF" d="M148.163,315.174c13.672,13.56,26.59,26.372,39.231,38.909c-12.888,12.834-25.891,25.782-38.98,38.816
		c-6.52-4.829-11.526-10.925-12.334-20.542c-0.924-11.01-3.378-21.906-5.445-32.798c-0.757-3.987,0.039-6.824,3.094-9.646
		C138.821,325.209,143.465,320.02,148.163,315.174z"/>
	<path fill="#FFFFFF" d="M201.898,233.041c-10.83-10.83-21.942-21.942-33.344-33.345c6.792-6.808,13.865-14.004,21.106-21.027
		c0.921-0.893,2.718-1.215,4.115-1.231c9.127-0.105,18.258-0.132,27.384,0.026c1.488,0.026,3.302,0.732,4.377,1.747
		c5.303,5.004,10.407,10.219,15.163,14.943C227.534,207.348,214.577,220.335,201.898,233.041z"/>
	<path fill="#FFFFFF" d="M308.11,232.992c-12.42-12.412-25.418-25.4-38.793-38.767c4.993-4.907,10.222-10.203,15.669-15.266
		c1.066-0.991,2.97-1.485,4.497-1.508c8.96-0.138,17.925-0.136,26.885-0.003c1.526,0.023,3.463,0.47,4.492,1.465
		c7.137,6.898,14.084,13.992,20.753,20.683C330.148,211.024,318.924,222.213,308.11,232.992z"/>
	<path fill="#FFFFFF" d="M255.212,422.533c12.738,12.711,25.63,25.574,39.342,39.256c-3.033,2.701-6.228,5.853-9.77,8.549
		c-1.425,1.085-3.606,1.626-5.449,1.64c-16.09,0.124-32.182,0.171-48.269-0.045c-2.203-0.03-4.683-1.235-6.51-2.599
		c-3.168-2.364-5.925-5.278-8.504-7.641C229.567,448.177,242.533,435.212,255.212,422.533z"/>
	<path fill="#FFFFFF" d="M361.727,421.943c4.082,2.128,5.143,5.37,4.13,10.415c-2.125,10.591-3.925,21.193-11.099,29.815
		c-1.775,2.133-3.777,4.384-6.168,5.645c-10.131,5.341-14.508,6.714-21.664-1.992c-1.407-1.712-3.792-2.622-5.368-3.665
		C335.7,448.001,348.542,435.143,361.727,421.943z"/>
	<path fill="#FFFFFF" d="M399.686,229.305c-10.09-10.148-19.515-19.626-29.284-29.451c6.943-6.971,13.535-15.055,21.656-21.079
		c3.648-2.706,10.352-1.291,16.371-1.807C405.406,195.065,402.579,211.984,399.686,229.305z"/>
	<path fill="#FFFFFF" d="M112.053,227.516c-2.761-16.585-5.495-33.004-8.269-49.666c7.901-1.036,14.609-1.327,20.133,5.561
		c4.827,6.018,10.904,11.033,16.103,16.168C130.568,209.02,121.577,218.002,112.053,227.516z"/>
	<path fill="#FFFFFF" d="M148.152,421.394c13.582,13.569,26.557,26.531,40.179,40.139c-3.054,2.79-6.218,5.952-9.699,8.717
		c-1.246,0.99-3.307,1.558-4.905,1.399c-8.442-0.837-14.088-6.004-18.545-12.731c-6.412-9.677-8.233-20.813-9.643-31.979
		C145.319,425.207,147.25,423.203,148.152,421.394z"/>
	<path fill="#FFFFFF" d="M389.802,288.277c-1.266,7.511-2.532,15.022-3.97,23.552c-3.852-4.137-6.941-7.453-9.965-10.701
		c4.166-4.228,8.529-8.656,12.892-13.083C389.107,288.123,389.455,288.2,389.802,288.277z"/>
	<path fill="#FFFFFF" d="M122.257,288.725c4.829,4.792,8.637,8.572,12.726,12.63c-2.831,2.817-5.56,5.533-9.011,8.967
		C124.704,302.952,123.587,296.46,122.257,288.725z"/>
	<path fill="#FFFFFF" d="M145.575,177.676c6.121,0,11.167,0,16.886,0c-3.32,2.827-6.124,5.215-8.979,7.647
		C151.586,183.49,148.924,180.915,145.575,177.676z"/>
	<path fill="#FFFFFF" d="M723.875,91.248c-0.145,0.123-0.26,0.222-0.368,0.313c-0.083-0.085-0.189-0.193-0.307-0.313
		C723.415,91.248,723.62,91.248,723.875,91.248z"/>
</g>
<g display="none">
	<path display="inline" d="M130.466,1c56.113,0,112.227,0,168.34,0c2.187,0.639,4.378,1.264,6.56,1.92
		c13.284,3.995,23.775,12.516,33.39,21.875c26.745,26.034,53.148,52.422,79.518,78.837c6.551,6.563,12.72,13.552,18.613,20.716
		c8.326,10.122,15.105,21.171,15.114,34.87c0.062,91.247,0.283,182.495-0.118,273.741c-0.15,34.296-21.294,62.685-53.189,73.649
		c-5.581,1.919-11.467,2.951-17.212,4.393c-83.672,0-167.344,0-251.016,0c-5.746-1.442-11.632-2.474-17.214-4.393
		c-32.738-11.26-53.261-40.558-53.321-76.145c-0.089-52.761-0.024-105.523-0.024-158.285c0-63.546-0.06-127.092,0.025-190.638
		c0.048-35.587,20.582-64.885,53.32-76.145C118.833,3.474,124.72,2.442,130.466,1z M98.796,256.007
		c0,57.273-0.034,114.546,0.062,171.819c0.008,4.768,0.261,9.706,1.487,14.273c5.051,18.825,19.806,29.879,40.14,29.907
		c77.028,0.107,154.056,0.072,231.083,0.005c9.48-0.008,18.333-2.355,26.009-8.354c11.575-9.046,15.615-21.247,15.604-35.44
		c-0.062-82.008-0.029-164.016-0.039-246.024c0-1.822-0.012-3.659-0.23-5.463c-1.27-10.49-5.461-15.155-15.933-17.341
		c-3.549-0.741-7.224-1.137-10.851-1.206c-14.106-0.272-28.215-0.361-42.323-0.494c-10.289-0.097-20.594,0.158-30.864-0.327
		c-9.142-0.431-16.033-7.369-17.179-16.439c-0.332-2.624-0.414-5.293-0.431-7.942c-0.151-23.239-0.117-46.481-0.507-69.716
		c-0.076-4.533-1.24-9.228-2.814-13.513c-2.222-6.05-6.83-9.82-13.585-9.826c-46.15-0.038-92.301-0.067-138.451,0.069
		c-13.509,0.04-24.853,5.076-33.212,16.049c-6.238,8.189-7.972,17.655-7.97,27.646C98.801,141.129,98.796,198.568,98.796,256.007z"
		/>
	<path fill="#FFFFFF" d="M724.559,104.841c0.234-0.059,0.474-0.101,0.702-0.179c1.301-0.447,2.163-1.605,2.169-3.004
		c0.016-3.721,0.007-7.443,0.005-11.164c0-0.559-0.277-1.009-0.616-1.422c-0.24-0.292-0.492-0.577-0.759-0.845
		c-1.076-1.077-2.152-2.154-3.243-3.215c-0.392-0.382-0.82-0.729-1.362-0.892c-0.089-0.027-0.178-0.052-0.268-0.078
		c2.883,0,5.765,0,8.651,0c0,6.933,0,13.867,0,20.8C728.078,104.841,726.319,104.841,724.559,104.841z"/>
	<path fill="#FFFFFF" d="M714.322,84.041c-0.234,0.059-0.474,0.101-0.702,0.179c-1.335,0.459-2.173,1.654-2.175,3.106
		c-0.003,2.592-0.001,5.183-0.001,7.775c0,2.152-0.003,4.304,0.001,6.456c0.003,1.451,0.839,2.646,2.175,3.106
		c0.228,0.078,0.468,0.12,0.702,0.179c-1.76,0-3.521,0-5.281,0c0-6.933,0-13.867,0-20.8
		C710.801,84.041,712.561,84.041,714.322,84.041z"/>
	<path fill="#FFFFFF" d="M713.03,94.441c0-2.343,0-4.685,0-7.028c0-0.407,0.071-0.794,0.325-1.128
		c0.341-0.448,0.804-0.653,1.354-0.655c1.882-0.006,3.764-0.004,5.647-0.003c0.275,0,0.463,0.154,0.554,0.401
		c0.064,0.175,0.112,0.366,0.115,0.551c0.016,0.948,0.015,1.896,0.021,2.843c0.001,0.108,0.004,0.217,0.018,0.324
		c0.047,0.37,0.328,0.653,0.701,0.67c0.419,0.02,0.839,0.009,1.259,0.013c0.575,0.005,1.151,0.009,1.726,0.02
		c0.148,0.003,0.298,0.019,0.443,0.049c0.427,0.089,0.598,0.279,0.65,0.707c0.009,0.074,0.009,0.148,0.009,0.223
		c0,3.345-0.001,6.689,0.002,10.034c0,0.579-0.164,1.076-0.636,1.445c-0.313,0.245-0.674,0.34-1.061,0.341
		c-3.141,0.003-6.283,0.004-9.425,0c-0.829-0.001-1.431-0.452-1.637-1.22c-0.05-0.186-0.06-0.388-0.061-0.582
		C713.029,99.113,713.03,96.777,713.03,94.441z M719.411,93.63c1.285,0,2.571,0.001,3.856-0.002c0.127,0,0.258-0.009,0.381-0.038
		c0.437-0.103,0.691-0.602,0.527-1.018c-0.139-0.354-0.413-0.524-0.851-0.524c-2.584-0.001-5.168,0-7.752,0
		c-0.041,0-0.081-0.001-0.122,0.001c-0.497,0.035-0.826,0.393-0.792,0.863c0.03,0.418,0.379,0.716,0.856,0.717
		C716.814,93.632,718.112,93.63,719.411,93.63z M719.463,98.45c-1.285,0-2.571-0.003-3.856,0.003
		c-0.166,0.001-0.344,0.018-0.494,0.082c-0.335,0.143-0.512,0.506-0.45,0.846c0.068,0.366,0.383,0.649,0.798,0.65
		c2.645,0.008,5.29,0.012,7.935-0.001c0.654-0.003,1.018-0.603,0.735-1.157c-0.166-0.324-0.462-0.426-0.813-0.425
		C722.033,98.453,720.748,98.45,719.463,98.45z M718.673,95.251c-0.379,0-0.758,0-1.137,0c-0.683,0-1.367-0.006-2.05,0.002
		c-0.521,0.006-0.866,0.377-0.827,0.866c0.033,0.414,0.389,0.712,0.864,0.713c1.184,0.002,2.368,0.001,3.552,0.001
		c0.893,0,1.786,0.002,2.679-0.001c0.396-0.001,0.697-0.189,0.81-0.493c0.206-0.556-0.157-1.081-0.765-1.086
		C720.756,95.246,719.715,95.252,718.673,95.251z"/>
	<path display="inline" d="M255.254,236.122c-31.846-0.002-63.692,0.043-95.538-0.025c-11.692-0.025-20.257-7.324-20.994-17.572
		c-0.83-11.523,7.232-20.313,19.426-21.162c0.991-0.069,1.99-0.033,2.985-0.033c63.36-0.001,126.721-0.008,190.081,0.006
		c10.729,0.002,17.442,4.184,20.862,12.859c4.02,10.196-2.223,22.434-12.926,24.953c-3.026,0.712-6.23,0.929-9.353,0.935
		C318.282,236.15,286.768,236.124,255.254,236.122z"/>
	<path display="inline" d="M256.513,354.317c31.513,0.001,63.027,0.062,94.54-0.04c8.607-0.028,15.865,2.494,19.933,10.429
		c6.957,13.569-1.98,28.28-18.013,28.362c-64.85,0.333-129.702,0.228-194.553,0.032c-10.179-0.031-17.915-6.978-19.573-15.948
		c-1.541-8.343,2.806-17.254,11.023-20.751c3.666-1.56,8.043-1.981,12.102-2.001C193.486,354.247,225,354.316,256.513,354.317z"/>
	<path display="inline" d="M237.143,275.88c25.547,0.005,51.095-0.131,76.641,0.056c14.92,0.109,23.818,12.99,18.764,26.619
		c-2.766,7.461-10.161,12.067-19.86,12.094c-21.897,0.062-43.795,0.021-65.692,0.02c-29.031,0-58.062,0.038-87.092-0.021
		c-11.635-0.023-20.364-7.334-21.174-17.482c-0.957-12,7.503-21.078,20.279-21.233c16.752-0.203,33.509-0.056,50.264-0.059
		C218.563,275.875,227.853,275.876,237.143,275.88z"/>
</g>
<g display="none">
	<path fill="#FFFFFF" d="M709.041,104.841c0-6.931,0-13.862,0-20.797c6.929,0,13.858,0,20.794,0c0,6.93,0,13.863,0,20.797
		C722.905,104.841,715.974,104.841,709.041,104.841z M719.436,104.713c5.661,0.005,10.266-4.593,10.277-10.263
		c0.012-5.658-4.584-10.265-10.258-10.283c-5.662-0.018-10.288,4.602-10.288,10.273
		C709.168,100.105,713.769,104.708,719.436,104.713z"/>
	<path display="inline" d="M255.885,511C115.215,510.864,1.013,396.616,1,256.012C0.987,115.247,115.827,0.566,256.367,1.001
		c140.84,0.435,254.918,114.786,254.632,255.241C510.713,396.996,396.413,511.137,255.885,511z M57.452,273.838
		c7.757,100.668,94.354,175.958,180.543,180.352c0.302-4.142,0.207-8.367,0.986-12.423c1.769-9.211,8.9-14.789,17.809-14.448
		c8.604,0.33,15.079,6.37,16.351,15.529c0.541,3.897,0.641,7.855,0.971,12.162c55.132-6.258,100.5-29.917,135.7-72.042
		c26.259-31.424,40.971-67.933,45.065-108.876c-5.097-0.415-9.512-0.327-13.723-1.21c-8.858-1.858-14.235-9.091-13.826-17.797
		c0.396-8.412,6.38-14.931,15.145-16.169c3.928-0.555,7.923-0.637,12.532-0.983c-6.155-54.513-29.391-99.636-70.989-134.84
		c-31.684-26.813-68.535-41.82-109.918-45.965c-0.432,5.194-0.347,9.622-1.245,13.841c-1.873,8.798-9.219,14.175-17.895,13.694
		c-8.433-0.468-14.823-6.421-16.062-15.261c-0.549-3.919-0.642-7.902-0.941-11.84c-96.492,6.779-174.948,90.181-180.197,179.755
		c6.059,1.163,12.441,1.4,17.957,3.707c6.292,2.632,9.621,8.679,8.776,15.616c-0.479,3.932-2.171,8.271-4.684,11.287
		C74.136,274.732,65.581,273.447,57.452,273.838z"/>
	<path fill="#FFFFFF" d="M711.442,95.159c0.327-0.016,0.672,0.036,0.901-0.238c0.101-0.121,0.169-0.296,0.189-0.455
		c0.034-0.279-0.1-0.523-0.354-0.629c-0.222-0.093-0.479-0.103-0.723-0.149c0.211-3.609,3.372-6.968,7.259-7.242
		c0.012,0.159,0.016,0.319,0.038,0.477c0.05,0.356,0.307,0.596,0.647,0.615c0.349,0.019,0.645-0.197,0.721-0.552
		c0.036-0.17,0.033-0.348,0.05-0.558c1.667,0.167,3.152,0.772,4.428,1.852c1.676,1.418,2.612,3.236,2.86,5.432
		c-0.186,0.014-0.347,0.017-0.505,0.04c-0.353,0.05-0.594,0.313-0.61,0.651c-0.016,0.351,0.2,0.642,0.557,0.717
		c0.17,0.036,0.347,0.032,0.553,0.049c-0.165,1.649-0.758,3.12-1.815,4.386c-1.418,1.697-3.246,2.65-5.467,2.902
		c-0.013-0.174-0.017-0.333-0.039-0.49c-0.051-0.369-0.312-0.612-0.659-0.626c-0.359-0.014-0.646,0.211-0.717,0.582
		c-0.031,0.163-0.028,0.334-0.04,0.5C715.243,102.248,711.755,99.215,711.442,95.159z M723.261,99.121
		c0.432-0.025,0.664-0.205,0.806-0.498c0.137-0.282,0.067-0.535-0.136-0.765c-0.958-1.087-1.914-2.175-2.867-3.265
		c-0.055-0.063-0.113-0.146-0.118-0.224c-0.037-0.5-0.266-0.884-0.662-1.181c-0.055-0.041-0.103-0.126-0.108-0.194
		c-0.025-0.351-0.034-0.703-0.049-1.055c-0.042-0.974-0.081-1.947-0.127-2.921c-0.012-0.249-0.103-0.466-0.348-0.575
		c-0.371-0.165-0.752,0.107-0.777,0.558c-0.07,1.297-0.139,2.595-0.198,3.893c-0.008,0.169-0.051,0.282-0.188,0.391
		c-0.504,0.4-0.674,1.039-0.465,1.665c0.188,0.562,0.745,0.963,1.356,0.999c0.115,0.007,0.249,0.061,0.335,0.137
		c1.055,0.933,2.099,1.876,3.154,2.809C723,99.008,723.174,99.071,723.261,99.121z"/>
	<path display="inline" d="M350.845,372.181c-2.165-1.231-6.49-2.815-9.705-5.656c-26.19-23.14-52.125-46.567-78.304-69.72
		c-2.14-1.892-5.459-3.239-8.313-3.404c-15.18-0.88-29.008-10.836-33.666-24.786c-5.191-15.546-0.965-31.405,11.546-41.326
		c3.413-2.707,4.487-5.512,4.679-9.701c1.478-32.219,3.177-64.429,4.918-96.635c0.605-11.198,10.065-17.951,19.283-13.85
		c6.081,2.705,8.338,8.099,8.63,14.282c1.142,24.165,2.121,48.337,3.155,72.507c0.373,8.728,0.601,17.466,1.211,26.177
		c0.118,1.686,1.307,3.792,2.67,4.816c9.831,7.392,15.511,16.919,16.426,29.325c0.142,1.925,1.583,3.999,2.941,5.552
		c23.67,27.066,47.397,54.081,71.172,81.055c5.043,5.721,6.786,12.012,3.375,19.001
		C367.315,367.086,361.562,371.563,350.845,372.181z"/>
</g>
<g display="none">
	<path display="inline" d="M409.662,511c-88.652,0-177.305,0-265.957,0c-0.439-0.229-0.855-0.567-1.322-0.671
		c-28.904-6.468-52.884-21.622-73.686-42.161C56.274,455.9,49.94,441.485,50.008,423.29c0.442-119.351,0.227-238.704,0.233-358.057
		c0-2.655-0.023-5.316,0.123-7.965c1.455-26.454,19.187-47.921,44.86-54.357c2.547-0.639,5.095-1.274,7.642-1.911
		C184.877,1,266.889,1,348.9,1c0.613,0.238,1.208,0.609,1.841,0.694c22.41,3.012,38.019,15.009,47.479,35.454
		c0.72,1.556,3.38,3.021,5.214,3.119c10.269,0.55,20.087,2.608,28.937,7.977c20.387,12.369,29.668,30.794,29.621,54.418
		c-0.099,49.432-0.029,98.864-0.029,148.296c0,65.854,0.039,131.708-0.019,197.562c-0.027,30.934-17.334,53.849-45.653,60.776
		C414.076,509.838,411.872,510.431,409.662,511z M147.987,295.426c2.427-1.618,3.892-2.558,5.32-3.552
		c19.334-13.459,38.773-26.773,57.91-40.506c4.398-3.156,7.228-2.932,11.521,0.148c19.005,13.634,38.303,26.857,57.505,40.215
		c1.448,1.007,2.97,1.908,5.398,3.46c0-2.961,0-5.035,0-7.108c0-64.069-0.013-128.139,0.024-192.208
		c0.003-5.306,0.022-10.646,0.588-15.911c1.786-16.622,8.874-29.746,25.151-36.4c2.848-1.164,5.816-2.033,9.17-3.19
		c-0.83-0.241-1.115-0.396-1.401-0.396c-43.321-0.015-86.644-0.202-129.964,0.063c-18.634,0.114-33.555,11.663-38.446,29.681
		c-1.926,7.096-2.639,14.717-2.661,22.103c-0.197,65.729-0.115,131.458-0.115,197.187
		C147.987,290.772,147.987,292.533,147.987,295.426z M402.987,79.983c0,2.605,0,4.91,0,7.214c0,100.575,0.066,201.15-0.132,301.725
		c-0.015,7.685-0.815,15.711-3.119,22.987c-7.863,24.82-30.144,40.117-57.365,40.137c-75.348,0.056-150.696,0.02-226.044,0.021
		c-1.84,0-3.68,0-5.521,0c-0.095,0.5-0.19,0.999-0.285,1.499c7.578,4.384,15.12,8.83,22.744,13.133
		c7.402,4.177,15.337,5.481,23.887,5.461c80.493-0.183,160.987-0.253,241.479,0.027c14.01,0.049,24.507-7.191,24.456-24.282
		c-0.343-114.847-0.177-229.696-0.187-344.544c0-2.322,0.031-4.66-0.212-6.962C421.671,86.799,412.899,79.235,402.987,79.983z"/>
	<path fill="#FFFFFF" d="M713.591,84.041c-0.104,0.026-0.208,0.052-0.312,0.078c-1.047,0.263-1.77,1.138-1.83,2.217
		c-0.006,0.108-0.005,0.217-0.005,0.325c0,4.868,0.009,9.735-0.009,14.603c-0.003,0.742,0.256,1.33,0.762,1.83
		c0.848,0.838,1.826,1.456,3.005,1.72c0.019,0.004,0.036,0.018,0.054,0.027c-2.072,0-4.144,0-6.216,0c0-6.933,0-13.867,0-20.8
		C710.557,84.041,712.074,84.041,713.591,84.041z"/>
	<path fill="#FFFFFF" d="M726.103,104.841c0.09-0.023,0.18-0.047,0.27-0.069c1.155-0.283,1.861-1.217,1.862-2.479
		c0.002-2.686,0.001-5.372,0.001-8.057c0-2.016-0.003-4.032,0.001-6.048c0.002-0.964-0.377-1.715-1.208-2.219
		c-0.361-0.219-0.761-0.303-1.18-0.325c-0.075-0.004-0.183-0.064-0.213-0.127c-0.386-0.834-1.022-1.323-1.936-1.446
		c-0.026-0.003-0.05-0.019-0.075-0.028c2.07,0,4.141,0,6.214,0c0,6.933,0,13.867,0,20.8
		C728.593,104.841,727.348,104.841,726.103,104.841z"/>
	<path fill="#FFFFFF" d="M715.431,96.049c0-0.118,0-0.19,0-0.262c0-2.681-0.003-5.361,0.005-8.042
		c0.001-0.301,0.03-0.612,0.109-0.901c0.199-0.735,0.808-1.206,1.568-1.21c1.767-0.011,3.534-0.003,5.3-0.003
		c0.012,0,0.023,0.006,0.057,0.016c-0.137,0.047-0.258,0.083-0.374,0.13c-0.664,0.271-0.953,0.807-1.026,1.485
		c-0.023,0.215-0.024,0.433-0.024,0.649c-0.002,2.613-0.001,5.226-0.001,7.839c0,0.085,0,0.169,0,0.29
		c-0.099-0.063-0.161-0.1-0.22-0.141c-0.783-0.545-1.57-1.084-2.345-1.64c-0.175-0.126-0.29-0.135-0.47-0.006
		c-0.781,0.56-1.573,1.103-2.362,1.652C715.59,95.944,715.53,95.983,715.431,96.049z"/>
	<path fill="#FFFFFF" d="M725.831,87.262c0.404-0.031,0.762,0.278,0.803,0.669c0.01,0.094,0.009,0.189,0.009,0.284
		c0,4.684-0.006,9.368,0.008,14.052c0.002,0.697-0.426,0.992-0.997,0.99c-3.283-0.011-6.566-0.009-9.849-0.001
		c-0.349,0.001-0.672-0.052-0.974-0.223c-0.311-0.175-0.619-0.357-0.928-0.536c0.004-0.02,0.008-0.041,0.012-0.061
		c0.075,0,0.15,0,0.225,0c3.073,0,6.146,0.001,9.219-0.001c1.11-0.001,2.019-0.625,2.34-1.637c0.094-0.297,0.127-0.624,0.127-0.937
		c0.008-4.102,0.005-8.204,0.005-12.306C725.831,87.462,725.831,87.368,725.831,87.262z"/>
</g>
<g display="none">
	<path fill="#FFFFFF" d="M709.041,92.369c0-2.776,0-5.552,0-8.328c6.933,0,13.867,0,20.8,0c0,4.117,0,8.233,0,12.35
		c-0.086-0.135-0.162-0.277-0.259-0.405c-0.249-0.329-0.507-0.652-0.761-0.977c-1.262-1.616-2.525-3.233-3.788-4.848
		c-0.248-0.317-0.523-0.335-0.751-0.043c-1.564,1.999-3.125,4-4.688,6c-0.115,0.147-0.187,0.305-0.099,0.486
		c0.091,0.187,0.262,0.233,0.458,0.232c0.819-0.003,1.638-0.001,2.458-0.001c0.072,0,0.143,0,0.217,0
		c0.007,0.055,0.014,0.081,0.013,0.107c-0.025,1.003-0.117,1.997-0.356,2.975c-0.506,2.067-1.571,3.723-3.483,4.761
		c-0.042,0.023-0.076,0.059-0.142,0.113c0.088,0.005,0.134,0.01,0.179,0.01c0.762,0.001,1.512-0.089,2.247-0.29
		c2.009-0.549,3.521-1.733,4.521-3.563c0.658-1.205,0.953-2.507,1.014-3.869c0.003-0.078,0.01-0.156,0.015-0.244
		c0.896,0,1.769-0.005,2.642,0.003c0.262,0.003,0.457-0.074,0.564-0.324c0,2.775,0,5.549,0,8.326c-6.929,0-13.857,0-20.8,0
		c0-4.115,0-8.231,0-12.348c0.086,0.135,0.162,0.277,0.259,0.405c0.249,0.329,0.507,0.652,0.761,0.977
		c1.262,1.616,2.524,3.233,3.787,4.848c0.248,0.317,0.523,0.336,0.751,0.044c1.564-1.999,3.125-4,4.688-6
		c0.115-0.147,0.188-0.305,0.1-0.486c-0.091-0.187-0.261-0.233-0.458-0.232c-0.819,0.003-1.638,0.001-2.457,0.001
		c-0.072,0-0.143,0-0.229,0c0-0.082-0.005-0.135,0.001-0.187c0.076-0.773,0.12-1.551,0.239-2.318
		c0.164-1.064,0.53-2.068,1.092-2.991c0.579-0.951,1.366-1.69,2.331-2.241c0.1-0.057,0.194-0.124,0.339-0.217
		c-0.11-0.006-0.156-0.011-0.202-0.011c-0.762-0.001-1.512,0.089-2.247,0.29c-2.009,0.549-3.521,1.733-4.52,3.563
		c-0.658,1.205-0.953,2.507-1.013,3.869c-0.003,0.078-0.01,0.156-0.015,0.244c-0.896,0-1.769,0.005-2.642-0.003
		C709.342,92.042,709.147,92.119,709.041,92.369z"/>
	<path display="inline" d="M1,205.199c2.614-6.125,7.397-8.009,13.824-7.947c21.395,0.205,42.792,0.078,64.769,0.078
		c0.134-2.161,0.281-4.074,0.366-5.99c1.486-33.404,8.716-65.325,24.85-94.868c24.502-44.866,61.579-73.892,110.837-87.351
		c18.018-4.923,36.427-7.123,55.101-7.109c1.119,0.001,2.238,0.12,4.941,0.274c-3.552,2.282-5.868,3.92-8.319,5.321
		c-23.667,13.525-42.952,31.65-57.148,54.958c-13.787,22.637-22.759,47.237-26.786,73.333c-2.901,18.8-3.985,37.88-5.851,56.839
		c-0.126,1.282-0.016,2.587-0.016,4.593c2.107,0,3.864,0,5.622,0c20.085,0,40.171,0.048,60.256-0.034
		c4.828-0.02,9.008,1.108,11.233,5.7c2.151,4.44,0.35,8.327-2.457,11.92c-38.317,49.036-76.606,98.095-114.946,147.113
		c-5.594,7.152-12.333,6.705-18.416-1.077c-30.965-39.618-61.911-79.25-92.864-118.877c-6.231-7.978-12.547-15.892-18.651-23.965
		c-2.36-3.121-4.244-6.604-6.344-9.922C1,207.191,1,206.195,1,205.199z"/>
	<path display="inline" d="M511,306.801c-2.614,6.126-7.397,8.009-13.824,7.947c-21.396-0.205-42.794-0.078-64.768-0.078
		c-0.134,2.159-0.283,4.072-0.369,5.988c-1.489,33.405-8.715,65.332-24.853,94.87c-24.506,44.857-61.576,73.903-110.843,87.354
		c-18.02,4.92-36.429,7.121-55.104,7.107c-1.118-0.001-2.235-0.12-4.397-0.244c1.634-1.311,2.469-2.214,3.493-2.77
		c46.884-25.444,72.995-66.047,85.402-116.732c5.868-23.975,8.131-48.358,8.74-72.95c0.016-0.636-0.152-1.276-0.326-2.623
		c-1.809,0-3.565,0-5.321,0c-20.086,0-40.172-0.048-60.258,0.034c-4.826,0.02-9.012-1.094-11.243-5.685
		c-2.154-4.434-0.37-8.326,2.439-11.922c38.318-49.038,76.609-98.099,114.95-147.119c5.596-7.155,12.337-6.715,18.417,1.064
		c30.966,39.619,61.914,79.253,92.867,118.881c6.232,7.978,12.547,15.892,18.652,23.966c2.361,3.122,4.244,6.605,6.345,9.923
		C511,304.808,511,305.805,511,306.801z"/>
</g>
<g display="none">
	<path display="inline" d="M1,293.852c0-38.848,0-77.695,0-116.543c2.99-10.95,9.82-17.502,21.2-19.661
		c23.926-4.539,47.815-9.284,71.659-14.233c12.63-2.621,25.347-5.164,37.631-9.006c10.746-3.36,13.997-11.456,9.384-21.659
		c-3.391-7.5-7.861-14.547-12.221-21.566c-6.281-10.111-10.054-20.949-9.739-32.873c0.704-26.638,18.848-48.902,44.79-55.39
		c2.544-0.636,5.086-1.281,7.628-1.921c4.316,0,8.633,0,12.949,0c1.228,0.374,2.432,0.891,3.687,1.101
		c26.713,4.477,47.327,28.549,48.168,55.659c0.378,12.185-3.833,22.595-9.882,32.77c-4.21,7.082-8.215,14.421-11.159,22.087
		c-3.792,9.875-0.081,17.636,9.589,21.868c4.065,1.779,8.384,3.193,12.729,4.086c30.663,6.303,61.314,12.681,92.071,18.494
		c14.082,2.661,21.978,10.445,24.26,24.416c4.192,25.67,8.307,51.353,12.79,76.973c2.338,13.361,4.887,26.727,8.293,39.843
		c2.284,8.796,7.386,10.849,15.545,6.711c7.197-3.65,13.695-8.655,20.654-12.805c7.94-4.735,15.566-10.637,24.171-13.498
		c29.427-9.786,61.074,6.176,71.814,35.32c1.64,4.45,2.675,9.123,3.99,13.693c0,4.316,0,8.633,0,12.949
		c-2.636,7.615-4.214,15.823-8.091,22.743c-17.005,30.35-54.77,38.582-83.718,18.71c-7.926-5.441-15.38-11.599-23.485-16.744
		c-13.711-8.704-19.661-5.992-22.35,9.883c-6.392,37.735-12.702,75.484-18.866,113.257c-1.664,10.199-5.074,18.83-15.814,22.483
		c-107.246,0-214.492,0-321.738,0C9.003,508.309,3.715,502.973,1,495.063c0-39.844,0-79.688,0-119.531
		c0.289-0.384,0.772-0.738,0.837-1.157c1.826-11.774,8.85-14.165,19.632-9.166c1.8,0.835,3.645,1.664,5.259,2.796
		c6.921,4.854,13.731,9.865,20.642,14.734c8.992,6.335,18.862,10.311,29.979,10.703c38.015,1.341,66.781-31.062,61.098-68.801
		c-5.191-34.47-41.392-57.291-74.441-46.046c-9.528,3.242-18.035,9.545-26.91,14.62c-6.024,3.445-11.613,7.749-17.861,10.678
		c-8.522,3.995-12.708,1.934-16.388-6.627C2.339,296.081,1.621,294.987,1,293.852z"/>
	<path fill="#FFFFFF" d="M729.841,97.366c-0.054-0.186-0.096-0.377-0.163-0.558c-0.438-1.189-1.729-1.84-2.929-1.441
		c-0.351,0.117-0.662,0.357-0.986,0.551c-0.284,0.169-0.549,0.373-0.842,0.522c-0.333,0.169-0.541,0.085-0.634-0.274
		c-0.139-0.535-0.243-1.08-0.338-1.625c-0.183-1.045-0.351-2.092-0.522-3.139c-0.093-0.57-0.415-0.887-0.989-0.996
		c-1.254-0.237-2.505-0.497-3.755-0.754c-0.177-0.036-0.353-0.094-0.519-0.167c-0.394-0.173-0.546-0.489-0.391-0.892
		c0.12-0.313,0.283-0.612,0.455-0.901c0.247-0.415,0.418-0.84,0.403-1.337c-0.034-1.106-0.875-2.087-1.964-2.27
		c-0.051-0.009-0.1-0.03-0.15-0.045c4.442,0,8.883,0,13.325,0C729.841,88.482,729.841,92.924,729.841,97.366z"/>
	<path fill="#FFFFFF" d="M722.813,104.841c0.438-0.149,0.577-0.501,0.645-0.917c0.251-1.541,0.509-3.08,0.769-4.619
		c0.11-0.647,0.352-0.758,0.911-0.403c0.331,0.21,0.635,0.461,0.958,0.683c1.181,0.81,2.721,0.475,3.414-0.763
		c0.158-0.282,0.223-0.617,0.33-0.928c0,2.316,0,4.631,0,6.947C727.498,104.841,725.155,104.841,722.813,104.841z"/>
	<path fill="#FFFFFF" d="M715.987,84.041c-0.104,0.026-0.207,0.052-0.311,0.078c-1.058,0.265-1.798,1.173-1.827,2.259
		c-0.013,0.486,0.141,0.928,0.397,1.341c0.178,0.286,0.36,0.574,0.498,0.88c0.188,0.416,0.056,0.746-0.383,0.883
		c-0.501,0.157-1.02,0.26-1.535,0.367c-0.972,0.202-1.947,0.395-2.923,0.58c-0.464,0.088-0.743,0.355-0.865,0.802
		c0-2.393,0-4.787,0-7.191C711.356,84.041,713.672,84.041,715.987,84.041z"/>
	<path fill="#FFFFFF" d="M709.041,95.984c0.025,0.046,0.055,0.091,0.075,0.139c0.15,0.349,0.321,0.433,0.668,0.27
		c0.255-0.119,0.483-0.295,0.728-0.435c0.362-0.207,0.709-0.464,1.098-0.596c1.348-0.459,2.824,0.472,3.036,1.878
		c0.232,1.539-0.941,2.861-2.492,2.806c-0.453-0.016-0.856-0.178-1.223-0.437c-0.282-0.199-0.56-0.403-0.842-0.601
		c-0.066-0.046-0.141-0.08-0.214-0.114c-0.44-0.204-0.726-0.106-0.801,0.374c-0.003,0.017-0.022,0.032-0.034,0.047
		C709.041,98.205,709.041,97.095,709.041,95.984z"/>
	<path fill="#FFFFFF" d="M709.041,104.191c0.111,0.323,0.326,0.54,0.65,0.65c-0.217,0-0.433,0-0.65,0
		C709.041,104.624,709.041,104.407,709.041,104.191z"/>
</g>
<g display="none">
	<path fill="#FFFFFF" d="M709.041,99.234c0-5.065,0-10.129,0-15.194c6.933,0,13.867,0,20.8,0c0,5.065,0,10.129,0,15.194
		c-0.525,0-1.05,0-1.589,0c0,0.122,0,0.203,0,0.284c0,0.921,0,1.841,0,2.762c0,0.657-0.315,0.972-0.971,0.972
		c-5.227,0-10.453,0-15.68,0c-0.657,0-0.971-0.315-0.971-0.972c-0.001-0.928,0-1.855,0-2.783c0-0.078,0-0.157,0-0.263
		C710.08,99.234,709.56,99.234,709.041,99.234z M723.43,92.036c0.098,0,0.17,0,0.243,0c0.86-0.002,1.719,0.002,2.579-0.009
		c0.2-0.003,0.403-0.04,0.599-0.088c0.167-0.041,0.238-0.168,0.141-0.326c-0.113-0.183-0.228-0.372-0.377-0.522
		c-2.009-2.021-4.024-4.036-6.04-6.049c-0.177-0.176-0.368-0.341-0.567-0.491c-0.418-0.315-0.749-0.32-1.163,0.001
		c-0.266,0.207-0.517,0.437-0.756,0.675c-1.497,1.489-2.991,2.982-4.483,4.476c-0.469,0.469-0.937,0.939-1.396,1.418
		c-0.124,0.13-0.228,0.286-0.311,0.446c-0.104,0.201-0.05,0.333,0.172,0.38c0.255,0.054,0.521,0.082,0.782,0.085
		c0.785,0.011,1.57,0.004,2.355,0.004c0.073,0,0.145,0,0.243,0c0,0.109,0,0.195,0,0.281c0.003,2.091-0.012,4.183,0.014,6.274
		c0.014,1.172,1.03,2.193,2.199,2.222c1.184,0.03,2.368,0.012,3.553,0.002c0.192-0.002,0.39-0.048,0.575-0.109
		c1.018-0.334,1.636-1.224,1.638-2.359c0.003-2.01,0.001-4.02,0.001-6.031C723.43,92.232,723.43,92.145,723.43,92.036z"/>
	<path display="inline" d="M1,370.208c12.74,0,25.48,0,38.949,0c0,2.608,0,4.532,0,6.456c0,22.742-0.012,45.484,0.004,68.226
		c0.012,16.111,7.713,23.825,23.819,23.826c128.152,0.008,256.304,0.008,384.455,0c16.106-0.001,23.807-7.715,23.819-23.826
		c0.017-22.576,0.004-45.152,0.004-67.728c0-1.978,0-3.956,0-6.954c13.215,0,26.082,0,38.949,0c0,28.223,0,56.445,0,84.668
		c-0.341,1.091-0.796,2.159-1.005,3.275c-4.298,22.956-17.568,38.317-39.398,46.286c-3.991,1.457-8.253,2.174-12.39,3.233
		c-134.805,0-269.609,0-404.414,0c-0.924-0.323-1.825-0.78-2.777-0.95c-23.416-4.179-38.98-17.626-46.924-39.923
		c-1.372-3.852-2.078-7.941-3.092-11.92C1,426.653,1,398.431,1,370.208z"/>
	<path fill="#FFFFFF" d="M709.041,102.687c0.041,0.162,0.07,0.329,0.126,0.486c0.324,0.909,0.959,1.458,1.914,1.628
		c0.039,0.007,0.076,0.026,0.113,0.039c-0.718,0-1.435,0-2.153,0C709.041,104.123,709.041,103.405,709.041,102.687z"/>
	<path fill="#FFFFFF" d="M727.688,104.841c0.169-0.043,0.342-0.072,0.505-0.132c0.89-0.325,1.432-0.951,1.607-1.888
		c0.008-0.045,0.027-0.089,0.041-0.134c0,0.718,0,1.435,0,2.153C729.123,104.841,728.405,104.841,727.688,104.841z"/>
	<path display="inline" d="M353.822,193.715c0,2.679,0,4.791,0,6.902c-0.001,49.289,0.059,98.578-0.026,147.866
		c-0.049,27.823-15.193,49.641-40.157,57.83c-4.514,1.481-9.375,2.623-14.087,2.662c-29.036,0.241-58.09,0.695-87.109-0.042
		c-28.656-0.728-53.564-25.75-53.918-54.49c-0.633-51.272-0.285-102.556-0.346-153.835c-0.003-2.116,0-4.232,0-6.894
		c-2.413,0-4.192,0-5.97,0c-19.251-0.001-38.504,0.165-57.751-0.095c-6.412-0.087-12.917-0.761-19.181-2.095
		c-5.436-1.158-6.755-4.383-4.206-9.311c2.029-3.923,4.576-7.761,7.619-10.943c11.239-11.75,22.722-23.27,34.218-34.771
		c36.604-36.621,73.214-73.236,109.931-109.744c5.871-5.837,12.009-11.489,18.541-16.56c10.138-7.87,18.271-7.757,28.513-0.023
		c4.885,3.689,9.571,7.726,13.902,12.05c49.442,49.363,98.837,98.775,148.101,148.316c3.673,3.694,6.493,8.33,9.253,12.809
		c2.384,3.869,0.638,7.002-3.462,8c-4.79,1.165-9.767,2.084-14.675,2.146c-21.073,0.267-42.15,0.18-63.226,0.221
		C358.003,193.718,356.222,193.715,353.822,193.715z"/>
</g>
<g display="none">
	<path display="inline" d="M458.207,511c-95.625,0-191.25,0-286.875,0c-0.756-0.307-1.486-0.763-2.272-0.899
		c-29.668-5.136-49.977-27.881-50.149-57.936c-0.373-65.399-0.421-130.804,0.012-196.202c0.219-32.976,25.802-58.483,58.081-58.55
		c91.96-0.192,183.92-0.155,275.88-0.008c25.096,0.04,47.022,16.371,54.911,40.179c1.344,4.055,2.15,8.288,3.204,12.439
		c0,69.395,0,138.789,0,208.184c-0.341,1.091-0.796,2.159-1.005,3.275c-4.298,22.956-17.568,38.317-39.398,46.286
		C466.605,509.224,462.344,509.941,458.207,511z M354.187,337.44c-0.813-25.603-18.044-42.276-39.634-42.318
		c-16.617-0.032-31.935,11.306-36.757,26.423c-5.531,17.339-0.229,33.917,13.983,44.771c1.622,1.239,2.988,3.907,3.031,5.943
		c0.273,12.942,0.094,25.893,0.159,38.841c0.045,9.064,3.611,16.196,12.192,19.954c13.027,5.706,27.146-3.772,27.477-18.582
		c0.292-13.108,0.155-26.227,0.011-39.34c-0.036-3.24,0.764-5.327,3.572-7.386C349.146,357.736,354.255,346.671,354.187,337.44z"/>
	<path fill="#FFFFFF" d="M729.841,94.197c-0.043-0.169-0.076-0.342-0.131-0.507c-0.322-0.971-1.216-1.637-2.24-1.639
		c-3.75-0.006-7.501-0.008-11.252,0c-1.316,0.003-2.36,1.043-2.369,2.388c-0.018,2.667-0.016,5.335,0,8.002
		c0.007,1.226,0.835,2.153,2.045,2.363c0.032,0.006,0.062,0.024,0.093,0.037c-2.313,0-4.626,0-6.947,0c0-3.995,0-7.99,0-11.984
		c0.073-0.007,0.147-0.019,0.22-0.019c0.643-0.002,1.286,0,1.93-0.001c0.078,0,0.156-0.008,0.243-0.013
		c0-0.727-0.015-1.431,0.005-2.134c0.015-0.526,0.04-1.056,0.125-1.574c0.12-0.733,0.408-1.404,0.962-1.926
		c0.673-0.635,1.503-0.796,2.389-0.742c1.203,0.073,2.068,0.646,2.542,1.772c0.236,0.562,0.351,1.151,0.372,1.757
		c0.014,0.41,0.003,0.822,0.003,1.241c0.825,0,1.605,0,2.383,0c0-0.453,0.014-0.892-0.003-1.33
		c-0.046-1.202-0.323-2.344-0.956-3.378c-0.686-1.12-1.66-1.88-2.933-2.224c-0.427-0.116-0.873-0.165-1.31-0.244
		c4.943,0,9.885,0,14.828,0C729.841,87.426,729.841,90.811,729.841,94.197z"/>
	<path display="inline" d="M147.426,1c10.721,1.952,21.643,3.16,32.125,5.994c31.208,8.438,55.092,27.058,71.914,54.525
		c15.526,25.352,22.327,53.351,23.449,82.816c0.409,10.736,0.066,21.501,0.066,32.604c-19.086,0-38.216,0-58.437,0
		c0-10.274,0.273-20.359-0.064-30.424c-0.498-14.857-3.318-29.295-9.112-43.069c-11.622-27.626-32.837-41.663-62.338-43.46
		c-21.729-1.324-42.082,2.624-58.588,18.192c-13.585,12.813-20.655,29.259-23.587,47.234c-2.072,12.7-2.69,25.703-3.06,38.597
		c-0.495,17.24-0.123,34.505-0.123,52.322c-2.138,0.118-4.048,0.313-5.958,0.316c-15.77,0.025-31.541-0.002-47.311,0.036
		c-1.801,0.004-3.601,0.306-5.402,0.47c0-24.57,0-49.141,0-73.711c0.353-2.101,0.859-4.19,1.036-6.306
		c2.241-26.792,8.894-52.279,23.081-75.35c16.851-27.403,40.568-46.213,71.766-54.7C107.518,4.193,118.612,2.98,129.496,1
		C135.473,1,141.449,1,147.426,1z"/>
	<path fill="#FFFFFF" d="M714.281,84.041c-0.444,0.081-0.896,0.13-1.33,0.248c-1.272,0.346-2.24,1.113-2.927,2.231
		c-0.579,0.941-0.85,1.98-0.941,3.073c-0.007,0.086-0.028,0.171-0.042,0.257c0-1.933,0-3.866,0-5.809
		C710.787,84.041,712.534,84.041,714.281,84.041z"/>
	<path fill="#FFFFFF" d="M727.688,104.841c0.169-0.043,0.342-0.072,0.505-0.132c0.89-0.325,1.432-0.951,1.607-1.888
		c0.008-0.045,0.027-0.089,0.041-0.134c0,0.718,0,1.435,0,2.153C729.123,104.841,728.405,104.841,727.688,104.841z"/>
	<path fill="#FFFFFF" d="M723.445,97.762c0.003,0.376-0.206,0.828-0.651,1.154c-0.115,0.084-0.147,0.169-0.146,0.301
		c0.006,0.535,0.011,1.07,0,1.604c-0.013,0.604-0.589,0.991-1.121,0.758c-0.35-0.153-0.495-0.444-0.497-0.814
		c-0.003-0.528,0.005-1.056-0.007-1.584c-0.002-0.083-0.057-0.192-0.124-0.242c-0.58-0.443-0.796-1.119-0.57-1.826
		c0.197-0.617,0.821-1.079,1.499-1.078C722.709,96.038,723.412,96.718,723.445,97.762z"/>
</g>
<g display="none">
	<path fill="#FFFFFF" d="M729.841,104.84c-6.931,0-13.862,0-20.797,0c0-6.929,0-13.858,0-20.793c6.93,0,13.863,0,20.797,0
		C729.841,90.976,729.841,97.907,729.841,104.84z M715.133,101.64c1.707,1.067,3.386,2.116,5.109,3.192c0-0.631,0-1.203,0-1.74
		c3.993-0.672,6.667-2.831,7.617-6.794c0.715-2.983-0.164-5.615-2.22-7.887c-0.731,0.668-1.438,1.313-2.146,1.959
		c2.011,2.078,2.058,4.87,0.992,6.788c-0.924,1.663-2.343,2.634-4.257,2.96c0-0.574,0-1.103,0-1.663
		C718.515,99.527,716.837,100.576,715.133,101.64z M715.376,98.525c-1.794-2.068-2.227-4.33-0.983-6.777
		c0.866-1.704,2.335-2.661,4.252-2.993c0,0.569,0,1.099,0,1.674c1.719-1.074,3.4-2.125,5.102-3.189
		c-1.707-1.067-3.384-2.116-5.101-3.189c0,0.62,0,1.191,0,1.733c-3.992,0.671-6.671,2.828-7.622,6.79
		c-0.717,2.983,0.159,5.62,2.219,7.895C713.968,99.809,714.672,99.167,715.376,98.525z"/>
	<path display="inline" d="M150.283,432.65c41.807-26.125,83-51.866,125.053-78.145c0,13.757,0,26.738,0,40.822
		c46.98-7.99,81.81-31.831,104.48-72.635c26.164-47.092,24.989-115.598-24.355-166.605c17.364-15.853,34.716-31.694,52.662-48.079
		c50.472,55.742,72.044,120.338,54.485,193.554c-23.324,97.254-88.947,150.256-186.95,166.738c0,13.184,0,27.223,0,42.699
		C233.385,484.583,192.168,458.825,150.283,432.65z"/>
	<path display="inline" d="M156.233,356.202c-17.264,15.738-34.552,31.498-52.346,47.719
		c-50.573-55.817-72.055-120.53-54.468-193.75C72.775,112.933,138.52,59.993,236.489,43.523c0-13.28,0-27.307,0-42.523
		c42.125,26.333,83.283,52.063,125.184,78.256c-41.777,26.111-83.03,51.896-125.212,78.26c0-14.111,0-27.132,0-41.088
		c-47.049,8.144-83.089,31.634-104.347,73.451C101.588,249.928,112.214,305.458,156.233,356.202z"/>
</g>
<g display="none">
	<path fill="#FFFFFF" d="M709.042,104.841c0-6.931,0-13.862,0-20.796c6.928,0,13.857,0,20.792,0c0,6.93,0,13.863,0,20.796
		C722.906,104.841,715.975,104.841,709.042,104.841z M718.225,104.052c0.809,0,1.597,0,2.388,0c0.015-0.064,0.03-0.116,0.039-0.169
		c0.149-0.832,0.301-1.663,0.44-2.496c0.023-0.139,0.088-0.181,0.207-0.229c0.532-0.212,1.061-0.433,1.584-0.666
		c0.123-0.055,0.199-0.053,0.306,0.024c0.578,0.414,1.161,0.819,1.743,1.227c0.159,0.112,0.319,0.221,0.439,0.304
		c0.581-0.572,1.142-1.126,1.712-1.688c-0.031-0.045-0.068-0.101-0.107-0.155c-0.49-0.681-0.98-1.362-1.472-2.042
		c-0.06-0.083-0.088-0.149-0.028-0.252c0.302-0.516,0.524-1.066,0.687-1.641c0.019-0.068,0.113-0.149,0.184-0.163
		c0.457-0.092,0.918-0.167,1.377-0.249c0.444-0.079,0.888-0.159,1.327-0.238c0-0.81,0-1.599,0-2.387
		c-0.065-0.015-0.117-0.031-0.17-0.04c-0.834-0.137-1.667-0.277-2.503-0.404c-0.138-0.021-0.187-0.079-0.234-0.2
		c-0.21-0.533-0.428-1.063-0.656-1.588c-0.049-0.112-0.058-0.185,0.016-0.289c0.429-0.6,0.85-1.205,1.274-1.809
		c0.1-0.142,0.198-0.286,0.267-0.385c-0.576-0.578-1.133-1.137-1.699-1.705c-0.033,0.022-0.089,0.059-0.143,0.098
		c-0.676,0.485-1.352,0.97-2.028,1.457c-0.079,0.057-0.142,0.103-0.251,0.038c-0.526-0.313-1.089-0.539-1.677-0.707
		c-0.059-0.017-0.129-0.097-0.141-0.158c-0.089-0.451-0.165-0.904-0.245-1.357c-0.08-0.452-0.159-0.903-0.24-1.356
		c-0.806,0-1.596,0-2.389,0c-0.015,0.068-0.031,0.127-0.041,0.187c-0.136,0.827-0.274,1.654-0.401,2.482
		c-0.02,0.132-0.082,0.169-0.195,0.213c-0.54,0.211-1.076,0.431-1.607,0.663c-0.115,0.05-0.188,0.053-0.289-0.02
		c-0.663-0.48-1.331-0.954-1.997-1.429c-0.065-0.046-0.132-0.091-0.177-0.122c-0.573,0.573-1.132,1.131-1.697,1.696
		c0.031,0.046,0.072,0.108,0.114,0.169c0.469,0.671,0.941,1.34,1.404,2.015c0.044,0.064,0.074,0.186,0.043,0.244
		c-0.299,0.541-0.538,1.105-0.706,1.7c-0.018,0.063-0.109,0.135-0.177,0.148c-0.418,0.08-0.84,0.143-1.26,0.213
		c-0.472,0.079-0.943,0.16-1.412,0.24c0,0.808,0,1.597,0,2.39c0.077,0.015,0.143,0.03,0.209,0.042
		c0.812,0.146,1.623,0.296,2.436,0.431c0.141,0.024,0.18,0.093,0.226,0.209c0.211,0.532,0.427,1.063,0.66,1.586
		c0.059,0.131,0.055,0.211-0.026,0.323c-0.477,0.657-0.939,1.325-1.423,1.977c-0.123,0.165-0.098,0.248,0.038,0.38
		c0.463,0.446,0.912,0.907,1.367,1.362c0.051,0.051,0.104,0.1,0.157,0.15c0.748-0.523,1.48-1.034,2.21-1.548
		c0.089-0.062,0.16-0.099,0.272-0.033c0.521,0.308,1.078,0.53,1.66,0.694c0.064,0.018,0.142,0.106,0.154,0.173
		c0.081,0.425,0.144,0.853,0.216,1.28C718.064,103.111,718.145,103.582,718.225,104.052z"/>
	<path display="inline" d="M223.76,511c-2.113-12.443-4.263-24.943-6.353-37.452c-1.891-11.32-3.572-22.679-5.719-33.95
		c-0.337-1.768-2.389-4.096-4.096-4.577c-15.446-4.354-30.229-10.24-44.042-18.407c-2.956-1.748-4.859-0.774-7.211,0.882
		c-19.373,13.636-38.802,27.194-58.635,41.071c-1.387-1.324-2.802-2.621-4.159-3.978c-12.062-12.065-23.976-24.283-36.252-36.126
		c-3.619-3.492-4.264-5.699-1.011-10.081c12.839-17.291,25.106-35.006,37.754-52.442c2.153-2.969,2.24-5.084,0.686-8.562
		c-6.198-13.867-11.917-27.955-17.52-42.078c-1.222-3.08-2.25-4.933-5.989-5.557c-21.576-3.603-43.089-7.585-64.621-11.447
		c-1.757-0.315-3.502-0.698-5.542-1.107c0-21.05,0-41.972,0-63.408c12.454-2.115,24.957-4.261,37.468-6.356
		c11.142-1.866,22.321-3.537,33.415-5.65c1.794-0.342,4.215-2.264,4.686-3.926c4.471-15.791,10.8-30.746,18.733-45.102
		c0.843-1.525,0.029-4.783-1.13-6.473c-12.283-17.91-24.794-35.664-37.235-53.466c-1.121-1.603-2.19-3.242-3.019-4.472
		C68.966,83.346,83.784,68.536,98.989,53.34c1.217,0.836,2.983,2.011,4.709,3.242c17.681,12.615,35.394,25.186,52.992,37.917
		c2.677,1.936,4.601,1.879,7.661,0.543c14.09-6.15,28.327-11.976,42.646-17.576c2.99-1.169,4.628-2.146,5.165-5.654
		c3.369-21.98,7.05-43.912,10.648-65.856c0.26-1.587,0.682-3.148,1.08-4.957c21.045,0,41.994,0,63.386,0
		c2.123,12.026,4.239,24.005,6.354,35.985c2.12,12.008,4.127,24.038,6.491,35.998c0.32,1.618,2.185,3.733,3.746,4.179
		c15.601,4.456,30.539,10.454,44.485,18.748c2.894,1.721,4.561,0.513,6.663-1.001c17.913-12.908,35.853-25.777,53.792-38.65
		c1.445-1.037,2.934-2.013,3.805-2.608c15.019,15.066,29.792,29.886,45.082,45.224c-1.817,2.624-4.423,6.43-7.071,10.206
		c-11.234,16.019-22.408,32.08-33.791,47.992c-1.973,2.758-1.718,4.696-0.422,7.676c6.06,13.931,11.849,27.986,17.412,42.124
		c1.261,3.205,2.569,4.747,6.22,5.302c22.161,3.371,44.267,7.098,66.388,10.729c1.412,0.232,2.793,0.649,4.523,1.06
		c0,20.905,0,41.821,0,63.317c-11.648,2.087-23.418,4.209-35.194,6.302c-12.182,2.165-24.399,4.153-36.523,6.601
		c-1.892,0.382-4.375,2.52-4.886,4.327c-4.322,15.269-10.199,29.862-18.217,43.545c-1.612,2.751-0.87,4.485,0.731,6.693
		c13.066,18.02,26.056,36.095,39.061,54.159c1.039,1.444,2.022,2.928,2.843,4.122c-15.121,14.905-30.028,29.599-45.429,44.78
		c-3.167-2.193-7.42-5.109-11.642-8.069c-15.432-10.82-30.908-21.578-46.228-32.554c-2.852-2.043-4.861-2.093-8.122-0.634
		c-13.867,6.205-27.901,12.055-42.015,17.681c-3.158,1.259-4.874,2.386-5.49,6.071c-3.693,22.107-7.736,44.155-11.679,66.22
		c-0.251,1.406-0.644,2.787-1.04,4.477C266.13,511,245.21,511,223.76,511z M394.694,256.052
		c0.061-76.198-61.492-137.891-138.385-138.701c-75.729-0.797-138.916,62.246-138.977,138.661
		c-0.061,76.31,63.125,139.389,138.937,138.701C333.073,394.015,394.633,332.351,394.694,256.052z"/>
	<path fill="#FFFFFF" d="M724.668,94.441c-0.002,2.876-2.323,5.2-5.218,5.227c-2.858,0.026-5.239-2.352-5.237-5.228
		c0.002-2.88,2.384-5.257,5.239-5.227C722.35,89.244,724.67,91.569,724.668,94.441z M723.377,94.431
		c-0.007-2.167-1.787-3.936-3.951-3.927c-2.159,0.01-3.921,1.778-3.922,3.936c0,2.165,1.776,3.94,3.941,3.937
		C721.611,98.374,723.383,96.595,723.377,94.431z"/>
	<path display="inline" d="M360.442,255.773c0.172,57.418-46.84,104.602-104.306,104.687
		c-57.424,0.085-104.56-47.001-104.553-104.44c0.008-57.241,46.754-104.159,104.036-104.418
		C313.025,151.343,360.27,198.294,360.442,255.773z M299.637,255.851c-0.233-24.362-20.246-44.249-44.321-44.043
		c-24.273,0.209-44.075,20.251-43.906,44.44c0.17,24.338,20.128,44.17,44.304,44.025
		C279.916,300.127,299.867,279.95,299.637,255.851z"/>
	<path fill="#FFFFFF" d="M721.085,94.434c0.009,0.908-0.743,1.669-1.656,1.674c-0.911,0.005-1.664-0.742-1.67-1.659
		c-0.006-0.912,0.74-1.667,1.655-1.675C720.322,92.766,721.076,93.516,721.085,94.434z"/>
</g>
<g display="none">
	<path fill="#FFFFFF" d="M709.041,104.841c0-6.931,0-13.863,0-20.797c6.929,0,13.859,0,20.794,0c0,6.93,0,13.864,0,20.797
		C722.905,104.841,715.973,104.841,709.041,104.841z M721.913,98.193c0.214,0.214,0.426,0.422,0.629,0.638
		c0.03,0.032,0.038,0.112,0.021,0.156c-0.253,0.655-0.107,1.216,0.383,1.705c1.174,1.172,2.346,2.346,3.52,3.518
		c0.072,0.072,0.146,0.142,0.227,0.202c0.485,0.357,1.024,0.448,1.537,0.136c0.368-0.224,0.676-0.555,0.988-0.861
		c0.68-0.669,0.676-1.533,0.004-2.207c-1.176-1.18-2.356-2.355-3.532-3.535c-0.489-0.49-1.051-0.633-1.705-0.38
		c-0.044,0.017-0.124,0.009-0.156-0.021c-0.216-0.203-0.424-0.415-0.64-0.629c1.308-1.725,1.887-3.646,1.634-5.781
		c-0.253-2.134-1.231-3.893-2.916-5.23c-3.175-2.519-7.62-2.192-10.402,0.589c-2.777,2.775-3.037,7.033-0.848,10.093
		c1.18,1.65,2.774,2.708,4.755,3.122C717.792,100.203,719.958,99.66,721.913,98.193z"/>
	<path display="inline" d="M316.849,348.522c-48.525,36.418-102.29,49.903-161.374,37.56
		c-49.183-10.275-88.743-36.533-118.044-77.498C-16.91,232.61-10.45,126.914,58.484,58.022
		C127.565-11.017,237.908-19.143,316.727,43.4c41.823,33.186,66.102,76.871,72.384,129.843
		c6.284,52.999-8.096,100.692-40.571,143.514c5.36,5.32,10.522,10.581,15.893,15.62c0.789,0.74,2.769,0.941,3.861,0.52
		c16.251-6.28,30.194-2.739,42.339,9.438c29.2,29.277,58.486,58.469,87.68,87.752c16.688,16.739,16.77,38.203-0.1,54.799
		c-7.74,7.614-15.392,15.824-24.531,21.386c-12.754,7.762-26.138,5.502-38.169-3.365c-2.019-1.488-3.86-3.247-5.639-5.025
		c-29.138-29.102-58.232-58.248-87.382-87.337c-12.156-12.131-15.791-26.057-9.504-42.325c0.423-1.095,0.229-3.081-0.511-3.867
		C327.425,358.991,322.151,353.841,316.849,348.522z M36.849,195.941c0.502,87.996,72.185,159.416,159.332,158.747
		c88.086-0.675,158.758-71.177,158.622-158.811C354.665,108.14,284.795,36.87,195.861,36.934
		C106.789,36.999,37.529,108.06,36.849,195.941z"/>
	<path fill="#FFFFFF" d="M710.634,92.047c0.027-3.54,2.817-6.402,6.405-6.405c3.582-0.003,6.397,2.868,6.402,6.402
		c0.005,3.53-2.841,6.37-6.389,6.397C713.542,98.468,710.654,95.591,710.634,92.047z M719.163,95.909
		c-1.705,0.109-3.174-0.376-4.398-1.526c-1.22-1.147-1.791-2.583-1.797-4.279c-1.007,1.574-0.836,4.014,0.891,5.512
		C715.455,96.999,717.741,96.952,719.163,95.909z"/>
	<path display="inline" d="M248.589,291.828c-35.315,25.891-92.065,27.062-131.658-7.276
		c-42.876-37.184-47.118-97.782-22.125-136.845c0.154,42.104,14.323,77.755,44.606,106.228
		C169.796,282.502,206.255,294.54,248.589,291.828z"/>
</g>
<g display="none">
	<path fill="#FFFFFF" d="M715.987,104.841c-2.314,0-4.629,0-6.945,0c0-6.929,0-13.857,0-20.8c4.142,0,8.286,0,12.43,0
		c-0.193,0.028-0.386,0.054-0.579,0.083c-1.839,0.281-3.154,1.272-3.961,2.94c-0.523,1.083-0.68,2.243-0.688,3.432
		c-0.002,0.241,0,0.482,0,0.717c0.813,0,1.595,0,2.387,0c0-0.206-0.011-0.396,0.002-0.585c0.033-0.492,0.043-0.989,0.122-1.474
		c0.124-0.754,0.399-1.46,0.988-1.977c0.979-0.86,2.125-0.912,3.301-0.54c1.02,0.323,1.521,1.139,1.799,2.116
		c0.205,0.718,0.216,1.456,0.206,2.194c-0.001,0.091,0,0.182,0,0.264c0.816,0,1.598,0,2.388,0c0-0.281,0.003-0.545,0-0.808
		c-0.016-1.373-0.248-2.694-0.975-3.886c-0.685-1.122-1.656-1.883-2.928-2.23c-0.434-0.118-0.886-0.167-1.33-0.248
		c2.546,0,5.092,0,7.637,0c0,3.385,0,6.771,0,10.156c-0.013-0.038-0.031-0.075-0.038-0.113c-0.23-1.243-1.171-2.034-2.433-2.035
		c-3.69-0.002-7.379-0.002-11.069,0c-1.383,0.001-2.44,1.011-2.45,2.39c-0.018,2.667-0.015,5.335-0.001,8.002
		c0.006,1.155,0.757,2.063,1.866,2.332C715.806,104.795,715.897,104.818,715.987,104.841z"/>
	<path display="inline" d="M112.523,511c-2.224-0.55-4.446-1.108-6.673-1.648c-27.193-6.593-45.605-28.873-45.754-57.187
		c-0.343-65.399-0.427-130.804,0.021-196.202c0.232-33.829,26.166-58.589,60.07-58.612c90.466-0.06,180.932-0.047,271.399-0.006
		c30.952,0.014,54.035,19.412,59.665,49.895c0.176,0.953,0.62,1.856,0.94,2.783c0,69.395,0,138.789,0,208.184
		c-0.341,1.091-0.796,2.16-1.005,3.275c-4.298,22.956-17.568,38.317-39.398,46.286c-3.991,1.457-8.253,2.174-12.39,3.233
		C303.773,511,208.148,511,112.523,511z M236.148,391.747c0,6.64-0.109,13.282,0.027,19.919c0.181,8.876,3.857,15.783,12.24,19.415
		c13.043,5.651,27.102-3.858,27.417-18.679c0.279-13.108,0.162-26.228,0.001-39.34c-0.04-3.28,0.905-5.288,3.636-7.351
		c13.016-9.832,17.914-23.212,15.077-39.066c-2.782-15.548-16.643-28.72-31.446-30.869c-18.223-2.646-33.869,5.234-42.217,21.262
		c-7.43,14.265-5.667,33.354,6.929,43.923c7.992,6.706,8.785,13.673,8.35,22.32C236.021,386.097,236.14,388.925,236.148,391.747z"/>
	<path display="inline" d="M264.925,1c10.887,1.976,21.986,3.171,32.619,6.074c31.173,8.51,54.998,27.172,71.785,54.675
		c17.845,29.235,23.528,61.622,23.914,95.284c0.074,6.462,0.011,12.926,0.011,19.822c-19.379,0-38.534,0-58.548,0
		c0-2.011-0.026-4.245,0.004-6.479c0.244-18.118-0.03-36.208-5.053-53.806c-6.836-23.948-19.11-43.962-44.119-51.881
		c-28.85-9.135-56.926-7.848-80.942,13.235c-14.444,12.68-21.201,29.982-24.229,48.472c-1.948,11.893-2.196,24.075-3.002,36.141
		c-0.309,4.618-0.05,9.274-0.05,14.332c-19.421,0-38.577,0-58.52,0c0-5.776-0.034-11.683,0.006-17.589
		c0.195-29.136,4.04-57.592,16.876-84.143c19.774-40.901,52.02-65.21,97.119-72.093c4.727-0.721,9.466-1.364,14.2-2.044
		C252.972,1,258.949,1,264.925,1z"/>
	<path fill="#FFFFFF" d="M727.688,104.841c0.169-0.043,0.342-0.072,0.505-0.132c0.89-0.325,1.432-0.951,1.607-1.888
		c0.008-0.045,0.027-0.089,0.041-0.134c0,0.718,0,1.435,0,2.153C729.123,104.841,728.405,104.841,727.688,104.841z"/>
	<path fill="#FFFFFF" d="M721.029,99.977c0-0.115-0.005-0.23,0.001-0.345c0.018-0.353-0.015-0.637-0.341-0.91
		c-0.514-0.431-0.586-1.21-0.283-1.791c0.341-0.654,0.979-0.975,1.722-0.867c0.604,0.088,1.169,0.625,1.283,1.259
		c0.116,0.647-0.084,1.192-0.615,1.593c-0.111,0.084-0.15,0.166-0.148,0.3c0.007,0.535,0.011,1.07,0,1.604
		c-0.013,0.604-0.586,0.992-1.118,0.762c-0.342-0.148-0.492-0.43-0.499-0.792C721.025,100.519,721.029,100.248,721.029,99.977z"/>
</g>
<g display="none">
	<path fill="#FFFFFF" d="M707.041,110.869c0-0.609,0-1.219,0-1.828c6.933,0,13.867,0,20.8,0c0,6.31,0,12.621,0,18.931
		c-0.064-0.033-0.132-0.06-0.19-0.101c-1.27-0.886-2.54-1.773-3.81-2.66c-0.059-0.042-0.121-0.08-0.154-0.101
		c-0.203,0.196-0.392,0.377-0.59,0.568c0.962,1.375,1.928,2.756,2.905,4.153c0.355-0.356,0.682-0.687,1.013-1.015
		c0.273-0.27,0.55-0.535,0.826-0.803c0,0.609,0,1.218,0,1.827c-6.93,0-13.859,0-20.8,0c0-6.31,0-12.62,0-18.931
		c0.064,0.033,0.132,0.06,0.19,0.101c1.265,0.882,2.528,1.765,3.792,2.648c0.065,0.045,0.133,0.087,0.177,0.116
		c0.203-0.194,0.392-0.375,0.589-0.564c-0.967-1.382-1.934-2.763-2.909-4.156c-0.355,0.354-0.683,0.684-1.015,1.012
		C707.593,110.336,707.316,110.601,707.041,110.869z M717.528,122.536c-0.034,0.045-0.075,0.118-0.132,0.175
		c-1.162,1.164-2.327,2.326-3.489,3.49c-0.319,0.32-0.675,0.582-1.098,0.749c-1.564,0.618-3.145-0.487-3.044-2.137
		c0.045-0.73,0.395-1.322,0.905-1.831c1.17-1.166,2.336-2.336,3.506-3.502c0.056-0.056,0.137-0.086,0.175-0.109
		c-0.651-0.652-1.252-1.254-1.881-1.884c-0.033,0.044-0.072,0.11-0.124,0.162c-1.147,1.15-2.3,2.295-3.442,3.451
		c-0.261,0.264-0.517,0.541-0.726,0.846c-1.115,1.632-1.36,3.36-0.489,5.178c0.862,1.799,3.011,2.872,4.973,2.529
		c1.203-0.21,2.213-0.761,3.069-1.619c1.171-1.174,2.346-2.346,3.518-3.518c0.047-0.047,0.091-0.097,0.127-0.135
		C718.766,123.772,718.164,123.171,717.528,122.536z M722.388,121.407c0.053-0.064,0.097-0.125,0.149-0.177
		c1.148-1.15,2.301-2.295,3.443-3.45c0.261-0.264,0.517-0.541,0.725-0.846c1.114-1.633,1.357-3.361,0.486-5.178
		c-0.862-1.799-3.011-2.869-4.975-2.525c-1.188,0.208-2.192,0.746-3.039,1.592c-1.188,1.186-2.375,2.374-3.562,3.561
		c-0.042,0.042-0.08,0.087-0.11,0.121c0.61,0.609,1.211,1.21,1.851,1.849c0.037-0.052,0.076-0.127,0.132-0.184
		c1.162-1.165,2.326-2.326,3.488-3.491c0.319-0.32,0.675-0.582,1.098-0.749c1.566-0.615,3.145,0.491,3.041,2.14
		c-0.045,0.722-0.387,1.311-0.893,1.816c-1.174,1.171-2.346,2.345-3.518,3.518c-0.056,0.056-0.109,0.114-0.151,0.158
		C721.163,120.175,721.759,120.775,722.388,121.407z"/>
	<path display="inline" d="M511,466.129c-6.751,6.555-13.552,13.06-20.24,19.679c-8.125,8.041-16.155,16.178-24.848,24.898
		c-23.957-34.25-47.642-68.111-71.227-101.83c4.847-4.667,9.473-9.121,14.457-13.921c0.809,0.527,2.328,1.458,3.787,2.476
		c31.134,21.745,62.257,43.508,93.407,65.23c1.433,0.999,3.104,1.655,4.664,2.471C511,465.465,511,465.797,511,466.129z"/>
	<path display="inline" d="M1,45.777c6.748-6.557,13.535-13.074,20.233-19.682c8.136-8.027,16.196-16.131,24.89-24.801
		c23.902,34.157,47.594,68.013,71.314,101.911c-4.828,4.619-9.468,9.057-14.445,13.818c-1.087-0.711-2.744-1.735-4.339-2.848
		C67.658,92.53,36.675,70.867,5.664,49.244C4.231,48.245,2.56,47.589,1,46.773C1,46.441,1,46.109,1,45.777z"/>
	<path display="inline" d="M258.134,331.838c15.611,15.578,30.375,30.311,45.326,45.23c-0.876,0.933-1.957,2.151-3.107,3.301
		c-28.754,28.757-57.544,57.478-86.265,86.267c-20.988,21.037-45.764,34.527-75.257,39.686c-48.116,8.417-100.806-17.879-121.942-62
		c-21.357-44.583-15.331-86.947,11.995-126.961c5.108-7.48,11.398-14.269,17.792-20.734c28.012-28.324,56.269-56.404,84.403-84.608
		c1.279-1.282,2.222-2.899,3.035-3.979c15.429,15.452,30.167,30.212,46.132,46.201c-0.917,0.557-2.911,1.303-4.285,2.672
		c-28.688,28.588-57.269,57.283-85.955,85.872c-12.522,12.48-21.095,26.989-22.198,44.893c-2.494,40.455,36.282,67.54,74.626,52.397
		c10.37-4.095,19.091-10.531,26.92-18.376c28.489-28.552,57.052-57.03,85.547-85.577
		C256.295,334.728,257.306,332.951,258.134,331.838z"/>
	<path display="inline" d="M377.298,304.156c-15.408-15.492-30.022-30.185-44.974-45.219c1.048-1.1,2.35-2.523,3.712-3.886
		c28.745-28.766,57.466-57.555,86.261-86.271c12.403-12.368,20.776-26.811,21.89-44.515c2.545-40.444-36.178-67.561-74.566-52.483
		c-10.377,4.076-19.105,10.51-26.932,18.355c-28.489,28.552-57.047,57.035-85.532,85.592c-1.393,1.397-2.341,3.237-3.249,4.52
		c-15.681-15.67-30.428-30.407-45.379-45.347c0.744-0.815,1.682-1.93,2.708-2.957c29.105-29.11,58.207-58.223,87.337-87.308
		c20.778-20.746,45.387-33.929,74.517-39.033c48.154-8.437,100.845,17.811,121.984,61.909
		c21.362,44.565,15.401,86.939-11.911,126.97c-5.105,7.482-11.391,14.275-17.786,20.739c-28.015,28.32-56.275,56.398-84.424,84.586
		C379.668,301.096,378.598,302.599,377.298,304.156z"/>
</g>
<g display="none">
	<path fill="#FFFFFF" d="M709.041,84.041c6.933,0,13.867,0,20.8,0c0,6.933,0,13.867,0,20.8c-6.933,0-13.867,0-20.8,0
		C709.041,97.907,709.041,90.974,709.041,84.041z M718.09,99.008c-0.71,0.712-1.429,1.437-2.153,2.158
		c-0.148,0.148-0.3,0.296-0.471,0.416c-0.769,0.54-1.6,0.743-2.485,0.33c-1.118-0.522-1.545-1.825-0.978-2.987
		c0.16-0.328,0.383-0.643,0.639-0.904c1.298-1.324,2.621-2.624,3.927-3.942c1-1.009,2.565-1.19,3.582-0.19
		c0.488,0.48,1.301,0.399,1.755-0.094c0.481-0.521,0.475-1.314-0.041-1.811c-1.114-1.075-2.458-1.488-3.983-1.302
		c-1.27,0.155-2.326,0.747-3.222,1.651c-1.253,1.265-2.527,2.508-3.768,3.784c-0.379,0.389-0.731,0.824-1.007,1.289
		c-0.668,1.124-0.894,2.349-0.589,3.632c0.594,2.497,2.95,4.036,5.462,3.592c1.158-0.204,2.13-0.756,2.955-1.583
		c1.148-1.149,2.297-2.297,3.446-3.446c0.04-0.04,0.076-0.083,0.105-0.116C720.154,99.754,719.114,99.574,718.09,99.008z
		 M720.786,89.874c0.728-0.73,1.465-1.467,2.2-2.205c0.314-0.315,0.666-0.572,1.082-0.737c1.567-0.619,3.137,0.472,3.048,2.13
		c-0.038,0.715-0.373,1.303-0.873,1.803c-0.713,0.713-1.426,1.426-2.139,2.14c-0.598,0.598-1.197,1.196-1.795,1.795
		c-0.422,0.423-0.917,0.714-1.508,0.821c-0.78,0.141-1.445-0.077-2.037-0.607c-0.55-0.493-1.355-0.429-1.816,0.104
		c-0.48,0.554-0.427,1.329,0.126,1.837c1.219,1.121,2.655,1.486,4.265,1.189c1.112-0.205,2.043-0.758,2.837-1.555
		c1.261-1.266,2.53-2.524,3.788-3.793c0.266-0.268,0.528-0.549,0.74-0.86c1.113-1.632,1.359-3.359,0.488-5.178
		c-0.861-1.797-3.01-2.87-4.973-2.527c-1.195,0.209-2.203,0.752-3.054,1.604c-1.134,1.135-2.269,2.268-3.403,3.403
		c-0.046,0.046-0.09,0.096-0.137,0.147C718.739,89.139,719.776,89.306,720.786,89.874z"/>
	<path display="inline" d="M222.52,369.427c25.396,14.048,51.199,18.494,78.769,11.877c-0.73,0.809-1.621,1.889-2.606,2.874
		c-28.496,28.508-57.017,56.991-85.501,85.511c-20.482,20.508-44.602,34.202-73.329,39.276
		C77.508,519.977,19.043,481.788,4.315,419.834c-7.57-31.844-1.956-62.241,14.611-90.128c6.866-11.557,15.598-22.337,24.997-31.995
		c30.805-31.651,62.414-62.517,93.503-93.894c22.232-22.438,48.432-37.121,79.951-40.969c37.818-4.616,71.172,5.643,98.82,32.314
		c12.793,12.341,12.945,32.011,1.015,44.943c-11.287,12.235-31.443,14.244-43.558,2.334c-25.237-24.809-64.064-20.338-88.885,4.71
		c-32.391,32.687-65.219,64.943-97.433,97.803c-6.345,6.473-11.881,14.295-15.852,22.439c-14.055,28.827-3.472,61.165,24.273,74.107
		c21.953,10.24,42.582,5.218,61.655-8.189c4.227-2.972,8.002-6.662,11.681-10.327C187.053,405.093,204.911,387.099,222.52,369.427z"
		/>
	<path display="inline" d="M289.421,142.773c-25.062-14.089-50.802-18.223-78.5-12.16c1.186-1.27,2.262-2.494,3.411-3.643
		c28.144-28.148,56.306-56.279,84.443-84.434c21.132-21.145,46.132-34.614,75.787-39.805
		c48.704-8.525,102.044,18.099,123.404,62.693c21.61,45.117,15.512,87.98-12.102,128.475c-5.256,7.708-11.757,14.687-18.351,21.342
		c-31.207,31.496-62.685,62.722-93.987,94.125c-19.709,19.772-42.797,33.489-70.396,38.574
		c-39.954,7.361-75.566-1.678-105.821-29.505c-13.707-12.607-15.016-31.814-3.117-45.571c11.441-13.229,31.41-14.827,45.053-2.588
		c14.677,13.167,31.196,18.568,50.541,15.071c14.681-2.654,26.958-9.862,37.426-20.362c14.822-14.868,29.685-29.695,44.53-44.54
		c17.695-17.695,35.391-35.39,53.084-53.088c12.399-12.402,20.707-26.979,21.658-44.728c2.204-41.141-36.743-68.217-75.625-52.861
		c-10.326,4.078-19.068,10.455-26.855,18.28C325.766,106.38,307.486,124.667,289.421,142.773z"/>
</g>
<g display="none">
	<path fill="#FFFFFF" d="M709.042,104.841c0-6.931,0-13.862,0-20.797c6.929,0,13.859,0,20.794,0c0,6.93,0,13.864,0,20.797
		C722.905,104.841,715.973,104.841,709.042,104.841z M719.442,89.104c-0.514-0.398-1.021-0.839-1.575-1.211
		c-1.708-1.148-3.859-0.838-5.24,0.124c-1.436,0.999-1.987,2.442-1.972,4.14c0.013,1.48,0.601,2.741,1.5,3.88
		c0.705,0.892,1.543,1.65,2.406,2.382c1.455,1.234,2.988,2.378,4.257,3.821c0.362,0.411,0.906,0.371,1.283-0.034
		c0.207-0.223,0.397-0.466,0.624-0.667c0.94-0.837,1.881-1.672,2.84-2.487c1.099-0.934,2.219-1.843,3.129-2.975
		c1.148-1.429,1.736-3.028,1.474-4.881c-0.128-0.904-0.471-1.717-1.061-2.419c-1.337-1.591-4.113-2.242-6.139-0.856
		C720.43,88.288,719.935,88.719,719.442,89.104z"/>
	<path display="inline" d="M255.986,89.471c14.284-11.156,28.665-23.678,44.299-34.369c58.81-40.216,139.363-21.337,178.149,24.841
		c17.126,20.39,27.081,43.965,30.782,70.206c7.585,53.782-9.455,100.174-42.779,141.641c-26.401,32.853-58.891,59.25-90.793,86.341
		c-27.831,23.634-55.141,47.887-82.417,72.164c-6.571,5.849-12.084,12.885-18.101,19.358c-10.945,11.774-26.743,12.939-37.239,0.999
		c-36.817-41.881-81.307-75.087-123.522-110.882c-25.048-21.239-49.371-43.235-69.82-69.121
		C18.448,257.611,1.388,220.994,1.009,178.06c-0.435-49.271,15.539-91.13,57.22-120.133c40.097-27.9,102.512-36.909,152.068-3.587
		C226.347,65.133,241.062,77.912,255.986,89.471z M254.057,423.05c1.213-0.124,2.426-0.248,3.64-0.372
		c6.358-6.956,12.103-14.622,19.182-20.744c30.156-26.079,60.75-51.651,91.101-77.506c26.952-22.959,53.226-46.557,73.258-76.217
		c18.652-27.616,26.642-57.559,22.51-90.945c-9.151-73.924-90.133-92.647-131.817-67.71c-21.769,13.023-39.946,29.64-55.817,49.135
		c-12.376,15.203-27.827,14.897-40.663-0.02c-8.691-10.1-17.647-20.134-27.566-28.984c-23.477-20.948-49.608-35.053-82.858-29.373
		c-31.947,5.458-57.028,20.42-69.625,51.253c-14.971,36.644-10.394,72.394,8.862,106.341c15.707,27.69,37.801,50.138,61.614,70.79
		c36.204,31.398,73.032,62.076,109.273,93.432C242.206,408.234,247.793,416.033,254.057,423.05z"/>
	<path display="inline" stroke="#000000" d="M257.696,422.678c-1.213,0.124-2.426,0.248-3.64,0.372
		c-6.264-7.017-11.851-14.816-18.905-20.919c-36.242-31.355-73.069-62.034-109.273-93.432c-23.813-20.652-45.908-43.1-61.614-70.79
		c-19.256-33.947-23.834-69.697-8.862-106.341c12.597-30.833,37.678-45.796,69.625-51.253c33.25-5.68,59.381,8.425,82.858,29.373
		c9.919,8.851,18.875,18.884,27.566,28.984c20.55-14.838,10.287,22.222,22.663,7.02"/>
</g>
<g display="none">
	<path fill="#FFFFFF" d="M729.841,104.84c-6.931,0-13.862,0-20.797,0c0-6.928,0-13.858,0-20.793c6.93,0,13.863,0,20.797,0
		C729.841,90.976,729.841,97.907,729.841,104.84z M719.408,89.168c-0.088-0.094-0.181-0.2-0.282-0.298
		c-0.107-0.104-0.218-0.203-0.332-0.299c-1.165-0.986-2.45-1.602-4.033-1.359c-1.271,0.194-2.357,0.719-3.13,1.766
		c-1.094,1.483-1.21,3.131-0.696,4.847c0.317,1.057,0.943,1.941,1.677,2.75c0.89,0.981,1.912,1.818,2.93,2.658
		c1.107,0.913,2.221,1.819,3.173,2.902c0.463,0.527,0.967,0.508,1.452,0.002c0.538-0.561,1.083-1.12,1.667-1.633
		c1.017-0.893,2.076-1.739,3.097-2.627c0.88-0.765,1.702-1.591,2.323-2.591c0.982-1.581,1.272-3.264,0.67-5.048
		c-0.801-2.37-3.207-3.355-5.302-3.002c-0.796,0.134-1.49,0.522-2.125,1.008C720.13,88.527,719.788,88.845,719.408,89.168z"/>
	<path display="inline" d="M255.064,91.574c11.007-9.383,20.92-18.587,31.608-26.777c18.38-14.084,38.519-25.328,61.577-29.209
		c60.726-10.22,130.467,18.333,153.674,87.012c17.465,51.687,9.045,100.475-19.414,146.298
		c-18.003,28.988-41.808,52.924-67.328,75.103c-29.609,25.734-60.295,50.235-89.762,76.127
		c-16.909,14.858-32.71,31.048-48.301,47.317c-14.067,14.679-28.66,15.211-42.081-0.054c-27.599-31.391-59.887-57.633-91.967-84.107
		c-29.513-24.356-59.123-48.613-84.925-77.039c-21.279-23.442-39.428-49.058-48.612-79.695
		C-5.378,176.81-2.004,129.05,29.695,86.076c22.386-30.348,53.886-45.564,90.71-51.197c45.881-7.018,83.135,10.835,116.886,39.399
		c3.293,2.787,6.524,5.662,9.614,8.671C249.823,85.792,252.517,88.864,255.064,91.574z"/>
</g>
</svg>
