<?xml version="1.0" encoding="utf-8"?>
<!-- Generator: Adobe Illustrator 17.0.0, SVG Export Plug-In . SVG Version: 6.00 Build 0)  -->
<!DOCTYPE svg PUBLIC "-//W3C//DTD SVG 1.1//EN" "http://www.w3.org/Graphics/SVG/1.1/DTD/svg11.dtd">
<svg version="1.1" id="Layer_1" xmlns="http://www.w3.org/2000/svg" xmlns:xlink="http://www.w3.org/1999/xlink" x="0px" y="0px"
	 width="512px" height="512px" viewBox="0 0 512 512" enable-background="new 0 0 512 512" xml:space="preserve">
<g>
	<line fill="none" stroke="#B35047" x1="32" y1="0" x2="32" y2="512"/>
	<line fill="none" stroke="#B35047" x1="64" y1="0" x2="64" y2="512"/>
	<line fill="none" stroke="#B35047" x1="96" y1="0" x2="96" y2="512"/>
	<line fill="none" stroke="#B35047" x1="128" y1="0" x2="128" y2="512"/>
	<line fill="none" stroke="#B35047" x1="160" y1="0" x2="160" y2="512"/>
	<line fill="none" stroke="#B35047" x1="192" y1="0" x2="192" y2="512"/>
	<line fill="none" stroke="#B35047" x1="224" y1="0" x2="224" y2="512"/>
	<line fill="none" stroke="#B35047" x1="256" y1="0" x2="256" y2="512"/>
	<line fill="none" stroke="#B35047" x1="288" y1="0" x2="288" y2="512"/>
	<line fill="none" stroke="#B35047" x1="320" y1="0" x2="320" y2="512"/>
	<line fill="none" stroke="#B35047" x1="352" y1="0" x2="352" y2="512"/>
	<line fill="none" stroke="#B35047" x1="384" y1="0" x2="384" y2="512"/>
	<line fill="none" stroke="#B35047" x1="416" y1="0" x2="416" y2="512"/>
	<line fill="none" stroke="#B35047" x1="448" y1="0" x2="448" y2="512"/>
	<line fill="none" stroke="#B35047" x1="480" y1="0" x2="480" y2="512"/>
	<line fill="none" stroke="#B35047" x1="0" y1="32" x2="512" y2="32"/>
	<line fill="none" stroke="#B35047" x1="0" y1="64" x2="512" y2="64"/>
	<line fill="none" stroke="#B35047" x1="0" y1="96" x2="512" y2="96"/>
	<line fill="none" stroke="#B35047" x1="0" y1="128" x2="512" y2="128"/>
	<line fill="none" stroke="#B35047" x1="0" y1="160" x2="512" y2="160"/>
	<line fill="none" stroke="#B35047" x1="0" y1="192" x2="512" y2="192"/>
	<line fill="none" stroke="#B35047" x1="0" y1="224" x2="512" y2="224"/>
	<line fill="none" stroke="#B35047" x1="0" y1="256" x2="512" y2="256"/>
	<line fill="none" stroke="#B35047" x1="0" y1="288" x2="512" y2="288"/>
	<line fill="none" stroke="#B35047" x1="0" y1="320" x2="512" y2="320"/>
	<line fill="none" stroke="#B35047" x1="0" y1="352" x2="512" y2="352"/>
	<line fill="none" stroke="#B35047" x1="0" y1="384" x2="512" y2="384"/>
	<line fill="none" stroke="#B35047" x1="0" y1="416" x2="512" y2="416"/>
	<line fill="none" stroke="#B35047" x1="0" y1="448" x2="512" y2="448"/>
	<line fill="none" stroke="#B35047" x1="0" y1="480" x2="512" y2="480"/>
	<rect x="0" fill="none" stroke="#B35047" width="512" height="512"/>
</g>
<image display="none" overflow="visible" width="512" height="512" xlink:href="../../../Knowledge/Icon/[+++++] (Full) Windows 8 Icons [icons8]/Ecommerce/alarm_clock/alarm_clock-512.png"  transform="matrix(0.0406 0 0 0.0406 575 39)">
</image>
<image display="none" overflow="visible" width="512" height="512" xlink:href="../../../Knowledge/Icon/[+++++] (Full) Windows 8 Icons [icons8]/Ecommerce/new/new-512_.png"  transform="matrix(0.0406 0 0 0.0406 575 39)">
</image>
<image display="none" overflow="visible" width="512" height="512" xlink:href="../../../Knowledge/Icon/[+++++] (Full) Windows 8 Icons [icons8]/Ecommerce/qr_code/qr_code-512.png"  transform="matrix(0.0406 0 0 0.0406 575 39)">
</image>
<image display="none" overflow="visible" width="512" height="512" xlink:href="../../../Knowledge/Icon/[+++++] (Full) Windows 8 Icons [icons8]/Ecommerce/tag/tag-512.png"  transform="matrix(0.0406 0 0 0.0406 575 39)">
</image>
<image display="none" overflow="visible" width="512" height="512" xlink:href="../../../Knowledge/Icon/[+++++] (Full) Windows 8 Icons [icons8]/Ecommerce/shoping_basket/shoping_basket-512.png"  transform="matrix(0.0406 0 0 0.0406 575 39)">
</image>
<image display="none" overflow="visible" width="512" height="512" xlink:href="../../../Knowledge/Icon/[+++++] (Full) Windows 8 Icons [icons8]/Ecommerce/shoping_bag/shoping_bag-512.png"  transform="matrix(0.0406 0 0 0.0406 575 39)">
</image>
<image display="none" overflow="visible" width="512" height="512" xlink:href="../../../Knowledge/Icon/[+++++] (Full) Windows 8 Icons [icons8]/Ecommerce/sell/sell-512.png"  transform="matrix(0.0406 0 0 0.0406 575 39)">
</image>
<image display="none" overflow="visible" width="512" height="512" xlink:href="../../../Knowledge/Icon/[+++++] (Full) Windows 8 Icons [icons8]/Ecommerce/sale/sale-512.png"  transform="matrix(0.0406 0 0 0.0406 575 39)">
</image>
<image display="none" overflow="visible" width="512" height="512" xlink:href="../../../Knowledge/Icon/[+++++] (Full) Windows 8 Icons [icons8]/Ecommerce/price_tag/price_tag-512.png"  transform="matrix(0.0406 0 0 0.0406 575 39)">
</image>
<image display="none" overflow="visible" width="512" height="512" xlink:href="../../../Knowledge/Icon/[+++++] (Full) Windows 8 Icons [icons8]/Ecommerce/one_free/one_free-512.png"  transform="matrix(0.0406 0 0 0.0406 575 39)">
</image>
<g>
	<path display="none" fill="#FFFFFF" d="M595.841,49.562c0,3.426,0,6.852,0,10.278c-6.933,0-13.867,0-20.8,0
		c0-3.426,0-6.852,0-10.278c0.167,0.532,0.552,0.7,1.078,0.678c0.493-0.02,0.987-0.001,1.481-0.005c0.256-0.002,0.515,0,0.768-0.03
		c0.381-0.045,0.652-0.375,0.652-0.756c0-0.4-0.268-0.76-0.652-0.773c-0.85-0.029-1.702-0.023-2.554-0.019
		c-0.273,0.001-0.492,0.138-0.64,0.37c-0.057,0.09-0.09,0.194-0.134,0.291c0-3.426,0-6.852,0-10.278c3.426,0,6.852,0,10.278,0
		c-0.531,0.167-0.696,0.552-0.679,1.078c0.02,0.642,0.004,1.285,0.006,1.927c0,0.101,0.01,0.202,0.025,0.302
		c0.062,0.408,0.376,0.676,0.781,0.672c0.403-0.004,0.743-0.277,0.758-0.692c0.029-0.837,0.019-1.676,0.014-2.513
		c-0.002-0.273-0.138-0.493-0.37-0.64c-0.089-0.057-0.194-0.09-0.291-0.134c3.426,0,6.852,0,10.278,0c0,3.426,0,6.852,0,10.278
		c-0.167-0.532-0.552-0.7-1.078-0.678c-0.493,0.02-0.987,0.001-1.481,0.005c-0.256,0.002-0.515,0-0.768,0.03
		c-0.381,0.045-0.652,0.375-0.652,0.756c0,0.4,0.268,0.76,0.652,0.773c0.85,0.029,1.702,0.023,2.553,0.019
		c0.273-0.001,0.493-0.138,0.64-0.37C595.763,49.764,595.797,49.66,595.841,49.562z M585.434,55.824c0.555,0,1.11,0.001,1.665,0
		c0.508-0.001,0.718-0.204,0.712-0.715c-0.005-0.404,0.087-0.779,0.291-1.123c0.214-0.36,0.452-0.706,0.663-1.068
		c0.316-0.542,0.667-1.072,0.915-1.644c0.543-1.249,0.549-2.523-0.005-3.779c-0.834-1.888-2.865-3.046-4.975-2.682
		c-1.707,0.294-2.906,1.262-3.564,2.859c-0.557,1.352-0.431,2.696,0.241,3.975c0.37,0.705,0.819,1.368,1.239,2.046
		c0.284,0.457,0.473,0.933,0.456,1.487c-0.013,0.429,0.223,0.642,0.656,0.645C584.297,55.826,584.866,55.824,585.434,55.824z
		 M585.442,56.643c-0.575,0-1.15-0.003-1.725,0.001c-0.389,0.003-0.654,0.221-0.665,0.564c-0.013,0.419-0.012,0.839-0.001,1.258
		c0.009,0.321,0.254,0.547,0.579,0.561c0.081,0.004,0.164,0.011,0.243,0c0.166-0.023,0.266,0.043,0.369,0.176
		c0.601,0.78,1.751,0.808,2.352,0.048c0.141-0.178,0.279-0.252,0.489-0.222c0.02,0.003,0.041,0,0.061,0
		c0.463-0.003,0.686-0.224,0.688-0.682c0.001-0.331,0.001-0.663,0-0.994c-0.001-0.482-0.225-0.708-0.707-0.71
		C586.565,56.642,586.004,56.643,585.442,56.643z M581.14,44.25c-0.044-0.091-0.095-0.302-0.224-0.438
		c-0.554-0.583-1.121-1.156-1.704-1.71c-0.361-0.344-0.836-0.308-1.151,0.041c-0.271,0.3-0.261,0.764,0.05,1.083
		c0.542,0.558,1.097,1.103,1.648,1.652c0.043,0.043,0.094,0.077,0.144,0.111c0.264,0.179,0.541,0.198,0.821,0.046
		C580.99,44.892,581.121,44.661,581.14,44.25z M592.22,41.873c-0.209-0.009-0.404,0.077-0.564,0.234
		c-0.558,0.552-1.115,1.104-1.664,1.665c-0.235,0.24-0.321,0.536-0.192,0.858c0.214,0.53,0.845,0.686,1.267,0.29
		c0.587-0.55,1.144-1.133,1.712-1.702c0.028-0.028,0.049-0.065,0.072-0.098c0.181-0.252,0.209-0.521,0.079-0.801
		C592.797,42.028,592.56,41.887,592.22,41.873z M578.648,57.007c0.23,0.007,0.424-0.081,0.583-0.239
		c0.552-0.548,1.105-1.095,1.649-1.65c0.24-0.245,0.332-0.546,0.195-0.875c-0.232-0.557-0.883-0.666-1.334-0.223
		c-0.536,0.526-1.063,1.06-1.593,1.592c-0.043,0.043-0.08,0.092-0.116,0.141c-0.19,0.256-0.218,0.531-0.081,0.818
		C578.091,56.86,578.328,57,578.648,57.007z M593.008,56.249c0.017-0.009,0.034-0.019,0.051-0.028
		c-0.089-0.182-0.141-0.399-0.274-0.54c-0.548-0.579-1.112-1.146-1.689-1.697c-0.365-0.349-0.85-0.311-1.166,0.05
		c-0.277,0.317-0.242,0.771,0.095,1.111c0.523,0.529,1.051,1.053,1.578,1.578c0.052,0.052,0.112,0.098,0.172,0.141
		c0.254,0.178,0.523,0.197,0.802,0.062C592.859,56.789,592.992,56.556,593.008,56.249z"/>
	<path d="M258.988,1.422c2.389,1.08,4.942,1.901,7.135,3.29c5.7,3.609,9.033,8.982,9.076,15.686
		c0.134,20.543,0.372,41.105-0.344,61.627c-0.355,10.159-8.704,16.849-18.581,16.958c-9.953,0.11-17.652-6.463-19.163-16.47
		c-0.369-2.445-0.597-4.937-0.605-7.408c-0.053-15.754,0.351-31.519-0.145-47.257c-0.406-12.89,3.624-22.321,16.65-26.425
		C255.004,1.422,256.996,1.422,258.988,1.422z"/>
	<path d="M1,253.434c1.081-2.391,1.904-4.946,3.294-7.141c3.609-5.699,8.984-9.04,15.686-9.07
		c20.871-0.094,41.758-0.255,62.609,0.464c9.402,0.324,15.968,9.149,15.978,18.956c0.009,9.336-6.648,17.424-15.986,18.539
		c-6.221,0.742-12.553,0.679-18.837,0.732c-12.104,0.101-24.224-0.352-36.309,0.134C14.547,276.564,5.103,272.447,1,259.41
		C1,257.418,1,255.426,1,253.434z"/>
	<path d="M511,259.41c-1.081,2.391-1.904,4.946-3.294,7.141c-3.609,5.699-8.984,9.04-15.686,9.07
		c-20.871,0.094-41.758,0.255-62.609-0.464c-9.402-0.324-15.968-9.149-15.978-18.956c-0.009-9.336,6.648-17.424,15.986-18.539
		c6.221-0.742,12.553-0.679,18.837-0.732c12.104-0.102,24.224,0.352,36.309-0.134c12.889-0.518,22.332,3.599,26.435,16.636
		C511,255.426,511,257.418,511,259.41z"/>
	<path d="M255.848,412.937c-13.939-0.001-27.878,0.054-41.816-0.019c-10.605-0.056-16.396-5.283-16.077-15.807
		c0.411-13.576-4.231-25.25-11.188-36.456c-10.313-16.613-21.311-32.887-30.389-50.161c-16.473-31.345-19.561-64.31-5.903-97.459
		c16.128-39.144,45.534-62.876,87.386-70.096c51.737-8.926,101.529,19.477,121.982,65.764c13.602,30.782,13.437,62.027,0.13,92.654
		c-6.101,14.042-14.695,27.023-22.445,40.318c-5.173,8.873-11.014,17.355-16.26,26.188c-5.01,8.436-7.259,17.637-7.145,27.539
		c0.145,12.53-5.005,17.506-17.453,17.53C283.062,412.959,269.455,412.939,255.848,412.937z M193.474,293.561
		c2.488-64.282,36.279-98.294,99.305-104.53c-25.351-15.944-64.875-14.043-90.734,12.319
		C177.285,226.591,173.688,265.815,193.474,293.561z"/>
	<path d="M256.039,433.028c13.764-0.001,27.527-0.04,41.291,0.01c11.825,0.043,17.311,5.59,17.337,17.409
		c0.018,8.125,0.026,16.251-0.003,24.376c-0.04,11.223-5.52,16.637-16.866,16.72c-0.497,0.004-1.003,0.061-1.491-0.008
		c-5.171-0.73-8.557,1.092-12.001,5.449c-14.74,18.647-42.929,17.966-57.668-1.165c-2.511-3.259-4.973-4.898-9.039-4.324
		c-1.949,0.275-3.975,0.087-5.962-0.001c-7.972-0.353-13.98-5.886-14.199-13.766c-0.285-10.273-0.313-20.568,0.018-30.838
		c0.271-8.428,6.762-13.767,16.297-13.835C227.848,432.954,241.944,433.029,256.039,433.028z"/>
	<path d="M150.549,129.156c-0.47,10.077-3.687,15.746-10.185,19.26c-6.867,3.713-13.662,3.256-20.14-1.136
		c-1.231-0.834-2.488-1.685-3.535-2.728c-13.511-13.461-27.122-26.827-40.418-40.498c-7.613-7.828-7.865-19.201-1.219-26.558
		c7.747-8.575,19.385-9.44,28.233-1.016c14.289,13.603,28.194,27.629,41.779,41.935C148.23,121.749,149.457,126.925,150.549,129.156
		z"/>
	<path d="M422.222,70.864c8.329,0.36,14.162,3.795,17.474,10.951c3.179,6.87,2.502,13.471-1.947,19.641
		c-0.581,0.807-1.082,1.697-1.777,2.392c-13.947,13.961-27.604,28.234-41.989,41.73c-10.346,9.708-25.838,5.882-31.074-7.106
		c-3.18-7.886-1.062-15.148,4.7-21.035c13.457-13.747,27.117-27.296,40.794-40.826C412.309,72.749,417.105,70.637,422.222,70.864z"
		/>
	<path d="M89.44,441.953c-7.824-0.185-13.655-3.607-17.059-10.717c-3.367-7.031-2.668-13.768,1.979-20.049
		c0.884-1.195,1.792-2.396,2.839-3.445c12.996-13.036,25.932-26.134,39.063-39.032c11.058-10.862,27.013-8.205,32.705,5.456
		c3.366,8.078,1.108,15.44-4.784,21.453c-13.346,13.622-26.902,27.038-40.444,40.466C99.83,439.96,95.081,442.113,89.44,441.953z"/>
	<path d="M441.539,423.349c-0.372,7.526-3.643,13.257-10.57,16.621c-6.822,3.312-13.421,2.846-19.656-1.525
		c-1.486-1.042-2.939-2.176-4.222-3.454c-12.926-12.871-25.866-25.729-38.693-38.7c-8.265-8.357-9.115-19.485-2.32-27.251
		c7.745-8.852,19.642-9.763,28.588-1.215c14.144,13.514,27.958,27.396,41.403,41.603c3.262,3.447,4.54,8.772,6.73,13.233
		C442.38,422.89,441.96,423.12,441.539,423.349z"/>
	<path display="none" fill="#FFFFFF" d="M582.891,50.955c-0.807-1.132-0.66-2.731,0.35-3.761c1.055-1.075,2.667-1.153,3.701-0.502
		C584.37,46.946,582.992,48.334,582.891,50.955z"/>
</g>
<g display="none">
	<path fill="#FFFFFF" d="M595.841,51.228c0,2.871,0,5.742,0,8.612c-6.933,0-13.867,0-20.8,0c0-2.803,0-5.606,0-8.409
		c0.369,0.128,0.737,0.256,1.101,0.383c0.019-0.021,0.029-0.03,0.036-0.041c0.011-0.017,0.021-0.035,0.029-0.054
		c0.302-0.725,0.832-1.189,1.596-1.371c1.087-0.258,2.169,0.21,2.555,1.286c0.027,0.075,0.107,0.154,0.182,0.186
		c0.563,0.235,0.945,0.636,1.164,1.204c0.029,0.076,0.103,0.159,0.177,0.19c0.598,0.252,0.992,0.685,1.206,1.295
		c0.027,0.076,0.101,0.161,0.174,0.191c0.912,0.372,1.416,1.204,1.32,2.196c-0.005,0.054-0.001,0.128,0.032,0.164
		c0.158,0.176,0.316,0.355,0.494,0.51c0.397,0.345,0.999,0.268,1.309-0.154c0.25-0.341,0.233-0.816-0.064-1.14
		c-0.338-0.369-0.693-0.723-1.038-1.086c-0.06-0.063-0.123-0.13-0.16-0.207c-0.025-0.05-0.006-0.121-0.007-0.183
		c0.059,0.008,0.13-0.001,0.176,0.027c0.085,0.053,0.161,0.124,0.232,0.196c0.443,0.447,0.886,0.894,1.326,1.345
		c0.278,0.285,0.667,0.374,1.023,0.221c0.349-0.15,0.554-0.48,0.544-0.872c-0.007-0.26-0.127-0.462-0.301-0.644
		c-0.389-0.405-0.778-0.811-1.159-1.224c-0.098-0.106-0.225-0.214-0.18-0.444c0.105,0.068,0.196,0.109,0.262,0.173
		c0.515,0.5,1.028,1.001,1.535,1.508c0.323,0.323,0.738,0.421,1.109,0.241c0.585-0.282,0.684-1.024,0.206-1.521
		c-0.399-0.415-0.799-0.828-1.186-1.254c-0.074-0.081-0.153-0.284-0.121-0.313c0.148-0.135,0.238,0.043,0.323,0.124
		c0.422,0.401,0.834,0.812,1.247,1.223c0.403,0.4,0.974,0.419,1.341,0.043c0.361-0.37,0.338-0.942-0.049-1.327
		c-1.28-1.276-2.559-2.554-3.838-3.831c-0.5-0.499-1.006-0.593-1.643-0.301c-0.658,0.301-1.311,0.611-1.975,0.899
		c-0.258,0.112-0.533,0.207-0.809,0.252c-0.83,0.135-1.772-0.491-2.084-1.357c-0.334-0.929,0.003-1.905,0.875-2.472
		c0.476-0.309,0.967-0.597,1.457-0.883c0.408-0.238,0.824-0.46,1.263-0.704c-0.108-0.092-0.191-0.18-0.289-0.246
		c-0.775-0.522-1.604-0.601-2.476-0.286c-1.017,0.367-1.957,0.888-2.867,1.464c-0.447,0.283-0.939,0.411-1.435,0.269
		c-0.882-0.252-1.744-0.572-2.615-0.863c0-1.732,0-3.464,0-5.198c6.933,0,13.867,0,20.8,0c0,1.978,0,3.954,0,5.929
		c-0.06,0.006-0.121,0.007-0.18,0.019c-0.984,0.214-1.967,0.43-2.951,0.644c-0.438,0.095-0.826,0.001-1.17-0.293
		c-0.7-0.597-1.405-1.189-2.108-1.784c-0.626-0.531-1.286-0.619-1.991-0.159c-0.006,0.004-0.012,0.007-0.018,0.01
		c-1.649,0.929-3.299,1.857-4.948,2.788c-0.563,0.318-0.766,1.018-0.465,1.582c0.308,0.579,0.998,0.799,1.584,0.504
		c0.241-0.122,0.479-0.251,0.72-0.374c0.789-0.402,1.569-0.824,2.371-1.196c0.525-0.244,1.025-0.143,1.45,0.279
		c1.399,1.387,2.805,2.766,4.204,4.153c0.372,0.369,0.815,0.545,1.326,0.469C594.394,51.508,595.116,51.359,595.841,51.228z
		 M581.224,56.421c-0.086,0.215-0.169,0.393-0.227,0.579c-0.141,0.45,0.065,0.865,0.502,1.034c0.751,0.291,1.854-0.272,2.062-1.052
		c0.195-0.733-0.282-1.401-1.02-1.421c-0.139-0.004-0.278,0.025-0.439,0.041c0.125-0.429,0.115-0.827-0.179-1.175
		c-0.3-0.355-0.705-0.385-1.144-0.344c0.07-0.422,0.053-0.807-0.256-1.115c-0.304-0.303-0.687-0.335-1.099-0.277
		c0.014-0.083,0.022-0.135,0.031-0.188c0.119-0.739-0.488-1.352-1.232-1.244c-0.64,0.092-1.198,0.675-1.352,1.347
		c-0.155,0.68,0.309,1.449,1.235,1.125c0.096-0.034,0.198-0.051,0.327-0.084c-0.065,0.185-0.119,0.331-0.168,0.477
		c-0.21,0.631,0.29,1.195,0.944,1.06c0.182-0.037,0.361-0.089,0.573-0.142c-0.064,0.193-0.121,0.357-0.174,0.522
		c-0.11,0.343-0.011,0.627,0.254,0.857c0.239,0.207,0.524,0.197,0.809,0.145C580.845,56.533,581.018,56.476,581.224,56.421z"/>
	<path display="inline" d="M1,99.901c21.344,7.146,42.49,14.985,64.11,21.167c12.153,3.475,24.216,0.351,35.186-6.593
		c22.309-14.121,45.343-26.896,70.284-35.895c21.397-7.72,41.709-5.795,60.715,7.007c2.402,1.618,4.449,3.761,7.087,6.027
		c-10.743,5.969-20.964,11.419-30.958,17.258c-12.025,7.025-24.057,14.073-35.729,21.661c-21.368,13.89-29.648,37.837-21.449,60.61
		c7.646,21.238,30.743,36.588,51.098,33.28c6.78-1.102,13.51-3.442,19.841-6.189c16.264-7.059,32.286-14.676,48.416-22.046
		c15.618-7.136,28.022-4.842,40.276,7.393c31.363,31.314,62.713,62.64,94.102,93.928c9.483,9.452,10.052,23.455,1.192,32.537
		c-9.002,9.229-23.011,8.745-32.884-1.055c-10.131-10.055-20.234-20.143-30.577-29.976c-2.078-1.976-4.294-6.342-7.921-3.03
		c-0.77,0.703,1.167,5.686,2.978,7.677c9.489,10.432,19.299,20.574,29.075,30.742c11.707,12.176,9.271,30.378-5.063,37.294
		c-9.102,4.392-19.258,2.011-27.186-5.921c-12.434-12.441-25.026-24.725-37.648-36.975c-1.633-1.585-3.848-2.572-6.429-4.248
		c-1.095,5.648,2.018,8.301,4.41,10.898c9.331,10.128,18.871,20.065,28.408,30.002c4.277,4.457,7.223,9.428,7.383,15.795
		c0.242,9.606-4.78,17.713-13.348,21.381c-8.724,3.735-18.267,1.569-25.079-5.427c-10.767-11.059-21.63-22.025-32.503-32.981
		c-1.747-1.76-3.609-3.494-5.696-4.795c-1.136-0.708-2.856-0.479-4.312-0.673c0.019,1.515-0.435,3.261,0.167,4.491
		c0.924,1.888,2.455,3.532,3.934,5.085c8.47,8.892,17.168,17.572,25.46,26.625c7.268,7.937,7.697,19.594,1.564,27.951
		c-7.59,10.341-22.341,12.227-32.085,3.776c-4.37-3.79-8.245-8.176-12.12-12.494c-0.791-0.881-0.904-2.697-0.776-4.028
		c2.336-24.32-9.999-44.72-32.372-53.837c-1.791-0.73-3.613-2.816-4.267-4.678c-5.248-14.944-14.913-25.559-29.57-31.744
		c-1.806-0.762-3.613-2.794-4.331-4.657c-5.366-13.919-14.737-23.752-28.539-29.52c-1.835-0.767-3.808-2.707-4.47-4.551
		c-9.464-26.373-35.995-37.864-62.655-31.526c-18.742,4.456-31.729,15.844-39.141,33.612c-0.191,0.457-0.435,0.897-0.698,1.318
		c-0.17,0.272-0.42,0.493-0.878,1.015c-8.917-3.099-17.958-6.241-26.999-9.383C1,217.441,1,158.671,1,99.901z"/>
	<path display="inline" d="M511,271.23c-17.772,3.216-35.481,6.855-53.337,9.505c-12.52,1.858-23.384-2.44-32.514-11.498
		c-34.289-34.016-68.77-67.839-103.075-101.839c-10.436-10.343-22.687-12.815-35.562-6.842c-19.68,9.13-38.8,19.468-58.143,29.323
		c-5.905,3.009-11.727,6.182-17.647,9.161c-14.37,7.232-31.283,1.818-38.846-12.368c-7.372-13.83-2.396-30.983,11.412-38.779
		c40.419-22.822,80.876-45.577,121.319-68.358c0.144-0.081,0.294-0.155,0.432-0.246c17.277-11.293,33.465-9.118,48.817,3.895
		c17.216,14.593,34.508,29.096,51.676,43.745c8.433,7.195,17.96,9.517,28.693,7.178c24.121-5.257,48.234-10.554,72.358-15.8
		c1.439-0.313,2.943-0.325,4.416-0.477C511,168.964,511,220.097,511,271.23z"/>
	<path display="inline" d="M152.617,398.557c-5.068,1.341-9.299,2.748-13.642,3.546c-6.985,1.283-13.981,1.513-19.829-3.558
		c-6.494-5.631-8.914-12.603-6.222-21.002c1.296-4.042,2.678-8.057,4.255-12.787c-5.183,1.301-9.576,2.575-14.041,3.493
		c-16.024,3.297-28.284-10.51-23.137-25.993c1.197-3.6,2.513-7.16,4.115-11.706c-3.143,0.795-5.645,1.228-8.009,2.057
		c-22.701,7.96-34.091-10.903-30.281-27.579c3.769-16.498,17.467-30.783,33.154-33.04c18.248-2.625,33.111,12.389,30.205,30.513
		c-0.207,1.29-0.422,2.579-0.754,4.609c10.11-1.402,19.495-0.615,26.947,6.803c7.588,7.552,7.998,16.972,6.284,27.329
		c10.772-1.017,20.711-0.279,28.059,8.423c7.217,8.547,7.468,18.303,4.395,28.814c3.96-0.387,7.376-1.082,10.773-0.994
		c18.106,0.469,29.802,16.855,25.013,34.831c-5.095,19.124-32.151,32.927-50.562,25.794c-10.706-4.148-15.757-14.315-12.297-25.347
		C148.472,408.204,150.521,403.838,152.617,398.557z"/>
</g>
<g display="none">
	<path fill="#FFFFFF" d="M578.088,59.841c-1.015,0-2.031,0-3.046,0c0-6.931,0-13.862,0-20.796c6.928,0,13.857,0,20.793,0
		c0,6.93,0,13.863,0,20.796c-1.01,0-2.025,0-3.04,0c0.384-0.148,0.642-0.397,0.642-0.836c0.002-2.376,0.002-4.752-0.001-7.128
		c-0.001-0.394-0.23-0.706-0.576-0.792c-0.136-0.034-0.282-0.037-0.423-0.038c-1.922-0.002-3.844-0.002-5.767-0.002
		c-2.741,0-5.482-0.001-8.224,0.002c-0.148,0-0.301,0.006-0.442,0.045c-0.365,0.102-0.559,0.413-0.559,0.865
		c-0.001,2.274,0.008,4.549-0.006,6.823C577.435,59.292,577.583,59.663,578.088,59.841z M587.045,47.049c0,0.101,0,0.182,0,0.263
		c0,0.907,0.002,1.814-0.002,2.721c-0.001,0.136,0.017,0.208,0.184,0.207c2.308-0.005,4.617-0.001,6.925-0.005
		c0.566-0.001,0.876-0.32,0.877-0.886c0.002-0.738,0.002-1.476-0.001-2.214c0-0.101-0.003-0.205-0.029-0.301
		c-0.106-0.393-0.412-0.591-0.904-0.591c-3.161,0-6.323,0-9.484,0c-2.606,0-5.212,0.006-7.819-0.004
		c-0.578-0.002-0.969,0.339-0.948,0.951c0.025,0.71,0.005,1.421,0.006,2.132c0.001,0.604,0.307,0.914,0.911,0.914
		c2.288,0.002,4.576-0.001,6.864,0.005c0.174,0,0.214-0.057,0.213-0.22c-0.007-0.907-0.003-1.814-0.003-2.721
		c0-0.079,0-0.159,0-0.25C584.911,47.049,585.964,47.049,587.045,47.049z M588.17,45.393c0.002,0.013,0.003,0.025,0.005,0.038
		c0.348,0,0.695,0.006,1.042-0.002c0.29-0.006,0.589,0.013,0.867-0.051c0.94-0.218,1.777-0.651,2.471-1.328
		c0.642-0.626,0.975-1.378,0.715-2.278c-0.309-1.071-0.99-1.88-1.916-2.482c-0.281-0.183-0.604-0.229-0.938-0.153
		c-0.392,0.09-0.664,0.346-0.906,0.647c-0.873,1.087-1.748,2.173-2.622,3.259c-0.049,0.061-0.103,0.117-0.15,0.171
		c-0.41-0.231-2.101-0.233-2.613-0.009c-0.048-0.058-0.1-0.12-0.15-0.182c-0.857-1.065-1.709-2.134-2.575-3.192
		c-0.173-0.211-0.375-0.421-0.607-0.557c-0.566-0.332-1.101-0.164-1.578,0.214c-0.563,0.446-1.022,0.989-1.356,1.626
		c-0.438,0.834-0.476,1.669,0.077,2.475c0.275,0.401,0.63,0.727,1.039,0.986c0.816,0.517,1.667,0.926,2.674,0.857
		c0.296-0.02,0.596-0.002,0.893-0.004c0.056,0,0.111-0.009,0.18-0.015c-0.482-0.275-0.953-0.524-1.403-0.807
		c-0.552-0.347-1.07-0.739-1.429-1.302c-0.318-0.498-0.286-0.933,0.102-1.372c0.063-0.071,0.126-0.142,0.196-0.205
		c0.431-0.393,0.81-0.447,1.309-0.144c0.427,0.26,0.838,0.548,1.247,0.836c0.425,0.299,0.839,0.613,1.244,0.911
		c-0.048,0.153-0.117,0.279-0.123,0.407c-0.017,0.331-0.019,0.664-0.002,0.994c0.018,0.358,0.323,0.67,0.688,0.681
		c0.595,0.018,1.191,0.017,1.786,0c0.33-0.009,0.649-0.281,0.669-0.606c0.029-0.485,0.12-0.984-0.135-1.498
		c0.859-0.589,1.718-1.187,2.589-1.767c0.202-0.135,0.454-0.203,0.7-0.122c0.508,0.168,0.86,0.518,1.011,1.026
		c0.132,0.443-0.106,0.804-0.374,1.126c-0.489,0.586-1.119,0.995-1.778,1.363C588.739,45.094,588.453,45.241,588.17,45.393z"/>
	<path display="inline" d="M75.279,511c-12.397-4.361-16.048-13.489-15.97-26.057c0.35-55.921,0.144-111.845,0.16-167.768
		c0.003-11.128,4.772-18.768,13.755-21.279c3.457-0.966,7.229-1.105,10.858-1.108c67.399-0.061,134.798-0.045,202.197-0.045
		c47.261,0,94.521-0.018,141.782,0.038c3.474,0.004,7.059,0.094,10.398,0.925c8.512,2.12,14.16,9.797,14.173,19.473
		c0.082,58.419,0.059,116.839,0.022,175.258c-0.007,10.809-6.353,16.914-15.792,20.563c-47.279,0-94.558,0-141.837,0
		c0.164-1.638,0.471-3.275,0.472-4.913c0.024-62.208,0.022-124.417,0.008-186.625c0-1.61-0.175-3.221-0.273-4.896
		c-26.345,0-52.315,0-78.611,0c0,2.091,0,3.743,0,5.395c0,62.042-0.004,124.084,0.021,186.126c0.001,1.638,0.308,3.275,0.472,4.913
		C169.837,511,122.558,511,75.279,511z"/>
	<path fill="#FFFFFF" d="M583.856,59.841c-0.007-0.067-0.019-0.133-0.019-0.2c-0.001-2.523-0.001-5.047-0.001-7.57
		c0-0.067,0-0.134,0-0.219c1.07,0,2.126,0,3.197,0c0.004,0.068,0.011,0.134,0.011,0.199c0.001,2.53,0.001,5.06,0,7.59
		c0,0.067-0.013,0.133-0.019,0.2C585.969,59.841,584.912,59.841,583.856,59.841z"/>
	<path display="inline" d="M295.519,196.492c-26.582,0-52.459,0-78.896,0c0,2.239,0,4.189,0,6.14c0,22.303-0.087,44.608,0.079,66.91
		c0.03,4.013-0.942,5.429-5.231,5.419c-56.258-0.139-112.516-0.065-168.774-0.112c-14.858-0.012-22.369-7.632-22.395-22.477
		c-0.03-17.477,0.456-34.969-0.148-52.425c-0.52-15.036,9.085-23.428,23.298-23.373c64.078,0.248,128.157,0.108,192.235,0.108
		c77.727,0,155.454-0.005,233.181,0.006c12.095,0.002,19.633,4.87,22.227,14.54c0.634,2.363,0.71,4.926,0.717,7.399
		c0.057,18.142,0.07,36.285,0.017,54.427c-0.041,13.899-7.643,21.75-21.571,21.773c-56.757,0.094-113.515,0-170.272,0.129
		c-4.111,0.009-4.534-1.76-4.52-5.094c0.096-22.303,0.049-44.607,0.049-66.91C295.519,200.961,295.519,198.974,295.519,196.492z"/>
	<path display="inline" d="M323.173,155.779c6.965-3.731,13.989-7.357,20.883-11.216c16.184-9.058,31.684-19.112,43.706-33.523
		c6.604-7.917,12.461-16.782,9.206-27.682c-3.731-12.494-12.369-21.099-24.868-25.219c-6.061-1.998-12.248-0.309-17.219,3.002
		c-21.419,14.267-42.54,28.98-63.661,43.457c6.257,12.631,4.035,24.898,3.316,36.827c-0.482,7.986-8.322,14.665-16.444,14.895
		c-14.628,0.414-29.287,0.453-43.913,0.005c-8.959-0.275-16.453-7.948-16.906-16.747c-0.418-8.131-0.352-16.314,0.056-24.446
		c0.159-3.164,1.836-6.251,3.025-10.017c-9.951-7.31-20.134-15.034-30.576-22.39c-10.057-7.085-20.146-14.176-30.65-20.558
		c-12.265-7.451-21.592-6.11-32.183,3.551c-1.715,1.565-3.28,3.307-4.821,5.049c-9.542,10.787-10.326,21.476-2.505,33.728
		c8.827,13.828,21.571,23.473,35.135,32.001c11.061,6.954,22.648,13.071,34.488,19.838c-1.686,0.142-3.053,0.351-4.421,0.357
		c-7.323,0.033-14.676-0.409-21.965,0.093c-24.768,1.705-45.696-8.36-65.754-21.06c-10.068-6.375-18.792-14.4-25.548-24.253
		c-13.579-19.802-12.643-40.345-1.884-60.85c8.212-15.65,19.484-29.018,33.335-39.978C114.75,1.348,127.9-2.793,141.816,5.37
		c5.706,3.347,10.673,8.496,14.924,13.687c21.295,26.006,42.24,52.299,63.312,78.487c1.236,1.536,2.508,3.044,3.691,4.478
		c12.586-5.506,54.164-5.469,64.255,0.22c1.174-1.332,2.497-2.722,3.697-4.212c21.5-26.699,42.993-53.402,64.467-80.122
		c5.943-7.394,12.635-13.7,22.267-15.913c8.194-1.883,16.151-0.735,23.05,3.752c22.759,14.804,39.51,34.686,47.101,61.016
		c6.377,22.118-1.803,40.603-17.591,55.998c-17.061,16.636-37.637,27.292-60.746,32.64c-6.842,1.583-14.198,1.104-21.324,1.26
		c-8.54,0.188-17.087,0.044-25.631,0.044C323.249,156.397,323.211,156.088,323.173,155.779z"/>
</g>
<g display="none">
	<path fill="#FFFFFF" d="M575.041,40.95c0-0.636,0-1.272,0-1.909c6.928,0,13.857,0,20.8,0c0,2.748,0,5.497,0,8.246
		c-0.016-0.043-0.037-0.085-0.049-0.129c-0.116-0.423-0.374-0.72-0.797-0.843c-0.62-0.181-1.163,0.079-1.463,0.672
		c-0.501,0.989-0.979,1.991-1.517,2.959c-0.472,0.85-1.014,1.661-1.524,2.489c-0.101,0.164-0.235,0.222-0.436,0.22
		c-1.185-0.011-2.369-0.002-3.554-0.007c-0.866-0.004-1.733,0-2.598-0.035c-0.909-0.038-1.523-0.573-1.703-1.459
		c-0.525-2.597-1.042-5.195-1.558-7.793c-0.17-0.856-0.451-1.66-1.081-2.296c-0.966-0.974-2.176-1.257-3.496-1.19
		c-0.17,0.009-0.347,0.108-0.5,0.199C575.241,40.269,575.116,40.598,575.041,40.95z M588.348,41.563
		c0.353-0.349,0.716-0.712,1.085-1.069c0.159-0.154,0.252-0.326,0.176-0.544c-0.07-0.202-0.242-0.273-0.443-0.301
		c-0.696-0.098-1.389-0.221-2.088-0.297c-0.881-0.096-1.765-0.161-2.648-0.226c-0.346-0.026-0.509,0.153-0.495,0.506
		c0.01,0.264,0.016,0.528,0.047,0.79c0.158,1.336,0.323,2.671,0.488,4.005c0.022,0.181,0.119,0.315,0.297,0.377
		c0.188,0.065,0.346,0.006,0.481-0.128c0.336-0.334,0.67-0.67,1.006-1.004c0.051-0.051,0.105-0.099,0.187-0.175
		c0.328,0.368,0.658,0.707,0.953,1.074c1.027,1.275,1.237,2.68,0.633,4.205c-0.045,0.113-0.099,0.225-0.121,0.343
		c-0.013,0.068,0.009,0.181,0.055,0.211c0.047,0.03,0.146-0.01,0.218-0.033c0.035-0.011,0.063-0.05,0.09-0.08
		c0.546-0.615,1.033-1.272,1.378-2.022c0.689-1.495,0.642-2.953-0.282-4.338C589.07,42.415,588.708,42.017,588.348,41.563z"/>
	<path fill="#FFFFFF" d="M583.206,59.841c-2.722,0-5.444,0-8.166,0c0-6.229,0-12.458,0-18.687c0.013,0.031,0.031,0.061,0.038,0.093
		c0.094,0.484,0.379,0.803,0.851,0.93c0.199,0.054,0.414,0.059,0.622,0.068c0.901,0.041,1.403,0.377,1.633,1.105
		c0.041,0.129,0.076,0.26,0.102,0.392c0.518,2.591,1.039,5.183,1.55,7.775c0.202,1.025,0.651,1.899,1.479,2.56
		c0.865,0.69,1.872,0.952,2.953,0.957c2.099,0.01,4.198,0.004,6.296,0.002c0.353,0,0.679-0.099,0.973-0.302
		c0.5-0.347,0.856-0.825,1.189-1.32c0.987-1.468,1.792-3.04,2.578-4.621c0.198-0.398,0.358-0.814,0.535-1.221
		c0,4.09,0,8.179,0,12.269c-1.652,0-3.304,0-4.956,0c0.043-0.015,0.086-0.034,0.131-0.044c0.399-0.088,0.753-0.265,1.04-0.557
		c0.57-0.579,0.732-1.448,0.417-2.179c-0.325-0.754-1.077-1.23-1.902-1.206c-0.895,0.027-1.654,0.656-1.872,1.553
		c-0.202,0.831,0.212,1.76,0.985,2.165c0.223,0.117,0.475,0.18,0.714,0.268c-2.234,0-4.469,0-6.703,0
		c0.036-0.014,0.072-0.034,0.109-0.042c0.837-0.18,1.459-0.807,1.597-1.613c0.255-1.491-1.138-2.687-2.593-2.227
		c-0.699,0.221-1.28,0.921-1.341,1.637c-0.072,0.853,0.245,1.525,0.991,1.96C582.684,59.688,582.955,59.747,583.206,59.841z"/>
	<path display="inline" d="M511,209.159c-4.349,9.992-8.277,20.194-13.121,29.94c-19.265,38.767-38.997,77.299-63.209,113.302
		c-8.16,12.133-16.897,23.848-29.156,32.354c-7.188,4.988-15.197,7.405-23.849,7.416c-51.461,0.063-102.923,0.202-154.383-0.043
		c-26.516-0.126-51.209-6.544-72.417-23.462c-20.303-16.196-31.304-37.633-36.263-62.765
		c-12.545-63.575-25.306-127.107-38.018-190.649c-0.649-3.244-1.512-6.46-2.506-9.617c-5.622-17.848-17.943-26.087-40.03-27.103
		c-5.108-0.235-10.37-0.352-15.251-1.67C11.217,73.736,4.224,65.934,1.924,54.056c-0.153-0.79-0.609-1.521-0.924-2.28
		c0-1.66,0-3.32,0-4.98c1.85-8.627,4.902-16.687,12.876-21.462c3.754-2.248,8.086-4.675,12.264-4.888
		c32.356-1.647,62.03,5.302,85.714,29.185c15.448,15.577,22.327,35.296,26.5,56.288c12.664,63.71,25.332,127.42,38.204,191.088
		c4.392,21.724,19.464,34.859,41.744,35.782c21.208,0.878,42.462,0.776,63.696,0.869c29.046,0.127,58.094-0.109,87.137,0.168
		c4.932,0.047,8.217-1.353,10.699-5.386c12.507-20.319,25.791-40.205,37.367-61.04c13.194-23.746,24.915-48.312,37.196-72.563
		c7.356-14.525,20.65-20.901,35.865-16.473c10.363,3.016,16.69,10.3,19.535,20.666c0.297,1.08,0.796,2.105,1.201,3.156
		C511,204.51,511,206.834,511,209.159z"/>
	<path display="inline" d="M377.523,509.979c-5.855-2.152-12.028-3.696-17.506-6.565c-18.952-9.927-29.098-32.706-24.151-53.085
		c5.334-21.976,23.942-37.411,45.893-38.069c20.24-0.607,38.663,11.071,46.636,29.561c7.735,17.937,3.765,39.229-10.215,53.435
		c-7.036,7.15-15.718,11.49-25.502,13.656c-1.092,0.242-2.135,0.707-3.201,1.069C385.492,509.979,381.508,509.979,377.523,509.979z"
		/>
	<path display="inline" d="M201.215,509.979c-6.158-2.287-12.795-3.753-18.388-7.01c-18.289-10.651-26.058-27.136-24.29-48.052
		c1.484-17.555,15.73-34.708,32.873-40.129c35.671-11.282,69.827,18.048,63.585,54.601c-3.377,19.773-18.614,35.155-39.147,39.561
		c-0.924,0.198-1.787,0.68-2.679,1.03C209.184,509.979,205.199,509.979,201.215,509.979z"/>
	<path display="inline" d="M327.298,61.838c8.824,11.129,17.701,20.874,24.933,31.715c22.654,33.961,23.802,69.719,6.92,106.373
		c-8.469,18.389-20.411,34.495-33.797,49.573c-0.657,0.74-1.341,1.7-2.197,1.969c-1.769,0.555-4.196,1.542-5.354,0.797
		c-1.139-0.732-1.662-3.501-1.353-5.172c0.535-2.89,1.862-5.645,2.96-8.416c14.817-37.378,9.655-71.827-15.517-103.094
		c-7.247-9.001-15.332-17.326-23.373-26.342c-1.999,1.867-3.327,3.042-4.581,4.291c-8.23,8.201-16.43,16.431-24.668,24.623
		c-3.307,3.288-7.189,4.729-11.788,3.14c-4.369-1.51-6.726-4.804-7.275-9.243c-4.048-32.73-8.087-65.461-11.965-98.212
		c-0.759-6.412-0.906-12.904-1.158-19.367c-0.337-8.637,3.644-13.021,12.139-12.395c21.663,1.596,43.34,3.2,64.929,5.55
		c17.123,1.864,34.118,4.89,51.186,7.282c4.938,0.692,9.144,2.441,10.867,7.389c1.859,5.339-0.419,9.565-4.314,13.33
		C344.846,44.374,335.959,53.282,327.298,61.838z"/>
</g>
<g display="none">
	<path fill="#FFFFFF" d="M575.041,40.95c0-0.636,0-1.272,0-1.909c6.928,0,13.857,0,20.8,0c0,2.748,0,5.497,0,8.246
		c-0.016-0.043-0.037-0.085-0.049-0.129c-0.116-0.423-0.374-0.72-0.797-0.843c-0.62-0.181-1.163,0.079-1.463,0.672
		c-0.501,0.989-0.979,1.991-1.517,2.959c-0.472,0.85-1.014,1.661-1.524,2.489c-0.101,0.164-0.235,0.222-0.436,0.22
		c-1.185-0.011-2.369-0.002-3.554-0.007c-0.866-0.004-1.733,0-2.598-0.035c-0.909-0.038-1.523-0.573-1.703-1.459
		c-0.525-2.597-1.042-5.195-1.558-7.793c-0.17-0.856-0.451-1.66-1.081-2.296c-0.966-0.974-2.176-1.257-3.496-1.19
		c-0.17,0.009-0.347,0.108-0.5,0.199C575.241,40.269,575.116,40.598,575.041,40.95z M585.48,44.66c-0.575,0-1.123,0.001-1.671-0.001
		c-0.212-0.001-0.411,0.029-0.519,0.242c-0.106,0.209-0.027,0.386,0.099,0.563c0.97,1.371,2.113,2.589,3.304,3.765
		c0.241,0.238,0.471,0.238,0.709-0.001c0.396-0.398,0.808-0.785,1.172-1.211c0.73-0.853,1.432-1.729,2.144-2.597
		c0.125-0.152,0.169-0.323,0.077-0.51c-0.092-0.188-0.258-0.247-0.453-0.25c-0.176-0.003-0.352-0.001-0.528-0.001
		c-0.391,0-0.782,0-1.192,0c-0.02-0.323-0.036-0.625-0.058-0.927c-0.056-0.783-0.117-1.565-0.169-2.349
		c-0.018-0.275-0.14-0.437-0.409-0.531c-0.64-0.223-1.267-0.219-1.905,0.006c-0.26,0.091-0.38,0.246-0.395,0.517
		c-0.036,0.642-0.087,1.283-0.129,1.924C585.53,43.745,585.507,44.19,585.48,44.66z"/>
	<path fill="#FFFFFF" d="M583.206,59.841c-2.722,0-5.444,0-8.166,0c0-6.229,0-12.458,0-18.687c0.013,0.031,0.031,0.061,0.038,0.093
		c0.094,0.484,0.379,0.803,0.851,0.93c0.199,0.054,0.414,0.059,0.622,0.068c0.901,0.041,1.403,0.377,1.633,1.105
		c0.041,0.129,0.076,0.26,0.102,0.392c0.518,2.591,1.039,5.183,1.55,7.775c0.202,1.025,0.651,1.899,1.479,2.56
		c0.865,0.69,1.872,0.952,2.953,0.957c2.099,0.01,4.198,0.004,6.296,0.002c0.353,0,0.679-0.099,0.973-0.302
		c0.5-0.347,0.856-0.825,1.189-1.32c0.987-1.468,1.792-3.04,2.578-4.621c0.198-0.398,0.358-0.814,0.535-1.221
		c0,4.09,0,8.179,0,12.269c-1.652,0-3.304,0-4.956,0c0.043-0.015,0.086-0.034,0.131-0.044c0.399-0.088,0.753-0.265,1.04-0.557
		c0.57-0.579,0.732-1.448,0.417-2.179c-0.325-0.754-1.077-1.23-1.902-1.206c-0.895,0.027-1.654,0.656-1.872,1.553
		c-0.202,0.831,0.212,1.76,0.985,2.165c0.223,0.117,0.475,0.18,0.714,0.268c-2.234,0-4.469,0-6.703,0
		c0.036-0.014,0.072-0.034,0.109-0.042c0.837-0.18,1.459-0.807,1.597-1.613c0.255-1.491-1.138-2.687-2.593-2.227
		c-0.699,0.221-1.28,0.921-1.341,1.637c-0.072,0.853,0.245,1.525,0.991,1.96C582.684,59.688,582.955,59.747,583.206,59.841z"/>
	<path display="inline" d="M511,200.061c-4.349,9.992-8.277,20.194-13.121,29.94c-19.265,38.767-38.997,77.299-63.209,113.302
		c-8.16,12.133-16.897,23.848-29.156,32.354c-7.188,4.988-15.197,7.405-23.849,7.416c-51.461,0.063-102.923,0.202-154.383-0.043
		c-26.516-0.126-51.209-6.544-72.417-23.462c-20.303-16.196-31.304-37.633-36.263-62.765
		c-12.545-63.575-25.306-127.107-38.018-190.649c-0.649-3.244-1.512-6.46-2.506-9.617c-5.622-17.848-17.943-26.087-40.03-27.103
		c-5.108-0.235-10.37-0.352-15.251-1.67C11.217,64.638,4.224,56.836,1.924,44.958c-0.153-0.79-0.609-1.521-0.924-2.28
		c0-1.66,0-3.32,0-4.98c1.85-8.627,4.902-16.687,12.876-21.462c3.754-2.248,8.086-4.675,12.264-4.888
		c32.356-1.647,62.03,5.302,85.714,29.185c15.448,15.577,22.327,35.296,26.5,56.288c12.664,63.71,25.332,127.42,38.204,191.088
		c4.392,21.724,19.464,34.859,41.744,35.782c21.208,0.878,42.462,0.776,63.696,0.869c29.046,0.127,58.094-0.109,87.137,0.168
		c4.932,0.047,8.217-1.353,10.699-5.386c12.507-20.319,25.791-40.205,37.367-61.04c13.194-23.746,24.915-48.312,37.196-72.563
		c7.356-14.525,20.65-20.901,35.865-16.473c10.363,3.016,16.69,10.3,19.535,20.666c0.297,1.08,0.796,2.105,1.201,3.156
		C511,195.413,511,197.737,511,200.061z"/>
	<path display="inline" d="M377.523,500.882c-5.855-2.152-12.028-3.696-17.506-6.565c-18.952-9.927-29.098-32.706-24.151-53.085
		c5.334-21.976,23.942-37.411,45.893-38.069c20.24-0.607,38.663,11.071,46.636,29.561c7.735,17.937,3.765,39.229-10.215,53.435
		c-7.036,7.15-15.718,11.49-25.502,13.656c-1.092,0.242-2.135,0.707-3.201,1.069C385.492,500.882,381.508,500.882,377.523,500.882z"
		/>
	<path display="inline" d="M201.215,500.882c-6.158-2.287-12.795-3.753-18.388-7.01c-18.289-10.651-26.058-27.136-24.29-48.052
		c1.484-17.555,15.73-34.708,32.873-40.129c35.671-11.282,69.827,18.048,63.585,54.601c-3.377,19.773-18.614,35.155-39.147,39.561
		c-0.924,0.198-1.787,0.68-2.679,1.03C209.184,500.882,205.199,500.882,201.215,500.882z"/>
	<path display="inline" d="M256.959,128.67c0.664-11.541,1.228-22.448,1.933-33.345c1.018-15.727,2.267-31.44,3.157-47.173
		c0.375-6.633,3.306-10.429,9.682-12.672c15.645-5.504,31.023-5.622,46.715-0.144c6.592,2.301,9.577,6.271,10.023,13.022
		c1.269,19.202,2.774,38.389,4.141,57.585c0.527,7.403,0.929,14.815,1.42,22.727c10.043,0,19.635-0.001,29.228,0
		c4.316,0,8.633-0.044,12.948,0.02c4.766,0.071,8.846,1.529,11.102,6.134c2.242,4.576,1.165,8.78-1.89,12.506
		c-17.455,21.286-34.686,42.766-52.574,63.683c-8.935,10.449-19.025,19.921-28.744,29.684c-5.839,5.865-11.481,5.851-17.386,0.022
		c-29.207-28.835-57.231-58.712-81.013-92.319c-3.075-4.345-5.017-8.675-2.424-13.806c2.644-5.233,7.517-5.95,12.722-5.935
		C229.433,128.694,242.867,128.67,256.959,128.67z"/>
</g>
<g display="none">
	<path fill="#FFFFFF" d="M578.9,39.041c5.645,0,11.291,0,16.938,0c0,6.93,0,13.86,0,20.795c-6.926,0-13.854,0-20.798,0
		c0-6.631,0-13.266,0-19.901c0.15,0.534,0.482,0.725,1.031,0.697c0.284-0.014,0.569-0.005,0.853-0.002
		c0.65,0.007,1.299,0.012,1.948,0.027c0.322,0.007,0.553,0.171,0.677,0.467c0.089,0.211,0.17,0.427,0.235,0.647
		c1.21,4.11,2.425,8.218,3.618,12.332c0.341,1.177,1.608,2.573,3.366,2.538c1.996-0.04,3.994-0.009,5.991-0.01
		c0.094,0,0.19-0.002,0.283-0.019c0.533-0.1,0.805-0.62,0.574-1.112c-0.156-0.332-0.443-0.45-0.796-0.45
		c-1.584,0.002-3.168,0.001-4.752,0.001c-0.487,0-0.975,0.011-1.462-0.006c-0.816-0.027-1.664-0.828-1.707-1.613
		c0.081,0,0.161,0,0.241,0c1.11,0,2.22,0,3.331,0c0.927,0,1.855-0.005,2.782,0.002c0.648,0.005,1.084-0.292,1.354-0.875
		c0.917-1.982,1.848-3.956,2.756-5.942c0.158-0.345,0.278-0.724,0.324-1.099c0.093-0.753-0.265-1.51-1.246-1.638
		c-0.174-0.023-0.351-0.032-0.526-0.032c-3.554-0.002-7.108-0.001-10.662-0.001c-0.39,0-0.78,0-1.201,0
		c-0.013-0.04-0.042-0.129-0.069-0.219c-0.272-0.913-0.531-1.83-0.819-2.738c-0.241-0.76-0.675-1.375-1.46-1.657
		C579.447,39.138,579.169,39.102,578.9,39.041z M587.678,58.238c-0.001-0.79-0.64-1.433-1.429-1.439
		c-0.788-0.006-1.454,0.656-1.451,1.444c0.003,0.786,0.648,1.432,1.436,1.435C587.035,59.681,587.679,59.04,587.678,58.238z
		 M592.478,58.242c0.001-0.789-0.637-1.435-1.426-1.443c-0.788-0.008-1.453,0.65-1.455,1.44c-0.002,0.784,0.645,1.434,1.432,1.439
		C591.83,59.683,592.477,59.043,592.478,58.242z"/>
	<path display="inline" d="M96.268,1.284c6.631,1.52,13.493,2.397,19.851,4.68c19.388,6.962,30.091,22.148,36.041,40.907
		c7.109,22.413,13.504,45.052,20.217,67.59c0.658,2.209,1.381,4.399,1.695,5.394c10.375,0,20.008,0,29.64,0
		c87.733,0,175.466-0.011,263.199,0.033c4.332,0.002,8.698,0.233,12.991,0.793c24.218,3.16,33.04,21.847,30.748,40.432
		c-1.141,9.249-4.114,18.612-8.005,27.125c-22.4,49.02-45.391,97.768-68.024,146.682c-6.665,14.405-17.437,21.724-33.436,21.609
		c-22.893-0.164-45.788-0.04-68.682-0.039c-27.406,0-54.812,0-82.218,0c-1.981,0-3.962,0-5.96,0
		c1.08,19.393,21.992,39.156,42.146,39.821c12.019,0.396,24.061,0.134,36.092,0.137c39.104,0.009,78.208,0.026,117.311-0.013
		c8.712-0.009,15.808,2.921,19.657,11.11c5.699,12.127-1.017,24.976-14.164,27.441c-2.277,0.427-4.649,0.48-6.977,0.481
		c-49.298,0.026-98.61-0.742-147.888,0.248c-43.387,0.872-74.649-33.593-83.078-62.64
		c-29.469-101.557-59.461-202.962-89.321-304.405c-1.597-5.424-3.605-10.753-5.792-15.971c-3.062-7.307-8.772-11.338-16.71-11.518
		c-16.03-0.365-32.065-0.499-48.099-0.671c-7.018-0.076-14.052-0.304-21.053,0.049C12.893,41.243,4.711,36.529,1,23.346
		c0-2.006,0-4.011,0-6.017C4.228,8.844,9.893,3.099,19.051,1.284C44.79,1.284,70.529,1.284,96.268,1.284z M470.55,160.608
		c-30.813,0-60.95,0-91.15,0c0,11.946,0,23.517,0,35.331c24.646,0,48.87,0.048,73.093-0.132c1.295-0.01,3.121-1.668,3.776-3.01
		c4.247-8.695,8.27-17.501,12.286-26.307C469.353,164.739,469.807,162.831,470.55,160.608z M190.921,160.533
		c3.663,11.651,6.943,22.478,10.612,33.173c0.393,1.145,3.047,2.136,4.659,2.147c21.378,0.141,42.757,0.099,64.136,0.082
		c1.291-0.001,2.583-0.18,4.032-0.289c0-11.843,0-23.403,0-35.112C246.623,160.533,219.298,160.533,190.921,160.533z
		 M274.454,255.14c0-11.683,0-22.456,0-33.347c-21.498,0-42.675,0-64.28,0c3.308,10.619,6.307,20.664,9.686,30.579
		c0.432,1.268,2.821,2.592,4.345,2.643c7.835,0.266,15.684,0.124,23.529,0.125C256.537,255.14,265.341,255.14,274.454,255.14z
		 M379.173,255.14c11.633,0,22.861-0.863,33.89,0.244c10.932,1.097,17.244-2.12,20.437-12.947c2.073-7.03,6.018-13.507,9.394-20.814
		c-21.76,0-42.642,0-63.721,0C379.173,232.785,379.173,243.579,379.173,255.14z M353.426,160.307
		c-17.282,0-34.253-0.034-51.222,0.112c-0.76,0.007-2.149,1.647-2.161,2.541c-0.151,10.799-0.098,21.602-0.098,32.635
		c18.138,0,35.701,0,53.481,0C353.426,183.804,353.426,172.367,353.426,160.307z M300.153,315.915c17.984,0,35.546,0,53.252,0
		c0-11.82,0-23.256,0-34.852c-17.901,0-35.458,0-53.252,0C300.153,292.799,300.153,304.095,300.153,315.915z M353.713,254.88
		c0-10.623,0.085-20.767-0.143-30.903c-0.021-0.924-2.04-2.574-3.146-2.586c-15.674-0.171-31.352-0.171-47.026-0.01
		c-1.158,0.012-3.282,1.541-3.302,2.403c-0.232,10.279-0.15,20.565-0.15,31.098C318.033,254.88,335.485,254.88,353.713,254.88z
		 M274.466,316.283c0-12.117,0-23.556,0-35.325c-15.227,0-30.15,0-45.705,0c3.537,11.277,6.84,22.098,10.429,32.823
		c0.376,1.124,2.429,2.369,3.726,2.393C253.258,316.37,263.605,316.283,274.466,316.283z M379.325,280.943
		c0,11.869,0,23.414,0,35.352c5.478,0,10.625-0.192,15.748,0.073c3.018,0.156,4.399-1.072,5.565-3.675
		c4.214-9.413,8.659-18.721,12.976-28.088c0.504-1.093,0.75-2.305,1.178-3.661C402.688,280.943,391.106,280.943,379.325,280.943z"/>
	<path fill="#FFFFFF" d="M575.772,39.041c-0.371,0.074-0.6,0.306-0.731,0.65c0-0.217,0-0.433,0-0.65
		C575.284,39.041,575.528,39.041,575.772,39.041z"/>
	<path display="inline" d="M312.943,475.171c0.027,19.788-15.868,35.628-35.667,35.544c-19.433-0.082-35.377-16.023-35.438-35.43
		c-0.061-19.455,16.366-35.802,35.821-35.647C297.149,439.795,312.917,455.674,312.943,475.171z"/>
	<path display="inline" d="M431.436,475.267c-0.032,19.78-15.981,35.583-35.773,35.445c-19.434-0.135-35.399-16.178-35.35-35.521
		c0.05-19.512,16.463-35.753,35.928-35.549C415.711,439.845,431.468,455.795,431.436,475.267z"/>
	<path fill="#FFFFFF" d="M594.062,45.495c-0.03,0.09-0.048,0.167-0.081,0.238c-0.163,0.357-0.326,0.713-0.498,1.066
		c-0.027,0.054-0.1,0.122-0.153,0.122c-0.981,0.007-1.963,0.005-2.961,0.005c0-0.479,0-0.947,0-1.431
		C591.593,45.495,592.814,45.495,594.062,45.495z"/>
	<path fill="#FFFFFF" d="M582.734,45.492c1.15,0,2.257,0,3.38,0c0,0.474,0,0.943,0,1.422c-0.059,0.004-0.111,0.012-0.163,0.012
		c-0.866,0.001-1.732,0.002-2.598-0.003c-0.065,0-0.173-0.041-0.189-0.087C583.016,46.403,582.883,45.964,582.734,45.492z"/>
	<path fill="#FFFFFF" d="M586.118,49.324c-0.369,0-0.726,0-1.082,0c-0.318,0-0.636,0.006-0.953-0.005
		c-0.062-0.002-0.159-0.056-0.176-0.107c-0.137-0.402-0.258-0.809-0.392-1.239c0.875,0,1.733,0,2.604,0
		C586.118,48.415,586.118,48.851,586.118,49.324z"/>
	<path fill="#FFFFFF" d="M590.361,49.324c0-0.468,0-0.906,0-1.358c0.854,0,1.7,0,2.581,0c-0.137,0.296-0.297,0.558-0.381,0.843
		c-0.129,0.439-0.385,0.569-0.828,0.525C591.287,49.29,590.832,49.324,590.361,49.324z"/>
	<path fill="#FFFFFF" d="M589.318,45.483c0,0.489,0,0.952,0,1.43c-0.72,0-1.432,0-2.167,0c0-0.447-0.002-0.885,0.004-1.322
		c0-0.036,0.057-0.103,0.088-0.103C587.93,45.481,588.617,45.483,589.318,45.483z"/>
	<path fill="#FFFFFF" d="M587.16,51.787c0-0.479,0-0.936,0-1.412c0.721,0,1.432,0,2.157,0c0,0.47,0,0.933,0,1.412
		C588.599,51.787,587.888,51.787,587.16,51.787z"/>
	<path fill="#FFFFFF" d="M589.329,49.314c-0.738,0-1.445,0-2.178,0c0-0.427-0.003-0.843,0.006-1.26
		c0.001-0.035,0.087-0.097,0.134-0.097c0.635-0.006,1.27-0.007,1.905,0c0.045,0,0.127,0.067,0.127,0.105
		C589.333,48.473,589.329,48.884,589.329,49.314z"/>
	<path fill="#FFFFFF" d="M586.119,51.801c-0.44,0-0.859,0.003-1.278-0.004c-0.053-0.001-0.136-0.051-0.151-0.097
		c-0.145-0.434-0.279-0.873-0.422-1.33c0.63,0,1.235,0,1.852,0C586.119,50.847,586.119,51.311,586.119,51.801z"/>
	<path fill="#FFFFFF" d="M590.367,50.37c0.477,0,0.946,0,1.437,0c-0.017,0.055-0.027,0.104-0.048,0.148
		c-0.175,0.379-0.355,0.757-0.526,1.138c-0.047,0.105-0.103,0.155-0.225,0.149c-0.208-0.011-0.416-0.003-0.638-0.003
		C590.367,51.318,590.367,50.851,590.367,50.37z"/>
</g>
<g display="none">
	<path fill="#FFFFFF" d="M590.762,39.041c1.693,0,3.385,0,5.078,0c0,6.933,0,13.867,0,20.8c-6.933,0-13.867,0-20.8,0
		c0-6.635,0-13.271,0-19.906c0.15,0.534,0.482,0.725,1.031,0.697c0.284-0.014,0.569-0.005,0.853-0.002
		c0.65,0.007,1.299,0.012,1.949,0.027c0.322,0.007,0.553,0.171,0.677,0.467c0.089,0.211,0.17,0.427,0.235,0.647
		c1.21,4.11,2.425,8.218,3.619,12.332c0.342,1.177,1.608,2.572,3.367,2.537c1.99-0.04,3.981-0.009,5.971-0.01
		c0.101,0,0.204-0.002,0.303-0.02c0.532-0.1,0.804-0.621,0.571-1.113c-0.156-0.331-0.444-0.449-0.797-0.449
		c-2.018,0.002-4.035-0.003-6.052,0.003c-0.533,0.002-0.978-0.175-1.339-0.565c-0.274-0.296-0.491-0.622-0.541-1.056
		c0.102,0,0.189,0,0.276,0c1.99,0,3.981,0,5.971,0c0.088,0,0.176-0.001,0.264-0.005c0.556-0.023,0.944-0.306,1.175-0.799
		c0.943-2.014,1.885-4.029,2.81-6.052c0.152-0.333,0.262-0.7,0.307-1.063c0.083-0.681-0.198-1.44-1.15-1.621
		c-0.185-0.035-0.377-0.045-0.566-0.045c-0.975-0.004-1.95-0.002-2.925-0.002c-0.067,0-0.134,0-0.219,0
		c0.16-0.109,0.302-0.179,0.41-0.285c0.509-0.496,1.013-0.998,1.509-1.507c0.381-0.39,0.372-0.851-0.011-1.237
		c-0.41-0.413-0.825-0.822-1.234-1.236C591.285,39.358,591.071,39.136,590.762,39.041z M587.677,58.25
		c0.006-0.798-0.641-1.451-1.437-1.452c-0.782,0-1.433,0.646-1.443,1.432c-0.01,0.781,0.636,1.438,1.424,1.447
		C587.025,59.687,587.672,59.053,587.677,58.25z M592.478,58.235c-0.005-0.791-0.646-1.433-1.433-1.436
		c-0.79-0.003-1.456,0.663-1.448,1.447c0.008,0.798,0.662,1.439,1.459,1.431C591.848,59.67,592.483,59.026,592.478,58.235z"/>
	<path display="inline" d="M389.075,1.299c7.613,2.344,12.9,7.841,18.277,13.294c10.091,10.233,20.336,20.314,30.456,30.517
		c9.459,9.536,9.681,20.92,0.281,30.543c-12.261,12.55-24.696,24.935-37.253,37.189c-2.663,2.599-6.174,4.329-10.118,7.022
		c2.103,0,3.753,0,5.403,0c24.064,0,48.129-0.057,72.192,0.05c4.661,0.021,9.401,0.253,13.965,1.121
		c23.497,4.467,30.439,23.214,28.379,40.011c-1.096,8.936-3.816,18.018-7.568,26.227c-22.822,49.928-46.092,99.652-69.356,149.377
		c-5.688,12.158-15.261,19.136-28.995,19.712c-2.169,0.091-4.342,0.12-6.514,0.12c-49.131,0.007-98.262,0.005-147.393,0.005
		c-2.152,0-4.304,0-6.826,0c1.235,10.724,6.588,18.757,13.348,26.068c8.911,9.637,19.912,13.989,33.06,13.95
		c49.799-0.147,99.599-0.037,149.398-0.078c8.718-0.007,15.817,2.904,19.679,11.077c5.73,12.127-0.964,24.995-14.105,27.462
		c-2.438,0.458-4.981,0.494-7.476,0.495c-49.131,0.027-98.278-0.746-147.389,0.249c-43.41,0.879-74.667-33.567-83.097-62.614
		C177.948,271.542,147.961,170.134,118.1,68.689c-1.597-5.424-3.605-10.753-5.791-15.971c-3.061-7.307-8.768-11.342-16.706-11.523
		c-16.03-0.366-32.065-0.499-48.099-0.672c-7.018-0.076-14.052-0.304-21.053,0.049C12.891,41.257,4.711,36.543,1,23.36
		c0-2.006,0-4.011,0-6.017C4.228,8.859,9.893,3.114,19.05,1.299c25.738,0,51.476,0,77.214,0c6.63,1.519,13.491,2.396,19.847,4.678
		c19.384,6.959,30.098,22.137,36.038,40.893c7.399,23.365,14.09,46.954,21.105,70.44c0.411,1.375,0.991,2.699,1.045,2.843
		c69.392,0,137.889,0,206.386,0c0.091-0.415,0.181-0.83,0.272-1.245c-8.106-3.198-13.28-8.475-14.118-17.546
		c-0.828-8.967,5.046-14.515,10.772-21.141c-3.159,0-5.15,0-7.141,0c-36.087,0-72.175,0.016-108.262-0.032
		c-2.821-0.004-5.683-0.228-8.454-0.737c-13.503-2.478-19.87-19.202-11.717-30.224c5.045-6.82,12.088-8.331,19.888-8.33
		c36.422,0.008,72.843,0.007,109.265-0.009c1.853-0.001,3.707-0.174,6.412-0.31c-2.495-2.692-4.276-4.434-5.85-6.345
		c-5.62-6.826-6.594-15.453-2.502-22.873c3.209-5.819,8.795-8.296,14.813-10.064C385.733,1.299,387.404,1.299,389.075,1.299z
		 M379.32,160.606c0,11.813,0,23.387,0,34.947c0.825,0.17,1.302,0.354,1.779,0.354c23.564,0.024,47.129,0.086,70.692-0.083
		c1.499-0.011,3.636-1.49,4.363-2.871c2.95-5.605,5.502-11.421,8.129-17.192c2.186-4.803,4.272-9.652,6.701-15.155
		C439.82,160.606,409.689,160.606,379.32,160.606z M274.557,160.633c-27.91,0-55.35,0-83.527,0
		c3.311,10.718,6.57,20.845,9.52,31.061c0.945,3.273,2.419,4.381,5.914,4.35c21.209-0.183,42.421-0.085,63.632-0.107
		c1.433-0.001,2.866-0.223,4.461-0.355C274.557,183.86,274.557,172.554,274.557,160.633z M210.073,221.531
		c3.441,10.985,6.563,21.306,10.037,31.506c0.363,1.065,2.803,1.997,4.292,2.015c12.682,0.158,25.367,0.091,38.05,0.092
		c3.945,0,7.89,0,11.903,0c0-11.577,0-22.461,0-33.613C252.976,221.531,231.999,221.531,210.073,221.531z M442.908,221.652
		c-21.82,0-42.697,0-63.583,0c0,11.308,0,22.219,0,33.482c15.508,0,30.654,0.038,45.799-0.083c1.042-0.008,2.588-0.963,3.034-1.893
		C433.049,242.972,437.768,232.704,442.908,221.652z M353.405,195.667c0-11.877,0-23.315,0-35.349
		c-17.292,0-34.267-0.034-51.239,0.113c-0.752,0.007-2.126,1.661-2.138,2.562c-0.15,10.797-0.097,21.597-0.097,32.673
		C317.978,195.667,335.437,195.667,353.405,195.667z M353.381,281.075c-17.908,0-35.463,0-53.145,0c0,11.877,0,23.299,0,34.832
		c17.901,0,35.462,0,53.145,0C353.381,304.079,353.381,292.644,353.381,281.075z M353.729,254.889c0-9.97-0.162-19.449,0.079-28.919
		c0.098-3.828-1.273-4.82-4.911-4.778c-14.673,0.168-29.349,0.059-44.024,0.085c-1.459,0.003-2.918,0.219-4.636,0.358
		c0,11.219,0,22.109,0,33.254C318.028,254.889,335.48,254.889,353.729,254.889z M274.44,280.984c-15.235,0-30.15,0-45.687,0
		c3.546,11.294,6.883,22.104,10.407,32.853c0.327,0.997,1.819,2.28,2.788,2.295c10.788,0.163,21.579,0.103,32.493,0.103
		C274.44,304.135,274.44,292.694,274.44,280.984z M379.332,280.953c0,11.915,0,23.458,0,35.334c6.011,0,11.654,0.067,17.293-0.064
		c0.969-0.023,2.433-0.645,2.799-1.408c5.297-11.059,10.446-22.188,15.891-33.862C402.967,280.953,391.387,280.953,379.332,280.953z
		"/>
	<path fill="#FFFFFF" d="M590.559,39.041c-0.244,0.072-0.47,0.172-0.6,0.408c-0.166,0.301-0.126,0.65,0.101,0.927
		c0.064,0.077,0.136,0.148,0.237,0.257c-0.11,0.005-0.185,0.013-0.26,0.013c-1.476,0.001-2.951,0.001-4.427,0
		c-0.316,0-0.601,0.061-0.806,0.337c-0.33,0.447-0.072,1.124,0.475,1.224c0.112,0.021,0.228,0.03,0.343,0.03
		c1.462,0.002,2.924,0.001,4.386,0.001c0.081,0,0.161,0,0.289,0c-0.232,0.268-0.47,0.493-0.436,0.856
		c0.034,0.367,0.244,0.581,0.572,0.711c-0.004,0.017-0.007,0.034-0.011,0.05c-2.775,0-5.55,0-8.361,0
		c-0.002-0.006-0.026-0.059-0.042-0.115c-0.284-0.951-0.555-1.907-0.855-2.854c-0.241-0.76-0.675-1.375-1.46-1.657
		c-0.258-0.092-0.535-0.128-0.804-0.19C582.786,39.041,586.673,39.041,590.559,39.041z"/>
	<path fill="#FFFFFF" d="M575.772,39.041c-0.371,0.074-0.6,0.306-0.731,0.65c0-0.217,0-0.433,0-0.65
		C575.284,39.041,575.528,39.041,575.772,39.041z"/>
	<path display="inline" d="M312.92,475.462c-0.14,19.817-16.109,35.467-35.952,35.236c-19.432-0.226-35.376-16.429-35.141-35.713
		c0.237-19.403,16.309-35.358,35.614-35.354C297.096,439.636,313.06,455.758,312.92,475.462z"/>
	<path display="inline" d="M431.422,475.082c0.114,19.529-15.549,35.425-35.095,35.617c-19.683,0.193-35.828-15.644-36.021-35.334
		c-0.19-19.369,16.243-35.798,35.738-35.729C415.484,439.705,431.307,455.559,431.422,475.082z"/>
	<path fill="#FFFFFF" d="M590.367,45.495c1.23,0,2.451,0,3.714,0c-0.098,0.223-0.183,0.419-0.271,0.614
		c-0.106,0.234-0.21,0.469-0.329,0.696c-0.029,0.056-0.116,0.116-0.177,0.116c-0.955,0.007-1.909,0.004-2.864,0.003
		c-0.019,0-0.039-0.007-0.072-0.014C590.367,46.442,590.367,45.973,590.367,45.495z"/>
	<path fill="#FFFFFF" d="M586.123,45.496c0,0.483,0,0.941,0,1.416c-0.065,0.005-0.123,0.014-0.181,0.014
		c-0.859,0.001-1.719-0.003-2.578,0.004c-0.142,0.001-0.201-0.044-0.24-0.176c-0.12-0.414-0.252-0.824-0.386-1.258
		C583.881,45.496,584.992,45.496,586.123,45.496z"/>
	<path fill="#FFFFFF" d="M583.511,47.963c0.888,0,1.738,0,2.604,0c0,0.452,0,0.893,0,1.362c-0.163,0-0.322,0-0.482,0
		c-0.514,0-1.028,0.003-1.542-0.004c-0.06-0.001-0.159-0.038-0.174-0.082C583.777,48.826,583.65,48.408,583.511,47.963z"/>
	<path fill="#FFFFFF" d="M592.943,47.968c-0.208,0.448-0.399,0.864-0.598,1.276c-0.018,0.038-0.081,0.076-0.123,0.077
		c-0.614,0.005-1.227,0.003-1.855,0.003c0-0.456,0-0.898,0-1.356C591.214,47.968,592.059,47.968,592.943,47.968z"/>
	<path fill="#FFFFFF" d="M589.317,46.915c-0.728,0-1.435,0-2.166,0c0-0.449-0.002-0.886,0.004-1.324
		c0-0.037,0.056-0.104,0.087-0.104c0.688-0.006,1.375-0.005,2.076-0.005C589.317,45.97,589.317,46.434,589.317,46.915z"/>
	<path fill="#FFFFFF" d="M589.316,50.375c0,0.469,0,0.932,0,1.411c-0.716,0-1.428,0-2.153,0c0-0.467,0-0.93,0-1.411
		C587.88,50.375,588.591,50.375,589.316,50.375z"/>
	<path fill="#FFFFFF" d="M589.331,49.314c-0.739,0-1.446,0-2.167,0c0-0.452,0-0.893,0-1.347c0.07-0.006,0.129-0.014,0.188-0.014
		c0.594-0.001,1.189,0.003,1.784-0.003c0.147-0.002,0.203,0.038,0.199,0.194C589.324,48.526,589.331,48.91,589.331,49.314z"/>
	<path fill="#FFFFFF" d="M586.118,50.371c0,0.474,0,0.938,0,1.428c-0.442,0-0.879,0.002-1.316-0.004
		c-0.039-0.001-0.1-0.053-0.113-0.093c-0.143-0.435-0.278-0.873-0.422-1.331C584.897,50.371,585.501,50.371,586.118,50.371z"/>
	<path fill="#FFFFFF" d="M590.368,50.37c0.488,0,0.957,0,1.458,0c-0.221,0.473-0.429,0.924-0.644,1.372
		c-0.015,0.031-0.074,0.056-0.113,0.057c-0.228,0.005-0.457,0.003-0.701,0.003C590.368,51.32,590.368,50.853,590.368,50.37z"/>
</g>
<g display="none">
	<path fill="#FFFFFF" d="M586.741,39.041c3.032,0,6.065,0,9.099,0c0,6.93,0,13.861,0,20.796c-6.927,0-13.856,0-20.799,0
		c0-6.604,0-13.212,0-19.821c0.059,0.104,0.109,0.216,0.18,0.311c0.193,0.258,0.471,0.316,0.773,0.317
		c0.948,0.003,1.895,0.007,2.843,0.017c0.317,0.003,0.563,0.142,0.693,0.439c0.086,0.197,0.165,0.399,0.226,0.606
		c1.06,3.602,2.117,7.206,3.176,10.809c0.194,0.66,0.325,1.35,0.61,1.968c0.634,1.375,1.695,2.167,3.276,2.157
		c1.963-0.013,3.927-0.003,5.89-0.004c0.101,0,0.204,0,0.304-0.012c0.516-0.06,0.826-0.581,0.637-1.064
		c-0.138-0.354-0.398-0.513-0.853-0.513c-1.984-0.001-3.967-0.011-5.951,0.005c-0.844,0.007-1.407-0.397-1.795-1.1
		c-0.08-0.146-0.112-0.318-0.175-0.503c0.129,0,0.21,0,0.29,0c2.011,0,4.022-0.002,6.032,0.001c0.623,0.001,1.107-0.232,1.378-0.813
		c0.931-1.994,1.863-3.988,2.779-5.989c0.155-0.339,0.264-0.707,0.339-1.074c0.159-0.786-0.333-1.529-1.101-1.676
		c-0.186-0.036-0.275-0.116-0.353-0.275c-0.557-1.128-1.121-2.252-1.685-3.376c-0.256-0.51-0.645-0.655-1.175-0.444
		c-0.934,0.372-1.867,0.745-2.812,1.122c-0.34-0.397-0.684-0.797-1.027-1.197C587.308,39.458,587.099,39.162,586.741,39.041z
		 M586.24,59.684c0.798,0,1.44-0.638,1.447-1.438c0.007-0.793-0.64-1.446-1.436-1.448c-0.814-0.003-1.457,0.637-1.456,1.447
		C584.797,59.044,585.44,59.684,586.24,59.684z M591.035,59.684c0.792,0.005,1.458-0.63,1.455-1.432
		c-0.004-0.893-0.721-1.457-1.432-1.456c-0.81,0.002-1.466,0.641-1.467,1.443C589.589,59.031,590.237,59.679,591.035,59.684z"/>
	<path display="inline" d="M289.501,1.486c8.835,3.003,13.993,10.28,19.693,16.932c8.461,9.875,16.935,19.74,25.328,29.521
		c23.303-9.295,46.322-18.484,69.347-27.659c13.078-5.211,22.669-1.633,28.983,10.946c13.912,27.717,27.831,55.431,41.559,83.239
		c1.934,3.918,4.115,5.888,8.707,6.772c18.932,3.646,31.07,21.968,27.146,41.339c-1.829,9.029-4.522,18.111-8.347,26.472
		c-22.578,49.345-45.546,98.511-68.515,147.676c-6.682,14.303-18.627,20.056-33.988,20.036
		c-49.582-0.065-99.164-0.024-148.746-0.024c-1.985,0-3.97,0-7.152,0c1.546,4.568,2.329,8.818,4.309,12.407
		c9.566,17.342,23.445,27.297,44.258,27.128c48.911-0.396,97.828-0.14,146.742-0.116c11.217,0.005,17.616,3.915,21.031,12.646
		c4.661,11.917-2.989,24.753-15.707,26.241c-2.478,0.29-4.997,0.3-7.498,0.301c-48.414,0.016-96.829-0.231-145.24,0.089
		c-38.976,0.257-65.139-19.286-80.771-53.183c-7.031-15.247-10.268-32.261-15.049-48.525
		c-26.117-88.837-52.161-177.696-78.307-266.525c-1.497-5.087-3.442-10.074-5.573-14.935c-3.217-7.335-9.278-10.756-17.092-10.832
		c-23.368-0.229-46.737-0.33-70.105-0.409c-7.463-0.025-14.323-1.469-19.071-7.822C3.684,30.848,2.465,28.096,1,25.527
		c0-2.671,0-5.343,0-8.014C3.669,9.498,9.04,4.183,17.028,1.486c27.381,0,54.762,0,82.143,0c1.1,0.352,2.176,0.87,3.304,1.031
		c21.973,3.141,37.972,14.847,45.842,35.38c7.349,19.174,12.662,39.131,18.793,58.768c2.452,7.854,4.695,15.774,7.216,24.285
		c1.479-1.607,2.395-2.544,3.246-3.537c29.733-34.669,59.515-69.296,89.128-104.068c4.667-5.48,9.702-10.012,16.79-11.859
		C285.494,1.486,287.497,1.486,289.501,1.486z M285.809,51.265c-19.498,22.763-38.711,45.194-58.363,68.138
		c39.27,0,77.575,0,116.749,0C324.465,96.378,305.314,74.028,285.809,51.265z M378.858,195.913c24.737,0,48.882,0.048,73.025-0.135
		c1.288-0.01,3.09-1.713,3.755-3.068c4.171-8.5,8.128-17.106,12.054-25.724c0.852-1.869,1.289-3.927,1.951-6.001
		c-30.651,0-60.69,0-90.785,0C378.858,172.707,378.858,183.98,378.858,195.913z M191.087,160.786
		c3.187,10.379,6.38,20.321,9.247,30.356c1.029,3.601,2.655,4.925,6.572,4.883c20.677-0.219,41.358-0.097,62.038-0.115
		c1.608-0.001,3.217-0.168,5-0.267c0-11.812,0-23.219,0-34.857C246.295,160.786,219.008,160.786,191.087,160.786z M361.397,79.3
		c11.637,13.58,22.659,26.47,33.747,39.302c0.566,0.655,1.705,1.147,2.581,1.153c11.589,0.076,23.178,0.05,35.709,0.05
		c-9.876-19.751-19.338-38.673-28.865-57.727C390,67.891,376.128,73.424,361.397,79.3z M210.158,221.909
		c3.328,10.574,6.391,20.713,9.839,30.72c0.406,1.179,2.912,2.288,4.464,2.315c11.153,0.197,22.312,0.106,33.469,0.106
		c5.27,0,10.54,0,16.058,0c0-11.37,0-22.102,0-33.141C252.762,221.909,231.852,221.909,210.158,221.909z M300.291,160.818
		c0,11.683,0,23.217,0,34.79c17.655,0,34.904,0,52.355,0c0-11.713,0-23.112,0-34.79
		C335.105,160.818,317.855,160.818,300.291,160.818z M352.706,281.121c-17.839,0-35.074,0-52.482,0c0,11.781,0,23.202,0,34.603
		c17.716,0,35.092,0,52.482,0C352.706,304.001,352.706,292.713,352.706,281.121z M442.039,222.041c-21.582,0-42.34,0-63.028,0
		c0,11.196,0,21.946,0,33.002c15.404,0,30.412,0.037,45.418-0.08c1.058-0.008,2.64-0.902,3.078-1.815
		C432.386,242.975,437.087,232.717,442.039,222.041z M352.599,254.853c0-11.274,0-22.023,0-32.968c-17.593,0-34.846,0-52.247,0
		c0,11.15,0,22.011,0,32.968C317.945,254.853,335.073,254.853,352.599,254.853z M273.971,281.004c-15.197,0-29.811,0-45.26,0
		c3.591,11.303,6.985,22.174,10.582,32.976c0.312,0.938,1.954,2.024,2.993,2.039c10.451,0.151,20.906,0.092,31.685,0.092
		C273.971,304.242,273.971,292.844,273.971,281.004z M378.853,316.155c5.641,0,10.945,0.252,16.2-0.148
		c1.646-0.125,3.819-1.655,4.613-3.148c2.958-5.563,5.455-11.372,8.102-17.099c2.203-4.767,4.374-9.549,6.71-14.652
		c-12.271,0-23.829,0-35.624,0C378.853,292.724,378.853,303.995,378.853,316.155z"/>
	<path fill="#FFFFFF" d="M586.497,39.041c-0.287,0.075-0.492,0.259-0.681,0.481c-1.201,1.41-2.409,2.814-3.615,4.22
		c-0.035,0.04-0.072,0.078-0.132,0.143c-0.102-0.345-0.193-0.666-0.293-0.985c-0.249-0.796-0.464-1.606-0.762-2.383
		c-0.319-0.833-0.968-1.307-1.859-1.435c-0.046-0.007-0.089-0.028-0.134-0.042C581.514,39.041,584.005,39.041,586.497,39.041z"/>
	<path fill="#FFFFFF" d="M575.691,39.041c-0.324,0.109-0.542,0.325-0.65,0.65c0-0.217,0-0.433,0-0.65
		C575.257,39.041,575.474,39.041,575.691,39.041z"/>
	<path display="inline" d="M277.159,510.514c-19.74-0.009-35.582-15.793-35.613-35.484c-0.032-19.988,15.83-35.758,35.893-35.686
		c19.629,0.071,35.59,16.169,35.412,35.716C312.67,494.786,296.828,510.523,277.159,510.514z"/>
	<path display="inline" d="M395.383,510.512c-19.67-0.117-35.634-16.089-35.606-35.624c0.028-19.764,16.199-35.535,36.175-35.575
		c17.535-0.035,35.22,13.872,35.307,35.899C431.336,494.972,414.921,510.628,395.383,510.512z"/>
	<path fill="#FFFFFF" d="M586.591,41.059c0.791,0.923,1.568,1.83,2.368,2.763c-1.589,0-3.142,0-4.735,0
		C585.021,42.892,585.8,41.983,586.591,41.059z"/>
	<path fill="#FFFFFF" d="M590.364,46.926c0-0.484,0-0.941,0-1.416c1.22,0,2.439,0,3.682,0c-0.027,0.084-0.045,0.168-0.079,0.243
		c-0.159,0.349-0.32,0.698-0.489,1.043c-0.027,0.055-0.1,0.124-0.152,0.124C592.347,46.927,591.368,46.926,590.364,46.926z"/>
	<path fill="#FFFFFF" d="M582.75,45.501c1.132,0,2.239,0,3.36,0c0,0.472,0,0.935,0,1.414c-0.072,0.004-0.138,0.011-0.203,0.011
		c-0.839,0.001-1.677-0.004-2.516,0.005c-0.159,0.002-0.225-0.052-0.266-0.198C583.008,46.325,582.879,45.922,582.75,45.501z"/>
	<path fill="#FFFFFF" d="M589.656,42.196c0.597-0.238,1.16-0.463,1.751-0.698c0.386,0.773,0.77,1.54,1.171,2.341
		c-0.508,0-0.978,0.001-1.448-0.002c-0.036,0-0.082-0.02-0.105-0.047C590.575,43.27,590.128,42.747,589.656,42.196z"/>
	<path fill="#FFFFFF" d="M583.523,47.98c0.88,0,1.728,0,2.589,0c0,0.448,0,0.883,0,1.344c-0.224,0-0.438,0-0.651,0
		c-0.452,0-0.905,0.004-1.357-0.004c-0.063-0.001-0.165-0.046-0.181-0.094C583.782,48.82,583.658,48.409,583.523,47.98z"/>
	<path fill="#FFFFFF" d="M587.178,45.502c0.712,0,1.412,0,2.123,0c0,0.474,0,0.936,0,1.411c-0.708,0-1.407,0-2.123,0
		C587.178,46.444,587.178,45.976,587.178,45.502z"/>
	<path fill="#FFFFFF" d="M589.304,50.381c0,0.47,0,0.928,0,1.403c-0.705,0-1.41,0-2.128,0c0-0.462,0-0.926,0-1.403
		C587.881,50.381,588.58,50.381,589.304,50.381z"/>
	<path fill="#FFFFFF" d="M592.927,47.985c-0.201,0.433-0.391,0.849-0.589,1.262c-0.018,0.037-0.082,0.073-0.125,0.074
		c-0.609,0.005-1.217,0.003-1.842,0.003c0-0.448,0-0.884,0-1.338C591.21,47.985,592.051,47.985,592.927,47.985z"/>
	<path fill="#FFFFFF" d="M589.299,49.316c-0.711,0-1.405,0-2.119,0c0-0.444,0-0.885,0-1.337c0.706,0,1.405,0,2.119,0
		C589.299,48.423,589.299,48.859,589.299,49.316z"/>
	<path fill="#FFFFFF" d="M586.111,50.376c0,0.48,0,0.942,0,1.424c-0.437,0-0.861,0.002-1.285-0.004
		c-0.042-0.001-0.109-0.045-0.121-0.083c-0.146-0.438-0.284-0.879-0.429-1.337C584.902,50.376,585.495,50.376,586.111,50.376z"/>
	<path fill="#FFFFFF" d="M590.364,51.802c0-0.493,0-0.95,0-1.421c0.478,0,0.947,0,1.445,0c-0.095,0.207-0.183,0.401-0.272,0.594
		c-0.107,0.232-0.209,0.468-0.329,0.693c-0.032,0.061-0.12,0.123-0.187,0.128C590.808,51.812,590.593,51.802,590.364,51.802z"/>
</g>
<g display="none">
	<path display="inline" d="M1,377.475C1,276.87,1,176.264,1,75.659C5.388,63.29,14.585,59.787,27.061,59.818
		c101.417,0.248,202.835,0.132,304.253,0.149c14.848,0.002,22.443,7.531,22.494,22.29c0.057,16.764,0.004,33.529,0.028,50.294
		c0.003,1.9,0.191,3.799,0.308,5.961c2.457,0,4.27,0,6.083,0c20.416,0.001,40.833,0.043,61.249-0.021
		c6.89-0.021,13.534,1.27,18.293,6.339c5.629,5.996,11.301,12.255,15.438,19.292c12.939,22.009,24.992,44.535,37.729,66.665
		c7.528,13.08,15.474,25.889,18.064,41.102c0,35.195,0,70.391,0,105.586c-7.1,17.158-15.935,16.78-38.714,15.147
		c-12.874-40.047-35.229-59.224-69.059-59.307c-15.098-0.037-28.797,4.347-40.917,13.26c-15.682,11.532-24.816,27.234-28.181,46.406
		c-45.737,0-91.139,0-136.495,0c-6.721-38.326-38.683-59.446-68.485-59.78c-27.638-0.31-62.26,18.421-69.957,60.049
		c-10.682,0-21.468-0.428-32.205,0.112C14.437,393.992,5.348,389.836,1,377.475z M373.884,177.306c0,33.351,0,65.76,0,98.198
		c34.93,0,69.459,0,105.032,0c-1.622-3.819-2.763-7.049-4.328-10.059c-2.136-4.11-4.697-7.997-6.898-12.076
		c-12.112-22.447-24.256-44.878-36.191-67.42c-3.238-6.115-7.731-8.921-14.724-8.727c-11.267,0.312-22.549,0.084-33.825,0.084
		C380.013,177.306,377.074,177.306,373.884,177.306z M192.834,276.955c-6.252-6.55-7.834-13.572-8.25-20.926
		c-0.578-10.209-0.402-20.596-8.742-28.409c1.03-0.906,1.703-1.401,2.26-2.002c8.347-9.027,9.781-19.674,6.701-31.055
		c-2.802-10.351-10.214-17.011-20.493-17.753c-15.116-1.091-30.369-0.281-45.698-0.281c0,33.35,0,66.725,0,100.093
		c5.832,0,11.219,0,17.192,0c0-13.489,0-26.655,0-40.225c5.207,0,9.829-0.001,14.451,0c12.976,0.003,15.621,2.37,16.982,15.209
		c0.07,0.66,0.074,1.326,0.139,1.986c0.6,6.094,1.024,12.214,1.881,18.273c0.49,3.468,2.527,5.416,6.539,5.169
		C180.909,276.716,186.058,276.955,192.834,276.955z M293.111,233.956c13.149,0,25.96,0,38.73,0c0-5.912,0-11.143,0-16.902
		c-13.031,0-25.723,0-38.636,0c0-8.229,0-15.921,0-24.43c14.251,0,28.209,0,42.17,0c0-5.904,0-10.987,0-16.41
		c-20.072,0-39.854,0-59.75,0c0,33.715,0,67.076,0,100.352c20.312,0,40.127,0,59.955,0c0-5.634,0-10.873,0-16.713
		c-14.275,0-28.272,0-42.468,0C293.111,251.161,293.111,243.072,293.111,233.956z M197.204,276.648c20.124,0,39.634,0,59.326,0
		c0-5.661,0-11.007,0-16.976c-14.243,0-28.075,0-41.774,0c0-8.846,0-17.054,0-25.725c12.912,0,25.451,0,37.987,0
		c0-5.847,0-11.21,0-17.072c-12.915,0-25.442,0-37.964,0c0-8.206,0-15.892,0-24.115c13.949,0,27.503,0,41.171,0
		c0-5.903,0-11.247,0-16.571c-19.796,0-39.138,0-58.746,0C197.204,209.786,197.204,243.058,197.204,276.648z M39.494,176.152
		c0,33.681,0,67.071,0,100.371c5.984,0,11.522,0,17.526,0c0-14.29,0-28.153,0-42.593c12.648,0,24.819,0,37.113,0
		c0-5.823,0-11.05,0-16.878c-12.491,0-24.67,0-36.956,0c0-8.307,0-16.006,0-24.364c14.337,0,28.343,0,42.416,0
		c0-5.892,0-11.112,0-16.535C79.412,176.152,59.578,176.152,39.494,176.152z"/>
	<path fill="#FFFFFF" d="M597.841,130.487c-0.106-0.62-0.43-1.143-0.737-1.676c-0.519-0.903-1.011-1.821-1.539-2.719
		c-0.169-0.287-0.4-0.542-0.63-0.787c-0.194-0.207-0.465-0.259-0.746-0.259c-0.833,0.003-1.665,0.001-2.498,0.001
		c-0.074,0-0.148,0-0.248,0c-0.005-0.088-0.012-0.166-0.013-0.243c-0.001-0.684,0.001-1.367-0.001-2.051
		c-0.002-0.602-0.312-0.909-0.917-0.909c-4.136-0.001-8.272,0.004-12.409-0.006c-0.509-0.001-0.884,0.142-1.063,0.646
		c0-1.814,0-3.627,0-5.442c6.929,0,13.858,0,20.8,0C597.841,121.523,597.841,126.005,597.841,130.487z"/>
	<path fill="#FFFFFF" d="M577.041,134.794c0.177,0.504,0.548,0.674,1.06,0.648c0.438-0.022,0.878-0.005,1.313-0.005
		c0.314-1.698,1.726-2.462,2.853-2.449c1.215,0.014,2.519,0.875,2.793,2.438c1.85,0,3.701,0,5.567,0
		c0.137-0.782,0.51-1.422,1.149-1.893c0.494-0.364,1.053-0.542,1.669-0.541c1.38,0.003,2.291,0.786,2.817,2.419
		c0.929,0.067,1.289,0.082,1.579-0.618c0,1.016,0,2.031,0,3.047c-1.381,0-2.762,0-4.144,0c0.036-0.014,0.071-0.034,0.109-0.042
		c1.034-0.224,1.75-1.18,1.617-2.161c-0.202-1.486-1.719-2.234-3.021-1.49c-1.117,0.638-1.27,2.333-0.294,3.171
		c0.324,0.279,0.703,0.415,1.103,0.522c-3.575,0-7.15,0-10.725,0c0.043-0.015,0.086-0.034,0.131-0.044
		c0.399-0.088,0.753-0.265,1.04-0.557c0.57-0.579,0.732-1.448,0.417-2.179c-0.325-0.754-1.077-1.23-1.902-1.206
		c-0.895,0.027-1.654,0.656-1.872,1.553c-0.202,0.831,0.212,1.76,0.985,2.165c0.223,0.117,0.475,0.18,0.714,0.268
		c-1.648,0-3.296,0-4.956,0C577.041,136.825,577.041,135.809,577.041,134.794z"/>
	<path display="inline" d="M122.523,452.182c-5.855-2.152-12.028-3.696-17.506-6.565c-18.952-9.927-29.098-32.706-24.151-53.085
		c5.334-21.976,23.941-37.412,45.893-38.069c20.24-0.607,38.663,11.071,46.636,29.561c7.735,17.937,3.765,39.228-10.215,53.435
		c-7.036,7.15-15.718,11.49-25.502,13.656c-1.092,0.242-2.135,0.707-3.201,1.069C130.492,452.182,126.508,452.182,122.523,452.182z"
		/>
	<path display="inline" d="M397.445,452.182c-9.786-2.627-19.087-5.972-27.034-12.805c-23.916-20.562-20.181-62.125,7.216-77.76
		c31.934-18.223,69.118,0.121,74.077,36.546c3.275,24.056-14.276,47.501-39.637,52.984c-0.921,0.199-1.781,0.684-2.67,1.035
		C405.414,452.182,401.43,452.182,397.445,452.182z"/>
	<path fill="#FFFFFF" d="M592.248,126.63c0.13,0,0.25,0,0.37,0c0.46,0,0.92,0.009,1.38-0.003c0.285-0.008,0.468,0.107,0.601,0.356
		c0.487,0.919,0.982,1.834,1.476,2.75c0.09,0.166,0.194,0.325,0.281,0.493c0.064,0.123,0.11,0.254,0.177,0.41
		c-1.451,0-2.859,0-4.284,0C592.248,129.312,592.248,127.99,592.248,126.63z"/>
	<path fill="#FFFFFF" d="M584.864,130.694c-0.276,0-0.486-0.01-0.695,0.003c-0.164,0.01-0.247-0.069-0.267-0.211
		c-0.035-0.247-0.052-0.497-0.077-0.745c-0.003-0.027-0.003-0.054-0.006-0.081c-0.056-0.524-0.163-0.62-0.693-0.62
		c-0.189,0-0.377,0-0.589,0c0,0.553,0,1.09,0,1.641c-0.244,0-0.463,0-0.701,0c0-1.361,0-2.722,0-4.082
		c0.625,0,1.247-0.033,1.864,0.011c0.419,0.03,0.721,0.302,0.836,0.724c0.126,0.464,0.067,0.898-0.273,1.267
		c-0.023,0.025-0.05,0.045-0.092,0.082c0.34,0.319,0.333,0.742,0.357,1.159C584.545,130.141,584.609,130.427,584.864,130.694z
		 M582.542,128.316c0.325,0,0.642,0.024,0.953-0.008c0.254-0.026,0.372-0.22,0.374-0.498c0.001-0.292-0.105-0.502-0.316-0.518
		c-0.332-0.025-0.668-0.007-1.011-0.007C582.542,127.636,582.542,127.977,582.542,128.316z"/>
	<path fill="#FFFFFF" d="M588.954,128.94c0,0.372,0,0.702,0,1.056c0.579,0,1.15,0,1.732,0c0,0.238,0,0.452,0,0.682
		c-0.809,0-1.617,0-2.445,0c0-1.357,0-2.718,0-4.093c0.811,0,1.618,0,2.437,0c0,0.221,0,0.428,0,0.669c-0.569,0-1.139,0-1.72,0
		c0,0.347,0,0.661,0,0.996c0.527,0,1.044,0,1.576,0c0,0.235,0,0.448,0,0.689C590.013,128.94,589.49,128.94,588.954,128.94z"/>
	<path fill="#FFFFFF" d="M585.043,130.682c0-1.37,0-2.727,0-4.097c0.8,0,1.589,0,2.396,0c0,0.217,0,0.435,0,0.676
		c-0.557,0-1.11,0-1.679,0c0,0.335,0,0.649,0,0.984c0.511,0,1.022,0,1.548,0c0,0.239,0,0.458,0,0.696c-0.511,0-1.023,0-1.549,0
		c0,0.354,0,0.688,0,1.049c0.559,0,1.123,0,1.704,0c0,0.243,0,0.461,0,0.692C586.659,130.682,585.863,130.682,585.043,130.682z"/>
	<path fill="#FFFFFF" d="M578.611,126.583c0.819,0,1.628,0,2.451,0c0,0.221,0,0.434,0,0.674c-0.574,0-1.145,0-1.73,0
		c0,0.341,0,0.655,0,0.994c0.501,0,0.998,0,1.507,0c0,0.238,0,0.451,0,0.688c-0.501,0-0.998,0-1.514,0c0,0.589,0,1.154,0,1.737
		c-0.245,0-0.471,0-0.715,0C578.611,129.318,578.611,127.957,578.611,126.583z"/>
	<path display="inline" d="M135.901,218.647c0-8.321,0-16.675,0-25.256c8.406,0,16.634-0.451,24.78,0.163
		c5.165,0.389,7.776,5.536,7.742,12.7c-0.033,6.804-2.94,11.571-9.163,12.206C151.635,219.24,143.871,218.647,135.901,218.647z"/>
</g>
<g display="none">
	<path fill="#FFFFFF" d="M579.316,137.841c-0.758,0-1.517,0-2.275,0c0-6.933,0-13.867,0-20.8c6.933,0,13.867,0,20.8,0
		c0,6.933,0,13.867,0,20.8c-2.072,0-4.144,0-6.216,0c0.163-0.123,0.36-0.219,0.485-0.373c1.019-1.256,2.022-2.524,3.035-3.785
		c0.2-0.249,0.295-0.517,0.294-0.838c-0.005-3.276-0.003-6.551-0.003-9.827c0-0.122,0.005-0.244,0-0.365
		c-0.016-0.405-0.259-0.714-0.654-0.794c-0.163-0.033-0.337-0.015-0.505-0.015c-3.37-0.001-6.741,0-10.111-0.001
		c-0.255,0-0.495,0.039-0.71,0.192c-1.48,1.047-2.963,2.09-4.444,3.135c-0.258,0.182-0.373,0.438-0.373,0.748
		c0,0.426,0.006,0.853,0.006,1.279c0.001,3.215,0.001,6.43-0.001,9.644c0,0.339,0.056,0.651,0.365,0.852
		C579.104,137.754,579.213,137.792,579.316,137.841z"/>
	<path display="inline" d="M55.685,473.138c-2.526-1.197-5.222-2.133-7.547-3.64c-7.626-4.945-9.002-12.637-8.998-20.988
		c0.037-79.214,0.029-158.429,0.014-237.643c-0.002-10.504-0.158-21.009-0.154-31.513c0.003-7.637,2.836-13.939,9.2-18.427
		c36.508-25.744,73.036-51.46,109.513-77.247c5.316-3.758,11.229-4.72,17.505-4.719c83.05,0.014,166.1,0.006,249.15,0.02
		c4.16,0.001,8.442-0.44,12.456,0.371c9.714,1.963,15.723,9.579,16.106,19.562c0.115,2.997-0.001,6.003-0.001,9.004
		c-0.001,80.715-0.046,161.431,0.07,242.146c0.011,7.905-2.324,14.51-7.256,20.641c-24.975,31.049-49.691,62.308-74.793,93.253
		c-3.078,3.795-7.926,6.155-11.954,9.179C257.893,473.138,156.789,473.138,55.685,473.138z M78.736,197.146
		c0,79.293,0,157.763,0,236.85c2.106,0,3.893,0,5.68,0c81.386,0,162.772-0.047,244.158,0.113c5.034,0.01,6.413-1.227,6.401-6.353
		c-0.175-74.715-0.119-149.43-0.121-224.145c0-6.451-0.009-6.463-6.576-6.463c-81.219-0.003-162.439-0.002-243.658-0.002
		C82.816,197.146,81.011,197.146,78.736,197.146z M252.525,157.409c1.782,0.279,2.389,0.457,2.996,0.458
		c29.193,0.016,58.385,0.073,87.577-0.108c1.995-0.012,4.396-1.398,5.9-2.868c11.093-10.844,22.014-21.865,32.964-32.854
		c0.954-0.957,1.735-2.087,2.825-3.416c-1.146-0.285-1.61-0.5-2.073-0.5c-26.69-0.024-53.38-0.054-80.07,0.025
		c-1.552,0.005-3.438,0.5-4.601,1.456C283.111,131.881,268.282,144.285,252.525,157.409z M121.106,157.405
		c1.964,0.293,2.571,0.462,3.178,0.463c25.345,0.015,50.69,0.057,76.034-0.074c1.79-0.009,3.897-0.918,5.309-2.076
		c13.918-11.422,27.724-22.979,41.541-34.524c0.785-0.656,1.378-1.54,2.764-3.121c-2.824,0-4.607,0-6.39,0
		c-18.342,0-36.694,0.359-55.02-0.162c-8.293-0.236-14.927,1.94-21.549,6.906C152.326,135.8,137.148,146.077,121.106,157.405z"/>
	<path fill="#FFFFFF" d="M580.251,126.64c0.092,0,0.166,0,0.239,0c3.296,0,6.592,0,9.888,0c0.267,0,0.267,0.001,0.267,0.262
		c0,3.032-0.002,6.064,0.005,9.097c0,0.208-0.055,0.258-0.26,0.258c-3.303-0.006-6.606-0.005-9.909-0.005c-0.073,0-0.145,0-0.231,0
		C580.251,133.042,580.251,129.858,580.251,126.64z M585.409,129.028c0.669,0,1.339,0.008,2.008-0.003
		c0.473-0.008,0.803-0.336,0.801-0.764c-0.002-0.47-0.315-0.807-0.8-0.811c-1.312-0.01-2.623-0.01-3.935-0.001
		c-0.494,0.004-0.838,0.359-0.826,0.81c0.012,0.434,0.343,0.76,0.805,0.766C584.111,129.035,584.76,129.028,585.409,129.028z"/>
	<path fill="#FFFFFF" d="M587.304,125.027c0.639-0.533,1.241-1.036,1.847-1.534c0.047-0.039,0.124-0.059,0.187-0.059
		c1.083-0.003,2.166-0.002,3.25-0.001c0.019,0,0.038,0.009,0.084,0.02c-0.044,0.054-0.076,0.1-0.115,0.139
		c-0.444,0.446-0.888,0.893-1.338,1.333c-0.061,0.06-0.159,0.116-0.239,0.116c-1.185,0.007-2.369,0.005-3.554,0.004
		C587.401,125.046,587.376,125.039,587.304,125.027z"/>
	<path fill="#FFFFFF" d="M581.971,125.027c0.651-0.46,1.267-0.877,1.861-1.323c0.269-0.202,0.538-0.29,0.875-0.28
		c0.744,0.021,1.489,0.007,2.233,0.007c0.072,0,0.145,0,0.259,0c-0.056,0.064-0.08,0.1-0.112,0.127
		c-0.561,0.469-1.121,0.938-1.686,1.401c-0.057,0.047-0.143,0.084-0.215,0.084c-1.029,0.005-2.057,0.004-3.086,0.003
		C582.075,125.046,582.05,125.039,581.971,125.027z"/>
	<path display="inline" d="M205.83,255.991c-15.993,0.002-31.989,0.164-47.98-0.053c-11.384-0.155-19.547-8.183-19.83-18.882
		c-0.294-11.123,8.168-19.879,20.349-19.967c32.318-0.234,64.641-0.238,96.959,0.015c11.947,0.094,19.672,8.402,19.719,19.981
		c0.043,10.571-8.092,18.649-19.739,18.838C238.82,256.189,222.323,255.989,205.83,255.991z"/>
</g>
<g display="none">
	<path display="inline" d="M511,196.244c0,1.328,0,2.656,0,3.984c-2.164,7.43-7.345,12.672-12.661,17.924
		c-14.391,14.214-28.581,28.632-42.984,42.834c-2.446,2.412-3.377,4.849-3.36,8.264c0.131,26.859-0.045,53.72,0.145,80.579
		c0.056,7.871-2.39,14.41-7.295,20.495c-23.301,28.91-46.501,57.902-69.575,86.993c-4.74,5.976-9.422,11.792-16.672,14.845
		c-100.605,0-201.211,0-301.816,0c-2.512-1.19-5.191-2.121-7.504-3.618c-7.389-4.783-8.958-12.212-8.954-20.364
		c0.03-57.534,0.016-115.067,0.016-172.601c0-2.096,0-4.193,0-7.089c-3.026,1.422-5.155,2.682-7.45,3.445
		c-4.183,1.389-8.458,3.476-12.705,3.502C10.239,275.497,5.125,270.375,1,258.002c0-1.66,0-3.32,0-4.98
		c1.85-4.003,3.607-8.053,5.567-12.001c11.79-23.75,23.529-47.528,35.564-71.154c1.657-3.253,4.422-6.343,7.419-8.449
		c35.69-25.088,71.584-49.888,107.26-74.996c6.42-4.518,13.115-6.538,20.861-6.534c84.644,0.047,169.289-0.019,253.933-0.048
		c8.179-0.003,14.215,3.698,18.379,10.664c17.696,29.603,35.488,59.148,53.039,88.837C506.179,184.679,508.365,190.594,511,196.244z
		 M79.682,433.213c2.208,0,4.151,0,6.094,0c80.812,0,161.623,0.001,242.435-0.002c6.357,0,6.364-0.011,6.364-6.589
		c0.002-74.174,0.002-148.348,0-222.523c0-6.553-0.008-6.567-6.406-6.568c-80.812-0.003-161.623-0.002-242.435-0.002
		c-1.937,0-3.875,0-6.051,0C79.682,276.358,79.682,354.451,79.682,433.213z M384.375,119.157c-2.288-0.131-3.866-0.299-5.444-0.299
		c-65.202-0.013-130.403-0.046-195.604,0.104c-2.906,0.007-6.235,1.067-8.642,2.704c-16.043,10.907-31.893,22.099-47.793,33.216
		c-1.228,0.858-2.368,1.842-4.145,3.234c1.555,0.209,2.045,0.333,2.534,0.333c72.336,0.011,144.671,0.035,217.006-0.098
		c2.005-0.004,4.462-1.221,5.939-2.662c11.281-11.006,22.374-22.203,33.509-33.357C382.512,121.552,383.153,120.636,384.375,119.157
		z"/>
	<path fill="#FFFFFF" d="M597.841,126.587c-0.107-0.23-0.197-0.472-0.325-0.689c-0.716-1.211-1.441-2.416-2.163-3.623
		c-0.17-0.284-0.416-0.435-0.75-0.435c-3.452,0.001-6.904,0.004-10.357,0.002c-0.316,0-0.589,0.082-0.851,0.266
		c-1.455,1.024-2.919,2.035-4.375,3.059c-0.122,0.086-0.235,0.212-0.303,0.345c-0.491,0.964-0.97,1.933-1.451,2.902
		c-0.08,0.161-0.152,0.326-0.227,0.489c0-3.952,0-7.905,0-11.86c6.933,0,13.867,0,20.8,0
		C597.841,120.226,597.841,123.407,597.841,126.587z"/>
	<path fill="#FFFFFF" d="M591.625,137.841c0.296-0.125,0.487-0.362,0.68-0.605c0.941-1.186,1.887-2.369,2.838-3.548
		c0.2-0.248,0.3-0.515,0.297-0.836c-0.008-1.095-0.001-2.191-0.006-3.286c-0.001-0.139,0.037-0.239,0.137-0.337
		c0.587-0.579,1.166-1.167,1.753-1.747c0.217-0.214,0.428-0.428,0.516-0.731c0,3.697,0,7.394,0,11.091
		C595.769,137.841,593.697,137.841,591.625,137.841z"/>
	<path fill="#FFFFFF" d="M577.041,129.106c0.168,0.505,0.377,0.714,0.782,0.711c0.173-0.001,0.348-0.086,0.518-0.143
		c0.094-0.031,0.18-0.082,0.304-0.14c0,0.118,0,0.204,0,0.289c0,2.346,0.001,4.693-0.001,7.039c0,0.332,0.064,0.635,0.365,0.831
		c0.094,0.061,0.204,0.099,0.306,0.148c-0.758,0-1.517,0-2.275,0C577.041,134.929,577.041,132.018,577.041,129.106z"/>
	<path fill="#FFFFFF" d="M580.25,136.252c0-3.212,0-6.397,0-9.612c0.089,0,0.168,0,0.247,0c3.296,0,6.592,0,9.888,0
		c0.261,0,0.261,0.001,0.261,0.268c0,3.025,0,6.05,0,9.075c0,0.268,0,0.269-0.26,0.269c-3.296,0-6.592,0-9.888,0
		C580.419,136.252,580.34,136.252,580.25,136.252z M585.408,129.028c0.669,0,1.339,0.008,2.008-0.003
		c0.473-0.008,0.804-0.335,0.803-0.763c-0.001-0.47-0.314-0.808-0.799-0.812c-1.312-0.011-2.623-0.01-3.935-0.001
		c-0.494,0.003-0.839,0.358-0.827,0.809c0.011,0.434,0.342,0.761,0.803,0.768C584.109,129.035,584.758,129.028,585.408,129.028z"/>
	<path fill="#FFFFFF" d="M592.676,123.444c-0.05,0.06-0.076,0.098-0.108,0.129c-0.454,0.455-0.907,0.912-1.367,1.36
		c-0.06,0.059-0.16,0.108-0.242,0.109c-2.95,0.005-5.9,0.004-8.85,0.004c-0.02,0-0.04-0.005-0.103-0.014
		c0.072-0.057,0.119-0.097,0.169-0.132c0.648-0.453,1.295-0.91,1.949-1.355c0.098-0.067,0.234-0.11,0.352-0.11
		c2.659-0.006,5.318-0.005,7.978-0.004C592.519,123.431,592.583,123.438,592.676,123.444z"/>
	<path display="inline" d="M206.15,256.086c-15.915,0-31.831,0.165-47.743-0.055c-11.309-0.157-19.427-8.172-19.697-18.823
		c-0.281-11.056,8.163-19.751,20.285-19.836c32.159-0.226,64.322-0.237,96.481,0.021c11.882,0.095,19.553,8.386,19.587,19.915
		c0.031,10.501-8.087,18.528-19.678,18.712C238.977,256.28,222.562,256.086,206.15,256.086z"/>
</g>
<g display="none">
	<path display="inline" d="M1,257.457c0-1.66,0-3.32,0-4.98c1.558-3.407,3.024-6.861,4.689-10.215
		c12.085-24.341,24.125-48.704,36.427-72.935c1.586-3.124,4.151-6.157,7.012-8.166c36.778-25.839,73.664-51.524,110.626-77.098
		c2.758-1.908,6.253-3.611,9.498-3.798c11.568-0.667,23.243-1.51,34.752-0.633c12.138,0.925,22.051-1.364,29.024-11.977
		c0.53-0.807,1.41-1.399,2.174-2.035c7.178-5.986,17.452-6.216,24.666-0.2c4.277,3.566,8.138,7.632,12.466,11.739
		c11.547-9.852,23.406-19.945,35.236-30.073c10.996-9.413,21.42-8.93,31.493,1.572c8.845,9.221,17.544,18.587,26.556,27.641
		c1.637,1.645,4.468,2.937,6.762,2.961c19.413,0.202,38.83,0.151,58.245,0.003c8.574-0.066,14.976,3.371,19.363,10.71
		c17.694,29.599,35.485,59.14,53.034,88.824c3.157,5.34,5.343,11.254,7.977,16.903c0,1.328,0,2.656,0,3.984
		c-2.164,7.43-7.345,12.672-12.661,17.924c-14.391,14.214-28.581,28.632-42.984,42.834c-2.446,2.412-3.377,4.849-3.36,8.264
		c0.131,26.859-0.045,53.72,0.145,80.579c0.056,7.871-2.39,14.41-7.295,20.495c-23.301,28.91-46.501,57.902-69.575,86.993
		c-4.74,5.976-9.422,11.792-16.672,14.845c-100.605,0-201.211,0-301.816,0c-2.512-1.19-5.191-2.121-7.504-3.618
		c-7.389-4.783-8.958-12.212-8.954-20.364c0.03-57.534,0.016-115.067,0.016-172.601c0-2.096,0-4.193,0-7.089
		c-3.026,1.422-5.155,2.682-7.45,3.445c-4.183,1.389-8.458,3.476-12.705,3.502C10.239,274.953,5.125,269.831,1,257.457z
		 M79.686,432.668c2.421,0,4.221,0,6.021,0c80.81,0,161.62,0.001,242.429-0.001c6.43,0,6.438-0.01,6.438-6.515
		c0.002-74.173,0.001-148.345,0.001-222.518c0-1.949,0-3.898,0-6.245c-85.241,0-169.92,0-254.89,0
		C79.686,275.775,79.686,353.866,79.686,432.668z M321.37,86.476c-8.265,7.062-16.028,13.694-24.076,20.57
		c3.371,3.875,6.384,7.357,9.417,10.823c10.913,12.466,21.854,24.91,32.734,37.405c2.069,2.376,4.431,4.122,7.116,1.538
		c7.233-6.961,14.21-14.187,21.488-21.507C352.394,118.929,337.076,102.905,321.37,86.476z M289.85,157.683
		c-14.665-16.725-28.59-32.607-40.98-46.739c-16.522,15.6-32.7,30.876-49.5,46.739C229.785,157.683,259.217,157.683,289.85,157.683z
		 M182.849,120.229c-0.435-0.504-0.869-1.008-1.304-1.513c-3.848-0.129-52.076,32.176-57.828,38.742
		c11.917,1.57,23.353,1.984,31.021-9.981c1.753-2.735,4.509-4.852,6.907-7.145C168.685,133.602,175.777,126.927,182.849,120.229z"/>
	<path fill="#FFFFFF" d="M597.841,126.587c-0.107-0.23-0.197-0.472-0.325-0.689c-0.716-1.211-1.441-2.415-2.163-3.623
		c-0.179-0.299-0.44-0.439-0.79-0.437c-0.792,0.006-1.584,0.008-2.375,0c-0.094-0.001-0.209-0.054-0.276-0.121
		c-0.368-0.369-0.722-0.751-1.083-1.127c-0.411-0.428-0.836-0.448-1.284-0.064c-0.482,0.413-0.966,0.825-1.437,1.226
		c-0.177-0.168-0.334-0.333-0.508-0.479c-0.294-0.245-0.713-0.236-1.006,0.008c-0.031,0.026-0.067,0.05-0.089,0.083
		c-0.284,0.433-0.689,0.526-1.184,0.488c-0.469-0.036-0.946-0.001-1.417,0.026c-0.132,0.008-0.275,0.077-0.387,0.155
		c-1.508,1.043-3.012,2.091-4.512,3.144c-0.117,0.082-0.221,0.206-0.286,0.333c-0.502,0.988-0.993,1.982-1.486,2.975
		c-0.068,0.137-0.128,0.278-0.191,0.417c0-3.952,0-7.905,0-11.86c6.933,0,13.867,0,20.8,0
		C597.841,120.226,597.841,123.407,597.841,126.587z"/>
	<path fill="#FFFFFF" d="M591.625,137.841c0.296-0.125,0.487-0.362,0.68-0.605c0.941-1.186,1.887-2.369,2.838-3.548
		c0.2-0.248,0.3-0.515,0.297-0.836c-0.008-1.095-0.001-2.191-0.006-3.286c-0.001-0.139,0.037-0.239,0.137-0.337
		c0.587-0.579,1.166-1.167,1.753-1.747c0.217-0.214,0.428-0.428,0.516-0.731c0,3.697,0,7.394,0,11.091
		C595.769,137.841,593.697,137.841,591.625,137.841z"/>
	<path fill="#FFFFFF" d="M577.041,129.106c0.168,0.505,0.377,0.714,0.782,0.711c0.173-0.001,0.348-0.086,0.518-0.143
		c0.094-0.031,0.18-0.082,0.304-0.14c0,0.118,0,0.204,0,0.289c0,2.346,0.001,4.693-0.001,7.039c0,0.332,0.064,0.635,0.365,0.831
		c0.094,0.061,0.204,0.099,0.306,0.148c-0.758,0-1.517,0-2.275,0C577.041,134.929,577.041,132.018,577.041,129.106z"/>
	<path fill="#FFFFFF" d="M580.25,136.252c0-3.214,0-6.399,0-9.596c3.465,0,6.919,0,10.396,0c0,0.096,0,0.175,0,0.255
		c0,3.025,0,6.05,0,9.075c0,0.265,0,0.266-0.263,0.266c-3.296,0-6.591,0-9.887,0C580.422,136.252,580.349,136.252,580.25,136.252z
		 M585.409,129.028c0.669,0,1.339,0.008,2.008-0.003c0.473-0.008,0.803-0.335,0.801-0.764c-0.002-0.47-0.315-0.807-0.8-0.811
		c-1.312-0.01-2.623-0.01-3.935-0.001c-0.494,0.004-0.838,0.359-0.826,0.81c0.011,0.434,0.343,0.76,0.805,0.766
		C584.111,129.035,584.76,129.028,585.409,129.028z"/>
	<path fill="#FFFFFF" d="M590.107,122.133c0.641,0.67,1.265,1.324,1.904,1.991c-0.297,0.299-0.581,0.593-0.876,0.877
		c-0.109,0.105-0.206,0.034-0.29-0.063c-0.444-0.51-0.89-1.017-1.335-1.526c-0.124-0.141-0.247-0.283-0.384-0.441
		C589.453,122.691,589.77,122.421,590.107,122.133z"/>
	<path fill="#FFFFFF" d="M588.821,125.037c-1.249,0-2.45,0-3.69,0c0.685-0.647,1.345-1.27,2.019-1.906
		C587.655,123.707,588.223,124.355,588.821,125.037z"/>
	<path fill="#FFFFFF" d="M584.457,123.51c-0.288,0.273-0.578,0.545-0.865,0.82c-0.098,0.094-0.21,0.18-0.282,0.291
		c-0.313,0.488-0.779,0.471-1.265,0.407c0.235-0.268,2.202-1.585,2.358-1.58C584.422,123.468,584.439,123.489,584.457,123.51z"/>
	<path display="inline" d="M206.183,255.541c-15.915,0.001-31.831,0.164-47.743-0.053c-11.326-0.155-19.448-8.145-19.729-18.792
		c-0.292-11.067,8.131-19.778,20.252-19.865c32.159-0.232,64.322-0.237,96.481,0.016c11.888,0.093,19.573,8.364,19.618,19.885
		c0.041,10.517-8.055,18.554-19.645,18.741C239.009,255.737,222.594,255.539,206.183,255.541z"/>
</g>
</svg>
