<?xml version="1.0" encoding="utf-8"?>
<!-- Generator: Adobe Illustrator 17.0.0, SVG Export Plug-In . SVG Version: 6.00 Build 0)  -->
<!DOCTYPE svg PUBLIC "-//W3C//DTD SVG 1.1//EN" "http://www.w3.org/Graphics/SVG/1.1/DTD/svg11.dtd">
<svg version="1.1" id="Layer_1" xmlns="http://www.w3.org/2000/svg" xmlns:xlink="http://www.w3.org/1999/xlink" x="0px" y="0px"
	 width="512px" height="512px" viewBox="0 0 512 512" enable-background="new 0 0 512 512" xml:space="preserve">
<g>
	<line fill="none" stroke="#B35047" x1="32" y1="0" x2="32" y2="512"/>
	<line fill="none" stroke="#B35047" x1="64" y1="0" x2="64" y2="512"/>
	<line fill="none" stroke="#B35047" x1="96" y1="0" x2="96" y2="512"/>
	<line fill="none" stroke="#B35047" x1="128" y1="0" x2="128" y2="512"/>
	<line fill="none" stroke="#B35047" x1="160" y1="0" x2="160" y2="512"/>
	<line fill="none" stroke="#B35047" x1="192" y1="0" x2="192" y2="512"/>
	<line fill="none" stroke="#B35047" x1="224" y1="0" x2="224" y2="512"/>
	<line fill="none" stroke="#B35047" x1="256" y1="0" x2="256" y2="512"/>
	<line fill="none" stroke="#B35047" x1="288" y1="0" x2="288" y2="512"/>
	<line fill="none" stroke="#B35047" x1="320" y1="0" x2="320" y2="512"/>
	<line fill="none" stroke="#B35047" x1="352" y1="0" x2="352" y2="512"/>
	<line fill="none" stroke="#B35047" x1="384" y1="0" x2="384" y2="512"/>
	<line fill="none" stroke="#B35047" x1="416" y1="0" x2="416" y2="512"/>
	<line fill="none" stroke="#B35047" x1="448" y1="0" x2="448" y2="512"/>
	<line fill="none" stroke="#B35047" x1="480" y1="0" x2="480" y2="512"/>
	<line fill="none" stroke="#B35047" x1="0" y1="32" x2="512" y2="32"/>
	<line fill="none" stroke="#B35047" x1="0" y1="64" x2="512" y2="64"/>
	<line fill="none" stroke="#B35047" x1="0" y1="96" x2="512" y2="96"/>
	<line fill="none" stroke="#B35047" x1="0" y1="128" x2="512" y2="128"/>
	<line fill="none" stroke="#B35047" x1="0" y1="160" x2="512" y2="160"/>
	<line fill="none" stroke="#B35047" x1="0" y1="192" x2="512" y2="192"/>
	<line fill="none" stroke="#B35047" x1="0" y1="224" x2="512" y2="224"/>
	<line fill="none" stroke="#B35047" x1="0" y1="256" x2="512" y2="256"/>
	<line fill="none" stroke="#B35047" x1="0" y1="288" x2="512" y2="288"/>
	<line fill="none" stroke="#B35047" x1="0" y1="320" x2="512" y2="320"/>
	<line fill="none" stroke="#B35047" x1="0" y1="352" x2="512" y2="352"/>
	<line fill="none" stroke="#B35047" x1="0" y1="384" x2="512" y2="384"/>
	<line fill="none" stroke="#B35047" x1="0" y1="416" x2="512" y2="416"/>
	<line fill="none" stroke="#B35047" x1="0" y1="448" x2="512" y2="448"/>
	<line fill="none" stroke="#B35047" x1="0" y1="480" x2="512" y2="480"/>
	<rect x="0" fill="none" stroke="#B35047" width="512" height="512"/>
</g>
<g display="none">
	<path fill="#FFFFFF" d="M605.041,73.662c0-6.541,0-13.081,0-19.622c6.933,0,13.867,0,20.8,0c0,6.933,0,13.867,0,20.8
		c-6.933,0-13.867,0-20.8,0c0-0.298,0-0.596,0-0.894c0.07,0.13,0.122,0.273,0.212,0.386c0.254,0.318,0.642,0.327,0.997,0.377
		c0.95,0.134,1.89,0.043,2.818-0.188c1.62-0.403,3.101-1.107,4.458-2.077c0.082-0.059,0.21-0.096,0.309-0.083
		c1.313,0.174,2.621,0.149,3.917-0.129c2.443-0.524,4.513-1.689,6.076-3.662c1.439-1.817,2.058-3.896,1.795-6.206
		c-0.22-1.928-1.051-3.588-2.403-4.968c-1.981-2.021-4.426-3.036-7.232-3.183c-1.754-0.092-3.448,0.206-5.061,0.925
		c-1.825,0.814-3.343,2.001-4.404,3.709c-1.468,2.362-1.731,4.866-0.756,7.48c0.455,1.218,1.185,2.259,2.115,3.163
		c0.104,0.101,0.157,0.195,0.095,0.335c-0.122,0.276-0.21,0.573-0.368,0.826c-0.32,0.514-0.814,0.862-1.277,1.237
		C605.745,72.366,605.176,72.856,605.041,73.662z"/>
	<path display="inline" d="M1,482.747c3.354-19.913,17.397-32.034,31.922-43.812c11.424-9.263,23.634-17.871,31.546-30.565
		c3.9-6.258,6.075-13.587,9.082-20.408c1.525-3.46,0.235-5.772-2.345-8.28c-22.964-22.319-41.017-48.062-52.247-78.144
		c-24.111-64.591-17.61-126.455,18.668-184.824c26.218-42.182,63.713-71.532,108.809-91.631
		C186.288,7.32,228.147-0.045,271.491,2.231c69.336,3.642,129.745,28.705,178.679,78.642c33.413,34.098,53.941,75.1,59.371,122.739
		c6.503,57.063-8.799,108.44-44.354,153.325c-38.624,48.761-89.758,77.546-150.127,90.488c-32.021,6.865-64.319,7.479-96.771,3.189
		c-2.442-0.323-5.608,0.593-7.64,2.046c-33.53,23.988-70.113,41.37-110.152,51.328c-22.916,5.699-46.148,7.953-69.619,4.641
		c-8.765-1.237-18.353-1.464-24.628-9.31c-2.235-2.795-3.527-6.344-5.249-9.549C1,487.431,1,485.089,1,482.747z M57.273,469.727
		c0.186,0.499,0.373,0.998,0.559,1.497c7.587-0.992,15.265-1.536,22.746-3.051c42.329-8.572,80.383-26.488,114.359-53.093
		c5.881-4.605,12.261-6.242,19.676-4.927c30.098,5.338,60.234,5.47,90.217-0.656c52.019-10.627,96.047-35.035,129.652-76.758
		c43.991-54.619,49.658-128.77,14.314-189.229c-25.324-43.318-63.328-71.364-109.768-88.425
		c-38.575-14.172-78.448-17.622-118.977-11.003c-56.246,9.185-104.245,33.974-139.327,79.551
		C42.399,173.426,33.508,228.769,55.8,288.106c10.306,27.433,27.486,50.34,49.393,69.676c5.75,5.075,9.232,11.048,9.037,18.713
		c-0.378,14.87-3.472,29.126-10.272,42.488c-8.601,16.901-21.478,30.106-35.948,41.961C64.434,463.875,60.852,466.8,57.273,469.727z
		"/>
	<path fill="#FFFFFF" d="M607.318,73.136c0.145-0.118,0.29-0.237,0.435-0.355c0.586-0.48,1.107-1.014,1.455-1.698
		c0.275-0.541,0.4-1.118,0.416-1.72c0.008-0.31-0.133-0.552-0.366-0.757c-0.887-0.783-1.582-1.71-1.999-2.82
		c-0.902-2.402-0.542-4.642,1.009-6.657c1.42-1.845,3.363-2.848,5.639-3.22c1.64-0.268,3.254-0.128,4.815,0.445
		c1.88,0.691,3.418,1.826,4.443,3.579c1.431,2.447,1.201,5.448-0.579,7.659c-1.36,1.689-3.142,2.677-5.247,3.107
		c-1.214,0.248-2.433,0.243-3.651,0.027c-0.3-0.053-0.558,0.013-0.796,0.199c-1.375,1.077-2.915,1.802-4.629,2.149
		c-0.303,0.061-0.614,0.083-0.921,0.123C607.333,73.176,607.326,73.156,607.318,73.136z"/>
</g>
<image display="none" overflow="visible" width="512" height="512" xlink:href="../../../Knowledge/Icon/[+++++] (Full) Windows 8 Icons [icons8]/Gamble/dice/dice-512.png"  transform="matrix(0.0406 0 0 0.0406 581 41)">
</image>
<image display="none" overflow="visible" width="512" height="512" xlink:href="../../../Knowledge/Icon/[+++++] (Full) Windows 8 Icons [icons8]/Gamble/clover/clover-512.png"  transform="matrix(0.0406 0 0 0.0406 581 41)">
</image>
<g>
	<path display="none" fill="#FFFFFF" d="M591.644,61.841c-3.534,0-7.069,0-10.603,0c0-6.933,0-13.867,0-20.8
		c6.933,0,13.867,0,20.8,0c0,1.679,0,3.358,0,5.037c-0.05-0.015-0.099-0.036-0.15-0.045c-0.263-0.047-0.53-0.145-0.788-0.124
		c-0.698,0.056-1.15,0.457-1.355,1.126c-0.034,0.11-0.077,0.145-0.193,0.15c-0.378,0.016-0.758,0.033-1.134,0.076
		c-1.29,0.146-2.466,0.59-3.504,1.378c-1.169,0.887-1.962,2.056-2.535,3.39c-0.028,0.064-0.055,0.129-0.102,0.239
		c-0.021-0.079-0.029-0.102-0.033-0.126c-0.186-0.959-0.45-1.892-0.88-2.774c-1.22-2.502-3.26-3.839-5.977-4.213
		c-0.156-0.021-0.199-0.071-0.21-0.218c-0.07-0.93-0.862-1.56-1.781-1.425c-0.87,0.128-1.474,1.001-1.279,1.848
		c0.207,0.897,1.089,1.422,1.953,1.169c0.397-0.116,0.685-0.366,0.921-0.709c0.132,0.101,0.258,0.191,0.376,0.29
		c0.675,0.567,1.175,1.25,1.377,2.122c0.178,0.77,0.126,1.542-0.094,2.288c-0.305,1.036-0.666,2.056-1.001,3.083
		c-0.253,0.775-0.482,1.559-0.378,2.384c0.048,0.381,0.19,0.751,0.292,1.139c0.025-0.013,0.008-0.002-0.01,0.005
		c-0.659,0.234-1.041,0.705-1.094,1.395c-0.053,0.686,0.261,1.21,0.863,1.533c1.663,0.892,3.44,1.428,5.31,1.657
		C590.837,61.765,591.241,61.799,591.644,61.841z"/>
	<path d="M250.419,490.431c-10.297-1.05-20.616-1.924-30.888-3.181c-47.802-5.853-93.212-19.542-135.699-42.34
		c-15.385-8.256-23.412-21.647-22.05-39.166c1.372-17.634,11.131-29.651,27.967-35.641c0.47-0.167,0.896-0.455,0.265-0.128
		c-2.625-9.92-6.24-19.362-7.473-29.107c-2.667-21.074,3.191-41.126,9.647-60.925c8.559-26.252,17.78-52.307,25.572-78.784
		c5.61-19.063,6.942-38.801,2.402-58.476c-5.145-22.299-17.92-39.759-35.18-54.238c-3.022-2.535-6.245-4.829-9.61-7.415
		c-6.014,8.757-13.383,15.142-23.528,18.108c-22.063,6.449-44.608-6.949-49.9-29.878c-4.998-21.653,10.435-43.958,32.677-47.227
		c23.471-3.45,43.709,12.645,45.508,36.412c0.286,3.773,1.379,5.034,5.377,5.583c69.426,9.537,121.567,43.723,152.734,107.651
		c10.988,22.537,17.719,46.391,22.48,70.887c0.119,0.615,0.317,1.214,0.851,3.222c1.204-2.82,1.904-4.469,2.611-6.115
		c14.636-34.08,34.903-63.965,64.78-86.633c26.532-20.13,56.586-31.468,89.54-35.208c9.607-1.09,19.3-1.534,28.967-1.931
		c2.956-0.121,4.075-1.04,4.934-3.839c5.242-17.085,16.782-27.324,34.632-28.765c6.587-0.531,13.428,1.987,20.141,3.178
		c1.301,0.231,2.55,0.756,3.823,1.145c0,23.186,0,46.372,0,69.557c-0.338-0.028-0.755-0.198-1.004-0.062
		c-21.373,11.685-46.001,1.514-54.862-16.492c-0.515-1.047-3.484-1.843-4.835-1.377c-17.415,6.002-34.002,13.744-48.311,25.548
		c-17.267,14.245-27.086,32.224-22.952,55.036c2.128,11.743,5.623,23.706,11.009,34.293c10.799,21.231,23.6,41.432,35.041,62.35
		c8.79,16.071,17.653,32.402,10.417,51.967c10.95,2.297,19.992,7.173,26.234,16.048c15.115,21.493,8.689,48.271-14.984,60.873
		c-42.248,22.491-87.363,36.063-134.827,41.881c-10.099,1.238-20.239,2.134-30.36,3.187
		C271.183,490.431,260.801,490.431,250.419,490.431z M160.21,136.34c3.151,19.601,2.954,38.149,0.17,56.728
		c-3.655,24.392-11.834,47.478-19.59,70.74c-6.377,19.127-12.646,38.374-17.319,57.96c-4.467,18.724,0.748,30.385,16.468,39.046
		c8.198,4.517,17.608,6.966,26.639,9.812c17.202,5.42,34.794,8.71,52.935,8.704c4.309-0.001,5.522-1.566,5.462-5.788
		c-0.22-15.557-0.73-31.154,0.096-46.671c1.312-24.633,0.277-49.08-3.706-73.371c-5.167-31.514-15.002-61.355-33.506-87.79
		C180.322,154.942,171.798,145.007,160.21,136.34z"/>
	<path display="none" fill="#FFFFFF" d="M592.862,61.841c0.396-0.041,0.793-0.076,1.188-0.125c1.857-0.228,3.623-0.759,5.276-1.639
		c0.926-0.493,1.178-1.541,0.586-2.382c-0.244-0.347-0.598-0.538-1.027-0.628c0.283-0.766-0.064-1.405-0.408-2.034
		c-0.448-0.819-0.949-1.609-1.371-2.44c-0.211-0.414-0.347-0.882-0.431-1.342c-0.162-0.893,0.222-1.596,0.898-2.154
		c0.56-0.462,1.209-0.765,1.89-1c0.053-0.018,0.169,0.013,0.189,0.054c0.347,0.705,1.31,1.103,2.147,0.645
		c0.01-0.005,0.026,0.001,0.039,0.002c0,4.343,0,8.686,0,13.041C598.848,61.841,595.855,61.841,592.862,61.841z"/>
	<path display="none" fill="#FFFFFF" d="M588.114,47.985c0.453,0.339,0.787,0.728,1.082,1.149c0.724,1.034,1.109,2.202,1.311,3.435
		c0.156,0.951,0.196,1.907,0.145,2.871c-0.032,0.607-0.012,1.218-0.004,1.826c0.002,0.165-0.045,0.226-0.214,0.227
		c-0.71,0-1.398-0.129-2.071-0.341c-0.353-0.111-0.722-0.207-1.042-0.384c-0.615-0.339-0.819-0.795-0.644-1.528
		c0.183-0.766,0.428-1.52,0.678-2.268c0.304-0.91,0.624-1.814,0.767-2.768C588.229,49.477,588.237,48.752,588.114,47.985z"/>
</g>
</svg>
