<?xml version="1.0" encoding="utf-8"?>
<!-- Generator: Adobe Illustrator 17.0.0, SVG Export Plug-In . SVG Version: 6.00 Build 0)  -->
<!DOCTYPE svg PUBLIC "-//W3C//DTD SVG 1.1//EN" "http://www.w3.org/Graphics/SVG/1.1/DTD/svg11.dtd">
<svg version="1.1" id="Layer_1" xmlns="http://www.w3.org/2000/svg" xmlns:xlink="http://www.w3.org/1999/xlink" x="0px" y="0px"
	 width="512px" height="512px" viewBox="0 0 512 512" enable-background="new 0 0 512 512" xml:space="preserve">
<g>
	<line fill="none" stroke="#B35047" x1="32" y1="0" x2="32" y2="512"/>
	<line fill="none" stroke="#B35047" x1="64" y1="0" x2="64" y2="512"/>
	<line fill="none" stroke="#B35047" x1="96" y1="0" x2="96" y2="512"/>
	<line fill="none" stroke="#B35047" x1="128" y1="0" x2="128" y2="512"/>
	<line fill="none" stroke="#B35047" x1="160" y1="0" x2="160" y2="512"/>
	<line fill="none" stroke="#B35047" x1="192" y1="0" x2="192" y2="512"/>
	<line fill="none" stroke="#B35047" x1="224" y1="0" x2="224" y2="512"/>
	<line fill="none" stroke="#B35047" x1="256" y1="0" x2="256" y2="512"/>
	<line fill="none" stroke="#B35047" x1="288" y1="0" x2="288" y2="512"/>
	<line fill="none" stroke="#B35047" x1="320" y1="0" x2="320" y2="512"/>
	<line fill="none" stroke="#B35047" x1="352" y1="0" x2="352" y2="512"/>
	<line fill="none" stroke="#B35047" x1="384" y1="0" x2="384" y2="512"/>
	<line fill="none" stroke="#B35047" x1="416" y1="0" x2="416" y2="512"/>
	<line fill="none" stroke="#B35047" x1="448" y1="0" x2="448" y2="512"/>
	<line fill="none" stroke="#B35047" x1="480" y1="0" x2="480" y2="512"/>
	<line fill="none" stroke="#B35047" x1="0" y1="32" x2="512" y2="32"/>
	<line fill="none" stroke="#B35047" x1="0" y1="64" x2="512" y2="64"/>
	<line fill="none" stroke="#B35047" x1="0" y1="96" x2="512" y2="96"/>
	<line fill="none" stroke="#B35047" x1="0" y1="128" x2="512" y2="128"/>
	<line fill="none" stroke="#B35047" x1="0" y1="160" x2="512" y2="160"/>
	<line fill="none" stroke="#B35047" x1="0" y1="192" x2="512" y2="192"/>
	<line fill="none" stroke="#B35047" x1="0" y1="224" x2="512" y2="224"/>
	<line fill="none" stroke="#B35047" x1="0" y1="256" x2="512" y2="256"/>
	<line fill="none" stroke="#B35047" x1="0" y1="288" x2="512" y2="288"/>
	<line fill="none" stroke="#B35047" x1="0" y1="320" x2="512" y2="320"/>
	<line fill="none" stroke="#B35047" x1="0" y1="352" x2="512" y2="352"/>
	<line fill="none" stroke="#B35047" x1="0" y1="384" x2="512" y2="384"/>
	<line fill="none" stroke="#B35047" x1="0" y1="416" x2="512" y2="416"/>
	<line fill="none" stroke="#B35047" x1="0" y1="448" x2="512" y2="448"/>
	<line fill="none" stroke="#B35047" x1="0" y1="480" x2="512" y2="480"/>
	<rect x="0" fill="none" stroke="#B35047" width="512" height="512"/>
</g>
<image display="none" overflow="visible" width="512" height="512" xlink:href="../../../Knowledge/Icon/[+++++] (Full) Windows 8 Icons [icons8]/Arrows/down/down-512.png"  transform="matrix(0.0406 0 0 0.0406 586 138)">
</image>
<image display="none" overflow="visible" width="512" height="512" xlink:href="../../../Knowledge/Icon/[+++++] (Full) Windows 8 Icons [icons8]/Arrows/up/up-512.png"  transform="matrix(0.0406 0 0 0.0406 586 138)">
</image>
<image display="none" overflow="visible" width="512" height="512" xlink:href="../../../Knowledge/Icon/[+++++] (Full) Windows 8 Icons [icons8]/Arrows/right_round/right_round-512.png"  transform="matrix(0.0406 0 0 0.0406 586 138)">
</image>
<image display="none" overflow="visible" width="512" height="512" xlink:href="../../../Knowledge/Icon/[+++++] (Full) Windows 8 Icons [icons8]/Arrows/right/right-512.png"  transform="matrix(0.0406 0 0 0.0406 586 138)">
</image>
<image display="none" overflow="visible" width="512" height="512" xlink:href="../../../Knowledge/Icon/[+++++] (Full) Windows 8 Icons [icons8]/Arrows/left_round/left_round-512.png"  transform="matrix(0.0406 0 0 0.0406 586 138)">
</image>
<g>
	<path display="none" fill="#FFFFFF" d="M12.398,158.84c-6.931,0-13.862,0-20.797,0c0-6.929,0-13.858,0-20.793
		c6.93,0,13.863,0,20.797,0C12.398,144.976,12.398,151.907,12.398,158.84z M1.993,144.451c0-0.116,0-0.197,0-0.277
		c-0.002-1.158,0.002-2.315-0.01-3.473c-0.002-0.22-0.047-0.443-0.104-0.656c-0.051-0.194-0.184-0.252-0.36-0.153
		c-0.199,0.111-0.399,0.237-0.559,0.396c-2.299,2.286-4.593,4.578-6.884,6.873c-0.205,0.205-0.395,0.429-0.569,0.661
		c-0.342,0.455-0.344,0.824,0.002,1.277c0.209,0.273,0.44,0.533,0.682,0.777c1.685,1.695,3.375,3.384,5.065,5.074
		c0.565,0.565,1.131,1.128,1.706,1.682c0.144,0.139,0.317,0.256,0.494,0.35c0.216,0.114,0.383,0.047,0.433-0.189
		c0.061-0.288,0.095-0.587,0.098-0.882c0.011-1.076,0.004-2.153,0.004-3.229c0-0.078,0-0.155,0-0.251c0.269,0,0.505,0,0.74,0
		c1.936-0.002,3.872,0.012,5.808-0.014c1.169-0.016,2.185-1.006,2.227-2.173c0.041-1.142,0.024-2.287,0.015-3.431
		c-0.002-0.246-0.048-0.501-0.125-0.735c-0.334-1.012-1.221-1.623-2.347-1.625c-2.011-0.004-4.021-0.001-6.032-0.001
		C2.194,144.451,2.107,144.451,1.993,144.451z"/>
	<path d="M255.136,140.048c3.318,0,5.833,0,8.349,0c58.444,0.001,116.889-0.079,175.333,0.035
		c32.713,0.064,58.497,17.813,68.21,47.242c2.246,6.804,3.587,14.228,3.643,21.379c0.259,33.246,0.766,66.528-0.44,99.738
		c-1.232,33.917-30.767,62.701-64.74,63.154c-56.269,0.751-112.554,0.327-168.832,0.395c-6.857,0.008-13.714,0.001-21.523,0.001
		c0,2.768,0,5.025,0,7.283c0,31.288,0.195,62.579-0.129,93.864c-0.089,8.567-1.086,17.255-2.862,25.634
		c-1.458,6.877-6.314,8.826-12.588,5.508c-5.152-2.725-10.169-6.141-14.357-10.173c-16.727-16.101-33.181-32.488-49.603-48.903
		c-49.128-49.109-98.247-98.227-147.224-147.486c-7.056-7.097-13.765-14.643-19.839-22.589
		c-10.068-13.173-10.002-23.88-0.067-37.118c5.063-6.746,10.591-13.236,16.549-19.203C91.614,152.107,158.29,85.484,225.126,19.023
		c4.651-4.625,10.47-8.286,16.241-11.511c5.119-2.86,8.973-1.181,10.468,4.453c1.646,6.201,2.953,12.696,3.017,19.077
		c0.336,33.646,0.234,67.297,0.283,100.946C255.139,134.334,255.136,136.679,255.136,140.048z"/>
</g>
</svg>
