<?xml version="1.0" encoding="utf-8"?>
<!-- Generator: Adobe Illustrator 17.0.0, SVG Export Plug-In . SVG Version: 6.00 Build 0)  -->
<!DOCTYPE svg PUBLIC "-//W3C//DTD SVG 1.1//EN" "http://www.w3.org/Graphics/SVG/1.1/DTD/svg11.dtd">
<svg version="1.1" id="Layer_1" xmlns="http://www.w3.org/2000/svg" xmlns:xlink="http://www.w3.org/1999/xlink" x="0px" y="0px"
	 width="512px" height="512px" viewBox="0 0 512 512" enable-background="new 0 0 512 512" xml:space="preserve">
<g>
	<line fill="none" stroke="#B35047" x1="32" y1="0" x2="32" y2="512"/>
	<line fill="none" stroke="#B35047" x1="64" y1="0" x2="64" y2="512"/>
	<line fill="none" stroke="#B35047" x1="96" y1="0" x2="96" y2="512"/>
	<line fill="none" stroke="#B35047" x1="128" y1="0" x2="128" y2="512"/>
	<line fill="none" stroke="#B35047" x1="160" y1="0" x2="160" y2="512"/>
	<line fill="none" stroke="#B35047" x1="192" y1="0" x2="192" y2="512"/>
	<line fill="none" stroke="#B35047" x1="224" y1="0" x2="224" y2="512"/>
	<line fill="none" stroke="#B35047" x1="256" y1="0" x2="256" y2="512"/>
	<line fill="none" stroke="#B35047" x1="288" y1="0" x2="288" y2="512"/>
	<line fill="none" stroke="#B35047" x1="320" y1="0" x2="320" y2="512"/>
	<line fill="none" stroke="#B35047" x1="352" y1="0" x2="352" y2="512"/>
	<line fill="none" stroke="#B35047" x1="384" y1="0" x2="384" y2="512"/>
	<line fill="none" stroke="#B35047" x1="416" y1="0" x2="416" y2="512"/>
	<line fill="none" stroke="#B35047" x1="448" y1="0" x2="448" y2="512"/>
	<line fill="none" stroke="#B35047" x1="480" y1="0" x2="480" y2="512"/>
	<line fill="none" stroke="#B35047" x1="0" y1="32" x2="512" y2="32"/>
	<line fill="none" stroke="#B35047" x1="0" y1="64" x2="512" y2="64"/>
	<line fill="none" stroke="#B35047" x1="0" y1="96" x2="512" y2="96"/>
	<line fill="none" stroke="#B35047" x1="0" y1="128" x2="512" y2="128"/>
	<line fill="none" stroke="#B35047" x1="0" y1="160" x2="512" y2="160"/>
	<line fill="none" stroke="#B35047" x1="0" y1="192" x2="512" y2="192"/>
	<line fill="none" stroke="#B35047" x1="0" y1="224" x2="512" y2="224"/>
	<line fill="none" stroke="#B35047" x1="0" y1="256" x2="512" y2="256"/>
	<line fill="none" stroke="#B35047" x1="0" y1="288" x2="512" y2="288"/>
	<line fill="none" stroke="#B35047" x1="0" y1="320" x2="512" y2="320"/>
	<line fill="none" stroke="#B35047" x1="0" y1="352" x2="512" y2="352"/>
	<line fill="none" stroke="#B35047" x1="0" y1="384" x2="512" y2="384"/>
	<line fill="none" stroke="#B35047" x1="0" y1="416" x2="512" y2="416"/>
	<line fill="none" stroke="#B35047" x1="0" y1="448" x2="512" y2="448"/>
	<line fill="none" stroke="#B35047" x1="0" y1="480" x2="512" y2="480"/>
	<rect x="0" fill="none" stroke="#B35047" width="512" height="512"/>
</g>
<image display="none" overflow="visible" width="512" height="512" xlink:href="../../../Knowledge/Icon/[+++++] (Full) Windows 8 Icons [icons8]/Arrows/down/down-512.png"  transform="matrix(0.0406 0 0 0.0406 586 138)">
</image>
<image display="none" overflow="visible" width="512" height="512" xlink:href="../../../Knowledge/Icon/[+++++] (Full) Windows 8 Icons [icons8]/Arrows/up/up-512.png"  transform="matrix(0.0406 0 0 0.0406 586 138)">
</image>
<image display="none" overflow="visible" width="512" height="512" xlink:href="../../../Knowledge/Icon/[+++++] (Full) Windows 8 Icons [icons8]/Arrows/right_round/right_round-512.png"  transform="matrix(0.0406 0 0 0.0406 586 138)">
</image>
<image display="none" overflow="visible" width="512" height="512" xlink:href="../../../Knowledge/Icon/[+++++] (Full) Windows 8 Icons [icons8]/Arrows/right/right-512.png"  transform="matrix(0.0406 0 0 0.0406 586 138)">
</image>
<g>
	<path display="none" fill="#FFFFFF" d="M606.841,148.603c0,3.411,0,6.823,0,10.234c-0.006,0.001-0.011,0.003-0.017,0.003
		c-6.924,0-13.849,0-20.778,0c0-6.933,0-13.867,0-20.8c3.41,0,6.821,0,10.232,0c-0.058,0.013-0.116,0.03-0.175,0.04
		c-0.573,0.092-1.157,0.141-1.718,0.281c-3.985,0.993-6.926,4.33-7.454,8.44c-0.229,1.784,0.005,3.512,0.72,5.162
		c2.099,4.844,7.463,7.268,12.434,5.51c3.744-1.324,5.943-4.049,6.635-7.969C606.773,149.206,606.801,148.903,606.841,148.603z"/>
	<path d="M510.864,270.282c-1.006,7.656-1.72,15.363-3.061,22.96c-17.65,99.953-73.69,169.413-169.151,203.176
		C211.909,541.244,75.163,479.447,21.647,355.956C3.421,313.898-2.544,269.845,3.297,224.352
		C16.75,119.576,91.73,34.488,193.321,9.175c14.309-3.565,29.194-4.816,43.808-7.165c1.5-0.241,2.969-0.668,4.453-1.009
		c9.321,0,18.643,0,27.964,0c1.5,0.328,2.987,0.853,4.503,0.954c40.47,2.697,78.319,14.248,112.745,35.539
		C454.6,79.431,495.198,139.919,507.838,218.848c1.247,7.785,2.028,15.645,3.026,23.47
		C510.864,251.64,510.864,260.961,510.864,270.282z M255.687,473.71c119.432,0.342,217.635-97.351,218.021-216.889
		c0.387-119.919-97.086-218.25-216.758-218.664C136.485,37.739,38.355,135.364,38.155,255.824
		C37.956,375.584,135.578,473.366,255.687,473.71z"/>
	<path display="none" fill="#FFFFFF" d="M606.841,147.506c-0.039-0.307-0.07-0.615-0.119-0.921
		c-0.496-3.096-2.088-5.469-4.748-7.114c-1.35-0.835-2.835-1.288-4.422-1.394c-0.059-0.004-0.118-0.025-0.177-0.037
		c3.155,0,6.31,0,9.466,0C606.841,141.196,606.841,144.351,606.841,147.506z"/>
	<path display="none" fill="#FFFFFF" d="M596.831,156.582c-4.711-0.014-8.54-3.849-8.533-8.546c0.008-4.725,3.857-8.554,8.582-8.538
		c4.694,0.016,8.517,3.873,8.502,8.577C605.368,152.764,601.516,156.596,596.831,156.582z M594.689,146.853
		c-0.01-0.018-0.02-0.037-0.03-0.055c1.04-1.04,2.079-2.079,3.149-3.149c-0.102,0-0.16,0-0.219,0c-0.616,0-1.232,0.004-1.848-0.003
		c-0.14-0.002-0.237,0.042-0.336,0.141c-1.361,1.367-2.726,2.73-4.09,4.094c-0.051,0.051-0.099,0.105-0.147,0.157
		c0.03,0.037,0.045,0.06,0.064,0.079c1.407,1.407,2.813,2.815,4.224,4.218c0.054,0.054,0.152,0.09,0.229,0.091
		c0.65,0.007,1.299,0.004,1.949,0.003c0.042,0,0.084-0.014,0.126-0.022c0.014-0.021,0.028-0.042,0.042-0.063
		c-1.034-1.034-2.068-2.068-3.119-3.119c2.452,0,4.897,0,7.34,0c0-0.803,0-1.579,0-2.372
		C599.569,146.853,597.129,146.853,594.689,146.853z"/>
	<path d="M201.059,225.674c62.217,0,124.434,0,186.998,0c0,20.226,0,39.995,0,60.473c-62.278,0-124.619,0-187.135,0
		c26.798,26.794,53.161,53.153,79.523,79.512c-0.359,0.534-0.718,1.068-1.077,1.601c-1.067,0.195-2.133,0.558-3.2,0.561
		c-16.565,0.037-33.131,0.105-49.694-0.076c-1.981-0.022-4.462-0.945-5.845-2.32c-35.965-35.776-71.816-71.668-107.679-107.547
		c-0.481-0.481-0.864-1.061-1.627-2.01c1.246-1.328,2.462-2.7,3.756-3.995c34.767-34.781,69.567-69.529,104.261-104.382
		c2.514-2.525,4.985-3.627,8.563-3.586c15.7,0.181,31.404,0.078,47.106,0.078c1.492,0,2.984,0,5.581,0
		c-27.278,27.275-53.784,53.777-80.289,80.279C200.553,224.733,200.806,225.204,201.059,225.674z"/>
</g>
<g display="none">
	<path fill="#FFFFFF" d="M12.398,158.84c-6.931,0-13.862,0-20.797,0c0-6.929,0-13.858,0-20.793c6.93,0,13.863,0,20.797,0
		C12.398,144.976,12.398,151.907,12.398,158.84z M1.993,144.451c0-0.116,0-0.197,0-0.277c-0.002-1.158,0.002-2.315-0.01-3.473
		c-0.002-0.22-0.047-0.443-0.104-0.656c-0.051-0.194-0.184-0.252-0.36-0.153c-0.199,0.111-0.399,0.237-0.559,0.396
		c-2.299,2.286-4.593,4.578-6.884,6.873c-0.205,0.205-0.395,0.429-0.569,0.661c-0.342,0.455-0.344,0.824,0.002,1.277
		c0.209,0.273,0.44,0.533,0.682,0.777c1.685,1.695,3.375,3.384,5.065,5.074c0.565,0.565,1.131,1.128,1.706,1.682
		c0.144,0.139,0.317,0.256,0.494,0.35c0.216,0.114,0.383,0.047,0.433-0.189c0.061-0.288,0.095-0.587,0.098-0.882
		c0.011-1.076,0.004-2.153,0.004-3.229c0-0.078,0-0.155,0-0.251c0.269,0,0.505,0,0.74,0c1.936-0.002,3.872,0.012,5.808-0.014
		c1.169-0.016,2.185-1.006,2.227-2.173c0.041-1.142,0.024-2.287,0.015-3.431c-0.002-0.246-0.048-0.501-0.125-0.735
		c-0.334-1.012-1.221-1.623-2.347-1.625c-2.011-0.004-4.021-0.001-6.032-0.001C2.194,144.451,2.107,144.451,1.993,144.451z"/>
	<path display="inline" d="M255.136,140.048c3.318,0,5.833,0,8.349,0c58.444,0.001,116.889-0.079,175.333,0.035
		c32.713,0.064,58.497,17.813,68.21,47.242c2.246,6.804,3.587,14.228,3.643,21.379c0.259,33.246,0.766,66.528-0.44,99.738
		c-1.232,33.917-30.767,62.701-64.74,63.154c-56.269,0.751-112.554,0.327-168.832,0.395c-6.857,0.008-13.714,0.001-21.523,0.001
		c0,2.768,0,5.025,0,7.283c0,31.288,0.195,62.579-0.129,93.864c-0.089,8.567-1.086,17.255-2.862,25.634
		c-1.458,6.877-6.314,8.826-12.588,5.508c-5.152-2.725-10.169-6.141-14.357-10.173c-16.727-16.101-33.181-32.488-49.603-48.903
		c-49.128-49.109-98.247-98.227-147.224-147.486c-7.056-7.097-13.765-14.643-19.839-22.589
		c-10.068-13.173-10.002-23.88-0.067-37.118c5.063-6.746,10.591-13.236,16.549-19.203C91.614,152.107,158.29,85.484,225.126,19.023
		c4.651-4.625,10.47-8.286,16.241-11.511c5.119-2.86,8.973-1.181,10.468,4.453c1.646,6.201,2.953,12.696,3.017,19.077
		c0.336,33.646,0.234,67.297,0.283,100.946C255.139,134.334,255.136,136.679,255.136,140.048z"/>
</g>
</svg>
