<?xml version="1.0" encoding="utf-8"?>
<!-- Generator: Adobe Illustrator 17.0.0, SVG Export Plug-In . SVG Version: 6.00 Build 0)  -->
<!DOCTYPE svg PUBLIC "-//W3C//DTD SVG 1.1//EN" "http://www.w3.org/Graphics/SVG/1.1/DTD/svg11.dtd">
<svg version="1.1" id="Layer_1" xmlns="http://www.w3.org/2000/svg" xmlns:xlink="http://www.w3.org/1999/xlink" x="0px" y="0px"
	 width="512px" height="512px" viewBox="0 0 512 512" enable-background="new 0 0 512 512" xml:space="preserve">
<g>
	<line fill="none" stroke="#B35047" x1="32" y1="0" x2="32" y2="512"/>
	<line fill="none" stroke="#B35047" x1="64" y1="0" x2="64" y2="512"/>
	<line fill="none" stroke="#B35047" x1="96" y1="0" x2="96" y2="512"/>
	<line fill="none" stroke="#B35047" x1="128" y1="0" x2="128" y2="512"/>
	<line fill="none" stroke="#B35047" x1="160" y1="0" x2="160" y2="512"/>
	<line fill="none" stroke="#B35047" x1="192" y1="0" x2="192" y2="512"/>
	<line fill="none" stroke="#B35047" x1="224" y1="0" x2="224" y2="512"/>
	<line fill="none" stroke="#B35047" x1="256" y1="0" x2="256" y2="512"/>
	<line fill="none" stroke="#B35047" x1="288" y1="0" x2="288" y2="512"/>
	<line fill="none" stroke="#B35047" x1="320" y1="0" x2="320" y2="512"/>
	<line fill="none" stroke="#B35047" x1="352" y1="0" x2="352" y2="512"/>
	<line fill="none" stroke="#B35047" x1="384" y1="0" x2="384" y2="512"/>
	<line fill="none" stroke="#B35047" x1="416" y1="0" x2="416" y2="512"/>
	<line fill="none" stroke="#B35047" x1="448" y1="0" x2="448" y2="512"/>
	<line fill="none" stroke="#B35047" x1="480" y1="0" x2="480" y2="512"/>
	<line fill="none" stroke="#B35047" x1="0" y1="32" x2="512" y2="32"/>
	<line fill="none" stroke="#B35047" x1="0" y1="64" x2="512" y2="64"/>
	<line fill="none" stroke="#B35047" x1="0" y1="96" x2="512" y2="96"/>
	<line fill="none" stroke="#B35047" x1="0" y1="128" x2="512" y2="128"/>
	<line fill="none" stroke="#B35047" x1="0" y1="160" x2="512" y2="160"/>
	<line fill="none" stroke="#B35047" x1="0" y1="192" x2="512" y2="192"/>
	<line fill="none" stroke="#B35047" x1="0" y1="224" x2="512" y2="224"/>
	<line fill="none" stroke="#B35047" x1="0" y1="256" x2="512" y2="256"/>
	<line fill="none" stroke="#B35047" x1="0" y1="288" x2="512" y2="288"/>
	<line fill="none" stroke="#B35047" x1="0" y1="320" x2="512" y2="320"/>
	<line fill="none" stroke="#B35047" x1="0" y1="352" x2="512" y2="352"/>
	<line fill="none" stroke="#B35047" x1="0" y1="384" x2="512" y2="384"/>
	<line fill="none" stroke="#B35047" x1="0" y1="416" x2="512" y2="416"/>
	<line fill="none" stroke="#B35047" x1="0" y1="448" x2="512" y2="448"/>
	<line fill="none" stroke="#B35047" x1="0" y1="480" x2="512" y2="480"/>
	<rect x="0" fill="none" stroke="#B35047" width="512" height="512"/>
</g>
<g display="none">
	<path fill="#FFFFFF" d="M609.841,63.839c-6.931,0-13.861,0-20.796,0c0-6.928,0-13.857,0-20.792c6.929,0,13.863,0,20.796,0
		C609.841,49.975,609.841,56.906,609.841,63.839z M599.437,56.168c0.095,0.122,0.139,0.192,0.196,0.249
		c1.306,1.308,2.613,2.615,3.92,3.921c0.423,0.423,0.853,0.424,1.274,0.005c0.499-0.497,0.997-0.995,1.494-1.493
		c0.449-0.449,0.448-0.866-0.004-1.318c-1.307-1.307-2.614-2.614-3.92-3.922c-0.055-0.055-0.107-0.113-0.183-0.193
		c0.078-0.063,0.14-0.106,0.192-0.158c1.313-1.311,2.625-2.622,3.936-3.934c0.419-0.419,0.418-0.855-0.002-1.275
		c-0.493-0.494-0.987-0.985-1.481-1.478c-0.465-0.464-0.87-0.466-1.33-0.005c-1.307,1.307-2.614,2.613-3.922,3.92
		c-0.052,0.052-0.106,0.101-0.168,0.159c-0.062-0.059-0.116-0.107-0.168-0.159c-1.302-1.302-2.604-2.604-3.907-3.906
		c-0.48-0.48-0.874-0.478-1.359,0.006c-0.479,0.478-0.958,0.957-1.437,1.436c-0.461,0.462-0.462,0.871-0.001,1.332
		c1.302,1.302,2.604,2.604,3.906,3.907c0.056,0.056,0.109,0.115,0.171,0.18c-0.062,0.064-0.111,0.118-0.163,0.17
		c-1.316,1.317-2.633,2.633-3.949,3.95c-0.411,0.412-0.412,0.85-0.003,1.26c0.497,0.498,0.997,0.995,1.496,1.492
		c0.462,0.46,0.867,0.458,1.331-0.006c1.303-1.302,2.606-2.603,3.907-3.906C599.318,56.35,599.354,56.282,599.437,56.168z"/>
	<path display="inline" d="M599.437,56.168c-0.082,0.114-0.119,0.182-0.171,0.234c-1.301,1.303-2.604,2.605-3.907,3.906
		c-0.464,0.464-0.87,0.465-1.331,0.006c-0.499-0.497-0.998-0.993-1.496-1.492c-0.409-0.41-0.409-0.848,0.003-1.26
		c1.316-1.317,2.633-2.633,3.949-3.95c0.052-0.052,0.102-0.106,0.163-0.17c-0.062-0.065-0.115-0.124-0.171-0.18
		c-1.302-1.302-2.604-2.604-3.906-3.907c-0.461-0.461-0.46-0.87,0.001-1.332c0.479-0.479,0.958-0.957,1.437-1.436
		c0.485-0.485,0.878-0.487,1.359-0.006c1.302,1.302,2.604,2.604,3.907,3.906c0.052,0.052,0.106,0.1,0.168,0.159
		c0.062-0.059,0.116-0.108,0.168-0.159c1.307-1.307,2.614-2.613,3.922-3.92c0.46-0.46,0.865-0.458,1.33,0.005
		c0.494,0.492,0.988,0.984,1.481,1.478c0.419,0.42,0.421,0.856,0.002,1.275c-1.311,1.312-2.623,2.624-3.936,3.934
		c-0.052,0.052-0.115,0.095-0.192,0.158c0.076,0.08,0.128,0.138,0.183,0.193c1.307,1.307,2.614,2.614,3.92,3.922
		c0.451,0.452,0.453,0.869,0.004,1.318c-0.498,0.498-0.995,0.996-1.494,1.493c-0.421,0.419-0.85,0.418-1.274-0.005
		c-1.308-1.306-2.615-2.613-3.92-3.921C599.576,56.36,599.532,56.29,599.437,56.168z"/>
</g>
<image display="none" overflow="visible" width="512" height="512" xlink:href="../../../Knowledge/Icon/[+++++] (Full) Windows 8 Icons [icons8]/Very_Basic/key/key-512.png"  transform="matrix(0.0406 0 0 0.0406 709 84)">
</image>
<image display="none" overflow="visible" width="512" height="512" xlink:href="../../../Knowledge/Icon/[+++++] (Full) Windows 8 Icons [icons8]/Very_Basic/info/info-512.png"  transform="matrix(0.0406 0 0 0.0406 709 84)">
</image>
<image display="none" overflow="visible" width="512" height="512" xlink:href="../../../Knowledge/Icon/[+++++] (Full) Windows 8 Icons [icons8]/Very_Basic/home/home-512.png"  transform="matrix(0.0406 0 0 0.0406 709 84)">
</image>
<image display="none" overflow="visible" width="512" height="512" xlink:href="../../../Knowledge/Icon/[+++++] (Full) Windows 8 Icons [icons8]/Very_Basic/globe/globe-512.png"  transform="matrix(0.0406 0 0 0.0406 709 84)">
</image>
<image display="none" overflow="visible" width="512" height="512" xlink:href="../../../Knowledge/Icon/[+++++] (Full) Windows 8 Icons [icons8]/Very_Basic/full_trash/full_trash-512.png"  transform="matrix(0.0406 0 0 0.0406 709 84)">
</image>
<image display="none" overflow="visible" width="512" height="512" xlink:href="../../../Knowledge/Icon/[+++++] (Full) Windows 8 Icons [icons8]/Very_Basic/empty_trash/empty_trash-512.png"  transform="matrix(0.0406 0 0 0.0406 709 84)">
</image>
<image display="none" overflow="visible" width="512" height="512" xlink:href="../../../Knowledge/Icon/[+++++] (Full) Windows 8 Icons [icons8]/Very_Basic/document/document-512.png"  transform="matrix(0.0406 0 0 0.0406 709 84)">
</image>
<image display="none" overflow="visible" width="512" height="512" xlink:href="../../../Knowledge/Icon/[+++++] (Full) Windows 8 Icons [icons8]/Very_Basic/clock/clock-512.png"  transform="matrix(0.0406 0 0 0.0406 709 84)">
</image>
<image display="none" overflow="visible" width="512" height="512" xlink:href="../../../Knowledge/Icon/[+++++] (Full) Windows 8 Icons [icons8]/Very_Basic/checkmark/checkmark-512.png"  transform="matrix(0.0406 0 0 0.0406 709 84)">
</image>
<image display="none" overflow="visible" width="512" height="512" xlink:href="../../../Knowledge/Icon/[+++++] (Full) Windows 8 Icons [icons8]/Very_Basic/bookmark/bookmark-512.png"  transform="matrix(0.0406 0 0 0.0406 709 84)">
</image>
<image display="none" overflow="visible" width="512" height="512" xlink:href="../../../Knowledge/Icon/[+++++] (Full) Windows 8 Icons [icons8]/Very_Basic/refresh/refresh-512_.png"  transform="matrix(0.0406 0 0 0.0406 709 84)">
</image>
<image display="none" overflow="visible" width="512" height="512" xlink:href="../../../Knowledge/Icon/[+++++] (Full) Windows 8 Icons [icons8]/Very_Basic/puzzle/puzzle-512_.png"  transform="matrix(0.0406 0 0 0.0406 709 84)">
</image>
<image display="none" overflow="visible" width="512" height="512" xlink:href="../../../Knowledge/Icon/[+++++] (Full) Windows 8 Icons [icons8]/Very_Basic/upload/upload-512.png"  transform="matrix(0.0406 0 0 0.0406 709 84)">
</image>
<image display="none" overflow="visible" width="512" height="512" xlink:href="../../../Knowledge/Icon/[+++++] (Full) Windows 8 Icons [icons8]/Very_Basic/unlock/unlock-512.png"  transform="matrix(0.0406 0 0 0.0406 709 84)">
</image>
<image display="none" overflow="visible" width="512" height="512" xlink:href="../../../Knowledge/Icon/[+++++] (Full) Windows 8 Icons [icons8]/Very_Basic/sinchronize/sinchronize-512.png"  transform="matrix(0.0406 0 0 0.0406 709 84)">
</image>
<image display="none" overflow="visible" width="512" height="512" xlink:href="../../../Knowledge/Icon/[+++++] (Full) Windows 8 Icons [icons8]/Very_Basic/settings/settings-512.png"  transform="matrix(0.0406 0 0 0.0406 709 84)">
</image>
<image display="none" overflow="visible" width="512" height="512" xlink:href="../../../Knowledge/Icon/[+++++] (Full) Windows 8 Icons [icons8]/Very_Basic/search/search-512.png"  transform="matrix(0.0406 0 0 0.0406 709 84)">
</image>
<image display="none" overflow="visible" width="512" height="512" xlink:href="../../../Knowledge/Icon/[+++++] (Full) Windows 8 Icons [icons8]/Very_Basic/plus/plus-512.png"  transform="matrix(0.0406 0 0 0.0406 709 84)">
</image>
<image display="none" overflow="visible" width="512" height="512" xlink:href="../../../Knowledge/Icon/[+++++] (Full) Windows 8 Icons [icons8]/Very_Basic/minus/minus-512.png"  transform="matrix(0.0406 0 0 0.0406 709 84)">
</image>
<image display="none" overflow="visible" width="512" height="512" xlink:href="../../../Knowledge/Icon/[+++++] (Full) Windows 8 Icons [icons8]/Very_Basic/lock/lock-512.png"  transform="matrix(0.0406 0 0 0.0406 709 84)">
</image>
<image display="none" overflow="visible" width="512" height="512" xlink:href="../../../Knowledge/Icon/[+++++] (Full) Windows 8 Icons [icons8]/Very_Basic/broken_link/broken_link-512_.png"  transform="matrix(0.0406 0 0 0.0406 707 109)">
</image>
<image display="none" overflow="visible" width="512" height="512" xlink:href="../../../Knowledge/Icon/[+++++] (Full) Windows 8 Icons [icons8]/Very_Basic/link/link-512.png"  transform="matrix(0.0406 0 0 0.0406 709 84)">
</image>
<g>
	<path display="none" fill="#FFFFFF" d="M709.042,104.841c0-6.931,0-13.862,0-20.797c6.929,0,13.859,0,20.794,0
		c0,6.93,0,13.864,0,20.797C722.905,104.841,715.973,104.841,709.042,104.841z M719.442,89.104
		c-0.514-0.398-1.021-0.839-1.575-1.211c-1.708-1.148-3.859-0.838-5.24,0.124c-1.436,0.999-1.987,2.442-1.972,4.14
		c0.013,1.48,0.601,2.741,1.5,3.88c0.705,0.892,1.543,1.65,2.406,2.382c1.455,1.234,2.988,2.378,4.257,3.821
		c0.362,0.411,0.906,0.371,1.283-0.034c0.207-0.223,0.397-0.466,0.624-0.667c0.94-0.837,1.881-1.672,2.84-2.487
		c1.099-0.934,2.219-1.843,3.129-2.975c1.148-1.429,1.736-3.028,1.474-4.881c-0.128-0.904-0.471-1.717-1.061-2.419
		c-1.337-1.591-4.113-2.242-6.139-0.856C720.43,88.288,719.935,88.719,719.442,89.104z"/>
	<path d="M255.986,89.471c14.284-11.156,28.665-23.678,44.299-34.369c58.81-40.216,139.363-21.337,178.149,24.841
		c17.126,20.39,27.081,43.965,30.782,70.206c7.585,53.782-9.455,100.174-42.779,141.641c-26.401,32.853-58.891,59.25-90.793,86.341
		c-27.831,23.634-55.141,47.887-82.417,72.164c-6.571,5.849-12.084,12.885-18.101,19.358c-10.945,11.774-26.743,12.939-37.239,0.999
		c-36.817-41.881-81.307-75.087-123.522-110.882c-25.048-21.239-49.371-43.235-69.82-69.121
		C18.448,257.611,1.388,220.994,1.009,178.06c-0.435-49.271,15.539-91.13,57.22-120.133c40.097-27.9,102.512-36.909,152.068-3.587
		C226.347,65.133,241.062,77.912,255.986,89.471z M254.057,423.05c1.213-0.124,2.426-0.248,3.64-0.372
		c6.358-6.956,12.103-14.622,19.182-20.744c30.156-26.079,60.75-51.651,91.101-77.506c26.952-22.959,53.226-46.557,73.258-76.217
		c18.652-27.616,26.642-57.559,22.51-90.945c-9.151-73.924-90.133-92.647-131.817-67.71c-21.769,13.023-39.946,29.64-55.817,49.135
		c-12.376,15.203-27.827,14.897-40.663-0.02c-8.691-10.1-17.647-20.134-27.566-28.984c-23.477-20.948-49.608-35.053-82.858-29.373
		c-31.947,5.458-57.028,20.42-69.625,51.253c-14.971,36.644-10.394,72.394,8.862,106.341c15.707,27.69,37.801,50.138,61.614,70.79
		c36.204,31.398,73.032,62.076,109.273,93.432C242.206,408.234,247.793,416.033,254.057,423.05z"/>
	<path stroke="#000000" d="M257.696,422.678c-1.213,0.124-2.426,0.248-3.64,0.372c-6.264-7.017-11.851-14.816-18.905-20.919
		c-36.242-31.355-73.069-62.034-109.273-93.432c-23.813-20.652-45.908-43.1-61.614-70.79
		c-19.256-33.947-23.834-69.697-8.862-106.341c12.597-30.833,37.678-45.796,69.625-51.253c33.25-5.68,59.381,8.425,82.858,29.373
		c9.919,8.851,18.875,18.884,27.566,28.984c20.55-14.838,10.287,22.222,22.663,7.02"/>
</g>
<g display="none">
	<path fill="#FFFFFF" d="M729.841,104.84c-6.931,0-13.862,0-20.797,0c0-6.928,0-13.858,0-20.793c6.93,0,13.863,0,20.797,0
		C729.841,90.976,729.841,97.907,729.841,104.84z M719.408,89.168c-0.088-0.094-0.181-0.2-0.282-0.298
		c-0.107-0.104-0.218-0.203-0.332-0.299c-1.165-0.986-2.45-1.602-4.033-1.359c-1.271,0.194-2.357,0.719-3.13,1.766
		c-1.094,1.483-1.21,3.131-0.696,4.847c0.317,1.057,0.943,1.941,1.677,2.75c0.89,0.981,1.912,1.818,2.93,2.658
		c1.107,0.913,2.221,1.819,3.173,2.902c0.463,0.527,0.967,0.508,1.452,0.002c0.538-0.561,1.083-1.12,1.667-1.633
		c1.017-0.893,2.076-1.739,3.097-2.627c0.88-0.765,1.702-1.591,2.323-2.591c0.982-1.581,1.272-3.264,0.67-5.048
		c-0.801-2.37-3.207-3.355-5.302-3.002c-0.796,0.134-1.49,0.522-2.125,1.008C720.13,88.527,719.788,88.845,719.408,89.168z"/>
	<path display="inline" d="M255.064,91.574c11.007-9.383,20.92-18.587,31.608-26.777c18.38-14.084,38.519-25.328,61.577-29.209
		c60.726-10.22,130.467,18.333,153.674,87.012c17.465,51.687,9.045,100.475-19.414,146.298
		c-18.003,28.988-41.808,52.924-67.328,75.103c-29.609,25.734-60.295,50.235-89.762,76.127
		c-16.909,14.858-32.71,31.048-48.301,47.317c-14.067,14.679-28.66,15.211-42.081-0.054c-27.599-31.391-59.887-57.633-91.967-84.107
		c-29.513-24.356-59.123-48.613-84.925-77.039c-21.279-23.442-39.428-49.058-48.612-79.695
		C-5.378,176.81-2.004,129.05,29.695,86.076c22.386-30.348,53.886-45.564,90.71-51.197c45.881-7.018,83.135,10.835,116.886,39.399
		c3.293,2.787,6.524,5.662,9.614,8.671C249.823,85.792,252.517,88.864,255.064,91.574z"/>
</g>
</svg>
