<?xml version="1.0" encoding="utf-8"?>
<!-- Generator: Adobe Illustrator 17.0.0, SVG Export Plug-In . SVG Version: 6.00 Build 0)  -->
<!DOCTYPE svg PUBLIC "-//W3C//DTD SVG 1.1//EN" "http://www.w3.org/Graphics/SVG/1.1/DTD/svg11.dtd">
<svg version="1.1" id="Layer_1" xmlns="http://www.w3.org/2000/svg" xmlns:xlink="http://www.w3.org/1999/xlink" x="0px" y="0px"
	 width="512px" height="512px" viewBox="0 0 512 512" enable-background="new 0 0 512 512" xml:space="preserve">
<g>
	<line fill="none" stroke="#B35047" x1="32" y1="0" x2="32" y2="512"/>
	<line fill="none" stroke="#B35047" x1="64" y1="0" x2="64" y2="512"/>
	<line fill="none" stroke="#B35047" x1="96" y1="0" x2="96" y2="512"/>
	<line fill="none" stroke="#B35047" x1="128" y1="0" x2="128" y2="512"/>
	<line fill="none" stroke="#B35047" x1="160" y1="0" x2="160" y2="512"/>
	<line fill="none" stroke="#B35047" x1="192" y1="0" x2="192" y2="512"/>
	<line fill="none" stroke="#B35047" x1="224" y1="0" x2="224" y2="512"/>
	<line fill="none" stroke="#B35047" x1="256" y1="0" x2="256" y2="512"/>
	<line fill="none" stroke="#B35047" x1="288" y1="0" x2="288" y2="512"/>
	<line fill="none" stroke="#B35047" x1="320" y1="0" x2="320" y2="512"/>
	<line fill="none" stroke="#B35047" x1="352" y1="0" x2="352" y2="512"/>
	<line fill="none" stroke="#B35047" x1="384" y1="0" x2="384" y2="512"/>
	<line fill="none" stroke="#B35047" x1="416" y1="0" x2="416" y2="512"/>
	<line fill="none" stroke="#B35047" x1="448" y1="0" x2="448" y2="512"/>
	<line fill="none" stroke="#B35047" x1="480" y1="0" x2="480" y2="512"/>
	<line fill="none" stroke="#B35047" x1="0" y1="32" x2="512" y2="32"/>
	<line fill="none" stroke="#B35047" x1="0" y1="64" x2="512" y2="64"/>
	<line fill="none" stroke="#B35047" x1="0" y1="96" x2="512" y2="96"/>
	<line fill="none" stroke="#B35047" x1="0" y1="128" x2="512" y2="128"/>
	<line fill="none" stroke="#B35047" x1="0" y1="160" x2="512" y2="160"/>
	<line fill="none" stroke="#B35047" x1="0" y1="192" x2="512" y2="192"/>
	<line fill="none" stroke="#B35047" x1="0" y1="224" x2="512" y2="224"/>
	<line fill="none" stroke="#B35047" x1="0" y1="256" x2="512" y2="256"/>
	<line fill="none" stroke="#B35047" x1="0" y1="288" x2="512" y2="288"/>
	<line fill="none" stroke="#B35047" x1="0" y1="320" x2="512" y2="320"/>
	<line fill="none" stroke="#B35047" x1="0" y1="352" x2="512" y2="352"/>
	<line fill="none" stroke="#B35047" x1="0" y1="384" x2="512" y2="384"/>
	<line fill="none" stroke="#B35047" x1="0" y1="416" x2="512" y2="416"/>
	<line fill="none" stroke="#B35047" x1="0" y1="448" x2="512" y2="448"/>
	<line fill="none" stroke="#B35047" x1="0" y1="480" x2="512" y2="480"/>
	<rect x="0" fill="none" stroke="#B35047" width="512" height="512"/>
</g>
<g>
	<path display="none" fill="#FFFFFF" d="M663.516,55.841c-2.492,0-4.983,0-7.475,0c0-6.933,0-13.867,0-20.8
		c3.561,0,7.123,0,10.684,0c-0.052,0.011-0.104,0.029-0.157,0.033c-1.466,0.106-2.764,0.624-3.856,1.611
		c-1.132,1.024-1.789,2.29-1.862,3.835c-0.031,0.663,0.547,1.092,1.126,0.828c0.361-0.165,0.455-0.49,0.472-0.854
		c0.043-0.922,0.421-1.704,1.05-2.356c1.163-1.204,2.607-1.701,4.244-1.427c2.049,0.343,3.393,1.58,4.054,3.54
		c0.267,0.792,0.278,1.618,0.223,2.449c-0.105,1.587-0.625,3.015-1.624,4.249c-0.583,0.72-1.215,1.4-1.837,2.087
		c-0.747,0.824-1.357,1.731-1.787,2.762c-0.168,0.403-0.381,0.793-0.613,1.163c-0.431,0.686-1.05,1.119-1.863,1.243
		c-0.815,0.125-1.541-0.015-2.057-0.73c-0.34-0.471-0.53-1.003-0.593-1.576c-0.046-0.417-0.248-0.718-0.571-0.804
		c-0.544-0.146-1.018,0.21-1.014,0.777c0.004,0.627,0.193,1.214,0.451,1.775c0.433,0.94,1.092,1.659,2.098,1.996
		C662.901,55.739,663.213,55.776,663.516,55.841z M665.856,42.564c0.047-0.361,0.07-0.728,0.145-1.083
		c0.208-0.985,0.841-1.572,1.807-1.632c1.112-0.069,1.785,0.341,1.933,1.479c0.029,0.227,0.074,0.454,0.129,0.676
		c0.032,0.13,0.126,0.256,0.273,0.213c0.095-0.028,0.177-0.138,0.24-0.228c0.038-0.055,0.038-0.143,0.039-0.216
		c0.003-0.216,0.011-0.434-0.007-0.649c-0.065-0.782-0.298-1.501-0.861-2.073c-0.644-0.656-1.446-0.844-2.341-0.791
		c-0.907,0.054-1.609,0.445-2.03,1.241c-0.34,0.642-0.592,1.331-0.895,1.993c-0.123,0.268-0.242,0.55-0.424,0.777
		c-0.265,0.331-0.586,0.617-0.879,0.926c-0.24,0.253-0.435,0.532-0.507,0.885c-0.093,0.454-0.014,0.648,0.39,0.867
		c0.184,0.1,0.377,0.182,0.565,0.275c0.569,0.281,0.766,0.737,0.521,1.326c-0.092,0.221-0.277,0.408-0.443,0.59
		c-0.107,0.118-0.252,0.205-0.387,0.295c-0.578,0.383-0.743,0.941-0.658,1.591c0.063,0.485,0.293,0.876,0.767,1.066
		c0.496,0.199,1.007,0.219,1.5-0.007c0.943-0.432,1.447-1.229,1.738-2.182c0.27-0.885,0.196-1.762-0.089-2.633
		C666.097,44.392,665.906,43.495,665.856,42.564z"/>
	<path display="none" fill="#FFFFFF" d="M667.416,35.041c3.142,0,6.283,0,9.425,0c0,6.933,0,13.867,0,20.8
		c-4.252,0-8.504,0-12.756,0c0.066-0.013,0.131-0.031,0.198-0.037c1.106-0.11,2.032-0.574,2.771-1.405
		c0.538-0.604,0.907-1.309,1.214-2.05c0.282-0.68,0.651-1.308,1.138-1.861c0.465-0.528,0.94-1.048,1.412-1.57
		c0.711-0.785,1.358-1.614,1.838-2.566c0.572-1.134,0.857-2.34,0.948-3.602c0.124-1.732-0.174-3.358-1.179-4.807
		c-0.916-1.322-2.155-2.21-3.701-2.651C668.299,35.171,667.853,35.123,667.416,35.041z"/>
	<path d="M269.982,1c10.715,2.009,21.663,3.196,32.102,6.173c37.904,10.809,68.288,32.59,90.743,64.995
		c24.623,35.533,31.932,75.393,28.897,117.868c-2.213,30.962-9.21,60.522-23.237,88.327c-11.764,23.319-27.65,43.652-45.073,62.905
		c-11.58,12.796-23.229,25.533-34.63,38.487c-11.937,13.563-20.987,28.942-27.904,45.624c-7.529,18.158-16.586,35.444-29.774,50.255
		c-18.137,20.369-40.84,31.761-67.955,34.452c-1.63,0.162-3.233,0.603-4.848,0.915c-4.648,0-9.297,0-13.945,0
		c-7.418-1.587-15.064-2.493-22.213-4.885c-24.663-8.253-40.828-25.873-51.449-48.931c-6.342-13.768-10.965-28.165-11.065-43.528
		c-0.091-13.915,11.544-22.633,24.872-19.055c7.909,2.123,12.856,9.493,13.989,19.717c1.56,14.069,6.215,27.105,14.545,38.651
		c12.659,17.548,30.452,20.959,50.433,17.904c19.935-3.048,35.1-13.65,45.675-30.477c5.706-9.081,10.919-18.632,15.037-28.519
		c10.532-25.288,25.496-47.511,43.809-67.727c15.257-16.842,30.754-33.526,45.041-51.174
		c24.499-30.262,37.259-65.278,39.824-104.184c1.344-20.382,1.081-40.643-5.462-60.052C361.188,80.675,328.238,50.351,278,41.936
		c-40.157-6.726-75.558,5.445-104.069,34.978c-15.42,15.973-24.709,35.164-25.753,57.765c-0.413,8.925-2.714,16.885-11.568,20.933
		c-14.189,6.487-28.367-4.041-27.603-20.293c1.779-37.865,17.89-68.925,45.648-94.023C181.42,17.094,213.266,4.401,249.2,1.799
		c1.295-0.094,2.567-0.525,3.849-0.799C258.693,1,264.338,1,269.982,1z"/>
	<path d="M231.747,185.467c1.217,22.831,5.897,44.827,12.945,66.344c6.993,21.347,8.823,42.859,2.193,64.551
		c-7.14,23.362-19.486,42.9-42.611,53.502c-12.075,5.536-24.607,5.039-36.777,0.163c-11.618-4.655-17.241-14.237-18.795-26.135
		c-2.082-15.946,1.972-29.613,16.144-39.009c3.313-2.197,6.849-4.33,9.48-7.222c4.058-4.459,8.606-9.055,10.854-14.463
		c6.002-14.435,1.186-25.618-12.774-32.509c-4.605-2.273-9.345-4.289-13.854-6.734c-9.915-5.378-11.851-10.125-9.572-21.264
		c1.77-8.651,6.548-15.492,12.431-21.698c7.184-7.579,15.071-14.577,21.562-22.699c4.451-5.57,7.388-12.469,10.395-19.051
		c7.422-16.247,13.602-33.125,21.934-48.875c10.319-19.507,27.519-29.11,49.765-30.429c21.944-1.301,41.608,3.305,57.393,19.387
		c13.787,14.046,19.505,31.671,21.104,50.839c0.44,5.273,0.234,10.608,0.161,15.913c-0.025,1.799-0.029,3.956-0.968,5.305
		c-1.545,2.219-3.553,4.915-5.893,5.594c-3.594,1.043-5.893-2.035-6.69-5.235c-1.359-5.453-2.446-11.006-3.169-16.58
		c-3.62-27.914-20.131-37.966-47.395-36.267c-23.669,1.475-39.208,15.853-44.299,40.014
		C233.475,167.625,232.898,176.607,231.747,185.467z"/>
</g>
<g display="none">
	<path fill="#FFFFFF" d="M676.834,55.841c-6.929,0-13.86,0-20.793,0c0-6.931,0-13.862,0-20.796c6.928,0,13.858,0,20.793,0
		C676.834,41.974,676.834,48.907,676.834,55.841z M663.836,41.258c-0.049-0.079-0.08-0.161-0.136-0.217
		c-1.333-1.338-2.669-2.673-4.006-4.007c-0.09-0.09-0.189-0.175-0.295-0.246c-0.375-0.248-0.917-0.09-1.104,0.317
		c-0.168,0.365-0.092,0.678,0.25,1.02c5.261,5.261,10.522,10.522,15.784,15.782c0.081,0.081,0.17,0.155,0.266,0.218
		c0.383,0.252,0.927,0.086,1.112-0.333c0.158-0.359,0.087-0.661-0.238-0.987c-1.871-1.872-3.741-3.745-5.618-5.612
		c-0.157-0.156-0.217-0.311-0.216-0.531c0.007-2.931,0.005-5.863,0.003-8.794c0-0.155-0.008-0.312-0.034-0.465
		c-0.095-0.554-0.589-0.822-1.094-0.578c-0.196,0.095-0.38,0.236-0.537,0.389c-1.309,1.275-2.611,2.558-3.916,3.839
		C664.003,41.104,663.949,41.153,663.836,41.258z M659.251,45.47c0,0.758,0,1.516,0,2.274c0,0.63,0.303,0.933,0.932,0.934
		c0.812,0.001,1.624-0.004,2.436,0.006c0.107,0.001,0.237,0.055,0.314,0.129c0.625,0.599,1.241,1.209,1.859,1.815
		c1.048,1.028,2.096,2.057,3.145,3.085c0.111,0.109,0.227,0.214,0.351,0.306c0.259,0.191,0.548,0.29,0.855,0.143
		c0.31-0.148,0.445-0.439,0.457-0.763c0.026-0.703,0.023-1.406,0.039-2.109c0.003-0.153-0.039-0.262-0.15-0.373
		c-2.717-2.71-5.438-5.415-8.133-8.147c-0.374-0.379-0.739-0.539-1.254-0.493c-0.536,0.048-0.851,0.338-0.852,0.878
		C659.249,43.927,659.251,44.699,659.251,45.47z"/>
	<path display="inline" d="M164.27,134.18c3.27-3.051,4.849-4.46,6.358-5.941c37.843-37.15,75.613-74.375,113.604-111.374
		c4.56-4.441,9.893-8.521,15.589-11.277c14.666-7.098,29,0.684,31.749,16.763c0.756,4.424,0.992,8.985,0.995,13.483
		c0.056,85.048,0.108,170.096-0.092,255.144c-0.015,6.371,1.723,10.881,6.271,15.404c54.45,54.159,108.71,108.509,163.001,162.827
		c9.432,9.437,11.501,18.214,6.912,28.626c-5.362,12.168-21.165,16.974-32.268,9.675c-2.765-1.818-5.366-3.987-7.708-6.329
		C316.013,348.575,163.378,195.936,10.745,43.296c-9.924-9.924-12.128-19.01-7.252-29.608C8.923,1.884,24.639-2.716,35.53,4.49
		c3.082,2.039,5.949,4.508,8.572,7.124c38.794,38.705,77.544,77.453,116.23,116.267C161.961,129.515,162.86,131.878,164.27,134.18z"
		/>
	<path display="inline" d="M31.24,256.392c0.001-22.383-0.047-44.767,0.017-67.15c0.044-15.655,9.171-24.073,24.73-25.466
		c14.948-1.338,25.526,3.287,36.378,14.29c78.171,79.262,157.133,157.744,235.958,236.36c3.231,3.222,4.458,6.4,4.355,10.826
		c-0.472,20.398-0.371,40.815-1.14,61.199c-0.355,9.404-4.276,17.821-13.267,22.128c-8.904,4.265-17.297,1.406-24.797-4.137
		c-3.613-2.67-6.967-5.741-10.184-8.89c-30.451-29.8-60.847-59.657-91.261-89.494c-17.94-17.6-35.796-35.288-53.943-52.672
		c-2.234-2.14-6.019-3.701-9.108-3.741c-23.557-0.307-47.121-0.145-70.682-0.176c-18.271-0.024-27.04-8.828-27.054-27.105
		C31.228,300.373,31.24,278.382,31.24,256.392z"/>
</g>
<g display="none">
	<path fill="#FFFFFF" d="M656.041,42.881c0-2.614,0-5.227,0-7.841c6.933,0,13.867,0,20.8,0c0,3.318,0,6.635,0,9.953
		c-0.042-0.327-0.072-0.657-0.128-0.982c-0.427-2.448-1.665-4.387-3.695-5.813c-0.362-0.254-0.758-0.476-1.167-0.645
		c-0.443-0.184-0.937,0.173-0.983,0.648c-0.04,0.416,0.173,0.669,0.515,0.858c2.192,1.212,3.491,3.051,3.804,5.542
		c0.238,1.897-0.247,3.623-1.382,5.159c-0.646,0.873-1.459,1.557-2.421,2.063c-0.241,0.127-0.442,0.295-0.503,0.576
		c-0.066,0.307,0.006,0.577,0.255,0.784c0.26,0.217,0.557,0.253,0.852,0.105c0.326-0.163,0.647-0.343,0.947-0.548
		c1.952-1.336,3.196-3.159,3.701-5.473c0.099-0.453,0.139-0.919,0.206-1.38c0,3.316,0,6.632,0,9.95c-6.933,0-13.867,0-20.8,0
		c0-2.614,0-5.226,0-7.838c0.185,0.512,0.571,0.659,1.085,0.644c0.757-0.022,1.516-0.002,2.274-0.009
		c0.147-0.001,0.251,0.043,0.356,0.146c1.664,1.638,3.33,3.274,5,4.906c0.144,0.141,0.301,0.277,0.474,0.376
		c0.479,0.273,0.946,0.093,1.111-0.433c0.066-0.209,0.09-0.439,0.091-0.659c0.005-5.083,0.004-10.166,0.002-15.249
		c0-0.141-0.013-0.285-0.045-0.422c-0.122-0.512-0.593-0.751-1.065-0.523c-0.202,0.098-0.393,0.241-0.555,0.399
		c-1.667,1.626-3.328,3.257-4.985,4.892c-0.132,0.13-0.262,0.181-0.445,0.178c-0.738-0.009-1.476,0.013-2.213-0.01
		C656.612,42.222,656.226,42.369,656.041,42.881z M673.639,45.628c-0.034-2.002-0.686-3.55-1.989-4.812
		c-0.448-0.434-0.938-0.82-1.527-1.053c-0.287-0.114-0.634,0.001-0.84,0.249c-0.193,0.233-0.245,0.632-0.066,0.871
		c0.125,0.166,0.297,0.314,0.477,0.42c1.761,1.043,2.687,3.144,2.244,5.137c-0.307,1.38-1.076,2.431-2.29,3.156
		c-0.22,0.131-0.414,0.283-0.489,0.541c-0.09,0.308,0.008,0.636,0.244,0.824c0.291,0.232,0.625,0.255,0.98,0.044
		C672.491,49.748,673.545,47.876,673.639,45.628z M670.427,45.446c0.004-1.415-0.917-2.653-2.281-3.062
		c-0.336-0.101-0.644-0.06-0.884,0.219c-0.233,0.271-0.264,0.588-0.094,0.903c0.116,0.214,0.314,0.324,0.537,0.403
		c0.714,0.253,1.139,0.832,1.137,1.536c-0.002,0.697-0.427,1.27-1.126,1.524c-0.088,0.032-0.176,0.071-0.257,0.117
		c-0.338,0.192-0.48,0.582-0.346,0.94c0.139,0.371,0.501,0.587,0.884,0.502C669.324,48.236,670.428,46.988,670.427,45.446z"/>
	<path display="inline" d="M1,193.243c4.549-12.559,14.005-16.16,26.606-15.781c18.072,0.544,36.175,0.002,54.261,0.235
		c4.484,0.058,7.68-1.187,10.908-4.372C133.411,133.23,174.142,93.23,215.007,53.37c3.964-3.866,8.634-7.38,13.596-9.775
		c11.573-5.586,23.115,0.279,26.111,12.822c0.8,3.35,1.113,6.892,1.115,10.347c0.055,124.629,0.073,249.259-0.045,373.888
		c-0.005,5.403-0.61,11.038-2.222,16.16c-4.062,12.904-15.494,17.299-27.251,10.612c-4.255-2.42-8.104-5.776-11.631-9.224
		c-40.936-40.026-81.796-80.13-122.589-120.303c-2.569-2.53-5.114-3.612-8.729-3.58c-18.585,0.166-37.184-0.325-55.755,0.216
		C15.006,334.9,5.549,331.309,1,318.751C1,276.915,1,235.079,1,193.243z"/>
	<path display="inline" d="M511,266.954c-1.646,11.285-2.626,22.715-5.05,33.829c-12.375,56.737-42.875,101.427-90.736,134.195
		c-7.362,5.04-15.232,9.44-23.216,13.439c-7.23,3.622-14.513,2.732-20.898-2.577c-6.096-5.068-7.87-11.699-6.242-19.226
		c1.488-6.879,6.404-11.004,12.325-14.116c23.588-12.399,43.526-29.162,59.354-50.577c27.849-37.677,39.74-80,33.896-126.501
		c-7.675-61.076-39.51-106.169-93.262-135.885c-8.392-4.64-13.627-10.843-12.635-21.044c1.132-11.639,13.246-20.379,24.113-15.879
		c10.015,4.147,19.726,9.581,28.607,15.821c49.77,34.969,80.134,82.506,90.599,142.534c1.389,7.965,2.112,16.046,3.144,24.073
		C511,252.344,511,259.649,511,266.954z"/>
	<path display="inline" d="M432.506,260.596c-2.303,55.119-28.156,101.02-79.816,131.815c-8.686,5.178-16.885,4.633-24.023-1.067
		c-5.782-4.616-8.194-12.64-5.986-20.203c1.851-6.341,6.601-10.057,11.996-13.276c29.763-17.757,48.62-43.524,56.14-77.371
		c10.854-48.855-11.863-100.38-55.032-125.954c-4.416-2.616-8.635-6.222-11.7-10.304c-4.394-5.852-3.119-15.637,1.624-21.352
		c5.036-6.067,13.554-8.882,20.591-6.098c14.428,5.707,26.452,15.186,37.436,25.824
		C415.694,173.564,431.663,211.519,432.506,260.596z"/>
	<path display="inline" d="M353.74,256.139c0.034,37.802-27.031,68.405-59.603,75.592c-9.389,2.072-18.266-3.216-21.673-12.321
		c-3.282-8.77,0.192-18.332,8.483-23.05c2.002-1.139,4.142-2.088,6.309-2.875c17.156-6.23,27.57-20.284,27.614-37.379
		c0.045-17.268-10.383-31.448-27.888-37.656c-5.474-1.941-10.314-4.616-13.161-9.874c-4.184-7.727-3.419-15.504,2.292-22.137
		c5.895-6.847,13.444-7.852,21.687-5.378C331.244,191.097,353.837,221.454,353.74,256.139z"/>
</g>
<g display="none">
	<path fill="#FFFFFF" d="M656.041,35.041c6.933,0,13.867,0,20.8,0c0,6.933,0,13.867,0,20.8c-6.933,0-13.867,0-20.8,0
		C656.041,48.907,656.041,41.974,656.041,35.041z M669.638,45.337c0-2.504,0.001-5.008-0.001-7.512c0-0.155-0.008-0.312-0.035-0.465
		c-0.097-0.555-0.59-0.82-1.096-0.573c-0.202,0.099-0.39,0.245-0.552,0.402c-1.671,1.631-3.336,3.268-4.999,4.907
		c-0.111,0.109-0.222,0.151-0.374,0.15c-0.805-0.006-1.611-0.004-2.416-0.002c-0.603,0.001-0.913,0.312-0.913,0.913
		c-0.001,1.516-0.001,3.032,0,4.548c0,0.628,0.304,0.932,0.934,0.933c0.805,0.001,1.611,0.004,2.416-0.003
		c0.148-0.001,0.251,0.046,0.355,0.148c1.659,1.633,3.321,3.264,4.985,4.892c0.135,0.132,0.277,0.263,0.436,0.361
		c0.519,0.321,1.027,0.124,1.182-0.463c0.058-0.219,0.075-0.454,0.075-0.682C669.64,50.373,669.638,47.855,669.638,45.337z
		 M673.629,45.45c0.004-1.418-0.946-2.689-2.299-3.071c-0.337-0.095-0.645-0.047-0.88,0.238c-0.226,0.274-0.251,0.575-0.085,0.887
		c0.13,0.244,0.364,0.346,0.612,0.433c0.639,0.225,1.07,0.837,1.069,1.506c-0.001,0.67-0.432,1.274-1.071,1.506
		c-0.107,0.039-0.215,0.083-0.314,0.139c-0.33,0.185-0.481,0.581-0.357,0.918c0.144,0.392,0.498,0.611,0.889,0.525
		C672.519,48.238,673.622,47.003,673.629,45.45z"/>
	<path display="inline" d="M349.235,252.96c0,73.395,0.055,146.79-0.092,220.184c-0.013,6.643-0.508,13.5-2.194,19.884
		c-4.521,17.128-19.353,22.859-34.47,13.506c-4.638-2.87-8.784-6.69-12.709-10.531c-48.51-47.467-96.96-94.995-145.328-142.606
		c-3.032-2.985-6.015-4.35-10.341-4.312c-23.477,0.206-46.956,0.12-70.435,0.09c-18.366-0.024-27.225-8.878-27.231-27.197
		c-0.014-44.195-0.02-88.389,0.003-132.584c0.009-17.53,9.038-26.571,26.623-26.611c23.478-0.053,46.958-0.108,70.435,0.069
		c4.448,0.033,7.674-1.181,10.909-4.371c48.467-47.792,97.013-95.504,145.724-143.048c4.716-4.603,10.206-8.859,16.091-11.731
		c14.752-7.199,29.124,0.547,31.96,16.717c0.779,4.439,1.009,9.024,1.013,13.542C349.252,106.959,349.235,179.96,349.235,252.96z"/>
	<path display="inline" d="M465.576,256.24c-0.211,45.282-32.342,81.271-71.015,89.791c-11.409,2.514-21.716-3.874-25.914-15.308
		c-3.611-9.836,0.787-21.376,10.405-26.771c2.899-1.626,6.029-2.902,9.162-4.039c18.617-6.757,31.177-24.359,31.211-43.895
		c0.034-19.485-12.524-37.329-31.152-43.888c-7.212-2.539-14.039-5.507-17.833-12.629c-4.839-9.083-4.125-17.861,2.466-25.85
		c6.847-8.298,15.803-9.712,25.64-6.937C437.989,177.843,465.689,214.905,465.576,256.24z"/>
</g>
</svg>
