<?xml version="1.0" encoding="utf-8"?>
<!-- Generator: Adobe Illustrator 17.0.0, SVG Export Plug-In . SVG Version: 6.00 Build 0)  -->
<!DOCTYPE svg PUBLIC "-//W3C//DTD SVG 1.1//EN" "http://www.w3.org/Graphics/SVG/1.1/DTD/svg11.dtd">
<svg version="1.1" id="Layer_1" xmlns="http://www.w3.org/2000/svg" xmlns:xlink="http://www.w3.org/1999/xlink" x="0px" y="0px"
	 width="512px" height="512px" viewBox="0 0 512 512" enable-background="new 0 0 512 512" xml:space="preserve">
<g>
	<line fill="none" stroke="#B35047" x1="32" y1="0" x2="32" y2="512"/>
	<line fill="none" stroke="#B35047" x1="64" y1="0" x2="64" y2="512"/>
	<line fill="none" stroke="#B35047" x1="96" y1="0" x2="96" y2="512"/>
	<line fill="none" stroke="#B35047" x1="128" y1="0" x2="128" y2="512"/>
	<line fill="none" stroke="#B35047" x1="160" y1="0" x2="160" y2="512"/>
	<line fill="none" stroke="#B35047" x1="192" y1="0" x2="192" y2="512"/>
	<line fill="none" stroke="#B35047" x1="224" y1="0" x2="224" y2="512"/>
	<line fill="none" stroke="#B35047" x1="256" y1="0" x2="256" y2="512"/>
	<line fill="none" stroke="#B35047" x1="288" y1="0" x2="288" y2="512"/>
	<line fill="none" stroke="#B35047" x1="320" y1="0" x2="320" y2="512"/>
	<line fill="none" stroke="#B35047" x1="352" y1="0" x2="352" y2="512"/>
	<line fill="none" stroke="#B35047" x1="384" y1="0" x2="384" y2="512"/>
	<line fill="none" stroke="#B35047" x1="416" y1="0" x2="416" y2="512"/>
	<line fill="none" stroke="#B35047" x1="448" y1="0" x2="448" y2="512"/>
	<line fill="none" stroke="#B35047" x1="480" y1="0" x2="480" y2="512"/>
	<line fill="none" stroke="#B35047" x1="0" y1="32" x2="512" y2="32"/>
	<line fill="none" stroke="#B35047" x1="0" y1="64" x2="512" y2="64"/>
	<line fill="none" stroke="#B35047" x1="0" y1="96" x2="512" y2="96"/>
	<line fill="none" stroke="#B35047" x1="0" y1="128" x2="512" y2="128"/>
	<line fill="none" stroke="#B35047" x1="0" y1="160" x2="512" y2="160"/>
	<line fill="none" stroke="#B35047" x1="0" y1="192" x2="512" y2="192"/>
	<line fill="none" stroke="#B35047" x1="0" y1="224" x2="512" y2="224"/>
	<line fill="none" stroke="#B35047" x1="0" y1="256" x2="512" y2="256"/>
	<line fill="none" stroke="#B35047" x1="0" y1="288" x2="512" y2="288"/>
	<line fill="none" stroke="#B35047" x1="0" y1="320" x2="512" y2="320"/>
	<line fill="none" stroke="#B35047" x1="0" y1="352" x2="512" y2="352"/>
	<line fill="none" stroke="#B35047" x1="0" y1="384" x2="512" y2="384"/>
	<line fill="none" stroke="#B35047" x1="0" y1="416" x2="512" y2="416"/>
	<line fill="none" stroke="#B35047" x1="0" y1="448" x2="512" y2="448"/>
	<line fill="none" stroke="#B35047" x1="0" y1="480" x2="512" y2="480"/>
	<rect x="0" fill="none" stroke="#B35047" width="512" height="512"/>
</g>
<g>
	<path d="M1,380.512c0-83.008,0-166.016,0-249.023c0.552-2.033,1.151-4.054,1.648-6.1c6.651-27.416,29.358-45.574,57.697-45.636
		c57.916-0.125,115.833-0.046,173.75-0.041c73.184,0.007,146.368-0.104,219.552,0.108c25.93,0.075,48.803,18.543,55.235,43.637
		c0.688,2.682,1.411,5.355,2.118,8.032c0,83.008,0,166.016,0,249.023c-0.552,2.033-1.151,4.054-1.648,6.1
		c-6.651,27.416-29.358,45.574-57.697,45.636c-58.082,0.125-116.165,0.046-174.248,0.041c-73.018-0.007-146.037,0.105-219.054-0.108
		c-25.93-0.075-48.803-18.543-55.235-43.637C2.431,385.862,1.707,383.189,1,380.512z M465.12,379.636
		c0.283-0.278,0.566-0.557,0.849-0.835c-40.602-41.585-81.204-83.171-122.045-125.001c49.765-38.812,98.855-77.098,147.946-115.384
		c-2.535,0.203-4.572,1.182-6.559,2.253c-74.708,40.302-149.428,80.583-224.069,121.01c-3.808,2.062-6.608,2.105-10.439,0.03
		c-74.641-40.427-149.364-80.702-224.073-121.004c-2.006-1.082-4.045-2.103-6.069-3.153c-0.161,0.309-0.322,0.617-0.483,0.926
		c49.156,38.32,98.313,76.64,147.898,115.294c-40.955,41.936-81.504,83.457-122.053,124.978c0.262,0.294,0.524,0.589,0.785,0.883
		c49.633-35.445,99.265-70.889,149.021-106.422c1.49,0.926,2.907,1.771,4.289,2.669c15.159,9.854,30.689,19.196,45.314,29.789
		c7.752,5.615,13.209,5.688,21.037,0.073c16.014-11.487,32.908-21.747,49.573-32.6C365.854,308.725,415.487,344.18,465.12,379.636z"
		/>
	<path display="none" fill="#FFFFFF" d="M590.841,70.362c-0.029-0.109-0.058-0.218-0.086-0.328c-0.262-1.023-1.195-1.777-2.253-1.78
		c-2.985-0.009-5.969-0.004-8.954-0.004c-2.362,0-4.724-0.003-7.086,0.002c-1.156,0.003-2.082,0.743-2.353,1.861
		c-0.02,0.083-0.045,0.166-0.067,0.249c0-1.773,0-3.546,0-5.32c6.933,0,13.867,0,20.8,0
		C590.841,66.817,590.841,68.59,590.841,70.362z"/>
	<path display="none" fill="#FFFFFF" d="M570.041,80.519c0.029,0.109,0.058,0.218,0.086,0.328c0.262,1.023,1.195,1.777,2.253,1.78
		c2.978,0.009,5.956,0.004,8.934,0.004c2.369,0,4.738,0.003,7.107-0.002c1.156-0.002,2.082-0.743,2.353-1.861
		c0.02-0.083,0.045-0.166,0.067-0.249c0,1.774,0,3.548,0,5.322c-6.933,0-13.867,0-20.8,0
		C570.041,84.067,570.041,82.293,570.041,80.519z"/>
	<path display="none" fill="#FFFFFF" d="M588.969,80.483c-2.024-1.446-4.049-2.892-6.08-4.343c-0.68,0.443-1.369,0.861-2.022,1.33
		c-0.319,0.229-0.542,0.226-0.858-0.003c-0.596-0.432-1.23-0.813-1.848-1.215c-0.056-0.037-0.114-0.071-0.175-0.109
		c-2.029,1.449-4.053,2.895-6.078,4.34c-0.011-0.012-0.021-0.024-0.032-0.036c1.654-1.693,3.308-3.387,4.978-5.097
		c-2.022-1.576-4.027-3.139-6.032-4.702c0.007-0.013,0.013-0.025,0.02-0.038c0.083,0.043,0.166,0.084,0.247,0.129
		c3.047,1.644,6.094,3.286,9.139,4.935c0.156,0.085,0.27,0.083,0.426-0.001c3.044-1.649,6.092-3.292,9.138-4.935
		c0.081-0.044,0.164-0.084,0.268-0.092c-2.002,1.561-4.004,3.123-6.034,4.706c1.666,1.706,3.322,3.402,4.977,5.098
		C588.992,80.46,588.981,80.472,588.969,80.483z"/>
</g>
<g display="none">
	<path display="inline" d="M53.915,7.475c122.137,0,244.273,0,366.41,0c0.584,0.288,1.139,0.725,1.755,0.842
		c31.863,6.054,50.585,28.54,50.636,61.323c0.098,63.219,0.094,126.439-0.065,189.658c-0.017,6.768-1.342,13.533-2.182,21.441
		c-2.653-2.273-4.046-3.428-5.396-4.63c-11.928-10.619-23.795-21.307-35.788-31.853c-10.745-9.449-23.324-11.521-36.846-8.129
		c-3.156,0.792-4.788,0.058-6.835-2.048c-22.028-22.67-44.144-45.254-66.231-67.867c-0.909-0.93-1.764-1.913-2.968-3.226
		c44.106-34.385,87.973-68.582,131.839-102.78c-0.229-0.336-0.458-0.671-0.687-1.007c-1.586,0.783-3.198,1.516-4.754,2.355
		c-66.988,36.126-133.987,72.231-200.909,108.478c-3.66,1.982-6.363,1.923-9.994-0.043C164.534,133.517,97.093,97.182,29.664,60.825
		c-1.598-0.862-3.236-1.65-4.855-2.472c-0.151,0.291-0.303,0.583-0.454,0.874c44.282,34.512,88.564,69.025,133.219,103.827
		c-36.818,37.704-73.217,74.979-109.616,112.253c2.409-0.276,4.122-1.431,5.803-2.632c41.417-29.562,82.878-59.065,124.169-88.802
		c3.828-2.757,6.247-2.572,9.977-0.065c15.038,10.109,30.359,19.794,45.471,29.794c2.602,1.721,4.438,1.759,7.073,0.015
		c15.524-10.281,31.241-20.272,46.736-30.597c2.999-1.998,4.939-1.9,7.814,0.173c26.439,19.06,52.994,37.958,79.506,56.916
		c1.306,0.934,2.524,1.992,4.246,3.36c-16.788,13.329-14.243,32.005-14.296,49.714c-0.911,0.364-1.337,0.629-1.795,0.704
		c-24.92,4.093-48.181,12.431-69.138,26.788c-1.246,0.853-3.102,1.145-4.674,1.146c-76.695,0.045-153.39,0.167-230.085-0.059
		c-24.416-0.072-45.757-15.809-53.987-38.857c-1.605-4.494-2.537-9.228-3.779-13.851C1,199.499,1,129.945,1,60.39
		c0.341-1.093,0.798-2.164,1.007-3.282c4.308-23.009,17.608-38.405,39.489-46.392C45.497,9.255,49.768,8.536,53.915,7.475z"/>
	<path fill="#FFFFFF" d="M570.041,75.684c0.051,0.188,0.088,0.381,0.154,0.564c0.335,0.938,1.203,1.578,2.197,1.581
		c3.121,0.009,6.242,0.004,9.362,0.002c0.064,0,0.14-0.012,0.19-0.047c0.853-0.584,1.799-0.923,2.813-1.09
		c0.019-0.003,0.036-0.014,0.073-0.029c0.002-0.721-0.101-1.481,0.582-2.023c-0.07-0.056-0.12-0.099-0.173-0.137
		c-1.079-0.771-2.159-1.54-3.235-2.316c-0.117-0.084-0.196-0.088-0.318-0.007c-0.63,0.42-1.27,0.827-1.902,1.245
		c-0.107,0.071-0.182,0.069-0.288-0.001c-0.615-0.407-1.238-0.801-1.85-1.212c-0.152-0.102-0.25-0.11-0.406,0.003
		c-1.68,1.21-3.367,2.41-5.052,3.613c-0.068,0.049-0.138,0.096-0.236,0.107c1.481-1.517,2.962-3.033,4.46-4.568
		c-1.817-1.416-3.619-2.82-5.421-4.225c0.006-0.012,0.012-0.024,0.018-0.036c0.066,0.033,0.133,0.066,0.198,0.101
		c2.744,1.479,5.488,2.958,8.229,4.442c0.148,0.08,0.258,0.082,0.407,0.002c2.723-1.475,5.449-2.944,8.175-4.414
		c0.063-0.034,0.129-0.064,0.193-0.096c0.009,0.014,0.019,0.027,0.028,0.041c-1.785,1.392-3.57,2.783-5.365,4.182
		c0.049,0.053,0.084,0.093,0.121,0.131c0.899,0.92,1.799,1.839,2.695,2.762c0.083,0.086,0.15,0.116,0.278,0.083
		c0.55-0.138,1.062-0.054,1.499,0.331c0.488,0.429,0.971,0.864,1.456,1.296c0.055,0.049,0.112,0.096,0.22,0.188
		c0.034-0.322,0.088-0.597,0.089-0.872c0.006-2.572,0.007-5.145,0.003-7.717c-0.002-1.334-0.764-2.249-2.06-2.495
		c-0.025-0.005-0.048-0.023-0.071-0.034c1.246,0,2.492,0,3.737,0c0,6.933,0,13.867,0,20.8c-6.933,0-13.867,0-20.8,0
		C570.041,82.455,570.041,79.07,570.041,75.684z M586.049,77.795c-0.242,0.016-0.451,0.026-0.66,0.045
		c-2.108,0.193-3.648,1.208-4.539,3.152c-0.422,0.92-0.62,1.898-0.727,2.898c-0.024,0.228-0.034,0.459-0.047,0.688
		c-0.013,0.229-0.021,0.458-0.031,0.687c0.061-0.072,0.08-0.15,0.11-0.224c0.256-0.638,0.473-1.297,0.782-1.909
		c0.483-0.956,1.254-1.593,2.315-1.853c0.903-0.221,1.822-0.231,2.742-0.228c0.011,0,0.023,0.012,0.054,0.03
		c0,0.061,0,0.134,0,0.207c0,0.569,0.001,1.137,0,1.706c0,0.162,0.055,0.291,0.206,0.365c0.153,0.075,0.289,0.033,0.414-0.069
		c0.047-0.038,0.093-0.079,0.138-0.12c1.249-1.121,2.498-2.243,3.747-3.365c0.319-0.287,0.318-0.477-0.006-0.765
		c-1.249-1.112-2.497-2.224-3.746-3.335c-0.051-0.045-0.096-0.111-0.155-0.128c-0.122-0.035-0.259-0.078-0.377-0.053
		c-0.15,0.031-0.216,0.173-0.219,0.329c-0.003,0.142-0.002,0.284-0.002,0.426C586.049,76.78,586.049,77.279,586.049,77.795z"/>
	<path fill="#FFFFFF" d="M572.194,65.041c-0.169,0.043-0.343,0.072-0.505,0.132c-0.89,0.325-1.432,0.951-1.607,1.888
		c-0.008,0.045-0.027,0.089-0.041,0.134c0-0.714,0-1.429,0-2.153C570.758,65.041,571.476,65.041,572.194,65.041z"/>
	<path display="inline" d="M394.421,320.932c0-12.68-0.002-24.955,0.001-37.229c0.001-3.494-0.026-6.988,0.039-10.48
		c0.071-3.838,1.694-7.313,5.386-8.079c2.894-0.6,6.263,0.456,9.27,1.31c1.452,0.412,2.574,2.031,3.816,3.137
		c30.694,27.317,61.387,54.634,92.07,81.963c7.949,7.08,7.992,11.749,0.146,18.8c-30.686,27.576-61.388,55.133-92.087,82.695
		c-1.114,1-2.234,1.995-3.394,2.941c-3.063,2.5-6.418,3.522-10.178,1.691c-3.72-1.812-5.08-4.988-5.073-8.975
		c0.025-13.975,0.006-27.949,0.004-41.924c0-1.793,0-3.586,0-5.087c-0.782-0.443-1.059-0.737-1.337-0.738
		c-22.626-0.073-45.2,0.179-67.397,5.615c-26.085,6.389-45.029,22.043-56.904,45.53c-7.601,15.033-12.92,31.222-19.222,46.908
		c-0.731,1.82-1.203,3.744-2.693,5.517c0.248-5.626,0.445-11.256,0.759-16.879c0.315-5.642,0.561-11.298,1.16-16.914
		c2.621-24.567,7.497-48.601,17.865-71.215c21.908-47.783,59.743-72.727,111.558-77.472
		C383.337,321.576,388.485,321.334,394.421,320.932z"/>
</g>
<g display="none">
	<path fill="#FFFFFF" d="M570.041,65.041c6.933,0,13.867,0,20.8,0c0,6.933,0,13.867,0,20.8c-6.933,0-13.867,0-20.8,0
		C570.041,78.907,570.041,71.974,570.041,65.041z M572.945,76.438c1.295,3.613,4.462,5.223,6.918,5.32
		c3.921,0.154,6.562-1.731,8.094-5.288c0.093,0.124,0.19,0.261,0.296,0.392c0.479,0.589,1.289,0.71,1.866,0.281
		c0.615-0.457,0.74-1.266,0.293-1.911c-0.62-0.895-1.338-1.701-2.173-2.402c-2.006-1.683-4.318-2.628-6.925-2.822
		c-1.927-0.144-3.787,0.164-5.57,0.92c-2.182,0.926-3.937,2.374-5.284,4.32c-0.445,0.643-0.303,1.459,0.318,1.906
		c0.592,0.427,1.423,0.279,1.889-0.337C572.756,76.699,572.842,76.579,572.945,76.438z"/>
	<path display="inline" d="M69.347,270.137c-2.569,3.511-4.705,6.514-6.927,9.452c-11.621,15.361-32.3,19.045-47.049,8.405
		c-15.456-11.151-18.999-31.454-7.917-47.478c33.526-48.473,77.234-84.544,131.588-107.6c44.404-18.836,90.74-26.492,138.722-22.91
		c64.947,4.848,122.519,28.376,172.477,70.289c20.791,17.442,38.677,37.521,54.108,59.811c11.128,16.075,8.021,36.22-7.289,47.597
		c-14.374,10.681-34.522,7.672-46.463-7.008c-2.642-3.248-5.061-6.676-7.382-9.755c-38.167,88.572-103.935,135.538-201.582,131.693
		C180.474,400.224,101.593,360.112,69.347,270.137z M336.012,190.206c31.943,52.152,10.255,104.844-18.578,128.667
		c-32.299,26.687-80.099,29.604-114.857,5.802c-21.692-14.854-35.491-35.302-40.431-61.201
		c-4.934-25.861,0.299-49.978,15.224-72.942c-2.497,0.786-3.782,1.108-5.005,1.587c-27.92,10.931-52.664,26.789-75.172,46.632
		c-7.378,6.504-7.992,12.175-5.012,20.723c12.418,35.615,33.27,64.878,64.001,86.851c35.189,25.16,74.621,35.259,117.468,31.243
		c27.055-2.536,52.237-11.428,75.062-26.358c36.903-24.138,61.429-57.426,73.373-99.952c0.891-3.173,0.287-5.13-2.098-7.439
		c-16.09-15.575-33.774-28.988-53.611-39.371C356.48,199.268,346.147,194.926,336.012,190.206z M256.21,181.235
		c-35.324-0.14-63.935,28.21-64.222,63.635c-0.288,35.53,28.263,64.365,63.863,64.499c35.324,0.133,63.914-28.187,64.242-63.635
		C320.421,210.281,291.792,181.376,256.21,181.235z"/>
	<path fill="#FFFFFF" d="M583.652,73.228c0.407,0.19,0.822,0.364,1.219,0.572c0.797,0.417,1.507,0.955,2.153,1.581
		c0.096,0.093,0.12,0.171,0.084,0.299c-0.48,1.708-1.464,3.044-2.946,4.013c-0.917,0.599-1.928,0.957-3.014,1.058
		c-1.72,0.161-3.304-0.244-4.717-1.254c-1.234-0.882-2.071-2.057-2.57-3.487c-0.12-0.343-0.095-0.571,0.201-0.832
		c0.904-0.797,1.897-1.434,3.018-1.872c0.049-0.019,0.101-0.032,0.201-0.064c-0.599,0.922-0.809,1.89-0.611,2.929
		c0.198,1.04,0.752,1.861,1.623,2.457c1.396,0.956,3.315,0.839,4.612-0.233C584.064,77.438,584.935,75.322,583.652,73.228z"/>
	<path fill="#FFFFFF" d="M580.448,72.868c1.429,0.006,2.578,1.166,2.565,2.59c-0.013,1.423-1.161,2.56-2.579,2.555
		c-1.429-0.005-2.576-1.163-2.564-2.59C577.881,74.001,579.03,72.863,580.448,72.868z"/>
</g>
<g display="none">
	<path fill="#FFFFFF" d="M570.041,85.841c0-6.931,0-13.863,0-20.797c6.929,0,13.859,0,20.794,0c0,6.93,0,13.864,0,20.797
		C583.905,85.841,576.973,85.841,570.041,85.841z M572.93,76.463c1.397,3.315,3.818,5.271,7.453,5.293
		c3.69,0.023,6.15-1.935,7.569-5.29c0.11,0.143,0.224,0.302,0.349,0.452c0.434,0.522,1.208,0.629,1.78,0.252
		c0.573-0.378,0.774-1.154,0.433-1.757c-0.149-0.264-0.329-0.513-0.518-0.75c-2.167-2.715-4.969-4.28-8.434-4.63
		c-1.707-0.172-3.376,0.026-4.998,0.581c-2.534,0.868-4.558,2.415-6.089,4.61c-0.455,0.653-0.328,1.467,0.297,1.925
		c0.588,0.43,1.425,0.286,1.891-0.328C572.756,76.701,572.846,76.577,572.93,76.463z"/>
	<path display="inline" d="M68.923,270.891c-2.097,2.827-4.341,5.912-6.648,8.95c-11.602,15.279-32.439,18.885-47.085,8.165
		c-15.586-11.408-18.753-31.668-7.41-47.937c38.124-54.678,88.544-93.201,151.653-114.816
		c40.403-13.839,81.965-18.77,124.484-14.481c86.296,8.706,156.075,47.694,210.048,115.305c4.714,5.906,9.19,12.12,12.897,18.688
		c8.472,15.011,3.473,34.345-10.794,43.753c-14.245,9.393-33.509,6.706-44.328-6.284c-3.106-3.729-5.944-7.682-8.689-11.252
		c-35.329,83.541-96.598,132.314-188.496,131.744C164,402.161,103.714,353.455,68.923,270.891z M176.744,191.521
		c-0.705-0.162-1.031-0.335-1.317-0.283c-0.659,0.12-1.317,0.3-1.943,0.54c-31.264,12.007-58.805,29.785-82.488,53.463
		c-1.014,1.014-1.61,3.389-1.184,4.749c2.709,8.656,5.141,17.479,8.807,25.74c15.53,35.002,40.097,62.058,73.433,80.892
		c31.604,17.855,65.769,24.691,101.741,21.039c33.28-3.379,63.266-15.686,89.379-36.742c29.349-23.665,49.237-53.655,58.803-90.241
		c0.466-1.781-0.272-4.709-1.558-5.993c-23.21-23.166-50.205-40.582-80.765-52.467c-1.296-0.504-2.692-0.75-4.519-1.246
		c31.165,48.631,13.927,101.796-17.94,128.083c-33.423,27.57-82.897,29.349-117.293,3.856
		c-17.514-12.981-29.811-29.723-35.713-50.69C156.127,243.59,160.597,216.602,176.744,191.521z"/>
	<path fill="#FFFFFF" d="M577.259,73.277c-0.648,1.007-0.828,2.091-0.504,3.24c0.237,0.842,0.731,1.514,1.434,2.035
		c1.381,1.024,3.368,0.952,4.71-0.155c1.28-1.055,1.972-3.19,0.72-5.143c0.073,0.02,0.129,0.03,0.181,0.05
		c1.227,0.477,2.311,1.177,3.243,2.107c0.052,0.052,0.081,0.169,0.063,0.241c-0.384,1.469-1.183,2.673-2.361,3.623
		c-1.048,0.845-2.253,1.34-3.589,1.475c-1.444,0.147-2.816-0.128-4.085-0.845c-1.339-0.756-2.325-1.843-2.948-3.248
		c-0.147-0.332-0.245-0.686-0.354-1.034c-0.017-0.055,0.007-0.15,0.048-0.191c0.951-0.951,2.057-1.665,3.312-2.147
		c0.025-0.01,0.052-0.017,0.078-0.022C577.218,73.263,577.231,73.27,577.259,73.277z"/>
</g>
<g display="none">
	<path fill="#FFFFFF" d="M570.043,85.841c0-6.93,0-13.86,0-20.795c6.926,0,13.854,0,20.79,0c0,6.928,0,13.862,0,20.795
		C583.909,85.841,576.977,85.841,570.043,85.841z M574.026,84.03c0.002,0.304,0.097,0.529,0.311,0.69
		c0.308,0.231,0.627,0.196,0.952,0.025c1.645-0.867,3.292-1.73,4.935-2.601c0.154-0.082,0.271-0.087,0.428-0.003
		c1.655,0.878,3.314,1.748,4.971,2.62c0.305,0.16,0.613,0.184,0.899-0.025c0.291-0.212,0.37-0.509,0.309-0.863
		c-0.323-1.865-0.637-3.732-0.963-5.597c-0.024-0.136,0.015-0.211,0.104-0.297c1.345-1.307,2.687-2.617,4.032-3.923
		c0.265-0.257,0.401-0.55,0.279-0.911c-0.119-0.353-0.399-0.509-0.758-0.549c-0.215-0.024-0.428-0.062-0.642-0.093
		c-1.633-0.238-3.265-0.478-4.899-0.708c-0.155-0.022-0.234-0.083-0.301-0.219c-0.819-1.669-1.641-3.337-2.468-5.002
		c-0.065-0.13-0.15-0.261-0.257-0.358c-0.308-0.28-0.996-0.278-1.289,0.328c-0.815,1.686-1.651,3.362-2.485,5.039
		c-0.041,0.083-0.138,0.18-0.221,0.194c-0.58,0.097-1.164,0.173-1.746,0.257c-1.318,0.19-2.637,0.378-3.955,0.574
		c-0.413,0.062-0.686,0.359-0.707,0.746c-0.016,0.293,0.127,0.513,0.33,0.71c1.34,1.302,2.677,2.608,4.017,3.91
		c0.095,0.092,0.134,0.172,0.109,0.315c-0.249,1.405-0.487,2.811-0.728,4.217C574.194,83.025,574.107,83.545,574.026,84.03z"/>
	<path display="inline" d="M90.545,477.007c2.105-12.49,4.336-25.901,6.628-39.302c6.202-36.262,12.349-72.534,18.768-108.758
		c0.653-3.684-0.363-5.755-2.806-8.128C78.565,287.242,44.095,253.563,9.533,219.979c-5.236-5.088-8.919-10.751-8.5-18.32
		c0.552-9.975,7.582-17.65,18.243-19.238c33.981-5.059,67.994-9.9,101.997-14.811c15.016-2.168,30.065-4.133,45.025-6.637
		c2.157-0.361,4.647-2.861,5.713-5.003c21.52-43.24,43.088-86.46,64.099-129.947c7.554-15.634,25.292-15.67,33.241-8.456
		c2.747,2.493,4.95,5.864,6.618,9.223c21.327,42.946,42.551,85.944,63.661,128.998c1.722,3.513,3.764,5.081,7.755,5.644
		c42.134,5.946,84.233,12.142,126.341,18.271c5.523,0.804,11.025,1.79,16.569,2.4c9.264,1.02,16.468,5.043,19.542,14.151
		c3.144,9.312-0.359,16.877-7.188,23.503c-34.713,33.68-69.304,67.484-103.998,101.184c-2.294,2.228-3.303,4.158-2.692,7.661
		c8.393,48.093,16.495,96.236,24.831,144.339c1.58,9.117-0.469,16.783-7.971,22.25c-7.379,5.378-15.325,4.77-23.182,0.637
		c-42.753-22.49-85.541-44.914-128.21-67.56c-4.057-2.153-7.061-2.024-11.034,0.082c-42.372,22.463-84.859,44.709-127.281,67.079
		c-8.375,4.416-16.596,5.338-24.545-0.632C93.045,490.648,90.604,484.835,90.545,477.007z"/>
</g>
<g display="none">
	<path fill="#FFFFFF" d="M570.043,85.841c0-6.93,0-13.86,0-20.795c6.926,0,13.854,0,20.79,0c0,6.928,0,13.862,0,20.795
		C583.909,85.841,576.977,85.841,570.043,85.841z M580.07,65.192c-0.372,0.044-1.118,0.087-1.845,0.228
		c-2.336,0.453-4.35,1.517-5.915,3.333c-1.787,2.073-2.477,4.472-1.927,7.174c0.375,1.844,1.341,3.365,2.728,4.622
		c0.152,0.137,0.167,0.263,0.118,0.442c-0.172,0.625-0.46,1.193-0.907,1.656c-0.478,0.496-1.005,0.944-1.504,1.42
		c-0.15,0.143-0.289,0.302-0.413,0.469c-0.089,0.12-0.059,0.236,0.109,0.267c0.345,0.063,0.689,0.153,1.036,0.172
		c0.824,0.046,1.631-0.1,2.428-0.299c1.422-0.354,2.779-0.886,4.107-1.5c0.108-0.05,0.248-0.076,0.364-0.057
		c1.597,0.26,3.183,0.226,4.753-0.171c2.432-0.616,4.46-1.864,5.928-3.927c1.32-1.855,1.818-3.924,1.425-6.175
		c-0.386-2.216-1.553-3.974-3.301-5.35C585.259,65.927,582.962,65.225,580.07,65.192z"/>
	<path display="inline" d="M246.742,9.663c72.004,0.806,129.199,18.287,178.831,57.328C469.101,101.232,498.14,145,507.754,200.17
		c9.768,56.055-2.633,107.552-35.483,153.733c-36.536,51.362-87.011,82.435-147.561,97.758
		c-39.076,9.889-78.577,10.721-118.321,4.254c-2.887-0.47-6.37,0.178-9.06,1.423c-33.053,15.285-66.842,28.526-102.242,37.346
		c-19.831,4.941-39.915,8.586-60.432,7.441c-8.653-0.483-17.215-2.722-25.797-4.28c-4.18-0.758-4.923-3.642-2.714-6.639
		c3.066-4.159,6.531-8.103,10.272-11.671c12.422-11.85,25.538-23.014,37.445-35.351c11.126-11.529,18.306-25.675,22.58-41.237
		c1.225-4.458,0.841-7.59-2.933-11.009c-34.529-31.286-58.583-69.133-67.921-115.049C-8.092,209.633,9.091,149.915,53.57,98.299
		c38.941-45.189,89.085-71.685,147.239-82.964C218.911,11.824,237.488,10.763,246.742,9.663z"/>
</g>
<g display="none">
	<path display="inline" d="M511,60.291c0,69.554,0,139.108,0,208.662c-0.32,0.928-0.765,1.834-0.942,2.789
		c-5.644,30.554-28.778,49.992-59.798,50.011c-75.198,0.045-150.397,0.042-225.595-0.089c-2.77-0.005-5.703-1.207-8.279-2.439
		c-12.102-5.788-23.801-12.555-36.24-17.461c-10.24-4.04-21.316-5.961-32.633-8.984c0.161-17.587,2.292-36.275-13.997-49.418
		c0.717-0.8,0.898-1.092,1.157-1.277c27.856-19.936,55.745-39.828,83.536-59.855c2.533-1.825,4.096-0.869,6.142,0.47
		c15.721,10.286,31.527,20.442,47.192,30.812c2.629,1.74,4.466,1.721,7.073-0.004c14.975-9.907,30.187-19.458,45.05-29.527
		c4.074-2.76,6.71-2.889,10.812,0.067c41.151,29.648,82.476,59.054,123.756,88.524c1.682,1.201,3.395,2.358,5.093,3.536
		c0.238-0.3,0.475-0.6,0.713-0.9c-36.468-37.35-72.935-74.7-109.61-112.261c44.817-34.929,89.009-69.37,133.2-103.812
		c-2.275,0.053-4.018,0.917-5.728,1.839C414.618,97.25,347.32,133.501,280.098,169.893c-3.633,1.967-6.336,2.019-9.994,0.038
		c-66.922-36.248-133.922-72.353-200.91-108.479c-1.609-0.868-3.276-1.626-4.916-2.435c-0.189,0.352-0.379,0.704-0.568,1.057
		c43.882,34.208,87.764,68.415,131.786,102.732c-0.671,0.867-1.018,1.42-1.464,1.876c-22.783,23.328-45.609,46.615-68.307,70.025
		c-2.028,2.091-3.698,1.836-6.137,1.257c-13.567-3.225-26.12-1.259-36.864,8.19c-12.117,10.656-24.107,21.457-36.163,32.183
		c-1.32,1.175-2.713,2.269-4.998,4.172c-0.851-7.334-2.188-13.57-2.203-19.81c-0.153-64.218-0.288-128.437-0.004-192.653
		C39.487,38.134,57.647,15.452,85.5,8.916c2.067-0.485,4.12-1.025,6.18-1.54c122.135,0,244.271,0,366.406,0
		c0.927,0.324,1.829,0.782,2.783,0.952c23.469,4.189,39.069,17.667,47.032,40.015C509.277,52.204,509.984,56.302,511,60.291z"/>
	<path fill="#FFFFFF" d="M573.778,65.041c-0.084,0.021-0.167,0.043-0.251,0.063c-1.133,0.266-1.872,1.189-1.878,2.406
		c-0.012,2.613-0.006,5.226,0,7.839c0.001,0.254,0.055,0.508,0.09,0.806c0.093-0.077,0.15-0.122,0.203-0.17
		c0.491-0.436,0.978-0.876,1.471-1.31c0.437-0.384,0.948-0.464,1.5-0.333c0.099,0.024,0.167,0.034,0.25-0.051
		c0.924-0.953,1.852-1.9,2.779-2.849c0.018-0.019,0.032-0.041,0.06-0.076c-1.791-1.396-3.577-2.788-5.362-4.18
		c0.008-0.014,0.015-0.029,0.023-0.043c0.067,0.033,0.135,0.064,0.2,0.099c2.726,1.47,5.452,2.939,8.175,4.414
		c0.149,0.081,0.259,0.078,0.407-0.002c2.735-1.481,5.474-2.956,8.212-4.432c0.07-0.038,0.141-0.073,0.233-0.075
		c-1.798,1.401-3.596,2.803-5.42,4.224c1.492,1.528,2.976,3.048,4.46,4.568c-0.01,0.012-0.019,0.024-0.029,0.037
		c-0.069-0.048-0.139-0.095-0.207-0.144c-1.68-1.199-3.361-2.396-5.036-3.602c-0.167-0.12-0.274-0.115-0.44-0.003
		c-0.605,0.41-1.224,0.798-1.833,1.201c-0.106,0.07-0.181,0.071-0.288,0c-0.637-0.422-1.281-0.835-1.92-1.254
		c-0.083-0.054-0.147-0.093-0.25-0.019c-1.131,0.815-2.266,1.624-3.399,2.436c-0.01,0.008-0.018,0.019-0.047,0.052
		c0.663,0.535,0.576,1.295,0.57,2.011c0.461,0.123,0.911,0.201,1.328,0.366c0.506,0.2,0.982,0.475,1.475,0.711
		c0.105,0.05,0.224,0.099,0.337,0.099c3.06,0.005,6.12,0.005,9.18,0.004c1.262-0.001,2.204-0.792,2.433-2.035
		c0.007-0.039,0.025-0.076,0.038-0.113c0,3.385,0,6.771,0,10.156c-6.933,0-13.867,0-20.8,0c0-6.933,0-13.867,0-20.8
		C571.286,65.041,572.532,65.041,573.778,65.041z M574.832,77.746c0-0.044,0-0.117,0-0.19c0-0.555-0.001-1.11,0-1.665
		c0-0.162-0.053-0.293-0.204-0.367c-0.16-0.079-0.302-0.035-0.429,0.077c-0.025,0.022-0.052,0.044-0.077,0.066
		c-1.274,1.134-2.549,2.267-3.823,3.402c-0.282,0.251-0.282,0.456,0,0.71c0.427,0.386,0.856,0.77,1.284,1.154
		c0.861,0.773,1.723,1.546,2.584,2.319c0.135,0.121,0.282,0.191,0.462,0.104c0.17-0.083,0.205-0.234,0.204-0.408
		c-0.003-0.42-0.001-0.839-0.001-1.259c0-0.208,0-0.416,0-0.621c0.041-0.013,0.059-0.023,0.078-0.023
		c0.833,0.001,1.665,0.01,2.486,0.175c0.995,0.2,1.787,0.704,2.347,1.563c0.456,0.698,0.744,1.468,0.985,2.259
		c0.024,0.078,0.051,0.154,0.076,0.231c0.014-0.436-0.005-0.862-0.042-1.286c-0.093-1.064-0.31-2.099-0.767-3.073
		c-0.695-1.482-1.812-2.479-3.411-2.88C576.024,77.894,575.441,77.844,574.832,77.746z"/>
	<path fill="#FFFFFF" d="M590.841,67.194c-0.041-0.162-0.07-0.329-0.126-0.486c-0.324-0.909-0.959-1.458-1.914-1.628
		c-0.039-0.007-0.076-0.026-0.113-0.039c0.718,0,1.435,0,2.153,0C590.841,65.758,590.841,66.476,590.841,67.194z"/>
	<path display="inline" d="M117.583,319.621c14.972,2.398,29.292,3.645,43.059,7.095c39.302,9.851,66.747,34.374,83.839,70.786
		c11.226,23.916,16.57,49.354,18.846,75.509c0.908,10.428,1.382,20.893,1.042,31.613c-0.629-1.893-1.298-3.774-1.88-5.682
		c-5.926-19.441-13.001-38.355-24.206-55.521c-13.767-21.091-33.238-33.488-57.688-38.404c-20.173-4.055-40.636-4.276-61.102-4.293
		c-0.456,0-0.912,0.264-1.911,0.572c0,5.032,0,10.142,0,15.252c-0.001,10.314-0.059,20.629,0.026,30.943
		c0.035,4.27-0.833,7.984-5.012,10.023c-4.412,2.153-8.024,0.432-11.345-2.55c-21.165-19.006-42.342-37.998-63.512-56.999
		c-10.523-9.445-21.06-18.874-31.55-28.356c-6.913-6.249-6.928-11.275,0.008-17.455c31.297-27.89,62.623-55.746,93.94-83.612
		c0.621-0.553,1.266-1.08,1.889-1.63c3.132-2.767,6.608-3.84,10.546-1.904c3.71,1.823,5.026,5.03,5.017,9.012
		c-0.031,13.642-0.008,27.283-0.006,40.925C117.583,316.747,117.583,318.549,117.583,319.621z"/>
</g>
<g display="none">
	<path display="inline" d="M511,213.168c0,81.68,0,163.359,0,245.039c-0.323,0.926-0.77,1.828-0.95,2.781
		c-4.835,25.681-20.057,41.657-45.169,48.402c-2.21,0.593-4.449,1.076-6.675,1.61c-134.805,0-269.609,0-404.414,0
		c-0.924-0.323-1.825-0.772-2.777-0.951c-25.228-4.746-41.23-19.522-48.112-44.215c-0.703-2.523-1.273-5.084-1.904-7.627
		c0-81.68,0-163.359,0-245.039c4.843-7.442,8.634-15.919,14.736-22.122c15.222-15.474,30.932-30.577,47.449-44.651
		c56.484-48.127,115.94-92.491,175.375-136.858C243.231,6.05,248.837,3.816,254.008,1c1.66,0,3.32,0,4.98,0
		c3.475,1.782,7.297,3.103,10.372,5.416c31.525,23.707,63.417,46.962,94.242,71.552c38.597,30.789,76.587,62.361,114.215,94.33
		C491.222,183.686,504.38,195.953,511,213.168z M493.025,215.96c-0.257-0.343-0.515-0.687-0.772-1.03
		c-26.112,10.355-52.224,20.71-79.118,31.375c0-36.339,0-71.928,0-107.795c-104.944,0-209.278,0-314.206,0
		c0,35.815,0,71.421,0,107.811c-26.999-10.694-53.221-21.081-79.444-31.467c-0.193,0.357-0.386,0.714-0.58,1.071
		c49.635,38.705,99.27,77.41,149.172,116.324c-40.725,41.701-81.032,82.972-121.338,124.244c0.308,0.334,0.616,0.668,0.924,1.002
		c49.367-35.264,98.735-70.529,148.268-105.911c17.925,11.677,35.861,23.03,53.387,34.983c5.044,3.44,8.371,3.4,13.392-0.02
		c17.531-11.942,35.462-23.297,53.331-34.933c49.906,35.649,99.604,71.15,149.302,106.651c0.238-0.301,0.477-0.602,0.715-0.903
		c-40.635-41.627-81.27-83.254-122.137-125.119C393.913,293.254,443.469,254.607,493.025,215.96z"/>
	<path fill="#FFFFFF" d="M580.359,65.041c-0.211,0.115-0.44,0.206-0.63,0.348c-2.424,1.809-4.849,3.619-7.153,5.582
		c-0.674,0.574-1.314,1.19-1.935,1.821c-0.249,0.253-0.403,0.599-0.601,0.902c0-2.881,0-5.763,0-8.653
		C573.48,65.041,576.92,65.041,580.359,65.041z"/>
	<path fill="#FFFFFF" d="M590.841,73.694c-0.27-0.702-0.807-1.202-1.353-1.667c-1.535-1.304-3.084-2.591-4.658-3.847
		c-1.257-1.003-2.558-1.951-3.844-2.918c-0.125-0.094-0.281-0.148-0.423-0.221c3.426,0,6.852,0,10.278,0
		C590.841,67.925,590.841,70.809,590.841,73.694z"/>
	<path fill="#FFFFFF" d="M570.041,83.687c0.026,0.104,0.049,0.208,0.078,0.311c0.281,1.007,0.933,1.61,1.962,1.803
		c0.039,0.007,0.076,0.026,0.113,0.039c-0.718,0-1.435,0-2.153,0C570.041,85.123,570.041,84.405,570.041,83.687z"/>
	<path fill="#FFFFFF" d="M588.688,85.841c0.091-0.022,0.182-0.041,0.272-0.066c1.024-0.275,1.645-0.927,1.842-1.974
		c0.007-0.039,0.026-0.076,0.039-0.113c0,0.718,0,1.435,0,2.153C590.123,85.841,589.405,85.841,588.688,85.841z"/>
	<path fill="#FFFFFF" d="M590.107,73.808c-2.021,1.576-4.042,3.152-6.081,4.742c1.667,1.707,3.324,3.405,4.981,5.103
		c-0.01,0.012-0.019,0.025-0.029,0.037c-2.027-1.448-4.054-2.896-6.089-4.35c-0.729,0.475-1.46,0.938-2.175,1.425
		c-0.205,0.139-0.34,0.141-0.546,0.001c-0.715-0.488-1.446-0.951-2.177-1.427c-2.02,1.443-4.034,2.881-6.047,4.319
		c-0.013-0.014-0.025-0.027-0.038-0.041c1.644-1.683,3.288-3.366,4.949-5.067c-2.035-1.587-4.06-3.166-6.084-4.744
		c0.008-0.015,0.016-0.029,0.024-0.044c1.069,0.424,2.139,0.847,3.24,1.283c0-1.484,0-2.936,0-4.397c4.279,0,8.535,0,12.815,0
		c0,1.463,0,2.914,0,4.396c1.097-0.435,2.162-0.857,3.227-1.28C590.086,73.78,590.097,73.794,590.107,73.808z M584.418,72.255
		c-2.666,0-5.303,0-7.951,0c0,0.528,0,1.044,0,1.565c2.659,0,5.301,0,7.951,0C584.418,73.292,584.418,72.78,584.418,72.255z
		 M576.464,76.221c1.864,0,3.706,0,5.554,0c0-0.528,0-1.039,0-1.563c-1.855,0-3.698,0-5.554,0
		C576.464,75.181,576.464,75.693,576.464,76.221z"/>
	<path display="inline" d="M353.52,177.898c0,12.87,0,25.414,0,38.361c-64.962,0-129.759,0-194.949,0c0-12.769,0-25.417,0-38.361
		C223.491,177.898,288.156,177.898,353.52,177.898z"/>
	<path display="inline" d="M158.488,275.124c0-12.947,0-25.482,0-38.329c45.502,0,90.693,0,136.173,0c0,12.849,0,25.39,0,38.329
		C249.364,275.124,204.186,275.124,158.488,275.124z"/>
</g>
<g display="none">
	<path fill="#FFFFFF" d="M590.834,85.841c-6.929,0-13.86,0-20.793,0c0-6.931,0-13.862,0-20.796c6.928,0,13.858,0,20.793,0
		C590.834,71.974,590.834,78.907,590.834,85.841z M574.008,84.13c0.052,0.12,0.095,0.304,0.198,0.442
		c0.258,0.343,0.649,0.397,1.071,0.176c1.646-0.864,3.293-1.727,4.935-2.599c0.169-0.09,0.296-0.086,0.464,0.004
		c0.899,0.484,1.805,0.954,2.709,1.429c0.742,0.39,1.484,0.78,2.226,1.17c0.303,0.159,0.615,0.189,0.902-0.015
		c0.299-0.213,0.378-0.518,0.315-0.88c-0.322-1.858-0.634-3.718-0.957-5.576c-0.023-0.132,0.006-0.21,0.098-0.299
		c0.692-0.667,1.379-1.339,2.068-2.01c0.664-0.647,1.327-1.295,1.992-1.942c0.248-0.241,0.361-0.529,0.261-0.864
		c-0.098-0.328-0.348-0.512-0.681-0.561c-1.859-0.274-3.719-0.546-5.58-0.807c-0.184-0.026-0.279-0.093-0.36-0.259
		c-0.814-1.664-1.637-3.323-2.456-4.984c-0.117-0.238-0.269-0.439-0.537-0.518c-0.414-0.121-0.779,0.059-0.992,0.49
		c-0.832,1.685-1.663,3.37-2.493,5.056c-0.053,0.108-0.108,0.184-0.246,0.203c-1.881,0.267-3.761,0.54-5.641,0.814
		c-0.248,0.036-0.467,0.134-0.61,0.356c-0.23,0.361-0.173,0.747,0.167,1.079c1.347,1.314,2.696,2.626,4.04,3.943
		c0.062,0.06,0.122,0.174,0.109,0.25c-0.247,1.494-0.504,2.986-0.759,4.478C574.173,83.161,574.096,83.614,574.008,84.13z"/>
	<path display="inline" d="M90.08,480.119c2.268-13.309,4.253-24.989,6.25-36.666c6.583-38.496,13.229-76.981,19.59-115.514
		c0.325-1.971-1.235-4.892-2.822-6.447C78.436,287.512,43.632,253.678,8.89,219.78c-8.773-8.56-10.257-18.526-4.314-27.825
		c3.668-5.739,9.325-8.252,15.724-9.185c48.49-7.07,96.985-14.105,145.502-20.987c3.566-0.506,4.972-2.457,6.344-5.246
		c21.401-43.492,42.846-86.962,64.305-130.426c5.494-11.128,14.906-15.775,25.589-12.642c6.912,2.027,10.822,7.21,13.852,13.351
		c21.135,42.845,42.37,85.641,63.359,128.557c2.087,4.268,4.542,6.001,9.296,6.668c48.008,6.742,95.979,13.748,143.941,20.814
		c8.59,1.265,15.044,5.995,17.577,14.465c2.581,8.633-0.34,16.073-6.733,22.286c-17.153,16.673-34.26,33.392-51.392,50.085
		c-17.758,17.303-35.485,34.637-53.334,51.845c-2.379,2.293-3.12,4.32-2.529,7.721c8.326,47.926,16.38,95.899,24.686,143.828
		c1.615,9.319-0.425,17.195-8.129,22.688c-7.393,5.271-15.432,4.494-23.256,0.387c-19.146-10.053-38.289-20.111-57.431-30.171
		c-23.31-12.251-46.68-24.388-69.868-36.865c-4.319-2.324-7.588-2.421-11.957-0.103c-42.362,22.48-84.838,44.744-127.299,67.036
		c-10.891,5.717-20.977,4.319-27.626-4.531C92.523,487.969,91.423,483.226,90.08,480.119z M373.307,441.317
		c0-1.665,0.124-2.538-0.018-3.366c-6.401-37.296-12.683-74.612-19.339-111.863c-1.85-10.353,0.393-18.634,8.082-26.035
		c26.799-25.795,53.334-51.865,79.958-77.841c1.299-1.268,2.494-2.642,4.171-4.427c-1.501-0.368-2.123-0.576-2.761-0.669
		c-37.968-5.556-75.914-11.275-113.924-16.533c-9.999-1.383-16.583-6.195-20.933-15.07c-16.349-33.354-32.847-66.636-49.293-99.942
		c-0.889-1.8-1.822-3.579-3.139-6.162c-1.376,2.488-2.335,4.07-3.151,5.722c-16.599,33.62-33.255,67.213-49.714,100.901
		c-3.923,8.029-9.897,12.938-18.676,14.22c-31.929,4.661-63.874,9.22-95.808,13.85c-7.436,1.078-14.853,2.288-22.279,3.437
		c-0.169,0.478-0.338,0.956-0.507,1.435c1.603,1.332,3.306,2.561,4.794,4.01c26.529,25.824,52.911,51.801,79.621,77.437
		c7.184,6.895,9.482,14.753,7.872,24.135c-5.396,31.452-10.869,62.892-16.282,94.341c-1.245,7.234-2.369,14.488-3.694,22.631
		c2.637-1.31,4.194-2.045,5.717-2.845c32.584-17.111,65.279-34.016,97.677-51.472c9.955-5.364,18.84-5.187,28.647,0.054
		c32.459,17.345,65.115,34.32,97.7,51.43C369.552,439.496,371.11,440.228,373.307,441.317z"/>
	<path fill="#FFFFFF" d="M584.988,82.626c-0.085-0.042-0.146-0.071-0.205-0.102c-1.263-0.663-2.529-1.321-3.788-1.994
		c-0.38-0.203-0.725-0.21-1.111-0.002c-1.256,0.677-2.524,1.332-3.787,1.995c-0.059,0.031-0.119,0.06-0.222,0.11
		c0.051-0.316,0.095-0.597,0.143-0.877c0.21-1.219,0.422-2.438,0.631-3.657c0.062-0.364-0.027-0.668-0.305-0.936
		c-1.036-0.994-2.058-2.001-3.087-3.002c-0.058-0.056-0.124-0.104-0.186-0.155c0.007-0.019,0.013-0.037,0.02-0.056
		c0.288-0.045,0.575-0.091,0.864-0.133c1.238-0.18,2.476-0.356,3.714-0.537c0.34-0.05,0.572-0.24,0.724-0.551
		c0.638-1.306,1.284-2.608,1.927-3.912c0.032-0.064,0.069-0.125,0.122-0.222c0.051,0.1,0.087,0.169,0.122,0.239
		c0.638,1.291,1.277,2.581,1.911,3.875c0.169,0.344,0.424,0.531,0.812,0.584c1.474,0.204,2.945,0.426,4.417,0.641
		c0.025,0.004,0.049,0.012,0.107,0.026c-0.065,0.069-0.111,0.122-0.162,0.172c-1.032,1.007-2.061,2.018-3.1,3.018
		c-0.298,0.287-0.385,0.608-0.313,1.009c0.258,1.444,0.502,2.891,0.75,4.337C584.993,82.527,584.988,82.561,584.988,82.626z"/>
</g>
<g display="none">
	<path display="inline" d="M511,131.488c0,83.008,0,166.016,0,249.023c-0.552,2.033-1.151,4.054-1.648,6.1
		c-6.651,27.416-29.358,45.574-57.697,45.636c-58.082,0.125-116.165,0.046-174.248,0.041c-73.018-0.007-146.037,0.105-219.054-0.108
		c-25.93-0.075-48.803-18.543-55.235-43.637c-0.688-2.682-1.411-5.355-2.118-8.032c0-83.008,0-166.016,0-249.023
		c0.552-2.033,1.151-4.054,1.648-6.1c6.651-27.416,29.358-45.574,57.697-45.636c57.916-0.125,115.833-0.046,173.75-0.041
		c73.184,0.007,146.368-0.104,219.552,0.108c25.93,0.075,48.803,18.543,55.235,43.637C509.569,126.138,510.293,128.811,511,131.488z
		 M168.586,253.765c-42.987-33.506-85.295-66.482-128.338-100.031c-0.147,2.504-0.288,3.781-0.288,5.058
		c-0.011,70.722-0.031,141.444,0.009,212.166c0.008,14.728,8.068,22.552,23.013,22.553c128.661,0.009,257.322,0.009,385.983,0
		c15.155-0.001,23.07-7.851,23.075-22.994c0.025-70.39,0.013-140.78,0-211.17c0-1.547-0.175-3.094-0.327-5.612
		c-43.17,33.661-85.509,66.674-128.292,100.034c40.52,41.484,80.689,82.608,120.858,123.732c-1.968-0.353-3.407-1.323-4.818-2.331
		c-46.453-33.176-92.927-66.324-139.303-99.608c-3.003-2.155-4.981-2.43-8.186-0.293c-17.392,11.596-35.012,22.848-52.449,34.376
		c-2.597,1.717-4.388,1.76-7.009,0.027c-17.438-11.527-35.057-22.78-52.459-34.36c-3.154-2.099-5.135-1.988-8.189,0.205
		c-46.371,33.291-92.846,66.436-139.299,99.612c-1.427,1.019-2.879,2.004-4.319,3.004c-0.186-0.209-0.372-0.418-0.558-0.628
		C87.853,336.397,128.017,295.288,168.586,253.765z M256.049,118.484c-63.904,0-127.809-0.001-191.713,0.001
		c-17.051,0.001-24.317,7.502-24.491,24.685c-0.04,3.941,1.384,5.823,4.722,7.617c69.073,37.13,138.091,74.362,207.064,111.677
		c3.125,1.691,5.484,1.788,8.65,0.062c27.95-15.234,55.998-30.285,84.014-45.398c41.148-22.197,82.303-44.381,123.405-66.664
		c1.701-0.922,3.981-2.663,4.155-4.227c2.174-19.532-8.501-27.92-23.098-27.863C384.523,118.629,320.286,118.484,256.049,118.484z"
		/>
	<path fill="#FFFFFF" d="M593.841,92.362c-0.029-0.109-0.058-0.218-0.086-0.328c-0.262-1.023-1.195-1.777-2.253-1.78
		c-2.985-0.009-5.969-0.004-8.954-0.004c-2.362,0-4.724-0.003-7.086,0.002c-1.156,0.003-2.082,0.743-2.353,1.861
		c-0.02,0.083-0.045,0.166-0.067,0.249c0-1.773,0-3.546,0-5.32c6.933,0,13.867,0,20.8,0
		C593.841,88.817,593.841,90.59,593.841,92.362z"/>
	<path fill="#FFFFFF" d="M573.041,102.519c0.029,0.109,0.058,0.218,0.086,0.328c0.262,1.023,1.195,1.777,2.253,1.78
		c2.978,0.009,5.956,0.004,8.934,0.004c2.369,0,4.738,0.003,7.107-0.002c1.156-0.002,2.082-0.743,2.353-1.861
		c0.02-0.083,0.045-0.166,0.067-0.249c0,1.774,0,3.548,0,5.322c-6.933,0-13.867,0-20.8,0
		C573.041,106.067,573.041,104.293,573.041,102.519z"/>
	<path fill="#FFFFFF" d="M579.875,97.349c-1.655,1.693-3.293,3.37-4.931,5.047c0.008,0.009,0.015,0.017,0.023,0.026
		c0.059-0.041,0.118-0.081,0.176-0.123c1.895-1.353,3.79-2.705,5.681-4.063c0.125-0.089,0.205-0.094,0.334-0.008
		c0.71,0.472,1.428,0.931,2.14,1.401c0.107,0.071,0.18,0.069,0.286-0.001c0.711-0.47,1.43-0.929,2.139-1.402
		c0.131-0.087,0.211-0.076,0.334,0.012c1.891,1.357,3.787,2.709,5.681,4.062c0.058,0.041,0.116,0.081,0.196,0.095
		c-1.638-1.677-3.276-3.354-4.929-5.046c1.745-1.361,3.472-2.707,5.232-4.08c0.006,0.103,0.013,0.166,0.013,0.229
		c0.001,2.871,0.001,5.742,0,8.612c0,0.618-0.323,0.938-0.941,0.938c-5.247,0-10.495,0-15.742,0c-0.61,0-0.938-0.319-0.939-0.92
		c-0.002-2.884-0.001-5.769,0-8.653c0-0.052,0.006-0.104,0.012-0.206C576.397,94.638,578.122,95.983,579.875,97.349z"/>
	<path fill="#FFFFFF" d="M583.443,91.832c2.62,0,5.24,0.006,7.859-0.004c0.595-0.002,1.031,0.34,0.942,1.136
		c-0.007,0.064-0.1,0.135-0.169,0.172c-1.676,0.909-3.355,1.814-5.033,2.719c-1.143,0.616-2.287,1.23-3.426,1.852
		c-0.129,0.07-0.225,0.066-0.353-0.003c-2.813-1.522-5.628-3.04-8.445-4.555c-0.136-0.073-0.194-0.15-0.193-0.311
		c0.007-0.701,0.303-1.007,0.999-1.007C578.23,91.832,580.836,91.832,583.443,91.832z"/>
</g>
<g display="none">
	<path fill="#FFFFFF" d="M593.841,93.581c0,4.753,0,9.506,0,14.259c-3.345,0-6.69,0-10.034,0c0.215-0.018,0.43-0.03,0.644-0.054
		c1.17-0.133,2.297-0.422,3.367-0.923c1.511-0.707,2.783-1.716,3.81-3.027c1.105-1.412,1.79-3.013,2.081-4.784
		c0.094-0.571-0.083-1.067-0.49-1.323c-0.761-0.479-1.676-0.068-1.852,0.821c-0.097,0.49-0.186,0.987-0.348,1.457
		c-0.6,1.747-1.672,3.143-3.23,4.145c-1.858,1.195-3.889,1.584-6.041,1.107c-4.242-0.94-6.9-4.898-6.191-9.175
		c0.672-4.052,4.438-7.09,8.803-6.595c1.875,0.213,3.476,1.015,4.803,2.357c0.226,0.228,0.428,0.48,0.648,0.729
		c-0.466,0.464-0.905,0.904-1.348,1.342c-0.153,0.151-0.26,0.312-0.188,0.54c0.072,0.228,0.254,0.297,0.465,0.334
		c1.469,0.256,2.948,0.282,4.431,0.201c0.466-0.026,0.594-0.161,0.621-0.623C593.807,94.105,593.824,93.843,593.841,93.581z"/>
	<path display="inline" d="M511,161.371c-0.405,6.428-0.831,12.854-1.21,19.284c-0.668,11.323-3.816,14.645-15.231,15.273
		c-36.376,2.002-72.641,1.355-108.65-4.92c-5.163-0.9-9.623-2.599-11.4-8.183c-1.778-5.587,0.856-9.54,4.597-13.24
		c10.851-10.73,21.634-21.528,33.05-32.903c-5.397-6.103-10.351-12.273-15.885-17.871c-32.53-32.91-71.807-52.584-117.771-57.795
		C171.466,48.882,79.121,123.37,62.656,222.72c-17.38,104.875,47.789,201.917,151.809,224.973
		c52.756,11.693,102.553,2.167,148.118-27.134c38.195-24.562,64.482-58.793,79.203-101.633c3.96-11.525,6.143-23.711,8.532-35.715
		c4.339-21.805,26.751-31.883,45.421-20.127c9.978,6.282,14.299,18.43,12.003,32.436c-7.118,43.416-23.913,82.658-51.019,117.291
		c-25.166,32.154-56.365,56.892-93.413,74.225c-26.24,12.277-53.869,19.37-82.557,22.631c-5.246,0.596-10.525,0.897-15.788,1.334
		c-7.637,0-15.273,0-22.91,0c-1.763-0.339-3.514-0.789-5.293-0.996c-7.074-0.821-14.214-1.22-21.226-2.393
		c-53.192-8.902-99.407-31.875-137.87-69.744c-40.765-40.135-65.411-88.651-73.751-145.329C2.81,285.027,1.965,277.477,1,269.945
		c0-9.297,0-18.594,0-27.891c1.081-8.687,1.859-17.424,3.293-26.052c8.962-53.912,32.321-100.651,70.906-139.412
		c39.968-40.15,88.142-64.442,144.284-72.678C226.988,2.812,234.53,1.965,242.055,1c9.297,0,18.594,0,27.891,0
		c1.934,0.351,3.857,0.79,5.804,1.038c8.874,1.133,17.854,1.697,26.616,3.393c59.797,11.571,109.483,40.591,148.979,86.999
		c0.703,0.826,1.57,1.513,2.541,2.436c10.175-10.193,20.137-20.16,30.085-30.143c3.464-3.476,7.29-5.71,12.452-4.152
		c5.36,1.617,7.543,5.682,8.233,10.755c1.519,11.161,3.01,22.328,4.3,33.516c0.869,7.532,1.375,15.106,2.044,22.661
		C511,138.793,511,150.082,511,161.371z"/>
	<path fill="#FFFFFF" d="M582.872,87.041c-0.307,0.039-0.615,0.074-0.921,0.119c-2.29,0.336-4.254,1.327-5.885,2.964
		c-1.574,1.581-2.526,3.487-2.892,5.686c-0.058,0.352-0.09,0.708-0.134,1.063c0-3.277,0-6.554,0-9.831
		C576.318,87.041,579.595,87.041,582.872,87.041z"/>
	<path fill="#FFFFFF" d="M573.041,98.009c0.039,0.307,0.074,0.615,0.119,0.921c0.34,2.312,1.345,4.29,3.008,5.927
		c1.569,1.544,3.453,2.481,5.623,2.844c0.286,0.048,0.577,0.064,0.866,0.098c0.073,0.008,0.144,0.027,0.216,0.041
		c-3.274,0-6.547,0-9.831,0C573.041,104.564,573.041,101.286,573.041,98.009z"/>
	<path fill="#FFFFFF" d="M593.841,92.2c-0.027-0.308-0.048-0.617-0.083-0.924c-0.053-0.456-0.113-0.912-0.175-1.367
		c-0.028-0.207-0.117-0.373-0.336-0.439c-0.211-0.064-0.367,0.028-0.508,0.169c-0.406,0.407-0.812,0.814-1.227,1.229
		c-0.04-0.038-0.075-0.066-0.104-0.099c-1.611-1.893-3.637-3.076-6.076-3.548c-0.357-0.069-0.724-0.092-1.086-0.138
		c-0.079-0.01-0.158-0.028-0.237-0.042c3.277,0,6.554,0,9.831,0C593.841,88.76,593.841,90.48,593.841,92.2z"/>
</g>
<g display="none">
	<path fill="#FFFFFF" d="M583.278,107.841c-3.413,0-6.825,0-10.237,0c0-6.933,0-13.867,0-20.8c3.412,0,6.825,0,10.237,0
		c-0.015,0.013-0.027,0.031-0.044,0.038c-0.419,0.168-0.58,0.397-0.589,0.847c-0.004,0.196-0.008,0.393,0.002,0.589
		c0.008,0.145-0.034,0.205-0.188,0.243c-0.32,0.078-0.648,0.16-0.943,0.302c-1.876,0.899-2.835,2.401-2.864,4.48
		c-0.017,1.225-0.008,2.451,0.001,3.676c0.002,0.245-0.063,0.452-0.216,0.635c-0.165,0.197-0.327,0.398-0.504,0.583
		c-0.862,0.899-1.736,1.787-2.588,2.694c-0.234,0.249-0.418,0.547-0.605,0.835c-0.127,0.195-0.119,0.42,0.003,0.617
		c0.098,0.158,0.211,0.318,0.352,0.437c0.582,0.493,1.291,0.727,2.01,0.924c1.814,0.497,3.674,0.639,5.544,0.683
		c1.381,0.033,2.761-0.009,4.136-0.154c1.192-0.126,2.373-0.308,3.515-0.689c0.541-0.181,1.063-0.399,1.507-0.772
		c0.477-0.401,0.536-0.801,0.186-1.311c-0.069-0.1-0.135-0.205-0.218-0.293c-0.71-0.754-1.425-1.502-2.135-2.256
		c-0.394-0.419-0.784-0.842-1.17-1.268c-0.174-0.192-0.245-0.418-0.243-0.687c0.011-1.225,0.004-2.451,0.005-3.676
		c0.001-0.552-0.066-1.096-0.256-1.615c-0.626-1.7-1.824-2.757-3.593-3.157c-0.12-0.027-0.151-0.08-0.148-0.193
		c0.006-0.216,0.004-0.433,0.001-0.65c-0.005-0.345-0.137-0.616-0.456-0.777c-0.059-0.03-0.118-0.058-0.177-0.087
		c3.413,0,6.825,0,10.237,0c0,6.933,0,13.867,0,20.8c-3.412,0-6.825,0-10.237,0c0.22-0.081,0.453-0.135,0.656-0.247
		c0.674-0.37,0.963-1.289,0.63-1.93c-0.057-0.11-0.125-0.151-0.252-0.15c-0.798,0.007-1.596,0.006-2.395,0
		c-0.127-0.001-0.195,0.039-0.252,0.149c-0.281,0.548-0.11,1.318,0.382,1.756C582.636,107.653,582.95,107.757,583.278,107.841z"/>
	<path display="inline" d="M260.198,1c1.448,0.711,2.904,1.409,4.344,2.136c7.823,3.947,11.061,10.609,11.171,19.058
		c0.069,5.311,0.133,10.626-0.024,15.933c-0.082,2.756,0.694,4.058,3.629,4.72c43.391,9.797,72.765,35.727,88.104,77.403
		c4.679,12.714,6.303,26.051,6.286,39.596c-0.037,30.043,0.135,60.087-0.125,90.128c-0.057,6.583,1.678,12.12,5.953,16.837
		c9.468,10.446,19.015,20.824,28.68,31.089c17.4,18.48,34.935,36.832,52.337,55.31c2.032,2.157,3.655,4.718,5.343,7.177
		c8.581,12.494,7.127,22.301-4.563,32.137c-10.875,9.15-23.694,14.491-36.948,18.923c-27.986,9.358-56.938,13.82-86.175,16.899
		c-33.728,3.551-67.556,4.564-101.419,3.766c-45.842-1.08-91.455-4.57-135.931-16.749c-17.628-4.827-35.019-10.551-49.292-22.645
		c-3.445-2.919-6.228-6.835-8.632-10.716c-2.987-4.823-3.181-10.337-0.066-15.129c4.592-7.064,9.107-14.371,14.833-20.469
		c20.9-22.259,42.33-44.019,63.457-66.065c4.355-4.544,8.323-9.467,12.365-14.302c3.748-4.484,5.343-9.559,5.301-15.572
		c-0.212-30.041-0.434-60.09-0.021-90.127c0.702-50.99,24.221-87.801,70.218-109.852c7.24-3.471,15.273-5.478,23.126-7.399
		c3.784-0.926,4.789-2.406,4.605-5.958c-0.249-4.801-0.134-9.625-0.043-14.437c0.208-11.038,4.157-16.65,14.431-20.766
		c0.418-0.168,0.726-0.61,1.086-0.924C254.886,1,257.542,1,260.198,1z"/>
	<path display="inline" d="M252.229,511c-8.035-2.049-15.741-4.595-22.173-10.314c-12.078-10.74-16.274-29.607-9.376-43.055
		c1.389-2.709,3.072-3.685,6.175-3.66c19.571,0.157,39.144,0.158,58.715-0.002c3.113-0.026,4.779,0.979,6.174,3.67
		c8.151,15.719,1.064,38.253-15.457,47.317c-4.972,2.728-10.705,4.069-16.089,6.045C257.542,511,254.886,511,252.229,511z"/>
</g>
<g display="none">
	<path display="inline" d="M1,393.225c0-91.641,0-183.281,0-274.922c0.36-1.603,0.861-3.189,1.06-4.812
		c5.577-45.573,45.112-82.09,90.949-82.639c52.25-0.626,104.513-0.229,156.771-0.247c54.58-0.019,109.161-0.096,163.741,0.026
		c43.293,0.097,78.197,24.656,92.21,65.01c2.53,7.285,3.552,15.094,5.27,22.661c0,91.641,0,183.281,0,274.922
		c-0.365,1.763-0.627,3.554-1.113,5.283c-2.499,8.896-3.86,18.348-7.797,26.562c-17.859,37.267-48.168,56.078-89.277,56.205
		c-104.542,0.323-209.085,0.269-313.627,0.035c-47.634-0.107-84.112-28.734-95.46-74.01C2.566,402.671,1.897,397.92,1,393.225z
		 M255.69,167.903c32.038,0,64.076,0,96.114,0c19.422,0,38.844-0.031,58.266,0.012c8.331,0.018,16.396-2.035,19.624-10.051
		c5.134-12.749,5.14-26.442,0.043-39.163c-3.477-8.679-12.222-10.195-21.038-10.19c-101.758,0.059-203.516,0.032-305.274,0.064
		c-2.808,0.001-5.659,0.157-8.417,0.652c-8.313,1.491-15.024,8.801-15.396,17.241c-0.343,7.785-0.34,15.607-0.009,23.393
		c0.368,8.664,7.19,16.011,15.776,17.418c2.929,0.48,5.944,0.598,8.919,0.6C154.762,167.913,205.226,167.903,255.69,167.903z
		 M256.006,344.121c-32.37,0-64.741,0-97.111,0c-19.422,0-38.845,0.071-58.267-0.032c-7.113-0.037-13.013,2.228-17.344,7.975
		c-5.703,7.567-5.721,35.551-0.017,43.089c4.724,6.242,11.268,8.133,18.843,8.128c102.589-0.061,205.179-0.041,307.768-0.046
		c1.493,0,2.999,0.047,4.477-0.122c6.859-0.784,13.186-3.654,15.532-10.099c4.631-12.722,4.839-26.162-0.047-38.77
		c-3.099-7.999-10.965-10.199-19.453-10.18C358.927,344.181,307.467,344.123,256.006,344.121z M255.984,226.386
		c-50.629,0-101.258-0.003-151.886,0.01c-2.321,0.001-4.653,0.024-6.96,0.243c-9.835,0.934-17.226,8.485-17.594,18.353
		c-0.272,7.292-0.227,14.608,0,21.903c0.232,7.434,3.902,13.178,10.596,16.152c3.794,1.686,8.305,2.447,12.495,2.452
		c102.253,0.129,204.507,0.107,306.76,0.071c2.637-0.001,5.625,0.257,7.834-0.842c4.176-2.077,8.74-4.352,11.642-7.805
		c5.777-6.875,5.385-34.864,0.154-42.162c-4.707-6.568-11.406-8.433-19.163-8.419C358.57,226.43,307.277,226.387,255.984,226.386z"
		/>
	<path fill="#FFFFFF" d="M573.041,102.641c0.037,0.191,0.064,0.385,0.111,0.574c0.463,1.847,1.951,3.014,3.893,3.018
		c4.264,0.01,8.527,0.012,12.791-0.001c1.677-0.005,2.913-0.772,3.641-2.292c0.161-0.335,0.216-0.721,0.318-1.083
		c0.02-0.071,0.03-0.144,0.045-0.215c0,1.733,0,3.467,0,5.2c-6.933,0-13.867,0-20.8,0
		C573.041,106.107,573.041,104.374,573.041,102.641z"/>
	<path fill="#FFFFFF" d="M593.841,91.428c-0.07-0.309-0.112-0.627-0.215-0.924c-0.572-1.646-1.995-2.647-3.761-2.651
		c-2.226-0.005-4.452-0.002-6.678-0.001c-2.131,0.001-4.263-0.015-6.394,0.01c-1.869,0.022-3.482,1.512-3.709,3.37
		c-0.008,0.066-0.029,0.131-0.043,0.196c0-1.461,0-2.923,0-4.386c6.933,0,13.867,0,20.8,0
		C593.841,88.505,593.841,89.967,593.841,91.428z"/>
	<path fill="#FFFFFF" d="M583.428,93.451c-2.058,0-4.116,0-6.174-0.001c-0.121,0-0.244-0.005-0.364-0.024
		c-0.35-0.057-0.628-0.357-0.643-0.71c-0.013-0.318-0.014-0.637,0-0.954c0.015-0.344,0.289-0.642,0.628-0.703
		c0.112-0.02,0.229-0.027,0.343-0.027c4.15-0.001,8.3,0,12.45-0.003c0.36,0,0.716,0.062,0.858,0.416
		c0.208,0.519,0.208,1.077-0.002,1.597c-0.132,0.327-0.461,0.411-0.8,0.41c-0.792-0.002-1.584,0-2.376,0
		C586.041,93.451,584.735,93.451,583.428,93.451z"/>
	<path fill="#FFFFFF" d="M583.441,100.638c2.099,0,4.198,0.002,6.296-0.002c0.346-0.001,0.667,0.089,0.793,0.415
		c0.199,0.514,0.191,1.062,0.002,1.581c-0.096,0.263-0.354,0.38-0.633,0.412c-0.06,0.007-0.122,0.005-0.183,0.005
		c-4.184,0-8.368-0.001-12.552,0.002c-0.309,0-0.576-0.077-0.768-0.332c-0.233-0.307-0.232-1.449,0.001-1.757
		c0.177-0.234,0.417-0.327,0.707-0.325c0.792,0.004,1.584,0.001,2.376,0.001C580.8,100.638,582.121,100.638,583.441,100.638z"/>
	<path fill="#FFFFFF" d="M583.44,95.836c2.092,0,4.184,0.002,6.276-0.002c0.316-0.001,0.59,0.076,0.782,0.343
		c0.213,0.298,0.229,1.439-0.006,1.72c-0.118,0.141-0.305,0.234-0.475,0.318c-0.09,0.045-0.212,0.034-0.32,0.034
		c-4.17,0.001-8.341,0.002-12.511-0.003c-0.171,0-0.355-0.031-0.51-0.1c-0.273-0.121-0.423-0.356-0.432-0.659
		c-0.009-0.298-0.011-0.596,0-0.893c0.015-0.402,0.316-0.71,0.718-0.748c0.094-0.009,0.189-0.01,0.284-0.01
		C579.31,95.836,581.375,95.836,583.44,95.836z"/>
</g>
<g display="none">
	<path display="inline" d="M130.466,1c56.113,0,112.227,0,168.34,0c2.186,0.64,4.378,1.263,6.558,1.924
		c13.267,4.022,23.78,12.509,33.395,21.872c26.741,26.037,53.146,52.422,79.516,78.838c6.551,6.563,12.72,13.552,18.613,20.716
		c8.326,10.122,15.103,21.171,15.113,34.871c0.062,91.246,0.283,182.494-0.118,273.738c-0.151,34.296-21.294,62.684-53.189,73.648
		c-5.581,1.919-11.467,2.951-17.212,4.393c-83.672,0-167.344,0-251.016,0c-5.746-1.442-11.632-2.474-17.214-4.393
		c-32.738-11.26-53.261-40.558-53.321-76.145c-0.089-52.761-0.024-105.523-0.024-158.285c0-63.546-0.06-127.092,0.025-190.638
		c0.048-35.587,20.582-64.885,53.32-76.145C118.833,3.474,124.72,2.442,130.466,1z M98.796,255.901
		c0,57.273-0.033,114.546,0.061,171.819c0.008,4.77,0.244,9.706,1.458,14.278c5.004,18.841,19.755,29.973,40.064,30.004
		c77.028,0.117,154.056,0.074,231.084,0.013c9.481-0.008,18.346-2.308,26.033-8.291c11.419-8.887,15.678-20.872,15.672-34.902
		c-0.034-82.506-0.014-165.012-0.036-247.518c-0.001-1.981-0.352-3.959-0.426-5.943c-0.322-8.647-5.538-13.242-13.241-15.247
		c-4.447-1.158-9.137-1.842-13.73-1.908c-22.738-0.327-45.48-0.451-68.22-0.481c-7.38-0.01-14.393-1.455-18.122-8.132
		c-2.453-4.393-3.799-9.945-3.906-15.014c-0.466-22.07-0.125-44.156-0.473-66.23c-0.093-5.889-0.975-11.931-2.591-17.589
		c-2.026-7.095-7.606-10.844-14.392-10.846c-45.984-0.014-91.969-0.049-137.953,0.079c-13.504,0.038-24.867,5.011-33.252,15.97
		c-6.256,8.176-8.039,17.625-8.037,27.623C98.802,141.023,98.796,198.462,98.796,255.901z"/>
	<path fill="#FFFFFF" d="M588.559,107.841c0.234-0.059,0.474-0.101,0.702-0.179c1.301-0.447,2.163-1.605,2.169-3.004
		c0.016-3.721,0.007-7.443,0.005-11.164c0-0.559-0.277-1.009-0.616-1.422c-0.24-0.292-0.492-0.577-0.759-0.845
		c-1.075-1.077-2.152-2.153-3.243-3.215c-0.392-0.382-0.821-0.728-1.362-0.892c-0.089-0.027-0.178-0.052-0.267-0.078
		c2.883,0,5.765,0,8.651,0c0,6.933,0,13.867,0,20.8C592.078,107.841,590.319,107.841,588.559,107.841z"/>
	<path fill="#FFFFFF" d="M578.322,87.041c-0.234,0.059-0.474,0.101-0.702,0.179c-1.335,0.459-2.173,1.654-2.175,3.106
		c-0.003,2.592-0.001,5.183-0.001,7.775c0,2.152-0.003,4.304,0.001,6.456c0.003,1.451,0.839,2.646,2.175,3.106
		c0.228,0.078,0.468,0.12,0.702,0.179c-1.76,0-3.521,0-5.281,0c0-6.933,0-13.867,0-20.8
		C574.801,87.041,576.561,87.041,578.322,87.041z"/>
	<path fill="#FFFFFF" d="M577.03,97.437c0-2.343,0-4.685,0-7.028c0-0.408,0.073-0.793,0.328-1.127
		c0.342-0.447,0.805-0.65,1.356-0.651c1.875-0.005,3.751-0.004,5.626-0.003c0.277,0,0.504,0.153,0.587,0.442
		c0.066,0.231,0.102,0.477,0.106,0.717c0.014,0.9,0,1.801,0.019,2.701c0.004,0.207,0.059,0.433,0.159,0.612
		c0.152,0.272,0.438,0.331,0.739,0.332c0.927,0.001,1.855,0.006,2.782,0.02c0.187,0.003,0.379,0.031,0.56,0.078
		c0.314,0.082,0.527,0.269,0.54,0.622c0.003,0.081,0.017,0.162,0.017,0.242c0.001,3.365,0,6.73,0.001,10.095
		c0,0.572-0.173,1.061-0.639,1.423c-0.313,0.244-0.675,0.338-1.062,0.338c-3.142,0.003-6.283,0.004-9.425-0.001
		c-0.828-0.001-1.43-0.455-1.634-1.224c-0.05-0.186-0.059-0.388-0.06-0.582C577.029,102.108,577.03,99.772,577.03,97.437z
		 M583.464,97.686c-0.4,0.043-0.781,0.087-1.164,0.123c-0.734,0.068-1.468,0.133-2.202,0.194c-0.177,0.015-0.281,0.108-0.356,0.259
		c-0.193,0.386-0.222,0.789-0.127,1.203c0.132,0.577,0.232,0.659,0.814,0.691c0.034,0.002,0.068,0.001,0.101,0.004
		c0.91,0.066,1.82,0.137,2.731,0.195c0.176,0.011,0.209,0.084,0.205,0.239c-0.009,0.372-0.001,0.744-0.003,1.116
		c-0.001,0.193,0.034,0.369,0.225,0.463c0.189,0.093,0.346,0.015,0.506-0.097c1.093-0.766,2.043-1.687,2.926-2.681
		c0.252-0.283,0.262-0.455,0-0.722c-0.61-0.624-1.219-1.248-1.856-1.844c-0.349-0.326-0.747-0.603-1.135-0.885
		c-0.303-0.221-0.638-0.051-0.663,0.323c-0.008,0.115-0.003,0.23-0.003,0.345C583.464,96.964,583.464,97.315,583.464,97.686z"/>
	<path display="inline" d="M256.554,262.008c0-9.076-0.005-17.682,0.003-26.289c0.002-2.82-0.11-5.65,0.082-8.458
		c0.628-9.18,8.821-13.343,16.258-7.93c9.513,6.924,19.272,13.694,27.835,21.697c15.615,14.595,30.564,29.915,45.512,45.205
		c6.406,6.553,6.16,10.764-0.012,17.707c-21.662,24.369-44.955,46.958-71.752,65.741c-3.91,2.741-7.769,4.657-12.407,2.384
		c-4.689-2.298-5.554-6.62-5.529-11.353c0.048-9.125-0.136-18.253,0.078-27.373c0.089-3.801-0.725-5.595-5.038-5.87
		c-22.335-1.421-44.65-3.164-66.972-4.789c-0.827-0.06-1.659-0.045-2.487-0.09c-14.268-0.785-16.725-2.796-19.963-16.955
		c-2.323-10.155-1.602-20.037,3.123-29.503c1.844-3.694,4.405-5.982,8.733-6.344c18.008-1.506,36.009-3.096,54.002-4.766
		C237.397,264.151,246.755,263.05,256.554,262.008z"/>
</g>
</svg>
