<?xml version="1.0" encoding="utf-8"?>
<!-- Generator: Adobe Illustrator 17.0.0, SVG Export Plug-In . SVG Version: 6.00 Build 0)  -->
<!DOCTYPE svg PUBLIC "-//W3C//DTD SVG 1.1//EN" "http://www.w3.org/Graphics/SVG/1.1/DTD/svg11.dtd">
<svg version="1.1" id="Layer_1" xmlns="http://www.w3.org/2000/svg" xmlns:xlink="http://www.w3.org/1999/xlink" x="0px" y="0px"
	 width="512px" height="512px" viewBox="0 0 512 512" enable-background="new 0 0 512 512" xml:space="preserve">
<g>
	<line fill="none" stroke="#B35047" x1="32" y1="0" x2="32" y2="512"/>
	<line fill="none" stroke="#B35047" x1="64" y1="0" x2="64" y2="512"/>
	<line fill="none" stroke="#B35047" x1="96" y1="0" x2="96" y2="512"/>
	<line fill="none" stroke="#B35047" x1="128" y1="0" x2="128" y2="512"/>
	<line fill="none" stroke="#B35047" x1="160" y1="0" x2="160" y2="512"/>
	<line fill="none" stroke="#B35047" x1="192" y1="0" x2="192" y2="512"/>
	<line fill="none" stroke="#B35047" x1="224" y1="0" x2="224" y2="512"/>
	<line fill="none" stroke="#B35047" x1="256" y1="0" x2="256" y2="512"/>
	<line fill="none" stroke="#B35047" x1="288" y1="0" x2="288" y2="512"/>
	<line fill="none" stroke="#B35047" x1="320" y1="0" x2="320" y2="512"/>
	<line fill="none" stroke="#B35047" x1="352" y1="0" x2="352" y2="512"/>
	<line fill="none" stroke="#B35047" x1="384" y1="0" x2="384" y2="512"/>
	<line fill="none" stroke="#B35047" x1="416" y1="0" x2="416" y2="512"/>
	<line fill="none" stroke="#B35047" x1="448" y1="0" x2="448" y2="512"/>
	<line fill="none" stroke="#B35047" x1="480" y1="0" x2="480" y2="512"/>
	<line fill="none" stroke="#B35047" x1="0" y1="32" x2="512" y2="32"/>
	<line fill="none" stroke="#B35047" x1="0" y1="64" x2="512" y2="64"/>
	<line fill="none" stroke="#B35047" x1="0" y1="96" x2="512" y2="96"/>
	<line fill="none" stroke="#B35047" x1="0" y1="128" x2="512" y2="128"/>
	<line fill="none" stroke="#B35047" x1="0" y1="160" x2="512" y2="160"/>
	<line fill="none" stroke="#B35047" x1="0" y1="192" x2="512" y2="192"/>
	<line fill="none" stroke="#B35047" x1="0" y1="224" x2="512" y2="224"/>
	<line fill="none" stroke="#B35047" x1="0" y1="256" x2="512" y2="256"/>
	<line fill="none" stroke="#B35047" x1="0" y1="288" x2="512" y2="288"/>
	<line fill="none" stroke="#B35047" x1="0" y1="320" x2="512" y2="320"/>
	<line fill="none" stroke="#B35047" x1="0" y1="352" x2="512" y2="352"/>
	<line fill="none" stroke="#B35047" x1="0" y1="384" x2="512" y2="384"/>
	<line fill="none" stroke="#B35047" x1="0" y1="416" x2="512" y2="416"/>
	<line fill="none" stroke="#B35047" x1="0" y1="448" x2="512" y2="448"/>
	<line fill="none" stroke="#B35047" x1="0" y1="480" x2="512" y2="480"/>
	<rect x="0" fill="none" stroke="#B35047" width="512" height="512"/>
</g>
<image display="none" overflow="visible" width="512" height="512" xlink:href="../../../Knowledge/Icon/[+++++] (Full) Windows 8 Icons [icons8]/Business/package/package-512.png"  transform="matrix(0.0406 0 0 0.0406 540 50)">
</image>
<g>
	<path display="none" fill="#FFFFFF" d="M560.834,70.841c-6.929,0-13.86,0-20.793,0c0-6.931,0-13.862,0-20.796
		c6.928,0,13.858,0,20.793,0C560.834,56.974,560.834,63.907,560.834,70.841z M550.429,70.716c1.095-0.053,2.198-0.088,3.298-0.165
		c1.143-0.08,2.27-0.262,3.346-0.68c0.804-0.312,1.508-0.763,2.007-1.487c0.425-0.616,0.623-1.312,0.724-2.045
		c0.185-1.344,0.058-2.656-0.523-3.886c-1.262-2.672-3.325-4.456-6.122-5.392c-0.088-0.03-0.219,0.01-0.31,0.056
		c-0.336,0.169-0.648,0.398-0.997,0.525c-0.893,0.325-1.829,0.344-2.766,0.272c-0.669-0.051-1.301-0.233-1.881-0.584
		c-0.075-0.046-0.211-0.04-0.299-0.007c-1.192,0.437-2.234,1.119-3.152,1.99c-1,0.95-1.774,2.058-2.274,3.347
		c-0.475,1.226-0.568,2.491-0.39,3.791c0.234,1.704,1.146,2.847,2.753,3.447c1.017,0.379,2.076,0.564,3.149,0.646
		C548.134,70.63,549.277,70.661,550.429,70.716z M549.83,56.785c0.152-0.012,0.355-0.019,0.556-0.046
		c0.612-0.083,1.212-0.205,1.747-0.542c0.238-0.15,0.366-0.345,0.343-0.638c-0.014-0.174-0.002-0.352,0.015-0.526
		c0.101-1.002,0.426-1.935,0.883-2.827c0.055-0.107,0.095-0.225,0.12-0.342c0.106-0.506-0.174-0.796-0.687-0.743
		c-0.394,0.041-0.704,0.258-1.04,0.429c-0.441,0.225-0.66,0.13-0.86-0.324c-0.103-0.234-0.208-0.474-0.357-0.678
		c-0.42-0.576-1.121-0.583-1.564-0.024c-0.111,0.14-0.209,0.307-0.258,0.477c-0.161,0.554-0.546,0.807-1.09,0.833
		c-0.404,0.02-0.81-0.007-1.215-0.003c-0.639,0.006-0.914,0.459-0.634,1.031c0.051,0.103,0.103,0.206,0.148,0.311
		c0.375,0.883,0.76,1.761,1.117,2.652c0.138,0.344,0.38,0.521,0.71,0.632C548.419,56.677,549.096,56.747,549.83,56.785z"/>
	<path d="M255.59,511c-28.506-1.374-56.82-2.123-85.027-4.276c-26.562-2.027-52.774-6.591-77.937-15.982
		c-39.795-14.851-62.364-43.14-68.152-85.319c-4.413-32.161-2.122-63.48,9.644-93.829c12.371-31.906,31.528-59.34,56.281-82.843
		c22.715-21.567,48.5-38.434,78.013-49.256c2.2-0.807,5.549-0.942,7.412,0.184c14.366,8.687,30.01,13.204,46.557,14.462
		c23.177,1.762,46.339,1.302,68.453-6.742c8.654-3.148,16.374-8.807,24.688-12.989c2.261-1.137,5.487-2.12,7.672-1.388
		c69.235,23.182,120.301,67.333,151.529,133.474c14.383,30.462,17.521,62.914,12.936,96.191
		c-2.497,18.122-7.406,35.359-17.927,50.606c-12.362,17.917-29.794,29.075-49.687,36.8c-26.632,10.342-54.545,14.846-82.827,16.823
		C309.997,508.821,282.703,509.686,255.59,511z M259.287,254.925c0-4.582-0.07-10.089,0.025-15.593
		c0.062-3.592-1.476-5.202-5.118-5.115c-5.192,0.124-10.39,0.114-15.582,0.002c-3.585-0.077-5.27,1.401-5.151,5.067
		c0.12,3.682-0.373,7.425,0.111,11.046c0.785,5.871-1.171,8.952-7.245,9.8c-2.714,0.379-5.295,2.01-7.838,3.27
		c-27.488,13.622-33.027,52.601-6.529,70.316c10.303,6.888,22.378,11.097,33.522,16.77c4.43,2.255,9.081,4.574,12.654,7.912
		c7.315,6.834,5.75,17.955-3.269,22.245c-4.659,2.216-10.251,3.323-15.442,3.393c-11.737,0.157-22.739-3.33-33.102-8.853
		c-4.509-2.403-5.778-1.861-7.222,2.96c-1.727,5.767-3.081,11.655-5.01,17.35c-1.394,4.116-0.706,6.899,3.557,8.283
		c11.035,3.58,22.09,7.097,34.169,10.97c0,4.239,0.059,10.06-0.021,15.879c-0.05,3.663,1.367,5.71,5.27,5.667
		c5.361-0.058,10.724-0.031,16.086-0.017c3.598,0.009,5.057-1.75,4.958-5.335c-0.152-5.525-0.246-11.072,0.108-16.579
		c0.092-1.423,1.665-3.328,3.045-3.981c3.909-1.85,8.215-2.865,12.108-4.743c25.143-12.131,33.12-44.645,16.284-66.565
		c-6.281-8.178-15.029-13.14-24.258-17.365c-9.417-4.311-18.88-8.55-28.071-13.308c-4.754-2.461-7.387-6.838-6.438-12.54
		c0.895-5.383,4.462-8.437,9.457-9.974c1.744-0.537,3.569-0.944,5.384-1.098c11.799-1.003,23.006,1.256,33.517,6.641
		c4.076,2.089,6.13,1.101,7.265-3.251c1.519-5.823,3.2-11.616,5.116-17.319c1.294-3.854,0.196-6.206-3.557-7.344
		C278.838,260.716,269.584,257.993,259.287,254.925z"/>
	<path d="M240.765,166.189c-18.184-0.942-34.939-2.675-51.137-8.121c-8.156-2.742-14.149-7.123-17.562-15.644
		c-8.825-22.034-18.359-43.784-27.645-65.634c-1.111-2.614-2.406-5.152-3.66-7.703c-6.949-14.141-0.123-25.358,15.685-25.513
		c10.028-0.098,20.082,0.577,30.084,0.084c13.466-0.663,22.987-6.918,26.97-20.627c1.223-4.212,3.647-8.33,6.395-11.798
		c10.961-13.836,28.32-13.645,38.706,0.602c3.688,5.059,6.282,11.003,8.832,16.783c4.95,11.22,10.372,13.579,21.289,8.011
		c8.312-4.24,15.994-9.62,25.737-10.627c12.685-1.311,19.63,5.858,16.999,18.386c-0.611,2.908-1.618,5.826-2.973,8.468
		c-11.316,22.074-19.372,45.157-21.861,69.966c-0.433,4.315-0.711,8.715-0.375,13.022c0.566,7.248-2.593,12.087-8.485,15.794
		c-13.234,8.328-28.088,11.366-43.235,13.412C249.565,165.722,244.532,165.889,240.765,166.189z"/>
	<path display="none" fill="#FFFFFF" d="M550.579,60.37c0.416,0.124,0.79,0.234,1.163,0.347c0.152,0.046,0.196,0.141,0.144,0.297
		c-0.077,0.23-0.145,0.464-0.207,0.7c-0.046,0.176-0.129,0.216-0.294,0.131c-0.425-0.218-0.877-0.309-1.354-0.268
		c-0.073,0.006-0.147,0.023-0.217,0.044c-0.202,0.062-0.346,0.186-0.382,0.403c-0.038,0.23,0.068,0.407,0.26,0.507
		c0.371,0.192,0.754,0.364,1.134,0.538c0.373,0.171,0.726,0.371,0.98,0.702c0.68,0.886,0.358,2.199-0.658,2.689
		c-0.157,0.076-0.331,0.117-0.489,0.192c-0.056,0.026-0.119,0.103-0.123,0.161c-0.014,0.222-0.011,0.447-0.004,0.67
		c0.004,0.145-0.055,0.216-0.2,0.216c-0.217-0.001-0.433-0.002-0.65,0.001c-0.158,0.002-0.215-0.081-0.213-0.229
		c0.003-0.235,0.001-0.47,0.001-0.642c-0.488-0.156-0.935-0.299-1.38-0.443c-0.172-0.056-0.2-0.168-0.144-0.335
		c0.078-0.23,0.133-0.468,0.202-0.701c0.058-0.195,0.11-0.217,0.292-0.12c0.419,0.223,0.863,0.364,1.337,0.358
		c0.21-0.003,0.436-0.048,0.624-0.137c0.364-0.173,0.428-0.623,0.132-0.899c-0.144-0.135-0.332-0.229-0.511-0.32
		c-0.45-0.229-0.938-0.399-1.354-0.678c-1.07-0.716-0.847-2.29,0.264-2.841c0.103-0.051,0.207-0.117,0.317-0.132
		c0.245-0.034,0.324-0.159,0.293-0.396c-0.02-0.146,0-0.298-0.004-0.446c-0.005-0.148,0.063-0.208,0.208-0.205
		c0.21,0.005,0.42,0.005,0.63,0c0.147-0.004,0.209,0.062,0.207,0.207C550.576,59.963,550.579,60.185,550.579,60.37z"/>
</g>
<g display="none">
	<path fill="#FFFFFF" d="M266.4,263.353c0,1.016,0,2.031,0,3.047c-6.933,0-13.867,0-20.8,0c0-6.933,0-13.867,0-20.8
		c6.933,0,13.867,0,20.8,0c0,4.482,0,8.965,0,13.447c-0.038-0.15-0.058-0.308-0.119-0.447c-0.141-0.321-0.262-0.662-0.464-0.942
		c-0.652-0.906-1.337-1.789-2.011-2.679c-0.307-0.406-0.7-0.589-1.226-0.575c-1.076,0.028-2.153,0.008-3.229,0.01
		c-0.121,0-0.246,0.001-0.362,0.031c-0.379,0.098-0.585,0.41-0.585,0.867c-0.001,2.593-0.001,5.186,0.001,7.779
		c0,0.114,0.011,0.232,0.042,0.341c0.094,0.337,0.41,0.56,0.736,0.535c0.332-1.652,1.584-2.317,2.535-2.402
		c0.625-0.056,1.214,0.065,1.749,0.398c0.755,0.47,1.191,1.16,1.349,2.035c0.185,0,0.354-0.011,0.522,0.002
		C265.851,264.038,266.223,263.857,266.4,263.353z M255.95,252.803c-0.091-0.403-0.145-0.794-0.267-1.163
		c-0.798-2.414-3.078-3.842-5.59-3.518c-2.321,0.3-4.205,2.25-4.399,4.584c-0.126,1.511,0.311,2.847,1.344,3.97
		c0.125,0.136,0.171,0.27,0.17,0.452c-0.006,1.942-0.004,3.885-0.003,5.828c0,0.088-0.001,0.176,0.007,0.264
		c0.043,0.474,0.35,0.768,0.825,0.775c0.467,0.007,0.934-0.002,1.401,0.004c0.121,0.002,0.159-0.042,0.182-0.156
		c0.274-1.338,1.398-2.271,2.748-2.29c1.341-0.019,2.491,0.896,2.801,2.228c0.016,0.07,0.035,0.14,0.054,0.215
		c0.501,0,0.988,0.002,1.475,0c0.576-0.002,0.89-0.315,0.89-0.893c0.001-3.134,0.001-6.267,0-9.401c0-0.586-0.315-0.895-0.907-0.898
		C256.432,252.801,256.183,252.803,255.95,252.803z M252.405,266.237c1.006-0.003,1.831-0.824,1.839-1.832
		c0.008-1-0.847-1.856-1.848-1.849c-1.013,0.007-1.845,0.85-1.836,1.858C250.569,265.423,251.397,266.24,252.405,266.237z
		 M261.999,266.237c1.01,0,1.834-0.818,1.839-1.827c0.006-1.011-0.83-1.854-1.839-1.854c-1.004,0-1.858,0.858-1.843,1.853
		C260.171,265.422,260.993,266.237,261.999,266.237z"/>
	<path display="inline" d="M511,408.456c-4.365,12.41-13.502,16.855-26.086,15.88c-4.13-0.32-8.306-0.05-12.85-0.05
		c-3.902-21.53-14.608-38.499-33.197-50.063c-13.185-8.203-27.68-11.175-43.047-9.801c-23.404,2.093-54.215,18.441-62.386,59.097
		c-8.031,0.622-15.789-4.873-18.111-13.159c-0.752-2.683-1.032-5.58-1.034-8.38c-0.056-63.805-0.052-127.61-0.034-191.415
		c0.003-11.258,5.079-18.914,14.396-21.336c2.844-0.739,5.928-0.746,8.903-0.752c26.488-0.053,52.989,0.454,79.459-0.239
		c12.944-0.339,22.605,4.175,30.157,14.156c16.579,21.91,33.418,43.634,49.47,65.924c4.969,6.899,7.948,15.288,11.426,23.177
		c1.513,3.432,1.987,7.323,2.933,11.006C511,337.818,511,373.137,511,408.456z M478.914,306.282
		c-1.856-4.194-2.893-8.098-5.069-11.203c-14.603-20.83-29.408-41.519-44.253-62.177c-2.756-3.836-6.581-5.661-11.59-5.574
		c-13.306,0.23-26.62,0.069-39.93,0.09c-1.59,0.003-3.181,0.173-4.611,0.256c0,26.533,0,52.536,0,78.608
		C408.489,306.282,443.056,306.282,478.914,306.282z"/>
	<path display="inline" d="M253.871,148.86c5.741,0,11.867-0.031,17.993,0.006c14.56,0.089,22.305,7.685,22.311,22.107
		c0.031,77.106,0.032,154.213-0.001,231.319c-0.006,14.227-7.738,21.923-21.908,21.981c-11.981,0.05-23.963,0.01-36.287,0.01
		c-0.467-1.861-0.925-3.574-1.327-5.3c-7.621-32.771-35.929-55.293-68.921-54.828c-33.215,0.468-60.86,23.444-67.61,56.354
		c-0.574,2.799-1.521,3.88-4.488,3.839c-11.489-0.162-22.983,0.07-34.472-0.109c-11.688-0.182-19.248-7.402-20.306-19.067
		c-0.195-2.15-0.161-4.325-0.161-6.488c-0.008-47.796-0.058-95.592,0.079-143.388c0.013-4.458-1.125-7.775-4.194-11.112
		c-25.42-27.643-36.155-60.523-33.061-97.689C6.298,89.061,52.659,41.07,109.761,33.697c61.789-7.978,117.89,27.166,137.536,86.552
		C250.297,129.317,251.636,138.933,253.871,148.86z M226.214,158.687c0.047-54.287-44.331-98.82-98.757-99.103
		c-54.369-0.282-99.333,44.522-99.356,99.003c-0.023,54.353,44.34,98.838,98.757,99.028
		C181.415,257.806,226.168,213.246,226.214,158.687z"/>
	<path display="inline" d="M166.639,479.425c-24.801,0.07-45.153-20.048-45.384-44.863c-0.231-24.808,20.254-45.539,45.172-45.712
		c24.623-0.171,45.677,20.896,45.472,45.501C211.691,459.146,191.398,479.355,166.639,479.425z"/>
	<path display="inline" d="M402.719,479.423c-24.755,0.002-44.973-20.053-45.339-44.972c-0.359-24.488,20.644-45.606,45.353-45.601
		c24.825,0.005,45.389,20.736,45.245,45.611C447.835,459.297,427.578,479.421,402.719,479.423z"/>
	<path fill="#FFFFFF" d="M265.096,259.201c-1.457,0-2.862,0-4.286,0c0-1.06,0-2.116,0-3.195c0.058-0.003,0.123-0.01,0.187-0.01
		c0.541-0.001,1.082,0.006,1.623-0.004c0.204-0.004,0.359,0.071,0.471,0.227c0.603,0.84,1.205,1.68,1.799,2.527
		C264.978,258.871,265.021,259.03,265.096,259.201z"/>
	<path fill="#FFFFFF" d="M254.826,253.202c-0.002,2.217-1.821,4.028-4.038,4.021c-2.212-0.008-4.015-1.816-4.014-4.025
		c0.001-2.214,1.828-4.035,4.038-4.024C253.024,249.186,254.828,250.996,254.826,253.202z M250.79,250.034
		c-0.165,0.005-0.261,0.126-0.271,0.338c-0.031,0.655-0.058,1.311-0.096,1.966c-0.006,0.098-0.04,0.221-0.106,0.285
		c-0.239,0.232-0.325,0.501-0.226,0.811c0.097,0.304,0.325,0.466,0.643,0.514c0.099,0.015,0.205,0.064,0.282,0.129
		c0.377,0.318,0.745,0.648,1.118,0.972c0.187,0.162,0.347,0.159,0.515-0.007c0.17-0.169,0.176-0.325,0.014-0.515
		c-0.303-0.355-0.606-0.71-0.913-1.062c-0.116-0.134-0.207-0.267-0.241-0.454c-0.024-0.134-0.149-0.248-0.222-0.375
		c-0.049-0.087-0.117-0.18-0.122-0.273c-0.037-0.668-0.059-1.338-0.087-2.007C251.07,250.153,250.956,250.029,250.79,250.034z"/>
	<path display="inline" d="M126.912,80.726c4.073-0.123,6.898,2.944,7.108,7.912c0.696,16.46,1.235,32.927,2.136,49.375
		c0.125,2.289,1.794,4.57,3.009,6.706c1.781,3.13,4.872,5.934,5.457,9.223c0.82,4.617,3.059,7.887,5.923,11.176
		c7.542,8.658,15.004,17.386,22.456,26.122c3.986,4.673,3.84,8.524-0.35,12.673c-4.12,4.08-8.073,4.172-12.667,0.176
		c-9.167-7.972-18.22-16.078-27.505-23.908c-1.887-1.591-4.504-2.796-6.939-3.167c-7.834-1.194-13.43-5.164-15.825-12.652
		c-2.442-7.637-0.319-14.258,5.551-19.954c1.632-1.584,2.464-4.595,2.606-7.013c0.949-16.112,1.615-32.24,2.366-48.363
		C120.482,83.817,122.858,80.849,126.912,80.726z"/>
</g>
<g display="none">
	<path display="inline" d="M511,216.268c0,65.41,0,130.82,0,196.23c-0.34,1.592-0.761,3.171-1.008,4.777
		c-5.809,37.838-26.466,63.978-62.16,77.721c-8.086,3.113-16.969,4.157-25.484,6.154c-110.898,0-221.797,0-332.695,0
		c-1.447-0.325-2.88-0.742-4.343-0.96c-38.069-5.683-64.367-26.362-78.173-62.266c-3.103-8.069-4.146-16.93-6.137-25.426
		c0-65.41,0-130.82,0-196.23c0.337-1.273,0.813-2.526,0.989-3.82c6.579-48.41,45.528-83.528,94.194-83.669
		c106.543-0.31,213.089-0.256,319.632-0.014c40.887,0.093,75.54,24.966,89.298,63.464C507.876,199.955,509.079,208.24,511,216.268z
		 M255.887,346.241c22.622,0.127,40.976-18.024,41.338-40.881c0.36-22.734-18.185-41.483-41.113-41.565
		c-22.718-0.081-41.026,18.008-41.337,40.842C214.466,327.372,232.984,346.112,255.887,346.241z"/>
	<path fill="#FFFFFF" d="M560.841,59.222c-0.078-0.327-0.127-0.665-0.24-0.98c-0.561-1.57-1.974-2.585-3.642-2.588
		c-4.345-0.01-8.691-0.012-13.036,0.001c-1.985,0.006-3.573,1.438-3.842,3.412c-0.007,0.053-0.027,0.104-0.04,0.156
		c0-3.059,0-6.118,0-9.179c6.933,0,13.867,0,20.8,0C560.841,53.104,560.841,56.163,560.841,59.222z M545.625,54.791
		c0.523,0.028,1.034,0.054,1.564,0.082c0.014-0.27,0.032-0.519,0.039-0.767c0.031-1.018,0.701-1.67,1.724-1.672
		c0.982-0.002,1.963-0.001,2.944,0c1.074,0.001,1.726,0.642,1.757,1.722c0.007,0.234,0.026,0.468,0.04,0.719
		c0.541-0.03,1.056-0.058,1.579-0.087c-0.015-0.301-0.034-0.571-0.042-0.841c-0.047-1.687-1.411-3.059-3.099-3.088
		c-1.144-0.02-2.288-0.018-3.432,0.003c-0.859,0.015-1.58,0.374-2.178,0.987C545.725,52.667,545.601,53.692,545.625,54.791z"/>
	<path fill="#FFFFFF" d="M540.041,67.225c0.081,0.347,0.124,0.708,0.25,1.037c0.563,1.464,1.636,2.308,3.188,2.539
		c0.06,0.009,0.118,0.026,0.177,0.039c-1.202,0-2.404,0-3.616,0C540.041,69.635,540.041,68.43,540.041,67.225z"/>
	<path fill="#FFFFFF" d="M557.225,70.841c0.347-0.081,0.71-0.124,1.039-0.251c1.456-0.561,2.298-1.627,2.535-3.17
		c0.01-0.065,0.027-0.13,0.041-0.195c0,1.205,0,2.41,0,3.616C559.635,70.841,558.43,70.841,557.225,70.841z"/>
	<path fill="#FFFFFF" d="M550.436,64.523c-0.934-0.005-1.689-0.77-1.677-1.697c0.013-0.931,0.759-1.669,1.686-1.666
		c0.935,0.003,1.691,0.768,1.677,1.695C552.107,63.788,551.359,64.528,550.436,64.523z"/>
	<path display="inline" d="M137.928,107.619c-0.592-26.931,2.445-52.082,21.995-72.161c14.646-15.042,32.34-23.831,53.393-24.208
		c28.039-0.501,56.101-0.545,84.141-0.063c41.411,0.712,74.835,34.363,75.997,75.72c0.186,6.627,0.65,13.246,1.025,20.631
		c-12.82,0.708-25.456,1.406-38.718,2.139c-0.349-6.15-0.813-11.883-0.976-17.625c-0.752-26.479-16.741-42.208-43.07-42.227
		c-24.066-0.018-48.131-0.033-72.197,0.005c-25.086,0.039-41.506,16.033-42.267,40.998c-0.186,6.095-0.618,12.182-0.964,18.813
		C163.271,108.955,150.751,108.295,137.928,107.619z"/>
</g>
<g display="none">
	<path fill="#FFFFFF" d="M549.994,50.041c3.616,0,7.231,0,10.847,0c0,6.933,0,13.867,0,20.8c-6.933,0-13.867,0-20.8,0
		c0-6.933,0-13.867,0-20.8c3.074,0,6.148,0,9.222,0c-0.073,0.012-0.145,0.031-0.218,0.035c-0.801,0.036-1.588,0.165-2.349,0.419
		c-2.494,0.834-4.08,2.514-4.71,5.079c-0.296,1.205-0.309,2.425-0.186,3.65c0.014,0.143-0.031,0.235-0.118,0.341
		c-0.817,1.006-1.087,2.137-0.606,3.355c0.38,0.964,1.14,1.615,2.062,2.064c0.178,0.087,0.285,0.187,0.349,0.374
		c0.381,1.117,1.06,2.031,1.945,2.8c0.415,0.361,0.919,0.326,1.226-0.08c0.254-0.336,0.182-0.79-0.191-1.119
		c-0.814-0.717-1.393-1.576-1.64-2.645c-0.076-0.327-0.277-0.552-0.606-0.647c-0.097-0.028-0.204-0.028-0.295-0.066
		c-0.559-0.237-1-0.617-1.315-1.134c-0.302-0.497-0.167-0.993,0.016-1.507c0.061,0.044,0.094,0.066,0.126,0.09
		c0.325,0.249,0.739,0.228,1.034-0.051c0.198-0.187,0.247-0.424,0.244-0.684c-0.01-0.678,0.046-1.351,0.186-2.016
		c0.029-0.139,0.088-0.212,0.23-0.233c0.194-0.029,0.383-0.087,0.577-0.108c0.798-0.085,1.353-0.507,1.697-1.217
		c0.153-0.316,0.284-0.642,0.424-0.964c0.028-0.063,0.056-0.127,0.087-0.198c0.153,0.322,0.28,0.628,0.441,0.916
		c0.436,0.781,1.077,1.291,1.981,1.428c0.638,0.096,1.269,0.027,1.895-0.105c0.978-0.205,1.957-0.411,2.934-0.62
		c0.177-0.038,0.261,0.015,0.324,0.195c0.323,0.925,0.452,1.876,0.441,2.852c-0.002,0.178,0.028,0.367,0.093,0.531
		c0.119,0.297,0.383,0.42,0.68,0.456c0.011,0.024,0.021,0.036,0.021,0.048c0.002,0.616,0.006,1.232,0.002,1.848
		c0,0.057-0.04,0.134-0.086,0.167c-0.235,0.173-0.477,0.326-0.782,0.359c-0.357,0.038-0.618,0.241-0.699,0.587
		c-0.171,0.732-0.493,1.384-0.948,1.977c-0.144,0.187-0.229,0.404-0.183,0.644c0.064,0.334,0.254,0.561,0.595,0.642
		c0.349,0.083,0.625-0.043,0.837-0.315c0.457-0.585,0.82-1.223,1.061-1.928c0.024-0.071,0.096-0.139,0.163-0.179
		c0.285-0.166,0.605-0.287,0.859-0.49c0.248-0.198,0.492-0.167,0.765-0.152c0,0.052,0.007,0.093-0.001,0.131
		c-0.224,1.013-0.641,1.931-1.305,2.738c-0.36,0.437-0.795,0.719-1.354,0.818c-0.273,0.048-0.539,0.135-0.812,0.174
		c-0.755,0.107-1.513,0.197-2.269,0.294c-0.032-0.09-0.052-0.139-0.067-0.189c-0.113-0.377-0.34-0.678-0.651-0.908
		c-0.912-0.673-2.149-0.667-3.067,0.004c-0.853,0.624-0.942,1.746-0.196,2.49c0.908,0.906,2.55,0.913,3.458,0.009
		c0.107-0.107,0.218-0.151,0.369-0.167c0.994-0.107,1.989-0.214,2.98-0.349c1.153-0.158,2.106-0.653,2.804-1.632
		c0.783-1.099,1.269-2.302,1.454-3.632c0.02-0.145,0.061-0.258,0.181-0.363c0.501-0.442,0.775-1.007,0.793-1.675
		c0.018-0.649,0.019-1.3-0.002-1.949c-0.032-0.986-0.752-1.866-1.708-2.107c-0.232-0.059-0.475-0.076-0.721-0.114
		c-0.003-0.059-0.002-0.12-0.009-0.179c-0.082-0.718-0.103-1.449-0.257-2.151c-0.711-3.242-3.136-5.115-6.149-5.523
		C550.732,50.115,550.362,50.081,549.994,50.041z M546.355,59.659c-0.908,0.044-1.542,0.815-1.499,1.642
		c0.053,1.022,0.905,1.579,1.682,1.524c0.934-0.066,1.541-0.837,1.487-1.656C547.963,60.247,547.202,59.581,546.355,59.659z
		 M554.427,61.24c0-0.877-0.708-1.587-1.586-1.59c-0.872-0.003-1.588,0.715-1.587,1.59c0.001,0.876,0.715,1.593,1.588,1.591
		C553.716,62.831,554.427,62.117,554.427,61.24z"/>
	<path display="inline" d="M246.007,1c9.111,1.009,18.247,1.827,27.328,3.057c74.448,10.079,134.364,56.362,151.943,136.474
		c3.806,17.344,4.335,35.408,6.349,53.143c0.167,1.471,0.149,2.964,0.216,4.428c6.077,0.931,12.071,1.365,17.809,2.814
		c23.624,5.966,41.399,27.694,42.199,52.064c0.527,16.041,0.487,32.122,0.048,48.168c-0.451,16.505-7.226,30.453-19.603,41.379
		c-2.943,2.598-3.964,5.389-4.463,8.971c-4.582,32.871-16.585,62.606-35.939,89.758c-17.233,24.176-40.791,36.43-69.283,40.324
		c-24.48,3.346-49.062,5.975-73.63,8.63c-3.744,0.405-6.473,1.492-9.129,4.135c-22.431,22.328-63.013,22.159-85.44-0.228
		c-18.421-18.388-16.233-46.121,4.855-61.542c22.684-16.588,53.247-16.747,75.778-0.105c7.682,5.674,13.284,13.117,16.075,22.439
		c0.374,1.25,0.869,2.465,1.66,4.682c18.691-2.392,37.409-4.626,56.071-7.262c6.757-0.954,13.338-3.1,20.071-4.297
		c13.799-2.451,24.553-9.411,33.449-20.22c16.406-19.935,26.709-42.623,32.257-67.65c0.206-0.93,0.026-1.945,0.026-3.233
		c-6.732-0.386-12.778-1.141-18.897,3.75c-6.281,5.02-14.177,7.993-21.227,12.1c-1.661,0.968-3.425,2.667-4.021,4.413
		c-5.947,17.441-14.924,33.191-26.22,47.651c-5.247,6.717-12.061,9.845-20.691,7.788c-8.419-2.006-13.135-7.615-14.705-15.869
		c-1.132-5.948,0.971-11.295,4.52-15.921c11.249-14.659,19.198-30.762,23.431-48.858c2.003-8.566,8.459-13.563,17.268-14.513
		c7.536-0.813,13.517-4.604,19.315-8.871c1.136-0.836,2.103-2.726,2.113-4.137c0.11-15.22,0.014-30.44-0.046-45.661
		c-0.001-0.295-0.253-0.589-0.529-1.189c-7.341-0.895-13.863-3.928-16.795-11.27c-1.619-4.053-2.36-8.741-2.309-13.129
		c0.28-24.121-2.917-47.615-10.886-70.472c-1.553-4.454-3.636-5.761-8.004-4.828c-24.159,5.16-48.335,10.243-72.513,15.312
		c-15.469,3.243-31.044,4.968-46.816,2.587c-22.336-3.372-38.173-15.974-48.951-35.282c-3.971-7.115-7.104-14.697-10.896-22.645
		c-0.769,1.748-1.46,3.314-2.146,4.882c-3.478,7.948-6.705,16.017-10.483,23.82c-8.5,17.552-22.215,27.979-41.942,30.084
		c-4.794,0.512-9.483,1.951-14.265,2.662c-3.521,0.523-4.969,2.329-5.692,5.761c-3.465,16.442-4.846,33.055-4.606,49.822
		c0.092,6.416-1.13,12.269-6.019,16.892c-7.29,6.893-17.525,7.416-25.562,1.261c-0.783-0.6-1.601-1.154-3.102-2.231
		c-4.531,12.707-7.855,24.958-0.393,37.237c7.766,12.78,18.681,22.177,32.489,28.024c2.257,0.956,4.902,0.946,7.293,1.642
		c8.118,2.363,13.098,7.912,14.969,15.992c6.113,26.402,20.402,47.639,40.523,65.35c9.222,8.117,10.998,19.335,4.719,27.647
		c-7.58,10.033-20.044,10.901-30.302,1.984c-21.855-18.999-38.643-41.577-48.06-69.185c-1.575-4.617-4.223-7.107-8.616-9.25
		c-22.786-11.112-41.545-27.194-50.946-51.009c-11.882-30.1-5.227-58.055,14.968-82.905c2.138-2.63,3.266-4.886,2.909-8.431
		c-3.041-30.286-2.704-60.439,4.601-90.204c15.553-63.374,54.752-104.906,116.381-125.51c18.802-6.286,38.232-9.461,58.038-10.362
		c1.805-0.082,3.592-0.562,5.388-0.857C233.96,1,239.983,1,246.007,1z"/>
	<path display="inline" d="M156.078,238.689c20.938-1.935,39.74,14.526,41.253,37.316c1.343,20.225-13.661,39.27-36.747,40.91
		c-19.2,1.364-40.259-12.398-41.559-37.655C117.974,258.819,133.644,239.773,156.078,238.689z"/>
	<path display="inline" d="M355.549,277.761c0,21.671-17.564,39.297-39.188,39.325c-21.551,0.028-39.215-17.68-39.229-39.326
		c-0.014-21.629,17.685-39.356,39.228-39.292C338.049,238.532,355.549,256.079,355.549,277.761z"/>
</g>
<g display="none">
	<path fill="#FFFFFF" d="M560.834,70.841c-6.929,0-13.86,0-20.793,0c0-6.931,0-13.862,0-20.796c6.928,0,13.858,0,20.793,0
		C560.834,56.974,560.834,63.907,560.834,70.841z M541.792,65.817c-0.008,0.317,0.167,0.552,0.563,0.667
		c0.623,0.181,1.246,0.363,1.871,0.534c0.15,0.041,0.237,0.111,0.298,0.26c0.247,0.607,0.507,1.209,0.766,1.811
		c0.166,0.384,0.422,0.526,0.821,0.448c0.643-0.126,1.286-0.258,1.926-0.396c0.165-0.036,0.287-0.014,0.421,0.101
		c0.479,0.409,0.97,0.802,1.458,1.201c0.388,0.317,0.66,0.316,1.051-0.004c0.487-0.398,0.978-0.793,1.458-1.2
		c0.127-0.107,0.242-0.137,0.402-0.102c0.62,0.137,1.243,0.262,1.866,0.39c0.472,0.097,0.722-0.034,0.913-0.481
		c0.258-0.603,0.509-1.209,0.775-1.808c0.037-0.084,0.135-0.17,0.222-0.197c0.627-0.192,1.258-0.369,1.888-0.55
		c0.462-0.133,0.63-0.381,0.589-0.852c-0.057-0.654-0.112-1.308-0.155-1.963c-0.006-0.091,0.044-0.211,0.109-0.275
		c0.457-0.453,0.924-0.894,1.388-1.34c0.378-0.364,0.409-0.626,0.125-1.075c-0.344-0.543-0.693-1.083-1.027-1.632
		c-0.047-0.078-0.061-0.207-0.034-0.294c0.191-0.606,0.396-1.207,0.598-1.809c0.18-0.538,0.094-0.764-0.404-1.051
		c-0.551-0.318-1.104-0.631-1.65-0.957c-0.073-0.044-0.144-0.143-0.158-0.227c-0.117-0.666-0.22-1.334-0.329-2.001
		c-0.045-0.279-0.171-0.505-0.457-0.589c-0.141-0.041-0.293-0.049-0.441-0.055c-0.582-0.024-1.163-0.047-1.745-0.059
		c-0.177-0.004-0.296-0.059-0.403-0.208c-0.367-0.511-0.751-1.01-1.129-1.513c-0.295-0.392-0.56-0.458-1.003-0.248
		c-0.586,0.278-1.174,0.555-1.756,0.84c-0.122,0.06-0.22,0.056-0.339-0.002c-0.565-0.276-1.134-0.543-1.702-0.813
		c-0.516-0.245-0.747-0.187-1.094,0.275c-0.362,0.482-0.729,0.959-1.08,1.449c-0.11,0.154-0.23,0.217-0.418,0.221
		c-0.656,0.016-1.313,0.037-1.968,0.076c-0.401,0.024-0.607,0.238-0.67,0.633c-0.106,0.661-0.209,1.322-0.326,1.981
		c-0.016,0.089-0.088,0.197-0.166,0.243c-0.563,0.337-1.135,0.659-1.703,0.987c-0.42,0.243-0.518,0.503-0.363,0.967
		c0.203,0.609,0.402,1.219,0.615,1.825c0.051,0.144,0.032,0.25-0.049,0.375c-0.35,0.539-0.692,1.083-1.035,1.627
		c-0.253,0.401-0.218,0.682,0.124,1.011c0.473,0.456,0.951,0.906,1.417,1.369c0.065,0.064,0.111,0.186,0.105,0.277
		C541.911,64.372,541.852,65.059,541.792,65.817z"/>
	<path display="inline" d="M41.809,388.871c1.481-18.773,2.942-35.805,4.029-52.861c0.144-2.258-0.989-5.269-2.594-6.86
		c-11.545-11.452-23.381-22.612-35.093-33.897c-8.464-8.156-9.323-15.127-3.065-25.05c8.491-13.463,16.954-26.946,25.625-40.293
		c2.003-3.084,2.462-5.7,1.207-9.277c-5.265-14.997-10.208-30.108-15.223-45.192c-3.823-11.498-1.411-17.927,9-23.95
		c14.064-8.137,28.223-16.113,42.169-24.447c1.924-1.15,3.72-3.801,4.114-6.017c2.901-16.319,5.453-32.7,8.07-49.069
		c1.566-9.796,6.664-15.094,16.605-15.679c16.23-0.955,32.49-1.491,48.745-1.877c4.638-0.11,7.61-1.677,10.341-5.484
		c8.694-12.119,17.798-23.943,26.753-35.875c8.588-11.444,14.314-12.89,27.09-6.821c14.065,6.681,28.156,13.308,42.151,20.132
		c2.969,1.447,5.384,1.54,8.409,0.059c14.436-7.066,28.977-13.918,43.501-20.801c10.972-5.2,17.53-3.57,24.834,6.134
		c9.374,12.455,18.873,24.821,27.972,37.474c2.663,3.703,5.604,5.068,9.991,5.16c14.413,0.303,28.823,0.867,43.228,1.472
		c3.665,0.154,7.45,0.347,10.933,1.366c7.091,2.074,10.194,7.674,11.316,14.583c2.683,16.528,5.238,33.078,8.143,49.567
		c0.365,2.071,2.107,4.529,3.924,5.614c13.517,8.072,27.217,15.838,40.854,23.709c12.33,7.117,14.463,12.723,10.001,26.037
		c-4.999,14.914-10.085,29.8-14.811,44.8c-0.682,2.165-0.334,5.366,0.841,7.292c8.29,13.585,16.934,26.954,25.441,40.406
		c7.035,11.125,6.278,17.619-3.092,26.628c-11.482,11.041-23.066,21.978-34.373,33.194c-1.616,1.603-2.838,4.58-2.694,6.822
		c1.045,16.219,2.418,32.418,3.828,48.611c1.015,11.66-3.137,17.805-14.58,21.103c-15.598,4.496-31.231,8.878-46.751,13.631
		c-2.166,0.663-4.585,2.8-5.505,4.868c-6.595,14.835-12.806,29.84-19.192,44.769c-4.735,11.07-10.921,14.319-22.611,11.914
		c-15.412-3.171-30.838-6.281-46.204-9.662c-3.966-0.873-6.822-0.14-9.96,2.52c-11.892,10.08-24.042,19.856-36.113,29.724
		c-9.676,7.911-16.411,7.939-26.023,0.088c-12.075-9.863-24.246-19.614-36.099-29.737c-3.331-2.845-6.356-3.386-10.434-2.505
		c-15.869,3.43-31.777,6.692-47.709,9.819c-9.887,1.94-16.229-1.573-20.34-11.095c-6.436-14.907-12.867-29.82-18.981-44.86
		c-1.5-3.69-3.661-5.422-7.382-6.443c-15.492-4.25-30.918-8.744-46.344-13.231C45.952,402.535,41.606,396.731,41.809,388.871z
		 M235.421,295.488c-1.77-1.992-3.041-3.555-4.447-4.986c-15.86-16.145-31.701-32.31-47.634-48.383
		c-7.636-7.703-15.62-7.689-23.264-0.097c-5.591,5.552-11.068,11.218-16.594,16.834c-9.275,9.425-9.281,16.877,0.03,26.35
		c25.738,26.182,51.486,52.355,77.243,78.519c1.527,1.551,3.085,3.088,4.759,4.473c12.522,10.351,25.769,8.811,34.836-4.706
		c37.333-55.657,74.493-111.43,111.631-167.217c5.504-8.267,3.677-16.439-4.564-22.239c-6.44-4.532-12.964-8.945-19.455-13.403
		c-11.083-7.611-18.18-6.26-25.643,4.913c-27.731,41.519-55.454,83.045-83.184,124.565
		C238.122,291.628,237.063,293.114,235.421,295.488z"/>
	<path fill="#FFFFFF" d="M549.61,62.047c0.066-0.096,0.109-0.156,0.15-0.217c1.12-1.676,2.239-3.353,3.359-5.03
		c0.301-0.451,0.588-0.506,1.035-0.198c0.262,0.18,0.526,0.358,0.786,0.541c0.333,0.234,0.406,0.564,0.184,0.898
		c-1.5,2.253-3,4.505-4.507,6.752c-0.366,0.546-0.901,0.608-1.407,0.19c-0.068-0.056-0.131-0.118-0.192-0.181
		c-1.04-1.056-2.08-2.113-3.119-3.17c-0.376-0.382-0.376-0.683-0.001-1.064c0.223-0.227,0.444-0.456,0.67-0.68
		c0.309-0.307,0.631-0.307,0.939,0.004c0.643,0.649,1.283,1.302,1.923,1.954C549.487,61.903,549.538,61.966,549.61,62.047z"/>
</g>
</svg>
