<?xml version="1.0" encoding="utf-8"?>
<!-- Generator: Adobe Illustrator 17.0.0, SVG Export Plug-In . SVG Version: 6.00 Build 0)  -->
<!DOCTYPE svg PUBLIC "-//W3C//DTD SVG 1.1//EN" "http://www.w3.org/Graphics/SVG/1.1/DTD/svg11.dtd">
<svg version="1.1" id="Layer_1" xmlns="http://www.w3.org/2000/svg" xmlns:xlink="http://www.w3.org/1999/xlink" x="0px" y="0px"
	 width="512px" height="512px" viewBox="0 0 512 512" enable-background="new 0 0 512 512" xml:space="preserve">
<g>
	<line fill="none" stroke="#B35047" x1="32" y1="0" x2="32" y2="512"/>
	<line fill="none" stroke="#B35047" x1="64" y1="0" x2="64" y2="512"/>
	<line fill="none" stroke="#B35047" x1="96" y1="0" x2="96" y2="512"/>
	<line fill="none" stroke="#B35047" x1="128" y1="0" x2="128" y2="512"/>
	<line fill="none" stroke="#B35047" x1="160" y1="0" x2="160" y2="512"/>
	<line fill="none" stroke="#B35047" x1="192" y1="0" x2="192" y2="512"/>
	<line fill="none" stroke="#B35047" x1="224" y1="0" x2="224" y2="512"/>
	<line fill="none" stroke="#B35047" x1="256" y1="0" x2="256" y2="512"/>
	<line fill="none" stroke="#B35047" x1="288" y1="0" x2="288" y2="512"/>
	<line fill="none" stroke="#B35047" x1="320" y1="0" x2="320" y2="512"/>
	<line fill="none" stroke="#B35047" x1="352" y1="0" x2="352" y2="512"/>
	<line fill="none" stroke="#B35047" x1="384" y1="0" x2="384" y2="512"/>
	<line fill="none" stroke="#B35047" x1="416" y1="0" x2="416" y2="512"/>
	<line fill="none" stroke="#B35047" x1="448" y1="0" x2="448" y2="512"/>
	<line fill="none" stroke="#B35047" x1="480" y1="0" x2="480" y2="512"/>
	<line fill="none" stroke="#B35047" x1="0" y1="32" x2="512" y2="32"/>
	<line fill="none" stroke="#B35047" x1="0" y1="64" x2="512" y2="64"/>
	<line fill="none" stroke="#B35047" x1="0" y1="96" x2="512" y2="96"/>
	<line fill="none" stroke="#B35047" x1="0" y1="128" x2="512" y2="128"/>
	<line fill="none" stroke="#B35047" x1="0" y1="160" x2="512" y2="160"/>
	<line fill="none" stroke="#B35047" x1="0" y1="192" x2="512" y2="192"/>
	<line fill="none" stroke="#B35047" x1="0" y1="224" x2="512" y2="224"/>
	<line fill="none" stroke="#B35047" x1="0" y1="256" x2="512" y2="256"/>
	<line fill="none" stroke="#B35047" x1="0" y1="288" x2="512" y2="288"/>
	<line fill="none" stroke="#B35047" x1="0" y1="320" x2="512" y2="320"/>
	<line fill="none" stroke="#B35047" x1="0" y1="352" x2="512" y2="352"/>
	<line fill="none" stroke="#B35047" x1="0" y1="384" x2="512" y2="384"/>
	<line fill="none" stroke="#B35047" x1="0" y1="416" x2="512" y2="416"/>
	<line fill="none" stroke="#B35047" x1="0" y1="448" x2="512" y2="448"/>
	<line fill="none" stroke="#B35047" x1="0" y1="480" x2="512" y2="480"/>
	<rect x="0" fill="none" stroke="#B35047" width="512" height="512"/>
</g>
<g>
	<path display="none" d="M261.93,511c-3.984,0-7.969,0-11.953,0c-2.416-0.501-4.851-0.928-7.246-1.515
		c-65.162-15.981-114.304-51.119-138.776-115.88c-0.772-2.042-2.698-3.986-4.583-5.212c-8.858-5.763-18.721-10.277-26.698-17.039
		c-21.014-17.813-34.825-39.486-31.841-68.703c2.031-19.89,8.486-37.696,23.267-51.919c1.528-1.471,2.416-4.656,2.105-6.832
		c-4.904-34.393-5.784-68.674,1.468-102.902C84.437,61.867,143.596,14.765,219.383,4.073c9.164-1.293,18.402-2.062,27.605-3.073
		c5.977,0,11.953,0,17.93,0c1.454,0.273,2.899,0.609,4.362,0.808c13.122,1.781,26.428,2.696,39.34,5.456
		c42.771,9.14,78.371,30.17,104.382,65.918c22.894,31.465,32.585,67.493,34.92,105.751c1.296,21.234,0.596,42.479-2.658,63.558
		c-0.655,4.245,0.35,7.153,3.52,10.466c18.548,19.386,26.17,43.135,21.401,69.097c-5.979,32.548-27.679,53.414-56.998,66.855
		c-2.976,1.365-4.648,2.953-5.91,5.949c-3.915,9.298-7.451,18.891-12.56,27.527c-22.364,37.805-55.615,62.76-96.039,78.401
		C286.878,505.351,274.203,507.658,261.93,511z M255.927,242.309c14.125,0.013,25.701-11.46,25.743-25.513
		c0.041-13.945-11.67-25.639-25.69-25.651c-14.023-0.013-25.734,11.631-25.745,25.598
		C230.223,230.769,241.807,242.297,255.927,242.309z M177.544,242.315c14.153-0.039,25.684-11.545,25.651-25.595
		c-0.034-13.982-11.728-25.597-25.75-25.575c-14.133,0.022-25.558,11.515-25.521,25.673
		C151.961,231.064,163.306,242.354,177.544,242.315z M334.359,242.315c14.238,0.04,25.584-11.249,25.623-25.494
		c0.038-14.159-11.385-25.653-25.518-25.676c-14.021-0.023-25.717,11.591-25.752,25.572
		C308.675,230.767,320.206,242.275,334.359,242.315z"/>
	<path display="none" fill="#FFFFFF" d="M458.684,243.841c0.501-0.136,1.017-0.23,1.499-0.417c1.649-0.638,3.005-1.656,3.917-3.198
		c0.208-0.352,0.353-0.743,0.512-1.123c0.051-0.122,0.12-0.187,0.241-0.243c1.196-0.548,2.081-1.399,2.325-2.727
		c0.194-1.059-0.116-2.027-0.873-2.818c-0.129-0.135-0.17-0.254-0.144-0.427c0.133-0.86,0.161-1.726,0.108-2.592
		c-0.095-1.56-0.49-3.03-1.424-4.313c-1.061-1.458-2.513-2.316-4.257-2.688c-0.527-0.113-1.069-0.15-1.604-0.223
		c-0.06-0.008-0.119-0.022-0.178-0.033c3.345,0,6.69,0,10.034,0c0,6.933,0,13.867,0,20.8
		C465.455,243.841,462.07,243.841,458.684,243.841z"/>
	<path display="none" fill="#FFFFFF" d="M458.075,223.041c-0.375,0.041-0.752,0.073-1.126,0.125
		c-3.091,0.436-5.504,2.357-6.187,5.584c-0.296,1.396-0.26,2.794-0.06,4.197c0.013,0.089-0.024,0.219-0.086,0.279
		c-0.603,0.58-0.866,1.306-0.949,2.117c-0.122,1.192,0.442,2.076,1.299,2.802c0.325,0.276,0.728,0.46,1.089,0.695
		c0.077,0.05,0.155,0.129,0.187,0.213c0.998,2.641,3.002,4.074,5.66,4.726c0.098,0.024,0.197,0.041,0.296,0.062
		c-3.385,0-6.771,0-10.156,0c0-6.933,0-13.867,0-20.8C451.385,223.041,454.73,223.041,458.075,223.041z"/>
	<path d="M255.952,302.717c-25.787-0.023-46.946-21.077-46.925-46.694c0.021-25.51,21.409-46.776,47.022-46.753
		c25.607,0.023,46.996,21.38,46.92,46.85C302.892,281.788,281.751,302.74,255.952,302.717z"/>
	<path d="M112.793,302.729C86.788,302.8,66.067,282.179,66,256.161c-0.067-25.86,20.799-46.85,46.612-46.89
		c25.609-0.04,46.968,21.175,47.03,46.711C159.704,281.643,138.642,302.659,112.793,302.729z"/>
	<path d="M399.202,302.729c-25.849-0.073-46.909-21.093-46.844-46.753c0.065-25.536,21.426-46.748,47.035-46.706
		c25.813,0.043,46.677,21.035,46.607,46.895C445.929,282.184,425.207,302.803,399.202,302.729z"/>
</g>
</svg>
