<?xml version="1.0" encoding="utf-8"?>
<!-- Generator: Adobe Illustrator 17.0.0, SVG Export Plug-In . SVG Version: 6.00 Build 0)  -->
<!DOCTYPE svg PUBLIC "-//W3C//DTD SVG 1.1//EN" "http://www.w3.org/Graphics/SVG/1.1/DTD/svg11.dtd">
<svg version="1.1" id="Layer_1" xmlns="http://www.w3.org/2000/svg" xmlns:xlink="http://www.w3.org/1999/xlink" x="0px" y="0px"
	 width="512px" height="512px" viewBox="0 0 512 512" enable-background="new 0 0 512 512" xml:space="preserve">
<g>
	<line fill="none" stroke="#B35047" x1="32" y1="0" x2="32" y2="512"/>
	<line fill="none" stroke="#B35047" x1="64" y1="0" x2="64" y2="512"/>
	<line fill="none" stroke="#B35047" x1="96" y1="0" x2="96" y2="512"/>
	<line fill="none" stroke="#B35047" x1="128" y1="0" x2="128" y2="512"/>
	<line fill="none" stroke="#B35047" x1="160" y1="0" x2="160" y2="512"/>
	<line fill="none" stroke="#B35047" x1="192" y1="0" x2="192" y2="512"/>
	<line fill="none" stroke="#B35047" x1="224" y1="0" x2="224" y2="512"/>
	<line fill="none" stroke="#B35047" x1="256" y1="0" x2="256" y2="512"/>
	<line fill="none" stroke="#B35047" x1="288" y1="0" x2="288" y2="512"/>
	<line fill="none" stroke="#B35047" x1="320" y1="0" x2="320" y2="512"/>
	<line fill="none" stroke="#B35047" x1="352" y1="0" x2="352" y2="512"/>
	<line fill="none" stroke="#B35047" x1="384" y1="0" x2="384" y2="512"/>
	<line fill="none" stroke="#B35047" x1="416" y1="0" x2="416" y2="512"/>
	<line fill="none" stroke="#B35047" x1="448" y1="0" x2="448" y2="512"/>
	<line fill="none" stroke="#B35047" x1="480" y1="0" x2="480" y2="512"/>
	<line fill="none" stroke="#B35047" x1="0" y1="32" x2="512" y2="32"/>
	<line fill="none" stroke="#B35047" x1="0" y1="64" x2="512" y2="64"/>
	<line fill="none" stroke="#B35047" x1="0" y1="96" x2="512" y2="96"/>
	<line fill="none" stroke="#B35047" x1="0" y1="128" x2="512" y2="128"/>
	<line fill="none" stroke="#B35047" x1="0" y1="160" x2="512" y2="160"/>
	<line fill="none" stroke="#B35047" x1="0" y1="192" x2="512" y2="192"/>
	<line fill="none" stroke="#B35047" x1="0" y1="224" x2="512" y2="224"/>
	<line fill="none" stroke="#B35047" x1="0" y1="256" x2="512" y2="256"/>
	<line fill="none" stroke="#B35047" x1="0" y1="288" x2="512" y2="288"/>
	<line fill="none" stroke="#B35047" x1="0" y1="320" x2="512" y2="320"/>
	<line fill="none" stroke="#B35047" x1="0" y1="352" x2="512" y2="352"/>
	<line fill="none" stroke="#B35047" x1="0" y1="384" x2="512" y2="384"/>
	<line fill="none" stroke="#B35047" x1="0" y1="416" x2="512" y2="416"/>
	<line fill="none" stroke="#B35047" x1="0" y1="448" x2="512" y2="448"/>
	<line fill="none" stroke="#B35047" x1="0" y1="480" x2="512" y2="480"/>
	<rect x="0" fill="none" stroke="#B35047" width="512" height="512"/>
</g>
<image display="none" overflow="visible" width="512" height="512" xlink:href="../../../Knowledge/Icon/[+++++] (Full) Windows 8 Icons [icons8]/Compter_Hardware/notebook/notebook-512_.png"  transform="matrix(0.0406 0 0 0.0406 551 61)">
</image>
<g>
	<path display="none" fill="#FFFFFF" d="M571.841,73.919c0,2.641,0,5.281,0,7.922c-6.933,0-13.867,0-20.8,0c0-6.933,0-13.867,0-20.8
		c6.933,0,13.867,0,20.8,0c0,3.792,0,7.583,0,11.375c-0.168,0.076-0.36,0.122-0.498,0.235c-0.387,0.317-0.742,0.673-1.128,0.99
		c-0.403,0.332-0.835,0.626-1.361,0.735c-0.673,0.139-1.269-0.465-1.131-1.142c0.094-0.465,0.344-0.856,0.64-1.207
		c0.458-0.543,0.953-1.054,1.425-1.584c0.54-0.608,1.042-1.243,1.409-1.977c0.701-1.402,0.565-2.662-0.422-3.779
		c-0.887-1.004-2.234-1.318-3.475-0.818c-1.246,0.501-2.187,1.407-3.105,2.339c-0.263,0.267-0.231,0.653,0.018,0.892
		c0.241,0.231,0.626,0.219,0.898-0.035c0.159-0.147,0.308-0.305,0.466-0.453c0.574-0.537,1.158-1.061,1.865-1.424
		c0.891-0.458,1.59-0.385,2.293,0.256c0.574,0.523,0.792,1.169,0.527,1.908c-0.158,0.44-0.355,0.891-0.638,1.256
		c-0.559,0.719-1.192,1.381-1.793,2.068c-0.505,0.577-0.978,1.176-1.241,1.911c-0.467,1.307,0.23,2.689,1.526,3.019
		c0.668,0.17,1.286-0.001,1.878-0.305C570.686,74.944,571.268,74.437,571.841,73.919z M554.774,69.211
		c-0.384,0.382-0.765,0.757-1.14,1.137c-1.006,1.019-1.546,2.246-1.559,3.676c-0.013,1.421,0.476,2.669,1.476,3.687
		c1.194,1.215,2.659,1.729,4.349,1.553c1.159-0.121,2.168-0.605,3.008-1.417c0.427-0.412,0.837-0.842,1.244-1.253
		C559.694,74.134,557.241,71.679,554.774,69.211z M559.77,72.542c1.08,1.08,2.149,2.15,3.21,3.21
		c1.41-1.173,2.383-2.607,2.346-4.551c-0.022-1.151-0.383-2.191-1.101-3.123c-0.301,0.303-0.584,0.584-0.859,0.873
		c-0.04,0.042-0.063,0.133-0.049,0.19c0.129,0.541-0.002,1.003-0.396,1.393c-0.259,0.258-0.516,0.518-0.774,0.777
		c-0.395,0.396-0.858,0.546-1.408,0.403c-0.049-0.013-0.128-0.005-0.161,0.027C560.295,72.012,560.021,72.291,559.77,72.542z
		 M563.265,67.154c-0.015-0.028-0.018-0.043-0.028-0.05c-1.171-0.866-2.481-1.203-3.921-0.998c-1.104,0.157-2.056,0.643-2.857,1.419
		c-0.299,0.289-0.586,0.591-0.849,0.859c1.077,1.077,2.141,2.141,3.218,3.217c0.239-0.241,0.499-0.498,0.748-0.764
		c0.037-0.039,0.048-0.134,0.03-0.189c-0.184-0.56-0.082-1.053,0.331-1.476c0.27-0.276,0.543-0.547,0.818-0.818
		c0.425-0.42,0.919-0.541,1.49-0.346c0.053,0.018,0.143,0.016,0.178-0.017C562.709,67.716,562.988,67.432,563.265,67.154z
		 M562.587,69.53c-0.032-0.317-0.259-0.469-0.441-0.643c-0.232-0.221-0.533-0.225-0.764-0.006c-0.309,0.293-0.61,0.594-0.903,0.902
		c-0.209,0.22-0.203,0.524-0.004,0.752c0.071,0.081,0.149,0.157,0.227,0.231c0.265,0.252,0.565,0.259,0.827,0.006
		c0.292-0.281,0.581-0.565,0.855-0.864C562.478,69.807,562.521,69.658,562.587,69.53z"/>
	<path d="M511,319.292c-14.782,13.362-29.782,26.444-47.68,35.622c-15.292,7.842-31.239,12.251-48.462,7.87
		c-33.438-8.505-51.426-44.176-39.373-77.891c6.774-18.95,18.982-34.405,32.02-49.298c15.513-17.72,31.838-34.805,46.272-53.362
		c7.322-9.413,12.404-21.048,16.474-32.404c6.829-19.055,1.209-35.724-13.594-49.228c-18.135-16.544-36.19-18.421-59.172-6.603
		c-18.243,9.381-33.307,22.893-48.113,36.748c-4.08,3.818-7.934,7.878-12.027,11.68c-7.041,6.541-16.96,6.866-23.183,0.895
		c-6.42-6.161-7.246-16.126-0.472-23.007c23.682-24.056,47.967-47.423,80.11-60.355c32.03-12.886,66.772-4.793,89.664,21.112
		c25.461,28.812,28.975,61.326,10.883,97.5c-9.471,18.936-22.409,35.331-36.35,51.018c-12.174,13.698-24.952,26.876-36.756,40.88
		c-7.632,9.055-14.081,19.132-16.515,31.139c-3.542,17.475,11.83,33.062,29.194,29.477c13.571-2.802,24.711-10.403,35.114-18.961
		c9.967-8.199,19.12-17.39,29.112-25.556c3.559-2.909,8.529-4.09,12.855-6.06C511,293.437,511,306.365,511,319.292z"/>
	<path d="M70.653,197.817c63.642,63.679,126.953,127.028,190.374,190.486c-10.505,10.615-21.079,21.705-32.092,32.342
		c-21.689,20.95-47.707,33.432-77.623,36.554c-43.596,4.549-81.416-8.713-112.215-40.065c-25.807-26.271-38.418-58.454-38.091-95.13
		c0.329-36.915,14.273-68.575,40.23-94.857C50.921,217.343,60.751,207.682,70.653,197.817z"/>
	<path d="M199.562,283.767c6.462-6.475,13.534-13.677,20.798-20.68c0.849-0.819,2.888-1.021,4.161-0.688
		c14.2,3.705,26.159-0.167,36.339-10.389c6.657-6.683,13.288-13.392,19.981-20.039c10.152-10.082,13.531-22.001,10.211-35.95
		c-0.353-1.485,0.231-3.814,1.27-4.908c7.086-7.466,14.411-14.706,22.164-22.529c18.544,24.033,27.843,50.864,28.414,80.573
		c0.964,50.168-24.154,87.167-60.525,117.433C255.022,339.232,227.436,311.644,199.562,283.767z"/>
	<path d="M289.747,144.753c-7.165,7.163-14.347,14.488-21.761,21.569c-0.89,0.85-3.221,0.904-4.581,0.44
		c-14.712-5.022-27.467-1.898-38.434,8.93c-7.081,6.991-14.145,14.001-21.1,21.117c-10.663,10.908-13.274,23.64-8.538,38.088
		c0.469,1.432,0.181,3.869-0.773,4.887c-6.431,6.867-13.136,13.476-19.293,19.705c-27.778-27.767-55.232-55.211-83.031-83
		c6.804-6.896,14.203-14.683,21.911-22.151c20.662-20.019,45.224-32.568,73.718-36.621c37.139-5.282,70.945,3.424,101.164,25.756
		C289.271,143.653,289.358,144.042,289.747,144.753z"/>
	<path d="M272.242,206.062c-1.703,3.296-2.804,7.145-5.224,9.784c-7.061,7.701-14.535,15.037-22.063,22.291
		c-6.76,6.514-14.5,6.332-21.342-0.166c-2.021-1.919-4.037-3.862-5.864-5.961c-5.131-5.893-5.282-13.733,0.11-19.414
		c7.555-7.961,15.332-15.726,23.292-23.283c5.959-5.657,13.736-5.555,19.71,0.155C265.563,193.963,271.421,197.891,272.242,206.062z
		"/>
</g>
<g display="none">
	<path display="inline" d="M1,350.788c0-95.625,0-191.25,0-286.875c0.341-1.09,0.796-2.159,1.005-3.275
		c4.298-22.956,17.568-38.317,39.398-46.286c3.991-1.457,8.253-2.174,12.39-3.233c134.805,0,269.609,0,404.414,0
		c0.924,0.323,1.825,0.78,2.777,0.95c23.416,4.179,38.98,17.626,46.924,39.923c1.372,3.851,2.078,7.941,3.091,11.92
		c0,95.625,0,191.25,0,286.875c-0.551,2.229-1.111,4.456-1.653,6.687c-6.773,27.907-29.654,45.767-59.151,45.841
		c-43.138,0.107-86.277,0.029-129.415,0.03c-1.915,0-3.83,0-6.112,0c0,6.357,0.028,11.972-0.006,17.586
		c-0.078,13.049-8.419,21.439-21.477,21.464c-24.721,0.047-49.443,0.04-74.165,0.003c-14.049-0.021-21.646-7.76-21.689-21.965
		c-0.017-5.578-0.003-11.156-0.003-17.088c-2.674,0-4.642,0-6.61,0c-42.972-0.001-85.945,0.078-128.917-0.029
		c-29.496-0.074-52.377-17.934-59.151-45.841C2.111,355.244,1.551,353.017,1,350.788z M256.003,325.053
		c64.07,0,128.14,0.009,192.209-0.027c2.965-0.002,6.038,0.023,8.876-0.695c9.837-2.488,14.953-10.289,14.955-22.392
		c0.013-75.855,0.01-151.709,0.005-227.564c-0.001-16.772-7.544-24.303-24.34-24.303c-127.808-0.004-255.615-0.004-383.423,0
		c-16.793,0.001-24.333,7.533-24.334,24.309c-0.006,75.357,0.172,150.714-0.151,226.07c-0.064,14.889,7.79,24.92,24.492,24.795
		C128.193,324.769,192.099,325.053,256.003,325.053z M472.481,364.316c0.055-11.245-8.82-20.391-19.968-20.577
		c-11.332-0.189-20.68,8.978-20.752,20.352c-0.072,11.353,9.22,20.676,20.526,20.594
		C463.437,384.604,472.426,375.538,472.481,364.316z"/>
	<path fill="#FFFFFF" d="M551.041,74.894c0.022,0.091,0.045,0.182,0.067,0.273c0.276,1.138,1.209,1.867,2.412,1.87
		c1.753,0.004,3.505,0.001,5.258,0.001c0.08,0,0.161,0,0.27,0c0,0.242-0.001,0.469,0,0.697c0.002,0.579,0.312,0.895,0.885,0.896
		c1.008,0.002,2.016,0.002,3.025,0c0.533-0.001,0.873-0.343,0.876-0.875c0.001-0.229,0-0.458,0-0.717c0.093,0,0.171,0,0.249,0
		c1.759,0,3.519,0.003,5.278-0.001c1.203-0.003,2.136-0.731,2.412-1.87c0.022-0.091,0.045-0.182,0.067-0.273
		c0,2.316,0,4.631,0,6.947c-6.933,0-13.867,0-20.8,0C551.041,79.525,551.041,77.209,551.041,74.894z M555.073,81.015
		c4.255,0,8.496,0,12.757,0c0-0.257,0.006-0.5-0.001-0.742c-0.016-0.516-0.335-0.824-0.854-0.825c-3.677-0.001-7.353,0-11.029-0.002
		c-0.203,0-0.361,0.078-0.508,0.213C555.033,80.032,554.995,80.5,555.073,81.015z"/>
	<path fill="#FFFFFF" d="M553.194,61.041c-0.169,0.043-0.343,0.072-0.505,0.132c-0.89,0.325-1.432,0.951-1.607,1.888
		c-0.008,0.045-0.027,0.089-0.041,0.134c0-0.714,0-1.429,0-2.153C551.758,61.041,552.476,61.041,553.194,61.041z"/>
	<path fill="#FFFFFF" d="M571.841,63.194c-0.041-0.162-0.07-0.329-0.126-0.486c-0.324-0.909-0.959-1.458-1.914-1.628
		c-0.039-0.007-0.076-0.026-0.113-0.039c0.718,0,1.435,0,2.153,0C571.841,61.758,571.841,62.476,571.841,63.194z"/>
	<path fill="#FFFFFF" d="M561.441,73.844c-2.606,0-5.213-0.012-7.819,0.008c-0.681,0.005-1.002-0.404-0.999-1.011
		c0.013-3.073,0.006-6.147,0.006-9.22c0-0.684,0.308-0.991,0.992-0.991c5.213,0,10.425,0,15.638,0c0.685,0,0.993,0.307,0.993,0.991
		c0,3.094,0,6.187,0,9.281c0,0.494-0.209,0.812-0.61,0.913c-0.116,0.029-0.241,0.028-0.362,0.028
		C566.667,73.844,564.054,73.844,561.441,73.844z"/>
	<path fill="#FFFFFF" d="M570.27,75.445c-0.002,0.458-0.369,0.827-0.824,0.831c-0.461,0.003-0.84-0.377-0.837-0.84
		c0.003-0.464,0.384-0.838,0.846-0.83C569.91,74.614,570.272,74.987,570.27,75.445z"/>
	<path display="inline" d="M99.867,500.88c-1.899-12.642-0.983-24.107,8.934-33.237c3.594-3.309,7.454-5.231,12.443-5.228
		c90.145,0.049,180.29,0.021,270.435,0.054c12.737,0.005,20.546,7.569,20.948,20.219c0.189,5.94,0.032,11.891,0.032,18.193
		C308.188,500.88,204.192,500.88,99.867,500.88z"/>
</g>
<g display="none">
	<path display="inline" d="M1,426.802c0-56.445,0-112.891,0-169.336c0.893-3.504,1.657-7.047,2.699-10.506
		c7.762-25.767,30.267-41.939,58.671-41.971c57.086-0.064,114.172-0.02,171.258-0.02c2.114,0,4.229,0,6.664,0
		c0.274-5.024,0.46-9.477,0.77-13.921c1.022-14.678,3.786-28.938,10.897-42.011c10.722-19.713,28.201-29.74,49.567-33.839
		c14.636-2.808,29.412-4.921,43.993-7.974c14.757-3.09,24.748-12.147,28.063-26.987c2.187-9.79,2.981-19.917,3.982-29.935
		c0.511-5.115,1.387-9.897,5.316-13.465c4.864-4.417,10.625-5.484,16.582-2.843c6.629,2.94,9.591,8.628,9.17,15.691
		c-0.582,9.748-0.893,19.606-2.655,29.171c-6.284,34.093-25.121,53.045-59.183,59.947c-13.469,2.729-27.116,4.571-40.619,7.146
		c-8.594,1.638-16.814,4.716-22.514,11.721c-11.201,13.767-11.722,30.279-11.896,47.299c2.831,0,4.968,0,7.105,0
		c56.92,0.001,113.84-0.048,170.76,0.021c29.961,0.036,52.864,17.711,59.701,45.807c0.542,2.227,1.113,4.446,1.671,6.669
		c0,56.445,0,112.891,0,169.336c-1.607,5.543-2.722,11.288-4.907,16.593c-9.379,22.763-30.472,36.025-56.854,36.028
		c-128.826,0.017-257.652,0.008-386.478,0.006c-1.328,0-2.657-0.001-3.984-0.047c-27.364-0.939-49.398-18.807-55.997-45.403
		C2.187,431.588,1.594,429.195,1,426.802z M118.763,420.483c91.724,0,183.044,0,274.506,0c0-13.115,0-25.832,0-38.922
		c-91.573,0-182.9,0-274.506,0C118.763,394.597,118.763,407.311,118.763,420.483z M177.611,303.202
		c12.493,0,24.706,0.058,36.916-0.125c0.848-0.013,2.38-1.803,2.394-2.785c0.171-11.269,0.171-22.543,0.003-33.813
		c-0.015-0.994-1.521-2.81-2.355-2.822c-12.213-0.184-24.43-0.127-36.958-0.127C177.611,276.941,177.611,289.759,177.611,303.202z
		 M256.043,263.498c-5.468,0-10.938,0.073-16.405-0.033c-2.518-0.049-3.561,0.84-3.541,3.452c0.086,10.936,0.079,21.874,0.002,32.81
		c-0.018,2.516,0.84,3.561,3.453,3.54c10.936-0.086,21.874-0.079,32.81-0.002c2.516,0.018,3.561-0.84,3.54-3.453
		c-0.086-10.936-0.108-21.874,0.012-32.81c0.033-3.012-1.384-3.597-3.964-3.543C266.65,263.571,261.345,263.493,256.043,263.498z
		 M334.427,263.535c-12.619,0-24.842-0.078-37.058,0.172c-0.831,0.017-2.267,2.476-2.307,3.832
		c-0.227,7.619-0.112,15.247-0.113,22.872c-0.001,12.829,0,12.83,13.027,12.83c8.728,0,17.457,0,26.451,0
		C334.427,289.833,334.427,277.127,334.427,263.535z M373.729,361.713c13.245,0,26.051,0,39.42,0
		c0-12.408,0.083-24.464-0.155-36.514c-0.019-0.981-2.193-2.673-3.442-2.746c-5.283-0.312-10.596-0.137-15.897-0.138
		c-6.568-0.001-13.137,0-19.926,0C373.729,335.777,373.729,348.484,373.729,361.713z M59.962,420.579c13.098,0,25.904,0,39.29,0
		c0-12.5,0.069-24.708-0.149-36.912c-0.015-0.843-2.117-2.263-3.33-2.356c-3.95-0.306-7.937-0.122-11.91-0.123
		c-7.898-0.002-15.795,0-23.9,0C59.962,394.689,59.962,407.505,59.962,420.579z M452.077,381.245
		c-12.548,0-24.755-0.068-36.958,0.151c-0.827,0.015-2.233,2.157-2.311,3.377c-0.284,4.452-0.122,8.932-0.123,13.402
		c-0.002,7.404-0.001,14.807-0.001,22.387c13.518,0,26.33,0,39.393,0C452.077,407.555,452.077,394.864,452.077,381.245z
		 M60.007,263.753c0,13.308,0,26.129,0,39.101c13.133,0,25.927,0,38.92,0c0-13.207,0-26.023,0-39.101
		C85.855,263.753,73.171,263.753,60.007,263.753z M158.144,263.927c-13.69,0-26.502,0-39.242,0c0,13.258,0,26.074,0,39.287
		c12.476,0,24.54,0.059,36.601-0.12c0.893-0.013,2.514-1.727,2.527-2.668C158.203,288.378,158.144,276.326,158.144,263.927z
		 M393.155,303.214c0-13.564,0-26.378,0-39.327c-13.16,0-25.955,0-39.299,0c0,12.441-0.059,24.493,0.114,36.541
		c0.013,0.941,1.635,2.652,2.53,2.666C368.56,303.273,380.624,303.214,393.155,303.214z M452.05,303.241c0-13.467,0-26.288,0-39.714
		c-12.472,0-24.675-0.079-36.872,0.17c-0.854,0.017-2.34,2.441-2.374,3.775c-0.219,8.606-0.117,17.221-0.119,25.833
		c-0.001,9.937,0,9.937,9.946,9.937C432.349,303.241,442.068,303.241,452.05,303.241z M353.547,361.915
		c0.328-0.902,0.637-1.359,0.641-1.818c0.064-8.281,0.112-16.563,0.123-24.845c0.017-12.938,0.005-12.938-12.93-12.938
		c-8.728,0-17.456,0-26.252,0c0,13.617,0,26.557,0,39.601C328.154,361.915,340.72,361.915,353.547,361.915z M118.546,322.674
		c-13.298,0-25.973,0-38.815,0c0,13.194,0,26.028,0,38.979c13.138,0,25.936,0,38.815,0
		C118.546,348.504,118.546,335.78,118.546,322.674z M138.605,322.642c0,13.323,0,26.16,0,39.128c13.058,0,25.735,0,38.704,0
		c0-13.137,0-25.969,0-39.128C164.341,322.642,151.667,322.642,138.605,322.642z M197.494,322.351c0,13.505,0,26.454,0,39.371
		c13.118,0,25.804,0,38.961,0c0-12.422,0.058-24.497-0.112-36.569c-0.013-0.945-1.605-2.668-2.484-2.681
		C221.803,322.293,209.743,322.351,197.494,322.351z M256.301,322.351c0,13.505,0,26.461,0,39.371c13.125,0,25.822,0,39.009,0
		c0-12.426,0.059-24.505-0.114-36.582c-0.013-0.941-1.63-2.655-2.522-2.668C280.612,322.293,268.546,322.351,256.301,322.351z"/>
	<path fill="#FFFFFF" d="M571.841,70.384c-0.023-0.091-0.046-0.181-0.068-0.272c-0.279-1.146-1.213-1.867-2.435-1.868
		c-2.321-0.003-4.643-0.001-6.964-0.001c-0.087,0-0.174,0-0.29,0c0.007-0.694,0.028-1.368,0.485-1.929
		c0.232-0.286,0.568-0.411,0.918-0.478c0.551-0.105,1.107-0.18,1.657-0.291c1.389-0.281,2.157-1.054,2.414-2.445
		c0.072-0.39,0.085-0.792,0.108-1.19c0.017-0.288-0.104-0.52-0.374-0.64c-0.243-0.108-0.478-0.064-0.676,0.116
		c-0.16,0.146-0.196,0.341-0.217,0.549c-0.041,0.409-0.073,0.822-0.162,1.221c-0.135,0.605-0.543,0.975-1.145,1.101
		c-0.595,0.125-1.197,0.211-1.794,0.325c-0.871,0.167-1.584,0.576-2.022,1.38c-0.29,0.533-0.403,1.115-0.444,1.713
		c-0.013,0.181-0.02,0.363-0.031,0.568c-0.099,0-0.186,0-0.272,0c-2.328,0-4.656-0.002-6.985,0.001
		c-1.158,0.001-2.076,0.661-2.393,1.712c-0.042,0.141-0.074,0.286-0.11,0.428c0-3.113,0-6.226,0-9.341c6.933,0,13.867,0,20.8,0
		C571.841,64.158,571.841,67.271,571.841,70.384z"/>
	<path fill="#FFFFFF" d="M551.041,77.291c0.024,0.098,0.048,0.195,0.073,0.293c0.269,1.085,1.168,1.813,2.284,1.852
		c0.054,0.002,0.108,0.002,0.162,0.002c5.254,0,10.508,0,15.762,0c1.076,0,1.936-0.541,2.319-1.469
		c0.089-0.216,0.135-0.451,0.2-0.677c0,1.517,0,3.033,0,4.55c-6.933,0-13.867,0-20.8,0
		C551.041,80.324,551.041,78.807,551.041,77.291z"/>
	<path fill="#FFFFFF" d="M555.844,77.033c0-0.537,0-1.056,0-1.587c3.736,0,7.461,0,11.196,0c0,0.534,0,1.053,0,1.587
		C563.309,77.033,559.584,77.033,555.844,77.033z"/>
	<path fill="#FFFFFF" d="M558.244,72.25c0-0.548,0-1.071,0-1.618c0.511,0,1.009-0.002,1.507,0.005
		c0.034,0.001,0.095,0.075,0.096,0.115c0.007,0.46,0.007,0.919,0,1.379c-0.001,0.04-0.063,0.113-0.098,0.114
		C559.251,72.252,558.753,72.25,558.244,72.25z"/>
	<path fill="#FFFFFF" d="M561.442,70.63c0.216,0,0.433,0.003,0.649-0.001c0.105-0.002,0.163,0.022,0.162,0.145
		c-0.005,0.446-0.004,0.892,0,1.338c0.001,0.107-0.042,0.142-0.144,0.141c-0.446-0.003-0.892-0.003-1.338,0
		c-0.107,0.001-0.141-0.042-0.141-0.144c0.003-0.446,0.003-0.892,0-1.338c-0.001-0.107,0.042-0.143,0.144-0.141
		C560.996,70.633,561.219,70.63,561.442,70.63z"/>
	<path fill="#FFFFFF" d="M564.639,70.632c0,0.554,0,1.073,0,1.619c-0.367,0-0.723,0-1.079,0c-0.531,0-0.531,0-0.531-0.523
		c0-0.311-0.005-0.622,0.005-0.933c0.002-0.055,0.06-0.156,0.094-0.156C563.626,70.629,564.125,70.632,564.639,70.632z"/>
	<path fill="#FFFFFF" d="M566.242,74.636c0-0.54,0-1.058,0-1.607c0.277,0,0.545,0,0.813,0c0.216,0,0.433-0.007,0.648,0.006
		c0.051,0.003,0.14,0.072,0.14,0.112c0.01,0.491,0.006,0.983,0.006,1.489C567.305,74.636,566.782,74.636,566.242,74.636z"/>
	<path fill="#FFFFFF" d="M553.445,77.037c0-0.533,0-1.056,0-1.607c0.331,0,0.653,0,0.975,0c0.162,0,0.325-0.007,0.486,0.005
		c0.049,0.004,0.135,0.062,0.136,0.096c0.009,0.498,0.006,0.996,0.006,1.505C554.502,77.037,553.98,77.037,553.445,77.037z"/>
	<path fill="#FFFFFF" d="M569.437,75.433c0,0.555,0,1.073,0,1.604c-0.533,0-1.055,0-1.607,0c0-0.309,0-0.611,0-0.913
		c0-0.182-0.007-0.365,0.005-0.547c0.003-0.05,0.06-0.137,0.094-0.138C568.428,75.43,568.926,75.433,569.437,75.433z"/>
	<path fill="#FFFFFF" d="M553.447,70.641c0.537,0,1.054,0,1.587,0c0,0.533,0,1.056,0,1.595c-0.53,0-1.052,0-1.587,0
		C553.447,71.706,553.447,71.184,553.447,70.641z"/>
	<path fill="#FFFFFF" d="M557.45,70.648c0,0.506,0.002,0.997-0.005,1.489c-0.001,0.038-0.067,0.108-0.103,0.109
		c-0.492,0.007-0.984,0.005-1.493,0.005c0-0.539,0-1.062,0-1.602C556.369,70.648,556.891,70.648,557.45,70.648z"/>
	<path fill="#FFFFFF" d="M567.034,72.25c-0.511,0-1.003,0.002-1.495-0.005c-0.036-0.001-0.103-0.07-0.103-0.109
		c-0.007-0.491-0.005-0.983-0.005-1.49c0.544,0,1.066,0,1.603,0C567.034,71.174,567.034,71.697,567.034,72.25z"/>
	<path fill="#FFFFFF" d="M569.436,72.251c-0.407,0-0.803,0-1.2,0c-0.406,0-0.406,0-0.406-0.405c0-0.351-0.004-0.703,0.005-1.054
		c0.001-0.054,0.062-0.153,0.097-0.154c0.497-0.01,0.995-0.007,1.504-0.007C569.436,71.179,569.436,71.702,569.436,72.251z"/>
	<path fill="#FFFFFF" d="M565.419,74.644c-0.523,0-1.036,0-1.567,0c0-0.532,0-1.06,0-1.615c0.359,0,0.715,0,1.071,0
		c0.528,0,0.528,0,0.527,0.528c0,0.338-0.002,0.676-0.005,1.013C565.445,74.589,565.432,74.607,565.419,74.644z"/>
	<path fill="#FFFFFF" d="M555.835,73.044c0,0.535,0,1.053,0,1.59c-0.525,0-1.047,0-1.583,0c0-0.528,0-1.052,0-1.59
		C554.775,73.044,555.292,73.044,555.835,73.044z"/>
	<path fill="#FFFFFF" d="M556.653,73.042c0.533,0,1.05,0,1.578,0c0,0.537,0,1.06,0,1.596c-0.529,0-1.046,0-1.578,0
		C556.653,74.109,556.653,73.586,556.653,73.042z"/>
	<path fill="#FFFFFF" d="M559.055,73.031c0.5,0,0.991-0.002,1.483,0.005c0.036,0.001,0.101,0.071,0.101,0.109
		c0.007,0.492,0.005,0.985,0.005,1.491c-0.537,0-1.054,0-1.589,0C559.055,74.11,559.055,73.581,559.055,73.031z"/>
	<path fill="#FFFFFF" d="M561.453,73.031c0.499,0,0.992-0.002,1.483,0.005c0.036,0.001,0.102,0.07,0.103,0.109
		c0.007,0.493,0.005,0.985,0.005,1.492c-0.538,0-1.056,0-1.591,0C561.453,74.11,561.453,73.581,561.453,73.031z"/>
</g>
</svg>
