<?xml version="1.0" encoding="utf-8"?>
<!-- Generator: Adobe Illustrator 17.0.0, SVG Export Plug-In . SVG Version: 6.00 Build 0)  -->
<!DOCTYPE svg PUBLIC "-//W3C//DTD SVG 1.1//EN" "http://www.w3.org/Graphics/SVG/1.1/DTD/svg11.dtd">
<svg version="1.1" id="Layer_1" xmlns="http://www.w3.org/2000/svg" xmlns:xlink="http://www.w3.org/1999/xlink" x="0px" y="0px"
	 width="512px" height="512px" viewBox="0 0 512 512" enable-background="new 0 0 512 512" xml:space="preserve">
<g>
	<line fill="none" stroke="#B35047" x1="32" y1="0" x2="32" y2="512"/>
	<line fill="none" stroke="#B35047" x1="64" y1="0" x2="64" y2="512"/>
	<line fill="none" stroke="#B35047" x1="96" y1="0" x2="96" y2="512"/>
	<line fill="none" stroke="#B35047" x1="128" y1="0" x2="128" y2="512"/>
	<line fill="none" stroke="#B35047" x1="160" y1="0" x2="160" y2="512"/>
	<line fill="none" stroke="#B35047" x1="192" y1="0" x2="192" y2="512"/>
	<line fill="none" stroke="#B35047" x1="224" y1="0" x2="224" y2="512"/>
	<line fill="none" stroke="#B35047" x1="256" y1="0" x2="256" y2="512"/>
	<line fill="none" stroke="#B35047" x1="288" y1="0" x2="288" y2="512"/>
	<line fill="none" stroke="#B35047" x1="320" y1="0" x2="320" y2="512"/>
	<line fill="none" stroke="#B35047" x1="352" y1="0" x2="352" y2="512"/>
	<line fill="none" stroke="#B35047" x1="384" y1="0" x2="384" y2="512"/>
	<line fill="none" stroke="#B35047" x1="416" y1="0" x2="416" y2="512"/>
	<line fill="none" stroke="#B35047" x1="448" y1="0" x2="448" y2="512"/>
	<line fill="none" stroke="#B35047" x1="480" y1="0" x2="480" y2="512"/>
	<line fill="none" stroke="#B35047" x1="0" y1="32" x2="512" y2="32"/>
	<line fill="none" stroke="#B35047" x1="0" y1="64" x2="512" y2="64"/>
	<line fill="none" stroke="#B35047" x1="0" y1="96" x2="512" y2="96"/>
	<line fill="none" stroke="#B35047" x1="0" y1="128" x2="512" y2="128"/>
	<line fill="none" stroke="#B35047" x1="0" y1="160" x2="512" y2="160"/>
	<line fill="none" stroke="#B35047" x1="0" y1="192" x2="512" y2="192"/>
	<line fill="none" stroke="#B35047" x1="0" y1="224" x2="512" y2="224"/>
	<line fill="none" stroke="#B35047" x1="0" y1="256" x2="512" y2="256"/>
	<line fill="none" stroke="#B35047" x1="0" y1="288" x2="512" y2="288"/>
	<line fill="none" stroke="#B35047" x1="0" y1="320" x2="512" y2="320"/>
	<line fill="none" stroke="#B35047" x1="0" y1="352" x2="512" y2="352"/>
	<line fill="none" stroke="#B35047" x1="0" y1="384" x2="512" y2="384"/>
	<line fill="none" stroke="#B35047" x1="0" y1="416" x2="512" y2="416"/>
	<line fill="none" stroke="#B35047" x1="0" y1="448" x2="512" y2="448"/>
	<line fill="none" stroke="#B35047" x1="0" y1="480" x2="512" y2="480"/>
	<rect x="0" fill="none" stroke="#B35047" width="512" height="512"/>
</g>
<image display="none" overflow="visible" width="512" height="512" xlink:href="../../../Knowledge/Icon/[+++++] (Full) Windows 8 Icons [icons8]/Printed_Matter/book/book-512.png"  transform="matrix(0.0406 0 0 0.0406 601 57)">
</image>
<g>
	<path d="M511,154.439c0,75.371,0,150.742,0,226.113c-0.314,1.442-0.808,2.87-0.915,4.327c-3.097,42.299-30.212,71.93-69.662,82.584
		c-16.936,4.574-34.111,4.46-51.327,4.473c-92.917,0.071-185.834,0.182-278.749-0.141c-12.643-0.044-25.651-0.97-37.847-4.041
		c-36.21-9.116-60.163-31.368-68.506-68.696C2.846,393.919,1.991,388.715,1,383.54C1,274.302,1,165.064,1,55.826
		C5.659,43.09,15.447,39.946,28.047,39.987c76.811,0.249,153.624,0.112,230.436,0.131c24.717,0.006,49.433,0.089,74.15,0.145
		c12.49,0.028,20.694,7.528,21.2,20.069c0.381,9.438,0.017,18.906-0.009,28.36c-0.009,3.253-0.001,6.506-0.001,10.106
		c10.899,0,21.005-0.088,31.11,0.017c24.862,0.258,49.779-0.322,74.566,1.196c21.635,1.325,37.089,13.379,45.411,33.561
		C507.655,140.233,509.009,147.467,511,154.439z M314.933,79.776c-91.816,0-182.896,0-274.638,0c0,2.471,0,4.749,0,7.026
		c0,91.455-0.009,182.911,0.019,274.366c0.002,6.968-0.159,13.977,0.507,20.894c1.25,12.982,5.276,24.952,15.16,34.151
		c12.44,11.577,27.754,16.131,44.203,16.184c75.521,0.244,151.042,0.11,226.564,0.099c1.582,0,3.164-0.154,4.717-0.234
		c0-0.688,0.125-1.081-0.018-1.293c-13.244-19.695-16.576-41.846-16.553-64.976c0.095-93.115,0.039-186.231,0.039-279.346
		C314.933,84.517,314.933,82.388,314.933,79.776z M397.1,137.636c-12.75,0-24.678-0.003-36.605,0.001
		c-6.664,0.002-6.671,0.007-6.672,6.817c-0.002,72.045-0.022,144.09,0.03,216.135c0.005,7.461,0.02,14.966,0.777,22.374
		c1.771,17.327,9.314,31.397,24.911,40.152c20.705,11.622,41.97,12.408,63.377,2.069c15.01-7.249,24.465-19.154,27.227-35.715
		c1.221-7.322,1.811-14.832,1.826-22.258c0.134-67.895,0.092-135.79,0.039-203.685c-0.002-3.13-0.245-6.343-0.973-9.373
		c-1.787-7.435-5.08-13.692-13.545-15.447c-13.049-2.704-21.823,2.951-24.392,16.056c-0.569,2.905-0.775,5.924-0.777,8.89
		c-0.043,61.919-0.03,123.838-0.041,185.757c0,2.322,0.059,4.665-0.212,6.962c-1.413,11.968-13.473,19.714-24.847,16.035
		c-9.052-2.928-13.693-10.033-13.698-21.205c-0.019-50.963-0.237-101.927,0.105-152.887
		C393.764,178.337,391.146,158.166,397.1,137.636z"/>
	<path display="none" fill="#FFFFFF" d="M621.841,63.297c-0.081-0.284-0.136-0.579-0.248-0.851c-0.339-0.823-0.97-1.315-1.852-1.369
		c-1.011-0.062-2.027-0.038-3.041-0.049c-0.412-0.004-0.824-0.001-1.269-0.001c0-0.147,0-0.279,0-0.412
		c0.001-0.386,0.016-0.772,0-1.157c-0.021-0.511-0.355-0.817-0.865-0.818c-1.008-0.002-2.016-0.006-3.024-0.006
		c-3.133-0.001-6.266,0.005-9.398-0.005c-0.514-0.002-0.913,0.127-1.103,0.646c0-0.744,0-1.489,0-2.232c6.933,0,13.867,0,20.8,0
		C621.841,59.129,621.841,61.213,621.841,63.297z"/>
	<path display="none" fill="#FFFFFF" d="M601.041,72.641c0.04,0.211,0.075,0.423,0.122,0.633c0.34,1.522,1.317,2.43,2.794,2.802
		c0.497,0.125,1.028,0.163,1.544,0.165c3.789,0.013,7.579,0.009,11.369,0.006c0.702-0.001,1.403,0.004,2.093-0.182
		c1.609-0.435,2.715-1.643,2.841-3.368c0.004-0.059,0.025-0.118,0.037-0.176c0,1.774,0,3.548,0,5.322c-6.933,0-13.867,0-20.8,0
		C601.041,76.107,601.041,74.374,601.041,72.641z"/>
	<path display="none" fill="#FFFFFF" d="M613.844,60.252c0,0.107,0,0.193,0,0.28c0,3.798,0.002,7.595-0.002,11.393
		c-0.001,0.943,0.135,1.847,0.675,2.65c0.006,0.009,0.001,0.025,0.001,0.053c-0.063,0.003-0.128,0.01-0.192,0.01
		c-3.08,0-6.16,0.006-9.24-0.004c-0.671-0.002-1.295-0.188-1.803-0.66c-0.403-0.375-0.567-0.863-0.618-1.393
		c-0.027-0.282-0.021-0.568-0.021-0.852c-0.001-3.73-0.001-7.46-0.001-11.19c0-0.093,0-0.186,0-0.287
		C606.385,60.252,610.099,60.252,613.844,60.252z M608.25,65.037c1.3,0,2.6,0.002,3.899-0.001c0.554-0.001,0.875-0.317,0.879-0.864
		c0.004-0.487,0.004-0.975,0-1.462c-0.004-0.548-0.323-0.865-0.878-0.865c-2.606-0.002-5.213-0.002-7.819,0
		c-0.559,0-0.883,0.327-0.887,0.884c-0.003,0.454-0.001,0.907,0,1.361c0.001,0.637,0.31,0.947,0.947,0.947
		C605.677,65.037,606.963,65.037,608.25,65.037z M610.625,68.216c0,0.007,0,0.014,0,0.021c0.44,0,0.879,0.003,1.319-0.001
		c0.155-0.001,0.312-0.007,0.464-0.033c0.454-0.078,0.737-0.598,0.568-1.028c-0.141-0.359-0.414-0.528-0.868-0.529
		c-0.974-0.002-1.948-0.001-2.921,0c-0.087,0-0.175,0.012-0.262,0.025c-0.389,0.059-0.665,0.373-0.662,0.749
		c0.003,0.431,0.262,0.766,0.68,0.788C609.502,68.238,610.064,68.216,610.625,68.216z M610.63,70.614c0,0.008,0,0.016,0,0.023
		c0.507,0,1.015,0.007,1.522-0.002c0.676-0.012,1.066-0.588,0.782-1.158c-0.163-0.326-0.461-0.434-0.809-0.434
		c-0.987,0.001-1.975,0-2.962,0.001c-0.074,0-0.148,0.011-0.222,0.021c-0.393,0.056-0.675,0.364-0.678,0.737
		c-0.003,0.431,0.249,0.776,0.666,0.802C609.494,70.64,610.063,70.614,610.63,70.614z M610.658,71.451c-0.507,0-1.014,0-1.521,0
		c-0.251,0-0.484,0.054-0.661,0.249c-0.226,0.249-0.276,0.536-0.152,0.846c0.134,0.334,0.41,0.484,0.75,0.488
		c1.041,0.01,2.083,0.013,3.124,0c0.488-0.006,0.822-0.34,0.825-0.77c0.003-0.478-0.324-0.801-0.842-0.81
		C611.673,71.444,611.165,71.451,610.658,71.451z M605.431,68.215c0-0.002,0-0.003,0-0.005c0.446,0,0.893,0.024,1.336-0.007
		c0.385-0.027,0.653-0.37,0.651-0.753c-0.003-0.414-0.267-0.758-0.672-0.776c-0.763-0.033-1.527-0.023-2.291-0.028
		c-0.114-0.001-0.23,0.01-0.343,0.027c-0.37,0.056-0.658,0.383-0.656,0.738c0.002,0.425,0.269,0.769,0.677,0.797
		C604.565,68.238,604.999,68.215,605.431,68.215z M605.415,70.613c0-0.002,0-0.003,0-0.005c0.452,0,0.907,0.026,1.356-0.008
		c0.396-0.029,0.654-0.373,0.647-0.775c-0.007-0.396-0.284-0.74-0.674-0.754c-0.77-0.028-1.541-0.021-2.312-0.025
		c-0.101-0.001-0.203,0.009-0.303,0.023c-0.373,0.054-0.665,0.37-0.673,0.725c-0.009,0.419,0.258,0.779,0.663,0.811
		C604.548,70.639,604.983,70.613,605.415,70.613z M605.66,71.457c0-0.002,0-0.004,0-0.007c-0.311,0-0.622-0.001-0.933,0
		c-0.244,0.001-0.472,0.054-0.644,0.241c-0.23,0.251-0.297,0.537-0.158,0.859c0.147,0.339,0.426,0.479,0.774,0.484
		c0.622,0.009,1.243,0.007,1.865,0.001c0.241-0.002,0.469-0.063,0.64-0.251c0.22-0.241,0.28-0.521,0.163-0.825
		c-0.12-0.313-0.36-0.487-0.695-0.499C606.336,71.447,605.997,71.457,605.66,71.457z"/>
	<path display="none" fill="#FFFFFF" d="M617.195,62.612c-0.243,0.837-0.136,1.66-0.142,2.475c-0.014,2.078-0.005,4.157-0.004,6.235
		c0,0.456,0.189,0.745,0.559,0.865c0.464,0.15,0.956-0.166,1.013-0.654c0.011-0.094,0.009-0.189,0.009-0.284
		c0-2.525,0-5.051,0.002-7.576c0-0.121,0.008-0.244,0.032-0.363c0.105-0.534,0.463-0.765,0.995-0.655
		c0.345,0.072,0.48,0.327,0.552,0.63c0.03,0.124,0.04,0.255,0.04,0.382c0.002,2.769,0.004,5.538-0.002,8.307
		c-0.001,0.303-0.025,0.609-0.074,0.908c-0.113,0.675-0.498,1.161-1.11,1.457c-0.873,0.422-1.74,0.39-2.585-0.084
		c-0.636-0.357-0.944-0.931-1.016-1.638c-0.031-0.302-0.031-0.608-0.032-0.912c-0.002-2.938-0.001-5.877-0.001-8.815
		c0-0.278,0-0.278,0.272-0.278C616.189,62.611,616.675,62.612,617.195,62.612z"/>
	<path d="M177.761,197.107c-31.538,0.001-63.075,0.009-94.613-0.003c-15.613-0.006-23.197-7.601-23.213-23.216
		c-0.012-11.121-0.056-22.243,0.012-33.363c0.083-13.655,8.023-21.673,21.739-21.684c63.905-0.053,127.81-0.053,191.715,0.001
		c13.617,0.011,21.419,7.777,21.524,21.217c0.094,11.95,0.095,23.903-0.001,35.853c-0.108,13.406-7.971,21.153-21.555,21.177
		C241.5,197.144,209.631,197.106,177.761,197.107z"/>
	<path d="M236.005,275.047c-13.749,0-27.527,0.552-41.236-0.181c-10.263-0.549-16.606-8.758-16.677-19.325
		c-0.062-9.233,6.703-16.923,16.233-18.373c2.121-0.323,4.274-0.615,6.412-0.619c23.877-0.043,47.753-0.059,71.63-0.012
		c11.117,0.022,17.81,4.179,21.273,12.978c4.149,10.542-2.798,23.293-13.931,25.208c-3.728,0.641-7.575,0.767-11.37,0.803
		c-10.777,0.102-21.555,0.036-32.333,0.036C236.006,275.39,236.006,275.219,236.005,275.047z"/>
	<path d="M236.123,333.86c-13.912,0-27.862,0.629-41.724-0.208c-10.205-0.616-16.404-9.082-16.32-19.653
		c0.072-9.15,6.986-16.687,16.618-18.069c1.8-0.258,3.621-0.522,5.433-0.525c24.21-0.034,48.42-0.011,72.63-0.028
		c8.537-0.006,15.836,2.628,19.838,10.63c6.982,13.96-2.58,28.091-19.165,28.382c-12.433,0.218-24.873,0.043-37.309,0.043
		C236.124,334.241,236.124,334.051,236.123,333.86z"/>
	<path d="M236.815,354.365c12.435,0.004,24.872-0.163,37.303,0.051c12.704,0.219,20.73,8.12,20.647,19.849
		c-0.075,10.54-8.25,18.722-20.22,18.88c-25.528,0.337-51.065,0.259-76.594,0.009c-8.339-0.082-15.105-3.774-18.386-11.961
		c-3.04-7.586-1.818-14.625,3.732-20.734c4.341-4.778,10.05-6.094,16.215-6.097C211.946,354.356,224.381,354.361,236.815,354.365z"
		/>
	<path d="M108.651,275.023c-10.601,0-21.24,0.564-31.791-0.163c-10.014-0.69-16.573-9.12-16.612-19.546
		c-0.032-8.703,7.033-16.721,16.097-18.095c2.771-0.42,5.599-0.683,8.399-0.665c18.728,0.116,37.474-0.113,56.176,0.685
		c9.917,0.423,16.402,8.857,16.465,19.015c0.058,9.403-6.509,17.807-15.96,18.467c-10.875,0.76-21.843,0.176-32.771,0.176
		C108.654,274.939,108.653,274.981,108.651,275.023z"/>
	<path d="M108.256,333.824c-10.598,0-21.246,0.642-31.779-0.186c-9.932-0.781-16.474-9.615-16.247-19.878
		c0.193-8.703,7.345-16.469,16.496-17.785c2.452-0.353,4.947-0.581,7.421-0.567c18.899,0.112,37.812-0.076,56.692,0.62
		c9.569,0.353,16.361,8.788,16.534,18.491c0.175,9.853-6.145,18.288-15.855,19.006c-11.03,0.816-22.167,0.189-33.257,0.189
		C108.259,333.75,108.258,333.787,108.256,333.824z"/>
	<path d="M114.256,354.522c8.283,0,16.575-0.249,24.845,0.07c8.197,0.317,14.085,4.565,17.033,12.246
		c2.861,7.452,1.396,14.308-4.002,20.222c-4.205,4.607-9.785,6.099-15.702,6.154c-15.243,0.141-30.491,0.21-45.732-0.019
		c-8.523-0.128-15.379-3.54-18.973-11.862c-3.405-7.885-1.754-14.897,3.878-21.054c4.205-4.598,9.796-5.899,15.786-5.912
		c7.622-0.017,15.244-0.004,22.867-0.004C114.256,354.415,114.256,354.469,114.256,354.522z"/>
</g>
<g display="none">
	<path display="inline" d="M350.716,511c-2.324,0-4.648,0-6.973,0c-1.092-0.312-2.165-0.79-3.278-0.913
		c-27.514-3.04-55.087-5.615-82.536-9.157c-37.995-4.903-75.508-12.393-112.37-22.985c-29.246-8.404-57.713-18.689-83.677-34.883
		c-18.838-11.75-35.18-26.081-45.207-46.442c-2.099-4.263-3.763-8.741-5.627-13.12c0-14.277,0-28.555,0-42.832
		c2.057-4.111,4.058-8.251,6.179-12.329C63.639,239.11,110.125,149.92,156.404,60.623c5.296-10.219,12.694-14.815,24.304-13.911
		c31.82,2.477,63.6,1.901,95.365-1.632C326.688,39.449,374.503,24.957,419.447,1c2.324,0,4.648,0,6.973,0
		c4.133,2.886,9.122,5.067,12.206,8.815c5.235,6.361,4.247,13.874,1.056,21.161c-9.239,21.1-18.414,42.228-27.6,63.352
		c-0.687,1.579-1.258,3.208-2.491,6.374c14.211,1.044,27.364,2.376,40.549,2.888c17.166,0.666,26.076,14.379,18.842,29.917
		c-4.897,10.518-10.026,20.927-15.049,31.386c-1.623,3.379-3.237,6.762-5.008,10.46c1.488,0.47,2.381,0.921,3.312,1.02
		c9.714,1.041,19.415,2.303,29.157,2.953c11.409,0.761,20.21,9.242,19.519,20.191c-0.252,4.002-1.76,8.096-3.438,11.812
		c-42.699,94.549-85.552,189.028-128.183,283.608C365.45,503.462,360.007,509.223,350.716,511z M60.442,329.708
		c2.18,0.419,3.9,0.887,5.649,1.065c21.773,2.214,43.51,5.031,65.337,6.411c30.171,1.908,60.382,1.731,90.323-3.444
		c16.39-2.833,32.558-6.614,46.77-15.79c2.84-1.834,5.528-4.832,6.878-7.91c35.401-80.741,70.617-161.562,105.857-242.373
		c1.036-2.376,1.987-4.789,3.283-7.925c-2.265,0.669-3.785,1.146-5.321,1.567c-19.955,5.462-39.708,11.877-59.912,16.171
		c-41.751,8.873-84.134,11.132-126.731,8.963c-4.336-0.221-6.38,1.111-8.333,4.881c-39.431,76.096-79.008,152.116-118.552,228.154
		C64.016,322.693,62.379,325.928,60.442,329.708z M394.014,135.893c-0.807,1.791-1.702,3.719-2.552,5.668
		c-27.612,63.34-55.142,126.716-82.983,189.956c-2.11,4.793-5.688,9.64-9.879,12.667c-8.004,5.78-16.56,11.128-25.565,15.128
		c-26.771,11.891-55.424,15.405-84.334,17.05c-30.384,1.729-60.7,0.328-90.956-2.708c-4.243-0.426-8.496-0.755-12.744-1.129
		c1.531,1.639,3.166,2.373,4.843,2.994c28.024,10.37,57.25,15.395,86.742,18.862c38.443,4.52,77.071,5.885,115.772,5.561
		c3.984-0.033,6.083-1.092,7.893-4.873c39.576-82.661,79.319-165.243,119.021-247.845c0.847-1.761,1.591-3.572,2.547-5.732
		C412.584,139.632,403.719,137.847,394.014,135.893z M105.548,421.264c-0.084,0.249-0.167,0.498-0.251,0.747
		c0.833,0.458,1.625,1.023,2.505,1.359c11.139,4.26,22.114,9.047,33.468,12.63c62.018,19.573,125.998,28.428,190.495,34.429
		c4.394,0.409,6.314-0.797,8.112-4.789c34.655-76.924,69.478-153.772,104.26-230.639c2.773-6.129,5.494-12.281,8.412-18.811
		c-5.542-1.179-10.71-1.762-15.491-3.445c-4.616-1.625-6.255,0.046-8.137,3.979c-33.059,69.085-66.322,138.072-99.376,207.16
		c-4.658,9.735-11.637,14.776-22.555,14.655c-19.581-0.216-39.175,0.21-58.747-0.291c-41.512-1.061-82.816-4.452-123.583-12.824
		C118.274,424.113,111.918,422.654,105.548,421.264z"/>
	<path fill="#FFFFFF" d="M614.894,77.841c0.379-0.072,0.601-0.307,0.758-0.655c1.739-3.857,3.486-7.711,5.228-11.567
		c0.068-0.152,0.13-0.319,0.14-0.482c0.028-0.447-0.331-0.792-0.796-0.823c-0.397-0.027-0.793-0.078-1.189-0.12
		c-0.038-0.004-0.074-0.022-0.135-0.042c0.072-0.151,0.138-0.289,0.204-0.427c0.205-0.427,0.414-0.851,0.614-1.28
		c0.295-0.634-0.068-1.193-0.768-1.22c-0.538-0.021-1.074-0.075-1.654-0.118c0.05-0.129,0.074-0.196,0.102-0.26
		c0.375-0.862,0.749-1.723,1.126-2.584c0.13-0.297,0.17-0.604-0.043-0.863c-0.126-0.153-0.329-0.242-0.498-0.36
		c1.286,0,2.571,0,3.857,0c0,6.933,0,13.867,0,20.8C619.522,77.841,617.208,77.841,614.894,77.841z"/>
	<path fill="#FFFFFF" d="M617.697,57.041c-1.833,0.977-3.783,1.568-5.847,1.798c-1.295,0.144-2.592,0.168-3.889,0.067
		c-0.474-0.037-0.775,0.151-0.991,0.567c-1.888,3.642-3.783,7.279-5.676,10.919c-0.087,0.166-0.168,0.335-0.252,0.503
		c0-4.615,0-9.229,0-13.853C606.593,57.041,612.145,57.041,617.697,57.041z"/>
	<path fill="#FFFFFF" d="M601.041,72.641c0.076,0.179,0.144,0.361,0.229,0.535c0.409,0.83,1.075,1.415,1.844,1.894
		c1.059,0.66,2.22,1.08,3.413,1.423c1.503,0.432,3.033,0.737,4.583,0.937c1.119,0.144,2.244,0.249,3.366,0.373
		c0.045,0.005,0.089,0.024,0.134,0.037c-4.518,0-9.036,0-13.569,0C601.041,76.107,601.041,74.374,601.041,72.641z"/>
	<path fill="#FFFFFF" d="M603.055,70.447c0.079-0.154,0.146-0.286,0.214-0.417c1.613-3.101,3.227-6.202,4.835-9.305
		c0.08-0.154,0.163-0.208,0.34-0.199c1.737,0.088,3.466-0.004,5.169-0.366c0.824-0.175,1.63-0.437,2.443-0.66
		c0.063-0.017,0.125-0.037,0.217-0.064c-0.053,0.128-0.092,0.226-0.134,0.323c-1.437,3.296-2.873,6.592-4.317,9.885
		c-0.055,0.126-0.165,0.248-0.28,0.323c-0.58,0.374-1.239,0.528-1.907,0.644c-1.221,0.211-2.453,0.218-3.684,0.14
		c-0.89-0.056-1.777-0.171-2.665-0.261C603.214,70.483,603.144,70.464,603.055,70.447z M606.112,67.303
		c0.054,0.01,0.085,0.019,0.117,0.021c1.005,0.09,2.012,0.146,3.018,0.025c0.765-0.092,1.502-0.286,2.148-0.73
		c0.494-0.339,0.808-0.811,0.9-1.405c0.058-0.375-0.114-0.551-0.498-0.574c-0.196-0.012-0.395-0.007-0.585-0.05
		c-0.133-0.03-0.342-0.112-0.355-0.197c-0.022-0.136,0.087-0.294,0.148-0.44c0.014-0.033,0.059-0.055,0.093-0.076
		c0.496-0.293,0.694-0.777,0.812-1.302c0.094-0.416-0.052-0.776-0.388-0.94c-0.538-0.261-1.089-0.246-1.62,0.022
		c-0.402,0.203-0.572,0.592-0.732,0.986c-0.15,0.369-0.102,0.697,0.146,1.004c0.039,0.048,0.086,0.128,0.071,0.176
		c-0.079,0.253-0.168,0.508-0.472,0.582c-0.203,0.05-0.409,0.09-0.609,0.152c-0.497,0.153-0.925,0.389-1.176,0.887
		c-0.258,0.513-0.554,1.006-0.833,1.508C606.237,67.067,606.178,67.179,606.112,67.303z M604.986,69.669
		c0.374,0.093,0.721,0.164,0.984-0.2c0.038-0.052,0.1-0.092,0.157-0.125c0.358-0.204,0.553-0.131,0.684,0.251
		c0.084,0.245,0.3,0.298,0.487,0.115c0.096-0.094,0.17-0.212,0.272-0.3c0.23-0.198,0.487-0.137,0.594,0.138
		c0.058,0.149,0.169,0.236,0.311,0.195c0.146-0.042,0.295-0.123,0.408-0.226c0.158-0.145,0.273-0.337,0.426-0.488
		c0.182-0.18,0.296-0.162,0.451,0.037c0.258,0.331,0.693,0.371,0.917,0.024c0.286-0.443,0.496-0.934,0.739-1.405
		c-0.015-0.011-0.029-0.022-0.044-0.033c-0.358,0.218-0.794,0.292-1.086,0.635c-0.12,0.141-0.312,0.108-0.335-0.042
		c-0.029-0.192-0.139-0.186-0.275-0.163c-0.113,0.02-0.225,0.05-0.339,0.064c-0.278,0.033-0.474,0.166-0.598,0.423
		c-0.051,0.106-0.136,0.209-0.232,0.275c-0.064,0.044-0.188,0.049-0.259,0.015c-0.055-0.026-0.08-0.135-0.101-0.211
		c-0.014-0.049-0.002-0.108,0.005-0.161c0.018-0.156-0.061-0.223-0.206-0.238c-0.293-0.03-0.503,0.078-0.656,0.338
		c-0.089,0.152-0.209,0.305-0.353,0.402c-0.187,0.125-0.372,0.009-0.375-0.219c-0.001-0.124,0.045-0.249,0.071-0.374
		c0.02-0.097,0.04-0.198-0.097-0.221c-0.193-0.033-0.387-0.077-0.58-0.077c-0.088,0-0.217,0.073-0.258,0.149
		C605.451,68.711,605.225,69.185,604.986,69.669z"/>
	<path fill="#FFFFFF" d="M616.66,62.542c0.396,0.08,0.757,0.152,1.134,0.228c-0.039,0.088-0.069,0.162-0.104,0.234
		c-1.619,3.369-3.24,6.737-4.854,10.108c-0.074,0.154-0.159,0.197-0.322,0.199c-1.578,0.013-3.154-0.042-4.722-0.227
		c-1.203-0.141-2.395-0.346-3.538-0.769c-0.068-0.025-0.135-0.055-0.197-0.122c0.173,0.015,0.347,0.029,0.52,0.046
		c1.234,0.124,2.47,0.181,3.71,0.11c1.179-0.067,2.348-0.21,3.44-0.695c0.367-0.163,0.716-0.381,1.043-0.617
		c0.171-0.123,0.317-0.321,0.403-0.517c1.135-2.579,2.258-5.164,3.384-7.747C616.59,62.694,616.627,62.615,616.66,62.542z"/>
	<path fill="#FFFFFF" d="M604.895,74.181c0.26,0.057,0.519,0.116,0.779,0.17c1.663,0.341,3.347,0.48,5.04,0.523
		c0.798,0.02,1.597,0.003,2.396,0.012c0.445,0.005,0.73-0.201,0.92-0.598c1.348-2.818,2.705-5.631,4.053-8.449
		c0.077-0.16,0.144-0.229,0.332-0.162c0.195,0.069,0.406,0.092,0.632,0.141c-0.119,0.266-0.23,0.517-0.343,0.767
		c-1.419,3.135-2.839,6.269-4.252,9.406c-0.073,0.163-0.152,0.212-0.331,0.195c-2.63-0.245-5.24-0.606-7.769-1.404
		c-0.463-0.146-0.911-0.341-1.365-0.515c-0.036-0.014-0.068-0.037-0.102-0.055C604.888,74.201,604.891,74.191,604.895,74.181z"/>
	<path display="inline" d="M135.387,252.636c1.63-3.043,3.061-5.801,4.569-8.516c6.836-12.316,14.098-24.417,20.428-36.987
		c6.149-12.209,16.648-17.993,28.84-21.748c4.896-1.508,9.952-2.493,14.935-3.718c7.447-1.83,9.623-8.076,11.572-14.28
		c0.363-1.157-0.783-3.122-1.739-4.304c-6.091-7.536-7.257-15.583-3.586-24.623c3.924-9.664,8.094-19.21,17.941-24.181
		c13.018-6.572,26.538-6.95,39.722-0.545c8.235,4.001,11.803,12.844,9.51,23.039c-2.893,12.86-7.75,24.729-19.918,31.921
		c-0.848,0.501-1.95,1.053-2.288,1.854c-1.508,3.566-4.166,7.454-3.632,10.779c0.334,2.076,5.448,4.089,8.71,4.821
		c4.635,1.041,9.538,0.935,14.332,1.219c9.412,0.558,13.648,4.866,12.215,14.068c-2.269,14.57-9.957,26.122-22.078,34.444
		c-15.835,10.872-33.912,15.639-52.67,17.895c-24.661,2.966-49.341,1.596-73.988-0.614
		C137.475,253.089,136.7,252.88,135.387,252.636z"/>
	<path display="inline" d="M107.776,310.628c5.859-11.845,11.412-23.49,17.457-34.873c0.999-1.88,4.16-3.661,6.32-3.66
		c4.746,0.003,9.505,1.095,14.232,1.899c3.357,0.571,2.864,3.041,2.371,5.424c-0.632,3.055-1.774,6.121-1.74,9.172
		c0.062,5.57,4.615,8.429,9.191,5.359c3.526-2.366,6.461-6.124,8.652-9.854c3.75-6.384,8.896-9.036,16.083-8.289
		c3.555,0.37,5.512,2.007,5.06,5.839c-0.155,1.315-0.457,2.743-0.114,3.956c0.532,1.879,1.126,4.552,2.486,5.184
		c1.751,0.813,4.799,0.693,6.359-0.379c2.351-1.615,4.426-4.146,5.679-6.74c3.042-6.297,7.856-9.562,14.66-10.38
		c2.789-0.335,5.527-1.075,8.302-1.557c3.338-0.581,6.051-0.706,6.752,3.991c0.55,3.681,5.276,4.48,8.212,1.029
		c7.167-8.424,17.855-10.229,26.626-15.575c0.357,0.272,0.713,0.543,1.07,0.815c-5.952,11.535-11.106,23.585-18.111,34.441
		c-5.482,8.495-16.144,7.517-22.476-0.59c-3.813-4.882-6.6-5.335-11.063-0.917c-3.755,3.718-6.568,8.415-10.447,11.969
		c-2.753,2.522-6.401,4.508-9.993,5.545c-3.486,1.006-6.198-1.13-7.619-4.786c-2.617-6.733-8.924-8.233-14.565-3.372
		c-2.486,2.143-4.302,5.043-6.665,7.352c-4.599,4.495-9.894,3.179-11.952-2.823c-3.21-9.359-8.003-11.147-16.774-6.155
		c-1.418,0.807-2.93,1.777-3.86,3.061C125.45,314.64,116.936,312.917,107.776,310.628z"/>
</g>
<g display="none">
	<path display="inline" d="M310.196,511c-2.001,0-4.001,0-6.002,0c-2.674-0.834-5.353-1.652-8.021-2.506
		c-76.539-24.501-153.044-49.109-229.642-73.425c-16.228-5.151-28.39-15.161-35.889-29.872
		c-14.215-27.885-15.34-56.161,1.005-83.893c1.447-2.455,0.792-3.932-0.193-6.248c-3.369-7.916-7.444-15.822-8.987-24.151
		c-1.923-10.377-2.068-21.167-2.152-31.785c-0.186-23.553,7.135-44.365,23.244-62.021c22.807-24.998,45.281-50.299,67.896-75.471
		C145.1,84.181,178.815,46.796,212.328,9.23c6.464-7.245,13.635-9.632,23.16-7.454C312.87,19.468,390.3,36.948,467.716,54.49
		c2.597,0.588,5.213,1.095,7.804,1.706c17.168,4.041,22.002,18.475,10.631,31.908c-58.8,69.464-117.665,138.873-176.372,208.415
		c-6.68,7.913-14.222,9.94-23.978,6.968c-53.163-16.192-106.383-32.194-159.586-48.257c-13.221-3.992-26.418-8.064-39.679-11.92
		c-12.35-3.591-23.087,1.803-25.991,13.345c-2.966,11.786-1.896,23.479,2.493,34.81c1.844,4.76,5.177,7.813,10.26,9.363
		c73.528,22.424,147.045,44.883,220.479,67.612c5.062,1.567,7.545,0.595,10.705-3.326c47.38-58.785,94.897-117.46,142.511-176.056
		c2.777-3.417,3.638-6.594,3.078-10.881c-1.634-12.506,0.483-24.685,5.424-36.135c5.782-13.4,24.313-14.905,32.919-3.128
		c4.591,6.282,3.934,12.936,2.522,20.04c-1.15,5.787-3.187,12.567-1.277,17.543c3.584,9.336,1.879,17.259-1.053,26.026
		c-8.378,25.056-9.662,50.369,0.649,75.216c4.348,10.477,3.038,18.988-4.113,27.663c-52.902,64.178-105.647,128.486-158.332,192.842
		C322.196,503.879,317.343,508.836,310.196,511z M443.077,255.942c-1.598,1.924-3.064,3.651-4.489,5.411
		c-37.962,46.882-75.915,93.772-113.884,140.648c-8.075,9.969-14.994,12.04-27.247,8.281
		c-75.228-23.077-150.472-46.105-225.65-69.344c-4.744-1.466-6.847-0.234-8.793,3.875c-4.82,10.178-4.783,20.607-2.214,31.234
		c2.717,11.234,8.597,19.129,20.416,22.859c71.55,22.575,142.99,45.5,214.412,68.479c3.734,1.201,5.623,0.425,7.937-2.427
		c16.172-19.926,32.51-39.718,48.793-59.555c31.718-38.643,63.455-77.271,95.077-115.993c1.254-1.536,2.283-4.141,1.928-5.956
		C447.611,274.516,445.356,265.677,443.077,255.942z M328.843,132.081c8.886,0.079,14.269-1.733,18.369-6.46
		c4.147-4.782,8.271-9.591,12.228-14.529c3.444-4.299,2.567-8.058-2.356-10.518c-1.762-0.881-3.712-1.46-5.636-1.935
		c-20.022-4.946-40.053-9.858-60.089-14.748c-20.198-4.93-40.425-9.745-60.6-14.767c-10.723-2.669-19.745-0.804-26.524,8.588
		c-2.042,2.829-4.474,5.377-6.734,8.047c-7.356,8.691-6.05,12.806,5.009,15.757c0.482,0.129,0.967,0.246,1.452,0.365
		c32.481,7.913,64.957,15.844,97.445,23.728C311.413,128.036,321.448,130.339,328.843,132.081z"/>
	<path fill="#FFFFFF" d="M613.634,77.841c0.29-0.088,0.487-0.289,0.675-0.518c2.14-2.614,4.281-5.225,6.43-7.831
		c0.29-0.352,0.344-0.698,0.167-1.123c-0.419-1.009-0.367-2.037-0.026-3.055c0.119-0.356,0.188-0.678,0.043-1.057
		c-0.078-0.202,0.005-0.477,0.052-0.712c0.057-0.288,0.084-0.559-0.102-0.814c-0.349-0.478-1.102-0.417-1.337,0.127
		c-0.201,0.465-0.287,0.96-0.22,1.467c0.023,0.174-0.012,0.303-0.125,0.442c-1.934,2.38-3.863,4.762-5.787,7.15
		c-0.128,0.159-0.229,0.199-0.435,0.135c-2.982-0.923-5.968-1.835-8.954-2.746c-0.206-0.063-0.342-0.187-0.417-0.38
		c-0.178-0.46-0.222-0.935-0.101-1.414c0.118-0.469,0.554-0.688,1.056-0.542c0.538,0.157,1.074,0.322,1.611,0.484
		c2.161,0.652,4.322,1.302,6.481,1.96c0.396,0.121,0.703,0.038,0.974-0.283c2.384-2.824,4.775-5.643,7.162-8.464
		c0.462-0.545,0.265-1.132-0.432-1.296c-0.105-0.025-0.211-0.045-0.317-0.069c-3.144-0.712-6.288-1.422-9.431-2.141
		c-0.387-0.088-0.678,0.008-0.94,0.303c-1.361,1.526-2.73,3.044-4.096,4.564c-0.918,1.022-1.831,2.05-2.757,3.065
		c-0.654,0.717-0.951,1.562-0.944,2.519c0.003,0.431,0.009,0.869,0.087,1.291c0.063,0.338,0.228,0.659,0.365,0.981
		c0.04,0.094,0.067,0.154,0.008,0.254c-0.664,1.126-0.618,2.274-0.041,3.407c0.305,0.597,0.798,1.004,1.457,1.213
		c3.111,0.987,6.217,1.987,9.326,2.982c0.108,0.035,0.217,0.068,0.326,0.102c-4.116,0-8.231,0-12.349,0c0-6.931,0-13.861,0-20.796
		c6.927,0,13.856,0,20.792,0c0,6.929,0,13.863,0,20.796C619.104,77.841,616.369,77.841,613.634,77.841z"/>
	<path fill="#FFFFFF" d="M619.031,67.483c0.093,0.395,0.184,0.754,0.255,1.117c0.014,0.074-0.027,0.18-0.078,0.242
		c-1.284,1.572-2.573,3.141-3.861,4.71c-0.661,0.806-1.325,1.609-1.981,2.418c-0.094,0.116-0.171,0.147-0.322,0.099
		c-2.9-0.933-5.802-1.864-8.707-2.781c-0.48-0.151-0.719-0.472-0.829-0.928c-0.104-0.432-0.106-0.855,0.09-1.268
		c0.079-0.167,0.164-0.217,0.357-0.157c3.053,0.944,6.109,1.879,9.164,2.816c0.498,0.153,0.779,0.069,1.107-0.336
		c1.542-1.904,3.083-3.808,4.625-5.712C618.906,67.631,618.966,67.561,619.031,67.483z"/>
	<path fill="#FFFFFF" d="M614.392,62.453c-0.3-0.071-0.708-0.164-1.114-0.263c-1.319-0.32-2.638-0.642-3.957-0.964
		c-0.02-0.005-0.039-0.01-0.059-0.015c-0.449-0.12-0.502-0.287-0.203-0.64c0.092-0.108,0.191-0.212,0.273-0.327
		c0.275-0.381,0.642-0.457,1.077-0.349c0.819,0.204,1.641,0.399,2.461,0.6c0.814,0.199,1.627,0.398,2.44,0.599
		c0.078,0.019,0.157,0.043,0.229,0.079c0.2,0.1,0.236,0.253,0.096,0.427c-0.161,0.201-0.328,0.396-0.497,0.59
		C614.971,62.382,614.753,62.456,614.392,62.453z"/>
</g>
<g display="none">
	<path fill="#FFFFFF" d="M612.334,77.841c-3.764,0-7.527,0-11.292,0c0-6.931,0-13.861,0-20.796c6.928,0,13.857,0,20.792,0
		c0,6.929,0,13.863,0,20.796c-3.11,0-6.223,0-9.337,0c0.086-0.014,0.172-0.026,0.257-0.041c0.272-0.048,0.547-0.083,0.814-0.149
		c0.496-0.124,0.907-0.417,1.307-0.718c1.628-1.224,3.245-2.461,4.878-3.679c0.351-0.262,0.488-0.573,0.487-1.002
		c-0.009-3.303-0.004-6.606-0.006-9.909c0-0.115-0.006-0.23-0.02-0.344c-0.039-0.312-0.218-0.517-0.504-0.629
		c-0.328-0.128-0.604-0.009-0.865,0.191c-1.425,1.089-2.848,2.179-4.279,3.26c-0.577,0.436-1.155,0.875-1.836,1.146
		c-0.456,0.182-0.92,0.316-1.42,0.266c-0.329-0.033-0.577-0.196-0.634-0.452c-0.074-0.338-0.052-0.665,0.215-0.925
		c0.14-0.136,0.286-0.271,0.445-0.382c1.065-0.743,2.135-1.48,3.204-2.218c0.053-0.037,0.11-0.069,0.164-0.102
		c0.294,0.406,0.619,0.547,0.969,0.431c0.383-0.127,0.558-0.412,0.559-0.907c0-0.305,0.009-0.61-0.004-0.914
		c-0.006-0.145-0.027-0.303-0.091-0.429c-0.24-0.477-0.749-0.581-1.221-0.256c-1.522,1.046-3.043,2.094-4.562,3.145
		c-0.144,0.1-0.28,0.214-0.41,0.332c-0.545,0.494-0.889,1.1-0.891,1.846c-0.01,3.344-0.005,6.688-0.004,10.031
		c0,0.412,0.128,0.786,0.376,1.115c0.468,0.619,1.118,0.948,1.851,1.125C611.622,77.755,611.981,77.786,612.334,77.841z
		 M608.289,59.292c0.024,0.033,0.049,0.057,0.063,0.087c0.16,0.328,0.564,0.468,0.856,0.398c0.351-0.084,0.59-0.347,0.614-0.738
		c0.023-0.391,0.034-0.787,0.004-1.177c-0.053-0.708-0.687-1.011-1.292-0.628c-1.566,0.991-3.13,1.987-4.693,2.983
		c-0.492,0.313-0.821,0.755-1.018,1.302c-0.169,0.467-0.183,0.947-0.182,1.438c0.009,3.074,0.014,6.148-0.001,9.221
		c-0.004,0.903,0.392,1.533,1.178,1.918c1.18,0.578,2.418,0.638,3.679,0.32c0.533-0.134,0.728-0.416,0.728-0.971
		c0-2.431-0.002-4.861,0.002-7.292c0.001-0.365,0.014-0.731,0.047-1.094c0.093-1.027,0.485-1.887,1.379-2.476
		c1.232-0.812,2.454-1.637,3.679-2.459c0.106-0.071,0.209-0.151,0.298-0.243c0.295-0.305,0.266-0.893-0.051-1.175
		c-0.311-0.276-0.681-0.285-1.079-0.022c-1.474,0.972-2.943,1.953-4.425,2.913c-0.669,0.434-1.353,0.846-2.049,1.235
		c-0.384,0.215-0.811,0.342-1.265,0.311c-0.28-0.019-0.413-0.133-0.485-0.405c-0.123-0.467,0.071-0.964,0.491-1.231
		c1.131-0.718,2.263-1.433,3.396-2.149C608.2,59.335,608.243,59.316,608.289,59.292z"/>
	<path display="inline" d="M277.954,511c-8.669-1.349-17.478-2.113-25.977-4.167c-17.988-4.346-33.964-12.426-45.443-27.625
		c-6.096-8.072-9.223-17.263-9.228-27.366c-0.038-82.09-0.147-164.181,0.095-246.27c0.054-18.292,8.487-33.172,21.877-45.308
		c3.194-2.895,6.528-5.692,10.069-8.141c37.292-25.79,74.614-51.537,111.988-77.209c11.608-7.974,24.096-5.415,29.985,6.284
		c1.567,3.114,2.068,6.984,2.224,10.543c0.327,7.464,0.105,14.951,0.1,22.429c-0.009,12.162-4.311,19.14-13.715,22.269
		c-8.589,2.857-16.563-0.607-23.788-10.578c-1.325,0.818-2.723,1.598-4.034,2.504c-26.236,18.127-52.497,36.217-78.65,54.463
		c-3.921,2.736-7.495,6.04-10.931,9.387c-6.539,6.372-7.096,14.409-5.268,22.7c1.387,6.293,7.479,10.284,15.561,11.093
		c12.267,1.229,23.666-2.073,34.855-6.531c16.719-6.661,30.909-17.444,45.075-28.139c35.132-26.526,70.081-53.294,105.06-80.023
		c6.414-4.902,13.17-7.831,21.233-4.691c7.04,2.742,11.434,7.79,12.38,15.443c0.345,2.792,0.502,5.626,0.503,8.441
		c0.026,81.093-0.074,162.187,0.136,243.279c0.027,10.521-3.327,18.165-11.952,24.593c-40.088,29.88-79.807,60.256-119.766,90.31
		c-9.819,7.385-19.912,14.579-32.092,17.629c-6.559,1.642-13.318,2.487-19.991,3.67c-2.099,0.372-4.21,0.676-6.315,1.01
		C280.614,511,279.284,511,277.954,511z M432.825,212.346c-1.652,1.067-2.362,1.453-2.992,1.942
		c-30.952,24.01-61.92,47.999-92.77,72.139c-1.398,1.094-2.387,3.533-2.441,5.379c-0.254,8.626-0.114,17.264-0.114,25.898
		c0,3.03,0,6.059,0,9.117c1.051-0.102,1.249-0.06,1.353-0.14c31.634-24.477,63.27-48.951,94.845-73.502
		c1.025-0.797,2.014-2.389,2.029-3.622C432.885,237.475,432.825,225.392,432.825,212.346z"/>
	<path display="inline" d="M178.644,55.629c-1.14,0.591-2.197,1.044-3.158,1.651c-27.797,17.571-55.607,35.123-83.362,52.76
		c-10.315,6.555-15.069,18.746-12.049,30.222c1.758,6.678,5.046,9.486,11.908,9.951c11.148,0.756,21.629-2.369,31.05-7.636
		c17.081-9.549,33.883-19.667,50.302-30.317c36.372-23.591,72.432-47.663,108.628-71.527c9.774-6.444,18.859-6.236,26.5,0.546
		c7.793,6.917,8.505,21.361,1.253,28.851c-2.174,2.245-4.706,4.215-7.309,5.961c-30.069,20.177-60.084,40.436-90.318,60.363
		c-21.945,14.464-31.576,35.577-33.846,60.785c-0.803,8.919-1.141,17.908-1.156,26.866c-0.098,59.671-0.048,119.342-0.053,179.013
		c-0.001,13.614-4.777,20.535-17.866,23.835c-30.948,7.802-61.344,6.333-90.316-7.868c-19.294-9.457-29.019-24.914-28.912-47.095
		c0.365-75.46,0.244-150.923,0.032-226.383c-0.034-12.05,0.317-23.848,4.47-35.311c4.859-13.411,12.925-24.265,25.004-31.958
		c38.384-24.448,76.761-48.906,115.217-73.24c14.857-9.401,30.421-1.951,31.717,15.419c0.715,9.578,0.467,19.285-0.109,28.888
		c-0.576,9.599-6.443,16.059-15.072,18.122c-7.163,1.712-17.083-1.71-21.009-9.773C179.838,57.033,179.237,56.433,178.644,55.629z"
		/>
	<path fill="#FFFFFF" d="M618.643,65.676c0,0.531,0.002,1.024-0.004,1.516c-0.001,0.05-0.041,0.115-0.083,0.148
		c-1.286,1-2.575,1.997-3.863,2.994c-0.004,0.003-0.012,0.002-0.055,0.006c0-0.125,0-0.248,0-0.371c0-0.352-0.006-0.704,0.005-1.055
		c0.002-0.075,0.043-0.175,0.099-0.219c1.257-0.983,2.518-1.96,3.779-2.938C618.547,65.735,618.575,65.719,618.643,65.676z"/>
</g>
</svg>
