<?xml version="1.0" encoding="utf-8"?>
<!-- Generator: Adobe Illustrator 17.0.0, SVG Export Plug-In . SVG Version: 6.00 Build 0)  -->
<!DOCTYPE svg PUBLIC "-//W3C//DTD SVG 1.1//EN" "http://www.w3.org/Graphics/SVG/1.1/DTD/svg11.dtd">
<svg version="1.1" id="Layer_1" xmlns="http://www.w3.org/2000/svg" xmlns:xlink="http://www.w3.org/1999/xlink" x="0px" y="0px"
	 width="512px" height="512px" viewBox="0 0 512 512" enable-background="new 0 0 512 512" xml:space="preserve">
<g>
	<line fill="none" stroke="#B35047" x1="32" y1="0" x2="32" y2="512"/>
	<line fill="none" stroke="#B35047" x1="64" y1="0" x2="64" y2="512"/>
	<line fill="none" stroke="#B35047" x1="96" y1="0" x2="96" y2="512"/>
	<line fill="none" stroke="#B35047" x1="128" y1="0" x2="128" y2="512"/>
	<line fill="none" stroke="#B35047" x1="160" y1="0" x2="160" y2="512"/>
	<line fill="none" stroke="#B35047" x1="192" y1="0" x2="192" y2="512"/>
	<line fill="none" stroke="#B35047" x1="224" y1="0" x2="224" y2="512"/>
	<line fill="none" stroke="#B35047" x1="256" y1="0" x2="256" y2="512"/>
	<line fill="none" stroke="#B35047" x1="288" y1="0" x2="288" y2="512"/>
	<line fill="none" stroke="#B35047" x1="320" y1="0" x2="320" y2="512"/>
	<line fill="none" stroke="#B35047" x1="352" y1="0" x2="352" y2="512"/>
	<line fill="none" stroke="#B35047" x1="384" y1="0" x2="384" y2="512"/>
	<line fill="none" stroke="#B35047" x1="416" y1="0" x2="416" y2="512"/>
	<line fill="none" stroke="#B35047" x1="448" y1="0" x2="448" y2="512"/>
	<line fill="none" stroke="#B35047" x1="480" y1="0" x2="480" y2="512"/>
	<line fill="none" stroke="#B35047" x1="0" y1="32" x2="512" y2="32"/>
	<line fill="none" stroke="#B35047" x1="0" y1="64" x2="512" y2="64"/>
	<line fill="none" stroke="#B35047" x1="0" y1="96" x2="512" y2="96"/>
	<line fill="none" stroke="#B35047" x1="0" y1="128" x2="512" y2="128"/>
	<line fill="none" stroke="#B35047" x1="0" y1="160" x2="512" y2="160"/>
	<line fill="none" stroke="#B35047" x1="0" y1="192" x2="512" y2="192"/>
	<line fill="none" stroke="#B35047" x1="0" y1="224" x2="512" y2="224"/>
	<line fill="none" stroke="#B35047" x1="0" y1="256" x2="512" y2="256"/>
	<line fill="none" stroke="#B35047" x1="0" y1="288" x2="512" y2="288"/>
	<line fill="none" stroke="#B35047" x1="0" y1="320" x2="512" y2="320"/>
	<line fill="none" stroke="#B35047" x1="0" y1="352" x2="512" y2="352"/>
	<line fill="none" stroke="#B35047" x1="0" y1="384" x2="512" y2="384"/>
	<line fill="none" stroke="#B35047" x1="0" y1="416" x2="512" y2="416"/>
	<line fill="none" stroke="#B35047" x1="0" y1="448" x2="512" y2="448"/>
	<line fill="none" stroke="#B35047" x1="0" y1="480" x2="512" y2="480"/>
	<rect x="0" fill="none" stroke="#B35047" width="512" height="512"/>
</g>
<g>
	<path display="none" fill="#FFFFFF" d="M673.042,112.841c0-6.931,0-13.862,0-20.796c6.928,0,13.857,0,20.793,0
		c0,6.93,0,13.863,0,20.796C686.906,112.841,679.975,112.841,673.042,112.841z M690.671,104.432
		c-0.693-0.284-1.382-0.362-2.094-0.288c-1.326,0.137-2.445,0.673-3.285,1.721c-0.5,0.624-0.768,1.342-0.645,2.153
		c0.157,1.027,0.815,1.65,1.755,1.964c1.516,0.505,2.945,0.239,4.247-0.652c1.069-0.732,1.608-1.736,1.598-3.075
		c-0.03-4.149-0.011-8.299-0.012-12.449c0-0.149-0.006-0.298-0.019-0.446c-0.054-0.614-0.432-1.052-1.033-1.203
		c-0.325-0.081-0.647-0.046-0.96,0.049c-2.928,0.893-5.854,1.79-8.781,2.683c-1.158,0.353-2.001,1.486-1.989,2.736
		c0.028,2.965,0.009,5.93,0.009,8.895c0,0.077,0,0.154,0,0.247c-0.153-0.054-0.271-0.105-0.393-0.138
		c-0.809-0.219-1.613-0.151-2.402,0.085c-1.192,0.357-2.16,1.026-2.761,2.144c-0.756,1.404-0.239,2.873,1.229,3.487
		c0.972,0.407,1.971,0.37,2.963,0.081c1.395-0.405,3.008-1.625,2.94-3.837c-0.076-2.455-0.019-4.914-0.014-7.371
		c0-0.179,0.015-0.372,0.081-0.534c0.171-0.418,0.525-0.64,0.94-0.771c2.03-0.638,4.061-1.274,6.093-1.91
		c0.58-0.182,1.158-0.374,1.743-0.536c0.5-0.138,0.785,0.097,0.79,0.614c0,0.034,0,0.068,0,0.102c0,1.997,0,3.994,0,5.991
		C690.671,104.248,690.671,104.322,690.671,104.432z"/>
	<path d="M448.899,306.973c0-2.738,0-4.576,0-6.414c0-49.596,0-99.191,0-148.787c0-0.841,0.005-1.681-0.003-2.522
		c-0.123-12.831-7.201-18.674-19.614-15.242c-14.548,4.022-28.889,8.796-43.3,13.307c-50.443,15.791-100.886,31.583-151.31,47.436
		c-10.305,3.24-19.1,8.769-23.35,19.145c-1.652,4.033-2.01,8.821-2.019,13.268c-0.124,61.028-1.545,122.101,0.349,183.07
		c1.707,54.935-38.366,85.237-73.003,95.295c-24.65,7.158-49.452,8.083-73.588-2.02c-36.461-15.263-49.3-51.727-30.53-86.605
		c14.938-27.757,38.966-44.385,68.576-53.243c19.577-5.857,39.56-7.559,59.645-2.11c3.04,0.825,5.963,2.082,9.762,3.431
		c0-2.307,0-4.219,0-6.131c0-73.637,0.469-147.278-0.222-220.908c-0.291-31.035,20.634-59.175,49.405-67.951
		c72.707-22.178,145.379-44.468,218.087-66.64c7.79-2.376,15.788-3.246,23.851-1.228c14.925,3.736,24.3,14.631,25.644,29.875
		c0.324,3.678,0.472,7.383,0.473,11.076c0.025,103.058-0.452,206.119,0.292,309.172c0.24,33.265-13.136,58.206-39.683,76.379
		c-32.338,22.137-67.826,28.737-105.467,16.191c-23.343-7.781-39.692-23.257-43.584-48.764
		c-3.075-20.155,3.591-37.986,16.009-53.482c20.863-26.035,48.654-39.336,81.578-42.746
		C414.582,297.994,431.689,299.926,448.899,306.973z"/>
</g>
<g display="none">
	<path fill="#FFFFFF" d="M678.647,112.841c-1.868,0-3.735,0-5.605,0c0-6.928,0-13.857,0-20.8c3.357,0,6.715,0,10.073,0
		c-0.378,0.096-0.768,0.16-1.133,0.292c-1.43,0.517-2.496,1.981-2.517,3.498c-0.029,2.186-0.026,4.372-0.028,6.558
		c0,0.289,0.029,0.583,0.089,0.865c0.411,1.954,2.198,3.328,4.207,3.166c1.322-0.107,2.341-0.73,3.072-1.825
		c0.494-0.74,0.649-1.574,0.643-2.45c-0.011-1.502-0.013-3.005-0.019-4.507c-0.002-0.487,0.001-0.975-0.001-1.462
		c-0.001-0.189,0.003-0.38-0.019-0.568c-0.201-1.696-1.378-3.031-3.031-3.443c-0.202-0.05-0.409-0.083-0.613-0.125
		c3.358,0,6.717,0,10.075,0c0,6.933,0,13.867,0,20.8c-1.869,0-3.737,0-5.606,0c-0.001-0.23-0.001-0.46-0.002-0.69
		c-0.002-0.591-0.307-0.896-0.902-0.898c-0.704-0.002-1.408-0.003-2.112,0.002c-0.134,0.001-0.194-0.03-0.192-0.179
		c0.008-0.487,0.007-0.975,0.001-1.462c-0.002-0.125,0.043-0.175,0.164-0.204c1.014-0.249,1.927-0.705,2.739-1.359
		c0.979-0.788,1.702-1.766,2.181-2.93c0.458-1.114,0.565-2.279,0.508-3.463c-0.01-0.198-0.122-0.419-0.25-0.579
		c-0.202-0.254-0.505-0.28-0.799-0.175c-0.346,0.124-0.487,0.416-0.517,0.759c-0.021,0.242-0.003,0.487-0.005,0.731
		c-0.007,0.971-0.219,1.895-0.696,2.743c-1.288,2.288-3.821,3.397-6.349,2.705c-2.203-0.603-3.558-2.087-4.045-4.315
		c-0.127-0.58-0.091-1.197-0.126-1.797c-0.019-0.33-0.131-0.614-0.428-0.782c-0.519-0.292-1.131,0.098-1.152,0.73
		c-0.009,0.264-0.003,0.528-0.001,0.792c0.015,1.475,0.424,2.832,1.267,4.041c1.025,1.47,2.409,2.445,4.152,2.892
		c0.134,0.034,0.187,0.087,0.184,0.232c-0.01,0.46-0.011,0.921,0,1.381c0.004,0.181-0.04,0.246-0.234,0.242
		c-0.697-0.012-1.394-0.007-2.092-0.004c-0.572,0.003-0.877,0.308-0.881,0.877C678.648,112.367,678.648,112.604,678.647,112.841z"/>
	<path display="inline" d="M263.971,1c5.014,1.008,10.077,1.819,15.035,3.054c40.541,10.101,69.398,42.851,74.327,84.427
		c0.545,4.597,0.447,9.281,0.47,13.925c0.06,11.95-0.013,23.9,0.027,35.85c0.125,36.837,0.185,73.674,0.455,110.509
		c0.158,21.492-3.653,41.931-15.765,60.074c-17.929,26.857-42.905,42.141-75.327,44.756c-49.27,3.973-93.085-29.726-103.159-77.635
		c-1.456-6.926-2.18-14.139-2.176-21.219c0.033-53.598-0.046-107.201,0.677-160.793c0.502-37.213,26.659-73.106,61.712-85.78
		c8.955-3.238,18.506-4.823,27.784-7.168C253.346,1,258.658,1,263.971,1z M200.93,79.785c6.008,0,11.64-0.219,17.249,0.048
		c9.834,0.469,17.698,8.793,17.878,18.575c0.215,11.692-7.76,19.759-19.993,20.042c-6.232,0.144-12.47,0.025-18.696,0.025
		c0,7.042,0,13.277,0,20.065c6.718,0,13.151-0.116,19.577,0.029c8.314,0.187,15.229,5.144,17.983,12.624
		c4.736,12.869-3.977,25.489-18.137,26.025c-6.408,0.243-12.833,0.041-19.337,0.041c0,7.046,0,13.398,0,19.711
		c39.298,0,78.209,0,117.027,0c0-6.719,0-13.071,0-19.685c-6.249,0-12.046,0.063-17.842-0.013
		c-12.724-0.166-20.819-7.954-20.697-19.824c0.112-10.915,8.713-18.811,20.676-18.921c5.926-0.054,11.852-0.009,17.952-0.009
		c0-6.933,0-13.281,0-20.056c-6.638,0-12.922,0.178-19.193-0.038c-11.904-0.411-19.671-8.553-19.428-20.082
		c0.222-10.532,8.645-18.432,19.932-18.611c4.954-0.079,9.911-0.013,14.907-0.013c-2.017-18.974-28.164-38.32-53.077-39.663
		C233.379,38.743,205.692,57.747,200.93,79.785z"/>
	<path display="inline" d="M138.463,511c0.019-5.809,0.016-11.618,0.061-17.426c0.109-13.946,7.567-21.437,21.603-21.502
		c17.095-0.079,34.193-0.198,51.284,0.093c4.756,0.081,5.845-1.508,5.735-5.94c-0.28-11.279-0.244-22.573-0.006-33.854
		c0.075-3.562-1.236-4.843-4.514-5.684c-42.743-10.961-76.682-34.861-101.811-70.914c-20.666-29.65-30.707-62.921-31.07-99.077
		c-0.065-6.472-0.201-12.952,0.016-19.417c0.519-15.497,15.526-25.074,28.252-17.904c7.276,4.1,10.015,11.078,10.489,19.166
		c0.862,14.711-0.028,29.822,3.081,44.052c11.939,54.641,45.156,91.01,99.179,105.806c61.975,16.975,124.087-10.231,155.675-66.329
		c11.706-20.789,16.897-43.435,17.073-67.25c0.044-5.975-0.386-11.984,0.12-17.917c0.717-8.405,4.173-15.576,12.667-18.61
		c7.196-2.57,14.63-1.923,19.589,4.297c3.13,3.926,5.889,9.322,6.124,14.189c1.402,29.05-1.205,57.614-12.447,84.918
		c-11.744,28.525-29.484,52.522-53.482,71.835c-19.913,16.025-42.31,27.216-67.161,33.315c-2.975,0.73-4.065,1.936-4.026,5.012
		c0.148,11.948,0.183,23.901-0.013,35.848c-0.06,3.671,1.416,4.419,4.704,4.397c17.26-0.118,34.522-0.085,51.783-0.043
		c14.597,0.036,22.066,7.51,22.117,22.011c0.02,5.642,0.037,11.285,0.056,16.927C295.182,511,216.822,511,138.463,511z"/>
	<path fill="#FFFFFF" d="M681.195,95.254c0.194-0.899,1.323-1.674,2.316-1.62c1.016,0.055,2.082,0.844,2.165,1.618
		c-0.204,0-0.406-0.003-0.608,0.001c-0.46,0.007-0.804,0.33-0.813,0.759c-0.01,0.47,0.307,0.802,0.792,0.819
		c0.256,0.009,0.512,0.002,0.783,0.002c0,0.276,0,0.535,0,0.818c-0.249,0-0.49-0.002-0.732,0c-0.488,0.004-0.839,0.327-0.843,0.772
		c-0.005,0.484,0.325,0.802,0.844,0.809c0.236,0.003,0.473,0.001,0.728,0.001c0,0.27,0,0.529,0,0.803c-1.583,0-3.17,0-4.773,0
		c0-0.257,0-0.517,0-0.804c0.265,0,0.527,0.008,0.789-0.002c0.577-0.022,0.933-0.537,0.74-1.061
		c-0.112-0.305-0.394-0.507-0.733-0.515c-0.262-0.006-0.524-0.001-0.798-0.001c0-0.277,0-0.531,0-0.818
		c0.254,0,0.508,0.005,0.762-0.001c0.499-0.012,0.824-0.341,0.815-0.817c-0.007-0.399-0.328-0.738-0.729-0.758
		C681.669,95.245,681.44,95.254,681.195,95.254z"/>
</g>
<g display="none">
	<path display="inline" d="M1,448.488c0-76.367,0-152.734,0-229.102c0.34-0.905,0.826-1.783,0.998-2.719
		c4.057-22.022,16.546-37.212,37.268-45.469c3.355-1.337,4.785-2.764,5.082-6.495c2.04-25.64,27.169-37.759,45.645-31.283
		c1.986,0.696,4.621,0.259,6.769-0.33c40.095-11.005,80.162-22.107,120.233-33.2c70.881-19.621,141.759-39.256,212.647-58.854
		c2.757-0.762,4.435-1.762,4.817-5.162c1.509-13.432,12.074-22.981,26.179-24.185c12-1.024,24.331,7.621,28.007,19.633
		c3.863,12.625-1.463,26.148-12.812,32.533c-11.502,6.471-26.087,4.428-34.401-5.535c-2.957-3.543-5.264-3.977-9.459-2.711
		c-104.978,31.689-210.001,63.227-315.016,94.792c-1.695,0.51-3.383,1.043-5.178,1.597c0.927,3.322,2.487,6.218,2.369,9.043
		c-0.248,5.948,2.705,6.437,7.599,6.432c107.874-0.121,215.747-0.093,323.621-0.088c2.821,0,5.644-0.007,8.462,0.103
		c27.518,1.072,49.718,19.503,55.738,46.23c0.428,1.9,0.953,3.778,1.433,5.666c0,76.367,0,152.734,0,229.102
		c-1.026,3.796-1.881,7.648-3.105,11.379c-8.183,24.942-30.165,40.427-57.69,40.442c-90.131,0.052-180.263,0.025-270.394,0.019
		c-40.335-0.002-80.672,0.203-121.004-0.119c-27.039-0.215-49.313-18.389-55.898-44.652C2.316,453.19,1.639,450.844,1,448.488z
		 M455.612,333.927c0.046-61.494-50.038-111.654-111.4-111.569c-61.269,0.085-111.05,49.824-111.281,111.189
		c-0.231,61.408,49.534,111.485,111.15,111.846C405.22,445.75,455.566,395.433,455.612,333.927z M89.352,384.773
		c17.086-0.05,31.379-14.479,31.211-31.509c-0.167-16.91-14.196-30.94-31.127-31.128c-16.91-0.188-31.415,14.233-31.478,31.294
		C57.896,370.422,72.32,384.822,89.352,384.773z M88.72,286.585c17.026,0.47,31.495-13.509,31.836-30.759
		c0.33-16.662-13.31-31.025-29.991-31.58c-17.776-0.591-32.363,13.272-32.591,30.972C57.757,272.073,71.517,286.11,88.72,286.585z"
		/>
	<path fill="#FFFFFF" d="M693.841,100.572c-0.02-0.077-0.041-0.154-0.058-0.231c-0.246-1.09-1.151-1.842-2.273-1.885
		c-0.115-0.004-0.23-0.004-0.345-0.004c-4.4,0-8.799-0.001-13.199,0.004c-0.2,0-0.32-0.02-0.31-0.262
		c0.005-0.115-0.059-0.233-0.097-0.369c0.073-0.023,0.142-0.044,0.211-0.065c4.283-1.287,8.566-2.574,12.848-3.866
		c0.171-0.052,0.265-0.034,0.386,0.111c0.339,0.406,0.934,0.49,1.403,0.226c0.463-0.26,0.68-0.812,0.523-1.327
		c-0.15-0.49-0.653-0.843-1.142-0.801c-0.575,0.049-1.006,0.439-1.068,0.986c-0.016,0.139-0.084,0.179-0.196,0.211
		c-2.891,0.799-5.782,1.6-8.673,2.4c-1.634,0.452-3.268,0.905-4.904,1.354c-0.088,0.024-0.195,0.042-0.276,0.013
		c-0.754-0.264-1.778,0.23-1.862,1.276c-0.012,0.152-0.07,0.21-0.207,0.265c-0.845,0.337-1.354,0.956-1.52,1.854
		c-0.007,0.038-0.027,0.074-0.041,0.111c0-2.842,0-5.684,0-8.529c6.933,0,13.867,0,20.8,0
		C693.841,94.887,693.841,97.73,693.841,100.572z"/>
	<path fill="#FFFFFF" d="M673.041,109.916c0.026,0.096,0.054,0.192,0.078,0.288c0.269,1.071,1.177,1.812,2.28,1.821
		c1.645,0.013,3.29,0.005,4.935,0.005c3.676,0,7.352,0.001,11.028-0.001c1.123-0.001,2.019-0.632,2.353-1.649
		c0.05-0.152,0.085-0.309,0.127-0.464c0,0.975,0,1.95,0,2.925c-6.933,0-13.867,0-20.8,0
		C673.041,111.866,673.041,110.891,673.041,109.916z"/>
	<path fill="#FFFFFF" d="M691.582,105.243c-0.002,2.508-2.055,4.561-4.549,4.546c-2.513-0.015-4.543-2.057-4.533-4.562
		c0.009-2.503,2.04-4.531,4.539-4.535C689.541,100.69,691.583,102.735,691.582,105.243z M690.461,104.854c-2.29,0-4.546,0-6.853,0
		c0,0.18,0.005,0.353-0.001,0.526c-0.006,0.191,0.055,0.265,0.269,0.264c2.11-0.009,4.22-0.006,6.329-0.006
		c0.041,0,0.088,0.013,0.12-0.004c0.051-0.026,0.127-0.07,0.13-0.111C690.467,105.304,690.461,105.084,690.461,104.854z
		 M690.269,104.021c-0.142-0.261-0.256-0.481-0.384-0.693c-0.026-0.043-0.11-0.073-0.167-0.073
		c-1.781-0.004-3.561-0.003-5.342-0.002c-0.051,0-0.129,0.004-0.148,0.034c-0.139,0.231-0.267,0.47-0.413,0.734
		C685.986,104.021,688.098,104.021,690.269,104.021z M683.816,106.461c0.13,0.241,0.233,0.452,0.357,0.65
		c0.037,0.059,0.133,0.116,0.202,0.116c1.781,0.006,3.561,0.005,5.342,0.003c0.049,0,0.124-0.01,0.143-0.042
		c0.136-0.228,0.261-0.462,0.407-0.728C688.096,106.461,685.986,106.461,683.816,106.461z M688.959,102.426
		c-1.034-0.837-2.826-0.827-3.835,0C686.403,102.426,687.676,102.426,688.959,102.426z M688.957,108.064c-1.283,0-2.547,0-3.831,0
		C686.153,108.879,687.947,108.876,688.957,108.064z"/>
	<path fill="#FFFFFF" d="M676.644,107.317c-0.695,0.002-1.283-0.585-1.28-1.278c0.003-0.696,0.594-1.284,1.284-1.276
		c0.69,0.008,1.263,0.58,1.269,1.27C677.924,106.726,677.341,107.315,676.644,107.317z"/>
	<path fill="#FFFFFF" d="M676.618,103.312c-0.702-0.019-1.263-0.592-1.254-1.279c0.009-0.722,0.604-1.287,1.329-1.263
		c0.68,0.023,1.237,0.608,1.223,1.288C677.903,102.762,677.313,103.332,676.618,103.312z"/>
	<path display="inline" d="M428.125,324.383c0,5.63,0.163,11.038-0.148,16.419c-0.057,0.987-1.936,2.071-3.178,2.715
		c-0.786,0.407-1.951,0.086-2.945,0.086c-51.732,0.001-103.463-0.09-155.194,0.139c-5.241,0.023-6.754-1.783-6.599-6.465
		c0.14-4.235,0.03-8.478,0.03-12.894C316.654,324.383,371.968,324.383,428.125,324.383z"/>
	<path display="inline" d="M423.42,303.951c-53.234,0-104.998,0-158.259,0c3.593-6.477,6.716-12.324,10.129-17.996
		c0.449-0.746,2.378-0.836,3.621-0.837c43.661-0.04,87.323-0.05,130.984,0.044c1.405,0.003,3.453,0.737,4.101,1.8
		C417.149,292.145,419.928,297.557,423.42,303.951z"/>
	<path display="inline" d="M265.209,363.776c53.204,0,104.951,0,158.178,0c-3.591,6.502-6.651,12.254-9.989,17.839
		c-0.465,0.778-2.303,1.03-3.505,1.031c-43.659,0.051-87.318,0.076-130.976-0.079c-1.694-0.006-4.04-1.399-4.952-2.853
		C270.924,374.862,268.397,369.688,265.209,363.776z"/>
	<path display="inline" d="M391.318,264.86c-31.479,0-62.683,0-94.032,0C322.022,244.585,365.954,244.333,391.318,264.86z"/>
	<path display="inline" d="M391.253,403.094c-24.768,19.907-68.738,19.975-93.932,0
		C328.794,403.094,359.803,403.094,391.253,403.094z"/>
</g>
</svg>
