<?xml version="1.0" encoding="utf-8"?>
<!-- Generator: Adobe Illustrator 17.0.0, SVG Export Plug-In . SVG Version: 6.00 Build 0)  -->
<!DOCTYPE svg PUBLIC "-//W3C//DTD SVG 1.1//EN" "http://www.w3.org/Graphics/SVG/1.1/DTD/svg11.dtd">
<svg version="1.1" id="Layer_1" xmlns="http://www.w3.org/2000/svg" xmlns:xlink="http://www.w3.org/1999/xlink" x="0px" y="0px"
	 width="512px" height="512px" viewBox="0 0 512 512" enable-background="new 0 0 512 512" xml:space="preserve">
<g>
	<line fill="none" stroke="#B35047" x1="32" y1="0" x2="32" y2="512"/>
	<line fill="none" stroke="#B35047" x1="64" y1="0" x2="64" y2="512"/>
	<line fill="none" stroke="#B35047" x1="96" y1="0" x2="96" y2="512"/>
	<line fill="none" stroke="#B35047" x1="128" y1="0" x2="128" y2="512"/>
	<line fill="none" stroke="#B35047" x1="160" y1="0" x2="160" y2="512"/>
	<line fill="none" stroke="#B35047" x1="192" y1="0" x2="192" y2="512"/>
	<line fill="none" stroke="#B35047" x1="224" y1="0" x2="224" y2="512"/>
	<line fill="none" stroke="#B35047" x1="256" y1="0" x2="256" y2="512"/>
	<line fill="none" stroke="#B35047" x1="288" y1="0" x2="288" y2="512"/>
	<line fill="none" stroke="#B35047" x1="320" y1="0" x2="320" y2="512"/>
	<line fill="none" stroke="#B35047" x1="352" y1="0" x2="352" y2="512"/>
	<line fill="none" stroke="#B35047" x1="384" y1="0" x2="384" y2="512"/>
	<line fill="none" stroke="#B35047" x1="416" y1="0" x2="416" y2="512"/>
	<line fill="none" stroke="#B35047" x1="448" y1="0" x2="448" y2="512"/>
	<line fill="none" stroke="#B35047" x1="480" y1="0" x2="480" y2="512"/>
	<line fill="none" stroke="#B35047" x1="0" y1="32" x2="512" y2="32"/>
	<line fill="none" stroke="#B35047" x1="0" y1="64" x2="512" y2="64"/>
	<line fill="none" stroke="#B35047" x1="0" y1="96" x2="512" y2="96"/>
	<line fill="none" stroke="#B35047" x1="0" y1="128" x2="512" y2="128"/>
	<line fill="none" stroke="#B35047" x1="0" y1="160" x2="512" y2="160"/>
	<line fill="none" stroke="#B35047" x1="0" y1="192" x2="512" y2="192"/>
	<line fill="none" stroke="#B35047" x1="0" y1="224" x2="512" y2="224"/>
	<line fill="none" stroke="#B35047" x1="0" y1="256" x2="512" y2="256"/>
	<line fill="none" stroke="#B35047" x1="0" y1="288" x2="512" y2="288"/>
	<line fill="none" stroke="#B35047" x1="0" y1="320" x2="512" y2="320"/>
	<line fill="none" stroke="#B35047" x1="0" y1="352" x2="512" y2="352"/>
	<line fill="none" stroke="#B35047" x1="0" y1="384" x2="512" y2="384"/>
	<line fill="none" stroke="#B35047" x1="0" y1="416" x2="512" y2="416"/>
	<line fill="none" stroke="#B35047" x1="0" y1="448" x2="512" y2="448"/>
	<line fill="none" stroke="#B35047" x1="0" y1="480" x2="512" y2="480"/>
	<rect x="0" fill="none" stroke="#B35047" width="512" height="512"/>
</g>
<image display="none" overflow="visible" width="512" height="512" xlink:href="../../../Knowledge/Icon/[+++++] (Full) Windows 8 Icons [icons8]/Overview_Pages/1/1-512.png"  transform="matrix(0.0406 0 0 0.0406 597 65)">
</image>
<image display="none" overflow="visible" width="512" height="512" xlink:href="../../../Knowledge/Icon/[+++++] (Full) Windows 8 Icons [icons8]/Overview_Pages/4/4-512.png"  transform="matrix(0.0406 0 0 0.0406 597 65)">
</image>
<g>
	<path d="M1,458.207C1,323.402,1,188.598,1,53.793c0.322-0.926,0.769-1.829,0.947-2.782c4.8-25.714,20.058-41.657,45.17-48.402
		c2.21-0.594,4.45-1.075,6.676-1.608c134.805,0,269.609,0,404.414,0c0.925,0.323,1.825,0.78,2.777,0.95
		c23.408,4.188,38.991,17.613,46.925,39.922c1.37,3.853,2.078,7.941,3.091,11.921c0,134.805,0,269.609,0,404.414
		c-0.341,1.091-0.796,2.16-1.005,3.275c-4.298,22.956-17.568,38.317-39.398,46.286c-3.991,1.457-8.253,2.174-12.39,3.233
		c-134.805,0-269.609,0-404.414,0c-0.924-0.323-1.825-0.78-2.777-0.95c-23.416-4.179-38.98-17.626-46.924-39.923
		C2.719,466.275,2.014,462.186,1,458.207z M255.999,98.822c-69.714,0-139.428-0.001-209.142,0.001c-6.903,0-6.907,0.007-6.907,7.07
		c-0.001,113.866-0.002,227.732,0.001,341.598c0,17.108,7.459,24.557,24.586,24.557c127.643,0.003,255.286,0.003,382.929,0
		c17.125,0,24.583-7.451,24.584-24.559c0.003-113.866,0.002-227.732,0.001-341.598c0-7.061-0.004-7.068-6.909-7.068
		C395.427,98.822,325.713,98.822,255.999,98.822z"/>
	<path display="none" fill="#FFFFFF" d="M597.041,83.687c0.041,0.162,0.07,0.329,0.126,0.486c0.324,0.909,0.959,1.458,1.914,1.628
		c0.039,0.007,0.076,0.026,0.113,0.039c-0.718,0-1.435,0-2.153,0C597.041,85.123,597.041,84.405,597.041,83.687z"/>
	<path display="none" fill="#FFFFFF" d="M615.688,85.841c0.169-0.043,0.342-0.072,0.505-0.132c0.89-0.325,1.432-0.951,1.607-1.888
		c0.008-0.045,0.027-0.089,0.041-0.134c0,0.718,0,1.435,0,2.153C617.123,85.841,616.405,85.841,615.688,85.841z"/>
	<path display="none" fill="#FFFFFF" d="M599.194,65.041c-0.091,0.022-0.182,0.041-0.272,0.066
		c-1.024,0.275-1.646,0.925-1.842,1.974c-0.007,0.039-0.025,0.076-0.039,0.113c0-0.714,0-1.429,0-2.153
		C597.758,65.041,598.476,65.041,599.194,65.041z"/>
	<path display="none" fill="#FFFFFF" d="M617.841,67.194c-0.041-0.162-0.07-0.329-0.126-0.486c-0.324-0.91-0.959-1.457-1.914-1.628
		c-0.039-0.007-0.076-0.026-0.113-0.039c0.718,0,1.435,0,2.153,0C617.841,65.758,617.841,66.476,617.841,67.194z"/>
	<path display="none" fill="#FFFFFF" d="M607.441,69.03c2.843,0,5.686,0,8.53,0c0.282,0,0.282,0,0.282,0.288
		c0,4.644,0,9.288,0,13.932c0,0.698-0.304,1.002-1.003,1.002c-5.206,0-10.412,0-15.617,0c-0.698,0-1.003-0.304-1.003-1.002
		c0-4.644,0-9.288,0-13.932c0-0.288,0-0.288,0.282-0.288C601.754,69.03,604.597,69.03,607.441,69.03z M607.419,71.451
		c-1.787,0-3.574,0-5.361,0c-0.095,0-0.19,0-0.284,0.007c-0.386,0.03-0.689,0.317-0.711,0.705c-0.018,0.324-0.017,0.65,0.002,0.974
		c0.021,0.35,0.301,0.63,0.648,0.679c0.093,0.013,0.189,0.019,0.283,0.019c3.628,0.001,7.256,0.001,10.885,0
		c0.081,0,0.162-0.006,0.243-0.016c0.336-0.043,0.622-0.258,0.66-0.593c0.044-0.386,0.05-0.786-0.001-1.17
		c-0.053-0.4-0.388-0.604-0.86-0.604C611.088,71.45,609.253,71.451,607.419,71.451z M604.252,77.014c3.2,0,6.379,0,9.565,0
		c0-0.526,0-1.037,0-1.551c-3.197,0-6.38,0-9.565,0C604.252,75.986,604.252,76.492,604.252,77.014z M613.821,77.858
		c-3.204,0-6.382,0-9.565,0c0,0.525,0,1.036,0,1.552c3.195,0,6.378,0,9.565,0C613.821,78.884,613.821,78.378,613.821,77.858z
		 M604.243,80.256c0,0.449,0,0.875,0,1.301c0,0.274,0,0.274,0.273,0.274c2.951,0,5.902,0,8.853,0c0.461,0,0.461,0,0.461-0.453
		c0-0.37,0-0.74,0-1.122C610.625,80.256,607.448,80.256,604.243,80.256z M602.627,75.459c-0.535,0-1.046,0-1.557,0
		c0,0.528,0,1.042,0,1.555c0.53,0,1.039,0,1.557,0C602.627,76.489,602.627,75.979,602.627,75.459z M601.062,79.415
		c0.536,0,1.046,0,1.559,0c0-0.53,0-1.045,0-1.558c-0.527,0-1.037,0-1.559,0C601.062,78.38,601.062,78.89,601.062,79.415z
		 M602.626,80.257c-0.531,0-1.041,0-1.549,0c-0.01,0.031-0.022,0.049-0.022,0.068c-0.003,0.304-0.007,0.607-0.004,0.911
		c0.002,0.187-0.057,0.454,0.04,0.541c0.112,0.101,0.366,0.049,0.559,0.053c0.322,0.005,0.643,0.001,0.976,0.001
		C602.626,81.292,602.626,80.782,602.626,80.257z"/>
	<path d="M255.472,158.179c44.978,0.001,89.956-0.02,134.934,0.016c11.567,0.009,19.793,5.015,21.089,14.819
		c1.245,9.422,1.084,19.231,0.013,28.697c-0.929,8.211-7.938,13.497-16.172,14.54c-1.969,0.249-3.967,0.391-5.951,0.392
		c-88.96,0.019-177.92,0.02-266.88-0.003c-2.315-0.001-4.651-0.15-6.942-0.477c-8.501-1.212-15.372-8.061-15.879-16.648
		c-0.469-7.933-0.484-15.934-0.046-23.87c0.524-9.501,7.954-16.553,17.422-17.283c2.312-0.178,4.642-0.177,6.964-0.178
		C167.84,158.175,211.656,158.178,255.472,158.179z"/>
	<path d="M177.826,294.576c0-12.806,0-25.208,0-38.031c78.102,0,156.149,0,234.527,0c0,12.613,0,25.135,0,38.031
		C334.235,294.576,256.298,294.576,177.826,294.576z"/>
	<path d="M412.44,315.277c0,12.747,0,25.157,0,38.057c-78.139,0-156.178,0-234.527,0c0-12.65,0-25.181,0-38.057
		C255.959,315.277,333.88,315.277,412.44,315.277z"/>
	<path d="M177.604,374.063c78.572,0,156.484,0,235.08,0c0,9.35,0,18.427,0,27.504c0,11.118,0,11.118-11.309,11.118
		c-72.36,0-144.721,0.001-217.081-0.001c-6.686,0-6.689-0.009-6.69-6.723C177.602,395.519,177.604,385.078,177.604,374.063z"/>
	<path d="M137.975,256.445c0,12.751,0,25.256,0,38.133c-12.691,0-25.188,0-38.174,0c0-12.574,0-25.19,0-38.133
		C112.328,256.445,124.851,256.445,137.975,256.445z"/>
	<path d="M99.599,353.455c0-12.886,0-25.39,0-38.208c12.787,0,25.306,0,38.227,0c0,12.581,0,25.208,0,38.208
		C125.235,353.455,112.741,353.455,99.599,353.455z"/>
	<path d="M137.95,374.085c0,12.886,0,25.384,0,38.599c-8.144,0-16.033,0.095-23.919-0.036c-4.726-0.078-10.956,1.178-13.712-1.29
		c-2.384-2.136-0.938-8.677-0.977-13.273c-0.063-7.444,0.035-14.89,0.098-22.335c0.004-0.459,0.288-0.916,0.54-1.665
		C112.438,374.085,124.939,374.085,137.95,374.085z"/>
</g>
<g display="none">
	<path display="inline" d="M74.711,1C195.57,1,316.43,1,437.289,1c1.079,0.362,2.137,0.82,3.242,1.073
		c11.838,2.704,20.677,9.359,26.503,20.015c3.954,7.232,4.634,15.107,4.633,23.138c-0.01,140.516-0.007,281.031-0.008,421.547
		c0,1.493,0.031,2.989-0.045,4.478c-0.984,19.314-11.868,33.583-29.144,38.251c-1.735,0.469-3.454,0.997-5.181,1.498
		c-120.859,0-241.719,0-362.578,0c-1.079-0.362-2.137-0.82-3.242-1.073c-11.838-2.704-20.677-9.359-26.503-20.016
		c-3.954-7.232-4.634-15.106-4.633-23.138c0.01-140.516,0.007-281.031,0.008-421.547c0-1.493-0.031-2.989,0.045-4.478
		C41.37,21.434,52.254,7.165,69.53,2.498C71.265,2.029,72.984,1.501,74.711,1z M79.647,471.672c117.919,0,235.192,0,352.508,0
		c0-144.011,0-287.643,0-431.344c-117.722,0-234.994,0-352.508,0C79.647,184.238,79.647,327.769,79.647,471.672z"/>
	<path fill="#FFFFFF" d="M600.047,65.041c-0.07,0.02-0.141,0.042-0.211,0.061c-0.705,0.19-1.148,0.772-1.189,1.56
		c-0.003,0.061-0.002,0.122-0.002,0.183c0,5.731,0,11.462,0,17.192c0,0.328,0.028,0.649,0.189,0.944
		c0.238,0.435,0.598,0.706,1.081,0.816c0.045,0.01,0.088,0.029,0.132,0.044c-1.002,0-2.004,0-3.006,0c0-6.933,0-13.867,0-20.8
		C598.043,65.041,599.045,65.041,600.047,65.041z"/>
	<path fill="#FFFFFF" d="M614.834,85.841c0.07-0.02,0.141-0.042,0.211-0.061c0.705-0.19,1.148-0.772,1.189-1.56
		c0.003-0.061,0.002-0.122,0.002-0.183c0-5.731,0-11.462,0-17.192c0-0.328-0.028-0.649-0.189-0.944
		c-0.238-0.435-0.598-0.706-1.081-0.816c-0.045-0.01-0.088-0.029-0.132-0.044c1.001,0,2.003,0,3.005,0c0,6.933,0,13.867,0,20.8
		C616.837,85.841,615.836,85.841,614.834,85.841z"/>
	<path fill="#FFFFFF" d="M600.248,84.237c0-5.869,0-11.723,0-17.592c4.793,0,9.576,0,14.377,0c0,5.861,0,11.719,0,17.592
		C609.84,84.237,605.057,84.237,600.248,84.237z M607.42,69.05c-1.557,0-3.115-0.002-4.672,0.001
		c-0.593,0.001-0.901,0.313-0.904,0.903c-0.001,0.217-0.004,0.433,0.001,0.65c0.008,0.312,0.123,0.581,0.412,0.718
		c0.158,0.075,0.35,0.104,0.527,0.105c3.101,0.006,6.202,0.004,9.303,0.004c0.074,0,0.149-0.004,0.223-0.01
		c0.239-0.018,0.423-0.135,0.56-0.325c0.212-0.294,0.212-1.409,0.003-1.707c-0.191-0.272-0.466-0.341-0.782-0.34
		C610.535,69.053,608.977,69.05,607.42,69.05z M609.827,73.867c-2.668,0-5.316,0-7.972,0c0,0.525,0,1.036,0,1.553
		c2.663,0,5.316,0,7.972,0C609.827,74.898,609.827,74.392,609.827,73.867z M601.855,81.812c2.128,0,4.246,0,6.367,0
		c0-0.529,0-1.04,0-1.556c-2.129,0-4.243,0-6.367,0C601.855,80.779,601.855,81.29,601.855,81.812z M606.619,78.629
		c0-0.534,0-1.046,0-1.563c-1.595,0-3.18,0-4.76,0c0,0.532,0,1.043,0,1.563C603.449,78.629,605.024,78.629,606.619,78.629z
		 M613.026,78.625c0-0.531,0-1.042,0-1.577c-0.502,0-0.994-0.002-1.485,0.004c-0.03,0-0.084,0.056-0.084,0.086
		c-0.005,0.492-0.004,0.983-0.004,1.487C611.987,78.625,612.497,78.625,613.026,78.625z M613.026,73.865c-0.53,0-1.04,0-1.559,0
		c0,0.527,0,1.042,0,1.56c0.528,0,1.038,0,1.559,0C613.026,74.904,613.026,74.394,613.026,73.865z M613.027,80.258
		c-0.535,0-1.045,0-1.574,0c0,0.498-0.003,0.983,0.007,1.468c0.001,0.036,0.096,0.097,0.15,0.1c0.222,0.012,0.445,0.005,0.668,0.005
		c0.247,0,0.494,0,0.749,0C613.027,81.288,613.027,80.779,613.027,80.258z"/>
	<path display="inline" d="M255.5,99.317c38.183,0,76.366,0.054,114.548-0.046c7.731-0.02,14.479,1.667,19.166,8.34
		c5.134,7.309,5.138,34.627-0.065,41.848c-3.362,4.667-7.879,7.523-13.728,7.972c-1.819,0.14-3.645,0.242-5.468,0.243
		c-76.033,0.012-152.067,0.051-228.1-0.096c-4.341-0.008-9.066-0.736-12.933-2.565c-7.087-3.353-9.91-9.944-10.109-17.596
		c-0.138-5.309-0.061-10.624-0.03-15.936c0.085-14.462,7.64-22.115,22.17-22.14C179.134,99.274,217.317,99.318,255.5,99.317z"/>
	<path display="inline" d="M314.511,217.405c0,12.874,0,25.283,0,38.081c-65.125,0-130.174,0-195.48,0c0-12.684,0-25.206,0-38.081
		C184.176,217.405,249.098,217.405,314.511,217.405z"/>
	<path display="inline" d="M119.04,412.222c0-12.801,0-25.319,0-38.142c52.073,0,103.899,0,156.103,0c0,12.646,0,25.161,0,38.142
		C223.139,412.222,171.222,412.222,119.04,412.222z"/>
	<path display="inline" d="M235.864,334.176c-39.117,0-77.733,0-116.719,0c0-12.741,0-25.27,0-38.32c38.747,0,77.602,0,116.719,0
		C235.864,308.528,235.864,321.089,235.864,334.176z"/>
	<path display="inline" d="M392.96,334.086c-12.97,0-25.484,0-38.578,0c0-12.357-0.038-24.412,0.092-36.465
		c0.008-0.741,1.338-2.099,2.065-2.107c12.054-0.132,24.109-0.094,36.42-0.094C392.96,308.544,392.96,321.074,392.96,334.086z"/>
	<path display="inline" d="M392.959,217.37c0,12.965,0,25.47,0,38.24c-12.772,0-25.281,0-38.217,0c0-12.702,0-25.31,0-38.24
		C367.46,217.37,379.972,217.37,392.959,217.37z"/>
	<path display="inline" d="M392.973,374.118c0,12.771,0,25.266,0,38.566c-6.266,0-12.319,0.001-18.373,0
		c-5.461-0.001-10.93,0.157-16.376-0.126c-1.322-0.069-3.666-1.572-3.685-2.454c-0.247-11.879-0.166-23.764-0.166-35.986
		C367.354,374.118,379.861,374.118,392.973,374.118z"/>
</g>
</svg>
