<?xml version="1.0" encoding="utf-8"?>
<!-- Generator: Adobe Illustrator 17.0.0, SVG Export Plug-In . SVG Version: 6.00 Build 0)  -->
<!DOCTYPE svg PUBLIC "-//W3C//DTD SVG 1.1//EN" "http://www.w3.org/Graphics/SVG/1.1/DTD/svg11.dtd">
<svg version="1.1" id="Layer_1" xmlns="http://www.w3.org/2000/svg" xmlns:xlink="http://www.w3.org/1999/xlink" x="0px" y="0px"
	 width="512px" height="512px" viewBox="0 0 512 512" enable-background="new 0 0 512 512" xml:space="preserve">
<g>
	<line fill="none" stroke="#B35047" x1="32" y1="0" x2="32" y2="512"/>
	<line fill="none" stroke="#B35047" x1="64" y1="0" x2="64" y2="512"/>
	<line fill="none" stroke="#B35047" x1="96" y1="0" x2="96" y2="512"/>
	<line fill="none" stroke="#B35047" x1="128" y1="0" x2="128" y2="512"/>
	<line fill="none" stroke="#B35047" x1="160" y1="0" x2="160" y2="512"/>
	<line fill="none" stroke="#B35047" x1="192" y1="0" x2="192" y2="512"/>
	<line fill="none" stroke="#B35047" x1="224" y1="0" x2="224" y2="512"/>
	<line fill="none" stroke="#B35047" x1="256" y1="0" x2="256" y2="512"/>
	<line fill="none" stroke="#B35047" x1="288" y1="0" x2="288" y2="512"/>
	<line fill="none" stroke="#B35047" x1="320" y1="0" x2="320" y2="512"/>
	<line fill="none" stroke="#B35047" x1="352" y1="0" x2="352" y2="512"/>
	<line fill="none" stroke="#B35047" x1="384" y1="0" x2="384" y2="512"/>
	<line fill="none" stroke="#B35047" x1="416" y1="0" x2="416" y2="512"/>
	<line fill="none" stroke="#B35047" x1="448" y1="0" x2="448" y2="512"/>
	<line fill="none" stroke="#B35047" x1="480" y1="0" x2="480" y2="512"/>
	<line fill="none" stroke="#B35047" x1="0" y1="32" x2="512" y2="32"/>
	<line fill="none" stroke="#B35047" x1="0" y1="64" x2="512" y2="64"/>
	<line fill="none" stroke="#B35047" x1="0" y1="96" x2="512" y2="96"/>
	<line fill="none" stroke="#B35047" x1="0" y1="128" x2="512" y2="128"/>
	<line fill="none" stroke="#B35047" x1="0" y1="160" x2="512" y2="160"/>
	<line fill="none" stroke="#B35047" x1="0" y1="192" x2="512" y2="192"/>
	<line fill="none" stroke="#B35047" x1="0" y1="224" x2="512" y2="224"/>
	<line fill="none" stroke="#B35047" x1="0" y1="256" x2="512" y2="256"/>
	<line fill="none" stroke="#B35047" x1="0" y1="288" x2="512" y2="288"/>
	<line fill="none" stroke="#B35047" x1="0" y1="320" x2="512" y2="320"/>
	<line fill="none" stroke="#B35047" x1="0" y1="352" x2="512" y2="352"/>
	<line fill="none" stroke="#B35047" x1="0" y1="384" x2="512" y2="384"/>
	<line fill="none" stroke="#B35047" x1="0" y1="416" x2="512" y2="416"/>
	<line fill="none" stroke="#B35047" x1="0" y1="448" x2="512" y2="448"/>
	<line fill="none" stroke="#B35047" x1="0" y1="480" x2="512" y2="480"/>
	<rect x="0" fill="none" stroke="#B35047" width="512" height="512"/>
</g>
<image display="none" overflow="visible" width="512" height="512" xlink:href="../../../Knowledge/Icon/[+++++] (Full) Windows 8 Icons [icons8]/Overview_Pages/1/1-512.png"  transform="matrix(0.0406 0 0 0.0406 597 65)">
</image>
<image display="none" overflow="visible" width="512" height="512" xlink:href="../../../Knowledge/Icon/[+++++] (Full) Windows 8 Icons [icons8]/Overview_Pages/4/4-512.png"  transform="matrix(0.0406 0 0 0.0406 597 65)">
</image>
<image display="none" overflow="visible" width="512" height="512" xlink:href="../../../Knowledge/Icon/[+++++] (Full) Windows 8 Icons [icons8]/Overview_Pages/3/3-512.png"  transform="matrix(0.0406 0 0 0.0406 597 65)">
</image>
<g>
	<path d="M74.711,1C195.57,1,316.43,1,437.289,1c1.079,0.362,2.137,0.82,3.242,1.073c11.838,2.704,20.677,9.359,26.503,20.015
		c3.954,7.232,4.634,15.107,4.633,23.138c-0.01,140.516-0.007,281.031-0.008,421.547c0,1.493,0.031,2.989-0.045,4.478
		c-0.984,19.314-11.868,33.583-29.144,38.251c-1.735,0.469-3.454,0.997-5.181,1.498c-120.859,0-241.719,0-362.578,0
		c-1.079-0.362-2.137-0.82-3.242-1.073c-11.838-2.704-20.677-9.359-26.503-20.016c-3.954-7.232-4.634-15.106-4.633-23.138
		c0.01-140.516,0.007-281.031,0.008-421.547c0-1.493-0.031-2.989,0.045-4.478C41.37,21.434,52.254,7.165,69.53,2.498
		C71.265,2.029,72.984,1.501,74.711,1z M79.647,471.672c117.919,0,235.192,0,352.508,0c0-144.011,0-287.643,0-431.344
		c-117.722,0-234.994,0-352.508,0C79.647,184.238,79.647,327.769,79.647,471.672z"/>
	<path display="none" fill="#FFFFFF" d="M600.047,65.041c-0.07,0.02-0.141,0.042-0.211,0.061c-0.705,0.19-1.148,0.772-1.189,1.56
		c-0.003,0.061-0.002,0.122-0.002,0.183c0,5.731,0,11.462,0,17.192c0,0.328,0.028,0.649,0.189,0.944
		c0.238,0.435,0.598,0.706,1.081,0.816c0.045,0.01,0.088,0.029,0.132,0.044c-1.002,0-2.004,0-3.006,0c0-6.933,0-13.867,0-20.8
		C598.043,65.041,599.045,65.041,600.047,65.041z"/>
	<path display="none" fill="#FFFFFF" d="M614.834,85.841c0.07-0.02,0.141-0.042,0.211-0.061c0.705-0.19,1.148-0.772,1.189-1.56
		c0.003-0.061,0.002-0.122,0.002-0.183c0-5.731,0-11.462,0-17.192c0-0.328-0.028-0.649-0.189-0.944
		c-0.238-0.435-0.598-0.706-1.081-0.816c-0.045-0.01-0.088-0.029-0.132-0.044c1.001,0,2.003,0,3.005,0c0,6.933,0,13.867,0,20.8
		C616.837,85.841,615.836,85.841,614.834,85.841z"/>
	<path display="none" fill="#FFFFFF" d="M600.248,84.237c0-5.869,0-11.723,0-17.592c4.793,0,9.576,0,14.377,0
		c0,5.861,0,11.719,0,17.592C609.84,84.237,605.057,84.237,600.248,84.237z M607.42,69.05c-1.557,0-3.115-0.002-4.672,0.001
		c-0.593,0.001-0.901,0.313-0.904,0.903c-0.001,0.217-0.004,0.433,0.001,0.65c0.008,0.312,0.123,0.581,0.412,0.718
		c0.158,0.075,0.35,0.104,0.527,0.105c3.101,0.006,6.202,0.004,9.303,0.004c0.074,0,0.149-0.004,0.223-0.01
		c0.239-0.018,0.423-0.135,0.56-0.325c0.212-0.294,0.212-1.409,0.003-1.707c-0.191-0.272-0.466-0.341-0.782-0.34
		C610.535,69.053,608.977,69.05,607.42,69.05z M609.827,73.867c-2.668,0-5.316,0-7.972,0c0,0.525,0,1.036,0,1.553
		c2.663,0,5.316,0,7.972,0C609.827,74.898,609.827,74.392,609.827,73.867z M601.855,81.812c2.128,0,4.246,0,6.367,0
		c0-0.529,0-1.04,0-1.556c-2.129,0-4.243,0-6.367,0C601.855,80.779,601.855,81.29,601.855,81.812z M606.619,78.629
		c0-0.534,0-1.046,0-1.563c-1.595,0-3.18,0-4.76,0c0,0.532,0,1.043,0,1.563C603.449,78.629,605.024,78.629,606.619,78.629z
		 M613.026,78.625c0-0.531,0-1.042,0-1.577c-0.502,0-0.994-0.002-1.485,0.004c-0.03,0-0.084,0.056-0.084,0.086
		c-0.005,0.492-0.004,0.983-0.004,1.487C611.987,78.625,612.497,78.625,613.026,78.625z M613.026,73.865c-0.53,0-1.04,0-1.559,0
		c0,0.527,0,1.042,0,1.56c0.528,0,1.038,0,1.559,0C613.026,74.904,613.026,74.394,613.026,73.865z M613.027,80.258
		c-0.535,0-1.045,0-1.574,0c0,0.498-0.003,0.983,0.007,1.468c0.001,0.036,0.096,0.097,0.15,0.1c0.222,0.012,0.445,0.005,0.668,0.005
		c0.247,0,0.494,0,0.749,0C613.027,81.288,613.027,80.779,613.027,80.258z"/>
	<path d="M255.5,99.317c38.183,0,76.366,0.054,114.548-0.046c7.731-0.02,14.479,1.667,19.166,8.34
		c5.134,7.309,5.138,34.627-0.065,41.848c-3.362,4.667-7.879,7.523-13.728,7.972c-1.819,0.14-3.645,0.242-5.468,0.243
		c-76.033,0.012-152.067,0.051-228.1-0.096c-4.341-0.008-9.066-0.736-12.933-2.565c-7.087-3.353-9.91-9.944-10.109-17.596
		c-0.138-5.309-0.061-10.624-0.03-15.936c0.085-14.462,7.64-22.115,22.17-22.14C179.134,99.274,217.317,99.318,255.5,99.317z"/>
	<path d="M314.511,217.405c0,12.874,0,25.283,0,38.081c-65.125,0-130.174,0-195.48,0c0-12.684,0-25.206,0-38.081
		C184.176,217.405,249.098,217.405,314.511,217.405z"/>
	<path d="M119.04,412.222c0-12.801,0-25.319,0-38.142c52.073,0,103.899,0,156.103,0c0,12.646,0,25.161,0,38.142
		C223.139,412.222,171.222,412.222,119.04,412.222z"/>
	<path d="M235.864,334.176c-39.117,0-77.733,0-116.719,0c0-12.741,0-25.27,0-38.32c38.747,0,77.602,0,116.719,0
		C235.864,308.528,235.864,321.089,235.864,334.176z"/>
	<path d="M392.96,334.086c-12.97,0-25.484,0-38.578,0c0-12.357-0.038-24.412,0.092-36.465c0.008-0.741,1.338-2.099,2.065-2.107
		c12.054-0.132,24.109-0.094,36.42-0.094C392.96,308.544,392.96,321.074,392.96,334.086z"/>
	<path d="M392.959,217.37c0,12.965,0,25.47,0,38.24c-12.772,0-25.281,0-38.217,0c0-12.702,0-25.31,0-38.24
		C367.46,217.37,379.972,217.37,392.959,217.37z"/>
	<path d="M392.973,374.118c0,12.771,0,25.266,0,38.566c-6.266,0-12.319,0.001-18.373,0c-5.461-0.001-10.93,0.157-16.376-0.126
		c-1.322-0.069-3.666-1.572-3.685-2.454c-0.247-11.879-0.166-23.764-0.166-35.986C367.354,374.118,379.861,374.118,392.973,374.118z
		"/>
</g>
</svg>
