<?xml version="1.0" encoding="utf-8"?>
<!-- Generator: Adobe Illustrator 17.0.0, SVG Export Plug-In . SVG Version: 6.00 Build 0)  -->
<!DOCTYPE svg PUBLIC "-//W3C//DTD SVG 1.1//EN" "http://www.w3.org/Graphics/SVG/1.1/DTD/svg11.dtd">
<svg version="1.1" id="Layer_1" xmlns="http://www.w3.org/2000/svg" xmlns:xlink="http://www.w3.org/1999/xlink" x="0px" y="0px"
	 width="512px" height="512px" viewBox="0 0 512 512" enable-background="new 0 0 512 512" xml:space="preserve">
<g>
	<line fill="none" stroke="#B35047" x1="32" y1="0" x2="32" y2="512"/>
	<line fill="none" stroke="#B35047" x1="64" y1="0" x2="64" y2="512"/>
	<line fill="none" stroke="#B35047" x1="96" y1="0" x2="96" y2="512"/>
	<line fill="none" stroke="#B35047" x1="128" y1="0" x2="128" y2="512"/>
	<line fill="none" stroke="#B35047" x1="160" y1="0" x2="160" y2="512"/>
	<line fill="none" stroke="#B35047" x1="192" y1="0" x2="192" y2="512"/>
	<line fill="none" stroke="#B35047" x1="224" y1="0" x2="224" y2="512"/>
	<line fill="none" stroke="#B35047" x1="256" y1="0" x2="256" y2="512"/>
	<line fill="none" stroke="#B35047" x1="288" y1="0" x2="288" y2="512"/>
	<line fill="none" stroke="#B35047" x1="320" y1="0" x2="320" y2="512"/>
	<line fill="none" stroke="#B35047" x1="352" y1="0" x2="352" y2="512"/>
	<line fill="none" stroke="#B35047" x1="384" y1="0" x2="384" y2="512"/>
	<line fill="none" stroke="#B35047" x1="416" y1="0" x2="416" y2="512"/>
	<line fill="none" stroke="#B35047" x1="448" y1="0" x2="448" y2="512"/>
	<line fill="none" stroke="#B35047" x1="480" y1="0" x2="480" y2="512"/>
	<line fill="none" stroke="#B35047" x1="0" y1="32" x2="512" y2="32"/>
	<line fill="none" stroke="#B35047" x1="0" y1="64" x2="512" y2="64"/>
	<line fill="none" stroke="#B35047" x1="0" y1="96" x2="512" y2="96"/>
	<line fill="none" stroke="#B35047" x1="0" y1="128" x2="512" y2="128"/>
	<line fill="none" stroke="#B35047" x1="0" y1="160" x2="512" y2="160"/>
	<line fill="none" stroke="#B35047" x1="0" y1="192" x2="512" y2="192"/>
	<line fill="none" stroke="#B35047" x1="0" y1="224" x2="512" y2="224"/>
	<line fill="none" stroke="#B35047" x1="0" y1="256" x2="512" y2="256"/>
	<line fill="none" stroke="#B35047" x1="0" y1="288" x2="512" y2="288"/>
	<line fill="none" stroke="#B35047" x1="0" y1="320" x2="512" y2="320"/>
	<line fill="none" stroke="#B35047" x1="0" y1="352" x2="512" y2="352"/>
	<line fill="none" stroke="#B35047" x1="0" y1="384" x2="512" y2="384"/>
	<line fill="none" stroke="#B35047" x1="0" y1="416" x2="512" y2="416"/>
	<line fill="none" stroke="#B35047" x1="0" y1="448" x2="512" y2="448"/>
	<line fill="none" stroke="#B35047" x1="0" y1="480" x2="512" y2="480"/>
	<rect x="0" fill="none" stroke="#B35047" width="512" height="512"/>
</g>
<g>
	<path display="none" fill="#FFFFFF" d="M449.835,238.841c-6.929,0-13.86,0-20.793,0c0-6.931,0-13.862,0-20.796
		c6.928,0,13.857,0,20.793,0C449.835,224.974,449.835,231.907,449.835,238.841z M429.325,228.84
		c-0.05,0.416-0.122,0.808-0.141,1.204c-0.05,0.995,0.165,1.921,0.796,2.721c0.435,0.552,1.006,0.902,1.642,1.186
		c2.21,0.987,4.408,1.998,6.615,2.991c0.768,0.345,1.567,0.553,2.422,0.433c1.475-0.206,2.711-0.84,3.658-2.01
		c0.784-0.968,1.33-2.069,1.783-3.217c1.094-2.773,2.044-5.598,2.965-8.432c0.228-0.7,0.448-1.403,0.665-2.107
		c0.184-0.596-0.062-1.016-0.668-1.147c-0.33-0.071-0.663-0.131-0.994-0.197c-3.52-0.701-7.039-1.402-10.559-2.102
		c-0.594-0.118-0.91,0.064-1.113,0.626c-0.618,1.709-1.237,3.419-1.854,5.128c-0.45,1.246-0.901,2.491-1.348,3.738
		c-0.189,0.527,0.013,0.98,0.494,1.125c0.431,0.13,0.821-0.099,1-0.593c0.948-2.625,1.896-5.25,2.844-7.875
		c0.059-0.163,0.121-0.325,0.184-0.494c3.435,0.684,6.849,1.364,10.275,2.046c-0.025,0.086-0.038,0.138-0.055,0.189
		c-0.929,2.717-1.85,5.437-2.79,8.15c-0.418,1.208-0.889,2.396-1.572,3.487c-0.609,0.972-1.393,1.713-2.548,1.999
		c-0.979,0.242-1.785-0.098-2.234-0.996c-0.314-0.628-0.374-1.308-0.361-1.996c0.003-0.148-0.045-0.211-0.178-0.264
		c-2.903-1.168-5.804-2.341-8.705-3.512C429.483,228.896,429.421,228.875,429.325,228.84z"/>
	<path d="M4.664,282.505c2.367,0.874,3.914,1.399,5.425,2.01c71.786,28.987,143.56,58.004,215.382,86.904
		c3.288,1.323,4.466,2.88,4.398,6.531c-0.316,17.027,1.162,33.854,8.927,49.391c11.105,22.219,31.052,30.629,55.276,24.64
		c28.589-7.068,47.98-25.413,63.055-49.461c16.909-26.975,28.549-56.381,38.903-86.269c23.256-67.132,46.059-134.421,69.037-201.65
		c0.428-1.252,0.743-2.542,1.36-4.672c-84.746-16.879-169.24-33.709-254.22-50.634c-1.56,4.187-3.092,8.194-4.549,12.229
		c-23.455,64.944-46.89,129.895-70.356,194.836c-4.412,12.209-14.071,17.884-24.735,14.667
		c-11.889-3.586-16.898-14.793-12.221-27.834c11.063-30.846,22.217-61.66,33.353-92.479c15.284-42.298,30.589-84.588,45.88-126.884
		c5.031-13.915,12.84-18.417,27.547-15.495c87.094,17.303,174.177,34.662,261.264,51.998c8.201,1.632,16.434,3.113,24.605,4.881
		c15.003,3.246,21.079,13.628,16.527,28.378c-5.374,17.412-10.823,34.802-16.453,52.133
		c-22.782,70.129-46.282,140.015-73.36,208.626c-11.209,28.402-24.724,55.628-44.123,79.587
		c-23.433,28.942-54.015,44.633-90.504,49.736c-21.161,2.959-40.934-2.174-59.928-10.715
		c-54.607-24.554-108.998-49.589-163.667-74.001c-15.727-7.023-29.864-15.682-40.625-29.338
		c-15.61-19.809-20.917-42.703-19.692-67.332C1.656,302.506,3.417,292.79,4.664,282.505z"/>
</g>
</svg>
