<?xml version="1.0" encoding="utf-8"?>
<!-- Generator: Adobe Illustrator 17.0.0, SVG Export Plug-In . SVG Version: 6.00 Build 0)  -->
<!DOCTYPE svg PUBLIC "-//W3C//DTD SVG 1.1//EN" "http://www.w3.org/Graphics/SVG/1.1/DTD/svg11.dtd">
<svg version="1.1" id="Layer_1" xmlns="http://www.w3.org/2000/svg" xmlns:xlink="http://www.w3.org/1999/xlink" x="0px" y="0px"
	 width="512px" height="512px" viewBox="0 0 512 512" enable-background="new 0 0 512 512" xml:space="preserve">
<g>
	<line fill="none" stroke="#B35047" x1="32" y1="0" x2="32" y2="512"/>
	<line fill="none" stroke="#B35047" x1="64" y1="0" x2="64" y2="512"/>
	<line fill="none" stroke="#B35047" x1="96" y1="0" x2="96" y2="512"/>
	<line fill="none" stroke="#B35047" x1="128" y1="0" x2="128" y2="512"/>
	<line fill="none" stroke="#B35047" x1="160" y1="0" x2="160" y2="512"/>
	<line fill="none" stroke="#B35047" x1="192" y1="0" x2="192" y2="512"/>
	<line fill="none" stroke="#B35047" x1="224" y1="0" x2="224" y2="512"/>
	<line fill="none" stroke="#B35047" x1="256" y1="0" x2="256" y2="512"/>
	<line fill="none" stroke="#B35047" x1="288" y1="0" x2="288" y2="512"/>
	<line fill="none" stroke="#B35047" x1="320" y1="0" x2="320" y2="512"/>
	<line fill="none" stroke="#B35047" x1="352" y1="0" x2="352" y2="512"/>
	<line fill="none" stroke="#B35047" x1="384" y1="0" x2="384" y2="512"/>
	<line fill="none" stroke="#B35047" x1="416" y1="0" x2="416" y2="512"/>
	<line fill="none" stroke="#B35047" x1="448" y1="0" x2="448" y2="512"/>
	<line fill="none" stroke="#B35047" x1="480" y1="0" x2="480" y2="512"/>
	<line fill="none" stroke="#B35047" x1="0" y1="32" x2="512" y2="32"/>
	<line fill="none" stroke="#B35047" x1="0" y1="64" x2="512" y2="64"/>
	<line fill="none" stroke="#B35047" x1="0" y1="96" x2="512" y2="96"/>
	<line fill="none" stroke="#B35047" x1="0" y1="128" x2="512" y2="128"/>
	<line fill="none" stroke="#B35047" x1="0" y1="160" x2="512" y2="160"/>
	<line fill="none" stroke="#B35047" x1="0" y1="192" x2="512" y2="192"/>
	<line fill="none" stroke="#B35047" x1="0" y1="224" x2="512" y2="224"/>
	<line fill="none" stroke="#B35047" x1="0" y1="256" x2="512" y2="256"/>
	<line fill="none" stroke="#B35047" x1="0" y1="288" x2="512" y2="288"/>
	<line fill="none" stroke="#B35047" x1="0" y1="320" x2="512" y2="320"/>
	<line fill="none" stroke="#B35047" x1="0" y1="352" x2="512" y2="352"/>
	<line fill="none" stroke="#B35047" x1="0" y1="384" x2="512" y2="384"/>
	<line fill="none" stroke="#B35047" x1="0" y1="416" x2="512" y2="416"/>
	<line fill="none" stroke="#B35047" x1="0" y1="448" x2="512" y2="448"/>
	<line fill="none" stroke="#B35047" x1="0" y1="480" x2="512" y2="480"/>
	<rect x="0" fill="none" stroke="#B35047" width="512" height="512"/>
</g>
<g>
	<path d="M290.086,1c50.137,0,100.273,0,150.41,0c4.673,1.528,9.538,2.636,13.985,4.661c14.864,6.77,23.724,19.28,30.623,33.392
		c8.966,18.339,13.623,38.003,17.059,57.977c5.442,31.644,7.131,63.608,7.515,95.648c0.522,43.512-0.632,86.939-8.585,129.888
		c-4.091,22.094-9.768,43.725-21.97,62.97c-10.356,16.333-24.404,27.038-44.674,27.066c-46.305,0.063-92.613,0.255-138.914-0.231
		c-7.885-0.083-16.361-1.935-23.489-5.269c-23.165-10.835-34.186-29.994-34.312-55.367c-0.156-31.202-0.039-62.405-0.039-93.608
		c0-65.061-0.04-130.122,0.019-195.183c0.028-30.484,17.513-53.397,45.727-60.26C285.661,2.143,287.871,1.562,290.086,1z
		 M374.754,59.672c-22.076,0-44.152-0.03-66.227,0.015c-8.284,0.017-12.268,3.846-12.322,12.155
		c-0.117,18.091-0.108,36.185-0.005,54.276c0.049,8.566,4.002,12.376,12.628,12.382c43.986,0.032,87.971,0.03,131.957,0.003
		c9.054-0.006,12.731-3.69,12.749-12.688c0.036-17.76,0.031-35.521,0.002-53.281c-0.015-9.336-3.586-12.847-13.052-12.857
		C418.574,59.656,396.664,59.671,374.754,59.672z M316.15,177.297c-2.82,0-5.643-0.089-8.459,0.017
		c-7.187,0.27-11.123,3.905-11.447,11.045c-0.271,5.959-0.291,11.953,0.027,17.908c0.356,6.672,4.052,10.353,10.742,10.682
		c6.121,0.302,12.287,0.329,18.403-0.037c6.652-0.398,10.222-4.267,10.453-10.958c0.205-5.964,0.236-11.95-0.02-17.911
		c-0.283-6.583-4.143-10.304-10.742-10.703C322.13,177.162,319.135,177.311,316.15,177.297z M394.729,197.365
		c0-2.654,0.042-5.308-0.008-7.961c-0.152-8.009-3.961-11.932-11.898-12.09c-5.471-0.109-10.95-0.149-16.418,0.018
		c-7.008,0.214-10.826,3.703-11.235,10.667c-0.349,5.95-0.322,11.947-0.041,17.903c0.341,7.229,4.089,10.812,11.357,11.094
		c5.299,0.206,10.615,0.136,15.92,0.03c8.525-0.17,12.228-4.042,12.321-12.696C394.751,202.009,394.73,199.687,394.729,197.365z
		 M453.541,197.307c0-2.819,0.059-5.64-0.012-8.458c-0.186-7.372-4.013-11.315-11.419-11.52c-5.634-0.156-11.281-0.165-16.914,0.006
		c-6.809,0.207-10.698,3.612-11.106,10.226c-0.388,6.277-0.37,12.61-0.033,18.891c0.36,6.698,4.045,10.198,10.836,10.516
		c5.792,0.272,11.614,0.253,17.409,0.017c7.428-0.303,11.072-4.255,11.231-11.718C453.59,202.615,453.542,199.96,453.541,197.307z
		 M394.726,256.147c0-2.819,0.075-5.641-0.014-8.458c-0.235-7.412-3.971-11.265-11.455-11.516
		c-5.632-0.189-11.282-0.203-16.913,0.01c-7.071,0.266-10.777,3.721-11.18,10.721c-0.343,5.95-0.324,11.947-0.031,17.902
		c0.357,7.237,4.122,10.783,11.415,11.022c5.633,0.184,11.283,0.21,16.913-0.009c7.415-0.289,11.055-4.201,11.257-11.711
		C394.788,261.455,394.728,258.8,394.726,256.147z M453.544,255.985c0-2.488,0.024-4.975-0.004-7.463
		c-0.096-8.334-3.819-12.204-12.096-12.373c-5.47-0.111-10.952-0.19-16.415,0.038c-6.816,0.285-10.567,3.708-10.953,10.382
		c-0.363,6.279-0.358,12.611,0.003,18.89c0.375,6.518,3.957,9.994,10.484,10.318c6.12,0.304,12.282,0.316,18.4-0.014
		c6.878-0.371,10.367-4.342,10.565-11.321C453.606,261.625,453.54,258.804,453.544,255.985z M335.917,314.943
		c0-2.82,0.088-5.643-0.017-8.459c-0.269-7.19-3.901-11.129-11.038-11.455c-5.959-0.272-11.953-0.291-17.908,0.025
		c-6.675,0.355-10.358,4.046-10.689,10.735c-0.303,6.121-0.329,12.287,0.035,18.403c0.396,6.654,4.26,10.227,10.951,10.459
		c5.964,0.207,11.95,0.236,17.911-0.019c6.586-0.282,10.309-4.137,10.71-10.735C336.053,320.923,335.903,317.928,335.917,314.943z
		 M374.668,334.708c2.654,0,5.308,0.049,7.961-0.009c8.034-0.176,11.941-3.989,12.082-11.909c0.094-5.306,0.095-10.616-0.001-15.921
		c-0.14-7.72-3.888-11.611-11.613-11.872c-5.467-0.185-10.95-0.185-16.417-0.001c-7.513,0.252-11.226,3.901-11.579,11.405
		c-0.226,4.799-0.082,9.617-0.058,14.427c0.052,10.474,3.519,13.863,14.152,13.883C371.019,334.713,372.844,334.71,374.668,334.708z
		 M453.541,314.994c0-2.819,0.059-5.64-0.012-8.458c-0.175-7.021-3.584-11.046-10.433-11.448
		c-6.279-0.368-12.615-0.362-18.893,0.021c-6.285,0.383-9.756,3.861-10.109,10.139c-0.362,6.443-0.364,12.943,0.035,19.383
		c0.385,6.226,4.051,9.698,10.27,9.981c6.288,0.286,12.614,0.309,18.898-0.02c6.314-0.331,9.915-4.31,10.209-10.644
		C453.645,320.97,453.531,317.98,453.541,314.994z M335.913,256.262c0-2.986,0.119-5.977-0.024-8.956
		c-0.331-6.912-3.959-10.774-10.865-11.098c-5.958-0.28-11.949-0.274-17.908-0.005c-6.727,0.304-10.459,3.894-10.829,10.583
		c-0.338,6.118-0.336,12.283-0.003,18.402c0.364,6.693,4.093,10.177,10.805,10.632c2.972,0.202,5.969,0.055,8.955,0.055
		C334.806,275.877,335.925,274.772,335.913,256.262z"/>
	<path d="M2.215,427.328c0-34.531,0-69.063,0-103.594c0.418-1.048,0.846-2.092,1.252-3.145c4.201-10.9,15.065-15.782,25.894-11.634
		c7.495,2.871,11.766,9.971,11.783,20.051c0.05,29.217-0.107,58.435,0.078,87.651c0.082,12.978,1.282,25.762,7.742,37.58
		c12.736,23.3,46.207,21.564,58.614,6.629c11.679-14.059,12.75-30.621,12.235-47.362c-6.6-1.373-12.747-2.059-18.498-3.951
		c-24.741-8.14-40.132-30.243-40.146-57.458c-0.051-96.782-0.02-193.564-0.015-290.345c0-1.493,0.03-2.989,0.113-4.48
		c1.471-26.462,19.187-47.92,44.868-54.359c2.547-0.639,5.095-1.274,7.643-1.911c17.266,0,34.531,0,51.797,0
		c5.213,1.503,10.59,2.592,15.61,4.581c23.04,9.129,36.598,30.392,36.667,57.407c0.091,35.673,0.024,71.347,0.024,107.021
		c0,60.23,0.057,120.461-0.023,180.691c-0.046,34.682-21.048,58.094-55.254,61.697c-3.192,0.336-3.527,1.814-3.764,4.476
		c-0.982,11.035-1.065,22.324-3.607,33.013c-6.261,26.329-20.954,46.368-47.175,56.101c-6.455,2.396-13.434,3.38-20.173,5.012
		c-4.98,0-9.961,0-14.941,0c-0.598-0.261-1.175-0.676-1.797-0.76c-36.667-4.984-56.814-27.564-65.589-61.953
		C3.809,441.461,3.295,434.322,2.215,427.328z"/>
	<path display="none" fill="#FFFFFF" d="M580.534,76.841c0.275-0.067,0.559-0.107,0.823-0.204c1.069-0.397,1.669-1.214,1.924-2.288
		c0.104-0.436,0.107-0.896,0.147-1.346c0.01-0.109,0.023-0.169,0.154-0.183c1.395-0.147,2.252-1.102,2.253-2.516
		c0.003-2.456,0.001-4.913,0.001-7.369c0-1.455,0.003-2.91-0.001-4.365c-0.003-1.102-0.556-1.969-1.495-2.341
		c-0.205-0.081-0.424-0.126-0.637-0.187c1.693,0,3.385,0,5.078,0c-0.09,0.023-0.18,0.047-0.271,0.069
		c-1.151,0.28-1.864,1.214-1.865,2.458c-0.002,2.653-0.001,5.307-0.001,7.96c0,1.273-0.005,2.545,0.002,3.818
		c0.005,1.035,0.455,1.816,1.399,2.258c0.291,0.136,0.636,0.212,0.958,0.215c1.888,0.02,3.777,0.012,5.665,0.009
		c0.827-0.001,1.4-0.438,1.822-1.104c0.498-0.785,0.729-1.667,0.896-2.568c0.324-1.752,0.371-3.523,0.35-5.297
		c-0.016-1.307-0.085-2.61-0.307-3.901c-0.14-0.815-0.33-1.617-0.696-2.365c-0.281-0.576-0.643-1.086-1.249-1.362
		c-0.181-0.083-0.38-0.128-0.57-0.19c0.975,0,1.95,0,2.925,0c0,6.933,0,13.867,0,20.8C592.072,76.841,586.303,76.841,580.534,76.841
		z"/>
	<path display="none" fill="#FFFFFF" d="M581.591,56.041c-0.104,0.026-0.208,0.052-0.312,0.078c-1.047,0.263-1.77,1.138-1.83,2.217
		c-0.003,0.061-0.005,0.122-0.005,0.183c0,3.947-0.001,7.894,0.001,11.842c0.001,1.11,0.628,2.011,1.637,2.343
		c0.235,0.077,0.485,0.105,0.754,0.161c0.021,0.683-0.023,1.358-0.499,1.932c-0.506,0.609-1.871,0.68-2.391-0.27
		c-0.263-0.482-0.312-1.003-0.316-1.533c-0.008-1.192-0.001-2.383-0.003-3.575c-0.001-0.411-0.175-0.701-0.481-0.818
		c-0.442-0.169-0.885,0.03-1.056,0.474c-0.017,0.043-0.034,0.086-0.051,0.128c0-4.382,0-8.765,0-13.162
		C578.557,56.041,580.074,56.041,581.591,56.041z"/>
	<path display="none" fill="#FFFFFF" d="M577.041,73.428c0.044,0.285,0.065,0.576,0.136,0.855c0.358,1.403,1.18,2.323,2.675,2.527
		c0.025,0.003,0.049,0.02,0.073,0.031c-0.958,0-1.917,0-2.884,0C577.041,75.703,577.041,74.566,577.041,73.428z"/>
	<path display="none" fill="#FFFFFF" d="M592.234,58.433c0.894,0,1.787-0.001,2.681,0c0.386,0,0.532,0.144,0.532,0.524
		c0.001,0.724,0.001,1.449,0,2.173c-0.001,0.367-0.151,0.517-0.52,0.517c-1.794,0.001-3.588,0.001-5.382,0
		c-0.352,0-0.513-0.156-0.515-0.505c-0.004-0.738-0.005-1.476,0-2.214c0.002-0.339,0.165-0.495,0.503-0.496
		C590.434,58.432,591.334,58.434,592.234,58.433z"/>
	<path display="none" fill="#FFFFFF" d="M589.844,63.231c0.122,0,0.244-0.006,0.365,0.002c0.269,0.016,0.427,0.168,0.438,0.437
		c0.01,0.243,0.009,0.487,0.001,0.73c-0.009,0.273-0.155,0.431-0.426,0.447c-0.249,0.015-0.501,0.014-0.751,0.002
		c-0.273-0.013-0.424-0.164-0.438-0.436c-0.013-0.243-0.012-0.487-0.001-0.73c0.013-0.291,0.174-0.439,0.467-0.45
		C589.614,63.227,589.729,63.231,589.844,63.231z"/>
	<path display="none" fill="#FFFFFF" d="M593.049,64.049c0,0.095,0.001,0.189,0,0.284c-0.004,0.353-0.155,0.511-0.503,0.518
		c-0.216,0.004-0.433,0.007-0.649-0.001c-0.296-0.012-0.449-0.158-0.463-0.452c-0.011-0.243-0.013-0.487,0.002-0.73
		c0.017-0.284,0.172-0.426,0.458-0.435c0.223-0.007,0.446-0.005,0.67-0.001c0.324,0.006,0.479,0.166,0.485,0.493
		C593.051,63.833,593.049,63.941,593.049,64.049z"/>
	<path display="none" fill="#FFFFFF" d="M595.448,64.047c0,0.108,0.002,0.216,0,0.325c-0.006,0.304-0.155,0.466-0.458,0.478
		c-0.236,0.01-0.474,0.01-0.71-0.001c-0.277-0.013-0.427-0.156-0.442-0.429c-0.014-0.256-0.014-0.514,0.001-0.77
		c0.017-0.27,0.175-0.409,0.453-0.417c0.23-0.007,0.46-0.007,0.69,0c0.302,0.008,0.458,0.169,0.466,0.47
		C595.45,63.817,595.448,63.932,595.448,64.047z"/>
	<path display="none" fill="#FFFFFF" d="M593.049,66.447c0,0.108,0.002,0.217,0,0.325c-0.008,0.306-0.157,0.466-0.459,0.478
		c-0.23,0.009-0.46,0.008-0.69,0c-0.297-0.01-0.451-0.154-0.466-0.45c-0.012-0.243-0.013-0.487,0.001-0.73
		c0.016-0.285,0.168-0.426,0.456-0.437c0.23-0.009,0.46-0.008,0.69,0c0.305,0.01,0.458,0.167,0.467,0.47
		C593.052,66.217,593.049,66.332,593.049,66.447z"/>
	<path display="none" fill="#FFFFFF" d="M595.448,66.44c0,0.115,0.003,0.23-0.001,0.345c-0.008,0.285-0.15,0.447-0.431,0.462
		c-0.25,0.013-0.501,0.013-0.75,0.001c-0.266-0.013-0.412-0.155-0.428-0.421c-0.015-0.256-0.015-0.514,0-0.77
		c0.016-0.272,0.169-0.412,0.447-0.423c0.223-0.009,0.446-0.006,0.669-0.002c0.338,0.007,0.489,0.165,0.493,0.505
		C595.449,66.237,595.448,66.339,595.448,66.44z"/>
	<path display="none" fill="#FFFFFF" d="M590.65,68.845c0,0.122,0.006,0.244-0.002,0.365c-0.016,0.269-0.168,0.426-0.437,0.438
		c-0.243,0.01-0.487,0.009-0.73,0.001c-0.273-0.009-0.43-0.155-0.447-0.427c-0.015-0.249-0.014-0.501-0.001-0.751
		c0.013-0.273,0.164-0.423,0.436-0.438c0.243-0.013,0.487-0.012,0.73-0.001c0.291,0.013,0.439,0.174,0.45,0.467
		C590.654,68.614,590.65,68.73,590.65,68.845z"/>
	<path display="none" fill="#FFFFFF" d="M592.231,69.651c-0.074,0-0.149,0-0.223,0c-0.434-0.001-0.575-0.139-0.577-0.566
		c-0.001-0.196-0.007-0.393,0.002-0.588c0.014-0.306,0.166-0.455,0.472-0.465c0.223-0.007,0.447-0.007,0.669,0
		c0.315,0.011,0.468,0.169,0.474,0.484c0.004,0.216,0.004,0.433,0,0.649c-0.006,0.323-0.165,0.479-0.493,0.486
		C592.447,69.653,592.339,69.651,592.231,69.651z"/>
	<path display="none" fill="#FFFFFF" d="M595.447,68.847c0,0.122,0.004,0.244-0.001,0.365c-0.012,0.258-0.159,0.421-0.416,0.434
		c-0.256,0.013-0.514,0.012-0.771,0.001c-0.254-0.012-0.403-0.153-0.419-0.407c-0.016-0.263-0.016-0.528-0.001-0.791
		c0.014-0.256,0.156-0.398,0.412-0.414c0.256-0.016,0.514-0.016,0.771-0.001c0.279,0.016,0.418,0.181,0.425,0.467
		C595.45,68.617,595.448,68.732,595.447,68.847z"/>
	<path display="none" fill="#FFFFFF" d="M590.651,66.451c0,0.755-0.045,0.8-0.811,0.8c-0.122,0-0.244,0.006-0.365-0.002
		c-0.274-0.019-0.426-0.161-0.441-0.434c-0.014-0.25-0.014-0.501,0-0.75c0.015-0.273,0.167-0.419,0.442-0.432
		c0.243-0.011,0.487-0.011,0.73,0c0.282,0.013,0.43,0.171,0.443,0.453C590.655,66.208,590.65,66.33,590.651,66.451z"/>
</g>
<g display="none">
	<path display="inline" d="M511,256.502c0,54.453,0,108.906,0,163.359c-0.302,0.566-0.769,1.1-0.883,1.701
		c-5.931,31.237-28.569,50.031-60.45,50.068c-31.697,0.037-63.394,0.009-95.091,0.009c-97.746,0-195.492,0.033-293.238-0.023
		c-29.178-0.017-51.946-17.856-58.69-45.655c-0.496-2.046-1.096-4.068-1.648-6.1c0-54.453,0-108.906,0-163.359
		c32.462,0,64.924,0,97.827,0c0,9.286-0.091,17.894,0.025,26.5c0.119,8.776,3.826,12.431,12.464,12.462
		c11.62,0.042,23.241,0.058,34.862-0.007c7.85-0.044,11.545-3.624,11.963-11.456c0.124-2.318,0.035-4.647,0.035-6.971
		c0.002-6.735,0.001-13.471,0.001-20.234c65.604,0,130.405,0,195.649,0c0,8.996-0.091,17.604,0.026,26.209
		c0.119,8.775,3.828,12.427,12.467,12.458c11.454,0.042,22.909,0.041,34.364,0c8.47-0.03,12.161-3.595,12.474-11.964
		c0.081-2.155,0.019-4.316,0.019-6.474c0.001-6.735,0-13.47,0-20.524C446.321,256.502,478.66,256.502,511,256.502z"/>
	<path fill="#FFFFFF" d="M577.041,62.987c0-2.313,0-4.625,0-6.947c2.83,0,5.66,0,8.491,0c-0.044,0.014-0.087,0.033-0.133,0.041
		c-2.076,0.356-2.914,2.055-2.761,3.912c0.436,0.022,0.875,0.044,1.313,0.065c0.073,0.003,0.145,0,0.239,0
		c0.014-0.277,0.03-0.539,0.039-0.801c0.032-0.928,0.679-1.604,1.606-1.623c1.069-0.021,2.139-0.021,3.208,0
		c0.928,0.019,1.574,0.694,1.606,1.623c0.009,0.262,0.026,0.524,0.04,0.812c0.537-0.027,1.052-0.053,1.584-0.079
		c-0.009-0.164-0.017-0.298-0.024-0.433c-0.007-0.135-0.012-0.27-0.02-0.405c-0.071-1.261-0.66-2.2-1.787-2.769
		c-0.337-0.17-0.727-0.233-1.093-0.344c2.83,0,5.66,0,8.491,0c0,2.316,0,4.631,0,6.947c-0.066-0.226-0.106-0.463-0.202-0.675
		c-0.45-0.991-1.241-1.467-2.319-1.467c-4.792-0.002-9.584-0.001-14.377-0.001c-0.487,0-0.975-0.005-1.462,0.001
		c-1.176,0.015-2.1,0.746-2.373,1.869C577.086,62.806,577.063,62.897,577.041,62.987z"/>
	<path fill="#FFFFFF" d="M577.041,71.519c0.022,0.083,0.047,0.165,0.067,0.249c0.275,1.134,1.204,1.861,2.394,1.862
		c3.987,0.002,7.973,0.001,11.959,0.001c1.293,0,2.586,0.001,3.878,0c1.3-0.002,2.224-0.768,2.465-2.042
		c0.005-0.025,0.024-0.046,0.036-0.069c0,1.774,0,3.548,0,5.322c-6.933,0-13.867,0-20.8,0
		C577.041,75.067,577.041,73.293,577.041,71.519z"/>
	<path display="inline" d="M1,210.682c0.552-2.229,1.112-4.457,1.653-6.689c6.686-27.548,29.345-45.466,58.175-45.838
		c11.947-0.154,23.898-0.031,35.848-0.031c117.501,0,235.003-0.034,352.504,0.027c26.429,0.014,45.817,11.672,56.858,35.973
		c2.362,5.198,3.344,11.022,4.962,16.557c0,8.633,0,17.266,0,25.898c-32.465,0-64.93,0-97.825,0c0-2.972,0.042-5.109-0.007-7.244
		c-0.205-8.931-3.929-12.644-12.86-12.684c-11.285-0.05-22.57-0.059-33.855,0.004c-8.457,0.047-12.261,3.683-12.606,11.924
		c-0.102,2.434-0.016,4.875-0.016,7.571c-65.431,0-130.231,0-195.659,0c0-2.53,0.055-4.803-0.01-7.073
		c-0.246-8.634-3.991-12.373-12.616-12.421c-11.451-0.064-22.902-0.076-34.353,0.005c-8.309,0.059-12.067,3.829-12.353,12.177
		c-0.082,2.404-0.013,4.813-0.013,7.578c-2.798,0-4.763-0.003-6.729,0c-30.367,0.054-60.734,0.109-91.1,0.163
		C1,227.948,1,219.315,1,210.682z"/>
	<path fill="#FFFFFF" d="M577.041,64.044c1.238-0.002,2.477-0.004,3.715-0.007c0.08,0,0.16,0,0.274,0c0-0.113-0.003-0.211,0-0.309
		c0.012-0.34,0.165-0.494,0.504-0.497c0.467-0.003,0.934-0.003,1.401,0c0.352,0.002,0.505,0.154,0.515,0.507
		c0.003,0.093,0,0.185,0,0.288c2.668,0,5.311,0,7.98,0c0-0.11-0.004-0.21,0.001-0.309c0.014-0.336,0.169-0.484,0.514-0.486
		c0.46-0.003,0.92-0.002,1.381,0c0.364,0.002,0.516,0.153,0.524,0.517c0.002,0.087,0,0.174,0,0.295c1.342,0,2.666,0,3.99,0
		c0,0.271,0,0.542,0,0.813c-1.319,0-2.638,0-3.99,0c0,0.288,0,0.562,0,0.837c0,0.088,0.003,0.176-0.001,0.264
		c-0.013,0.341-0.163,0.487-0.509,0.488c-0.467,0.002-0.934,0.002-1.401,0c-0.352-0.001-0.504-0.15-0.508-0.508
		c-0.005-0.351-0.001-0.702-0.001-1.069c-2.661,0-5.304,0-7.979,0c0,0.276,0,0.551,0,0.825c0,0.095,0.004,0.19-0.001,0.284
		c-0.017,0.319-0.168,0.465-0.488,0.467c-0.474,0.003-0.948,0.002-1.422,0c-0.352-0.001-0.503-0.15-0.508-0.508
		c-0.005-0.351-0.001-0.702-0.001-1.081c-1.342,0-2.666,0-3.99,0C577.041,64.585,577.041,64.315,577.041,64.044z"/>
	<path display="inline" d="M302.816,40.35c8.971,2.741,18.547,4.281,26.801,8.443c27.627,13.929,42.073,36.954,43.819,67.882
		c0.187,3.313,0.313,6.629,0.487,9.943c0.172,3.29,0.369,6.579,0.597,10.607c-13.024,0.65-25.652,1.28-38.83,1.938
		c-0.353-7.065-0.756-13.48-0.979-19.901c-0.79-22.764-16.638-39.33-39.385-39.787c-26.208-0.527-52.444-0.526-78.652,0
		c-22.746,0.456-38.595,17.023-39.386,39.787c-0.223,6.421-0.626,12.836-0.966,19.632c-2.307,0-4.092,0.073-5.87-0.012
		c-10.756-0.515-21.51-1.067-32.206-1.603c-3.77-45.539,16.773-87.186,67.688-95.92c1.108-0.19,2.167-0.666,3.25-1.009
		C240.395,40.35,271.605,40.35,302.816,40.35z"/>
</g>
<g display="none">
	<path display="inline" d="M133.48,1C215.16,1,296.84,1,378.52,1c0.911,0.317,1.8,0.806,2.737,0.927
		c14.604,1.882,26.579,8.579,36.265,19.581c10.885,12.365,14.653,27.052,14.586,43.162c-0.121,29.016-0.034,58.033-0.034,87.05
		c0,1.941,0,3.883,0,6.581c7.826,0,15.086-0.23,22.327,0.041c26.394,0.989,48.137,18.703,54.605,44.271
		c0.64,2.529,1.329,5.045,1.994,7.567c0,43.496,0,86.992,0,130.488c-0.55,2.226-1.109,4.45-1.65,6.679
		c-6.672,27.497-29.305,45.403-58.049,45.858c-6.24,0.099-12.484,0.014-19.228,0.014c0,2.552,0.021,4.498-0.003,6.443
		c-0.252,19.869,0.299,39.791-1.003,59.592c-1.227,18.671-11.097,33.291-27.242,42.549c-7.671,4.399-16.824,6.213-25.305,9.198
		c-81.68,0-163.359,0-245.039,0c-5.272-1.304-10.63-2.336-15.801-3.961c-19.681-6.186-36.906-27.633-37.748-48.19
		c-0.808-19.715-0.542-39.474-0.742-59.214c-0.02-1.941-0.003-3.883-0.003-6.416c-6.505,0-12.432,0.074-18.357-0.013
		c-28.822-0.421-51.492-18.31-58.176-45.85c-0.542-2.232-1.102-4.459-1.653-6.689c0-43.496,0-86.992,0-130.488
		c0.321-0.74,0.805-1.451,0.938-2.224c4.458-25.882,22.497-44.488,48.36-48.849c7.614-1.284,15.552-0.945,23.333-0.822
		c4.286,0.068,5.687-1.048,5.657-5.538c-0.196-30.046-0.172-60.095-0.078-90.142c0.075-23.796,9.575-42.606,30.901-53.976
		C117.232,4.832,125.654,3.473,133.48,1z M118.507,295.543c-0.132,1.393-0.277,2.205-0.277,3.017
		c-0.009,50.622-0.091,101.245,0.05,151.866c0.038,13.823,8.109,21.557,22.412,21.574c76.514,0.094,153.028,0.058,229.543,0.021
		c5.722-0.003,11.205-1.024,15.799-4.926c6.051-5.14,7.089-12.026,7.086-19.366c-0.016-48.962-0.005-97.925-0.022-146.887
		c-0.001-1.742-0.213-3.485-0.331-5.3C301.085,295.543,210.011,295.543,118.507,295.543z M118.451,157.309
		c91.822,0,183.012,0,274.281,0c0.155-1.068,0.329-1.713,0.33-2.358c0.019-31.044,0.22-62.09-0.177-93.128
		c-0.062-4.815-1.988-10.156-4.605-14.264c-4.229-6.638-11.645-7.604-19.009-7.604c-75.7-0.006-151.401-0.018-227.101,0.008
		c-16.48,0.006-23.933,7.547-23.949,24.125c-0.027,29.384-0.011,58.767,0.002,88.151
		C118.224,153.859,118.365,155.481,118.451,157.309z M393.273,226.462c-0.046,16.231,13.048,29.512,29.218,29.636
		c16.326,0.125,29.894-13.374,29.805-29.654c-0.089-16.166-13.366-29.332-29.577-29.329
		C406.462,197.117,393.319,210.216,393.273,226.462z"/>
	<path fill="#FFFFFF" d="M597.841,64.572c-0.027-0.103-0.055-0.205-0.081-0.309c-0.264-1.043-1.151-1.765-2.227-1.806
		c-0.295-0.011-0.591-0.002-0.911-0.002c0-0.11,0-0.189,0-0.268c0-1.183-0.004-2.367,0.001-3.55c0.003-0.657-0.151-1.256-0.595-1.76
		c-0.395-0.449-0.883-0.722-1.479-0.799c-0.038-0.005-0.074-0.025-0.112-0.038c1.801,0,3.602,0,5.403,0
		C597.841,58.884,597.841,61.728,597.841,64.572z"/>
	<path fill="#FFFFFF" d="M582.444,56.041c-0.319,0.101-0.663,0.156-0.953,0.311c-0.87,0.464-1.257,1.231-1.26,2.201
		c-0.004,1.225-0.005,2.451,0.003,3.676c0.001,0.183-0.056,0.229-0.231,0.226c-0.317-0.005-0.641-0.019-0.952,0.034
		c-1.055,0.178-1.79,0.937-1.972,1.992c-0.005,0.031-0.025,0.061-0.038,0.091c0-2.84,0-5.679,0-8.531
		C578.842,56.041,580.643,56.041,582.444,56.041z"/>
	<path fill="#FFFFFF" d="M592.438,76.841c0.346-0.122,0.719-0.196,1.032-0.375c0.658-0.378,1.061-0.974,1.111-1.735
		c0.053-0.808,0.031-1.62,0.041-2.43c0.001-0.079,0-0.159,0-0.263c0.275,0,0.53,0.003,0.784-0.001
		c1.172-0.019,2.095-0.749,2.367-1.87c0.022-0.091,0.045-0.182,0.067-0.272c0,2.316,0,4.631,0,6.947
		C596.04,76.841,594.239,76.841,592.438,76.841z"/>
	<path fill="#FFFFFF" d="M577.041,69.894c0.022,0.091,0.045,0.182,0.067,0.273c0.273,1.123,1.197,1.853,2.373,1.87
		c0.242,0.004,0.483,0.001,0.749,0.001c0,0.103-0.001,0.183,0,0.262c0.008,0.805-0.003,1.611,0.03,2.415
		c0.034,0.838,0.737,1.713,1.54,1.965c0.211,0.066,0.429,0.108,0.644,0.162c-1.801,0-3.602,0-5.403,0
		C577.041,74.525,577.041,72.209,577.041,69.894z"/>
	<path fill="#FFFFFF" d="M581.833,68.053c3.732,0,7.446,0,11.185,0c0.005,0.074,0.013,0.145,0.013,0.216
		c0.001,1.997,0,3.994,0.001,5.991c0,0.299-0.042,0.58-0.289,0.79c-0.187,0.159-0.411,0.201-0.644,0.201
		c-3.121,0.002-6.241,0.003-9.362-0.001c-0.583-0.001-0.913-0.316-0.914-0.88c-0.006-2.065-0.002-4.129-0.002-6.194
		C581.822,68.143,581.828,68.11,581.833,68.053z M583.464,71.218c2.663,0,5.305,0,7.952,0c0-0.525,0-1.035,0-1.556
		c-2.655,0-5.297,0-7.952,0C583.464,70.183,583.464,70.694,583.464,71.218z M583.467,72.061c0,0.532,0,1.043,0,1.556
		c1.858,0,3.701,0,5.551,0c0-0.524,0-1.034,0-1.556C587.164,72.061,585.322,72.061,583.467,72.061z"/>
	<path fill="#FFFFFF" d="M581.831,62.416c-0.003-0.075-0.009-0.141-0.009-0.207c-0.001-1.198-0.001-2.397,0-3.595
		c0.001-0.676,0.305-0.984,0.977-0.984c3.087-0.001,6.175-0.001,9.262,0c0.3,0,0.603,0.039,0.775,0.31
		c0.107,0.168,0.185,0.385,0.188,0.582c0.016,1.266,0.008,2.532,0.007,3.798c0,0.026-0.007,0.053-0.013,0.096
		C589.295,62.416,585.576,62.416,581.831,62.416z"/>
	<path fill="#FFFFFF" d="M593.039,65.236c0.002-0.663,0.538-1.197,1.201-1.197c0.661,0,1.203,0.537,1.206,1.196
		c0.004,0.664-0.55,1.215-1.216,1.209C593.571,66.44,593.037,65.898,593.039,65.236z"/>
	<path display="inline" d="M158.507,373.142c0-12.865,0-25.383,0-38.164c65.106,0,129.884,0,194.989,0c0,12.784,0,25.302,0,38.164
		C288.578,373.142,223.799,373.142,158.507,373.142z"/>
	<path display="inline" d="M158.572,393.799c45.47,0,90.642,0,136.095,0c0,12.797,0,25.311,0,38.159c-45.363,0-90.532,0-136.095,0
		C158.572,419.365,158.572,406.853,158.572,393.799z"/>
</g>
</svg>
