<?xml version="1.0" encoding="utf-8"?>
<!-- Generator: Adobe Illustrator 17.0.0, SVG Export Plug-In . SVG Version: 6.00 Build 0)  -->
<!DOCTYPE svg PUBLIC "-//W3C//DTD SVG 1.1//EN" "http://www.w3.org/Graphics/SVG/1.1/DTD/svg11.dtd">
<svg version="1.1" id="Layer_1" xmlns="http://www.w3.org/2000/svg" xmlns:xlink="http://www.w3.org/1999/xlink" x="0px" y="0px"
	 width="512px" height="512px" viewBox="0 0 512 512" enable-background="new 0 0 512 512" xml:space="preserve">
<g>
	<line fill="none" stroke="#B35047" x1="32" y1="0" x2="32" y2="512"/>
	<line fill="none" stroke="#B35047" x1="64" y1="0" x2="64" y2="512"/>
	<line fill="none" stroke="#B35047" x1="96" y1="0" x2="96" y2="512"/>
	<line fill="none" stroke="#B35047" x1="128" y1="0" x2="128" y2="512"/>
	<line fill="none" stroke="#B35047" x1="160" y1="0" x2="160" y2="512"/>
	<line fill="none" stroke="#B35047" x1="192" y1="0" x2="192" y2="512"/>
	<line fill="none" stroke="#B35047" x1="224" y1="0" x2="224" y2="512"/>
	<line fill="none" stroke="#B35047" x1="256" y1="0" x2="256" y2="512"/>
	<line fill="none" stroke="#B35047" x1="288" y1="0" x2="288" y2="512"/>
	<line fill="none" stroke="#B35047" x1="320" y1="0" x2="320" y2="512"/>
	<line fill="none" stroke="#B35047" x1="352" y1="0" x2="352" y2="512"/>
	<line fill="none" stroke="#B35047" x1="384" y1="0" x2="384" y2="512"/>
	<line fill="none" stroke="#B35047" x1="416" y1="0" x2="416" y2="512"/>
	<line fill="none" stroke="#B35047" x1="448" y1="0" x2="448" y2="512"/>
	<line fill="none" stroke="#B35047" x1="480" y1="0" x2="480" y2="512"/>
	<line fill="none" stroke="#B35047" x1="0" y1="32" x2="512" y2="32"/>
	<line fill="none" stroke="#B35047" x1="0" y1="64" x2="512" y2="64"/>
	<line fill="none" stroke="#B35047" x1="0" y1="96" x2="512" y2="96"/>
	<line fill="none" stroke="#B35047" x1="0" y1="128" x2="512" y2="128"/>
	<line fill="none" stroke="#B35047" x1="0" y1="160" x2="512" y2="160"/>
	<line fill="none" stroke="#B35047" x1="0" y1="192" x2="512" y2="192"/>
	<line fill="none" stroke="#B35047" x1="0" y1="224" x2="512" y2="224"/>
	<line fill="none" stroke="#B35047" x1="0" y1="256" x2="512" y2="256"/>
	<line fill="none" stroke="#B35047" x1="0" y1="288" x2="512" y2="288"/>
	<line fill="none" stroke="#B35047" x1="0" y1="320" x2="512" y2="320"/>
	<line fill="none" stroke="#B35047" x1="0" y1="352" x2="512" y2="352"/>
	<line fill="none" stroke="#B35047" x1="0" y1="384" x2="512" y2="384"/>
	<line fill="none" stroke="#B35047" x1="0" y1="416" x2="512" y2="416"/>
	<line fill="none" stroke="#B35047" x1="0" y1="448" x2="512" y2="448"/>
	<line fill="none" stroke="#B35047" x1="0" y1="480" x2="512" y2="480"/>
	<rect x="0" fill="none" stroke="#B35047" width="512" height="512"/>
</g>
<g>
	<path display="none" fill="#FFFFFF" d="M409.835,129.841c-6.929,0-13.86,0-20.793,0c0-6.931,0-13.862,0-20.796
		c6.928,0,13.857,0,20.793,0C409.835,115.974,409.835,122.907,409.835,129.841z M389.974,115.403
		c0.036,0.39,0.053,0.784,0.111,1.171c0.242,1.612,0.896,3.068,1.736,4.447c1.009,1.656,2.238,3.14,3.595,4.519
		c1.177,1.197,2.459,2.265,3.949,3.059c1.24,0.661,2.548,1.079,3.97,1.083c1.171,0.003,2.257-0.289,3.269-0.877
		c0.735-0.427,1.32-1.033,1.941-1.595c0.659-0.597,0.707-1.293,0.179-2.007c-0.645-0.87-1.505-1.512-2.345-2.173
		c-0.237-0.187-0.506-0.34-0.777-0.475c-0.804-0.403-1.585-0.382-2.29,0.217c-0.438,0.372-0.851,0.773-1.269,1.168
		c-0.408,0.385-0.878,0.541-1.433,0.422c-0.655-0.141-1.189-0.508-1.696-0.918c-0.932-0.753-1.719-1.648-2.457-2.585
		c-0.546-0.692-1.05-1.414-1.344-2.256c-0.322-0.922-0.211-1.663,0.651-2.26c0.437-0.303,0.839-0.663,1.227-1.029
		c0.498-0.47,0.695-1.071,0.539-1.739c-0.097-0.416-0.237-0.838-0.443-1.21c-0.531-0.957-1.067-1.918-1.867-2.691
		c-0.605-0.585-1.298-0.629-1.953-0.106c-0.449,0.359-0.883,0.737-1.314,1.118c-0.172,0.152-0.324,0.327-0.472,0.503
		C390.46,112.406,390.001,113.825,389.974,115.403z"/>
	<path d="M493.949,356.575c-0.658,39.294-12.09,74.633-37.509,104.983c-3.673,4.385-7.48,8.747-11.753,12.524
		c-10.731,9.485-21.543,18.905-32.728,27.842c-16.315,13.035-33.591,11.922-48.646-2.64c-19.91-19.257-33.266-43.175-46.485-67.011
		c-5.136-9.262-8.628-19.768-11.041-30.133c-3.872-16.63,1.036-31.593,13.433-43.301c9.655-9.119,19.674-18.075,30.559-25.62
		c21.453-14.871,24.216-33.333,16.202-56.288c-7.318-20.961-19.877-38.962-33.464-56.187c-18.4-23.326-37.989-45.621-61.201-64.378
		c-12.627-10.204-25.929-19.348-42.238-22.867c-13.821-2.982-25.518,0.912-35.682,10.498c-10.415,9.822-20.692,19.828-31.598,29.083
		c-17.569,14.91-37.009,15.442-57.033,5.409c-6.745-3.38-13.447-7.187-19.353-11.836c-20.906-16.456-42.332-32.444-58.395-54.122
		c-13.162-17.762-11.961-35.114,4.446-49.975c15.447-13.991,30.028-29.086,48.332-39.711c25.218-14.639,52.256-21.926,81.416-21.842
		c35.415,0.101,67.979,10.498,98.864,26.961c37.109,19.78,69.034,46.377,98.354,76.183c33.782,34.341,64.394,71.291,89.521,112.529
		c20.925,34.342,37.204,70.589,43.234,110.739C492.63,337.055,493.054,346.85,493.949,356.575z"/>
</g>
</svg>
