<?xml version="1.0" encoding="utf-8"?>
<!-- Generator: Adobe Illustrator 17.0.0, SVG Export Plug-In . SVG Version: 6.00 Build 0)  -->
<!DOCTYPE svg PUBLIC "-//W3C//DTD SVG 1.1//EN" "http://www.w3.org/Graphics/SVG/1.1/DTD/svg11.dtd">
<svg version="1.1" id="Layer_1" xmlns="http://www.w3.org/2000/svg" xmlns:xlink="http://www.w3.org/1999/xlink" x="0px" y="0px"
	 width="512px" height="512px" viewBox="0 0 512 512" enable-background="new 0 0 512 512" xml:space="preserve">
<g>
	<line fill="none" stroke="#B35047" x1="32" y1="0" x2="32" y2="512"/>
	<line fill="none" stroke="#B35047" x1="64" y1="0" x2="64" y2="512"/>
	<line fill="none" stroke="#B35047" x1="96" y1="0" x2="96" y2="512"/>
	<line fill="none" stroke="#B35047" x1="128" y1="0" x2="128" y2="512"/>
	<line fill="none" stroke="#B35047" x1="160" y1="0" x2="160" y2="512"/>
	<line fill="none" stroke="#B35047" x1="192" y1="0" x2="192" y2="512"/>
	<line fill="none" stroke="#B35047" x1="224" y1="0" x2="224" y2="512"/>
	<line fill="none" stroke="#B35047" x1="256" y1="0" x2="256" y2="512"/>
	<line fill="none" stroke="#B35047" x1="288" y1="0" x2="288" y2="512"/>
	<line fill="none" stroke="#B35047" x1="320" y1="0" x2="320" y2="512"/>
	<line fill="none" stroke="#B35047" x1="352" y1="0" x2="352" y2="512"/>
	<line fill="none" stroke="#B35047" x1="384" y1="0" x2="384" y2="512"/>
	<line fill="none" stroke="#B35047" x1="416" y1="0" x2="416" y2="512"/>
	<line fill="none" stroke="#B35047" x1="448" y1="0" x2="448" y2="512"/>
	<line fill="none" stroke="#B35047" x1="480" y1="0" x2="480" y2="512"/>
	<line fill="none" stroke="#B35047" x1="0" y1="32" x2="512" y2="32"/>
	<line fill="none" stroke="#B35047" x1="0" y1="64" x2="512" y2="64"/>
	<line fill="none" stroke="#B35047" x1="0" y1="96" x2="512" y2="96"/>
	<line fill="none" stroke="#B35047" x1="0" y1="128" x2="512" y2="128"/>
	<line fill="none" stroke="#B35047" x1="0" y1="160" x2="512" y2="160"/>
	<line fill="none" stroke="#B35047" x1="0" y1="192" x2="512" y2="192"/>
	<line fill="none" stroke="#B35047" x1="0" y1="224" x2="512" y2="224"/>
	<line fill="none" stroke="#B35047" x1="0" y1="256" x2="512" y2="256"/>
	<line fill="none" stroke="#B35047" x1="0" y1="288" x2="512" y2="288"/>
	<line fill="none" stroke="#B35047" x1="0" y1="320" x2="512" y2="320"/>
	<line fill="none" stroke="#B35047" x1="0" y1="352" x2="512" y2="352"/>
	<line fill="none" stroke="#B35047" x1="0" y1="384" x2="512" y2="384"/>
	<line fill="none" stroke="#B35047" x1="0" y1="416" x2="512" y2="416"/>
	<line fill="none" stroke="#B35047" x1="0" y1="448" x2="512" y2="448"/>
	<line fill="none" stroke="#B35047" x1="0" y1="480" x2="512" y2="480"/>
	<rect x="0" fill="none" stroke="#B35047" width="512" height="512"/>
</g>
<image display="none" overflow="visible" width="512" height="512" xlink:href="../../../Knowledge/Icon/[+++++] (Full) Windows 8 Icons [icons8]/Medicine/brain/brain-512_.png"  transform="matrix(0.0406 0 0 0.0406 627 45)">
</image>
<image display="none" overflow="visible" width="512" height="512" xlink:href="../../../Knowledge/Icon/[+++++] (Full) Windows 8 Icons [icons8]/Medicine/wipes/wipes-512.png"  transform="matrix(0.0406 0 0 0.0406 627 45)">
</image>
<g>
	<path display="none" fill="#FFFFFF" d="M647.841,65.84c-6.931,0-13.863,0-20.797,0c0-6.929,0-13.859,0-20.794
		c6.93,0,13.864,0,20.797,0C647.841,51.976,647.841,58.908,647.841,65.84z M647.739,50.839c-0.013-0.152-0.025-0.409-0.06-0.663
		c-0.364-2.678-2.477-4.746-5.15-4.999c-1.694-0.161-3.22,0.304-4.463,1.479c-1.367,1.292-2.682,2.641-4.014,3.97
		c-1.707,1.702-3.415,3.402-5.108,5.117c-0.34,0.344-0.65,0.729-0.91,1.137c-0.752,1.179-1.001,2.48-0.818,3.861
		c0.118,0.891,0.433,1.714,0.948,2.451c0.953,1.363,2.251,2.199,3.897,2.463c1.099,0.176,2.167,0.038,3.193-0.401
		c0.731-0.313,1.36-0.774,1.919-1.335c2.621-2.626,5.242-5.251,7.863-7.877c0.316-0.316,0.632-0.631,0.948-0.948
		C647.126,53.945,647.715,52.564,647.739,50.839z"/>
	<path d="M510.989,142.08c-0.594,42.737-15.191,76.975-43.5,105.4c-7.813,7.845-15.66,15.656-23.482,23.492
		c-64.945,65.057-129.891,130.114-194.83,195.178c-13.865,13.892-29.438,25.333-47.561,33.08
		c-25.414,10.864-51.883,14.295-79.114,9.929c-40.791-6.541-72.951-27.247-96.567-61.022
		c-12.764-18.255-20.568-38.663-23.498-60.735c-4.543-34.221,1.648-66.452,20.271-95.665c6.435-10.094,14.134-19.645,22.548-28.169
		c41.95-42.504,84.281-84.634,126.574-126.797c33.024-32.922,65.593-66.334,99.469-98.359
		C302.096,9.297,339.925-2.219,381.891,1.763c66.25,6.286,118.594,57.516,127.618,123.877
		C510.365,131.939,510.659,138.314,510.989,142.08z M350.113,308.943c0.933-0.768,1.61-1.237,2.184-1.811
		c29.66-29.649,59.399-59.219,88.929-88.998c17.636-17.784,27.917-39.34,29.925-64.299c2.526-31.388-6.836-59.108-28.926-81.741
		c-24.29-24.887-54.164-34.963-88.704-30.765c-24.627,2.994-45.026,14.384-62.311,31.874c-31.94,32.318-63.876,64.642-95.94,96.837
		c-37.761,37.914-75.865,75.489-113.413,113.612c-20.668,20.984-33.677,46.153-37.042,75.76c-1.059,9.321,0.087,18.452,3.896,27.811
		c63.501-63.501,126.46-126.461,189.898-189.899C275.873,234.628,312.923,271.715,350.113,308.943z"/>
	<path display="none" fill="#FFFFFF" d="M641.246,57.573c-1.501-1.502-2.996-2.999-4.5-4.505c-2.56,2.56-5.101,5.101-7.664,7.664
		c-0.154-0.378-0.2-0.746-0.157-1.122c0.136-1.195,0.661-2.211,1.495-3.058c1.515-1.539,3.053-3.055,4.577-4.585
		c1.294-1.299,2.583-2.604,3.872-3.908c0.698-0.706,1.521-1.166,2.515-1.286c1.394-0.169,2.6,0.237,3.58,1.242
		c0.892,0.913,1.269,2.032,1.167,3.299c-0.081,1.007-0.496,1.877-1.208,2.595c-1.192,1.202-2.392,2.395-3.589,3.592
		C641.311,57.523,641.284,57.542,641.246,57.573z"/>
</g>
<g display="none">
	<path fill="#FFFFFF" d="M266.4,53.044c0,4.266,0,8.531,0,12.797c-6.933,0-13.867,0-20.8,0c0-6.933,0-13.867,0-20.8
		c6.933,0,13.867,0,20.8,0c0,2.654,0,5.308,0,7.962c-0.013-0.078-0.034-0.156-0.039-0.235c-0.086-1.283-0.33-2.531-0.821-3.725
		c-0.556-1.351-1.464-2.366-2.802-2.988c-1.276-0.593-2.625-0.857-4.016-0.979c-0.425-0.037-0.725,0.099-1.021,0.398
		c-2.926,2.942-5.863,5.873-8.797,8.807c-0.991,0.991-1.98,1.983-2.973,2.971c-0.199,0.198-0.307,0.421-0.282,0.706
		c0.1,1.143,0.33,2.258,0.719,3.34c0.625,1.739,1.763,2.982,3.498,3.663c1.084,0.425,2.206,0.668,3.36,0.808
		c0.476,0.058,0.801-0.089,1.13-0.42c3.845-3.861,7.7-7.712,11.554-11.564C266.125,53.571,266.352,53.368,266.4,53.044z"/>
	<path display="inline" d="M511,197.459c-1.175,7.96-6.763,12.957-12.05,18.241c-94.701,94.661-189.444,189.281-283.919,284.167
		c-8.077,8.112-16.058,11.735-27.759,10.31c-28.349-3.452-55.93-9.411-82.558-19.864c-42.629-16.734-70.581-47.293-85.949-90.017
		c-9.561-26.579-15.219-53.968-17.678-82.067c-0.613-7,2.033-12.486,6.921-17.349c24.408-24.285,48.717-48.669,73.063-73.017
		c72.096-72.102,144.272-144.124,216.166-216.427c7.285-7.326,14.663-10.679,25.095-9.771c34.172,2.976,67.337,9.482,98.684,24.047
		c32.878,15.276,55.201,40.212,68.853,73.422c12.063,29.346,18.049,60.014,20.167,91.546c0.13,1.939,0.634,3.854,0.964,5.78
		C511,196.793,511,197.126,511,197.459z M478.641,186.103c-2.826-26.461-7.68-51.302-17.486-75.035
		c-10.808-26.158-28.251-45.758-54.312-57.663c-26.69-12.192-54.893-17.714-83.822-20.348c-1.864-0.17-4.357,1.36-5.828,2.83
		C223.376,129.577,129.642,223.351,35.84,317.057c-2.33,2.328-3.355,4.566-2.932,7.874c2.79,21.816,7.488,43.162,14.787,63.947
		c12.209,34.767,34.658,59.577,69.417,72.937c22.792,8.76,46.349,14.038,70.489,17.177c3.932,0.511,5.766-1.771,7.966-3.971
		c93.043-93.049,186.07-186.114,279.179-279.097C477.969,192.705,480.107,189.651,478.641,186.103z"/>
	<path fill="#FFFFFF" d="M265.083,52.582c0.06,0.144-0.027,0.269-0.159,0.4c-3.789,3.784-7.575,7.571-11.361,11.358
		c-0.09,0.09-0.164,0.182-0.324,0.162c-0.982-0.128-1.941-0.343-2.868-0.699c-1.414-0.544-2.328-1.553-2.825-2.968
		c-0.297-0.846-0.488-1.714-0.602-2.602c-0.017-0.135,0.024-0.226,0.119-0.32c3.817-3.813,7.632-7.629,11.449-11.442
		c0.06-0.06,0.161-0.122,0.237-0.115c1.177,0.107,2.325,0.332,3.411,0.828c1.061,0.484,1.77,1.282,2.21,2.347
		C264.771,50.494,264.968,51.505,265.083,52.582z M254.98,51.765c-0.003,0.3,0.111,0.467,0.266,0.62
		c1.269,1.266,2.536,2.535,3.805,3.801c0.076,0.076,0.162,0.145,0.254,0.2c0.271,0.162,0.653,0.061,0.818-0.209
		c0.177-0.29,0.129-0.578-0.149-0.857c-1.281-1.283-2.564-2.565-3.847-3.846c-0.052-0.052-0.112-0.097-0.172-0.141
		c-0.2-0.148-0.423-0.157-0.633-0.051C255.105,51.392,254.974,51.579,254.98,51.765z M257.019,59.046
		c0.003-0.225-0.108-0.393-0.262-0.547c-1.269-1.266-2.536-2.535-3.805-3.801c-0.076-0.076-0.162-0.145-0.253-0.2
		c-0.271-0.164-0.653-0.065-0.818,0.204c-0.182,0.296-0.131,0.581,0.159,0.872c1.272,1.273,2.545,2.546,3.818,3.817
		c0.057,0.057,0.121,0.107,0.186,0.156c0.199,0.149,0.423,0.159,0.633,0.054C256.892,59.493,257.025,59.306,257.019,59.046z
		 M259.289,50.656c0.006-0.498-0.376-0.896-0.869-0.904c-0.505-0.008-0.911,0.384-0.913,0.883c-0.002,0.488,0.396,0.894,0.883,0.9
		C258.878,51.541,259.284,51.144,259.289,50.656z M261.689,53.046c0.002-0.497-0.385-0.891-0.879-0.895
		c-0.501-0.004-0.907,0.398-0.905,0.894c0.003,0.487,0.407,0.888,0.894,0.888C261.292,53.933,261.687,53.538,261.689,53.046z
		 M251.186,58.73c0.502,0.005,0.909-0.393,0.909-0.89c0-0.486-0.403-0.89-0.89-0.892c-0.492-0.002-0.89,0.391-0.893,0.883
		C250.308,58.329,250.693,58.725,251.186,58.73z M253.601,61.129c0.493,0,0.89-0.393,0.892-0.885
		c0.002-0.488-0.397-0.894-0.884-0.899c-0.496-0.005-0.901,0.4-0.899,0.9C252.712,60.741,253.105,61.129,253.601,61.129z
		 M261.595,50.73c0.493,0.002,0.893-0.389,0.9-0.878c0.006-0.492-0.407-0.908-0.9-0.905c-0.49,0.003-0.884,0.402-0.884,0.894
		C260.711,50.337,261.099,50.728,261.595,50.73z M251.289,61.035c-0.002-0.495-0.393-0.884-0.889-0.884
		c-0.492,0-0.891,0.394-0.894,0.884c-0.003,0.493,0.413,0.906,0.905,0.9C250.9,61.929,251.291,61.528,251.289,61.035z"/>
	<path display="inline" d="M230.376,166.028c-0.144-4.558,3.065-9.168,8.383-11.855c5.151-2.602,10.64-2.382,15.553,1.246
		c1.464,1.081,2.942,2.182,4.224,3.463c31.528,31.486,63.042,62.986,94.528,94.514c6.851,6.86,8.016,13.92,3.672,21.056
		c-4.037,6.632-13.426,9.123-20.09,5.139c-2.254-1.348-4.372-3.048-6.235-4.906c-31.193-31.115-62.318-62.297-93.511-93.412
		C233.116,177.498,230.306,173.405,230.376,166.028z"/>
	<path display="inline" d="M280.474,344.945c0.148,6.402-3.12,10.992-8.435,13.644c-5.153,2.571-10.664,2.327-15.553-1.339
		c-1.588-1.19-3.167-2.428-4.568-3.827c-31.292-31.251-62.567-62.52-93.825-93.806c-7.138-7.144-8.376-14.158-3.914-21.422
		c4.059-6.608,13.457-9.042,20.113-5.023c2.249,1.358,4.361,3.061,6.224,4.919c31.192,31.115,62.317,62.298,93.512,93.411
		C277.821,335.286,280.559,339.411,280.474,344.945z"/>
	<path display="inline" d="M336.268,138.778c-0.137,12.001-10.105,21.745-22.102,21.605c-11.962-0.14-21.748-10.112-21.692-22.104
		c0.058-12.275,10.019-21.915,22.432-21.709C327.021,116.77,336.407,126.529,336.268,138.778z"/>
	<path display="inline" d="M395.228,197.51c-0.039,12.104-9.759,21.81-21.841,21.807c-11.983-0.002-21.914-9.861-21.978-21.817
		c-0.066-12.2,9.914-22.068,22.229-21.981C385.758,175.605,395.268,185.291,395.228,197.51z"/>
	<path display="inline" d="M137.126,337.197c-12.102-0.124-21.567-9.856-21.486-22.093c0.08-12.089,9.853-21.755,21.944-21.703
		c11.973,0.051,21.874,9.972,21.875,21.92C159.459,327.538,149.47,337.323,137.126,337.197z"/>
	<path display="inline" d="M196.481,396.154c-12.2-0.001-21.838-9.554-21.886-21.693c-0.049-12.29,9.892-22.251,22.084-22.125
		c11.96,0.123,21.76,10.089,21.714,22.081C218.347,386.49,208.605,396.154,196.481,396.154z"/>
	<path display="inline" d="M392.919,140.591c-12.172-0.05-21.716-9.652-21.715-21.849c0.001-12.1,9.682-21.896,21.717-21.975
		c12.102-0.079,22.263,10.142,22.104,22.236C414.867,131.039,405.035,140.641,392.919,140.591z"/>
	<path display="inline" d="M139.666,393.843c0.05,12.116-9.551,21.948-21.587,22.107c-12.093,0.16-22.315-10.002-22.236-22.104
		c0.078-12.036,9.874-21.717,21.974-21.718C130.013,372.127,139.616,381.671,139.666,393.843z"/>
</g>
</svg>
