<?xml version="1.0" encoding="utf-8"?>
<!-- Generator: Adobe Illustrator 17.0.0, SVG Export Plug-In . SVG Version: 6.00 Build 0)  -->
<!DOCTYPE svg PUBLIC "-//W3C//DTD SVG 1.1//EN" "http://www.w3.org/Graphics/SVG/1.1/DTD/svg11.dtd">
<svg version="1.1" id="Layer_1" xmlns="http://www.w3.org/2000/svg" xmlns:xlink="http://www.w3.org/1999/xlink" x="0px" y="0px"
	 width="512px" height="512px" viewBox="0 0 512 512" enable-background="new 0 0 512 512" xml:space="preserve">
<g>
	<line fill="none" stroke="#B35047" x1="32" y1="0" x2="32" y2="512"/>
	<line fill="none" stroke="#B35047" x1="64" y1="0" x2="64" y2="512"/>
	<line fill="none" stroke="#B35047" x1="96" y1="0" x2="96" y2="512"/>
	<line fill="none" stroke="#B35047" x1="128" y1="0" x2="128" y2="512"/>
	<line fill="none" stroke="#B35047" x1="160" y1="0" x2="160" y2="512"/>
	<line fill="none" stroke="#B35047" x1="192" y1="0" x2="192" y2="512"/>
	<line fill="none" stroke="#B35047" x1="224" y1="0" x2="224" y2="512"/>
	<line fill="none" stroke="#B35047" x1="256" y1="0" x2="256" y2="512"/>
	<line fill="none" stroke="#B35047" x1="288" y1="0" x2="288" y2="512"/>
	<line fill="none" stroke="#B35047" x1="320" y1="0" x2="320" y2="512"/>
	<line fill="none" stroke="#B35047" x1="352" y1="0" x2="352" y2="512"/>
	<line fill="none" stroke="#B35047" x1="384" y1="0" x2="384" y2="512"/>
	<line fill="none" stroke="#B35047" x1="416" y1="0" x2="416" y2="512"/>
	<line fill="none" stroke="#B35047" x1="448" y1="0" x2="448" y2="512"/>
	<line fill="none" stroke="#B35047" x1="480" y1="0" x2="480" y2="512"/>
	<line fill="none" stroke="#B35047" x1="0" y1="32" x2="512" y2="32"/>
	<line fill="none" stroke="#B35047" x1="0" y1="64" x2="512" y2="64"/>
	<line fill="none" stroke="#B35047" x1="0" y1="96" x2="512" y2="96"/>
	<line fill="none" stroke="#B35047" x1="0" y1="128" x2="512" y2="128"/>
	<line fill="none" stroke="#B35047" x1="0" y1="160" x2="512" y2="160"/>
	<line fill="none" stroke="#B35047" x1="0" y1="192" x2="512" y2="192"/>
	<line fill="none" stroke="#B35047" x1="0" y1="224" x2="512" y2="224"/>
	<line fill="none" stroke="#B35047" x1="0" y1="256" x2="512" y2="256"/>
	<line fill="none" stroke="#B35047" x1="0" y1="288" x2="512" y2="288"/>
	<line fill="none" stroke="#B35047" x1="0" y1="320" x2="512" y2="320"/>
	<line fill="none" stroke="#B35047" x1="0" y1="352" x2="512" y2="352"/>
	<line fill="none" stroke="#B35047" x1="0" y1="384" x2="512" y2="384"/>
	<line fill="none" stroke="#B35047" x1="0" y1="416" x2="512" y2="416"/>
	<line fill="none" stroke="#B35047" x1="0" y1="448" x2="512" y2="448"/>
	<line fill="none" stroke="#B35047" x1="0" y1="480" x2="512" y2="480"/>
	<rect x="0" fill="none" stroke="#B35047" width="512" height="512"/>
</g>
<g display="none">
	<path fill="#FFFFFF" d="M609.841,63.839c-6.931,0-13.861,0-20.796,0c0-6.928,0-13.857,0-20.792c6.929,0,13.863,0,20.796,0
		C609.841,49.975,609.841,56.906,609.841,63.839z M599.437,56.168c0.095,0.122,0.139,0.192,0.196,0.249
		c1.306,1.308,2.613,2.615,3.92,3.921c0.423,0.423,0.853,0.424,1.274,0.005c0.499-0.497,0.997-0.995,1.494-1.493
		c0.449-0.449,0.448-0.866-0.004-1.318c-1.307-1.307-2.614-2.614-3.92-3.922c-0.055-0.055-0.107-0.113-0.183-0.193
		c0.078-0.063,0.14-0.106,0.192-0.158c1.313-1.311,2.625-2.622,3.936-3.934c0.419-0.419,0.418-0.855-0.002-1.275
		c-0.493-0.494-0.987-0.985-1.481-1.478c-0.465-0.464-0.87-0.466-1.33-0.005c-1.307,1.307-2.614,2.613-3.922,3.92
		c-0.052,0.052-0.106,0.101-0.168,0.159c-0.062-0.059-0.116-0.107-0.168-0.159c-1.302-1.302-2.604-2.604-3.907-3.906
		c-0.48-0.48-0.874-0.478-1.359,0.006c-0.479,0.478-0.958,0.957-1.437,1.436c-0.461,0.462-0.462,0.871-0.001,1.332
		c1.302,1.302,2.604,2.604,3.906,3.907c0.056,0.056,0.109,0.115,0.171,0.18c-0.062,0.064-0.111,0.118-0.163,0.17
		c-1.316,1.317-2.633,2.633-3.949,3.95c-0.411,0.412-0.412,0.85-0.003,1.26c0.497,0.498,0.997,0.995,1.496,1.492
		c0.462,0.46,0.867,0.458,1.331-0.006c1.303-1.302,2.606-2.603,3.907-3.906C599.318,56.35,599.354,56.282,599.437,56.168z"/>
	<path display="inline" d="M255.903,327.839c-2.172,2.999-3.134,4.781-4.505,6.154c-34.264,34.307-68.568,68.574-102.871,102.842
		c-12.227,12.215-22.893,12.256-35.047,0.147c-13.133-13.085-26.281-26.155-39.377-39.278
		c-10.769-10.791-10.759-22.329,0.069-33.171c34.641-34.686,69.32-69.335,103.979-104.003c1.365-1.365,2.674-2.786,4.297-4.482
		c-1.624-1.708-3.031-3.255-4.507-4.732c-34.279-34.292-68.569-68.572-102.85-102.863c-12.134-12.137-12.121-22.917,0.03-35.071
		c12.603-12.607,25.216-25.203,37.828-37.802c12.773-12.759,23.128-12.81,35.774-0.166c34.288,34.283,68.571,68.571,102.862,102.851
		c1.358,1.357,2.786,2.644,4.416,4.185c1.632-1.545,3.06-2.833,4.418-4.191c34.423-34.4,68.837-68.809,103.259-103.21
		c12.123-12.116,22.782-12.066,35.022,0.142c13,12.967,26.016,25.916,38.986,38.913c11.045,11.068,11.078,22.526,0.046,33.569
		c-34.521,34.554-69.071,69.079-103.636,103.59c-1.383,1.381-3.026,2.501-5.066,4.166c1.994,2.105,3.37,3.625,4.817,5.073
		c34.401,34.422,68.813,68.833,103.214,103.255c11.885,11.892,11.915,22.868,0.099,34.696
		c-13.103,13.115-26.206,26.231-39.344,39.311c-11.089,11.04-22.39,11.005-33.537-0.128
		c-34.429-34.389-68.84-68.796-103.222-103.232C259.558,332.899,258.404,331.049,255.903,327.839z"/>
</g>
<g display="none">
	<path fill="#FFFFFF" d="M729.841,104.84c-6.931,0-13.862,0-20.797,0c0-6.929,0-13.858,0-20.793c6.93,0,13.863,0,20.797,0
		C729.841,90.976,729.841,97.907,729.841,104.84z M717.386,97.505c-0.058-0.094-0.09-0.175-0.147-0.231
		c-0.984-0.988-1.97-1.974-2.957-2.96c-0.462-0.461-0.941-0.462-1.399-0.005c-0.345,0.344-0.689,0.69-1.033,1.035
		c-0.48,0.482-0.482,0.947-0.003,1.426c1.588,1.59,3.177,3.179,4.767,4.768c0.091,0.091,0.185,0.181,0.29,0.253
		c0.441,0.301,0.917,0.482,1.419,0.184c0.23-0.137,0.435-0.348,0.592-0.567c0.492-0.688,0.956-1.395,1.43-2.095
		c2.301-3.394,4.601-6.787,6.902-10.181c0.365-0.539,0.275-1.006-0.263-1.373c-0.413-0.282-0.824-0.57-1.245-0.841
		c-0.138-0.089-0.301-0.165-0.461-0.19c-0.411-0.064-0.686,0.151-0.909,0.479c-2.263,3.345-4.531,6.688-6.798,10.031
		C717.527,97.304,717.481,97.369,717.386,97.505z"/>
	<path display="inline" d="M189.227,354.399c3.025-4.338,4.506-6.412,5.936-8.52c72.353-106.708,144.741-213.393,216.989-320.172
		c7.101-10.495,15.893-17.345,29.005-15.304c5.112,0.796,10.295,3.223,14.705,6.058c13.437,8.641,26.529,17.819,39.726,26.831
		c17.156,11.715,20.044,26.649,8.394,43.839c-73.419,108.333-146.861,216.65-220.297,324.971
		c-15.148,22.344-29.955,44.931-45.657,66.878c-5.014,7.008-11.56,13.74-18.891,18.101c-16.027,9.532-31.214,3.741-45.289-5.861
		c-3.362-2.294-6.363-5.193-9.258-8.086C113.842,432.43,63.131,381.69,12.427,330.942c-15.276-15.289-15.228-30.149,0.096-45.528
		c10.981-11.021,21.958-22.045,32.972-33.033c14.624-14.589,29.928-14.548,44.667,0.17c31.497,31.452,62.978,62.92,94.379,94.468
		C186.342,348.829,187.365,351.412,189.227,354.399z"/>
</g>
<g>
	<path display="none" fill="#FFFFFF" d="M709.042,104.841c0-6.93,0-13.861,0-20.796c6.927,0,13.856,0,20.791,0
		c0,6.929,0,13.862,0,20.796C722.907,104.841,715.976,104.841,709.042,104.841z M719.842,86.601c-4.534-0.002-8.23,3.684-8.24,8.219
		c-0.011,4.548,3.694,8.265,8.239,8.266c4.531,0.001,8.246-3.714,8.246-8.245C728.086,90.305,724.383,86.604,719.842,86.601z"/>
	<path display="none" d="M255.927,1C396.422,1.069,510.992,115.575,511,255.928C511.008,396.113,396.062,511.044,255.896,511
		C115.282,510.956,0.675,395.972,1.001,255.267C1.326,114.979,115.67,0.931,255.927,1z M218.584,293.161c0,33.329,0,65.875,0,98.532
		c25.198,0,49.591,0,74.576,0c0-2.902,0-5.374,0-7.846c0-27.649,0.229-55.301-0.167-82.945c-0.094-6.582,1.967-7.952,8.132-7.88
		c27.645,0.32,55.297,0.139,82.946,0.139c2.447,0,4.893,0,7.69,0c0-25.152,0-49.534,0-74.746c-32.88,0-65.408,0-98.853,0
		c0-33.33,0-65.845,0-98.335c-25.295,0-49.654,0-74.636,0c0,32.976,0,65.352,0,98.586c-33.133,0-65.644,0-98.408,0
		c-0.164,2.699-0.372,4.55-0.374,6.401c-0.023,20.527,0.152,41.057-0.128,61.58c-0.073,5.338,1.729,6.657,6.827,6.617
		c28.066-0.218,56.135-0.104,84.203-0.104C212.857,293.161,215.321,293.161,218.584,293.161z"/>
	<path d="M204.417,308.149c-4.551,0-7.989,0-11.427,0c-39.155,0-78.311-0.16-117.464,0.145c-7.112,0.055-9.625-1.79-9.523-9.257
		c0.39-28.714,0.146-57.436,0.178-86.154c0.003-2.59,0.293-5.179,0.521-8.955c45.706,0,91.058,0,137.279,0
		c0-46.497,0-91.792,0-137.927c34.851,0,68.831,0,104.118,0c0,45.455,0,90.945,0,137.575c46.657,0,92.033,0,137.901,0
		c0,35.272,0,69.384,0,104.573c-3.902,0-7.315,0-10.728,0c-38.57,0-77.144,0.253-115.709-0.195c-8.6-0.1-11.475,1.816-11.344,11.025
		c0.551,38.675,0.233,77.362,0.232,116.044c0,3.458,0,6.917,0,10.977c-34.854,0-68.883,0-104.034,0
		C204.417,400.312,204.417,354.778,204.417,308.149z"/>
</g>
<g display="none">
	<path fill="#FFFFFF" d="M729.841,104.839c-6.931,0-13.862,0-20.796,0c0-6.928,0-13.857,0-20.792c6.93,0,13.863,0,20.796,0
		C729.841,90.975,729.841,97.906,729.841,104.839z M711.601,94.84c0.002,4.541,3.702,8.244,8.239,8.246
		c4.531,0.001,8.246-3.713,8.246-8.245c0-4.537-3.703-8.238-8.245-8.24C715.3,86.599,711.6,90.299,711.601,94.84z"/>
	<path d="M1,255.892C0.952,115.394,115.436,0.928,255.932,1C396.426,1.072,510.998,115.583,511,255.933
		C511.002,396.117,396.055,511.046,255.893,511C115.52,510.954,1.048,396.384,1,255.892z M119.855,292.696
		c90.982,0,181.331,0,271.827,0c0-24.841,0-49.214,0-73.772c-90.78,0-181.113,0-271.827,0
		C119.855,243.609,119.855,267.816,119.855,292.696z"/>
	<path display="inline" d="M66,307.565c0-34.78,0-68.621,0-103.129c126.813,0,253.095,0,380,0c0,34.331,0,68.403,0,103.129
		C319.491,307.565,193.188,307.565,66,307.565z"/>
</g>
</svg>
