<?xml version="1.0" encoding="utf-8"?>
<!-- Generator: Adobe Illustrator 17.0.0, SVG Export Plug-In . SVG Version: 6.00 Build 0)  -->
<!DOCTYPE svg PUBLIC "-//W3C//DTD SVG 1.1//EN" "http://www.w3.org/Graphics/SVG/1.1/DTD/svg11.dtd">
<svg version="1.1" id="Layer_1" xmlns="http://www.w3.org/2000/svg" xmlns:xlink="http://www.w3.org/1999/xlink" x="0px" y="0px"
	 width="512px" height="512px" viewBox="0 0 512 512" enable-background="new 0 0 512 512" xml:space="preserve">
<g>
	<line fill="none" stroke="#B35047" x1="32" y1="0" x2="32" y2="512"/>
	<line fill="none" stroke="#B35047" x1="64" y1="0" x2="64" y2="512"/>
	<line fill="none" stroke="#B35047" x1="96" y1="0" x2="96" y2="512"/>
	<line fill="none" stroke="#B35047" x1="128" y1="0" x2="128" y2="512"/>
	<line fill="none" stroke="#B35047" x1="160" y1="0" x2="160" y2="512"/>
	<line fill="none" stroke="#B35047" x1="192" y1="0" x2="192" y2="512"/>
	<line fill="none" stroke="#B35047" x1="224" y1="0" x2="224" y2="512"/>
	<line fill="none" stroke="#B35047" x1="256" y1="0" x2="256" y2="512"/>
	<line fill="none" stroke="#B35047" x1="288" y1="0" x2="288" y2="512"/>
	<line fill="none" stroke="#B35047" x1="320" y1="0" x2="320" y2="512"/>
	<line fill="none" stroke="#B35047" x1="352" y1="0" x2="352" y2="512"/>
	<line fill="none" stroke="#B35047" x1="384" y1="0" x2="384" y2="512"/>
	<line fill="none" stroke="#B35047" x1="416" y1="0" x2="416" y2="512"/>
	<line fill="none" stroke="#B35047" x1="448" y1="0" x2="448" y2="512"/>
	<line fill="none" stroke="#B35047" x1="480" y1="0" x2="480" y2="512"/>
	<line fill="none" stroke="#B35047" x1="0" y1="32" x2="512" y2="32"/>
	<line fill="none" stroke="#B35047" x1="0" y1="64" x2="512" y2="64"/>
	<line fill="none" stroke="#B35047" x1="0" y1="96" x2="512" y2="96"/>
	<line fill="none" stroke="#B35047" x1="0" y1="128" x2="512" y2="128"/>
	<line fill="none" stroke="#B35047" x1="0" y1="160" x2="512" y2="160"/>
	<line fill="none" stroke="#B35047" x1="0" y1="192" x2="512" y2="192"/>
	<line fill="none" stroke="#B35047" x1="0" y1="224" x2="512" y2="224"/>
	<line fill="none" stroke="#B35047" x1="0" y1="256" x2="512" y2="256"/>
	<line fill="none" stroke="#B35047" x1="0" y1="288" x2="512" y2="288"/>
	<line fill="none" stroke="#B35047" x1="0" y1="320" x2="512" y2="320"/>
	<line fill="none" stroke="#B35047" x1="0" y1="352" x2="512" y2="352"/>
	<line fill="none" stroke="#B35047" x1="0" y1="384" x2="512" y2="384"/>
	<line fill="none" stroke="#B35047" x1="0" y1="416" x2="512" y2="416"/>
	<line fill="none" stroke="#B35047" x1="0" y1="448" x2="512" y2="448"/>
	<line fill="none" stroke="#B35047" x1="0" y1="480" x2="512" y2="480"/>
	<rect x="0" fill="none" stroke="#B35047" width="512" height="512"/>
</g>
<image display="none" overflow="visible" width="512" height="512" xlink:href="../../../Knowledge/Icon/[+++++] (Full) Windows 8 Icons [icons8]/Office_Stuff/phone/phone-512.png"  transform="matrix(0.0406 0 0 0.0406 577 56)">
</image>
<image display="none" overflow="visible" width="512" height="512" xlink:href="../../../Knowledge/Icon/[+++++] (Full) Windows 8 Icons [icons8]/Office_Stuff/tool_box/tool_box-512.png"  transform="matrix(0.0406 0 0 0.0406 577 56)">
</image>
<g>
	<path d="M133.48,1C215.16,1,296.84,1,378.52,1c0.911,0.317,1.8,0.806,2.737,0.927c14.604,1.882,26.579,8.579,36.265,19.581
		c10.885,12.365,14.653,27.052,14.586,43.162c-0.121,29.016-0.034,58.033-0.034,87.05c0,1.941,0,3.883,0,6.581
		c7.826,0,15.086-0.23,22.327,0.041c26.394,0.989,48.137,18.703,54.605,44.271c0.64,2.529,1.329,5.045,1.994,7.567
		c0,43.496,0,86.992,0,130.488c-0.55,2.226-1.109,4.45-1.65,6.679c-6.672,27.497-29.305,45.403-58.049,45.858
		c-6.24,0.099-12.484,0.014-19.228,0.014c0,2.552,0.021,4.498-0.003,6.443c-0.252,19.869,0.299,39.791-1.003,59.592
		c-1.227,18.671-11.097,33.291-27.242,42.549c-7.671,4.399-16.824,6.213-25.305,9.198c-81.68,0-163.359,0-245.039,0
		c-5.272-1.304-10.63-2.336-15.801-3.961c-19.681-6.186-36.906-27.633-37.748-48.19c-0.808-19.715-0.542-39.474-0.742-59.214
		c-0.02-1.941-0.003-3.883-0.003-6.416c-6.505,0-12.432,0.074-18.357-0.013c-28.822-0.421-51.492-18.31-58.176-45.85
		c-0.542-2.232-1.102-4.459-1.653-6.689c0-43.496,0-86.992,0-130.488c0.321-0.74,0.805-1.451,0.938-2.224
		c4.458-25.882,22.497-44.488,48.36-48.849c7.614-1.284,15.552-0.945,23.333-0.822c4.286,0.068,5.687-1.048,5.657-5.538
		c-0.196-30.046-0.172-60.095-0.078-90.142c0.075-23.796,9.575-42.606,30.901-53.976C117.232,4.832,125.654,3.473,133.48,1z
		 M118.507,295.543c-0.132,1.393-0.277,2.205-0.277,3.017c-0.009,50.622-0.091,101.245,0.05,151.866
		c0.038,13.823,8.109,21.557,22.412,21.574c76.514,0.094,153.028,0.058,229.543,0.021c5.722-0.003,11.205-1.024,15.799-4.926
		c6.051-5.14,7.089-12.026,7.086-19.366c-0.016-48.962-0.005-97.925-0.022-146.887c-0.001-1.742-0.213-3.485-0.331-5.3
		C301.085,295.543,210.011,295.543,118.507,295.543z M118.451,157.309c91.822,0,183.012,0,274.281,0
		c0.155-1.068,0.329-1.713,0.33-2.358c0.019-31.044,0.22-62.09-0.177-93.128c-0.062-4.815-1.988-10.156-4.605-14.264
		c-4.229-6.638-11.645-7.604-19.009-7.604c-75.7-0.006-151.401-0.018-227.101,0.008c-16.48,0.006-23.933,7.547-23.949,24.125
		c-0.027,29.384-0.011,58.767,0.002,88.151C118.224,153.859,118.365,155.481,118.451,157.309z M393.273,226.462
		c-0.046,16.231,13.048,29.512,29.218,29.636c16.326,0.125,29.894-13.374,29.805-29.654c-0.089-16.166-13.366-29.332-29.577-29.329
		C406.462,197.117,393.319,210.216,393.273,226.462z"/>
	<path display="none" fill="#FFFFFF" d="M597.841,64.572c-0.027-0.103-0.055-0.205-0.081-0.309
		c-0.264-1.043-1.151-1.765-2.227-1.806c-0.295-0.011-0.591-0.002-0.911-0.002c0-0.11,0-0.189,0-0.268
		c0-1.183-0.004-2.367,0.001-3.55c0.003-0.657-0.151-1.256-0.595-1.76c-0.395-0.449-0.883-0.722-1.479-0.799
		c-0.038-0.005-0.074-0.025-0.112-0.038c1.801,0,3.602,0,5.403,0C597.841,58.884,597.841,61.728,597.841,64.572z"/>
	<path display="none" fill="#FFFFFF" d="M582.444,56.041c-0.319,0.101-0.663,0.156-0.953,0.311c-0.87,0.464-1.257,1.231-1.26,2.201
		c-0.004,1.225-0.005,2.451,0.003,3.676c0.001,0.183-0.056,0.229-0.231,0.226c-0.317-0.005-0.641-0.019-0.952,0.034
		c-1.055,0.178-1.79,0.937-1.972,1.992c-0.005,0.031-0.025,0.061-0.038,0.091c0-2.84,0-5.679,0-8.531
		C578.842,56.041,580.643,56.041,582.444,56.041z"/>
	<path display="none" fill="#FFFFFF" d="M592.438,76.841c0.346-0.122,0.719-0.196,1.032-0.375c0.658-0.378,1.061-0.974,1.111-1.735
		c0.053-0.808,0.031-1.62,0.041-2.43c0.001-0.079,0-0.159,0-0.263c0.275,0,0.53,0.003,0.784-0.001
		c1.172-0.019,2.095-0.749,2.367-1.87c0.022-0.091,0.045-0.182,0.067-0.272c0,2.316,0,4.631,0,6.947
		C596.04,76.841,594.239,76.841,592.438,76.841z"/>
	<path display="none" fill="#FFFFFF" d="M577.041,69.894c0.022,0.091,0.045,0.182,0.067,0.273c0.273,1.123,1.197,1.853,2.373,1.87
		c0.242,0.004,0.483,0.001,0.749,0.001c0,0.103-0.001,0.183,0,0.262c0.008,0.805-0.003,1.611,0.03,2.415
		c0.034,0.838,0.737,1.713,1.54,1.965c0.211,0.066,0.429,0.108,0.644,0.162c-1.801,0-3.602,0-5.403,0
		C577.041,74.525,577.041,72.209,577.041,69.894z"/>
	<path display="none" fill="#FFFFFF" d="M581.833,68.053c3.732,0,7.446,0,11.185,0c0.005,0.074,0.013,0.145,0.013,0.216
		c0.001,1.997,0,3.994,0.001,5.991c0,0.299-0.042,0.58-0.289,0.79c-0.187,0.159-0.411,0.201-0.644,0.201
		c-3.121,0.002-6.241,0.003-9.362-0.001c-0.583-0.001-0.913-0.316-0.914-0.88c-0.006-2.065-0.002-4.129-0.002-6.194
		C581.822,68.143,581.828,68.11,581.833,68.053z M583.464,71.218c2.663,0,5.305,0,7.952,0c0-0.525,0-1.035,0-1.556
		c-2.655,0-5.297,0-7.952,0C583.464,70.183,583.464,70.694,583.464,71.218z M583.467,72.061c0,0.532,0,1.043,0,1.556
		c1.858,0,3.701,0,5.551,0c0-0.524,0-1.034,0-1.556C587.164,72.061,585.322,72.061,583.467,72.061z"/>
	<path display="none" fill="#FFFFFF" d="M581.831,62.416c-0.003-0.075-0.009-0.141-0.009-0.207c-0.001-1.198-0.001-2.397,0-3.595
		c0.001-0.676,0.305-0.984,0.977-0.984c3.087-0.001,6.175-0.001,9.262,0c0.3,0,0.603,0.039,0.775,0.31
		c0.107,0.168,0.185,0.385,0.188,0.582c0.016,1.266,0.008,2.532,0.007,3.798c0,0.026-0.007,0.053-0.013,0.096
		C589.295,62.416,585.576,62.416,581.831,62.416z"/>
	<path display="none" fill="#FFFFFF" d="M593.039,65.236c0.002-0.663,0.538-1.197,1.201-1.197c0.661,0,1.203,0.537,1.206,1.196
		c0.004,0.664-0.55,1.215-1.216,1.209C593.571,66.44,593.037,65.898,593.039,65.236z"/>
	<path d="M158.507,373.142c0-12.865,0-25.383,0-38.164c65.106,0,129.884,0,194.989,0c0,12.784,0,25.302,0,38.164
		C288.578,373.142,223.799,373.142,158.507,373.142z"/>
	<path d="M158.572,393.799c45.47,0,90.642,0,136.095,0c0,12.797,0,25.311,0,38.159c-45.363,0-90.532,0-136.095,0
		C158.572,419.365,158.572,406.853,158.572,393.799z"/>
</g>
</svg>
