<?xml version="1.0" encoding="utf-8"?>
<!-- Generator: Adobe Illustrator 17.0.0, SVG Export Plug-In . SVG Version: 6.00 Build 0)  -->
<!DOCTYPE svg PUBLIC "-//W3C//DTD SVG 1.1//EN" "http://www.w3.org/Graphics/SVG/1.1/DTD/svg11.dtd">
<svg version="1.1" id="Layer_1" xmlns="http://www.w3.org/2000/svg" xmlns:xlink="http://www.w3.org/1999/xlink" x="0px" y="0px"
	 width="512px" height="512px" viewBox="0 0 512 512" enable-background="new 0 0 512 512" xml:space="preserve">
<g>
	<line fill="none" stroke="#B35047" x1="32" y1="0" x2="32" y2="512"/>
	<line fill="none" stroke="#B35047" x1="64" y1="0" x2="64" y2="512"/>
	<line fill="none" stroke="#B35047" x1="96" y1="0" x2="96" y2="512"/>
	<line fill="none" stroke="#B35047" x1="128" y1="0" x2="128" y2="512"/>
	<line fill="none" stroke="#B35047" x1="160" y1="0" x2="160" y2="512"/>
	<line fill="none" stroke="#B35047" x1="192" y1="0" x2="192" y2="512"/>
	<line fill="none" stroke="#B35047" x1="224" y1="0" x2="224" y2="512"/>
	<line fill="none" stroke="#B35047" x1="256" y1="0" x2="256" y2="512"/>
	<line fill="none" stroke="#B35047" x1="288" y1="0" x2="288" y2="512"/>
	<line fill="none" stroke="#B35047" x1="320" y1="0" x2="320" y2="512"/>
	<line fill="none" stroke="#B35047" x1="352" y1="0" x2="352" y2="512"/>
	<line fill="none" stroke="#B35047" x1="384" y1="0" x2="384" y2="512"/>
	<line fill="none" stroke="#B35047" x1="416" y1="0" x2="416" y2="512"/>
	<line fill="none" stroke="#B35047" x1="448" y1="0" x2="448" y2="512"/>
	<line fill="none" stroke="#B35047" x1="480" y1="0" x2="480" y2="512"/>
	<line fill="none" stroke="#B35047" x1="0" y1="32" x2="512" y2="32"/>
	<line fill="none" stroke="#B35047" x1="0" y1="64" x2="512" y2="64"/>
	<line fill="none" stroke="#B35047" x1="0" y1="96" x2="512" y2="96"/>
	<line fill="none" stroke="#B35047" x1="0" y1="128" x2="512" y2="128"/>
	<line fill="none" stroke="#B35047" x1="0" y1="160" x2="512" y2="160"/>
	<line fill="none" stroke="#B35047" x1="0" y1="192" x2="512" y2="192"/>
	<line fill="none" stroke="#B35047" x1="0" y1="224" x2="512" y2="224"/>
	<line fill="none" stroke="#B35047" x1="0" y1="256" x2="512" y2="256"/>
	<line fill="none" stroke="#B35047" x1="0" y1="288" x2="512" y2="288"/>
	<line fill="none" stroke="#B35047" x1="0" y1="320" x2="512" y2="320"/>
	<line fill="none" stroke="#B35047" x1="0" y1="352" x2="512" y2="352"/>
	<line fill="none" stroke="#B35047" x1="0" y1="384" x2="512" y2="384"/>
	<line fill="none" stroke="#B35047" x1="0" y1="416" x2="512" y2="416"/>
	<line fill="none" stroke="#B35047" x1="0" y1="448" x2="512" y2="448"/>
	<line fill="none" stroke="#B35047" x1="0" y1="480" x2="512" y2="480"/>
	<rect x="0" fill="none" stroke="#B35047" width="512" height="512"/>
</g>
<g display="none">
	<path fill="#FFFFFF" d="M449.835,238.841c-6.929,0-13.86,0-20.793,0c0-6.931,0-13.862,0-20.796c6.928,0,13.857,0,20.793,0
		C449.835,224.974,449.835,231.907,449.835,238.841z M429.325,228.84c-0.05,0.416-0.122,0.808-0.141,1.204
		c-0.05,0.995,0.165,1.921,0.796,2.721c0.435,0.552,1.006,0.902,1.642,1.186c2.21,0.987,4.408,1.998,6.615,2.991
		c0.768,0.345,1.567,0.553,2.422,0.433c1.475-0.206,2.711-0.84,3.658-2.01c0.784-0.968,1.33-2.069,1.783-3.217
		c1.094-2.773,2.044-5.598,2.965-8.432c0.228-0.7,0.448-1.403,0.665-2.107c0.184-0.596-0.062-1.016-0.668-1.147
		c-0.33-0.071-0.663-0.131-0.994-0.197c-3.52-0.701-7.039-1.402-10.559-2.102c-0.594-0.118-0.91,0.064-1.113,0.626
		c-0.618,1.709-1.237,3.419-1.854,5.128c-0.45,1.246-0.901,2.491-1.348,3.738c-0.189,0.527,0.013,0.98,0.494,1.125
		c0.431,0.13,0.821-0.099,1-0.593c0.948-2.625,1.896-5.25,2.844-7.875c0.059-0.163,0.121-0.325,0.184-0.494
		c3.435,0.684,6.849,1.364,10.275,2.046c-0.025,0.086-0.038,0.138-0.055,0.189c-0.929,2.717-1.85,5.437-2.79,8.15
		c-0.418,1.208-0.889,2.396-1.572,3.487c-0.609,0.972-1.393,1.713-2.548,1.999c-0.979,0.242-1.785-0.098-2.234-0.996
		c-0.314-0.628-0.374-1.308-0.361-1.996c0.003-0.148-0.045-0.211-0.178-0.264c-2.903-1.168-5.804-2.341-8.705-3.512
		C429.483,228.896,429.421,228.875,429.325,228.84z"/>
	<path display="inline" d="M4.664,282.505c2.367,0.874,3.914,1.399,5.425,2.01c71.786,28.987,143.56,58.004,215.382,86.904
		c3.288,1.323,4.466,2.88,4.398,6.531c-0.316,17.027,1.162,33.854,8.927,49.391c11.105,22.219,31.052,30.629,55.276,24.64
		c28.589-7.068,47.98-25.413,63.055-49.461c16.909-26.975,28.549-56.381,38.903-86.269c23.256-67.132,46.059-134.421,69.037-201.65
		c0.428-1.252,0.743-2.542,1.36-4.672c-84.746-16.879-169.24-33.709-254.22-50.634c-1.56,4.187-3.092,8.194-4.549,12.229
		c-23.455,64.944-46.89,129.895-70.356,194.836c-4.412,12.209-14.071,17.884-24.735,14.667
		c-11.889-3.586-16.898-14.793-12.221-27.834c11.063-30.846,22.217-61.66,33.353-92.479c15.284-42.298,30.589-84.588,45.88-126.884
		c5.031-13.915,12.84-18.417,27.547-15.495c87.094,17.303,174.177,34.662,261.264,51.998c8.201,1.632,16.434,3.113,24.605,4.881
		c15.003,3.246,21.079,13.628,16.527,28.378c-5.374,17.412-10.823,34.802-16.453,52.133
		c-22.782,70.129-46.282,140.015-73.36,208.626c-11.209,28.402-24.724,55.628-44.123,79.587
		c-23.433,28.942-54.015,44.633-90.504,49.736c-21.161,2.959-40.934-2.174-59.928-10.715
		c-54.607-24.554-108.998-49.589-163.667-74.001c-15.727-7.023-29.864-15.682-40.625-29.338
		c-15.61-19.809-20.917-42.703-19.692-67.332C1.656,302.506,3.417,292.79,4.664,282.505z"/>
</g>
<image display="none" overflow="visible" width="512" height="512" xlink:href="../../../Knowledge/Icon/[+++++] (Full) Windows 8 Icons [icons8]/Sections_of_Website/contacts/contacts-512.png"  transform="matrix(0.0406 0 0 0.0406 597 27)">
</image>
<image display="none" overflow="visible" width="512" height="512" xlink:href="../../../Knowledge/Icon/[+++++] (Full) Windows 8 Icons [icons8]/Sections_of_Website/about/about-512.png"  transform="matrix(0.0406 0 0 0.0406 597 27)">
</image>
<image display="none" overflow="visible" width="512" height="512" xlink:href="../../../Knowledge/Icon/[+++++] (Full) Windows 8 Icons [icons8]/Sections_of_Website/support/support-512.png"  transform="matrix(0.0406 0 0 0.0406 597 27)">
</image>
<image display="none" overflow="visible" width="512" height="512" xlink:href="../../../Knowledge/Icon/[+++++] (Full) Windows 8 Icons [icons8]/Sections_of_Website/solutions/solutions-512.png"  transform="matrix(0.0406 0 0 0.0406 597 27)">
</image>
<image display="none" overflow="visible" width="512" height="512" xlink:href="../../../Knowledge/Icon/[+++++] (Full) Windows 8 Icons [icons8]/Sections_of_Website/services/services-512.png"  transform="matrix(0.0406 0 0 0.0406 597 27)">
</image>
<g>
	<path d="M1,363.622c0-87.988,0-175.977,0-263.965c1.726-0.451,3.521-0.729,5.169-1.379c78.1-30.804,156.196-61.621,234.248-92.547
		c3.16-1.252,5.788-1.304,8.954-0.155c85.446,31.022,170.922,61.96,256.405,92.879c1.668,0.603,3.479,0.81,5.224,1.201
		c0,87.988,0,175.977,0,263.965c-70.638,47.366-141.29,94.713-211.867,142.171c-2.928,1.969-5.052,1.801-8.038,0.327
		c-50.383-24.874-100.816-49.649-151.254-74.412C93.572,408.991,47.281,386.316,1,363.622z M39.949,125.945c0,2.913,0,4.715,0,6.516
		c0,67.039,0.043,134.077-0.1,201.116c-0.009,4.259,1.269,6.391,5.122,8.278c80.809,39.569,161.544,79.29,242.294,118.98
		c6.882,3.382,8.07,2.671,8.071-4.91c0.006-75.17-0.032-150.339,0.103-225.509c0.007-4.024-1.319-5.778-4.957-7.191
		c-81.527-31.666-163.007-63.451-244.5-95.203C44.343,127.383,42.655,126.872,39.949,125.945z M367.212,176.87
		c-2.068-0.856-3.424-1.45-4.802-1.985c-73.173-28.411-146.335-56.848-219.571-85.094c-2.612-1.008-6.281-0.984-8.904,0.014
		c-20.43,7.773-40.726,15.896-61.054,23.936c-1.317,0.521-2.554,1.245-4.354,2.135c1.55,0.735,2.408,1.209,3.313,1.562
		c77.15,30.064,154.296,60.143,231.507,90.05c2.099,0.813,5.304,0.517,7.34-0.53c17.679-9.097,35.209-18.482,52.777-27.795
		C364.468,178.631,365.409,177.979,367.212,176.87z M192.064,66.757c2.026,0.963,2.747,1.363,3.508,1.658
		c71.5,27.736,142.996,55.485,214.549,83.083c1.819,0.702,4.602,0.387,6.383-0.528c15.033-7.727,29.943-15.696,44.872-23.625
		c1.049-0.557,1.965-1.365,3.147-2.2c-0.775-0.417-1.048-0.611-1.352-0.72C391.529,98.5,319.89,72.565,248.206,46.753
		c-1.781-0.641-4.251-0.421-6.071,0.267c-10.69,4.04-21.282,8.339-31.908,12.549C204.583,61.805,198.938,64.037,192.064,66.757z"/>
	<path display="none" fill="#FFFFFF" d="M597.041,41.869c1.888,0.926,3.775,1.85,5.663,2.777c2.057,1.01,4.114,2.02,6.169,3.035
		c0.122,0.06,0.208,0.067,0.328-0.013c2.878-1.936,5.76-3.867,8.641-5.798c0,1.991,0,3.981,0,5.972c-6.933,0-13.867,0-20.8,0
		C597.041,45.85,597.041,43.859,597.041,41.869z"/>
	<path display="none" fill="#FFFFFF" d="M617.841,31.103c-0.071-0.016-0.145-0.024-0.213-0.049
		c-3.486-1.261-6.972-2.523-10.457-3.788c-0.129-0.047-0.236-0.045-0.365,0.006c-3.183,1.261-6.368,2.518-9.554,3.774
		c-0.067,0.027-0.14,0.038-0.211,0.056c0-1.353,0-2.706,0-4.061c6.933,0,13.867,0,20.8,0
		C617.841,28.397,617.841,29.75,617.841,31.103z"/>
	<path display="none" fill="#FFFFFF" d="M598.629,32.175c0.11,0.038,0.179,0.059,0.246,0.085c3.324,1.295,6.647,2.591,9.972,3.883
		c0.148,0.058,0.202,0.129,0.202,0.293c-0.005,3.066-0.004,6.131-0.004,9.197c0,0.309-0.048,0.338-0.329,0.2
		c-3.293-1.619-6.586-3.239-9.882-4.853c-0.157-0.077-0.209-0.164-0.209-0.338c0.006-2.734,0.004-5.468,0.004-8.202
		C598.629,32.368,598.629,32.294,598.629,32.175z M606.63,43.472c0-0.29-0.01-0.54,0.004-0.789c0.008-0.148-0.054-0.211-0.178-0.269
		c-1.73-0.812-3.457-1.629-5.186-2.444c-0.064-0.03-0.131-0.053-0.22-0.089c0,0.255,0.011,0.485-0.003,0.713
		c-0.011,0.178,0.043,0.271,0.215,0.351c1.616,0.752,3.226,1.517,4.838,2.278C606.264,43.302,606.428,43.378,606.63,43.472z
		 M604.245,38.223c0.219,0.072,0.395,0.142,0.578,0.188c0.169,0.043,0.233,0.121,0.23,0.306c-0.013,0.67-0.007,1.34-0.003,2.01
		c0,0.066,0.019,0.172,0.061,0.191c0.224,0.102,0.458,0.181,0.729,0.284c0-0.833,0-1.625,0-2.445
		c0.263,0.083,0.491,0.155,0.765,0.242c-0.4-0.792-0.777-1.541-1.168-2.315C605.032,37.208,604.648,37.703,604.245,38.223z
		 M603.428,37.852c-0.406-0.774-0.792-1.511-1.191-2.273c-0.4,0.512-0.777,0.993-1.169,1.495c0.212,0.072,0.393,0.145,0.581,0.192
		c0.151,0.038,0.201,0.107,0.198,0.265c-0.01,0.608-0.005,1.217-0.002,1.826c0,0.062,0.012,0.163,0.049,0.179
		c0.235,0.105,0.479,0.191,0.75,0.295c0-0.769,0-1.489,0-2.23C602.908,37.686,603.149,37.763,603.428,37.852z"/>
	<path display="none" fill="#FFFFFF" d="M611.976,34.252c-0.074,0.045-0.112,0.072-0.153,0.094c-0.716,0.38-1.431,0.763-2.152,1.134
		c-0.083,0.043-0.214,0.055-0.299,0.022c-3.149-1.22-6.295-2.446-9.442-3.673c-0.037-0.014-0.072-0.034-0.135-0.064
		c0.073-0.036,0.124-0.066,0.178-0.087c0.829-0.328,1.657-0.659,2.49-0.976c0.107-0.041,0.257-0.042,0.363-0.001
		c2.987,1.152,5.971,2.312,8.955,3.47C611.837,34.193,611.892,34.217,611.976,34.252z"/>
	<path display="none" fill="#FFFFFF" d="M604.833,29.761c0.28-0.111,0.511-0.202,0.741-0.293c0.433-0.172,0.865-0.347,1.301-0.512
		c0.074-0.028,0.175-0.037,0.248-0.011c2.924,1.053,5.845,2.11,8.767,3.168c0.012,0.004,0.023,0.012,0.055,0.029
		c-0.048,0.034-0.086,0.067-0.128,0.09c-0.609,0.323-1.217,0.648-1.83,0.964c-0.073,0.037-0.186,0.05-0.26,0.022
		c-2.918-1.126-5.834-2.257-8.75-3.388C604.945,29.817,604.916,29.801,604.833,29.761z"/>
	<path d="M236.124,402.939c-4.957-2.317-8.979-4.182-12.987-6.074c-39.523-18.658-79.003-37.408-118.625-55.855
		c-4.227-1.968-5.549-4.25-5.28-8.615c0.345-5.598,0.084-11.234,0.084-17.492c2.178,0.876,3.827,1.444,5.395,2.183
		c42.379,19.98,84.736,40.004,127.147,59.915c3.03,1.423,4.569,2.968,4.362,6.594C235.871,389.697,236.124,395.834,236.124,402.939z
		"/>
	<path d="M177.65,274.239c9.885-12.76,19.292-24.902,29.222-37.721c9.575,18.977,18.836,37.331,28.635,56.751
		c-6.711-2.123-12.301-3.892-18.758-5.935c0,20.095,0,39.529,0,59.949c-6.628-2.509-12.368-4.468-17.868-6.957
		c-1.014-0.459-1.476-3.059-1.486-4.675c-0.106-16.429-0.261-32.863,0.063-49.287c0.09-4.551-1.489-6.463-5.632-7.51
		C187.345,277.721,183.011,276.014,177.65,274.239z"/>
	<path d="M157.617,265.143c-6.839-2.193-12.749-4.088-19.198-6.156c0,18.153,0,35.816,0,54.674
		c-6.663-2.553-12.632-4.667-18.399-7.233c-0.889-0.396-1.185-2.868-1.193-4.384c-0.085-14.923-0.196-29.848,0.046-44.767
		c0.063-3.872-1.146-5.583-4.858-6.506c-4.603-1.144-9.041-2.953-14.248-4.71c9.613-12.296,18.846-24.107,28.656-36.654
		C138.206,228.086,147.673,246.159,157.617,265.143z"/>
</g>
<image display="none" overflow="visible" width="512" height="512" xlink:href="../../../Knowledge/Icon/[+++++] (Full) Windows 8 Icons [icons8]/Sections_of_Website/news/news-512.png"  transform="matrix(0.0406 0 0 0.0406 597 27)">
</image>
<g display="none">
	<path display="inline" d="M449.195,511c-95.957,0-191.914,0-287.871,0c-0.592-0.279-1.159-0.722-1.779-0.812
		c-17.209-2.517-31.597-10.609-44.072-22.393c-21.723-20.519-29.051-45.905-25.174-75.031c25.631-3.487,35.374-19.156,37.223-33.434
		c1.23-9.501-0.235-18.593-5.515-26.711c-7.506-11.542-19.099-16.294-32.045-18.067c0-6.897,0-13.282,0-19.559
		c27.768-8.259,37.754-18.578,37.966-39.125c0.083-7.986-1.845-15.518-6.429-22.092c-7.61-10.914-18.794-15.724-31.616-17.177
		c0-6.93,0-13.345,0-19.692c26.453-6.632,37.639-18.069,38.032-38.884c0.154-8.158-1.861-15.816-6.588-22.537
		c-7.59-10.79-18.704-15.399-31.48-17.046c0-6.709,0-13.138,0-19.862c9.971-1.378,19.212-4.332,26.588-11.383
		c7.581-7.248,11.423-16.268,11.405-26.681c-0.039-22.877-12.985-35.031-34.513-40.017c4.345-12.448,11.958-21.892,22.393-29.265
		C124.055,5.341,133.64,2.974,143.395,1c81.68,0,163.359,0,245.039,0c0.443,0.218,0.867,0.573,1.33,0.636
		c22.605,3.046,38.387,15.094,47.781,35.829c0.615,1.358,2.812,2.499,4.448,2.802c5.04,0.933,10.295,0.895,15.234,2.149
		c26.525,6.733,43.769,29.85,43.79,58.643c0.058,80.018,0.027,160.035,0.019,240.053c-0.004,37.518,0.178,75.039-0.13,112.555
		c-0.195,23.628-15.126,44.605-37.068,53.022C459.102,508.505,454.083,509.582,449.195,511z M275.143,288.842
		c4.959,11.02,14.537,13.773,25.347,14.017c10.174,0.23,19.997-1.99,28.55-7.347c32.436-20.316,49.904-49.189,46.685-88.111
		c-3.053-36.919-22.504-63.075-56.332-77.996c-25.779-11.371-52.708-12.132-79.964-6.322c-24.739,5.273-45.499,17.466-61.098,37.423
		c-24.391,31.204-33.39,66.745-26.646,105.711c5.852,33.811,24.578,58.526,55.803,73.317c16.404,7.77,33.901,11.376,51.893,12.603
		c28.587,1.949,56.372-0.837,81.948-15.171c16.191-9.074,29.899-20.869,39.282-37.151c3.072-5.331,1.391-8.109-4.787-8.203
		c-5.311-0.081-10.635,0.201-15.931-0.09c-4.083-0.225-6.777,1.335-9.301,4.449c-10.371,12.792-24.014,21.054-39.561,25.477
		c-29.42,8.371-58.772,7.194-87.397-3.809c-20.964-8.059-35.555-22.738-42.686-44.27c-7.698-23.245-6.647-46.479,1.739-69.22
		c6.26-16.976,16.454-31.402,31.683-41.743c23.534-15.98,49.554-20.487,76.98-14.571c31.998,6.902,56.529,28.858,58.694,64.224
		c1.418,23.154-13.151,50.162-34.16,60.357c-2.704,1.312-6.195,1.001-9.322,1.442c-0.082-2.946-0.744-6.013-0.157-8.818
		c6.083-29.031,12.387-58.016,18.581-87.024c1.134-5.309-0.256-7.095-5.623-7.284c-4.145-0.146-8.299-0.045-12.448-0.045
		c-10.109,0-10.101,0.004-12.584,9.605c-0.148,0.574-0.56,1.079-0.945,1.796c-0.707-0.547-1.257-0.904-1.727-1.346
		c-15.381-14.469-32.8-16.944-51.869-8.522c-20.116,8.885-32.03,25.281-39.678,45.066c-7.263,18.788-8.065,37.813,0.274,56.629
		c11.311,25.521,37.791,35.789,61.223,23.616C266.258,295.115,270.474,291.869,275.143,288.842z M442.204,79.977
		c0,2.067,0,4.188,0,6.308c0,101.095,0.025,202.189-0.067,303.284c-0.005,5.762-0.284,11.689-1.613,17.258
		c-6.575,27.554-29.747,45.201-59.078,45.222c-75.53,0.053-151.061,0.018-226.591,0.019c-1.907,0-3.813,0-6.636,0
		c1.364,3.14,2.097,5.509,3.339,7.573c5.653,9.398,14.475,12.441,24.947,12.436c87.316-0.045,174.633-0.021,261.949-0.03
		c16.21-0.002,23.787-7.58,23.788-23.744c0.003-115.205,0.002-230.409-0.003-345.614c0-1.825,0.051-3.663-0.133-5.473
		C461.061,86.923,452.284,79.11,442.204,79.977z"/>
	<path fill="#FFFFFF" d="M602.444,27.041c-0.398,0.081-0.789,0.177-1.129,0.417c-0.426,0.301-0.736,0.686-0.913,1.194
		c0.878,0.203,1.406,0.699,1.408,1.632c0.001,0.425-0.156,0.793-0.465,1.088c-0.301,0.288-0.678,0.408-1.084,0.464
		c0,0.274,0,0.536,0,0.81c0.521,0.067,0.974,0.255,1.284,0.695c0.193,0.274,0.275,0.586,0.269,0.919
		c-0.016,0.849-0.472,1.315-1.551,1.586c0,0.259,0,0.52,0,0.803c0.523,0.059,0.979,0.255,1.289,0.701
		c0.187,0.268,0.266,0.575,0.262,0.901c-0.009,0.838-0.416,1.259-1.548,1.596c0,0.256,0,0.516,0,0.798
		c0.528,0.072,1.001,0.266,1.307,0.737c0.215,0.331,0.275,0.702,0.225,1.089c-0.075,0.582-0.473,1.221-1.518,1.364
		c-0.158,1.188,0.141,2.223,1.027,3.06c0.509,0.481,1.096,0.811,1.797,0.913c0.025,0.004,0.048,0.022,0.073,0.033
		c-2.045,0-4.09,0-6.134,0c0-1.517,0-3.033,0-4.55c0.012,0.024,0.03,0.047,0.034,0.072c0.077,0.551,0.397,0.898,0.905,1.097
		c0.312,0.122,0.856,0.202,1.072,0.143c-0.414-0.224-0.656-0.57-0.735-1.033c-0.057-0.329,0.102-0.526,0.432-0.532
		c0.122-0.002,0.244,0.002,0.365-0.001c0.405-0.01,0.812,0,1.215-0.039c0.361-0.035,0.603-0.282,0.656-0.596
		c0.085-0.505-0.212-0.909-0.734-0.932c-0.614-0.026-1.232-0.029-1.846,0.001c-0.647,0.032-1.164,0.5-1.308,1.118
		c-0.017,0.072-0.036,0.143-0.055,0.214c0-1.165,0-2.329,0-3.494c0.011,0.016,0.031,0.032,0.032,0.049
		c0.095,0.961,1.122,1.315,2.009,1.257c-0.409-0.202-0.661-0.527-0.749-0.973c-0.085-0.433,0.064-0.611,0.501-0.613
		c0.453-0.002,0.906,0.006,1.359-0.009c0.427-0.014,0.731-0.265,0.79-0.623c0.088-0.536-0.241-0.922-0.84-0.943
		c-0.54-0.019-1.082-0.021-1.623,0c-0.722,0.029-1.257,0.466-1.421,1.118c-0.018,0.07-0.04,0.14-0.06,0.209c0-1.165,0-2.329,0-3.494
		c0.011,0.024,0.03,0.048,0.033,0.073c0.079,0.56,0.402,0.917,0.923,1.102c0.333,0.118,0.676,0.183,1.086,0.163
		c-0.085-0.051-0.12-0.071-0.153-0.093c-0.367-0.243-0.569-0.59-0.624-1.02c-0.037-0.286,0.129-0.469,0.417-0.475
		c0.527-0.011,1.057,0.01,1.58-0.039c0.463-0.043,0.722-0.381,0.696-0.796c-0.027-0.428-0.322-0.725-0.789-0.739
		c-0.595-0.018-1.191-0.023-1.785,0.002c-0.651,0.027-1.182,0.495-1.33,1.12c-0.017,0.071-0.037,0.142-0.055,0.213
		c0-1.165,0-2.329,0-3.494c0.016,0.05,0.035,0.099,0.047,0.15c0.081,0.367,0.265,0.667,0.595,0.857
		c0.431,0.249,0.907,0.32,1.45,0.33c-0.448-0.226-0.708-0.546-0.797-0.99c-0.089-0.447,0.058-0.621,0.509-0.623
		c0.453-0.003,0.907,0.005,1.36-0.012c0.419-0.016,0.717-0.265,0.778-0.614c0.093-0.537-0.229-0.924-0.833-0.95
		c-0.547-0.024-1.097-0.027-1.644,0.001c-0.724,0.038-1.24,0.467-1.404,1.113c-0.018,0.07-0.04,0.139-0.06,0.209
		c0-1.243,0-2.486,0-3.737C598.842,27.041,600.643,27.041,602.444,27.041z"/>
	<path fill="#FFFFFF" d="M614.916,47.841c0.199-0.058,0.404-0.102,0.597-0.176c0.895-0.343,1.504-1.199,1.512-2.162
		c0.013-1.53,0.005-3.06,0.005-4.59c0-3.263,0.002-6.527-0.001-9.79c-0.001-1.174-0.704-2.117-1.786-2.392
		c-0.201-0.051-0.416-0.05-0.621-0.088c-0.067-0.012-0.156-0.059-0.181-0.114c-0.383-0.846-1.027-1.337-1.949-1.461
		c-0.019-0.003-0.036-0.017-0.054-0.026c1.8,0,3.6,0,5.401,0c0,6.933,0,13.867,0,20.8C616.864,47.841,615.89,47.841,614.916,47.841z
		"/>
	<path display="inline" d="M10.914,92.641c0.497-1.707,1.046-3.402,1.483-5.124c4.025-15.852,16.671-26.374,34.435-27.3
		c13.404-0.698,26.894-0.621,40.309-0.037c14.812,0.645,22.696,10.134,20.421,23.294c-1.481,8.565-8.802,14.673-19.069,15.057
		c-11.105,0.415-22.232,0.225-33.35,0.29c-11.073,0.065-14.666,4.32-12.487,15.283c2.165,10.891,8.549,18.717,19.529,24.27
		c-13.301-0.231-24.965-1.973-35.544-8.081c-8.08-4.665-12.593-12.016-14.587-21.024c-0.277-1.25-0.756-2.454-1.141-3.68
		C10.914,101.273,10.914,96.957,10.914,92.641z"/>
	<path display="inline" d="M10.914,288.871c0.489-1.71,1.027-3.408,1.459-5.133c4.008-15.989,17.134-26.695,34.833-27.408
		c13.243-0.533,26.537-0.486,39.784-0.011c14.684,0.526,22.764,9.992,20.598,23.125c-1.449,8.78-8.906,14.948-19.373,15.283
		c-11.099,0.355-22.215,0.165-33.324,0.219c-10.708,0.051-14.369,4.42-12.288,15.037c2.146,10.948,8.34,18.907,18.36,23.858
		c-21.741,1.425-46.917-7.258-49.257-30.814c-0.042-0.424-0.518-0.805-0.792-1.206C10.914,297.504,10.914,293.188,10.914,288.871z"
		/>
	<path display="inline" d="M10.914,191.254c0.455-1.742,0.946-3.476,1.359-5.228c3.615-15.32,16.628-26.789,32.601-27.462
		c14.569-0.614,29.194-0.488,43.776-0.057c11.431,0.338,18.684,7.617,19.337,18.123c0.632,10.159-5.725,18.443-17.071,19.507
		c-12.831,1.203-25.822,0.679-38.743,0.95c-7.046,0.148-11.121,4.624-10.219,11.638c1.359,10.559,6.305,19.065,15.303,25.018
		c0.812,0.537,1.666,1.012,3.749,2.27c-10.058,0.483-18.467-1.103-26.632-4C21.587,227.473,13.658,218.727,11.732,205
		c-0.088-0.624-0.537-1.197-0.818-1.793C10.914,199.223,10.914,195.238,10.914,191.254z"/>
	<path display="inline" d="M10.914,387.484c0.448-1.747,0.93-3.485,1.338-5.241c3.533-15.17,16.211-26.65,32.064-27.423
		c15.053-0.734,30.192-0.668,45.252-0.02c12.815,0.552,20.093,10.473,18.005,22.849c-1.299,7.7-7.211,13.771-16.073,14.619
		c-9.87,0.944-19.855,0.707-29.791,0.946c-2.984,0.072-5.972-0.03-8.957,0.024c-8.085,0.148-11.969,4.971-10.58,13.046
		c1.949,11.335,7.865,19.835,18.027,25.317c-5.29,1.457-18.635-0.501-26.275-3.496c-12.437-4.875-20.291-13.374-22.178-26.89
		c-0.086-0.619-0.546-1.186-0.832-1.777C10.914,395.453,10.914,391.469,10.914,387.484z"/>
	<path fill="#FFFFFF" d="M607.817,38.78c-0.19,0.123-0.362,0.256-0.552,0.354c-0.956,0.496-2.036,0.078-2.497-0.963
		c-0.34-0.767-0.307-1.543-0.011-2.31c0.312-0.807,0.798-1.476,1.618-1.838c0.778-0.344,1.488-0.243,2.115,0.348
		c0.019,0.018,0.042,0.033,0.07,0.055c0.016-0.029,0.033-0.05,0.039-0.073c0.101-0.392,0.101-0.392,0.513-0.392
		c0.169,0,0.339-0.004,0.508,0.002c0.219,0.008,0.276,0.081,0.229,0.297c-0.253,1.183-0.51,2.365-0.758,3.549
		c-0.024,0.114,0.003,0.24,0.006,0.36c0.128-0.018,0.27-0.005,0.38-0.059c0.857-0.416,1.451-1.517,1.393-2.462
		c-0.088-1.442-1.089-2.338-2.394-2.619c-1.119-0.241-2.18-0.057-3.14,0.594c-0.621,0.422-1.037,1.01-1.292,1.702
		c-0.342,0.927-0.385,1.875-0.071,2.823c0.291,0.878,0.886,1.477,1.741,1.806c1.167,0.449,2.365,0.497,3.564,0.155
		c0.634-0.18,1.19-0.517,1.613-1.039c0.103-0.127,0.213-0.191,0.379-0.181c0.216,0.012,0.433,0,0.65,0.004
		c0.252,0.004,0.32,0.117,0.195,0.335c-0.383,0.664-0.942,1.145-1.602,1.515c-1.043,0.585-2.176,0.698-3.342,0.619
		c-0.734-0.05-1.447-0.197-2.116-0.514c-1.273-0.603-2.037-1.611-2.276-2.99c-0.275-1.589,0.092-3.039,1.087-4.311
		c0.636-0.814,1.483-1.311,2.492-1.526c1.112-0.237,2.21-0.206,3.261,0.258c1.38,0.609,2.173,1.675,2.297,3.181
		c0.131,1.587-0.581,2.765-1.904,3.594c-0.349,0.218-0.749,0.309-1.164,0.3C608.41,39.342,608.019,39.23,607.817,38.78z
		 M608.203,36.115c0-0.081,0.008-0.163-0.001-0.243c-0.052-0.429-0.217-0.793-0.659-0.934c-0.437-0.139-0.788,0.042-1.085,0.363
		c-0.263,0.284-0.429,0.623-0.537,0.988c-0.129,0.437-0.208,0.883-0.063,1.335c0.208,0.648,0.78,0.849,1.344,0.471
		C607.907,37.624,608.14,36.911,608.203,36.115z"/>
	<path fill="#FFFFFF" d="M614.63,30.262c0.411-0.035,0.769,0.283,0.812,0.703c0.008,0.074,0.005,0.149,0.005,0.223
		c0,4.699,0,9.397,0,14.096c0,0.659-0.309,0.968-0.97,0.968c-3.561,0-7.122-0.001-10.683,0.001c-0.427,0-0.787-0.124-1.017-0.507
		c-0.051-0.084-0.081-0.181-0.136-0.309c0.115,0,0.193,0,0.271,0c3.08,0,6.161,0.001,9.241-0.001
		c1.196-0.001,2.141-0.721,2.409-1.844c0.054-0.227,0.066-0.469,0.066-0.704c0.004-4.123,0.003-8.246,0.003-12.369
		C614.63,30.432,614.63,30.346,614.63,30.262z"/>
	<path display="inline" d="M284.61,223.504c-1.538,19.513-7.271,36.995-24.551,48.552c-13.85,9.263-27.869,4.338-32.965-11.556
		c-3.555-11.085-1.621-22.015,1.549-32.742c2.644-8.949,6.695-17.26,13.157-24.231c7.278-7.852,15.885-12.312,26.606-8.893
		c10.84,3.457,14.897,12.388,16.17,22.91C284.813,219.503,284.61,221.516,284.61,223.504z"/>
</g>
</svg>
