<?xml version="1.0" encoding="utf-8"?>
<!-- Generator: Adobe Illustrator 17.0.0, SVG Export Plug-In . SVG Version: 6.00 Build 0)  -->
<!DOCTYPE svg PUBLIC "-//W3C//DTD SVG 1.1//EN" "http://www.w3.org/Graphics/SVG/1.1/DTD/svg11.dtd">
<svg version="1.1" id="Layer_1" xmlns="http://www.w3.org/2000/svg" xmlns:xlink="http://www.w3.org/1999/xlink" x="0px" y="0px"
	 width="512px" height="512px" viewBox="0 0 512 512" enable-background="new 0 0 512 512" xml:space="preserve">
<g>
	<line fill="none" stroke="#B35047" x1="32" y1="0" x2="32" y2="512"/>
	<line fill="none" stroke="#B35047" x1="64" y1="0" x2="64" y2="512"/>
	<line fill="none" stroke="#B35047" x1="96" y1="0" x2="96" y2="512"/>
	<line fill="none" stroke="#B35047" x1="128" y1="0" x2="128" y2="512"/>
	<line fill="none" stroke="#B35047" x1="160" y1="0" x2="160" y2="512"/>
	<line fill="none" stroke="#B35047" x1="192" y1="0" x2="192" y2="512"/>
	<line fill="none" stroke="#B35047" x1="224" y1="0" x2="224" y2="512"/>
	<line fill="none" stroke="#B35047" x1="256" y1="0" x2="256" y2="512"/>
	<line fill="none" stroke="#B35047" x1="288" y1="0" x2="288" y2="512"/>
	<line fill="none" stroke="#B35047" x1="320" y1="0" x2="320" y2="512"/>
	<line fill="none" stroke="#B35047" x1="352" y1="0" x2="352" y2="512"/>
	<line fill="none" stroke="#B35047" x1="384" y1="0" x2="384" y2="512"/>
	<line fill="none" stroke="#B35047" x1="416" y1="0" x2="416" y2="512"/>
	<line fill="none" stroke="#B35047" x1="448" y1="0" x2="448" y2="512"/>
	<line fill="none" stroke="#B35047" x1="480" y1="0" x2="480" y2="512"/>
	<line fill="none" stroke="#B35047" x1="0" y1="32" x2="512" y2="32"/>
	<line fill="none" stroke="#B35047" x1="0" y1="64" x2="512" y2="64"/>
	<line fill="none" stroke="#B35047" x1="0" y1="96" x2="512" y2="96"/>
	<line fill="none" stroke="#B35047" x1="0" y1="128" x2="512" y2="128"/>
	<line fill="none" stroke="#B35047" x1="0" y1="160" x2="512" y2="160"/>
	<line fill="none" stroke="#B35047" x1="0" y1="192" x2="512" y2="192"/>
	<line fill="none" stroke="#B35047" x1="0" y1="224" x2="512" y2="224"/>
	<line fill="none" stroke="#B35047" x1="0" y1="256" x2="512" y2="256"/>
	<line fill="none" stroke="#B35047" x1="0" y1="288" x2="512" y2="288"/>
	<line fill="none" stroke="#B35047" x1="0" y1="320" x2="512" y2="320"/>
	<line fill="none" stroke="#B35047" x1="0" y1="352" x2="512" y2="352"/>
	<line fill="none" stroke="#B35047" x1="0" y1="384" x2="512" y2="384"/>
	<line fill="none" stroke="#B35047" x1="0" y1="416" x2="512" y2="416"/>
	<line fill="none" stroke="#B35047" x1="0" y1="448" x2="512" y2="448"/>
	<line fill="none" stroke="#B35047" x1="0" y1="480" x2="512" y2="480"/>
	<rect x="0" fill="none" stroke="#B35047" width="512" height="512"/>
</g>
<image display="none" overflow="visible" width="512" height="512" xlink:href="../../../Knowledge/Icon/[+++++] (Full) Windows 8 Icons [icons8]/Accounting/bill/bill-512.png"  transform="matrix(0.0406 0 0 0.0406 415 174)">
</image>
<g>
	<path display="none" fill="#FFFFFF" d="M266.435,266.441c-6.929,0-13.86,0-20.793,0c0-6.931,0-13.862,0-20.796
		c6.928,0,13.857,0,20.793,0C266.435,252.574,266.435,259.507,266.435,266.441z M264.584,249.463
		c-0.102,0.31-0.196,0.598-0.29,0.886c-1.091,3.327-2.207,6.645-3.459,9.915c-0.392,1.023-0.787,2.045-1.367,2.982
		c-0.468,0.757-1.052,1.349-1.993,1.483c-1.004,0.143-1.811-0.314-2.176-1.256c-0.212-0.546-0.288-1.114-0.267-1.691
		c0.009-0.243-0.08-0.333-0.289-0.417c-2.735-1.097-5.467-2.203-8.199-3.307c-0.193-0.078-0.386-0.154-0.617-0.247
		c-0.051,0.421-0.122,0.813-0.142,1.208c-0.05,0.996,0.165,1.921,0.795,2.722c0.439,0.558,1.019,0.908,1.661,1.194
		c2.179,0.973,4.347,1.97,6.522,2.952c0.754,0.34,1.532,0.527,2.378,0.477c1.447-0.085,2.574-0.696,3.405-1.876
		c0.581-0.824,1.007-1.729,1.376-2.661c1.644-4.149,3.04-8.386,4.411-12.63c0.191-0.591-0.076-1.021-0.701-1.145
		c-3.845-0.766-7.691-1.529-11.536-2.292c-0.574-0.114-0.898,0.072-1.099,0.623c-1.007,2.762-2.013,5.524-3.02,8.286
		c-0.248,0.679-0.502,1.356-0.744,2.038c-0.233,0.656,0.211,1.24,0.855,1.128c0.371-0.065,0.546-0.333,0.666-0.664
		c1.137-3.132,2.279-6.262,3.42-9.392c0.043-0.119,0.09-0.236,0.138-0.36C257.743,248.101,261.155,248.781,264.584,249.463z
		 M259.206,259.329c-0.006-0.372-0.218-0.64-0.626-0.775c-1.097-0.363-2.194-0.725-3.293-1.08c-0.137-0.044-0.294-0.066-0.436-0.052
		c-0.372,0.037-0.639,0.311-0.684,0.666c-0.049,0.381,0.161,0.733,0.554,0.864c1.14,0.382,2.281,0.761,3.428,1.123
		C258.702,260.25,259.215,259.873,259.206,259.329z M260.509,256.092c-0.01-0.376-0.219-0.637-0.629-0.772
		c-1.09-0.359-2.182-0.716-3.273-1.071c-0.096-0.031-0.196-0.054-0.296-0.066c-0.328-0.04-0.689,0.193-0.794,0.507
		c-0.159,0.478,0.068,0.89,0.593,1.063c1.078,0.355,2.156,0.707,3.234,1.059c0.09,0.029,0.182,0.054,0.275,0.068
		C260.099,256.952,260.522,256.575,260.509,256.092z M260.925,253.393c0.527,0.052,0.872-0.182,0.969-0.526
		c0.13-0.467-0.098-0.868-0.592-1.009c-0.649-0.186-1.302-0.361-1.954-0.536c-0.535-0.144-1.068-0.295-1.608-0.415
		c-0.286-0.064-0.535,0.065-0.707,0.3c-0.353,0.481-0.124,1.084,0.476,1.254c0.663,0.188,1.329,0.364,1.993,0.546
		C260.03,253.149,260.557,253.293,260.925,253.393z M253.954,253.459c-0.431-0.016-0.791,0.326-0.805,0.763
		c-0.014,0.458,0.35,0.807,0.863,0.828c0.442,0.018,0.805-0.316,0.829-0.764C254.866,253.836,254.482,253.478,253.954,253.459z
		 M252.746,258.115c0.46,0.011,0.81-0.315,0.819-0.764c0.009-0.45-0.362-0.806-0.851-0.818c-0.469-0.011-0.84,0.314-0.841,0.767
		C251.872,257.768,252.24,258.122,252.746,258.115z M255.271,251.731c0.462,0.006,0.809-0.321,0.815-0.769
		c0.007-0.462-0.361-0.804-0.874-0.812c-0.457-0.007-0.806,0.319-0.821,0.768C254.376,251.364,254.767,251.725,255.271,251.731z"/>
	<path d="M465.97,93.267c-84.706-16.861-169.006-33.64-253.761-50.51c-1.185,3.079-2.351,5.974-3.419,8.905
		c-28.181,77.336-56.382,154.664-84.483,232.03c-2.971,8.179-7.297,14.799-16.457,16.394c-15.91,2.77-26.88-11.654-21.134-27.857
		c5.971-16.836,12.253-33.561,18.372-50.345c24.876-68.234,49.743-136.472,74.611-204.71c4.957-13.603,12.953-18.198,27.146-15.381
		c95.003,18.854,190.004,37.718,284.996,56.63c15.439,3.074,22.028,13.676,17.31,28.285
		c-33.867,104.864-68.353,209.519-108.961,312.025c-9.115,23.01-19.643,45.368-33.995,65.732
		c-20.538,29.141-48.387,44.238-84.127,46.339c-20.91,1.229-40.123-3.383-58.748-11.787
		c-53.737-24.247-107.299-48.884-161.13-72.918c-15.853-7.078-30.17-15.725-41.023-29.507C5.59,376.807,0.284,353.945,1.521,329.348
		c0.49-9.752,2.249-19.441,3.513-29.839c5.708,2.281,10.482,4.171,15.243,6.094c67.503,27.266,134.982,54.592,202.551,81.693
		c5.156,2.068,7.352,4.292,7.132,10.297c-0.522,14.26,1.373,28.304,6.602,41.785c9.031,23.283,28.975,34.556,53.766,31.03
		c23.26-3.308,37.685-17.944,49.245-36.638c14.315-23.148,24.093-48.407,33.768-73.674c30.936-80.789,58.514-162.754,85.459-244.938
		C461.134,108.043,463.463,100.925,465.97,93.267z"/>
	<path d="M333.095,336.999c0.222,13.436-12.452,22.749-26.137,18.425c-28.323-8.949-56.522-18.298-84.686-27.739
		c-9.695-3.25-14.896-11.936-13.681-21.353c1.133-8.774,7.725-15.525,16.91-16.451c3.527-0.355,7.383,0.192,10.78,1.287
		c27.161,8.755,54.259,17.704,81.351,26.672C327.717,321.179,332.943,327.798,333.095,336.999z"/>
	<path d="M365.305,257.025c0.321,11.937-10.146,21.261-21.965,19.473c-2.297-0.348-4.577-0.963-6.79-1.685
		c-26.645-8.693-53.286-17.398-79.906-26.166c-12.972-4.272-18.593-14.452-14.654-26.263c2.581-7.74,11.501-13.507,19.607-12.515
		c2.468,0.302,4.945,0.857,7.31,1.627c26.967,8.78,53.922,17.595,80.86,26.464C359.903,241.298,365.055,247.731,365.305,257.025z"/>
	<path d="M375.561,190.354c-9.079-2.475-22.102-6.022-35.123-9.575c-16.419-4.48-32.87-8.848-49.246-13.482
		c-14.84-4.199-20.49-19.076-11.767-30.97c4.25-5.795,10.382-8.981,17.455-7.406c13.34,2.972,26.511,6.713,39.718,10.262
		c16.114,4.33,32.231,8.656,48.273,13.239c12.203,3.487,17.836,13.382,14.616,24.926
		C397.113,185.864,388.593,191.633,375.561,190.354z"/>
	<path d="M203.353,191.982c13.052,0.48,22.521,9.306,21.927,20.436c-0.59,11.058-9.554,19.318-20.476,18.868
		c-12.689-0.523-21.677-9.144-21.331-20.461C183.803,200.038,192.715,191.591,203.353,191.982z"/>
	<path d="M173.503,306.994c-12.48,0.196-21.577-8.555-21.554-20.115c0.022-11.199,9.18-19.228,20.77-18.956
		c12.073,0.283,21.245,9.098,21.023,20.204C193.521,299.203,184.876,307.261,173.503,306.994z"/>
	<path d="M235.883,149.3c-12.452-0.168-22.089-9.08-21.726-20.09c0.366-11.084,8.988-19.148,20.282-18.969
		c12.668,0.201,21.751,8.64,21.586,20.058C255.864,141.376,247.3,149.454,235.883,149.3z"/>
</g>
</svg>
