<?xml version="1.0" encoding="utf-8"?>
<!-- Generator: Adobe Illustrator 17.0.0, SVG Export Plug-In . SVG Version: 6.00 Build 0)  -->
<!DOCTYPE svg PUBLIC "-//W3C//DTD SVG 1.1//EN" "http://www.w3.org/Graphics/SVG/1.1/DTD/svg11.dtd">
<svg version="1.1" id="Layer_1" xmlns="http://www.w3.org/2000/svg" xmlns:xlink="http://www.w3.org/1999/xlink" x="0px" y="0px"
	 width="512px" height="512px" viewBox="0 0 512 512" enable-background="new 0 0 512 512" xml:space="preserve">
<g>
	<line fill="none" stroke="#B35047" x1="32" y1="0" x2="32" y2="512"/>
	<line fill="none" stroke="#B35047" x1="64" y1="0" x2="64" y2="512"/>
	<line fill="none" stroke="#B35047" x1="96" y1="0" x2="96" y2="512"/>
	<line fill="none" stroke="#B35047" x1="128" y1="0" x2="128" y2="512"/>
	<line fill="none" stroke="#B35047" x1="160" y1="0" x2="160" y2="512"/>
	<line fill="none" stroke="#B35047" x1="192" y1="0" x2="192" y2="512"/>
	<line fill="none" stroke="#B35047" x1="224" y1="0" x2="224" y2="512"/>
	<line fill="none" stroke="#B35047" x1="256" y1="0" x2="256" y2="512"/>
	<line fill="none" stroke="#B35047" x1="288" y1="0" x2="288" y2="512"/>
	<line fill="none" stroke="#B35047" x1="320" y1="0" x2="320" y2="512"/>
	<line fill="none" stroke="#B35047" x1="352" y1="0" x2="352" y2="512"/>
	<line fill="none" stroke="#B35047" x1="384" y1="0" x2="384" y2="512"/>
	<line fill="none" stroke="#B35047" x1="416" y1="0" x2="416" y2="512"/>
	<line fill="none" stroke="#B35047" x1="448" y1="0" x2="448" y2="512"/>
	<line fill="none" stroke="#B35047" x1="480" y1="0" x2="480" y2="512"/>
	<line fill="none" stroke="#B35047" x1="0" y1="32" x2="512" y2="32"/>
	<line fill="none" stroke="#B35047" x1="0" y1="64" x2="512" y2="64"/>
	<line fill="none" stroke="#B35047" x1="0" y1="96" x2="512" y2="96"/>
	<line fill="none" stroke="#B35047" x1="0" y1="128" x2="512" y2="128"/>
	<line fill="none" stroke="#B35047" x1="0" y1="160" x2="512" y2="160"/>
	<line fill="none" stroke="#B35047" x1="0" y1="192" x2="512" y2="192"/>
	<line fill="none" stroke="#B35047" x1="0" y1="224" x2="512" y2="224"/>
	<line fill="none" stroke="#B35047" x1="0" y1="256" x2="512" y2="256"/>
	<line fill="none" stroke="#B35047" x1="0" y1="288" x2="512" y2="288"/>
	<line fill="none" stroke="#B35047" x1="0" y1="320" x2="512" y2="320"/>
	<line fill="none" stroke="#B35047" x1="0" y1="352" x2="512" y2="352"/>
	<line fill="none" stroke="#B35047" x1="0" y1="384" x2="512" y2="384"/>
	<line fill="none" stroke="#B35047" x1="0" y1="416" x2="512" y2="416"/>
	<line fill="none" stroke="#B35047" x1="0" y1="448" x2="512" y2="448"/>
	<line fill="none" stroke="#B35047" x1="0" y1="480" x2="512" y2="480"/>
	<rect x="0" fill="none" stroke="#B35047" width="512" height="512"/>
</g>
<image display="none" overflow="visible" width="512" height="512" xlink:href="../../../Knowledge/Icon/[+++++] (Full) Windows 8 Icons [icons8]/Payment_Methods/shopping_basket/shopping_basket-512.png"  transform="matrix(0.0406 0 0 0.0406 607 53)">
</image>
<g>
	<path display="none" fill="#FFFFFF" d="M627.834,73.841c-6.929,0-13.86,0-20.793,0c0-6.931,0-13.862,0-20.796
		c6.928,0,13.858,0,20.793,0C627.834,59.974,627.834,66.907,627.834,73.841z M617.426,73.673c0,0.002,0,0.004,0,0.006
		c0.914,0,1.828,0.006,2.742-0.001c1.281-0.011,2.558-0.063,3.802-0.413c1.23-0.346,2.18-1.03,2.602-2.281
		c0.42-1.247,0.436-2.514,0.019-3.768c-0.468-1.409-1.387-2.496-2.519-3.416c-1.298-1.055-2.764-1.792-4.369-2.254
		c-1.214-0.35-2.447-0.462-3.692-0.199c-2.248,0.474-4.239,1.464-5.896,3.067c-1.558,1.506-2.337,3.312-2.06,5.52
		c0.217,1.735,1.206,2.894,2.887,3.343c1.075,0.287,2.172,0.375,3.276,0.394C615.286,73.687,616.356,73.673,617.426,73.673z
		 M619.727,58.929c0.151-0.332,0.317-0.643,0.433-0.971c0.078-0.222,0.182-0.367,0.399-0.481c0.675-0.354,0.915-1.233,0.549-1.913
		c-0.37-0.688-1.217-0.961-1.9-0.613c-0.923,0.47-1.084,1.672-0.323,2.368c0.052,0.048,0.104,0.156,0.085,0.214
		c-0.11,0.344-0.275,0.662-0.545,0.913c-0.159,0.148-0.33,0.234-0.565,0.216c-0.309-0.024-0.622,0.005-0.933-0.007
		c-0.108-0.004-0.229-0.037-0.318-0.096c-0.349-0.229-0.53-0.584-0.681-0.96c-0.051-0.126-0.031-0.202,0.074-0.295
		c0.415-0.37,0.554-0.846,0.442-1.378c-0.136-0.646-0.67-1.075-1.346-1.126c-0.567-0.043-1.175,0.352-1.391,0.902
		c-0.239,0.608-0.094,1.312,0.467,1.658c0.372,0.229,0.528,0.528,0.66,0.894c0.066,0.183,0.175,0.35,0.266,0.524
		c0.023,0.045,0.047,0.089,0.046,0.086c-0.753,0.29-1.509,0.545-2.234,0.869c-1.167,0.521-2.209,1.253-3.22,2.03
		c-0.476,0.365-0.923,0.77-1.478,1.027c-0.263,0.122-0.405,0.502-0.348,0.786c0.064,0.319,0.312,0.575,0.613,0.63
		c0.408,0.074,0.741-0.104,1.052-0.329c0.367-0.266,0.728-0.541,1.085-0.821c1.335-1.044,2.749-1.947,4.386-2.446
		c1.208-0.368,2.436-0.482,3.689-0.273c1.361,0.227,2.622,0.727,3.769,1.476c0.967,0.632,1.881,1.344,2.827,2.01
		c0.207,0.146,0.438,0.275,0.677,0.355c0.44,0.146,0.887-0.074,1.016-0.461c0.147-0.439-0.051-0.838-0.502-1.032
		c-0.116-0.05-0.227-0.119-0.33-0.194c-0.743-0.543-1.47-1.109-2.226-1.632c-1.129-0.782-2.35-1.388-3.667-1.79
		C620.075,59.013,619.893,58.972,619.727,58.929z"/>
	<path d="M255.659,506.932c-28.454,0-56.914,0.38-85.36-0.105c-29.358-0.501-58.521-2.848-87.126-10.487
		c-44.714-11.941-71.013-42.77-76.786-88.908c-7.349-58.733,13.371-106.762,54.8-146.82c44.091-42.634,97.037-68.957,156.836-81.567
		c33.117-6.983,65.911-4.007,98.209,5.303c42.679,12.303,81.687,31.898,116.209,59.967c30.117,24.487,54.56,53.404,67.005,90.873
		c11.08,33.361,10.664,67.062-0.51,100.222c-11.216,33.286-36.494,51.481-69.214,60.672c-33.088,9.294-67.065,10.696-101.127,10.982
		c-24.31,0.204-48.624,0.04-72.936,0.04C255.659,507.046,255.659,506.989,255.659,506.932z"/>
	<path d="M316.872,114.755c4.397,1.154,9.252,2.254,14,3.702c35.036,10.686,67.5,26.816,97.534,47.61
		c20.112,13.925,39.456,28.959,59.206,43.41c2.727,1.995,5.677,3.824,8.77,5.158c11.996,5.173,17.251,15.779,13.345,27.453
		c-3.438,10.273-15.339,16.14-27.03,12.254c-6.357-2.113-12.495-5.555-18.004-9.431c-25.156-17.697-49.468-36.658-75.198-53.458
		c-30.517-19.926-64.058-33.224-100.251-39.255c-33.312-5.551-65.991-2.519-98.115,7.271c-43.55,13.272-81.16,37.279-116.66,65.056
		c-9.496,7.43-19.08,14.763-28.85,21.826c-8.279,5.985-17.139,10.73-27.984,8.751c-8-1.46-14.605-8.282-16.304-16.755
		c-1.515-7.554,2.262-17.665,9.265-20.906c14.768-6.835,26.665-17.609,39.313-27.327c26.893-20.663,54.599-40.125,85.646-53.989
		c19.291-8.615,39.403-15.393,59.428-23.104c0.031,0.058-0.615-1.113-1.23-2.3c-2.397-4.626-5.307-9.068-7.064-13.927
		c-3.525-9.747-7.655-17.682-17.561-23.786c-14.907-9.185-18.777-27.907-12.42-44.089c5.754-14.647,21.926-25.137,37.004-24.003
		c17.994,1.353,32.175,12.762,35.804,29.951c2.99,14.166-0.713,26.834-11.756,36.663c-2.778,2.472-3.31,4.493-1.963,7.846
		c4.014,9.995,8.832,19.423,18.123,25.524c2.378,1.562,5.596,2.436,8.468,2.541c8.269,0.303,16.596-0.447,24.826,0.182
		c6.238,0.477,10.793-1.809,15.015-5.741c7.181-6.687,11.549-15.135,14.488-24.29c0.491-1.53-0.87-4.403-2.267-5.679
		c-20.256-18.497-15.959-50.492,8.587-62.98c18.186-9.253,40.698-1.993,50.547,16.301c9.734,18.081,3.361,41.478-14.597,50.883
		c-5.781,3.028-8.529,6.899-10.61,12.798C325.296,97.655,320.884,105.922,316.872,114.755z"/>
</g>
<g display="none">
	<path display="inline" d="M511,270.547c0,22.017,0,44.035,0,66.052c-3.903,12.391-12.561,17.364-25.2,16.245
		c-2.151-0.19-4.36,0.193-6.497-0.062c-14.618-1.749-23.761,4.499-29.734,17.951c-6.818,15.356-16.931,28.867-29.67,39.834
		c-9.417,8.108-20.012,14.864-30.203,22.051c-7.417,5.231-9.092,9.956-5.941,18.366c1.869,4.988,3.884,9.925,5.647,14.949
		c4.353,12.402-0.424,23.137-12.669,27.974c-12.23,4.831-24.538,9.474-36.895,13.97c-12.465,4.535-22.874-0.098-28.037-12.421
		c-2.764-6.598-5.148-13.355-7.687-20.047c-4.013-10.574-6.356-12.055-17.476-11.078c-8.8,0.772-17.602,1.518-26.403,2.272
		c-26.616,2.281-52.911-0.032-79.04-5.269c-6.374-1.277-9.192,0.326-11.792,6.439c-3.776,8.879-7.139,17.933-10.685,26.91
		c-5.083,12.87-15.649,17.827-28.515,13.134c-12.197-4.45-24.354-9.021-36.441-13.761c-12.886-5.053-17.558-16.249-12.53-29.192
		c3.194-8.223,6.379-16.452,9.391-24.743c3.612-9.944,2.229-14.894-5.935-21.517c-14.958-12.135-28.611-25.516-39.799-41.278
		c-13.201-18.599-21.745-38.892-22.43-62.014c-0.622-20.968,1.801-41.574,7.542-61.764c1.865-6.558,0.954-12.541-3.438-17.855
		c-4.459-5.395-9.03-10.698-13.426-16.143c-15.826-19.603-16.29-50.471-0.714-68.009c8.554-9.632,19.378-14.317,32.289-10.809
		c11.279,3.065,17.751,11.378,21.979,22.54c-4.266-1.972-7.745-3.874-11.425-5.228c-11.306-4.159-22.062-0.825-27.492,8.603
		c-8.563,14.866,0.946,31.721,16.792,36.651c1.406,0.437,3.581,0.11,4.766-0.742c5.081-3.652,10.322-7.231,14.757-11.596
		c5.803-5.71,10.403-12.682,16.391-18.16c24.794-22.677,54.259-36.618,86.696-44.348c45.01-10.726,90.168-10.486,135.274-0.463
		c4.015,0.892,5.822,0.098,7.629-3.636c15.342-31.709,40.644-51.655,73.999-61.893c2.446-0.751,4.942-1.343,7.517-2.036
		c0.072,0.992,0.193,1.346,0.103,1.633c-0.451,1.427-0.939,2.843-1.449,4.25c-8.011,22.107-15.626,44.316-16.935,68.085
		c-1.194,21.692,0.139,43.002,10.037,62.921c5.26,10.586,11.856,20.163,21.223,28.119c-2.859-9.907-6.106-19.161-8.115-28.676
		c-2.036-9.645-3.905-19.522-0.992-31.181c7.862,6.262,15.28,11.332,21.703,17.446c17.614,16.769,29.127,37.544,37.452,60.145
		c2.812,7.634,8.06,11.121,15.815,11.392c4.831,0.169,9.695,0.401,14.501,0.036C497.565,253.635,506.701,258.054,511,270.547z
		 M432.178,284.133c0.02-16.319-13.149-29.615-29.412-29.696c-16.39-0.082-30.048,13.568-29.887,29.869
		c0.161,16.256,13.512,29.422,29.81,29.394C419.031,313.674,432.158,300.511,432.178,284.133z"/>
	<path fill="#FFFFFF" d="M627.841,64.091c-0.174-0.507-0.545-0.686-1.058-0.647c-0.195,0.015-0.393,0.005-0.589-0.001
		c-0.315-0.011-0.528-0.153-0.642-0.462c-0.338-0.917-0.805-1.761-1.52-2.441c-0.261-0.248-0.562-0.454-0.881-0.708
		c-0.118,0.473-0.042,0.874,0.04,1.266c0.082,0.386,0.213,0.762,0.329,1.164c-0.38-0.323-0.648-0.712-0.862-1.141
		c-0.402-0.809-0.456-1.674-0.407-2.554c0.053-0.965,0.362-1.866,0.687-2.764c0.021-0.057,0.04-0.115,0.059-0.173
		c0.004-0.012-0.001-0.026-0.004-0.066c-0.105,0.028-0.206,0.052-0.305,0.083c-1.354,0.416-2.381,1.225-3.004,2.512
		c-0.073,0.152-0.147,0.184-0.31,0.148c-1.831-0.407-3.664-0.417-5.491,0.019c-1.317,0.314-2.513,0.88-3.519,1.8
		c-0.243,0.222-0.43,0.505-0.665,0.737c-0.18,0.177-0.393,0.322-0.599,0.471c-0.048,0.035-0.136,0.048-0.193,0.03
		c-0.643-0.2-1.029-0.884-0.682-1.488c0.22-0.383,0.657-0.518,1.116-0.349c0.149,0.055,0.291,0.132,0.464,0.212
		c-0.172-0.453-0.434-0.791-0.892-0.915c-0.524-0.142-0.964,0.048-1.311,0.439c-0.632,0.712-0.613,1.965,0.029,2.761
		c0.178,0.221,0.364,0.436,0.545,0.655c0.178,0.216,0.215,0.459,0.14,0.725c-0.233,0.82-0.331,1.656-0.306,2.507
		c0.028,0.939,0.375,1.762,0.911,2.517c0.454,0.64,1.008,1.183,1.616,1.676c0.331,0.269,0.388,0.47,0.241,0.873
		c-0.122,0.337-0.252,0.671-0.381,1.004c-0.204,0.525-0.014,0.98,0.509,1.185c0.491,0.192,0.984,0.378,1.479,0.559
		c0.522,0.191,0.951-0.011,1.157-0.533c0.144-0.364,0.28-0.732,0.434-1.092c0.106-0.248,0.22-0.313,0.479-0.261
		c1.061,0.213,2.128,0.306,3.208,0.214c0.357-0.031,0.715-0.061,1.072-0.092c0.451-0.04,0.547,0.02,0.709,0.45
		c0.103,0.272,0.2,0.546,0.312,0.814c0.21,0.5,0.632,0.688,1.138,0.504c0.502-0.182,1.001-0.371,1.498-0.567
		c0.497-0.196,0.691-0.632,0.514-1.136c-0.072-0.204-0.153-0.404-0.229-0.607c-0.128-0.341-0.06-0.533,0.241-0.746
		c0.414-0.292,0.844-0.566,1.226-0.895c0.517-0.445,0.928-0.994,1.204-1.617c0.242-0.546,0.614-0.8,1.207-0.729
		c0.087,0.01,0.176-0.005,0.264,0.003c0.513,0.045,0.865-0.156,1.023-0.659c0,2.356,0,4.711,0,7.068c-6.931,0-13.862,0-20.796,0
		c0-6.928,0-13.858,0-20.793c6.93,0,13.863,0,20.796,0C627.841,56.726,627.841,60.408,627.841,64.091z M616.177,57.186
		c0.196,0,0.393,0.008,0.588-0.005c0.066-0.004,0.158-0.047,0.188-0.1c0.277-0.485,0.387-1.013,0.308-1.563
		c-0.221-1.55-1.568-2.543-3.109-2.266c-1.015,0.183-1.707,0.803-2.021,1.784c-0.315,0.982-0.086,1.866,0.61,2.628
		c0.081,0.088,0.158,0.102,0.268,0.067C614.039,57.402,615.096,57.23,616.177,57.186z"/>
	<path fill="#FFFFFF" d="M624.641,64.642c-0.001,0.665-0.534,1.199-1.197,1.2c-0.662,0.001-1.204-0.533-1.21-1.193
		c-0.007-0.662,0.548-1.216,1.213-1.212C624.107,63.44,624.642,63.98,624.641,64.642z"/>
	<path display="inline" d="M223.663,100.45c-26.617,1.087-52.651,5.321-78.017,13.457c-2.711,0.87-4.628,0.528-6.613-1.648
		c-17.148-18.793-22.799-40.558-15.035-64.751c7.75-24.152,24.781-39.438,49.794-43.946c37.958-6.842,71.136,17.621,76.579,55.814
		c1.93,13.54-0.765,26.56-7.595,38.503c-0.749,1.31-3.005,2.347-4.632,2.456C233.334,100.657,228.492,100.45,223.663,100.45z"/>
</g>
<g display="none">
	<path fill="#FFFFFF" d="M607.041,73.841c0-6.931,0-13.862,0-20.797c6.929,0,13.858,0,20.794,0c0,6.93,0,13.863,0,20.797
		C620.905,73.841,613.974,73.841,607.041,73.841z M613.751,62.003c-1.304-0.001-2.282,0.116-3.235,0.398
		c-0.915,0.272-1.771,0.662-2.483,1.323c-1.032,0.959-1.111,2.181-0.186,3.236c0.582,0.664,1.341,1.071,2.161,1.35
		c2.286,0.779,4.581,0.779,6.866-0.001c0.874-0.298,1.663-0.749,2.27-1.472c0.645-0.767,0.709-1.74,0.158-2.573
		c-0.388-0.587-0.936-0.989-1.549-1.308C616.402,62.254,614.944,62.017,613.751,62.003z M621.434,60.081
		c1.19,0.003,2.286-0.164,3.386-0.55c0.884-0.31,1.695-0.747,2.312-1.48c0.605-0.719,0.718-1.591,0.285-2.398
		c-0.289-0.538-0.735-0.932-1.246-1.253c-0.967-0.609-2.036-0.927-3.159-1.084c-1.716-0.24-3.402-0.123-5.039,0.466
		c-0.855,0.308-1.635,0.745-2.234,1.457c-0.653,0.776-0.716,1.748-0.156,2.589c0.386,0.58,0.929,0.979,1.535,1.294
		C618.472,59.824,619.928,60.067,621.434,60.081z M607.23,66.958c0,0.373-0.046,0.797,0.01,1.206
		c0.098,0.719,0.554,1.233,1.107,1.662c0.768,0.595,1.652,0.941,2.587,1.165c1.44,0.345,2.893,0.384,4.351,0.135
		c1.172-0.2,2.279-0.57,3.245-1.294c0.959-0.719,1.388-1.825,1.128-2.88c-0.096,0.2-0.184,0.435-0.314,0.645
		c-0.383,0.617-0.948,1.032-1.579,1.362c-1.052,0.55-2.183,0.82-3.361,0.915c-1.67,0.134-3.297-0.035-4.848-0.704
		c-0.806-0.348-1.534-0.81-2.017-1.573C607.405,67.386,607.319,67.144,607.23,66.958z M607.202,69.318c0,0.291,0.002,0.582,0,0.873
		c-0.004,0.561,0.201,1.043,0.556,1.466c0.621,0.74,1.442,1.173,2.334,1.484c1.57,0.547,3.186,0.653,4.826,0.442
		c1.157-0.149,2.258-0.477,3.26-1.1c1.218-0.757,1.718-1.817,1.494-3.091c-0.166,0.276-0.328,0.63-0.565,0.921
		c-0.595,0.731-1.405,1.16-2.281,1.453c-2.254,0.753-4.523,0.768-6.77-0.006C608.802,71.329,607.684,70.687,607.202,69.318z
		 M627.706,58.108c-0.011,0.003-0.022,0.006-0.033,0.009c-0.106,0.224-0.194,0.459-0.322,0.67c-0.378,0.62-0.945,1.034-1.574,1.367
		c-1.013,0.536-2.105,0.805-3.238,0.912c-1.725,0.162-3.406-0.013-5.008-0.708c-0.799-0.346-1.519-0.809-1.995-1.568
		c-0.132-0.211-0.219-0.451-0.333-0.692c0,0.269,0.009,0.526-0.002,0.782c-0.024,0.582,0.156,1.096,0.527,1.537
		c0.309,0.367,0.631,0.723,1.123,0.862c0.654,0.185,1.27,0.459,1.852,0.809c0.085,0.051,0.183,0.088,0.28,0.111
		c1.483,0.344,2.976,0.374,4.471,0.097c1.115-0.207,2.171-0.569,3.083-1.271c0.515-0.396,0.953-0.869,1.077-1.525
		C627.698,59.046,627.679,58.572,627.706,58.108z M627.683,60.492c-0.115,0.244-0.202,0.486-0.335,0.699
		c-0.484,0.771-1.222,1.234-2.033,1.585c-1.419,0.613-2.913,0.797-4.446,0.733c-0.2-0.008-0.399-0.028-0.563-0.041
		c0.166,0.411,0.342,0.817,0.49,1.232c0.045,0.127,0.091,0.175,0.22,0.169c0.648-0.033,1.3-0.025,1.943-0.1
		c1.146-0.134,2.236-0.466,3.219-1.091c0.544-0.346,1.004-0.774,1.299-1.364C627.767,61.73,627.653,61.111,627.683,60.492z
		 M627.68,62.969c-0.168,0.283-0.326,0.638-0.561,0.931c-0.586,0.73-1.393,1.143-2.254,1.456c-1.151,0.418-2.345,0.577-3.566,0.566
		c-0.141-0.001-0.281,0-0.414,0c0,0.453,0,0.893,0,1.338c0.733,0.052,1.42,0.011,2.104-0.086c1.135-0.161,2.22-0.475,3.195-1.098
		c0.543-0.347,1.003-0.774,1.295-1.366C627.767,64.126,627.655,63.509,627.68,62.969z M620.878,69.659
		c0.14,0.009,0.235,0.025,0.328,0.019c0.601-0.033,1.205-0.04,1.8-0.114c1.131-0.142,2.207-0.47,3.177-1.088
		c0.561-0.358,1.037-0.801,1.321-1.421c0.261-0.568,0.15-1.167,0.179-1.764c-0.115,0.242-0.201,0.485-0.335,0.697
		c-0.488,0.778-1.232,1.241-2.05,1.594c-1.275,0.551-2.619,0.749-4,0.737c-0.146-0.001-0.292,0-0.422,0
		C620.878,68.776,620.878,69.206,620.878,69.659z"/>
	<path display="inline" d="M163.904,220.213c29.686,0.353,65.935,6.258,99.55,23.745c15.242,7.929,28.873,17.932,38.534,32.524
		c13.708,20.705,12.134,44.908-3.917,63.994c-15.112,17.968-34.737,29.184-56.471,36.6c-56.835,19.392-113.921,19.391-170.775,0.02
		c-20.415-6.956-39.28-17.063-53.76-33.583c-23.003-26.245-21.032-56.623,4.626-80.484c17.697-16.457,38.984-26.155,61.752-32.911
		C107.135,223.087,131.477,220.183,163.904,220.213z"/>
	<path display="inline" d="M355.008,172.421c-37.455-0.34-73.677-6.388-107.287-23.851c-15.084-7.837-28.579-17.782-38.18-32.196
		c-13.93-20.913-12.359-45.092,3.871-64.399c14.885-17.708,34.279-28.596,55.553-36.245C309.677,1.093,351.606-1.832,394.294,4.143
		c27.931,3.91,54.51,11.818,78.563,26.957c12.692,7.989,23.804,17.785,30.982,31.173c10.763,20.072,7.967,41.776-7.093,59.655
		c-15.362,18.237-35.522,29.097-57.515,36.817C411.866,168.351,384.597,172.504,355.008,172.421z"/>
	<path display="inline" d="M1.714,343.456c2.205,4.633,4.364,10.646,7.7,15.914c12.009,18.963,30.131,30.473,50.17,39.118
		c38.57,16.64,79.048,20.844,120.574,17.512c29.292-2.35,57.423-9.071,83.596-22.747c15.691-8.198,29.765-18.541,39.28-33.876
		c3.232-5.209,5.425-11.064,7.81-16.036c6.459,26.22-4.19,53.738-28.053,71.624c-24.025,18.008-51.563,27.226-80.72,32.192
		c-36.261,6.175-72.398,5.213-108.208-3.368c-23.254-5.572-45.254-14.178-64.354-28.987c-13.769-10.675-25.098-23.472-27.545-41.345
		C0.572,363.27,1.714,352.737,1.714,343.456z"/>
	<path display="inline" d="M1.01,402.175c11.999,34.029,39.795,50.004,70.972,60.742c55.895,19.254,112.328,18.884,168.391,0.146
		c21.775-7.278,41.93-17.944,56.73-36.132c5.905-7.257,9.92-16.05,14.056-22.917c5.555,31.688-6.874,58.03-37.171,76.869
		c-24.911,15.489-52.302,23.658-81.084,27.365c-40.769,5.251-80.967,2.618-120.024-10.988
		c-22.185-7.729-42.607-18.501-58.053-36.907c-8.829-10.521-13.923-22.523-13.825-36.474C1.052,416.644,1.01,409.409,1.01,402.175z"
		/>
	<path display="inline" d="M511,123.345c-0.678,11.555-0.186,23.33-2.311,34.611c-3.071,16.299-13.982,28.068-26.78,37.921
		c-22.674,17.456-48.959,26.474-76.681,31.612c-37.19,6.893-74.312,6.147-111.204-2.412c-2.407-0.558-4.841-1.483-6.953-2.752
		c-14.492-8.715-29.821-15.521-46.076-20.127c-12.219-3.462-20.24-12.302-27.924-21.435c-9.223-10.963-13.7-23.735-13.107-38.219
		c0.261-6.377,0.044-12.773,0.044-19.454c2.835,5.986,4.979,11.956,8.272,17.207c11.835,18.871,29.756,30.386,49.627,39.001
		c39.852,17.276,81.662,21.641,124.556,17.6c28.2-2.657,55.353-9.341,80.549-22.676c15.649-8.282,29.747-18.576,39.155-34.002
		c3.193-5.235,5.368-11.089,8.009-16.66C510.451,123.488,510.725,123.416,511,123.345z"/>
	<path display="inline" d="M510.419,182.644c-0.725,15.402,2.1,30.803-5.14,45.311c-7.328,14.682-18.778,25.318-32.307,33.923
		c-24.448,15.549-51.562,23.816-80.057,27.145c-15.985,1.867-32.208,1.666-48.32,2.484c-3.201,0.163-4.349-1.033-5.475-4.196
		c-3.679-10.333-8.063-20.416-12.196-30.644c4.076,0.3,9.036,0.802,14.009,1.008c38.118,1.576,75.287-2.982,110.578-18.24
		c20.183-8.726,38.519-20.23,50.565-39.415C505.399,194.726,507.554,188.7,510.419,182.644z"/>
	<path display="inline" d="M510.344,244.241c-0.62,13.436,2.177,28.789-4.983,43.287c-7.266,14.713-18.71,25.35-32.212,33.974
		c-24.263,15.495-51.251,23.307-79.48,27.303c-17.016,2.408-34.116,3.446-52.335,2.146c0-11.083,0-22.005,0-33.281
		c3.301,0,6.797-0.028,10.292,0.004c30.353,0.283,60.06-3.684,88.689-14.069c21.421-7.77,41.503-18.061,56.067-36.211
		C502.227,260.107,506.168,251.291,510.344,244.241z"/>
	<path display="inline" d="M341.166,410.644c0-11.273,0-21.957,0-33.324c3.237,0,6.865-0.028,10.493,0.004
		c34.343,0.305,67.768-4.638,99.477-18.331c20.337-8.782,38.852-20.299,50.983-39.647c3.321-5.296,5.478-11.322,8.327-17.348
		c-0.73,14.852,2.026,29.748-4.456,43.868c-7.083,15.429-18.911,26.44-32.869,35.345c-24.121,15.388-50.9,23.546-79.021,27.073
		c-14.812,1.858-29.841,2.014-44.777,2.842C346.999,411.257,344.646,410.867,341.166,410.644z"/>
</g>
<g display="none">
	<path fill="#FFFFFF" d="M627.841,65.228c0,2.871,0,5.742,0,8.612c-6.933,0-13.867,0-20.8,0c0-2.871,0-5.742,0-8.612
		c0.02,0.071,0.041,0.142,0.06,0.213c0.196,0.738,0.826,1.196,1.659,1.196c2.444,0.001,4.888,0.001,7.332-0.001
		c0.107,0,0.216-0.012,0.322-0.033c0.281-0.054,0.476-0.221,0.573-0.488c0.102-0.281,0.061-0.544-0.131-0.779
		c-0.205-0.25-0.485-0.293-0.786-0.293c-2.39,0.001-4.78,0.001-7.17,0c-0.085,0-0.169-0.01-0.271-0.016c0-0.102,0-0.182,0-0.262
		c0-2.485,0-4.97,0-7.454c0-0.282,0-0.282,0.288-0.282c5.531,0,11.063,0,16.594,0c0.183,0,0.366,0.008,0.548-0.003
		c0.153-0.009,0.195,0.047,0.195,0.198c-0.004,2.539-0.004,5.078,0,7.617c0,0.161-0.049,0.207-0.208,0.206
		c-0.799-0.007-1.598-0.005-2.397-0.002c-0.128,0-0.259,0.005-0.383,0.033c-0.26,0.058-0.452,0.211-0.548,0.464
		c-0.216,0.567,0.159,1.086,0.802,1.093c0.894,0.009,1.787,0.011,2.681-0.001c0.779-0.01,1.389-0.482,1.578-1.194
		C627.8,65.37,627.821,65.299,627.841,65.228z M616.221,67.635c0.636,0.636,1.251,1.25,1.881,1.88
		c0.032-0.037,0.081-0.103,0.139-0.16c1.268-1.269,2.538-2.536,3.805-3.806c0.706-0.708,1.177-1.566,1.514-2.494
		c0.123-0.339,0.214-0.678,0.522-0.904c0.041-0.03,0.067-0.084,0.093-0.131c0.093-0.163,0.062-0.322-0.062-0.446
		c-0.129-0.129-0.299-0.179-0.459-0.06c-0.151,0.112-0.278,0.255-0.422,0.376c-0.065,0.054-0.14,0.107-0.22,0.13
		c-1.019,0.298-1.928,0.803-2.686,1.536c-1.226,1.186-2.418,2.407-3.625,3.613C616.533,67.337,616.361,67.499,616.221,67.635z
		 M615.405,68.44c-0.053,0.05-0.103,0.094-0.15,0.141c-0.928,0.929-1.852,1.862-2.787,2.784c-0.371,0.366-0.51,0.806-0.485,1.306
		c0.031,0.628,0.434,1.047,1.018,1.089c0.494,0.035,0.918-0.116,1.27-0.469c0.961-0.963,1.924-1.925,2.885-2.887
		c0.036-0.036,0.068-0.078,0.106-0.123c-0.601-0.601-1.194-1.195-1.788-1.788C615.455,68.475,615.432,68.461,615.405,68.44z
		 M613.825,60.23c0.825,0,1.651,0,2.476,0c0.244,0,0.488,0.008,0.731-0.003c0.62-0.029,0.973-0.607,0.698-1.15
		c-0.161-0.318-0.445-0.429-0.79-0.429c-2.064,0.002-4.127,0.001-6.191,0.001c-0.041,0-0.081-0.001-0.122,0.003
		c-0.491,0.042-0.819,0.42-0.767,0.884c0.046,0.406,0.384,0.692,0.839,0.693C611.741,60.233,612.783,60.23,613.825,60.23z
		 M613.826,62.63c0.629,0,1.258,0,1.888,0c0.433,0,0.866,0.007,1.299-0.003c0.504-0.012,0.835-0.367,0.804-0.844
		c-0.029-0.44-0.366-0.734-0.858-0.735c-1.231-0.003-2.463-0.001-3.694-0.001c-0.846,0-1.692-0.003-2.537,0.001
		c-0.54,0.003-0.902,0.361-0.869,0.848c0.03,0.431,0.365,0.73,0.842,0.731C611.742,62.633,612.784,62.63,613.826,62.63z
		 M619.688,69.941c-0.011-0.352-0.126-0.551-0.371-0.668c-0.229-0.11-0.507-0.069-0.711,0.133c-1.06,1.046-2.116,2.095-3.171,3.146
		c-0.153,0.153-0.246,0.342-0.214,0.566c0.035,0.248,0.175,0.426,0.409,0.51c0.251,0.09,0.485,0.029,0.673-0.156
		c1.059-1.047,2.117-2.094,3.165-3.151C619.585,70.203,619.64,70.026,619.688,69.941z M622.609,60.23
		c0.534,0,1.069,0.007,1.603-0.002c0.464-0.008,0.81-0.341,0.814-0.76c0.003-0.451-0.323-0.809-0.781-0.814
		c-1.062-0.011-2.124-0.009-3.186-0.001c-0.335,0.003-0.603,0.155-0.734,0.478c-0.22,0.541,0.135,1.083,0.722,1.096
		C621.568,60.239,622.089,60.23,622.609,60.23z"/>
	<path display="inline" d="M511,300.76c-0.49,1.741-1.003,3.476-1.467,5.224c-4.632,17.444-19.597,29.034-38.697,29.272
		c-21.909,0.274-43.826,0.229-65.737,0.014c-15.767-0.155-24.966-12.888-19.663-26.794c2.364-6.2,7.07-9.953,13.438-11.367
		c3.043-0.676,6.257-0.792,9.394-0.802c19.588-0.068,39.178-0.127,58.765,0.042c3.89,0.034,5.099-1.105,5.092-5.052
		c-0.109-62.252-0.105-124.505-0.006-186.757c0.006-3.685-1.035-5.073-4.787-4.847c-4.466,0.269-8.96,0.062-13.443,0.062
		c-135.627,0-271.254,0-406.881,0.001c-7.055,0-7.06,0.006-7.06,6.919c-0.001,60.924-0.001,121.848-0.001,182.773
		c0,1.961,0,3.923,0,6.414c2.508,0.155,4.58,0.393,6.653,0.394c58.6,0.02,117.2,0.032,175.8-0.003
		c7.366-0.004,14.23,1.05,19.264,7.188c4.721,5.757,5.723,12.205,3.213,19.093c-2.389,6.555-7.156,10.637-14.048,11.963
		c-2.588,0.498-5.258,0.797-7.89,0.799c-59.928,0.043-119.856,0.056-179.785,0.02c-20.424-0.012-35.882-11.23-40.688-29.33
		C2.003,304.236,1.49,302.501,1,300.76c0-94.297,0-188.594,0-282.891C3.709,9.953,9.021,4.641,16.938,1.932
		c159.375,0,318.75,0,478.125,0c7.916,2.709,13.229,8.021,15.938,15.938C511,112.166,511,206.463,511,300.76z"/>
	<path fill="#FFFFFF" d="M607.691,53.041c-0.323,0.11-0.539,0.327-0.65,0.65c0-0.217,0-0.433,0-0.65
		C607.257,53.041,607.474,53.041,607.691,53.041z"/>
	<path fill="#FFFFFF" d="M627.841,53.691c-0.11-0.323-0.327-0.54-0.65-0.65c0.217,0,0.433,0,0.65,0
		C627.841,53.257,627.841,53.474,627.841,53.691z"/>
	<path display="inline" d="M226.094,359.773c3.434-3.327,7.657-7.313,11.763-11.414c29.597-29.558,58.82-59.501,88.881-88.579
		c18.595-17.987,40.879-30.377,65.858-37.673c1.949-0.569,3.809-1.854,5.391-3.185c3.54-2.977,6.661-6.486,10.359-9.23
		c3.93-2.917,8.105-1.698,11.267,1.468c3.031,3.035,3.78,6.925,1.508,10.929c-0.65,1.145-1.281,2.472-2.289,3.214
		c-7.544,5.548-9.763,13.839-12.788,22.162c-8.275,22.762-19.801,43.794-37.123,61.152c-31.07,31.136-62.207,62.205-93.296,93.323
		c-1.405,1.406-2.61,3.013-3.398,3.931C256.76,390.417,241.688,375.356,226.094,359.773z"/>
	<path display="inline" d="M206.081,379.519c0.68,0.52,1.238,0.855,1.684,1.301c14.552,14.538,29.093,29.087,43.833,43.832
		c-0.936,1.094-1.699,2.117-2.592,3.01c-23.574,23.601-47.18,47.171-70.738,70.789c-8.631,8.654-19.026,12.353-31.134,11.497
		c-14.322-1.012-24.189-11.303-24.959-26.69c-0.613-12.254,2.807-23.058,11.899-32.021c22.929-22.602,45.572-45.494,68.336-68.262
		C203.562,381.824,204.78,380.741,206.081,379.519z"/>
	<path display="inline" d="M167.348,178.22c-25.548-0.002-51.096,0.054-76.644-0.028c-11.149-0.036-19.442-7.028-20.559-16.992
		c-1.276-11.378,6.77-20.661,18.814-21.684c0.989-0.084,1.989-0.065,2.984-0.065c50.599-0.003,101.197,0.021,151.796-0.025
		c8.442-0.008,15.423,2.722,19.361,10.512c6.734,13.321-1.916,27.5-17.118,28.209c-5.96,0.278-11.942,0.072-17.914,0.073
		C207.826,178.224,187.587,178.222,167.348,178.22z"/>
	<path display="inline" d="M167.372,237.053c-25.548-0.003-51.096,0.066-76.644-0.033c-11.68-0.045-19.903-7.355-20.634-17.935
		c-0.825-11.938,8.057-20.734,21.303-20.797c20.737-0.099,41.474-0.027,62.211-0.027c30.193,0,60.386-0.04,90.579,0.021
		c12.058,0.025,20.33,7.221,21.033,18.016c0.762,11.686-7.346,20.388-19.713,20.685c-10.611,0.255-21.233,0.069-31.851,0.071
		C198.229,237.059,182.801,237.056,167.372,237.053z"/>
	<path display="inline" d="M311.11,416.307c-1.179,2.105-2.536,6.44-5.377,9.303c-25.714,25.911-51.657,51.594-77.612,77.264
		c-4.602,4.552-10.335,6.043-16.497,3.835c-5.741-2.057-9.17-6.437-10.031-12.507c-0.781-5.506,1.489-10.134,5.252-13.884
		c25.857-25.769,51.755-51.496,77.742-77.134c5.006-4.939,11.815-5.944,17.437-3.255
		C308.018,402.798,310.834,407.664,311.11,416.307z"/>
	<path display="inline" d="M382.733,178.202c-12.77-0.003-25.545,0.223-38.308-0.064c-14.385-0.324-23.092-13.613-17.7-26.868
		c3.219-7.914,9.773-11.661,17.993-11.725c26.035-0.203,52.075-0.245,78.109,0.018c11.251,0.113,19.242,8.882,19.159,19.952
		c-0.077,10.272-8.566,18.434-19.95,18.636C408.939,178.384,395.834,178.206,382.733,178.202z"/>
</g>
<g display="none">
	<path fill="#FFFFFF" d="M607.041,53.041c6.933,0,13.867,0,20.8,0c0,6.933,0,13.867,0,20.8c-6.933,0-13.867,0-20.8,0
		C607.041,66.907,607.041,59.974,607.041,53.041z M609.377,70.613c0.415-0.267,0.814-0.51,1.197-0.774
		c0.541-0.372,1.083-0.387,1.661-0.087c1.29,0.67,2.586,1.327,3.881,1.989c0.454,0.232,0.925,0.415,1.437,0.469
		c0.629,0.066,1.194-0.13,1.71-0.465c2.496-1.622,4.989-3.248,7.475-4.884c0.262-0.172,0.503-0.394,0.71-0.63
		c0.464-0.528,0.293-1.176-0.363-1.439c-0.387-0.155-0.774-0.09-1.148,0.046c-0.276,0.1-0.54,0.232-0.812,0.351
		c-0.054-0.621-0.3-0.899-0.866-0.917c-0.525-0.017-1.021,0.106-1.435,0.459c-0.045,0.038-0.093,0.072-0.168,0.129
		c-0.027-0.043-0.046-0.079-0.072-0.111c-0.407-0.509-0.919-0.617-1.504-0.367c-0.328,0.14-0.647,0.306-0.958,0.483
		c-0.509,0.29-1.008,0.599-1.566,0.933c0.186,0.015,0.311,0.03,0.436,0.034c0.467,0.016,0.936,0.003,1.399,0.05
		c0.359,0.036,0.723,0.11,1.063,0.231c0.495,0.176,0.728,0.581,0.78,1.091c0.055,0.542-0.095,1.003-0.556,1.333
		c-0.509,0.365-1.09,0.501-1.703,0.507c-0.995,0.01-1.991-0.011-2.985,0.008c-0.634,0.012-1.22-0.119-1.769-0.431
		c-0.484-0.274-0.927-0.599-1.306-1.014c0.055,0.003,0.103,0.021,0.151,0.037c0.696,0.244,1.394,0.518,2.134,0.543
		c1.318,0.045,2.639,0.038,3.958,0.029c0.365-0.002,0.716-0.116,1.032-0.324c0.363-0.239,0.293-0.964-0.106-1.055
		c-0.223-0.051-0.445-0.124-0.671-0.139c-0.628-0.041-1.259-0.032-1.885-0.09c-0.916-0.085-1.766-0.397-2.536-0.898
		c-0.748-0.487-1.475-1.006-2.218-1.501c-0.901-0.599-1.867-0.688-2.864-0.289c-0.853,0.341-1.693,0.715-2.536,1.081
		c-0.42,0.183-0.833,0.382-1.265,0.58C607.867,67.261,608.616,68.923,609.377,70.613z M617.836,58.804
		c-1.47,0.004-2.639,1.179-2.633,2.647c0.005,1.463,1.194,2.643,2.653,2.634c1.457-0.009,2.636-1.204,2.628-2.663
		C620.475,59.971,619.291,58.8,617.836,58.804z M621.048,55.602c-1.109-0.006-2.004,1.015-1.832,2.083
		c0.021,0.131,0.076,0.196,0.194,0.247c0.568,0.248,1.065,0.604,1.427,1.104c0.168,0.233,0.342,0.257,0.579,0.209
		c0.882-0.18,1.541-1.05,1.459-1.928C622.782,56.33,622.013,55.608,621.048,55.602z"/>
	<path display="inline" d="M57.097,421.887C38.247,380.049,19.707,338.897,1,297.376c10.69-4.92,20.916-9.845,31.317-14.368
		c20.865-9.074,41.665-18.33,62.789-26.769c24.681-9.86,48.597-7.677,70.897,7.165c18.399,12.245,36.4,25.093,54.912,37.161
		c19.063,12.427,40.098,20.142,62.778,22.245c15.491,1.436,31.13,1.197,46.669,2.222c5.59,0.369,11.094,2.186,16.614,3.448
		c9.879,2.259,11.615,20.194,2.626,26.114c-7.83,5.157-16.524,7.964-25.554,8.021c-32.668,0.206-65.362,0.38-98.003-0.728
		c-18.321-0.622-35.616-7.408-52.846-13.452c-1.192-0.418-2.373-0.865-3.747-0.927c9.373,10.274,20.356,18.325,32.336,25.113
		c13.603,7.708,28.108,10.972,43.804,10.666c24.629-0.479,49.276,0.05,73.912-0.194c15.164-0.151,29.545-3.516,42.158-12.559
		c11.405-8.178,15.115-19.587,13.758-33.015c-1.277-12.638-7.068-22.671-19.312-27.02c-8.403-2.985-17.421-4.81-26.311-5.71
		c-11.472-1.162-23.09-0.852-34.643-1.248c-3.097-0.106-6.184-0.476-10.791-0.847c13.823-8.263,26.173-15.903,38.782-23.089
		c7.684-4.379,15.58-8.494,23.708-11.961c14.474-6.176,27.17-3.52,37.237,9.088c0.625,0.783,1.094,1.689,1.771,2.751
		c1.856-1.419,3.052-2.251,4.157-3.19c10.267-8.727,22.533-11.775,35.534-11.363c14.004,0.444,20.098,7.316,21.429,22.7
		c6.751-2.953,13.29-6.215,20.112-8.699c9.266-3.374,18.843-4.989,28.434-1.148c16.23,6.501,20.479,22.541,8.986,35.615
		c-5.144,5.852-11.096,11.336-17.589,15.606c-61.57,40.493-123.291,80.756-185.079,120.913
		c-12.765,8.296-26.751,13.138-42.325,11.511c-12.676-1.324-24.339-5.848-35.583-11.601c-32.038-16.39-64.14-32.659-96.076-49.246
		c-14.311-7.433-27.738-7.071-41.122,2.149C77.245,409.267,67.384,415.267,57.097,421.887z"/>
	<path display="inline" d="M266.525,129.533c36.018-0.108,65.328,28.877,65.535,64.807c0.208,36.139-28.974,65.717-65.056,65.94
		c-36.12,0.223-65.544-28.992-65.679-65.211C201.189,158.722,230.12,129.642,266.525,129.533z M276.439,224.411
		c0-20.022,0-39.518,0-58.948c-12.296-2.165-14.464-1.519-22.534,6.567c-4.032,4.04-8.055,8.089-12.081,12.134
		c0.236,0.387,0.473,0.774,0.709,1.161c4.605,0,9.21,0,14.31,0c0,13.326,0,26.149,0,39.087
		C263.526,224.411,269.694,224.411,276.439,224.411z"/>
	<path display="inline" d="M346.053,50.26c23.893,0.138,42.922,18.01,45.212,42.463c2.037,21.75-14.276,43.282-36.12,47.745
		c-5.871,1.2-10.159,0.587-14.327-5.17c-8.972-12.392-21.27-21.209-35.328-27.339c-2.913-1.27-4.276-2.868-4.799-6.122
		C296.441,75.401,318.594,50.101,346.053,50.26z M327.654,88.295c2.757,0.39,3.905,0.818,4.964,0.658
		c5.113-0.773,6.724,1.235,6.377,6.373c-0.468,6.935-0.116,13.926-0.116,21.091c4.951,0,9.219,0,14.087,0
		c0-13.264,0.018-26.272-0.054-39.28c-0.004-0.656-0.804-1.882-1.208-1.871c-3.59,0.094-7.898-0.761-10.601,0.913
		C336.4,79.093,332.689,83.607,327.654,88.295z"/>
	<path fill="#FFFFFF" d="M618.237,62.636c-0.272,0-0.522,0-0.792,0c0-0.523,0-1.04,0-1.579c-0.206,0-0.392,0-0.578,0
		c-0.01-0.016-0.019-0.031-0.029-0.047c0.163-0.163,0.325-0.327,0.488-0.49c0.326-0.327,0.414-0.353,0.91-0.265
		C618.237,61.04,618.237,61.828,618.237,62.636z"/>
	<path fill="#FFFFFF" d="M620.305,57.139c0.203-0.189,0.353-0.372,0.543-0.489c0.109-0.068,0.283-0.033,0.428-0.037
		c0.016,0,0.049,0.049,0.049,0.076c0.003,0.525,0.002,1.051,0.002,1.587c-0.197,0-0.369,0-0.569,0c0-0.289-0.014-0.572,0.005-0.852
		c0.014-0.208-0.051-0.289-0.258-0.257C620.463,57.172,620.417,57.155,620.305,57.139z"/>
</g>
<g display="none">
	<path display="inline" d="M627.841,58.362c0,2.045,0,4.09,0,6.134c-0.013,0.038-0.033,0.074-0.04,0.113
		c-0.16,0.984-0.868,1.755-1.841,1.956c-0.321,0.066-0.658,0.062-0.989,0.07c-0.472,0.011-0.945,0.003-1.391,0.003
		c-0.078,0.193-0.133,0.366-0.215,0.526c-0.302,0.59-0.612,1.176-0.922,1.761c-0.225,0.425-0.536,0.78-0.921,1.067
		c-0.73,0.543-1.556,0.45-2.044-0.039c-0.007-0.007-0.024-0.003-0.024-0.003c-0.169,0.194-0.318,0.399-0.501,0.567
		c-0.188,0.172-0.396,0.331-0.618,0.455c-0.771,0.429-1.659,0.127-2.021-0.672c-0.024-0.054-0.049-0.107-0.055-0.119
		c-0.356,0.053-0.687,0.138-1.019,0.144c-0.646,0.011-0.987-0.255-1.177-0.844c-0.003-0.01-0.02-0.016-0.04-0.031
		c-0.721,0.257-1.473,0.368-2.242,0.371c-1.293,0.004-2.586,0.006-3.879,0.007c-0.087,0-0.175-0.013-0.26-0.033
		c-0.351-0.084-0.507-0.348-0.603-0.666c0-2.546,0-5.092,0-7.637c0.1-0.326,0.337-0.544,0.589-0.752
		c0.177-0.146,0.346-0.304,0.521-0.453c0.979-0.833,1.95-1.677,2.945-2.491c0.283-0.232,0.622-0.414,0.962-0.552
		c0.621-0.251,1.221-0.114,1.795,0.222c0.045-0.065,0.087-0.125,0.128-0.186c0.44-0.662,1.049-1.025,1.851-1.026
		c3.223-0.002,6.446-0.006,9.669,0.003c1.059,0.003,1.992,0.756,2.254,1.78C627.782,58.144,627.812,58.253,627.841,58.362z
		 M613.426,58.901c-0.117-0.024-0.231-0.019-0.313-0.068c-0.388-0.229-0.697-0.059-1.001,0.171
		c-0.059,0.045-0.123,0.085-0.179,0.133c-1.069,0.916-2.138,1.832-3.2,2.756c-0.067,0.058-0.1,0.187-0.1,0.284
		c-0.006,1.943-0.004,3.886-0.004,5.829c0,0.072,0,0.144,0,0.217c0.053,0.01,0.079,0.019,0.104,0.019
		c1.198-0.013,2.396-0.005,3.593-0.046c0.952-0.032,1.751-0.426,2.429-1.108c0.749-0.753,1.537-1.467,2.307-2.199
		c0.304-0.289,0.621-0.567,0.9-0.878c0.177-0.197,0.322-0.435,0.434-0.677c0.115-0.247-0.058-0.467-0.332-0.459
		c-0.134,0.004-0.277,0.014-0.398,0.064c-0.536,0.22-1.078,0.432-1.595,0.692c-0.9,0.453-1.783,0.938-2.672,1.413
		c-0.31,0.166-0.62,0.204-0.916-0.012c-0.499-0.363-0.441-1.031,0.113-1.357c0.216-0.126,0.436-0.246,0.663-0.35
		c0.153-0.07,0.195-0.169,0.194-0.331c-0.012-1.313-0.015-2.626-0.021-3.939C613.433,59.007,613.429,58.961,613.426,58.901z
		 M626.252,61.051c-3.749,0-7.474,0-11.204,0c0,0.437,0,0.86,0,1.281c0.024,0.003,0.039,0.01,0.049,0.005
		c0.109-0.054,0.217-0.109,0.325-0.165c0.744-0.389,1.494-0.754,2.344-0.87c1.316-0.179,2.388,0.846,2.232,2.163
		c-0.055,0.462-0.274,0.859-0.542,1.23c-0.076,0.106-0.157,0.209-0.262,0.35c0.119,0,0.186,0,0.253,0c1.95,0,3.9,0.001,5.85,0
		c0.647,0,0.955-0.311,0.955-0.961c0.001-0.934,0-1.869,0-2.803C626.252,61.208,626.252,61.135,626.252,61.051z M626.233,58.639
		c-0.023-0.507-0.353-0.806-0.876-0.806c-3.147-0.001-6.293-0.001-9.44,0c-0.074,0-0.15,0.003-0.222,0.018
		c-0.402,0.081-0.681,0.428-0.632,0.788C618.782,58.639,622.502,58.639,626.233,58.639z M618.604,66.646
		c-0.086,0.212-0.151,0.403-0.238,0.584c-0.302,0.628-0.622,1.247-0.91,1.88c-0.079,0.174-0.102,0.39-0.095,0.585
		c0.01,0.286,0.197,0.375,0.449,0.238c0.325-0.177,0.558-0.449,0.729-0.771c0.368-0.693,0.73-1.388,1.092-2.084
		c0.07-0.135,0.129-0.275,0.202-0.432C619.396,66.646,618.992,66.646,618.604,66.646z M621.083,66.648
		c-0.055,0.15-0.095,0.293-0.157,0.425c-0.192,0.409-0.407,0.808-0.581,1.224c-0.077,0.184-0.105,0.402-0.1,0.603
		c0.008,0.281,0.217,0.393,0.445,0.226c0.241-0.176,0.491-0.38,0.641-0.629c0.351-0.583,0.644-1.2,0.959-1.804
		c0.005-0.009-0.004-0.025-0.008-0.044C621.88,66.648,621.477,66.648,621.083,66.648z M617.2,66.955
		c-0.01-0.004-0.02-0.009-0.03-0.013c-0.69,0.645-1.385,1.286-2.063,1.944c-0.071,0.069-0.052,0.239-0.054,0.363
		c0,0.026,0.091,0.07,0.144,0.077c0.438,0.059,0.951-0.216,1.145-0.61c0.23-0.466,0.458-0.934,0.687-1.401
		C617.089,67.195,617.144,67.075,617.2,66.955z"/>
	<path display="inline" d="M511,124.924c0,50.137,0,100.273,0,150.41c-0.332,0.921-0.818,1.816-0.972,2.766
		c-3.928,24.132-21.271,43.021-45.144,47.952c-7.866,1.625-16.14,1.527-24.239,1.712c-11.58,0.265-23.171,0.068-34.095,0.068
		c-1.915,4.737-3.271,8.981-5.276,12.891c-7.412,14.455-14.995,28.824-22.599,43.179c-5.524,10.428-13.136,19.127-22.586,26.156
		c-17.911,13.321-38.146,11.042-50.106-0.95c-0.165-0.166-0.59-0.072-0.595-0.072c-4.145,4.767-7.796,9.788-12.282,13.898
		c-4.603,4.217-9.698,8.126-15.142,11.155c-18.906,10.521-40.679,3.102-49.558-16.488c-0.596-1.316-1.212-2.623-1.345-2.91
		c-8.738,1.297-16.849,3.382-24.994,3.522c-15.832,0.272-24.211-6.242-28.867-20.688c-0.08-0.248-0.489-0.39-0.969-0.751
		c-17.668,6.293-36.112,9.027-54.969,9.09c-31.7,0.106-63.401,0.15-95.101,0.161c-2.128,0.001-4.302-0.31-6.376-0.806
		C7.172,403.157,3.343,396.675,1,388.889c0-62.422,0-124.844,0-187.266c2.452-7.993,8.253-13.33,14.435-18.426
		c4.353-3.589,8.479-7.451,12.777-11.108c24.012-20.435,47.817-41.123,72.215-61.085c6.939-5.678,15.244-10.161,23.592-13.538
		c15.228-6.159,29.946-2.803,44.004,5.445c1.101-1.6,2.142-3.069,3.139-4.568c10.785-16.223,25.71-25.135,45.383-25.151
		c79.023-0.06,158.047-0.137,237.069,0.062c25.955,0.065,48.831,18.531,55.268,43.634C509.569,119.572,510.293,122.246,511,124.924z
		 M157.57,138.129c-2.877-0.581-5.658-0.472-7.67-1.663c-9.502-5.623-17.091-1.456-24.533,4.2c-1.453,1.104-3.017,2.073-4.398,3.258
		c-26.203,22.468-52.43,44.908-78.466,67.568c-1.632,1.42-2.442,4.593-2.449,6.954c-0.139,47.64-0.104,95.281-0.104,142.922
		c0,1.769,0,3.538,0,5.32c1.295,0.241,1.93,0.467,2.562,0.46c29.366-0.309,58.748-0.131,88.091-1.125
		c23.336-0.79,42.939-10.45,59.569-27.178c18.356-18.464,37.686-35.959,56.56-53.91c7.451-7.087,15.221-13.901,22.073-21.533
		c4.346-4.841,7.899-10.668,10.649-16.591c2.815-6.064-1.415-11.462-8.141-11.257c-3.282,0.1-6.793,0.335-9.769,1.558
		c-13.145,5.403-26.437,10.586-39.113,16.967c-22.061,11.105-43.729,22.993-65.514,34.641c-7.61,4.069-15.205,5-22.456-0.285
		c-12.224-8.909-10.814-25.29,2.783-33.264c5.287-3.101,10.7-6.039,16.266-8.591c3.757-1.723,4.785-4.145,4.749-8.122
		c-0.289-32.193-0.366-64.387-0.516-96.581C157.738,140.733,157.64,139.589,157.57,138.129z M472.051,190.848
		c-91.922,0-183.262,0-274.712,0c0,10.712,0,21.077,0,31.42c0.585,0.069,0.967,0.24,1.205,0.122c2.671-1.324,5.33-2.672,7.973-4.051
		c18.253-9.532,36.637-18.49,57.463-21.329c32.259-4.398,58.543,20.745,54.731,53.024c-1.338,11.33-6.721,21.055-13.289,30.166
		c-1.875,2.601-3.845,5.134-6.429,8.575c2.921,0,4.558,0,6.195,0c47.811,0,95.622,0.014,143.433-0.008
		c15.867-0.007,23.41-7.618,23.424-23.566c0.019-22.909,0.005-45.819,0.005-68.728C472.051,194.692,472.051,192.91,472.051,190.848z
		 M471.588,131.703c-0.554-12.437-8.646-19.761-21.471-19.767c-77.152-0.031-154.304-0.018-231.456,0.003
		c-1.815,0-3.668,0.081-5.44,0.437c-9.851,1.982-16.696,10.492-15.489,19.326C288.899,131.703,380.089,131.703,471.588,131.703z
		 M284.532,328.04c-2.096,5.196-3.698,9.889-5.832,14.326c-7.4,15.388-15.257,30.564-22.321,46.101
		c-1.944,4.277-2.492,9.561-2.328,14.336c0.241,7.018,4.825,9.203,11.012,5.825c7.969-4.35,13.67-11.002,17.865-18.903
		c9.019-16.983,17.899-34.04,26.776-51.099c1.719-3.303,3.164-6.748,4.949-10.587C303.948,328.04,294.03,328.04,284.532,328.04z
		 M345.309,328.077c-1.342,3.678-2.334,7.179-3.857,10.432c-4.697,10.031-9.986,19.805-14.238,30.016
		c-1.878,4.51-2.584,9.852-2.441,14.777c0.199,6.889,5.312,9.624,10.917,5.53c5.899-4.308,12.04-9.311,15.718-15.428
		c8.594-14.292,15.778-29.433,23.508-44.243c0.114-0.218-0.107-0.612-0.205-1.083C364.851,328.077,354.967,328.077,345.309,328.077z
		 M250.107,335.597c-0.241-0.108-0.483-0.216-0.724-0.325c-16.917,15.825-33.951,31.529-50.576,47.656
		c-1.739,1.687-1.279,5.869-1.315,8.9c-0.008,0.64,2.231,1.721,3.529,1.896c10.747,1.446,23.318-5.3,28.085-14.968
		c5.639-11.435,11.24-22.89,16.838-34.345C247.37,341.493,248.721,338.537,250.107,335.597z"/>
	<path fill="#FFFFFF" d="M607.041,69.128c0.096,0.318,0.252,0.582,0.603,0.666c0.085,0.02,0.173,0.033,0.26,0.033
		c1.293,0,2.586-0.002,3.879-0.007c0.769-0.003,1.521-0.114,2.242-0.371c0.02,0.015,0.036,0.021,0.04,0.031
		c0.19,0.589,0.532,0.855,1.177,0.844c0.332-0.006,0.663-0.091,1.019-0.144c0.005,0.012,0.031,0.065,0.055,0.119
		c0.362,0.799,1.25,1.102,2.021,0.672c0.222-0.124,0.43-0.283,0.618-0.455c0.183-0.168,0.332-0.372,0.501-0.567
		c0,0,0.018-0.004,0.024,0.003c0.488,0.489,1.313,0.582,2.044,0.039c0.385-0.287,0.696-0.641,0.921-1.067
		c0.31-0.585,0.619-1.171,0.922-1.761c0.082-0.159,0.137-0.333,0.215-0.526c0.445,0,0.918,0.008,1.391-0.003
		c0.33-0.008,0.668-0.004,0.989-0.07c0.974-0.201,1.681-0.971,1.841-1.956c0.006-0.039,0.026-0.075,0.04-0.113
		c0,3.115,0,6.229,0,9.344c-6.933,0-13.867,0-20.8,0C607.041,72.27,607.041,70.699,607.041,69.128z"/>
	<path fill="#FFFFFF" d="M627.841,58.362c-0.029-0.109-0.058-0.218-0.086-0.328c-0.263-1.024-1.195-1.777-2.254-1.78
		c-3.223-0.008-6.446-0.005-9.669-0.003c-0.802,0.001-1.411,0.364-1.851,1.026c-0.041,0.061-0.083,0.121-0.128,0.186
		c-0.573-0.336-1.174-0.473-1.795-0.222c-0.34,0.138-0.679,0.321-0.962,0.552c-0.995,0.814-1.966,1.658-2.945,2.491
		c-0.175,0.149-0.344,0.307-0.521,0.453c-0.252,0.208-0.489,0.426-0.589,0.752c0-2.815,0-5.63,0-8.448c6.933,0,13.867,0,20.8,0
		C627.841,54.817,627.841,56.59,627.841,58.362z"/>
	<path fill="#FFFFFF" d="M613.426,58.901c0.003,0.06,0.007,0.106,0.007,0.153c0.006,1.313,0.009,2.626,0.021,3.939
		c0.001,0.162-0.04,0.261-0.194,0.331c-0.227,0.104-0.448,0.224-0.663,0.35c-0.555,0.325-0.612,0.993-0.113,1.357
		c0.296,0.216,0.605,0.178,0.916,0.012c0.888-0.475,1.772-0.96,2.672-1.413c0.517-0.26,1.059-0.472,1.595-0.692
		c0.121-0.05,0.265-0.059,0.398-0.064c0.274-0.008,0.447,0.212,0.332,0.459c-0.112,0.242-0.257,0.479-0.434,0.677
		c-0.279,0.311-0.596,0.589-0.9,0.878c-0.77,0.732-1.558,1.446-2.307,2.199c-0.678,0.682-1.478,1.076-2.429,1.108
		c-1.197,0.041-2.395,0.033-3.593,0.046c-0.026,0-0.052-0.009-0.104-0.019c0-0.073,0-0.145,0-0.217c0-1.943-0.001-3.886,0.004-5.829
		c0-0.096,0.033-0.226,0.1-0.284c1.062-0.924,2.132-1.839,3.2-2.756c0.056-0.048,0.12-0.088,0.179-0.133
		c0.303-0.231,0.613-0.401,1.001-0.171C613.195,58.882,613.309,58.877,613.426,58.901z"/>
	<path fill="#FFFFFF" d="M626.252,61.051c0,0.084,0,0.157,0,0.229c0,0.934,0.001,1.869,0,2.803c-0.001,0.65-0.308,0.961-0.955,0.961
		c-1.95,0.001-3.9,0-5.85,0c-0.067,0-0.133,0-0.253,0c0.105-0.14,0.186-0.244,0.262-0.35c0.268-0.372,0.487-0.768,0.542-1.23
		c0.155-1.316-0.917-2.342-2.232-2.163c-0.849,0.116-1.599,0.481-2.344,0.87c-0.108,0.056-0.216,0.111-0.325,0.165
		c-0.01,0.005-0.025-0.002-0.049-0.005c0-0.422,0-0.845,0-1.281C618.778,61.051,622.503,61.051,626.252,61.051z"/>
	<path fill="#FFFFFF" d="M626.233,58.639c-3.732,0-7.451,0-11.169,0c-0.049-0.36,0.23-0.707,0.632-0.788
		c0.072-0.015,0.148-0.018,0.222-0.018c3.147-0.001,6.293-0.001,9.44,0C625.881,57.833,626.211,58.132,626.233,58.639z"/>
	<path fill="#FFFFFF" d="M618.604,66.646c0.387,0,0.792,0,1.228,0c-0.073,0.157-0.132,0.297-0.202,0.432
		c-0.362,0.696-0.724,1.391-1.092,2.084c-0.171,0.322-0.404,0.594-0.729,0.771c-0.252,0.138-0.439,0.049-0.449-0.238
		c-0.007-0.195,0.016-0.41,0.095-0.585c0.288-0.634,0.609-1.253,0.91-1.88C618.453,67.05,618.519,66.858,618.604,66.646z"/>
	<path fill="#FFFFFF" d="M621.083,66.648c0.394,0,0.797,0,1.199,0c0.004,0.019,0.013,0.035,0.008,0.044
		c-0.315,0.604-0.608,1.222-0.959,1.804c-0.15,0.249-0.4,0.454-0.641,0.629c-0.229,0.167-0.437,0.055-0.445-0.226
		c-0.006-0.201,0.023-0.419,0.1-0.603c0.173-0.416,0.389-0.815,0.581-1.224C620.988,66.941,621.028,66.798,621.083,66.648z"/>
	<path fill="#FFFFFF" d="M617.2,66.955c-0.057,0.12-0.112,0.24-0.17,0.359c-0.228,0.467-0.457,0.934-0.687,1.401
		c-0.194,0.394-0.707,0.669-1.145,0.61c-0.053-0.007-0.144-0.051-0.144-0.077c0.001-0.124-0.017-0.294,0.054-0.363
		c0.678-0.658,1.373-1.298,2.063-1.944C617.181,66.946,617.19,66.95,617.2,66.955z"/>
</g>
<g display="none">
	<path display="inline" d="M1,135.306c0-4.316,0-8.633,0-12.949c1.607-5.543,2.722-11.288,4.907-16.593
		c9.362-22.725,30.518-36.025,56.857-36.029c128.824-0.017,257.648-0.008,386.472-0.003c1.825,0,3.654,0.015,5.476,0.115
		c26.456,1.458,47.938,19.185,54.374,44.852c0.64,2.552,1.276,5.105,1.914,7.657c0,4.316,0,8.633,0,12.949
		c-0.328,0.73-0.815,1.429-0.96,2.193c-4.812,25.367-19.856,41.238-44.604,48.097c-2.021,0.56-4.106,0.892-6.389,1.378
		c0.174,1.211,0.204,2.022,0.412,2.785c15.122,55.645,30.355,111.26,45.35,166.939c7.066,26.238,1.96,49.446-19.079,67.73
		c-13.56,11.785-30.062,16.726-47.704,17.392c-16.082,0.607-32.199,0.386-48.301,0.383c-94.627-0.016-189.253-0.076-283.88-0.12
		c-8.301-0.004-16.641,0.507-24.892-0.136c-9.7-0.757-19.594-1.506-28.931-4.016C16.197,428.3-3.021,393.814,6.758,358.129
		c12.393-45.226,24.686-90.479,36.995-135.728c3.163-11.627,6.224-23.282,9.403-35.189c-1.515-0.447-2.572-0.834-3.662-1.069
		c-24.541-5.288-40.123-20.015-46.685-44.262C2.214,139.688,1.603,137.498,1,135.306z M255.943,120.688
		c-1.262-0.127-2.06-0.278-2.858-0.278c-48.636-0.014-97.272,0.013-145.908-0.084c-3.207-0.006-4.135,1.335-4.896,4.159
		C80.37,205.748,58.33,286.977,36.405,368.237c-4.186,15.513,2.504,29.853,16.828,37.088c9.123,4.608,18.919,5.89,28.964,5.893
		c56.106,0.014,112.211,0.007,168.317,0.007c1.752,0,3.503,0,5.429,0C255.943,314.043,255.943,217.634,255.943,120.688z
		 M340.036,120.676c0.301,2.264,0.486,4.204,0.825,6.117c4.511,25.453,9.074,50.897,13.564,76.354
		c12.002,68.048,23.999,136.097,35.885,204.165c0.562,3.22,1.928,3.996,4.917,3.965c12.445-0.132,24.896,0.123,37.336-0.164
		c5.266-0.121,10.612-0.785,15.746-1.967c19.999-4.601,30.421-18.684,27.86-37.751c-0.7-5.208-2.571-10.262-3.951-15.373
		c-20.772-76.917-41.582-153.823-62.24-230.77c-0.999-3.722-2.434-4.996-6.338-4.955c-19.58,0.205-39.163,0.089-58.745,0.105
		C343.439,120.402,341.984,120.561,340.036,120.676z"/>
	<path fill="#FFFFFF" d="M607.041,58.119c0.025,0.089,0.049,0.179,0.074,0.268c0.268,0.989,0.903,1.59,1.904,1.805
		c0.044,0.01,0.088,0.025,0.149,0.044c-0.13,0.486-0.254,0.961-0.383,1.435c-0.502,1.845-1.003,3.691-1.509,5.536
		c-0.399,1.455,0.385,2.862,1.846,3.255c0.381,0.102,0.784,0.133,1.18,0.164c0.337,0.026,0.677,0.005,1.015,0.006
		c3.859,0.002,7.719,0.004,11.578,0.005c0.657,0,1.314,0.009,1.97-0.016c0.719-0.027,1.393-0.229,1.946-0.709
		c0.858-0.746,1.066-1.692,0.778-2.762c-0.612-2.271-1.233-4.539-1.85-6.808c-0.008-0.031-0.01-0.064-0.017-0.114
		c0.093-0.02,0.178-0.033,0.26-0.056c1.009-0.28,1.623-0.927,1.819-1.962c0.006-0.031,0.026-0.06,0.039-0.089
		c0,5.241,0,10.481,0,15.722c-6.933,0-13.867,0-20.8,0C607.041,68.6,607.041,63.359,607.041,58.119z"/>
	<path fill="#FFFFFF" d="M627.841,57.591c-0.026-0.104-0.052-0.208-0.078-0.312c-0.263-1.047-1.139-1.77-2.218-1.829
		c-0.074-0.004-0.149-0.005-0.223-0.005c-5.254,0-10.508-0.001-15.762,0c-1.074,0-1.937,0.543-2.319,1.469
		c-0.089,0.216-0.135,0.451-0.2,0.677c0-1.516,0-3.031,0-4.548c6.933,0,13.867,0,20.8,0
		C627.841,54.559,627.841,56.075,627.841,57.591z"/>
	<path fill="#FFFFFF" d="M617.438,57.523c0,3.954,0,7.886,0,11.849c-0.079,0-0.15,0-0.221,0c-2.288,0-4.576,0-6.865,0
		c-0.41,0-0.809-0.052-1.181-0.24c-0.584-0.295-0.857-0.88-0.686-1.513c0.894-3.314,1.793-6.627,2.687-9.941
		c0.031-0.115,0.069-0.17,0.2-0.17c1.984,0.004,3.967,0.003,5.951,0.003C617.354,57.511,617.387,57.517,617.438,57.523z"/>
	<path fill="#FFFFFF" d="M620.868,57.522c0.079-0.005,0.139-0.011,0.198-0.011c0.799-0.001,1.597,0.004,2.396-0.004
		c0.159-0.002,0.218,0.05,0.259,0.202c0.843,3.138,1.691,6.275,2.538,9.412c0.056,0.208,0.133,0.415,0.161,0.627
		c0.104,0.778-0.321,1.352-1.136,1.54c-0.209,0.048-0.427,0.075-0.642,0.08c-0.507,0.012-1.015,0.001-1.523,0.007
		c-0.122,0.001-0.178-0.03-0.201-0.162c-0.485-2.776-0.974-5.551-1.464-8.327c-0.183-1.038-0.369-2.076-0.553-3.114
		C620.888,57.694,620.88,57.614,620.868,57.522z"/>
</g>
<g display="none">
	<path fill="#FFFFFF" d="M627.841,71.606c0,0.745,0,1.49,0,2.234c-6.933,0-13.867,0-20.8,0c0-0.745,0-1.49,0-2.234
		c0.029,0.059,0.059,0.117,0.088,0.176c0.148,0.305,0.454,0.473,0.799,0.439c0.326-0.033,0.602-0.262,0.675-0.583
		c0.029-0.13,0.026-0.269,0.026-0.403c0.001-5.196,0.001-10.392,0.001-15.589c0-0.081,0-0.162-0.004-0.243
		c-0.019-0.365-0.275-0.668-0.617-0.734c-0.379-0.073-0.728,0.104-0.887,0.448c-0.025,0.053-0.053,0.105-0.08,0.157
		c0-0.744,0-1.488,0-2.233c6.933,0,13.867,0,20.8,0c0,0.745,0,1.489,0,2.233c-0.029-0.059-0.059-0.117-0.088-0.176
		c-0.148-0.305-0.454-0.473-0.799-0.439c-0.326,0.033-0.602,0.262-0.675,0.583c-0.029,0.13-0.026,0.269-0.026,0.403
		c-0.001,5.196-0.001,10.392-0.001,15.588c0,0.081,0,0.162,0.004,0.243c0.019,0.365,0.275,0.667,0.617,0.734
		c0.378,0.073,0.728-0.104,0.887-0.448C627.785,71.71,627.814,71.659,627.841,71.606z M615.852,63.43c0,2.627,0,5.254,0,7.881
		c0,0.62,0.3,0.922,0.921,0.924c0.982,0.003,1.964,0.003,2.945,0c0.605-0.002,0.919-0.315,0.919-0.913
		c0.001-5.254,0.001-10.508,0-15.762c0-0.591-0.31-0.91-0.899-0.913c-1.002-0.006-2.004-0.002-3.006-0.001
		c-0.221,0-0.43,0.043-0.604,0.194c-0.225,0.194-0.278,0.446-0.278,0.73C615.854,58.19,615.852,60.81,615.852,63.43z
		 M609.444,63.441c0,2.633-0.001,5.266,0.001,7.899c0,0.564,0.311,0.884,0.875,0.894c0.48,0.008,0.961,0.008,1.442,0
		c0.564-0.01,0.875-0.329,0.875-0.894c0.001-5.266,0.001-10.532,0-15.799c0-0.565-0.311-0.884-0.876-0.894
		c-0.48-0.008-0.961-0.003-1.442-0.001c-0.229,0.001-0.442,0.052-0.616,0.216c-0.203,0.191-0.26,0.432-0.26,0.7
		C609.445,58.188,609.444,60.815,609.444,63.441z M613.451,63.443c0,2.593,0,5.186,0,7.779c0,0.108-0.001,0.217,0.011,0.325
		c0.035,0.336,0.307,0.618,0.64,0.669c0.542,0.083,0.935-0.291,0.935-0.897c0.001-5.254,0.001-10.507-0.001-15.761
		c0-0.107-0.01-0.217-0.036-0.321c-0.088-0.35-0.401-0.585-0.761-0.584c-0.36,0.001-0.678,0.24-0.759,0.587
		c-0.029,0.123-0.027,0.255-0.027,0.383C613.451,58.23,613.451,60.836,613.451,63.443z M623.851,63.441c0,2.593,0,5.186,0,7.779
		c0,0.108-0.001,0.217,0.01,0.325c0.035,0.345,0.314,0.627,0.658,0.673c0.536,0.072,0.917-0.298,0.917-0.896
		c0.001-5.254,0.001-10.507-0.001-15.761c0-0.114-0.011-0.231-0.04-0.341c-0.092-0.345-0.416-0.576-0.775-0.566
		c-0.361,0.01-0.675,0.257-0.747,0.604c-0.026,0.124-0.022,0.256-0.022,0.384C623.851,58.241,623.851,60.841,623.851,63.441z
		 M621.45,63.441c0,2.593,0,5.186,0,7.778c0,0.108,0.001,0.217,0.012,0.324c0.037,0.347,0.313,0.628,0.657,0.674
		c0.543,0.072,0.917-0.3,0.917-0.917c0-5.24,0-10.48-0.001-15.719c0-0.107-0.008-0.217-0.031-0.322
		c-0.078-0.353-0.381-0.595-0.744-0.605c-0.359-0.01-0.687,0.221-0.774,0.566c-0.034,0.135-0.035,0.282-0.035,0.423
		C621.45,58.242,621.45,60.841,621.45,63.441z"/>
	<path display="inline" d="M1,55.765c0.657-1.285,1.359-2.548,1.963-3.857c3.899-8.44,12.467-12.781,21.75-10.993
		c8.4,1.618,14.665,9.037,15.139,17.986c0.105,1.986,0.093,3.98,0.093,5.97c0.004,127.406,0.008,254.812-0.02,382.219
		c-0.001,3.302,0.088,6.705-0.633,9.887c-1.786,7.88-8.556,13.492-16.556,14.295c-8.444,0.847-15.954-3.284-19.58-10.761
		c-0.702-1.447-1.436-2.878-2.156-4.316C1,322.718,1,189.241,1,55.765z"/>
	<path display="inline" d="M511,456.194c-0.657,1.285-1.359,2.548-1.963,3.857c-3.899,8.441-12.474,12.785-21.75,10.993
		c-8.406-1.624-14.665-9.037-15.139-17.986c-0.105-1.986-0.093-3.98-0.093-5.97c-0.004-127.406-0.008-254.812,0.02-382.218
		c0.001-3.302-0.088-6.705,0.633-9.887c1.785-7.88,8.554-13.49,16.557-14.295c8.442-0.849,15.954,3.284,19.58,10.761
		c0.702,1.447,1.436,2.878,2.156,4.316C511,189.241,511,322.718,511,456.194z"/>
	<path display="inline" d="M217.052,255.731c0-64.247,0.035-128.493-0.05-192.74c-0.009-6.964,1.303-13.139,6.816-17.901
		c4.286-3.703,9.396-4.747,14.82-4.753c24.57-0.027,49.14-0.112,73.709,0.023c14.423,0.08,22.033,7.895,22.035,22.38
		c0.024,128.825,0.024,257.65,0,386.475c-0.003,14.663-7.705,22.342-22.531,22.398c-24.071,0.091-48.143,0.077-72.215,0.005
		c-15.227-0.045-22.571-7.455-22.575-22.65C217.041,384.557,217.052,320.144,217.052,255.731z"/>
	<path display="inline" d="M59.934,255.985c0-64.396,0.017-128.791-0.026-193.187c-0.004-6.575,1.403-12.478,6.374-17.158
		c4.264-4.014,9.482-5.278,15.106-5.299c11.784-0.044,23.57-0.175,35.35,0.028c13.831,0.239,21.464,8.064,21.468,21.92
		c0.03,129.123,0.03,258.246,0,387.369c-0.003,13.86-7.632,21.69-21.457,21.93c-11.78,0.205-23.569,0.2-35.35,0.001
		c-13.825-0.234-21.444-8.08-21.451-21.92C59.916,385.108,59.934,320.547,59.934,255.985z"/>
	<path display="inline" d="M158.178,256.036c0-63.91-0.009-127.821,0.026-191.731c0.002-3.139-0.043-6.377,0.665-9.397
		c2-8.526,9.797-14.372,18.617-14.4c8.846-0.028,16.52,5.745,18.669,14.316c0.637,2.541,0.875,5.244,0.875,7.874
		c0.041,128.817,0.042,257.634,0.027,386.45c-0.002,14.853-9.631,24.03-22.928,21.984c-8.148-1.254-14.824-8.161-15.683-16.404
		c-0.274-2.633-0.259-5.304-0.259-7.957C158.175,383.193,158.178,319.614,158.178,256.036z"/>
	<path display="inline" d="M413.178,255.982c0-63.744-0.007-127.489,0.021-191.233c0.001-3.145-0.089-6.371,0.538-9.421
		c1.747-8.494,9.461-14.559,18.306-14.804c8.812-0.244,16.741,5.41,19.006,13.872c0.719,2.684,0.977,5.566,0.978,8.357
		c0.046,128.817,0.046,257.633,0.031,386.45c-0.002,14.668-9.342,23.738-22.487,21.978c-8.427-1.129-15.261-8.052-16.128-16.506
		c-0.27-2.634-0.254-5.304-0.255-7.957C413.175,383.138,413.178,319.56,413.178,255.982z"/>
	<path display="inline" d="M354.316,255.987c0-63.74-0.012-127.481,0.034-191.221c0.003-3.463,0.017-7.048,0.856-10.366
		c2.141-8.466,10.178-14.119,18.979-13.878c8.907,0.244,16.332,6.184,18.238,14.84c0.565,2.566,0.77,5.26,0.77,7.895
		c0.036,128.477,0.036,256.953,0.025,385.43c-0.001,15.143-9.166,24.267-22.491,22.496c-8.427-1.12-15.2-8.003-16.099-16.52
		c-0.278-2.633-0.3-5.301-0.301-7.953C354.312,383.135,354.316,319.561,354.316,255.987z"/>
</g>
<g display="none">
	<path fill="#FFFFFF" d="M613.987,73.841c-2.316,0-4.631,0-6.947,0c0-6.933,0-13.867,0-20.8c4.415,0,8.829,0,13.244,0
		c-0.112,0.025-0.224,0.048-0.335,0.075c-3.637,0.888-7.276,1.767-10.909,2.67c-1.321,0.328-2.063,1.553-1.752,2.882
		c0.477,2.04,0.991,4.071,1.485,6.106c0.097,0.401,0.253,0.77,0.523,1.085c0.253,0.294,0.551,0.524,0.94,0.669
		c0-0.491,0.004-0.951-0.001-1.411c-0.007-0.733,0.151-1.428,0.529-2.056c0.805-1.338,1.998-2.019,3.562-2.021
		c3.236-0.005,6.472-0.002,9.708-0.002c0.086,0,0.171,0,0.266,0c-0.005-0.057-0.004-0.091-0.012-0.123
		c-0.49-2.002-0.975-4.005-1.473-6.005c-0.224-0.899-0.791-1.489-1.677-1.766c-0.134-0.042-0.272-0.069-0.408-0.103
		c2.367,0,4.734,0,7.109,0c0,3.914,0,7.827,0,11.741c-0.012-0.024-0.029-0.047-0.034-0.072c-0.24-1.266-1.135-2.056-2.41-2.06
		c-3.702-0.012-7.404-0.013-11.105,0c-1.4,0.005-2.431,1.02-2.442,2.398c-0.017,2.132-0.015,4.263,0,6.395
		c0.008,1.154,0.757,2.062,1.866,2.331C613.806,73.795,613.897,73.818,613.987,73.841z"/>
	<path display="inline" d="M334.503,1c3.338,0.829,6.728,1.489,10.004,2.515c21.721,6.802,35.64,21.262,41.125,43.306
		c12.201,49.037,24.107,98.148,36.117,147.233c0.191,0.78,0.163,1.614,0.291,3.013c-2.318,0-4.419,0-6.52,0
		c-79.34,0-158.681-0.09-238.021,0.04c-38.337,0.063-67.587,16.744-87.335,49.558c-9.273,15.408-13.152,32.431-12.969,50.412
		c0.115,11.272,0.021,22.546,0.021,34.589c-9.547-3.548-16.856-9.193-23.057-16.399c-6.638-7.713-10.444-16.781-12.832-26.602
		c-12.131-49.907-24.723-99.705-36.42-149.713c-7.622-32.584,10.58-62.609,42.961-70.654
		c89.079-22.13,178.301-43.683,267.469-65.455c2.724-0.665,5.471-1.231,8.208-1.843C327.198,1,330.851,1,334.503,1z
		 M299.561,168.745c22.657-5.562,44.593-10.947,66.73-16.381c-5.531-22.57-10.878-44.39-16.337-66.669
		c-22.437,5.495-44.366,10.866-66.693,16.334C288.743,124.468,294.074,146.288,299.561,168.745z"/>
	<path display="inline" d="M169.151,511c-2.223-0.549-4.445-1.108-6.671-1.647c-27.185-6.591-45.551-28.853-45.757-57.156
		c-0.38-52.264-0.428-104.535-0.002-156.799c0.275-33.795,25.548-58.685,59.873-58.804c90.763-0.315,181.529-0.301,272.292,0.002
		c31.261,0.105,53.205,19.482,59.102,50.516c0.117,0.617,0.547,1.174,0.831,1.759c0,56.445,0,112.891,0,169.336
		c-0.341,1.091-0.796,2.159-1.005,3.275c-4.298,22.956-17.568,38.317-39.398,46.286c-3.991,1.457-8.253,2.174-12.39,3.233
		C360.401,511,264.776,511,169.151,511z M148.12,373.76c-0.141,1.476-0.316,2.459-0.316,3.442
		c-0.014,24.568-0.043,49.136,0.035,73.703c0.009,2.788,0.295,5.667,1.031,8.345c3.711,13.488,14.203,20.612,30.258,20.616
		c88.975,0.019,177.95,0.025,266.926-0.044c3.776-0.003,7.685-0.301,11.304-1.292c13.079-3.582,20.27-14.109,20.317-29.453
		c0.073-23.406,0.025-46.812,0.007-70.217c-0.001-1.617-0.178-3.233-0.289-5.099C367.523,373.76,258.047,373.76,148.12,373.76z
		 M478.261,314.695c-0.674-9.305-0.267-18.544-2.227-27.249c-2.927-13.005-13.848-19.749-29.094-19.751
		c-89.435-0.016-178.87-0.009-268.304-0.002c-1.658,0-3.323-0.001-4.973,0.138c-11.5,0.966-19.676,6.818-23.866,17.467
		c-3.739,9.502-1.5,19.491-2.034,29.399C258.093,314.695,367.548,314.695,478.261,314.695z"/>
	<path fill="#FFFFFF" d="M625.688,73.841c0.169-0.043,0.342-0.072,0.505-0.132c0.89-0.325,1.432-0.951,1.607-1.888
		c0.008-0.045,0.027-0.089,0.041-0.134c0,0.718,0,1.435,0,2.153C627.123,73.841,626.405,73.841,625.688,73.841z"/>
	<path fill="#FFFFFF" d="M619.306,59.882c-0.224-0.916-0.441-1.806-0.665-2.721c0.911-0.223,1.805-0.442,2.72-0.666
		c0.223,0.909,0.441,1.799,0.666,2.719C621.125,59.436,620.23,59.655,619.306,59.882z"/>
	<path fill="#FFFFFF" d="M613.13,68.243c4.483,0,8.948,0,13.429,0c0.005,0.076,0.012,0.142,0.012,0.208
		c0.001,0.955,0.003,1.909,0,2.864c-0.002,0.626-0.295,1.055-0.829,1.201c-0.148,0.04-0.307,0.053-0.461,0.053
		c-3.629,0.003-7.258,0.003-10.886,0.002c-0.655,0-1.083-0.291-1.234-0.841c-0.03-0.109-0.042-0.227-0.042-0.34
		c-0.003-1.002-0.002-2.004-0.001-3.006C613.117,68.344,613.124,68.304,613.13,68.243z"/>
	<path fill="#FFFFFF" d="M626.594,65.834c-4.515,0-8.979,0-13.479,0c0.022-0.404-0.07-0.811,0.083-1.199
		c0.171-0.434,0.504-0.673,0.973-0.712c0.067-0.006,0.135-0.006,0.203-0.006c3.648,0,7.295-0.001,10.943,0
		c0.622,0,1.067,0.275,1.187,0.806C626.583,65.078,626.567,65.455,626.594,65.834z"/>
</g>
<g display="none">
	<path fill="#FFFFFF" d="M610.25,73.841c-1.069,0-2.139,0-3.208,0c0-6.93,0-13.861,0-20.796c6.933,0,13.866,0,20.799,0
		c0,3.465,0,6.93,0,10.396c-0.088,0.002-0.176,0.005-0.264,0.005c-5.685,0-11.37,0-17.055,0c-0.086,0-0.171,0-0.277,0
		c0,0.111,0,0.198,0,0.284c0,2.118-0.001,4.236,0,6.355C610.246,71.337,610.248,72.589,610.25,73.841z M608.987,65.912
		c0.014-0.003,0.029-0.006,0.043-0.008c0-0.763,0-1.526,0-2.289c0-0.895,0.485-1.382,1.377-1.385
		c0.229-0.001,0.427-0.032,0.652-0.157c2.996-1.664,6.007-3.304,9.015-4.948c0.054-0.03,0.129-0.051,0.186-0.038
		c0.184,0.041,0.367,0.094,0.545,0.157c0.052,0.019,0.104,0.081,0.127,0.136c0.232,0.544,0.906,0.798,1.406,0.489
		c0.179-0.111,0.315-0.098,0.483-0.04c0.057,0.02,0.116,0.039,0.176,0.049c0.175,0.028,0.275,0.128,0.359,0.285
		c0.401,0.752,0.794,1.509,1.234,2.238c0.216,0.358,0.284,0.685,0.096,1.053c-0.04,0.079-0.111,0.159-0.188,0.2
		c-0.235,0.126-0.403,0.298-0.498,0.564c1.013,0,1.998,0,3.017,0c-1.459-2.665-2.905-5.305-4.357-7.956
		c-5.15,2.82-10.283,5.631-15.422,8.445c0.039,0.076,0.065,0.13,0.094,0.183C607.883,63.897,608.435,64.905,608.987,65.912z
		 M620.405,62.222c-0.007-0.061-0.006-0.102-0.016-0.14c-0.203-0.801-0.709-1.341-1.463-1.644c-1.271-0.51-2.828-0.096-3.749,0.994
		c-0.196,0.232-0.348,0.5-0.546,0.79C616.596,62.222,618.488,62.222,620.405,62.222z M622.001,61.569
		c0.567,0.001,1.037-0.467,1.032-1.03c-0.004-0.556-0.461-1.017-1.02-1.028c-0.559-0.011-1.034,0.46-1.037,1.026
		C620.974,61.109,621.429,61.568,622.001,61.569z"/>
	<path display="inline" d="M75.585,498.314c-0.039-30.99-0.101-61.981-0.112-92.971c-0.019-52.432-0.005-104.865-0.005-157.297
		c0-2.144,0-4.288,0-7.034c2.601,0,4.724,0,6.846,0c140.72,0,281.439,0.001,422.159-0.005c2.176,0,4.352-0.079,6.528-0.12
		c0,85.809,0,171.619,0,257.428C365.862,498.314,220.723,498.314,75.585,498.314z M292.785,466.893
		c41.894,0,83.788,0.001,125.683-0.002c4.515,0,16.952-9.125,18.087-13.311c0.166-0.612,0.008-1.322-0.046-1.983
		c-1.263-15.34,8.93-28.139,23.86-27.879c6.08,0.106,9.145-2.37,12.586-5.938c1.396-1.447,3.101-2.678,4.18-4.326
		c1.119-1.709,2.327-3.799,2.338-5.729c0.153-25.471,0.116-50.943,0.081-76.414c-0.004-3.313-10.794-15.668-13.89-16.06
		c-0.484-0.061-1.002,0.06-1.494,0.154c-11.762,2.25-27.611-6.817-27.711-23.515c-0.039-6.578-3.093-9.749-6.697-13.83
		c-3.869-4.381-8.107-5.901-13.992-5.887c-79.934,0.198-159.869,0.305-239.801-0.09c-9.663-0.048-17.133,1.795-23.062,9.626
		c-1.913,2.527-3.151,4.487-2.907,7.904c0.994,13.94-10.599,26.716-24.556,25.966c-5.527-0.297-8.297,1.839-11.378,5.147
		c-1.484,1.593-3.387,2.889-4.528,4.683c-1.26,1.98-2.622,4.371-2.638,6.592c-0.183,25.135-0.152,50.272-0.04,75.408
		c0.008,1.839,0.623,4.075,1.774,5.432c2.917,3.439,6.18,6.62,9.569,9.603c1.046,0.921,2.999,1.352,4.447,1.193
		c13.484-1.482,26.954,8.703,27.035,22.159c0.044,7.278,2.953,11.545,7.603,16.148c3.626,3.59,7.218,5.082,12.331,5.058
		C210.672,466.808,251.729,466.893,292.785,466.893z"/>
	<path display="inline" d="M44.324,302.062c-13.667-24.939-27.336-49.876-40.996-74.818C2.614,225.94,1.966,224.601,1,222.72
		C128.194,153.069,255.244,83.497,382.729,13.686c35.933,65.621,71.724,130.982,107.841,196.936c-25.227,0-49.6,0-74.673,0
		c2.354-6.578,6.498-10.856,12.324-13.963c1.907-1.017,3.643-3.003,4.644-4.962c4.657-9.115,2.974-17.212-2.368-26.061
		c-10.889-18.035-20.61-36.783-30.535-55.386c-2.071-3.883-4.546-6.376-8.876-7.062c-1.477-0.234-2.929-0.712-4.347-1.208
		c-4.141-1.447-7.516-1.751-11.951,0.985c-12.379,7.638-29.051,1.36-34.802-12.105c-0.577-1.351-1.841-2.899-3.14-3.362
		c-4.402-1.57-8.924-2.862-13.485-3.886c-1.408-0.316-3.276,0.216-4.612,0.946c-74.456,40.684-148.963,81.279-223.133,122.479
		c-5.56,3.089-10.471,3.852-16.131,3.875C57.41,211,45.408,223.047,45.4,245.207c-0.007,18.882-0.002,37.764-0.002,56.647
		C45.04,301.923,44.682,301.992,44.324,302.062z"/>
	<path display="inline" d="M326.937,210.71c-47.434,0-94.275,0-142.94,0c4.904-7.161,8.676-13.806,13.52-19.546
		c22.789-27.003,61.342-37.243,92.8-24.615c18.676,7.497,31.191,20.87,36.225,40.695
		C326.783,208.193,326.773,209.205,326.937,210.71z"/>
	<path display="inline" d="M366.45,194.568c-14.148-0.025-25.419-11.388-25.355-25.562c0.063-14.008,11.838-25.656,25.664-25.386
		c13.821,0.27,25.137,11.679,25.244,25.45C392.111,183.001,380.494,194.593,366.45,194.568z"/>
	<path fill="#FFFFFF" d="M619.025,72.571c-1.659,0-3.317-0.003-4.976,0.004c-0.207,0.001-0.352-0.059-0.498-0.204
		c-0.188-0.186-0.305-0.358-0.307-0.652c-0.003-0.544-0.547-0.955-1.092-0.895c-0.059,0.006-0.137-0.011-0.18-0.048
		c-0.137-0.121-0.269-0.249-0.387-0.388c-0.047-0.055-0.071-0.145-0.072-0.219c-0.005-1.015-0.006-2.031,0.002-3.046
		c0.001-0.09,0.056-0.186,0.107-0.266c0.046-0.072,0.123-0.125,0.183-0.189c0.124-0.134,0.236-0.22,0.46-0.208
		c0.564,0.03,1.032-0.486,0.992-1.049c-0.01-0.138,0.04-0.217,0.117-0.319c0.24-0.316,0.541-0.391,0.932-0.389
		c3.229,0.016,6.459,0.012,9.688,0.004c0.238-0.001,0.409,0.061,0.565,0.238c0.146,0.165,0.269,0.293,0.271,0.559
		c0.004,0.675,0.644,1.041,1.12,0.95c0.02-0.004,0.041-0.009,0.06-0.006c0.125,0.016,0.561,0.515,0.561,0.649
		c0.001,1.029,0.003,2.058-0.003,3.087c0,0.078-0.049,0.162-0.094,0.231c-0.044,0.067-0.112,0.116-0.169,0.175
		c-0.139,0.144-0.263,0.244-0.508,0.24c-0.603-0.01-1.015,0.507-0.964,1.126c0.002,0.027,0.009,0.055,0.002,0.08
		c-0.046,0.169-0.548,0.538-0.731,0.538C622.41,72.571,620.717,72.571,619.025,72.571z M619.259,65.921
		c-0.926-0.002-1.588,0.196-2.16,0.584c-1.45,0.983-1.596,2.835-0.316,4.022c1.193,1.106,3.303,1.112,4.503,0.013
		c1.028-0.942,1.189-2.328,0.367-3.395C621.001,66.297,620.097,65.946,619.259,65.921z M624.235,69.665
		c0.571,0.003,1.037-0.457,1.037-1.024c0.001-0.559-0.452-1.016-1.016-1.025c-0.572-0.01-1.039,0.444-1.044,1.013
		C623.208,69.202,623.662,69.662,624.235,69.665z M613.843,67.617c-0.573-0.001-1.031,0.456-1.029,1.027
		c0.002,0.563,0.45,1.014,1.015,1.02c0.571,0.006,1.037-0.448,1.044-1.016C614.878,68.084,614.413,67.618,613.843,67.617z"/>
	<path display="inline" d="M298.574,302.279c20.753,0.623,43.12,9.303,59.263,30.277c20.337,26.423,16.363,60.731-9.086,84.043
		c-29.693,27.2-81.932,27.05-111.453-0.32c-31.682-29.374-28.081-75.217,7.82-99.553
		C259.274,307.129,275.654,302.223,298.574,302.279z"/>
	<path display="inline" d="M421.752,394.962c-14.183-0.084-25.43-11.475-25.307-25.632c0.122-14.09,11.694-25.321,25.845-25.086
		c13.959,0.232,25.153,11.531,25.138,25.374C447.412,383.656,435.874,395.045,421.752,394.962z"/>
	<path display="inline" d="M164.511,344.263c14.124,0.028,25.632,11.549,25.483,25.51c-0.15,14.07-11.691,25.307-25.83,25.149
		c-13.999-0.156-25.096-11.302-25.134-25.246C138.991,355.541,150.327,344.235,164.511,344.263z"/>
</g>
<g display="none">
	<path display="inline" d="M458.207,511c-134.805,0-269.609,0-404.414,0c-0.924-0.323-1.825-0.78-2.777-0.95
		c-23.416-4.179-38.98-17.626-46.924-39.923c-1.372-3.852-2.078-7.941-3.092-11.92C1,336.352,1,214.496,1,92.641
		c3.875-19.758,18.497-27.476,35.967-31.577c9.332-2.191,18.859-3.577,28.326-5.16c48.67-8.14,97.351-16.219,146.026-24.334
		c49-8.169,98.002-16.328,146.992-24.558c11.077-1.861,22.107-4,33.158-6.012c4.648,0,9.297,0,13.945,0
		c5.834,1.076,11.734,1.878,17.488,3.282c13.743,3.354,25.632,10.218,27.576,25.179c2.118,16.303,1.543,32.955,2.155,49.81
		C308.005,85.845,164.527,92.365,21.116,98.883c-0.24,0.926-0.473,1.396-0.466,1.863c0.123,8.478,6.136,14.817,16.834,16.598
		c6.506,1.083,13.208,1.371,19.822,1.375c120.663,0.077,241.326,0.056,361.989,0.056c10.788,0,21.579-0.154,32.364,0.041
		c28.547,0.517,51.046,18.465,57.687,45.826c0.542,2.232,1.102,4.46,1.654,6.689c0,95.625,0,191.25,0,286.875
		c-0.341,1.091-0.796,2.159-1.005,3.275c-4.298,22.956-17.568,38.317-39.398,46.286C466.605,509.224,462.344,509.941,458.207,511z
		 M432.555,354.16c21.457-0.027,39.191-17.669,39.398-39.193c0.206-21.502-17.991-39.561-39.66-39.359
		c-21.756,0.203-39.107,17.712-39.012,39.368C393.377,336.596,411.009,354.187,432.555,354.16z"/>
	<path fill="#FFFFFF" d="M627.841,59.987c-0.022-0.091-0.045-0.182-0.067-0.273c-0.271-1.116-1.188-1.848-2.353-1.869
		c-0.44-0.008-0.88-0.002-1.32-0.002c-4.921,0-9.842,0.001-14.763-0.002c-0.27,0-0.543-0.012-0.808-0.056
		c-0.436-0.073-0.682-0.331-0.687-0.677c0-0.019,0.009-0.038,0.019-0.076c5.849-0.266,11.701-0.532,17.599-0.8
		c-0.025-0.687-0.002-1.367-0.088-2.031c-0.079-0.61-0.564-0.89-1.125-1.027c-0.235-0.057-0.475-0.09-0.713-0.134
		c1.433,0,2.866,0,4.306,0C627.841,55.356,627.841,57.672,627.841,59.987z"/>
	<path fill="#FFFFFF" d="M622.966,53.041c-0.451,0.082-0.901,0.169-1.352,0.245c-1.998,0.336-3.997,0.668-5.995,1.002
		c-1.985,0.331-3.971,0.66-5.956,0.992c-0.386,0.065-0.775,0.121-1.155,0.21c-0.713,0.167-1.309,0.482-1.467,1.288
		c0-1.246,0-2.492,0-3.737C612.349,53.041,617.657,53.041,622.966,53.041z"/>
	<path fill="#FFFFFF" d="M607.041,71.687c0.041,0.162,0.07,0.329,0.126,0.486c0.324,0.909,0.959,1.458,1.914,1.628
		c0.039,0.007,0.076,0.026,0.113,0.039c-0.718,0-1.435,0-2.153,0C607.041,73.123,607.041,72.405,607.041,71.687z"/>
	<path fill="#FFFFFF" d="M625.688,73.841c0.169-0.043,0.342-0.072,0.505-0.132c0.89-0.325,1.432-0.951,1.607-1.888
		c0.008-0.045,0.027-0.089,0.041-0.134c0,0.718,0,1.435,0,2.153C627.123,73.841,626.405,73.841,625.688,73.841z"/>
	<path fill="#FFFFFF" d="M624.641,67.444c-0.879,0.001-1.598-0.716-1.602-1.598c-0.004-0.883,0.704-1.597,1.591-1.606
		c0.884-0.008,1.626,0.728,1.617,1.605C626.24,66.723,625.516,67.443,624.641,67.444z"/>
</g>
</svg>
