<?xml version="1.0" encoding="utf-8"?>
<!-- Generator: Adobe Illustrator 17.0.0, SVG Export Plug-In . SVG Version: 6.00 Build 0)  -->
<!DOCTYPE svg PUBLIC "-//W3C//DTD SVG 1.1//EN" "http://www.w3.org/Graphics/SVG/1.1/DTD/svg11.dtd">
<svg version="1.1" id="Layer_1" xmlns="http://www.w3.org/2000/svg" xmlns:xlink="http://www.w3.org/1999/xlink" x="0px" y="0px"
	 width="512px" height="512px" viewBox="0 0 512 512" enable-background="new 0 0 512 512" xml:space="preserve">
<g>
	<line fill="none" stroke="#B35047" x1="32" y1="0" x2="32" y2="512"/>
	<line fill="none" stroke="#B35047" x1="64" y1="0" x2="64" y2="512"/>
	<line fill="none" stroke="#B35047" x1="96" y1="0" x2="96" y2="512"/>
	<line fill="none" stroke="#B35047" x1="128" y1="0" x2="128" y2="512"/>
	<line fill="none" stroke="#B35047" x1="160" y1="0" x2="160" y2="512"/>
	<line fill="none" stroke="#B35047" x1="192" y1="0" x2="192" y2="512"/>
	<line fill="none" stroke="#B35047" x1="224" y1="0" x2="224" y2="512"/>
	<line fill="none" stroke="#B35047" x1="256" y1="0" x2="256" y2="512"/>
	<line fill="none" stroke="#B35047" x1="288" y1="0" x2="288" y2="512"/>
	<line fill="none" stroke="#B35047" x1="320" y1="0" x2="320" y2="512"/>
	<line fill="none" stroke="#B35047" x1="352" y1="0" x2="352" y2="512"/>
	<line fill="none" stroke="#B35047" x1="384" y1="0" x2="384" y2="512"/>
	<line fill="none" stroke="#B35047" x1="416" y1="0" x2="416" y2="512"/>
	<line fill="none" stroke="#B35047" x1="448" y1="0" x2="448" y2="512"/>
	<line fill="none" stroke="#B35047" x1="480" y1="0" x2="480" y2="512"/>
	<line fill="none" stroke="#B35047" x1="0" y1="32" x2="512" y2="32"/>
	<line fill="none" stroke="#B35047" x1="0" y1="64" x2="512" y2="64"/>
	<line fill="none" stroke="#B35047" x1="0" y1="96" x2="512" y2="96"/>
	<line fill="none" stroke="#B35047" x1="0" y1="128" x2="512" y2="128"/>
	<line fill="none" stroke="#B35047" x1="0" y1="160" x2="512" y2="160"/>
	<line fill="none" stroke="#B35047" x1="0" y1="192" x2="512" y2="192"/>
	<line fill="none" stroke="#B35047" x1="0" y1="224" x2="512" y2="224"/>
	<line fill="none" stroke="#B35047" x1="0" y1="256" x2="512" y2="256"/>
	<line fill="none" stroke="#B35047" x1="0" y1="288" x2="512" y2="288"/>
	<line fill="none" stroke="#B35047" x1="0" y1="320" x2="512" y2="320"/>
	<line fill="none" stroke="#B35047" x1="0" y1="352" x2="512" y2="352"/>
	<line fill="none" stroke="#B35047" x1="0" y1="384" x2="512" y2="384"/>
	<line fill="none" stroke="#B35047" x1="0" y1="416" x2="512" y2="416"/>
	<line fill="none" stroke="#B35047" x1="0" y1="448" x2="512" y2="448"/>
	<line fill="none" stroke="#B35047" x1="0" y1="480" x2="512" y2="480"/>
	<rect x="0" fill="none" stroke="#B35047" width="512" height="512"/>
</g>
<image display="none" overflow="visible" width="512" height="512" xlink:href="../../../Knowledge/Icon/[+++++] (Full) Windows 8 Icons [icons8]/Music/note/note-512.png"  transform="matrix(0.0406 0 0 0.0406 673 92)">
</image>
<image display="none" overflow="visible" width="512" height="512" xlink:href="../../../Knowledge/Icon/[+++++] (Full) Windows 8 Icons [icons8]/Music/microphone/microphone-512.png"  transform="matrix(0.0406 0 0 0.0406 673 92)">
</image>
<g>
	<path d="M1,448.488c0-76.367,0-152.734,0-229.102c0.34-0.905,0.826-1.783,0.998-2.719c4.057-22.022,16.546-37.212,37.268-45.469
		c3.355-1.337,4.785-2.764,5.082-6.495c2.04-25.64,27.169-37.759,45.645-31.283c1.986,0.696,4.621,0.259,6.769-0.33
		c40.095-11.005,80.162-22.107,120.233-33.2c70.881-19.621,141.759-39.256,212.647-58.854c2.757-0.762,4.435-1.762,4.817-5.162
		c1.509-13.432,12.074-22.981,26.179-24.185c12-1.024,24.331,7.621,28.007,19.633c3.863,12.625-1.463,26.148-12.812,32.533
		c-11.502,6.471-26.087,4.428-34.401-5.535c-2.957-3.543-5.264-3.977-9.459-2.711c-104.978,31.689-210.001,63.227-315.016,94.792
		c-1.695,0.51-3.383,1.043-5.178,1.597c0.927,3.322,2.487,6.218,2.369,9.043c-0.248,5.948,2.705,6.437,7.599,6.432
		c107.874-0.121,215.747-0.093,323.621-0.088c2.821,0,5.644-0.007,8.462,0.103c27.518,1.072,49.718,19.503,55.738,46.23
		c0.428,1.9,0.953,3.778,1.433,5.666c0,76.367,0,152.734,0,229.102c-1.026,3.796-1.881,7.648-3.105,11.379
		c-8.183,24.942-30.165,40.427-57.69,40.442c-90.131,0.052-180.263,0.025-270.394,0.019c-40.335-0.002-80.672,0.203-121.004-0.119
		c-27.039-0.215-49.313-18.389-55.898-44.652C2.316,453.19,1.639,450.844,1,448.488z M455.612,333.927
		c0.046-61.494-50.038-111.654-111.4-111.569c-61.269,0.085-111.05,49.824-111.281,111.189
		c-0.231,61.408,49.534,111.485,111.15,111.846C405.22,445.75,455.566,395.433,455.612,333.927z M89.352,384.773
		c17.086-0.05,31.379-14.479,31.211-31.509c-0.167-16.91-14.196-30.94-31.127-31.128c-16.91-0.188-31.415,14.233-31.478,31.294
		C57.896,370.422,72.32,384.822,89.352,384.773z M88.72,286.585c17.026,0.47,31.495-13.509,31.836-30.759
		c0.33-16.662-13.31-31.025-29.991-31.58c-17.776-0.591-32.363,13.272-32.591,30.972C57.757,272.073,71.517,286.11,88.72,286.585z"
		/>
	<path display="none" fill="#FFFFFF" d="M693.841,100.572c-0.02-0.077-0.041-0.154-0.058-0.231c-0.246-1.09-1.151-1.842-2.273-1.885
		c-0.115-0.004-0.23-0.004-0.345-0.004c-4.4,0-8.799-0.001-13.199,0.004c-0.2,0-0.32-0.02-0.31-0.262
		c0.005-0.115-0.059-0.233-0.097-0.369c0.073-0.023,0.142-0.044,0.211-0.065c4.283-1.287,8.566-2.574,12.848-3.866
		c0.171-0.052,0.265-0.034,0.386,0.111c0.339,0.406,0.934,0.49,1.403,0.226c0.463-0.26,0.68-0.812,0.523-1.327
		c-0.15-0.49-0.653-0.843-1.142-0.801c-0.575,0.049-1.006,0.439-1.068,0.986c-0.016,0.139-0.084,0.179-0.196,0.211
		c-2.891,0.799-5.782,1.6-8.673,2.4c-1.634,0.452-3.268,0.905-4.904,1.354c-0.088,0.024-0.195,0.042-0.276,0.013
		c-0.754-0.264-1.778,0.23-1.862,1.276c-0.012,0.152-0.07,0.21-0.207,0.265c-0.845,0.337-1.354,0.956-1.52,1.854
		c-0.007,0.038-0.027,0.074-0.041,0.111c0-2.842,0-5.684,0-8.529c6.933,0,13.867,0,20.8,0
		C693.841,94.887,693.841,97.73,693.841,100.572z"/>
	<path display="none" fill="#FFFFFF" d="M673.041,109.916c0.026,0.096,0.054,0.192,0.078,0.288c0.269,1.071,1.177,1.812,2.28,1.821
		c1.645,0.013,3.29,0.005,4.935,0.005c3.676,0,7.352,0.001,11.028-0.001c1.123-0.001,2.019-0.632,2.353-1.649
		c0.05-0.152,0.085-0.309,0.127-0.464c0,0.975,0,1.95,0,2.925c-6.933,0-13.867,0-20.8,0
		C673.041,111.866,673.041,110.891,673.041,109.916z"/>
	<path display="none" fill="#FFFFFF" d="M691.582,105.243c-0.002,2.508-2.055,4.561-4.549,4.546
		c-2.513-0.015-4.543-2.057-4.533-4.562c0.009-2.503,2.04-4.531,4.539-4.535C689.541,100.69,691.583,102.735,691.582,105.243z
		 M690.461,104.854c-2.29,0-4.546,0-6.853,0c0,0.18,0.005,0.353-0.001,0.526c-0.006,0.191,0.055,0.265,0.269,0.264
		c2.11-0.009,4.22-0.006,6.329-0.006c0.041,0,0.088,0.013,0.12-0.004c0.051-0.026,0.127-0.07,0.13-0.111
		C690.467,105.304,690.461,105.084,690.461,104.854z M690.269,104.021c-0.142-0.261-0.256-0.481-0.384-0.693
		c-0.026-0.043-0.11-0.073-0.167-0.073c-1.781-0.004-3.561-0.003-5.342-0.002c-0.051,0-0.129,0.004-0.148,0.034
		c-0.139,0.231-0.267,0.47-0.413,0.734C685.986,104.021,688.098,104.021,690.269,104.021z M683.816,106.461
		c0.13,0.241,0.233,0.452,0.357,0.65c0.037,0.059,0.133,0.116,0.202,0.116c1.781,0.006,3.561,0.005,5.342,0.003
		c0.049,0,0.124-0.01,0.143-0.042c0.136-0.228,0.261-0.462,0.407-0.728C688.096,106.461,685.986,106.461,683.816,106.461z
		 M688.959,102.426c-1.034-0.837-2.826-0.827-3.835,0C686.403,102.426,687.676,102.426,688.959,102.426z M688.957,108.064
		c-1.283,0-2.547,0-3.831,0C686.153,108.879,687.947,108.876,688.957,108.064z"/>
	<path display="none" fill="#FFFFFF" d="M676.644,107.317c-0.695,0.002-1.283-0.585-1.28-1.278c0.003-0.696,0.594-1.284,1.284-1.276
		c0.69,0.008,1.263,0.58,1.269,1.27C677.924,106.726,677.341,107.315,676.644,107.317z"/>
	<path display="none" fill="#FFFFFF" d="M676.618,103.312c-0.702-0.019-1.263-0.592-1.254-1.279
		c0.009-0.722,0.604-1.287,1.329-1.263c0.68,0.023,1.237,0.608,1.223,1.288C677.903,102.762,677.313,103.332,676.618,103.312z"/>
	<path d="M428.125,324.383c0,5.63,0.163,11.038-0.148,16.419c-0.057,0.987-1.936,2.071-3.178,2.715
		c-0.786,0.407-1.951,0.086-2.945,0.086c-51.732,0.001-103.463-0.09-155.194,0.139c-5.241,0.023-6.754-1.783-6.599-6.465
		c0.14-4.235,0.03-8.478,0.03-12.894C316.654,324.383,371.968,324.383,428.125,324.383z"/>
	<path d="M423.42,303.951c-53.234,0-104.998,0-158.259,0c3.593-6.477,6.716-12.324,10.129-17.996
		c0.449-0.746,2.378-0.836,3.621-0.837c43.661-0.04,87.323-0.05,130.984,0.044c1.405,0.003,3.453,0.737,4.101,1.8
		C417.149,292.145,419.928,297.557,423.42,303.951z"/>
	<path d="M265.209,363.776c53.204,0,104.951,0,158.178,0c-3.591,6.502-6.651,12.254-9.989,17.839
		c-0.465,0.778-2.303,1.03-3.505,1.031c-43.659,0.051-87.318,0.076-130.976-0.079c-1.694-0.006-4.04-1.399-4.952-2.853
		C270.924,374.862,268.397,369.688,265.209,363.776z"/>
	<path d="M391.318,264.86c-31.479,0-62.683,0-94.032,0C322.022,244.585,365.954,244.333,391.318,264.86z"/>
	<path d="M391.253,403.094c-24.768,19.907-68.738,19.975-93.932,0C328.794,403.094,359.803,403.094,391.253,403.094z"/>
</g>
</svg>
