<?xml version="1.0" encoding="utf-8"?>
<!-- Generator: Adobe Illustrator 17.0.0, SVG Export Plug-In . SVG Version: 6.00 Build 0)  -->
<!DOCTYPE svg PUBLIC "-//W3C//DTD SVG 1.1//EN" "http://www.w3.org/Graphics/SVG/1.1/DTD/svg11.dtd">
<svg version="1.1" id="Layer_1" xmlns="http://www.w3.org/2000/svg" xmlns:xlink="http://www.w3.org/1999/xlink" x="0px" y="0px"
	 width="512px" height="512px" viewBox="0 0 512 512" enable-background="new 0 0 512 512" xml:space="preserve">
<g>
	<line fill="none" stroke="#B35047" x1="32" y1="0" x2="32" y2="512"/>
	<line fill="none" stroke="#B35047" x1="64" y1="0" x2="64" y2="512"/>
	<line fill="none" stroke="#B35047" x1="96" y1="0" x2="96" y2="512"/>
	<line fill="none" stroke="#B35047" x1="128" y1="0" x2="128" y2="512"/>
	<line fill="none" stroke="#B35047" x1="160" y1="0" x2="160" y2="512"/>
	<line fill="none" stroke="#B35047" x1="192" y1="0" x2="192" y2="512"/>
	<line fill="none" stroke="#B35047" x1="224" y1="0" x2="224" y2="512"/>
	<line fill="none" stroke="#B35047" x1="256" y1="0" x2="256" y2="512"/>
	<line fill="none" stroke="#B35047" x1="288" y1="0" x2="288" y2="512"/>
	<line fill="none" stroke="#B35047" x1="320" y1="0" x2="320" y2="512"/>
	<line fill="none" stroke="#B35047" x1="352" y1="0" x2="352" y2="512"/>
	<line fill="none" stroke="#B35047" x1="384" y1="0" x2="384" y2="512"/>
	<line fill="none" stroke="#B35047" x1="416" y1="0" x2="416" y2="512"/>
	<line fill="none" stroke="#B35047" x1="448" y1="0" x2="448" y2="512"/>
	<line fill="none" stroke="#B35047" x1="480" y1="0" x2="480" y2="512"/>
	<line fill="none" stroke="#B35047" x1="0" y1="32" x2="512" y2="32"/>
	<line fill="none" stroke="#B35047" x1="0" y1="64" x2="512" y2="64"/>
	<line fill="none" stroke="#B35047" x1="0" y1="96" x2="512" y2="96"/>
	<line fill="none" stroke="#B35047" x1="0" y1="128" x2="512" y2="128"/>
	<line fill="none" stroke="#B35047" x1="0" y1="160" x2="512" y2="160"/>
	<line fill="none" stroke="#B35047" x1="0" y1="192" x2="512" y2="192"/>
	<line fill="none" stroke="#B35047" x1="0" y1="224" x2="512" y2="224"/>
	<line fill="none" stroke="#B35047" x1="0" y1="256" x2="512" y2="256"/>
	<line fill="none" stroke="#B35047" x1="0" y1="288" x2="512" y2="288"/>
	<line fill="none" stroke="#B35047" x1="0" y1="320" x2="512" y2="320"/>
	<line fill="none" stroke="#B35047" x1="0" y1="352" x2="512" y2="352"/>
	<line fill="none" stroke="#B35047" x1="0" y1="384" x2="512" y2="384"/>
	<line fill="none" stroke="#B35047" x1="0" y1="416" x2="512" y2="416"/>
	<line fill="none" stroke="#B35047" x1="0" y1="448" x2="512" y2="448"/>
	<line fill="none" stroke="#B35047" x1="0" y1="480" x2="512" y2="480"/>
	<rect x="0" fill="none" stroke="#B35047" width="512" height="512"/>
</g>
<g>
	<path display="none" fill="#FFFFFF" d="M601.041,56.719c0-2.559,0-5.119,0-7.678c4.266,0,8.531,0,12.797,0
		c-0.122,0.092-0.257,0.171-0.365,0.277c-1.101,1.072-2.197,2.148-3.295,3.224c-0.352,0.345-0.374,0.633-0.059,0.942
		c1.154,1.134,2.308,2.268,3.474,3.388c0.105,0.101,0.307,0.153,0.457,0.142c0.342-0.024,0.557-0.278,0.564-0.629
		c0.011-0.501,0.004-1.002,0.005-1.503c0-0.078,0.008-0.156,0.012-0.238c0.627,0,1.23-0.028,1.83,0.006
		c1.157,0.066,2.156,1.094,2.17,2.242c0.02,1.678,0.021,3.357,0.002,5.036c-0.013,1.143-0.862,2.089-1.995,2.275
		c-0.226,0.037-0.457,0.045-0.684,0.078c-0.659,0.096-1.227,0.706-1.292,1.382c-0.07,0.729,0.36,1.426,1.011,1.657
		c0.528,0.188,1.063,0.124,1.582,0.011c2.314-0.505,3.798-1.903,4.417-4.196c0.086-0.317,0.113-0.649,0.168-0.974
		c0,2.557,0,5.114,0,7.678c-4.266,0-8.531,0-12.797,0c0.122-0.092,0.257-0.171,0.365-0.277c1.101-1.072,2.197-2.148,3.295-3.224
		c0.352-0.345,0.374-0.633,0.059-0.942c-1.154-1.134-2.308-2.268-3.475-3.388c-0.105-0.101-0.307-0.153-0.457-0.142
		c-0.342,0.024-0.557,0.278-0.564,0.629c-0.011,0.501-0.004,1.002-0.005,1.503c0,0.078-0.008,0.156-0.012,0.238
		c-0.627,0-1.23,0.028-1.83-0.006c-1.157-0.066-2.156-1.094-2.17-2.242c-0.02-1.678-0.02-3.357-0.002-5.036
		c0.013-1.143,0.862-2.089,1.995-2.275c0.226-0.037,0.457-0.045,0.684-0.078c0.659-0.096,1.227-0.706,1.292-1.382
		c0.07-0.729-0.36-1.426-1.011-1.657c-0.528-0.188-1.063-0.124-1.582-0.011c-2.314,0.505-3.798,1.903-4.417,4.196
		C601.123,56.061,601.095,56.394,601.041,56.719z"/>
	<path d="M1,189.262c1.338-7.971,2.021-16.118,4.117-23.884c15.177-56.217,51.558-90.496,108.294-102.879
		c12.743-2.781,25.851-4.339,38.801,0.261c15.962,5.67,26.508,22.742,24.795,40.625c-1.587,16.56-15.507,31.532-31.671,33.877
		c-5.567,0.808-11.228,0.998-16.774,1.912c-27.784,4.58-48.61,27.762-48.922,55.79c-0.458,41.154-0.442,82.321,0.044,123.475
		c0.332,28.161,24.846,53.352,53.206,54.977c14.705,0.843,29.498,0.148,44.868,0.148c0.104-2.018,0.281-3.925,0.288-5.833
		c0.045-12.281-0.128-24.567,0.134-36.843c0.184-8.595,5.451-14.815,13.831-15.414c3.693-0.264,8.641,1.021,11.21,3.488
		c28.609,27.473,56.897,55.282,85.193,83.08c7.719,7.583,7.176,14.657-1.445,23.108c-26.906,26.372-53.796,52.761-80.783,79.049
		c-2.665,2.596-5.956,4.549-8.956,6.801c-1.992,0-3.984,0-5.977,0c-10.128-3.413-13.865-10.533-13.318-21.032
		c0.56-10.75,0.136-21.552,0.111-32.331c-0.004-1.752-0.175-3.504-0.286-5.57c-12.483,0-24.417,0.295-36.33-0.095
		c-9.253-0.303-18.694-0.463-27.681-2.403C57.03,437.327,20.608,403.155,5.21,347.09c-2.171-7.906-2.844-16.224-4.21-24.352
		C1,278.246,1,233.754,1,189.262z"/>
	<path d="M511,322.738c-1.338,7.971-2.021,16.118-4.117,23.884c-15.177,56.217-51.558,90.497-108.294,102.879
		c-12.743,2.781-25.851,4.339-38.801-0.261c-15.962-5.67-26.508-22.742-24.794-40.625c1.587-16.561,15.508-31.532,31.671-33.877
		c5.567-0.808,11.228-0.998,16.774-1.912c27.783-4.58,48.61-27.762,48.921-55.79c0.458-41.154,0.442-82.321-0.044-123.475
		c-0.332-28.161-24.847-53.352-53.207-54.977c-14.705-0.842-29.498-0.148-44.868-0.148c-0.104,2.018-0.28,3.925-0.287,5.833
		c-0.045,12.281,0.128,24.567-0.134,36.843c-0.184,8.595-5.451,14.815-13.832,15.413c-3.693,0.264-8.641-1.021-11.21-3.488
		c-28.609-27.473-56.897-55.282-85.193-83.08c-7.719-7.583-7.176-14.657,1.446-23.108c26.906-26.372,53.796-52.761,80.783-79.05
		c2.665-2.596,5.956-4.549,8.956-6.8c1.992,0,3.984,0,5.977,0c10.19,3.371,13.835,10.56,13.313,21.026
		c-0.536,10.753-0.131,21.553-0.106,32.332c0.004,1.753,0.174,3.506,0.256,5.052c0.902,0.268,1.218,0.443,1.535,0.444
		c11.608,0.036,23.226-0.234,34.821,0.171c9.254,0.323,18.694,0.466,27.682,2.405c56.721,12.24,93.144,46.414,108.543,102.479
		c2.172,7.906,2.844,16.224,4.21,24.352C511,233.754,511,278.246,511,322.738z"/>
	<path display="none" fill="#FFFFFF" d="M621.841,56.719c-0.056-0.331-0.083-0.671-0.172-0.993c-0.628-2.287-2.114-3.68-4.427-4.18
		c-0.367-0.079-0.752-0.085-1.129-0.098c-0.473-0.016-0.947-0.005-1.42-0.007c-0.013,0-0.026-0.007-0.063-0.018
		c-0.003-0.063-0.01-0.135-0.01-0.206c-0.001-0.44-0.018-0.88,0.004-1.319c0.021-0.427-0.127-0.72-0.543-0.858
		c2.586,0,5.173,0,7.759,0C621.841,51.6,621.841,54.159,621.841,56.719z"/>
	<path display="none" fill="#FFFFFF" d="M601.041,62.162c0.056,0.331,0.083,0.671,0.172,0.993c0.628,2.287,2.113,3.68,4.427,4.18
		c0.367,0.079,0.752,0.086,1.129,0.098c0.486,0.016,0.973,0.004,1.482,0.004c0.005,0.084,0.012,0.156,0.012,0.227
		c0.001,0.44,0.018,0.88-0.005,1.319c-0.022,0.428,0.13,0.719,0.543,0.858c-2.586,0-5.173,0-7.759,0
		C601.041,67.281,601.041,64.722,601.041,62.162z"/>
</g>
<g display="none">
	<path fill="#FFFFFF" d="M621.841,69.84c-6.931,0-13.862,0-20.797,0c0-6.929,0-13.858,0-20.793c6.93,0,13.863,0,20.797,0
		C621.841,55.976,621.841,62.907,621.841,69.84z M605.844,59.445c0,1.631,0,3.262,0,4.894c0,0.223-0.006,0.447,0.002,0.67
		c0.015,0.456,0.3,0.799,0.721,0.808c0.852,0.017,1.705,0.015,2.558,0c0.362-0.007,0.644-0.298,0.693-0.655
		c0.013-0.094,0.019-0.189,0.019-0.283c0.001-3.628,0.001-7.256,0-10.884c0-0.061-0.002-0.122-0.008-0.182
		c-0.045-0.462-0.33-0.749-0.794-0.756c-0.799-0.012-1.597-0.005-2.396-0.002c-0.293,0.001-0.538,0.124-0.667,0.385
		c-0.08,0.163-0.121,0.361-0.122,0.544C605.841,55.804,605.844,57.624,605.844,59.445z M617.037,59.444c0-1.394,0-2.789,0-4.183
		c0-0.453,0.005-0.907-0.001-1.36c-0.007-0.489-0.297-0.831-0.753-0.84c-0.832-0.016-1.665-0.014-2.497,0.001
		c-0.396,0.007-0.678,0.297-0.724,0.69c-0.012,0.1-0.015,0.202-0.015,0.304c-0.001,3.587-0.001,7.175,0,10.762
		c0,0.068-0.002,0.136,0.003,0.203c0.034,0.506,0.327,0.801,0.831,0.807c0.778,0.009,1.557,0.002,2.335,0.002
		c0.283,0,0.535-0.097,0.669-0.347c0.092-0.17,0.146-0.382,0.147-0.576C617.042,63.086,617.037,61.265,617.037,59.444z"/>
	<path display="inline" d="M32.723,256.172c0-72.641-0.135-145.283,0.208-217.922c0.034-7.29,1.655-15.213,4.854-21.702
		C42.928,6.118,52.702,1.224,64.411,1.184C96.274,1.075,128.143,0.792,160,1.264c18.521,0.275,29.884,11.719,31.683,30.16
		c0.235,2.413,0.301,4.85,0.302,7.276c0.014,144.742,0.018,289.484-0.018,434.226c-0.001,3.767-0.234,7.566-0.746,11.297
		c-1.958,14.243-13.188,25.86-27.635,26.126c-34.004,0.626-68.038,0.716-102.039,0.018c-16.787-0.345-28.143-14.027-28.753-32.222
		c-0.298-8.902-0.068-17.821-0.068-26.732C32.722,386.332,32.723,321.252,32.723,256.172z"/>
	<path display="inline" d="M479.294,256.141c0,72.641,0.173,145.283-0.255,217.922c-0.046,7.733-2.222,16.192-5.874,22.991
		c-5.346,9.955-15.391,13.836-26.695,13.839c-31.055,0.01-62.112,0.282-93.162-0.08c-20.131-0.235-31.818-12.007-33.169-32.186
		c-0.18-2.69-0.115-5.398-0.115-8.098c-0.005-143.122-0.009-286.244,0.021-429.366c0.001-4.04,0.139-8.108,0.614-12.115
		c1.859-15.674,13.087-27.24,28.906-27.531c33.198-0.61,66.424-0.688,99.62-0.04c18.213,0.356,29.787,13.999,30.05,33.501
		c0.243,18.09,0.059,36.185,0.059,54.278C479.295,144.884,479.294,200.512,479.294,256.141z"/>
</g>
<g display="none">
	<path fill="#FFFFFF" d="M616.803,69.841c-5.254,0-10.508,0-15.762,0c0-1.289,0-2.574,0-3.859c0.009,0.018,0.025,0.035,0.027,0.054
		c0.103,0.832,0.803,1.423,1.727,1.405c0.731-0.014,1.462-0.012,2.193-0.001c1.262,0.019,2.289-0.469,3.033-1.475
		c0.578-0.781,1.113-1.598,1.619-2.429c1.533-2.519,3.037-5.054,4.564-7.576c0.244-0.403,0.544-0.773,0.826-1.153
		c0.049-0.067,0.134-0.147,0.205-0.151c0.334-0.016,0.67-0.007,1.011-0.007c0.006,0.058,0.013,0.098,0.013,0.138
		c0.001,0.521,0,1.042,0.003,1.563c0.001,0.281,0.116,0.497,0.38,0.617c0.262,0.119,0.489,0.063,0.713-0.116
		c1.316-1.052,2.637-2.098,3.957-3.145c0.631-0.501,0.63-0.829-0.001-1.33c-1.272-1.009-2.543-2.02-3.817-3.028
		c-0.141-0.112-0.298-0.205-0.447-0.307c1.597,0,3.194,0,4.792,0c0,6.933,0,13.867,0,20.8c-1.598,0-3.195,0-4.792,0
		c0.086-0.051,0.179-0.094,0.256-0.156c1.353-1.071,2.706-2.143,4.056-3.218c0.567-0.451,0.565-0.803,0-1.253
		c-1.345-1.071-2.692-2.139-4.039-3.206c-0.063-0.05-0.133-0.097-0.207-0.122c-0.392-0.134-0.816,0.13-0.836,0.546
		c-0.025,0.52-0.011,1.042-0.016,1.563c-0.001,0.078-0.007,0.157-0.011,0.249c-0.117,0-0.211,0-0.305,0
		c-0.849,0-0.85,0.001-1.331-0.697c-0.245-0.356-0.467-0.731-0.732-1.072c-0.487-0.628-1.393-0.77-2.063-0.348
		c-0.667,0.42-0.956,1.293-0.597,1.989c0.441,0.855,0.983,1.65,1.674,2.331c0.418,0.412,0.905,0.72,1.477,0.848
		c0.393,0.088,0.802,0.106,1.205,0.139c0.219,0.018,0.441,0.003,0.682,0.003c0,0.534,0.016,1.041-0.005,1.547
		C616.238,69.411,616.388,69.704,616.803,69.841z"/>
	<path fill="#FFFFFF" d="M601.041,52.9c0-1.286,0-2.573,0-3.859c5.254,0,10.508,0,15.762,0c-0.42,0.134-0.565,0.432-0.546,0.856
		c0.019,0.432,0.004,0.866,0.004,1.299c0,0.078,0,0.156,0,0.248c-0.27,0-0.506,0.005-0.742-0.001
		c-1.277-0.031-2.317,0.464-3.069,1.483c-0.573,0.777-1.104,1.588-1.606,2.413c-1.536,2.524-3.044,5.065-4.574,7.593
		c-0.241,0.398-0.538,0.761-0.811,1.139c-0.094,0.13-0.224,0.176-0.387,0.175c-0.771-0.005-1.543-0.004-2.314,0
		c-0.649,0.003-1.176,0.244-1.497,0.828c-0.105,0.19-0.147,0.415-0.218,0.624c0-4.171,0-8.342,0-12.512
		c0.009,0.018,0.025,0.035,0.028,0.053c0.105,0.838,0.809,1.415,1.709,1.401c0.636-0.01,1.275,0.035,1.907-0.014
		c0.507-0.039,0.827,0.151,1.08,0.563c0.364,0.593,0.754,1.17,1.127,1.758c0.456,0.72,1.269,1.024,1.972,0.731
		c0.953-0.397,1.303-1.441,0.779-2.34c-0.167-0.286-0.331-0.575-0.521-0.846c-0.447-0.635-0.876-1.287-1.373-1.88
		c-0.593-0.707-1.38-1.107-2.317-1.135c-0.926-0.028-1.853-0.037-2.779-0.026c-0.609,0.007-1.098,0.278-1.394,0.825
		C601.154,52.466,601.111,52.691,601.041,52.9z"/>
	<path display="inline" d="M1.69,409.398c1.742-5.122,2.789-10.625,5.355-15.293c7.871-14.322,20.806-20.237,36.714-20.311
		c18.916-0.088,37.833-0.127,56.748,0.004c4,0.028,7.172-1.084,9.485-4.28c6.701-9.259,13.994-18.168,19.895-27.916
		c37.517-61.976,74.5-124.277,112.154-186.169c12.306-20.227,25.334-40.113,39.387-59.155c18.448-24.996,43.931-37.115,75.25-36.364
		c5.789,0.139,11.583,0.02,18.198,0.02c0-2.263,0-4.178,0-6.092c0-10.62,0.354-21.254-0.1-31.855
		C374.331,11.59,377.871,4.273,388.175,1c1.992,0,3.984,0,5.977,0c3.663,2.496,7.496,4.778,10.964,7.521
		c31.231,24.7,62.394,49.487,93.587,74.235c15.464,12.269,15.481,20.326,0.019,32.603c-32.353,25.689-64.753,51.32-97.016,77.122
		c-5.491,4.391-11.051,5.779-17.482,2.852c-6.463-2.94-9.277-8.235-9.308-15.13c-0.057-12.778-0.033-25.556-0.064-38.334
		c-0.002-0.973-0.175-1.945-0.312-3.372c-8.373,0-16.601-0.217-24.801,0.173c-1.753,0.084-3.817,2.064-5.029,3.697
		c-6.908,9.312-14.272,18.377-20.259,28.265c-37.44,61.838-74.33,124.01-111.909,185.763
		c-12.395,20.368-25.523,40.391-39.696,59.552c-18.235,24.654-43.422,36.621-74.368,36.164c-17.919-0.265-35.85-0.321-53.766,0.023
		c-22.673,0.435-39.826-14.033-42.357-34.444c-0.057-0.461-0.438-0.881-0.668-1.321C1.69,414.047,1.69,411.723,1.69,409.398z"/>
	<path display="inline" d="M388.175,511c-10.189-3.357-13.844-10.541-13.416-21.008c0.506-12.397,0.119-24.83,0.119-37.925
		c-5.92,0-11.36,0.365-16.733-0.079c-9.887-0.818-19.925-1.259-29.553-3.411c-14.02-3.134-25.968-10.7-36.217-20.795
		c-16.952-16.696-30.228-36.176-41.05-57.152c-8.804-17.063-1.723-38.466,14.639-48.765c16.434-10.344,38.658-6.86,50.591,8.541
		c6.484,8.369,11.919,17.545,17.937,26.282c11.785,17.111,11.817,17.09,32.636,17.088c2.307,0,4.615,0,7.476,0
		c0.102-2.272,0.25-4.192,0.266-6.113c0.101-12.776-0.231-25.572,0.382-38.323c0.49-10.206,10.905-16.678,20.51-13.391
		c1.826,0.625,3.549,1.786,5.081,3c33.035,26.174,66.057,52.364,99.032,78.613c13.872,11.043,13.9,19.659,0.007,30.726
		c-33.097,26.363-66.263,52.638-99.443,78.897c-1.907,1.509-4.181,2.554-6.285,3.815C392.159,511,390.167,511,388.175,511z"/>
	<path display="inline" d="M1.69,95.629c1.728-5.13,2.773-10.63,5.313-15.32c7.261-13.407,19.262-20.041,34.191-20.222
		c22.711-0.275,45.442-0.039,68.145,0.639c22.971,0.685,42.267,10.502,56.807,27.838c12.204,14.551,22.715,30.54,33.673,46.106
		c4.666,6.628,8.696,13.719,12.781,20.736c12.832,22.041,4.265,47.632-19.107,57.369c-17.239,7.182-37.173-0.287-48.357-17.93
		c-9.138-14.415-18.699-28.566-27.63-43.107c-6.207-10.106-14.045-14.748-26.483-13.797c-15.502,1.186-31.168,0.087-46.757,0.332
		c-22.054,0.346-39.327-13.823-41.899-34.36c-0.057-0.458-0.444-0.874-0.678-1.31C1.69,100.277,1.69,97.953,1.69,95.629z"/>
</g>
</svg>
