<?xml version="1.0" encoding="utf-8"?>
<!-- Generator: Adobe Illustrator 17.0.0, SVG Export Plug-In . SVG Version: 6.00 Build 0)  -->
<!DOCTYPE svg PUBLIC "-//W3C//DTD SVG 1.1//EN" "http://www.w3.org/Graphics/SVG/1.1/DTD/svg11.dtd">
<svg version="1.1" id="Layer_1" xmlns="http://www.w3.org/2000/svg" xmlns:xlink="http://www.w3.org/1999/xlink" x="0px" y="0px"
	 width="512px" height="512px" viewBox="0 0 512 512" enable-background="new 0 0 512 512" xml:space="preserve">
<g>
	<line fill="none" stroke="#B35047" x1="32" y1="0" x2="32" y2="512"/>
	<line fill="none" stroke="#B35047" x1="64" y1="0" x2="64" y2="512"/>
	<line fill="none" stroke="#B35047" x1="96" y1="0" x2="96" y2="512"/>
	<line fill="none" stroke="#B35047" x1="128" y1="0" x2="128" y2="512"/>
	<line fill="none" stroke="#B35047" x1="160" y1="0" x2="160" y2="512"/>
	<line fill="none" stroke="#B35047" x1="192" y1="0" x2="192" y2="512"/>
	<line fill="none" stroke="#B35047" x1="224" y1="0" x2="224" y2="512"/>
	<line fill="none" stroke="#B35047" x1="256" y1="0" x2="256" y2="512"/>
	<line fill="none" stroke="#B35047" x1="288" y1="0" x2="288" y2="512"/>
	<line fill="none" stroke="#B35047" x1="320" y1="0" x2="320" y2="512"/>
	<line fill="none" stroke="#B35047" x1="352" y1="0" x2="352" y2="512"/>
	<line fill="none" stroke="#B35047" x1="384" y1="0" x2="384" y2="512"/>
	<line fill="none" stroke="#B35047" x1="416" y1="0" x2="416" y2="512"/>
	<line fill="none" stroke="#B35047" x1="448" y1="0" x2="448" y2="512"/>
	<line fill="none" stroke="#B35047" x1="480" y1="0" x2="480" y2="512"/>
	<line fill="none" stroke="#B35047" x1="0" y1="32" x2="512" y2="32"/>
	<line fill="none" stroke="#B35047" x1="0" y1="64" x2="512" y2="64"/>
	<line fill="none" stroke="#B35047" x1="0" y1="96" x2="512" y2="96"/>
	<line fill="none" stroke="#B35047" x1="0" y1="128" x2="512" y2="128"/>
	<line fill="none" stroke="#B35047" x1="0" y1="160" x2="512" y2="160"/>
	<line fill="none" stroke="#B35047" x1="0" y1="192" x2="512" y2="192"/>
	<line fill="none" stroke="#B35047" x1="0" y1="224" x2="512" y2="224"/>
	<line fill="none" stroke="#B35047" x1="0" y1="256" x2="512" y2="256"/>
	<line fill="none" stroke="#B35047" x1="0" y1="288" x2="512" y2="288"/>
	<line fill="none" stroke="#B35047" x1="0" y1="320" x2="512" y2="320"/>
	<line fill="none" stroke="#B35047" x1="0" y1="352" x2="512" y2="352"/>
	<line fill="none" stroke="#B35047" x1="0" y1="384" x2="512" y2="384"/>
	<line fill="none" stroke="#B35047" x1="0" y1="416" x2="512" y2="416"/>
	<line fill="none" stroke="#B35047" x1="0" y1="448" x2="512" y2="448"/>
	<line fill="none" stroke="#B35047" x1="0" y1="480" x2="512" y2="480"/>
	<rect x="0" fill="none" stroke="#B35047" width="512" height="512"/>
</g>
<g display="none">
	<path fill="#FFFFFF" d="M132.508,511c-43.828,0-87.656,0-131.484,0c0-170,0-340,0-510c13.281,0,26.562,0,39.844,0
		c-0.08,1.812-0.274,3.627-0.223,5.435c0.423,15.097,0.506,30.215,1.431,45.282c1.605,26.158,3.488,52.306,5.759,78.414
		c1.127,12.956,1.637,12.712,14.635,12.979c4.101,0.084,5.738-1.394,7.094-5.027c11.817-31.67,23.874-63.251,35.692-94.921
		c1.227-3.287,2.687-4.538,6.324-4.517c28.219,0.166,56.44,0.088,84.66,0.103c1.591,0.001,3.181,0.166,4.886,0.26
		c0.081,1.784,0.192,3.093,0.192,4.401c0.008,141.433-0.006,282.867,0.082,424.3c0.002,3.693-1.068,4.86-4.762,5.738
		c-20.125,4.788-40.133,10.063-60.201,15.093c-3.042,0.763-4.377,2.244-4.197,5.542C132.546,499.711,132.441,505.36,132.508,511z"/>
	<path fill="#FFFFFF" d="M471.18,1c13.272,0,26.543,0,39.796,0c0,170,0,340,0,510c-43.844,0-87.64,0-131.436,0
		c0.068-5.306-0.146-10.635,0.295-15.91c0.346-4.138-1.276-6.016-5.105-6.964c-19.267-4.766-38.456-9.858-57.787-14.34
		c-4.326-1.003-5.466-2.501-5.462-6.759c0.108-140.879,0.089-281.759,0.089-422.639c0-1.754,0-3.508,0-5.652c2.165,0,3.628,0,5.09,0
		c27.877,0,55.755,0.079,83.631-0.092c3.836-0.023,5.325,1.314,6.617,4.815c11.699,31.699,23.668,63.299,35.428,94.976
		c1.19,3.206,2.571,4.685,6.318,4.662c15.338-0.092,15.482,0.066,16.487-15.425c2.008-30.951,3.997-61.906,5.666-92.876
		C471.413,23.558,471.083,12.267,471.18,1z"/>
	<path display="inline" d="M471.27,1c-0.097,11.267,0.233,22.558-0.373,33.798c-1.669,30.971-3.658,61.925-5.666,92.876
		c-1.005,15.491-1.149,15.333-16.487,15.425c-3.747,0.023-5.128-1.456-6.318-4.662c-11.76-31.677-23.729-63.276-35.428-94.976
		c-1.292-3.501-2.781-4.839-6.617-4.815c-27.876,0.17-55.754,0.091-83.631,0.092c-1.463,0-2.925,0-5.09,0c0,2.144,0,3.898,0,5.652
		c0,140.88,0.018,281.759-0.089,422.639c-0.003,4.258,1.136,5.756,5.462,6.759c19.331,4.482,38.52,9.574,57.787,14.34
		c3.829,0.947,5.451,2.825,5.105,6.964c-0.441,5.275-0.227,10.604-0.295,15.91c-82.344,0-164.687,0-247.031,0
		c-0.068-5.64,0.038-11.289-0.269-16.916c-0.18-3.298,1.155-4.78,4.197-5.542c20.068-5.031,40.076-10.306,60.201-15.093
		c3.693-0.879,4.764-2.046,4.762-5.738c-0.088-141.433-0.074-282.867-0.082-424.3c0-1.308-0.111-2.617-0.192-4.401
		c-1.705-0.095-3.295-0.259-4.886-0.26c-28.22-0.016-56.441,0.063-84.66-0.103c-3.638-0.021-5.098,1.23-6.324,4.517
		c-11.818,31.67-23.875,63.251-35.692,94.921c-1.356,3.633-2.993,5.112-7.094,5.027c-12.998-0.267-13.508-0.024-14.635-12.979
		c-2.27-26.108-4.153-52.256-5.759-78.414C41.24,36.65,41.157,21.531,40.734,6.435C40.683,4.627,40.877,2.812,40.957,1
		C184.395,1,327.832,1,471.27,1z"/>
</g>
<image display="none" overflow="visible" width="512" height="512" xlink:href="../../../Knowledge/Icon/[+++++] (Full) Windows 8 Icons [icons8]/Image_Edition_Tools/screenshot/screenshot-512.png"  transform="matrix(0.0406 0 0 0.0406 572 39)">
</image>
<image display="none" overflow="visible" width="512" height="512" xlink:href="../../../Knowledge/Icon/[+++++] (Full) Windows 8 Icons [icons8]/Image_Edition_Tools/pencil/pencil-512.png"  transform="matrix(0.0406 0 0 0.0406 572 39)">
</image>
<image display="none" overflow="visible" width="512" height="512" xlink:href="../../../Knowledge/Icon/[+++++] (Full) Windows 8 Icons [icons8]/Image_Edition_Tools/eraser/eraser-512.png"  transform="matrix(0.0406 0 0 0.0406 572 39)">
</image>
<image display="none" overflow="visible" width="512" height="512" xlink:href="../../../Knowledge/Icon/[+++++] (Full) Windows 8 Icons [icons8]/Image_Edition_Tools/expand/expand-512_.png"  transform="matrix(0.0406 0 0 0.0406 572 39)">
</image>
<image display="none" overflow="visible" width="512" height="512" xlink:href="../../../Knowledge/Icon/[+++++] (Full) Windows 8 Icons [icons8]/Image_Edition_Tools/collapse/collapse-512_.png"  transform="matrix(0.0406 0 0 0.0406 572 39)">
</image>
<g display="none">
	<path fill="#FFFFFF" d="M582.766,59.841c-3.574,0-7.148,0-10.724,0c0-6.931,0-13.862,0-20.796c6.928,0,13.857,0,20.792,0
		c0,6.929,0,13.863,0,20.796c-3.286,0-6.576,0-9.865,0c0.072-0.014,0.144-0.03,0.217-0.041c0.474-0.072,0.953-0.118,1.421-0.219
		c0.733-0.158,1.119-0.783,0.956-1.488c-0.138-0.597-0.775-0.965-1.442-0.848c-0.452,0.079-0.907,0.142-1.363,0.2
		c-0.501,0.063-0.865,0.307-1.034,0.787c-0.175,0.495-0.068,0.951,0.338,1.282C582.255,59.672,582.528,59.735,582.766,59.841z
		 M579.74,43.571c0.663-0.288,1.341-0.443,2.035-0.504c1.966-0.17,3.746,0.349,5.245,1.627c2.107,1.796,2.94,4.1,2.505,6.845
		c-0.115,0.723,0.28,1.344,0.976,1.462c0.628,0.107,1.243-0.309,1.373-1.022c0.189-1.042,0.233-2.09,0.055-3.13
		c-0.603-3.533-2.551-6.061-5.841-7.466c-2.533-1.082-5.102-0.981-7.621,0.139c-0.144,0.064-0.208,0.034-0.293-0.085
		c-0.453-0.632-0.914-1.259-1.374-1.887c-0.06-0.082-0.121-0.164-0.193-0.235c-0.26-0.257-0.575-0.221-0.767,0.087
		c-0.057,0.091-0.099,0.192-0.14,0.292c-0.606,1.446-1.211,2.893-1.815,4.339c-0.336,0.804-0.678,1.607-1.003,2.415
		c-0.215,0.534,0.041,0.852,0.613,0.788c0.027-0.003,0.053-0.01,0.08-0.013c1.004-0.143,2.008-0.285,3.012-0.428
		c1.385-0.198,2.771-0.392,4.156-0.596c0.529-0.078,0.629-0.326,0.333-0.78c-0.055-0.085-0.116-0.167-0.175-0.249
		c-0.343-0.47-0.686-0.94-1.029-1.411C579.829,43.7,579.788,43.64,579.74,43.571z M588.001,57.777
		c0.097-0.027,0.29-0.042,0.439-0.131c0.665-0.4,1.182-0.966,1.601-1.607c0.349-0.533,0.205-1.154-0.289-1.553
		c-0.44-0.355-1.101-0.33-1.537,0.093c-0.411,0.399-0.804,0.819-1.182,1.25c-0.336,0.383-0.376,0.831-0.154,1.285
		C587.084,57.538,587.445,57.748,588.001,57.777z M580.125,57.85c0.018-0.008,0.036-0.015,0.054-0.023
		c-0.094-0.218-0.15-0.465-0.292-0.646c-0.143-0.182-0.361-0.315-0.564-0.44c-0.419-0.258-0.841-0.514-1.278-0.739
		c-0.486-0.251-1.086-0.083-1.428,0.365c-0.33,0.432-0.34,1.073,0.037,1.455c0.553,0.561,1.24,0.937,1.98,1.184
		C579.386,59.258,580.147,58.642,580.125,57.85z M574.39,51.407c-0.759-0.04-1.378,0.75-1.144,1.518
		c0.17,0.559,0.411,1.098,0.641,1.637c0.104,0.245,0.287,0.441,0.535,0.562c0.494,0.24,1.031,0.157,1.402-0.215
		c0.343-0.343,0.422-0.899,0.216-1.374c-0.18-0.414-0.348-0.833-0.505-1.257C575.335,51.735,574.954,51.436,574.39,51.407z"/>
	<path display="inline" d="M264.432,511c-5.85-2.612-12.578-4.148-17.368-8.058c-9.992-8.157-12.628-19.379-8.321-31.585
		c4.176-11.833,13.153-17.834,25.492-19.395c11.223-1.419,22.44-2.98,33.58-4.929c16.432-2.875,32.13,6.184,35.534,20.905
		c4.018,17.377-5.495,32.773-23.548,36.664c-11.524,2.484-23.336,3.63-35.016,5.398c-1.792,0.271-3.566,0.663-5.349,0.999
		C267.769,511,266.1,511,264.432,511z"/>
	<path display="inline" d="M189.862,110.067c1.194,1.705,2.2,3.193,3.257,4.644c8.444,11.59,16.902,23.17,25.345,34.761
		c1.472,2.021,2.963,4.034,4.325,6.129c7.279,11.193,4.829,17.299-8.217,19.228c-34.116,5.044-68.271,9.826-102.413,14.698
		c-24.741,3.53-49.486,7.036-74.229,10.556c-0.66,0.094-1.311,0.257-1.972,0.331c-14.102,1.587-20.405-6.258-15.109-19.417
		c8.021-19.928,16.441-39.695,24.722-59.519C60.462,85.829,75.369,50.185,90.296,14.55c1.027-2.453,2.063-4.945,3.461-7.191
		c4.726-7.598,12.5-8.475,18.905-2.153c1.768,1.745,3.279,3.776,4.754,5.788c11.331,15.47,22.695,30.916,33.864,46.502
		c2.088,2.914,3.678,3.664,7.226,2.087c62.096-27.601,125.402-30.086,187.811-3.429c81.053,34.621,129.062,96.913,143.925,183.971
		c4.377,25.638,3.301,51.459-1.36,77.136c-3.188,17.567-18.353,27.82-33.827,25.19c-17.16-2.916-26.891-18.207-24.062-36.028
		c10.735-67.637-9.797-124.408-61.721-168.677c-36.938-31.493-80.813-44.288-129.251-40.089
		C222.917,99.141,206.198,102.981,189.862,110.067z"/>
	<path display="inline" d="M393.447,460.157c-13.703-0.724-22.589-5.903-27.697-16.34c-5.466-11.169-4.471-22.227,3.807-31.654
		c9.319-10.613,18.997-20.961,29.13-30.794c10.748-10.43,27.046-11.036,37.878-2.299c12.173,9.818,15.726,25.113,7.132,38.259
		c-10.321,15.787-23.047,29.732-39.441,39.597C400.596,459.126,395.826,459.483,393.447,460.157z"/>
	<path display="inline" d="M199.35,461.944c0.542,19.53-18.207,34.701-36.757,28.511c-18.229-6.082-35.159-15.369-48.792-29.183
		c-9.305-9.429-9.044-25.214-0.921-35.864c8.429-11.052,23.212-15.195,35.198-9.006c10.768,5.56,21.175,11.856,31.5,18.219
		c5.004,3.084,10.367,6.347,13.899,10.84c3.494,4.444,4.886,10.541,7.2,15.912C200.235,461.563,199.792,461.753,199.35,461.944z"/>
	<path display="inline" d="M58.03,303.166c13.905,0.73,23.281,8.088,28.223,21.464c3.854,10.43,8.008,20.764,12.434,30.964
		c5.077,11.7,3.13,25.4-5.313,33.858c-9.15,9.166-22.377,11.214-34.557,5.295c-6.101-2.965-10.602-7.814-13.174-13.842
		c-5.666-13.281-11.598-26.557-15.798-40.33C24.074,321.649,39.322,302.183,58.03,303.166z"/>
</g>
<g>
	<path display="none" fill="#FFFFFF" d="M591.134,59.841c-0.989,0-1.977,0-2.966,0c0.267-0.075,0.507-0.194,0.629-0.461
		c0.238-0.521-0.112-1.103-0.688-1.121c-0.561-0.017-1.123-0.006-1.685-0.003c-0.073,0-0.148,0.017-0.22,0.035
		c-0.426,0.111-0.665,0.596-0.518,1.012c0.106,0.3,0.346,0.43,0.613,0.537c-0.975,0-1.95,0-2.925,0
		c0.151-0.082,0.328-0.136,0.447-0.251c0.236-0.228,0.306-0.517,0.175-0.835c-0.132-0.322-0.379-0.489-0.72-0.497
		c-0.467-0.011-0.934-0.013-1.401,0c-0.193,0.005-0.251-0.047-0.251-0.245c0.007-2.153,0.006-4.305,0.001-6.458
		c0-0.169,0.048-0.289,0.168-0.408c1.669-1.662,3.333-3.329,4.999-4.995c0.046-0.046,0.097-0.089,0.159-0.146
		c0.358,0.358,0.706,0.706,1.054,1.055c0.206,0.206,0.407,0.417,0.621,0.614c0.056,0.052,0.161,0.095,0.228,0.078
		c0.052-0.013,0.094-0.122,0.112-0.195c0.029-0.117,0.034-0.241,0.049-0.361c0.185-1.483,0.369-2.966,0.557-4.448
		c0.043-0.341-0.096-0.483-0.435-0.44c-1.389,0.175-2.778,0.348-4.167,0.521c-0.221,0.028-0.444,0.049-0.664,0.087
		c-0.219,0.037-0.258,0.154-0.118,0.323c0.034,0.042,0.075,0.078,0.113,0.117c0.474,0.474,0.948,0.948,1.421,1.422
		c0.051,0.051,0.098,0.105,0.146,0.156c-0.025,0.033-0.036,0.051-0.05,0.065c-1.718,1.719-3.435,3.438-5.157,5.153
		c-0.058,0.058-0.164,0.094-0.248,0.097c-0.331,0.011-0.663,0.005-0.995,0.005c-1.855,0-3.709-0.002-5.564,0.004
		c-0.176,0.001-0.238-0.042-0.23-0.225c0.015-0.338,0.009-0.677,0.003-1.015c-0.004-0.209,0.003-0.423-0.042-0.625
		c-0.096-0.429-0.593-0.67-1.006-0.521c-0.306,0.111-0.445,0.353-0.539,0.637c0-0.989,0-1.977,0-2.966
		c0.083,0.158,0.139,0.341,0.255,0.469c0.22,0.241,0.514,0.29,0.819,0.176c0.323-0.121,0.5-0.367,0.508-0.711
		c0.012-0.467,0.008-0.934,0.004-1.4c-0.001-0.161-0.001-0.327-0.036-0.483c-0.098-0.441-0.59-0.686-1.016-0.534
		c-0.3,0.107-0.429,0.347-0.535,0.616c0-0.989,0-1.977,0-2.966c0.014,0.037,0.031,0.074,0.041,0.112
		c0.086,0.354,0.392,0.607,0.737,0.607c0.38,0.001,0.716-0.24,0.782-0.604c0.03-0.164,0.105-0.198,0.241-0.229
		c0.351-0.079,0.599-0.416,0.582-0.774c-0.022-0.435-0.295-0.654-0.677-0.777c0.989,0,1.977,0,2.966,0
		c-0.267,0.075-0.507,0.194-0.629,0.461c-0.238,0.521,0.112,1.103,0.688,1.121c0.561,0.017,1.123,0.006,1.685,0.003
		c0.073,0,0.148-0.017,0.22-0.035c0.426-0.111,0.666-0.596,0.518-1.012c-0.106-0.3-0.346-0.43-0.613-0.537c0.975,0,1.95,0,2.925,0
		c-0.151,0.081-0.328,0.136-0.446,0.25c-0.235,0.227-0.306,0.515-0.178,0.833c0.13,0.322,0.375,0.491,0.716,0.5
		c0.479,0.012,0.959,0.007,1.438,0.004c0.148-0.001,0.299-0.004,0.442-0.037c0.439-0.102,0.687-0.593,0.534-1.014
		c-0.111-0.305-0.353-0.442-0.636-0.536c0.989,0,1.977,0,2.966,0c-0.158,0.083-0.341,0.139-0.469,0.255
		c-0.241,0.22-0.29,0.514-0.176,0.819c0.121,0.323,0.367,0.5,0.711,0.508c0.467,0.012,0.934,0.008,1.4,0.004
		c0.161-0.001,0.327-0.001,0.483-0.036c0.441-0.098,0.686-0.59,0.534-1.016c-0.107-0.3-0.347-0.429-0.616-0.535
		c0.989,0,1.977,0,2.966,0c-0.031,0.013-0.061,0.03-0.093,0.038c-0.358,0.081-0.618,0.378-0.627,0.72
		c-0.011,0.384,0.235,0.734,0.605,0.802c0.164,0.03,0.198,0.105,0.229,0.241c0.079,0.35,0.416,0.599,0.774,0.581
		c0.435-0.022,0.654-0.295,0.777-0.677c0,0.989,0,1.977,0,2.966c-0.075-0.267-0.194-0.507-0.461-0.629
		c-0.521-0.238-1.103,0.112-1.121,0.688c-0.018,0.561-0.006,1.123-0.003,1.685c0,0.073,0.016,0.148,0.035,0.22
		c0.112,0.426,0.596,0.665,1.012,0.518c0.3-0.106,0.43-0.346,0.537-0.613c0,0.975,0,1.95,0,2.925
		c-0.081-0.151-0.135-0.328-0.25-0.446c-0.227-0.235-0.515-0.306-0.833-0.178c-0.322,0.13-0.492,0.375-0.5,0.716
		c-0.012,0.479-0.007,0.959-0.004,1.438c0.001,0.148,0.004,0.299,0.037,0.442c0.101,0.439,0.593,0.687,1.014,0.534
		c0.305-0.111,0.443-0.353,0.537-0.637c0,0.989,0,1.977,0,2.966c-0.083-0.158-0.139-0.341-0.255-0.469
		c-0.22-0.241-0.514-0.29-0.819-0.176c-0.323,0.121-0.5,0.367-0.508,0.711c-0.012,0.467-0.008,0.934-0.004,1.4
		c0.001,0.161,0.001,0.327,0.036,0.483c0.098,0.441,0.59,0.686,1.016,0.534c0.3-0.107,0.429-0.347,0.535-0.616
		c0,0.989,0,1.977,0,2.966c-0.014-0.037-0.031-0.074-0.041-0.112c-0.086-0.354-0.392-0.607-0.737-0.607
		c-0.38-0.001-0.716,0.24-0.782,0.604c-0.03,0.164-0.105,0.198-0.241,0.229c-0.351,0.079-0.599,0.416-0.582,0.774
		C590.479,59.498,590.752,59.718,591.134,59.841z"/>
	<path d="M1,233.09c2.302-6.981,5.7-12.912,13.209-15.625c10.132-3.661,22.311,2.248,24.669,12.778
		c1.106,4.939,0.938,10.199,1.031,15.32c0.151,8.296,0.297,16.607-0.061,24.891c-0.195,4.497,1.324,5.529,5.634,5.515
		c45.476-0.15,90.952-0.092,136.428-0.092c8.133,0,16.27,0.159,24.394-0.111c2.079-0.069,4.656-0.951,6.089-2.379
		c42.22-42.043,84.324-84.202,126.44-126.349c0.346-0.346,0.603-0.78,1.218-1.591c-1.168-1.254-2.334-2.583-3.581-3.832
		c-11.607-11.63-23.229-23.245-34.844-34.868c-0.938-0.939-1.921-1.844-2.765-2.863c-3.422-4.125-2.46-6.995,2.904-7.913
		c5.388-0.921,10.845-1.445,16.274-2.124c34.055-4.257,68.114-8.485,102.165-12.78c8.326-1.05,11.735,2.442,10.677,10.797
		c-4.603,36.351-9.116,72.714-13.661,109.072c-0.37,2.962-0.491,5.984-1.195,8.864c-0.438,1.795-1.48,4.461-2.745,4.781
		c-1.631,0.413-4.205-0.643-5.589-1.917c-5.246-4.829-10.178-10.001-15.223-15.048c-8.541-8.544-17.08-17.09-25.848-25.863
		c-1.517,1.39-2.749,2.436-3.888,3.575c-40.845,40.837-81.652,81.712-122.578,122.468c-2.948,2.935-4.128,5.854-4.117,10.01
		c0.133,52.779,0.152,105.558-0.02,158.336c-0.016,4.873,1.423,6.147,6.148,6.017c11.442-0.316,22.904-0.253,34.351,0.007
		c8.381,0.19,14.415,4.292,17.662,12.19c3.21,7.807,1.486,14.882-4.299,20.483c-2.913,2.821-7.267,4.155-10.969,6.162
		c-87.324,0-174.648,0-261.973,0C8.967,508.346,3.682,503.005,1,495.063C1,407.738,1,320.414,1,233.09z"/>
	<path d="M278.91,1c6.946,2.306,12.879,5.666,15.603,13.144c3.757,10.318-2.329,22.375-13.085,24.864
		c-3.495,0.809-7.212,0.874-10.831,0.9c-11.753,0.086-23.513,0.198-35.26-0.092c-8.352-0.206-14.358-4.363-17.551-12.255
		c-3.152-7.792-1.412-14.85,4.356-20.426c2.908-2.811,7.252-4.137,10.947-6.135C248.363,1,263.637,1,278.91,1z"/>
	<path d="M511,278.91c-2.3,6.957-5.673,12.884-13.156,15.607c-10.315,3.753-22.369-2.342-24.854-13.099
		c-0.808-3.495-0.872-7.212-0.898-10.83c-0.086-11.752-0.198-23.51,0.092-35.257c0.206-8.353,4.366-14.356,12.258-17.546
		c7.791-3.15,14.849-1.41,20.424,4.358c2.811,2.908,4.137,7.252,6.134,10.946C511,248.363,511,263.637,511,278.91z"/>
	<path d="M161.371,1c6.546,2.637,12.435,5.813,15.04,13.177c3.609,10.201-2.265,22.077-12.708,24.81
		c-1.753,0.459-3.586,0.856-5.383,0.864c-13.769,0.064-27.548,0.353-41.304-0.075c-14.122-0.44-22.716-14.709-16.879-27.482
		c2.991-6.545,8.869-9.445,15.414-11.294C130.824,1,146.098,1,161.371,1z"/>
	<path d="M511,161.371c-2.637,6.546-5.813,12.435-13.177,15.04c-10.201,3.609-22.077-2.265-24.81-12.708
		c-0.459-1.753-0.856-3.586-0.864-5.383c-0.064-13.769-0.353-27.548,0.075-41.304c0.44-14.122,14.709-22.716,27.482-16.879
		c6.545,2.991,9.445,8.869,11.294,15.414C511,130.824,511,146.098,511,161.371z"/>
	<path d="M350.629,511c-6.546-2.637-12.435-5.813-15.04-13.177c-3.609-10.201,2.265-22.077,12.708-24.81
		c1.753-0.459,3.586-0.856,5.383-0.864c13.769-0.064,27.548-0.353,41.304,0.075c14.122,0.44,22.716,14.709,16.879,27.482
		c-2.991,6.546-8.87,9.445-15.414,11.294C381.176,511,365.902,511,350.629,511z"/>
	<path d="M397.445,1c6.579,2.582,12.474,5.752,15.098,13.108c3.725,10.441-2.291,22.502-13.1,24.912
		c-3.829,0.854-7.892,0.859-11.851,0.889c-11.446,0.086-22.898,0.186-34.338-0.103c-8.429-0.213-14.469-4.539-17.427-12.465
		c-2.79-7.477-1.596-14.675,4.31-20.078c3.125-2.858,7.614-4.224,11.488-6.264C366.898,1,382.172,1,397.445,1z"/>
	<path d="M1,114.555c2.582-6.579,5.752-12.474,13.108-15.098c10.441-3.725,22.502,2.291,24.912,13.1
		c0.854,3.829,0.859,7.892,0.889,11.851c0.086,11.446,0.186,22.898-0.103,34.338c-0.213,8.429-4.539,14.469-12.465,17.427
		c-7.477,2.791-14.675,1.596-20.078-4.31C4.405,168.738,3.04,164.248,1,160.375C1,145.102,1,129.828,1,114.555z"/>
	<path d="M511,397.445c-2.582,6.579-5.752,12.474-13.108,15.098c-10.436,3.723-22.503-2.296-24.912-13.1
		c-0.854-3.829-0.859-7.892-0.889-11.851c-0.086-11.446-0.186-22.898,0.103-34.338c0.212-8.429,4.539-14.469,12.465-17.427
		c7.477-2.791,14.675-1.596,20.078,4.31c2.858,3.125,4.224,7.614,6.264,11.488C511,366.898,511,382.172,511,397.445z"/>
	<path d="M42.836,1c9.369,3.009,16.062,8.394,16.591,19.053c0.436,8.781-5.663,17.052-14.26,18.987
		c-3.336,0.751-5.176,1.607-5.911,5.618c-1.638,8.944-9.875,14.84-19.184,14.821c-8.454-0.017-15.964-6.223-18.073-14.891
		C1.77,43.647,1.338,42.755,1,41.84c0-8.301,0-16.602,0-24.902C4.207,8.509,9.833,2.803,18.93,1C26.898,1,34.867,1,42.836,1z"/>
	<path d="M511,42.836c-3.008,9.368-8.393,16.06-19.05,16.591c-8.78,0.437-17.051-5.661-18.989-14.254
		c-0.751-3.33-1.595-5.177-5.611-5.916c-9.09-1.673-15.105-10.25-14.843-19.67c0.233-8.394,6.597-15.68,15.381-17.665
		c0.787-0.178,1.516-0.608,2.272-0.922c8.301,0,16.602,0,24.902,0C503.481,4.215,509.22,9.813,511,18.93
		C511,26.898,511,34.867,511,42.836z"/>
	<path d="M469.164,511c-9.369-3.009-16.061-8.394-16.591-19.053c-0.436-8.781,5.663-17.052,14.26-18.987
		c3.337-0.751,5.176-1.607,5.91-5.618c1.638-8.944,9.875-14.84,19.184-14.821c8.454,0.017,15.964,6.223,18.073,14.891
		c0.229,0.941,0.661,1.833,0.999,2.748c0,8.301,0,16.602,0,24.902c-3.207,8.429-8.833,14.135-17.93,15.938
		C485.102,511,477.133,511,469.164,511z"/>
	<path display="none" fill="#FFFFFF" d="M572.772,39.041c-0.371,0.074-0.6,0.306-0.731,0.65c0-0.217,0-0.433,0-0.65
		C572.284,39.041,572.528,39.041,572.772,39.041z"/>
	<path display="none" fill="#FFFFFF" d="M592.841,39.772c-0.073-0.372-0.307-0.6-0.65-0.731c0.217,0,0.433,0,0.65,0
		C592.841,39.284,592.841,39.528,592.841,39.772z"/>
	<path display="none" fill="#FFFFFF" d="M592.109,59.841c0.371-0.074,0.6-0.306,0.731-0.65c0,0.217,0,0.433,0,0.65
		C592.597,59.841,592.353,59.841,592.109,59.841z"/>
	<path display="none" fill="#FFFFFF" d="M572.041,59.191c0.109,0.324,0.325,0.542,0.65,0.65c-0.217,0-0.433,0-0.65,0
		C572.041,59.624,572.041,59.407,572.041,59.191z"/>
</g>
</svg>
