<?xml version="1.0" encoding="utf-8"?>
<!-- Generator: Adobe Illustrator 17.0.0, SVG Export Plug-In . SVG Version: 6.00 Build 0)  -->
<!DOCTYPE svg PUBLIC "-//W3C//DTD SVG 1.1//EN" "http://www.w3.org/Graphics/SVG/1.1/DTD/svg11.dtd">
<svg version="1.1" id="Layer_1" xmlns="http://www.w3.org/2000/svg" xmlns:xlink="http://www.w3.org/1999/xlink" x="0px" y="0px"
	 width="512px" height="512px" viewBox="0 0 512 512" enable-background="new 0 0 512 512" xml:space="preserve">
<g display="none">
	<path fill="#FFFFFF" d="M609.841,63.839c-6.931,0-13.861,0-20.796,0c0-6.928,0-13.857,0-20.792c6.929,0,13.863,0,20.796,0
		C609.841,49.975,609.841,56.906,609.841,63.839z M599.437,56.168c0.095,0.122,0.139,0.192,0.196,0.249
		c1.306,1.308,2.613,2.615,3.92,3.921c0.423,0.423,0.853,0.424,1.274,0.005c0.499-0.497,0.997-0.995,1.494-1.493
		c0.449-0.449,0.448-0.866-0.004-1.318c-1.307-1.307-2.614-2.614-3.92-3.922c-0.055-0.055-0.107-0.113-0.183-0.193
		c0.078-0.063,0.14-0.106,0.192-0.158c1.313-1.311,2.625-2.622,3.936-3.934c0.419-0.419,0.418-0.855-0.002-1.275
		c-0.493-0.494-0.987-0.985-1.481-1.478c-0.465-0.464-0.87-0.466-1.33-0.005c-1.307,1.307-2.614,2.613-3.922,3.92
		c-0.052,0.052-0.106,0.101-0.168,0.159c-0.062-0.059-0.116-0.107-0.168-0.159c-1.302-1.302-2.604-2.604-3.907-3.906
		c-0.48-0.48-0.874-0.478-1.359,0.006c-0.479,0.478-0.958,0.957-1.437,1.436c-0.461,0.462-0.462,0.871-0.001,1.332
		c1.302,1.302,2.604,2.604,3.906,3.907c0.056,0.056,0.109,0.115,0.171,0.18c-0.062,0.064-0.111,0.118-0.163,0.17
		c-1.316,1.317-2.633,2.633-3.949,3.95c-0.411,0.412-0.412,0.85-0.003,1.26c0.497,0.498,0.997,0.995,1.496,1.492
		c0.462,0.46,0.867,0.458,1.331-0.006c1.303-1.302,2.606-2.603,3.907-3.906C599.318,56.35,599.354,56.282,599.437,56.168z"/>
	<path display="inline" d="M599.437,56.168c-0.082,0.114-0.119,0.182-0.171,0.234c-1.301,1.303-2.604,2.605-3.907,3.906
		c-0.464,0.464-0.87,0.465-1.331,0.006c-0.499-0.497-0.998-0.993-1.496-1.492c-0.409-0.41-0.409-0.848,0.003-1.26
		c1.316-1.317,2.633-2.633,3.949-3.95c0.052-0.052,0.102-0.106,0.163-0.17c-0.062-0.065-0.115-0.124-0.171-0.18
		c-1.302-1.302-2.604-2.604-3.906-3.907c-0.461-0.461-0.46-0.87,0.001-1.332c0.479-0.479,0.958-0.957,1.437-1.436
		c0.485-0.485,0.878-0.487,1.359-0.006c1.302,1.302,2.604,2.604,3.907,3.906c0.052,0.052,0.106,0.1,0.168,0.159
		c0.062-0.059,0.116-0.108,0.168-0.159c1.307-1.307,2.614-2.613,3.922-3.92c0.46-0.46,0.865-0.458,1.33,0.005
		c0.494,0.492,0.988,0.984,1.481,1.478c0.419,0.42,0.421,0.856,0.002,1.275c-1.311,1.312-2.623,2.624-3.936,3.934
		c-0.052,0.052-0.115,0.095-0.192,0.158c0.076,0.08,0.128,0.138,0.183,0.193c1.307,1.307,2.614,2.614,3.92,3.922
		c0.451,0.452,0.453,0.869,0.004,1.318c-0.498,0.498-0.995,0.996-1.494,1.493c-0.421,0.419-0.85,0.418-1.274-0.005
		c-1.308-1.306-2.615-2.613-3.92-3.921C599.576,56.36,599.532,56.29,599.437,56.168z"/>
</g>
<g>
	<line fill="none" stroke="#B35047" x1="32" y1="0" x2="32" y2="512"/>
	<line fill="none" stroke="#B35047" x1="64" y1="0" x2="64" y2="512"/>
	<line fill="none" stroke="#B35047" x1="96" y1="0" x2="96" y2="512"/>
	<line fill="none" stroke="#B35047" x1="128" y1="0" x2="128" y2="512"/>
	<line fill="none" stroke="#B35047" x1="160" y1="0" x2="160" y2="512"/>
	<line fill="none" stroke="#B35047" x1="192" y1="0" x2="192" y2="512"/>
	<line fill="none" stroke="#B35047" x1="224" y1="0" x2="224" y2="512"/>
	<line fill="none" stroke="#B35047" x1="256" y1="0" x2="256" y2="512"/>
	<line fill="none" stroke="#B35047" x1="288" y1="0" x2="288" y2="512"/>
	<line fill="none" stroke="#B35047" x1="320" y1="0" x2="320" y2="512"/>
	<line fill="none" stroke="#B35047" x1="352" y1="0" x2="352" y2="512"/>
	<line fill="none" stroke="#B35047" x1="384" y1="0" x2="384" y2="512"/>
	<line fill="none" stroke="#B35047" x1="416" y1="0" x2="416" y2="512"/>
	<line fill="none" stroke="#B35047" x1="448" y1="0" x2="448" y2="512"/>
	<line fill="none" stroke="#B35047" x1="480" y1="0" x2="480" y2="512"/>
	<line fill="none" stroke="#B35047" x1="0" y1="32" x2="512" y2="32"/>
	<line fill="none" stroke="#B35047" x1="0" y1="64" x2="512" y2="64"/>
	<line fill="none" stroke="#B35047" x1="0" y1="96" x2="512" y2="96"/>
	<line fill="none" stroke="#B35047" x1="0" y1="128" x2="512" y2="128"/>
	<line fill="none" stroke="#B35047" x1="0" y1="160" x2="512" y2="160"/>
	<line fill="none" stroke="#B35047" x1="0" y1="192" x2="512" y2="192"/>
	<line fill="none" stroke="#B35047" x1="0" y1="224" x2="512" y2="224"/>
	<line fill="none" stroke="#B35047" x1="0" y1="256" x2="512" y2="256"/>
	<line fill="none" stroke="#B35047" x1="0" y1="288" x2="512" y2="288"/>
	<line fill="none" stroke="#B35047" x1="0" y1="320" x2="512" y2="320"/>
	<line fill="none" stroke="#B35047" x1="0" y1="352" x2="512" y2="352"/>
	<line fill="none" stroke="#B35047" x1="0" y1="384" x2="512" y2="384"/>
	<line fill="none" stroke="#B35047" x1="0" y1="416" x2="512" y2="416"/>
	<line fill="none" stroke="#B35047" x1="0" y1="448" x2="512" y2="448"/>
	<line fill="none" stroke="#B35047" x1="0" y1="480" x2="512" y2="480"/>
	<rect x="0" fill="none" stroke="#B35047" width="512" height="512"/>
</g>
<image display="none" overflow="visible" width="512" height="512" xlink:href="../../../Knowledge/Icon/[+++++] (Full) Windows 8 Icons [icons8]/User_Role/administrator/administrator-512.png"  transform="matrix(0.0406 0 0 0.0406 588 41)">
</image>
<g>
	<path display="none" fill="#FFFFFF" d="M608.834,61.841c-6.929,0-13.86,0-20.793,0c0-6.931,0-13.862,0-20.796
		c6.928,0,13.858,0,20.793,0C608.834,47.974,608.834,54.907,608.834,61.841z M599.975,61.413c-0.123-0.106-0.22-0.189-0.315-0.272
		c-0.791-0.693-1.368-1.536-1.706-2.528c-0.588-1.729-0.418-3.396,0.48-4.988c0.039-0.069,0.082-0.147,0.084-0.222
		c0.009-0.296,0.119-0.545,0.284-0.787c0.39-0.572,0.717-1.177,0.899-1.852c0.019-0.072,0.077-0.141,0.133-0.195
		c0.681-0.652,1.025-1.437,0.925-2.386c-0.023-0.222-0.114-0.436-0.169-0.654c-0.012-0.048-0.013-0.104-0.002-0.152
		c0.242-1.066,0.254-2.138,0.021-3.201c-0.095-0.435-0.269-0.868-0.485-1.258c-0.389-0.702-1.027-0.992-1.825-0.908
		c-0.167,0.018-0.277-0.004-0.395-0.149c-0.129-0.157-0.309-0.288-0.492-0.381c-1.55-0.789-3.64-0.367-4.611,1.536
		c-0.721,1.413-0.928,2.883-0.43,4.419c0.014,0.043,0.01,0.127-0.014,0.141c-0.193,0.11-0.19,0.303-0.209,0.48
		c-0.067,0.64,0.108,1.233,0.37,1.806c0.121,0.266,0.304,0.475,0.568,0.614c0.067,0.035,0.133,0.119,0.152,0.192
		c0.192,0.728,0.502,1.398,0.963,1.995c0.049,0.064,0.105,0.13,0.129,0.204c0.154,0.49-0.293,1.215-0.794,1.345
		c-0.621,0.161-1.246,0.316-1.848,0.534c-1.038,0.375-2.004,0.889-2.788,1.69c-0.512,0.523-0.827,1.129-0.783,1.889
		c0.02,0.344,0.001,0.69,0.005,1.036c0.001,0.101,0.007,0.203,0.028,0.302c0.098,0.456,0.426,0.726,0.799,0.947
		c0.59,0.349,1.244,0.523,1.907,0.659c1.17,0.239,2.356,0.329,3.547,0.379C596.255,61.726,598.1,61.72,599.975,61.413z
		 M608.679,56.634c-0.007-2.786-2.259-5.034-5.041-5.031c-2.783,0.002-5.033,2.252-5.036,5.036c-0.003,2.79,2.266,5.054,5.051,5.041
		C606.443,61.667,608.686,59.415,608.679,56.634z"/>
	<path d="M295.094,504.132c-46.452,7.618-92.148,7.761-137.957,5.822c-29.509-1.25-58.894-3.47-87.877-9.4
		c-16.445-3.365-32.647-7.676-47.252-16.331c-9.252-5.483-17.375-12.175-19.805-23.472c-0.523-2.43-0.677-4.974-0.701-7.469
		c-0.083-8.553,0.376-17.13-0.119-25.655C0.29,408.792,8.1,393.796,20.789,380.828c19.42-19.848,43.354-32.562,69.064-41.86
		c14.906-5.391,30.397-9.25,45.772-13.23c12.414-3.214,23.475-21.189,19.668-33.316c-0.577-1.839-1.97-3.477-3.186-5.053
		c-11.427-14.807-19.1-31.391-23.865-49.431c-0.482-1.824-2.114-3.884-3.778-4.76c-6.55-3.448-11.069-8.631-14.074-15.212
		c-6.482-14.196-10.825-28.887-9.17-44.729c0.458-4.381,0.395-9.161,5.169-11.885c0.608-0.347,0.699-2.434,0.354-3.496
		c-12.347-38.053-7.217-74.471,10.654-109.48c24.058-47.131,75.833-57.592,114.232-38.043c4.53,2.306,8.995,5.561,12.18,9.45
		c2.938,3.586,5.655,4.127,9.789,3.692c19.761-2.08,35.565,5.092,45.199,22.487c5.357,9.672,9.653,20.393,12.012,31.17
		c5.76,26.32,5.474,52.896-0.528,79.295c-0.271,1.194-0.24,2.571,0.059,3.761c1.36,5.419,3.614,10.722,4.188,16.209
		c2.461,23.513-6.055,42.961-22.925,59.107c-1.385,1.326-2.801,3.041-3.282,4.824c-4.508,16.725-12.611,31.71-22.273,45.879
		c-4.089,5.997-6.82,12.177-7.04,19.506c-0.056,1.856-1.13,3.793-2.089,5.495c-22.235,39.439-26.463,80.724-11.886,123.562
		c8.36,24.567,22.665,45.463,42.255,62.621C289.652,499.461,292.044,501.5,295.094,504.132z"/>
	<path d="M510.718,385.749c0.173,68.901-55.38,124.679-124.494,124.999c-68.996,0.319-125.184-55.758-125.122-124.874
		c0.062-68.968,55.792-124.706,124.746-124.764C454.759,261.052,510.545,316.735,510.718,385.749z M372.348,405.909
		c-6.817-6.856-13.238-13.463-19.827-19.9c-6.314-6.168-13.117-6.135-19.493-0.089c-2.19,2.076-4.285,4.253-6.398,6.409
		c-7.456,7.611-7.464,13.649,0.094,21.256c11.703,11.778,23.432,23.53,35.206,35.237c10.793,10.732,20.385,9.752,28.963-2.891
		c20.891-30.793,41.771-61.594,62.653-92.394c0.752-1.109,1.54-2.202,2.193-3.369c3.557-6.35,2.4-12.417-3.362-16.911
		c-2.506-1.954-5.224-3.64-7.863-5.421c-9.48-6.401-15.572-5.251-21.982,4.195c-15.624,23.024-31.229,46.061-46.845,69.089
		C374.674,402.612,373.625,404.079,372.348,405.909z"/>
	<path display="none" fill="#FFFFFF" d="M603.093,57.448c0.052-0.074,0.094-0.133,0.135-0.193c0.63-0.93,1.26-1.86,1.891-2.789
		c0.259-0.381,0.505-0.428,0.887-0.169c0.107,0.072,0.216,0.14,0.317,0.219c0.233,0.181,0.279,0.426,0.136,0.683
		c-0.026,0.047-0.058,0.091-0.089,0.136c-0.843,1.243-1.686,2.487-2.529,3.73c-0.346,0.51-0.733,0.55-1.169,0.117
		c-0.475-0.473-0.949-0.947-1.421-1.422c-0.305-0.307-0.305-0.551-0.004-0.858c0.085-0.087,0.17-0.175,0.258-0.259
		c0.257-0.244,0.532-0.245,0.787,0.004C602.559,56.904,602.818,57.171,603.093,57.448z"/>
</g>
<g display="none">
	<path fill="#FFFFFF" d="M588.041,41.041c6.933,0,13.867,0,20.8,0c0,6.933,0,13.867,0,20.8c-6.933,0-13.867,0-20.8,0
		C588.041,54.907,588.041,47.974,588.041,41.041z M593.974,47.459c-0.088,0.199-0.176,0.328-0.203,0.468
		c-0.128,0.675,0.071,1.299,0.336,1.907c0.122,0.281,0.312,0.503,0.591,0.646c0.061,0.032,0.12,0.11,0.138,0.177
		c0.2,0.755,0.526,1.446,1.009,2.063c0.04,0.051,0.073,0.114,0.09,0.177c0.133,0.498-0.302,1.203-0.808,1.31
		c-0.803,0.169-1.585,0.403-2.336,0.733c-0.854,0.376-1.657,0.833-2.309,1.516c-0.411,0.43-0.727,0.918-0.753,1.532
		c-0.022,0.507-0.018,1.015-0.001,1.522c0.012,0.342,0.183,0.629,0.455,0.828c0.249,0.182,0.513,0.357,0.795,0.479
		c1.081,0.47,2.238,0.627,3.397,0.724c2.059,0.171,4.122,0.238,6.184,0.01c1.259-0.139,2.503-0.359,3.713-0.743
		c0.555-0.176,1.099-0.382,1.584-0.715c0.326-0.224,0.54-0.498,0.502-0.927c-0.024-0.275-0.015-0.555-0.003-0.832
		c0.035-0.754-0.263-1.367-0.775-1.895c-0.781-0.805-1.744-1.323-2.782-1.697c-0.608-0.219-1.24-0.38-1.868-0.537
		c-0.7-0.175-0.985-0.69-0.694-1.322c0.048-0.103,0.122-0.194,0.185-0.29c0.358-0.545,0.665-1.113,0.858-1.74
		c0.034-0.109,0.096-0.224,0.177-0.303c0.768-0.748,1.069-1.654,0.861-2.698c-0.055-0.274-0.152-0.527-0.061-0.805
		c0.002-0.007-0.014-0.02,0.002,0.002c-2.813,0.683-5.603,0.685-8.417,0.001C593.89,47.199,593.943,47.363,593.974,47.459z
		 M598.074,41.189c-0.639,0.76-1.26,1.493-1.873,2.233c-0.106,0.128-0.186,0.167-0.348,0.076c-0.484-0.27-0.981-0.517-1.473-0.772
		c-0.479-0.249-0.959-0.497-1.456-0.754c0.004,0.06,0.002,0.1,0.01,0.138c0.231,1.105,0.479,2.206,0.685,3.315
		c0.064,0.346,0.246,0.511,0.542,0.625c0.638,0.246,1.304,0.345,1.979,0.404c1.447,0.126,2.893,0.122,4.335-0.057
		c0.577-0.072,1.148-0.179,1.676-0.447c0.176-0.089,0.27-0.214,0.309-0.414c0.161-0.822,0.34-1.641,0.511-2.461
		c0.075-0.359,0.147-0.718,0.227-1.108c-0.078,0.039-0.12,0.059-0.162,0.081c-0.942,0.488-1.886,0.975-2.826,1.468
		c-0.126,0.066-0.198,0.057-0.284-0.06c-0.153-0.207-0.323-0.4-0.486-0.599C598.991,42.306,598.541,41.758,598.074,41.189z"/>
	<path display="inline" d="M154.961,156.925c-0.779-2.406-2.093-6.463-3.293-10.168c69.996,17.025,139.362,16.974,209.308-0.02
		c-0.405-0.548,0.001-0.22-0.057-0.045c-2.274,6.926,0.159,13.203,1.516,20.021c5.167,25.974-2.32,48.49-21.409,67.095
		c-2.018,1.967-3.562,4.809-4.404,7.53c-4.818,15.576-12.451,29.719-21.343,43.261c-1.567,2.387-3.417,4.65-4.599,7.218
		c-7.242,15.735-0.158,28.533,17.245,32.883c15.624,3.905,31.322,7.892,46.444,13.347c25.823,9.315,49.761,22.187,69.189,42.208
		c12.733,13.123,20.141,28.374,19.266,47.115c-0.322,6.888-0.541,13.846,0.061,20.696c0.938,10.667-4.393,17.486-12.491,23.046
		c-12.068,8.285-25.597,13.415-39.387,17.791c-30.079,9.544-61.01,15.003-92.322,18.467c-51.263,5.67-102.555,4.008-153.766-0.256
		c-28.83-2.4-57.587-6.316-84.473-18.003c-7.002-3.044-13.573-7.378-19.761-11.913c-6.764-4.958-11.027-12.089-11.321-20.594
		c-0.436-12.606-0.517-25.257,0.021-37.855c0.652-15.268,8.498-27.394,18.719-38.088c16.221-16.971,36.184-28.341,57.424-37.685
		c18.685-8.22,38.143-14.026,58.099-18.237c12.565-2.651,23.379-20.167,20.085-32.562c-0.416-1.564-1.24-3.131-2.241-4.41
		c-12.004-15.327-20.123-32.517-25.096-51.294c-0.446-1.685-1.903-3.627-3.426-4.411c-6.941-3.574-11.645-9.092-14.686-16.069
		c-6.59-15.122-11.522-30.632-8.345-47.417C150.579,165.08,152.763,161.875,154.961,156.925z"/>
	<path display="inline" d="M256.922,1c11.604,14.153,22.788,27.793,33.971,41.433c4.055,4.945,8.296,9.753,12.088,14.892
		c2.146,2.908,3.924,3.144,7.063,1.496c23.366-12.27,46.828-24.359,70.261-36.502c1.032-0.535,2.079-1.039,4.025-2.01
		c-1.987,9.699-3.792,18.636-5.653,27.562c-4.254,20.398-8.69,40.76-12.696,61.205c-0.975,4.977-3.314,8.073-7.684,10.292
		c-13.122,6.664-27.335,9.338-41.68,11.123c-35.857,4.461-71.808,4.54-107.789,1.416c-16.799-1.458-33.354-3.925-49.215-10.049
		c-7.375-2.847-11.883-6.936-13.481-15.546c-5.121-27.583-11.29-54.972-17.032-82.441c-0.195-0.935-0.143-1.922-0.24-3.424
		c12.353,6.399,24.279,12.567,36.196,18.752c12.235,6.35,24.585,12.495,36.623,19.198c4.051,2.256,6.024,1.298,8.664-1.884
		C225.6,38.126,241.038,19.89,256.922,1z"/>
</g>
<g display="none">
	<path fill="#FFFFFF" d="M608.834,61.841c-6.929,0-13.86,0-20.793,0c0-6.931,0-13.862,0-20.796c6.928,0,13.858,0,20.793,0
		C608.834,47.974,608.834,54.907,608.834,61.841z M593.945,47.525c-0.061,0.131-0.146,0.247-0.17,0.375
		c-0.135,0.696,0.067,1.338,0.347,1.964c0.12,0.267,0.305,0.474,0.568,0.613c0.066,0.035,0.128,0.119,0.148,0.193
		c0.199,0.74,0.516,1.421,0.99,2.027c0.045,0.057,0.085,0.124,0.105,0.193c0.139,0.492-0.3,1.193-0.795,1.321
		c-0.62,0.161-1.246,0.317-1.847,0.535c-1.044,0.378-2.017,0.893-2.801,1.704c-0.408,0.422-0.727,0.901-0.756,1.508
		c-0.024,0.52-0.022,1.042-0.005,1.562c0.011,0.334,0.18,0.616,0.445,0.812c0.248,0.184,0.511,0.361,0.792,0.483
		c1.1,0.476,2.276,0.639,3.457,0.729c1.126,0.085,2.257,0.127,3.386,0.142c2.142,0.03,4.252-0.222,6.312-0.83
		c0.61-0.18,1.207-0.401,1.738-0.764c0.327-0.223,0.537-0.501,0.498-0.929c-0.024-0.269-0.016-0.542-0.002-0.812
		c0.038-0.769-0.266-1.392-0.792-1.928c-0.775-0.791-1.725-1.303-2.749-1.675c-0.614-0.223-1.252-0.383-1.887-0.543
		c-0.699-0.176-0.983-0.692-0.69-1.324c0.045-0.097,0.115-0.183,0.174-0.273c0.375-0.573,0.708-1.166,0.886-1.836
		c0.019-0.072,0.074-0.143,0.13-0.196c0.308-0.293,0.573-0.622,0.727-1.016c0.262-0.671,0.362-1.355,0.032-2.041
		c-0.018-0.038-0.01-0.092-0.004-0.137c0.058-0.421,0.147-0.84,0.171-1.263c0.056-0.974-0.027-1.935-0.425-2.842
		c-0.328-0.748-0.858-1.238-1.716-1.287c-0.249-0.014-0.715-0.189-0.914-0.336c-0.396-0.293-0.847-0.447-1.33-0.509
		c-1.13-0.146-2.142,0.132-2.921,0.977c-1.01,1.097-1.382,2.445-1.326,3.909C593.74,46.538,593.869,47.04,593.945,47.525z"/>
	<path display="inline" d="M154.559,160.029c-1.878-12.01-5.075-24.465-5.553-37.024c-1.384-36.286,7.831-69.697,32.852-96.871
		c19.296-20.957,44.378-27.828,72.374-24.219c11.955,1.541,23.144,5.364,32.953,12.626c4.937,3.655,16.491,7.99,22.659,8.336
		c21.257,1.195,34.39,13.354,42.526,31.885c9.87,22.482,11.921,46.296,10.545,70.43c-0.598,10.481-2.809,20.869-4.24,31.306
		c-0.153,1.116-0.358,2.455,0.09,3.389c8.167,17.004,5.705,33.945-0.792,50.572c-3.819,9.774-10.391,17.926-18.013,25.187
		c-1.386,1.32-2.757,3.075-3.231,4.868c-4.39,16.595-12.657,31.284-21.947,45.495c-1.465,2.241-3.19,4.368-4.303,6.775
		c-7.243,15.664-0.212,28.456,17.108,32.807c15.726,3.95,31.54,7.933,46.753,13.452c25.381,9.208,48.931,21.896,68.134,41.496
		c13.016,13.286,20.565,28.728,19.615,47.783c-0.334,6.693-0.541,13.461,0.058,20.117c0.956,10.607-4.257,17.485-12.353,23.011
		c-13.176,8.993-27.954,14.461-43.074,18.922c-51.042,15.056-103.335,21.308-156.418,20.569c-27.986-0.389-56.01-1.424-83.914-3.531
		c-29.254-2.209-58.389-6.25-85.66-18.054c-6.976-3.019-13.491-7.414-19.634-11.965c-6.561-4.861-10.757-11.845-11.028-20.121
		c-0.423-12.892-0.48-25.831,0.12-38.713c0.7-15.041,8.62-26.915,18.726-37.368c19.435-20.102,43.543-32.869,69.42-42.227
		c14.909-5.392,30.398-9.264,45.775-13.247c12.252-3.174,23.145-20.555,19.693-32.748c-0.482-1.704-1.495-3.358-2.599-4.771
		c-11.733-15.019-19.581-31.895-24.523-50.241c-0.491-1.823-2.032-3.913-3.668-4.78c-6.531-3.464-11.118-8.588-14.082-15.203
		c-6.943-15.49-11.944-31.403-8.595-48.659C150.947,166.152,153.038,163.275,154.559,160.029z M285.992,475.061
		c33.036,0,65.768,0,98.739,0c0-19.897,0-39.433,0-59.28c-33.011,0-65.761,0-98.739,0
		C285.992,435.674,285.992,455.205,285.992,475.061z"/>
	<path fill="#FFFFFF" d="M599.249,60.238c0-0.801,0-1.589,0-2.392c1.331,0,2.652,0,3.984,0c0,0.801,0,1.589,0,2.392
		C601.903,60.238,600.582,60.238,599.249,60.238z"/>
</g>
<g display="none">
	<path fill="#FFFFFF" d="M588.041,61.84c0-6.937,0-13.862,0-20.793c6.933,0,13.867,0,20.8,0c0,6.929,0,13.861,0,20.793
		C601.91,61.84,594.979,61.84,588.041,61.84z M597.317,61.685c2.306,0.052,4.579-0.175,6.799-0.828
		c0.604-0.178,1.194-0.396,1.722-0.75c0.341-0.228,0.563-0.512,0.52-0.958c-0.026-0.268-0.016-0.542-0.003-0.812
		c0.036-0.762-0.269-1.379-0.788-1.91c-0.779-0.796-1.735-1.312-2.767-1.684c-0.608-0.219-1.239-0.381-1.867-0.537
		c-0.708-0.176-0.997-0.708-0.69-1.339c0.044-0.09,0.109-0.171,0.165-0.255c0.376-0.573,0.708-1.167,0.888-1.835
		c0.021-0.078,0.082-0.154,0.142-0.212c0.391-0.379,0.706-0.813,0.836-1.344c0.139-0.568,0.208-1.145-0.085-1.699
		c-0.024-0.045-0.01-0.118,0.003-0.174c0.268-1.233,0.255-2.46-0.113-3.669c-0.097-0.318-0.255-0.63-0.443-0.905
		c-0.409-0.599-1.004-0.841-1.723-0.766c-0.17,0.018-0.291,0.012-0.413-0.151c-0.116-0.155-0.298-0.279-0.474-0.37
		c-1.545-0.798-3.644-0.379-4.617,1.515c-0.728,1.418-0.937,2.893-0.437,4.436c0.014,0.043-0.009,0.106-0.031,0.152
		c-0.051,0.104-0.143,0.198-0.165,0.306c-0.135,0.674,0.054,1.299,0.315,1.909c0.126,0.295,0.319,0.53,0.61,0.681
		c0.061,0.031,0.116,0.112,0.134,0.18c0.202,0.747,0.522,1.434,0.999,2.045c0.044,0.057,0.082,0.126,0.099,0.195
		c0.129,0.504-0.305,1.197-0.814,1.304c-0.802,0.17-1.585,0.403-2.336,0.734c-0.854,0.376-1.654,0.836-2.308,1.517
		c-0.499,0.519-0.795,1.119-0.763,1.858c0.012,0.284,0.02,0.57-0.002,0.853c-0.052,0.694,0.299,1.137,0.868,1.456
		c0.787,0.442,1.654,0.621,2.53,0.76C594.502,61.608,595.908,61.667,597.317,61.685z"/>
	<path display="inline" d="M238.195,510.823c-34.889-0.425-69.715-1.908-104.224-7.388c-21.693-3.445-43.173-7.895-62.66-18.833
		c-14.082-7.904-22.778-18.867-21.495-36.061c0.523-7.003,0.341-14.09,0.037-21.119c-0.793-18.307,6.556-33.176,18.909-46.02
		c16.209-16.853,36.032-28.249,57.178-37.566c18.602-8.197,37.984-13.982,57.857-18.188c12.614-2.669,23.351-19.835,20.161-32.311
		c-0.438-1.712-1.362-3.424-2.457-4.826c-11.832-15.148-19.761-32.164-24.755-50.66c-0.457-1.692-1.82-3.681-3.318-4.458
		c-7.23-3.744-11.997-9.56-15.12-16.861c-6.468-15.121-11.168-30.604-7.815-47.291c0.54-2.688,2.824-4.996,4.093-7.583
		c0.555-1.131,1.118-2.694,0.771-3.767c-12.375-38.217-7.21-74.756,10.83-109.873c24.093-46.899,76.082-57.274,114.362-37.515
		c4.376,2.259,8.867,5.316,11.75,9.167c3.018,4.032,6.007,4.185,10.226,3.745c17.807-1.857,32.547,4.139,42.68,18.985
		c4.655,6.82,8.578,14.548,10.973,22.43c9.102,29.948,9.436,60.351,2.794,90.886c-0.304,1.398-0.656,3.194-0.063,4.318
		c7.248,13.724,5.539,28.009,2.104,42.075c-3.217,13.173-11.017,23.906-20.703,33.3c-1.491,1.446-3.003,3.313-3.524,5.249
		c-4.459,16.562-12.685,31.262-21.988,45.457c-1.376,2.1-2.99,4.085-4.079,6.325c-7.602,15.633-0.448,28.815,17.082,33.165
		c15.567,3.863,31.192,7.866,46.256,13.293c25.563,9.209,49.247,21.979,68.544,41.703c12.854,13.139,20.401,28.436,19.511,47.304
		c-0.316,6.692-0.576,13.463,0.068,20.107c1.071,11.049-4.45,18.072-12.887,23.727c-13.096,8.777-27.706,14.183-42.665,18.584
		C351.635,506.501,295.328,512.109,238.195,510.823z"/>
</g>
</svg>
