<?xml version="1.0" encoding="utf-8"?>
<!-- Generator: Adobe Illustrator 17.0.0, SVG Export Plug-In . SVG Version: 6.00 Build 0)  -->
<!DOCTYPE svg PUBLIC "-//W3C//DTD SVG 1.1//EN" "http://www.w3.org/Graphics/SVG/1.1/DTD/svg11.dtd">
<svg version="1.1" id="Layer_1" xmlns="http://www.w3.org/2000/svg" xmlns:xlink="http://www.w3.org/1999/xlink" x="0px" y="0px"
	 width="512px" height="512px" viewBox="0 0 512 512" enable-background="new 0 0 512 512" xml:space="preserve">
<g>
	<line fill="none" stroke="#B35047" x1="32" y1="0" x2="32" y2="512"/>
	<line fill="none" stroke="#B35047" x1="64" y1="0" x2="64" y2="512"/>
	<line fill="none" stroke="#B35047" x1="96" y1="0" x2="96" y2="512"/>
	<line fill="none" stroke="#B35047" x1="128" y1="0" x2="128" y2="512"/>
	<line fill="none" stroke="#B35047" x1="160" y1="0" x2="160" y2="512"/>
	<line fill="none" stroke="#B35047" x1="192" y1="0" x2="192" y2="512"/>
	<line fill="none" stroke="#B35047" x1="224" y1="0" x2="224" y2="512"/>
	<line fill="none" stroke="#B35047" x1="256" y1="0" x2="256" y2="512"/>
	<line fill="none" stroke="#B35047" x1="288" y1="0" x2="288" y2="512"/>
	<line fill="none" stroke="#B35047" x1="320" y1="0" x2="320" y2="512"/>
	<line fill="none" stroke="#B35047" x1="352" y1="0" x2="352" y2="512"/>
	<line fill="none" stroke="#B35047" x1="384" y1="0" x2="384" y2="512"/>
	<line fill="none" stroke="#B35047" x1="416" y1="0" x2="416" y2="512"/>
	<line fill="none" stroke="#B35047" x1="448" y1="0" x2="448" y2="512"/>
	<line fill="none" stroke="#B35047" x1="480" y1="0" x2="480" y2="512"/>
	<line fill="none" stroke="#B35047" x1="0" y1="32" x2="512" y2="32"/>
	<line fill="none" stroke="#B35047" x1="0" y1="64" x2="512" y2="64"/>
	<line fill="none" stroke="#B35047" x1="0" y1="96" x2="512" y2="96"/>
	<line fill="none" stroke="#B35047" x1="0" y1="128" x2="512" y2="128"/>
	<line fill="none" stroke="#B35047" x1="0" y1="160" x2="512" y2="160"/>
	<line fill="none" stroke="#B35047" x1="0" y1="192" x2="512" y2="192"/>
	<line fill="none" stroke="#B35047" x1="0" y1="224" x2="512" y2="224"/>
	<line fill="none" stroke="#B35047" x1="0" y1="256" x2="512" y2="256"/>
	<line fill="none" stroke="#B35047" x1="0" y1="288" x2="512" y2="288"/>
	<line fill="none" stroke="#B35047" x1="0" y1="320" x2="512" y2="320"/>
	<line fill="none" stroke="#B35047" x1="0" y1="352" x2="512" y2="352"/>
	<line fill="none" stroke="#B35047" x1="0" y1="384" x2="512" y2="384"/>
	<line fill="none" stroke="#B35047" x1="0" y1="416" x2="512" y2="416"/>
	<line fill="none" stroke="#B35047" x1="0" y1="448" x2="512" y2="448"/>
	<line fill="none" stroke="#B35047" x1="0" y1="480" x2="512" y2="480"/>
	<rect x="0" fill="none" stroke="#B35047" width="512" height="512"/>
</g>
<image display="none" overflow="visible" width="512" height="512" xlink:href="../../../Knowledge/Icon/[+++++] (Full) Windows 8 Icons [icons8]/System/save_as/save_as-512.png"  transform="matrix(0.0406 0 0 0.0406 589 43)">
</image>
<g>
	<path d="M458.207,511c-134.805,0-269.609,0-404.414,0c-0.925-0.323-1.825-0.78-2.777-0.95
		c-23.408-4.188-38.991-17.613-46.925-39.922c-1.37-3.853-2.078-7.941-3.091-11.921C1,323.402,1,188.598,1,53.793
		c0.322-0.926,0.769-1.829,0.947-2.782c4.8-25.714,20.058-41.657,45.17-48.402c2.21-0.594,4.45-1.075,6.676-1.608
		C169.672,1,285.551,1,401.43,1c14.47,3.194,25.838,11.832,36.141,21.708c17.121,16.411,33.935,33.163,50.391,50.241
		C498.318,83.697,507.626,95.399,511,110.57c0,115.879,0,231.758,0,347.637c-0.322,0.926-0.769,1.829-0.947,2.782
		c-4.8,25.714-20.058,41.657-45.17,48.402C462.673,509.985,460.433,510.467,458.207,511z M256.038,491.478
		c57.925,0,115.851,0.02,173.776-0.014c14.741-0.009,22.504-7.756,22.508-22.338c0.017-63.568,0.015-127.137,0.001-190.705
		c-0.003-14.638-7.828-22.538-22.336-22.539c-116.016-0.011-232.033-0.011-348.049,0c-14.262,0.001-22.252,7.927-22.257,22.116
		c-0.022,63.734-0.015,127.469,0.014,191.203c0.001,2.306,0.067,4.68,0.594,6.907c2.384,10.079,9.944,15.354,21.974,15.359
		C140.187,491.492,198.113,491.479,256.038,491.478z M246.042,197.329c41.319,0,82.638,0.004,123.957-0.002
		c15.871-0.002,23.51-7.613,23.513-23.44c0.009-43.31,0.008-86.621,0-129.931c-0.003-15.939-7.478-23.428-23.457-23.43
		c-82.638-0.012-165.276-0.013-247.915,0.001c-15.648,0.003-23.294,7.562-23.307,23.123c-0.035,43.476-0.035,86.953,0,130.429
		c0.012,15.556,7.752,23.244,23.25,23.248C163.404,197.335,204.723,197.329,246.042,197.329z"/>
	<path display="none" fill="#FFFFFF" d="M609.841,47.509c-0.138-0.619-0.517-1.096-0.94-1.534c-0.671-0.697-1.357-1.38-2.055-2.049
		c-0.42-0.403-0.884-0.755-1.474-0.885c1.49,0,2.979,0,4.469,0C609.841,44.53,609.841,46.02,609.841,47.509z"/>
	<path display="none" fill="#FFFFFF" d="M591.194,43.041c-0.091,0.022-0.182,0.041-0.272,0.066
		c-1.024,0.275-1.646,0.925-1.842,1.974c-0.007,0.039-0.025,0.076-0.039,0.113c0-0.714,0-1.429,0-2.153
		C589.758,43.041,590.476,43.041,591.194,43.041z"/>
	<path display="none" fill="#FFFFFF" d="M589.041,61.687c0.041,0.162,0.07,0.329,0.126,0.486c0.324,0.91,0.959,1.457,1.914,1.628
		c0.039,0.007,0.076,0.026,0.113,0.039c-0.718,0-1.435,0-2.153,0C589.041,63.123,589.041,62.405,589.041,61.687z"/>
	<path display="none" fill="#FFFFFF" d="M607.688,63.841c0.091-0.022,0.182-0.041,0.272-0.066c1.024-0.275,1.646-0.925,1.842-1.974
		c0.007-0.039,0.026-0.076,0.039-0.113c0,0.718,0,1.435,0,2.153C609.123,63.841,608.405,63.841,607.688,63.841z"/>
	<path display="none" fill="#FFFFFF" d="M599.442,63.044c-2.362,0-4.725,0.001-7.087,0c-0.491,0-0.799-0.215-0.896-0.626
		c-0.021-0.091-0.024-0.188-0.024-0.282c-0.001-2.599-0.001-5.199-0.001-7.798c0-0.579,0.326-0.902,0.908-0.902
		c4.732,0,9.463,0,14.195,0c0.592,0,0.911,0.322,0.911,0.919c0.001,2.593,0.001,5.185,0,7.778c0,0.595-0.317,0.911-0.918,0.911
		C604.167,63.045,601.805,63.044,599.442,63.044z"/>
	<path display="none" fill="#FFFFFF" d="M599.034,51.048c-1.685,0-3.37,0-5.055,0c-0.632,0-0.948-0.314-0.948-0.948
		c-0.001-1.773-0.001-3.546,0-5.319c0.001-0.635,0.312-0.943,0.951-0.943c3.37-0.001,6.741-0.001,10.111,0
		c0.652,0,0.957,0.306,0.957,0.956c0,1.766,0,3.533,0,5.299c0,0.645-0.312,0.956-0.959,0.956
		C602.405,51.048,600.72,51.048,599.034,51.048z M601.062,44.655c0,1.866,0,3.715,0,5.564c0.793,0,1.568,0,2.35,0
		c0-1.859,0-3.707,0-5.564C602.625,44.655,601.855,44.655,601.062,44.655z"/>
	<path d="M295.765,40.577c19.438,0,38.308,0,57.617,0c0,45.534,0,90.832,0,136.422c-19.171,0-38.18,0-57.617,0
		C295.765,131.654,295.765,86.341,295.765,40.577z"/>
</g>
<g display="none">
	<path fill="#FFFFFF" d="M589.041,43.041c6.933,0,13.867,0,20.8,0c0,6.933,0,13.867,0,20.8c-6.933,0-13.867,0-20.8,0
		C589.041,56.907,589.041,49.974,589.041,43.041z M609.679,53.438c-0.003-5.662-4.582-10.239-10.242-10.236
		c-5.662,0.003-10.239,4.583-10.236,10.242c0.004,5.663,4.582,10.238,10.242,10.235C605.107,63.676,609.682,59.098,609.679,53.438z"
		/>
	<path d="M511,255.926C511.071,396.899,397.122,510.919,256.084,511C115.127,511.081,1.089,397.117,1,256.084
		C0.911,115.15,114.914,1.077,255.927,1C396.878,0.923,510.929,114.909,511,255.926z M471.605,255.908
		c-0.1-118.658-97.096-215.562-215.701-215.497C137.276,40.476,40.335,137.512,40.411,256.114
		c0.077,118.642,97.095,215.566,215.702,215.491C374.755,471.53,471.704,374.489,471.605,255.908z"/>
	<path fill="#FFFFFF" d="M608.097,53.437c0.004,4.761-3.889,8.657-8.652,8.66c-4.762,0.003-8.658-3.889-8.661-8.652
		c-0.003-4.762,3.889-8.658,8.652-8.661C604.199,44.782,608.093,48.673,608.097,53.437z M600.287,55.114
		c0.025,0.063,0.056,0.129,0.08,0.198c0.275,0.784,0.549,1.569,0.826,2.352c0.04,0.114,0.085,0.232,0.156,0.328
		c0.491,0.664,0.984,1.326,1.488,1.98c0.211,0.274,0.525,0.354,0.792,0.24c0.442-0.189,0.559-0.662,0.258-1.078
		c-0.266-0.367-0.528-0.738-0.82-1.085c-0.429-0.51-0.726-1.079-0.918-1.717c-0.212-0.704-0.504-1.386-0.695-2.095
		c-0.199-0.736-0.32-1.493-0.474-2.241c-0.054-0.259-0.107-0.517-0.166-0.807c0.383,0.147,0.727,0.268,1.061,0.414
		c0.122,0.053,0.246,0.143,0.323,0.249c0.436,0.603,0.857,1.217,1.286,1.825c0.224,0.318,0.528,0.439,0.814,0.335
		c0.471-0.172,0.606-0.646,0.299-1.092c-0.488-0.707-0.976-1.414-1.483-2.108c-0.109-0.15-0.281-0.282-0.453-0.353
		c-0.706-0.29-1.42-0.562-2.138-0.82c-0.191-0.069-0.417-0.118-0.611-0.085c-0.639,0.108-1.271,0.258-1.906,0.391
		c-0.198,0.042-0.318,0.168-0.382,0.354c-0.267,0.78-0.53,1.561-0.804,2.338c-0.038,0.108-0.112,0.216-0.198,0.291
		c-0.49,0.427-0.991,0.841-1.484,1.264c-0.291,0.25-0.376,0.568-0.239,0.847c0.216,0.439,0.7,0.522,1.107,0.184
		c0.395-0.329,0.785-0.665,1.177-0.998c0.379-0.322,0.81-0.601,0.927-1.136c0.001-0.004,0.012-0.006,0.03-0.014
		c0.099,0.478,0.19,0.955,0.3,1.428c0.032,0.136,0.002,0.228-0.078,0.331c-0.335,0.434-0.675,0.865-0.988,1.314
		c-0.111,0.159-0.202,0.361-0.22,0.551c-0.088,0.929-0.155,1.861-0.215,2.792c-0.033,0.519,0.392,0.876,0.857,0.736
		c0.339-0.102,0.469-0.367,0.494-0.693c0.061-0.796,0.111-1.593,0.18-2.388c0.013-0.144,0.071-0.302,0.155-0.42
		c0.294-0.413,0.628-0.799,0.908-1.221C599.718,55.222,599.963,55.126,600.287,55.114z M597.007,47.583
		c0.005,0.871,0.731,1.591,1.597,1.586c0.87-0.005,1.59-0.726,1.59-1.594c0.001-0.866-0.716-1.587-1.588-1.597
		C597.736,45.97,597.001,46.706,597.007,47.583z"/>
	<path display="inline" d="M277.079,297.677c-8.057,0.307-14.175,2.696-18.846,9.73c-6.978,10.509-15.294,20.122-22.613,30.42
		c-2.09,2.941-3.537,6.86-3.851,10.456c-1.733,19.806-2.966,39.655-4.493,59.479c-0.627,8.136-3.857,14.735-12.295,17.271
		c-11.6,3.486-22.184-5.402-21.356-18.323c1.486-23.204,3.164-46.404,5.351-69.549c0.448-4.737,2.713-9.772,5.482-13.731
		c7.817-11.179,16.267-21.921,24.617-32.719c2-2.586,2.734-4.864,1.946-8.253c-2.735-11.774-5.006-23.656-7.469-35.569
		c-0.469,0.212-0.738,0.257-0.76,0.355c-2.927,13.33-13.66,20.28-23.098,28.287c-9.769,8.288-19.471,16.656-29.319,24.849
		c-10.124,8.422-22.199,6.346-27.567-4.575c-3.409-6.936-1.295-14.864,5.959-21.09c12.279-10.54,24.753-20.852,36.958-31.475
		c2.148-1.87,3.995-4.572,4.942-7.257c6.826-19.357,13.377-38.811,20.032-58.229c1.585-4.625,4.574-7.771,9.511-8.809
		c15.812-3.322,31.554-7.052,47.473-9.737c4.84-0.816,10.46,0.419,15.214,2.129c17.891,6.432,35.675,13.199,53.261,20.42
		c4.274,1.755,8.55,5.055,11.271,8.779c12.623,17.275,24.789,34.888,36.938,52.504c7.652,11.095,4.289,22.904-7.452,27.189
		c-7.124,2.6-14.687-0.423-20.277-8.345c-10.686-15.145-21.159-30.442-32.019-45.46c-1.915-2.649-5.003-4.891-8.033-6.208
		c-8.316-3.614-16.889-6.637-26.42-10.3c1.487,7.226,2.806,13.67,4.139,20.111c3.853,18.624,6.859,37.476,11.812,55.803
		c4.772,17.659,12.025,34.632,17.316,52.169c4.797,15.899,12.175,30.067,22.871,42.772c7.261,8.625,13.801,17.873,20.422,27.017
		c7.508,10.369,4.58,22.158-6.422,26.858c-6.66,2.845-14.484,0.836-19.733-5.977c-12.546-16.287-24.827-32.78-37.054-49.308
		c-1.761-2.381-2.874-5.333-3.879-8.166c-6.916-19.508-13.718-39.056-20.577-58.584C278.462,300.9,277.713,299.244,277.079,297.677z
		"/>
	<path display="inline" d="M195.385,110.122c-0.137-21.848,18.15-40.192,39.827-39.95c21.713,0.242,39.553,18.183,39.539,39.764
		c-0.014,21.606-17.932,39.564-39.602,39.689C213.581,149.749,195.521,131.807,195.385,110.122z"/>
</g>
<g display="none">
	<path fill="#FFFFFF" d="M589.043,63.841c0-6.93,0-13.86,0-20.795c6.926,0,13.855,0,20.79,0c0,6.928,0,13.862,0,20.795
		C602.908,63.841,595.977,63.841,589.043,63.841z M609.679,53.444c0.003-5.659-4.572-10.238-10.235-10.242
		c-5.659-0.004-10.239,4.573-10.242,10.235c-0.003,5.659,4.573,10.239,10.235,10.242C605.098,63.682,609.676,59.107,609.679,53.444z
		"/>
	<path d="M511,256.09C510.913,397.13,396.89,511.077,255.92,511C114.901,510.923,0.916,396.867,1,255.92
		C1.084,114.903,115.16,0.903,256.091,1C397.127,1.097,511.087,115.137,511,256.09z M471.605,255.95
		c-0.074-118.656-97.047-215.576-215.659-215.539c-118.621,0.037-215.582,97.055-215.534,215.66
		c0.048,118.631,97.055,215.581,215.66,215.533C374.71,471.557,471.678,374.534,471.605,255.95z"/>
	<path fill="#FFFFFF" d="M608.097,53.439c0.003,4.761-3.89,8.657-8.654,8.659c-4.762,0.002-8.657-3.891-8.659-8.654
		c-0.002-4.762,3.891-8.658,8.654-8.659C604.201,44.783,608.094,48.674,608.097,53.439z M598.583,52.24c0-0.083,0-0.162,0-0.242
		c-0.005-1.51-0.01-3.02-0.016-4.529c0-0.115-0.005-0.231-0.023-0.344c-0.047-0.287-0.286-0.513-0.574-0.552
		c-0.48-0.064-0.839,0.265-0.837,0.782c0.004,1.368,0.013,2.735,0.02,4.103c0.001,0.223,0.009,0.447-0.001,0.67
		c-0.003,0.055-0.057,0.145-0.102,0.156c-0.281,0.065-0.565,0.113-0.871,0.17c0-0.059,0-0.131,0-0.203
		c-0.008-1.158-0.013-2.315-0.024-3.473c-0.005-0.484-0.33-0.783-0.788-0.741c-0.374,0.034-0.637,0.342-0.636,0.759
		c0.009,2.437,0.017,4.875,0.033,7.312c0.004,0.677,0.046,1.353,0.253,2.006c0.425,1.342,1.307,2.196,2.683,2.529
		c0.829,0.2,1.665,0.189,2.5,0.059c1.008-0.157,1.949-0.489,2.686-1.225c0.283-0.282,0.505-0.632,0.727-0.969
		c0.828-1.261,1.643-2.531,2.465-3.796c0.163-0.25,0.279-0.514,0.252-0.817c-0.038-0.43-0.253-0.74-0.668-0.883
		c-0.403-0.138-0.893,0.012-1.162,0.373c-0.225,0.303-0.417,0.632-0.622,0.95c-0.141,0.219-0.278,0.44-0.448,0.708
		c-0.007-0.117-0.013-0.174-0.013-0.232c-0.012-2.322-0.023-4.645-0.034-6.967c0-0.081,0.002-0.163-0.006-0.244
		c-0.032-0.338-0.305-0.601-0.642-0.621c-0.455-0.027-0.774,0.281-0.774,0.762c0,1.469,0.005,2.938,0.008,4.408
		c0,0.08,0,0.16,0,0.237c-0.333-0.066-0.648-0.128-0.98-0.194c0-0.083,0-0.17,0-0.257c-0.004-1.672-0.007-3.345-0.012-5.017
		c0-0.108-0.005-0.218-0.028-0.322c-0.072-0.329-0.354-0.547-0.689-0.546c-0.34,0.002-0.634,0.238-0.695,0.568
		c-0.021,0.112-0.025,0.229-0.024,0.343c0.007,1.672,0.016,3.345,0.025,5.017c0,0.08,0,0.16,0,0.262
		C599.238,52.24,598.929,52.24,598.583,52.24z"/>
	<path display="inline" d="M234.653,226.1c8.616,0,16.3,0,24.407,0c0-2.534,0.009-4.531-0.001-6.527
		c-0.212-41.65-0.439-83.3-0.614-124.95c-0.012-2.852,0.09-5.755,0.604-8.548c1.514-8.222,8.852-14.103,17.314-14.144
		c8.358-0.04,15.385,5.406,17.168,13.589c0.567,2.603,0.679,5.346,0.687,8.025c0.132,41.65,0.213,83.301,0.304,124.951
		c0.005,2.166,0.001,4.331,0.001,6.399c8.273,1.635,16.103,3.183,24.406,4.824c0-1.922,0.003-3.909,0-5.897
		c-0.07-36.592-0.182-73.183-0.186-109.775c-0.001-11.969,7.942-19.649,19.284-18.975c8.378,0.498,15.198,7.06,15.986,15.478
		c0.188,2.009,0.129,4.043,0.139,6.066c0.286,57.838,0.565,115.676,0.858,173.513c0.007,1.431,0.158,2.861,0.329,5.777
		c4.221-6.677,7.65-12.177,11.156-17.627c5.103-7.932,9.883-16.11,15.496-23.667c6.683-8.998,18.896-12.743,28.935-9.295
		c10.329,3.548,15.684,11.278,16.627,21.989c0.665,7.556-2.233,14.125-6.28,20.352c-20.479,31.508-40.778,63.132-61.395,94.549
		c-5.515,8.403-11.041,17.105-18.093,24.134c-18.371,18.312-41.813,26.593-66.909,30.499c-20.793,3.237-41.616,3.523-62.262-1.47
		c-34.255-8.283-56.238-29.571-66.813-62.988c-5.15-16.275-6.191-33.095-6.302-49.96c-0.399-60.704-0.599-121.409-0.813-182.113
		c-0.037-10.391,6.525-18.051,15.838-18.91c11.417-1.053,19.508,6.407,19.626,18.46c0.284,28.833,0.418,57.668,0.61,86.503
		c0.012,1.802,0.002,3.605,0.002,5.063c7.614-1.433,14.709-2.612,21.698-4.241c1.123-0.262,2.466-2.497,2.53-3.874
		c0.26-5.551,0.057-11.123,0.028-16.688c-0.172-34.062-0.396-68.124-0.487-102.186c-0.034-12.876,8.891-21.068,20.851-19.469
		c7.155,0.957,13.131,6.584,14.29,13.74c0.456,2.813,0.573,5.704,0.585,8.561c0.159,37.603,0.272,75.206,0.396,112.81
		C234.658,222.058,234.653,224.036,234.653,226.1z"/>
</g>
<g display="none">
	<path fill="#FFFFFF" d="M605.291,43.041c1.517,0,3.033,0,4.55,0c0,6.933,0,13.867,0,20.8c-1.517,0-3.033,0-4.55,0
		c0.091-0.022,0.182-0.044,0.273-0.066c1.123-0.271,1.865-1.201,1.872-2.37c0.007-1.306,0.002-2.613,0.002-3.919
		c0-0.044,0-0.089,0-0.167c-0.075,0.059-0.122,0.093-0.166,0.131c-0.415,0.359-0.823,0.725-1.246,1.073
		c-0.136,0.112-0.179,0.228-0.177,0.397c0.008,0.805,0.005,1.611,0.002,2.417c-0.002,0.444-0.189,0.746-0.545,0.858
		c-0.139,0.044-0.293,0.056-0.44,0.056c-3.615,0.003-7.23,0.002-10.844,0.001c-0.108,0-0.217-0.005-0.323-0.023
		c-0.347-0.061-0.596-0.318-0.646-0.665c-0.016-0.113-0.021-0.229-0.021-0.344c-0.001-4.062-0.001-8.123-0.001-12.185
		c0-1.158-0.001-2.315,0.001-3.473c0.001-0.458,0.187-0.764,0.549-0.876c0.139-0.043,0.293-0.054,0.44-0.054
		c3.615-0.003,7.23-0.002,10.844-0.002c0.683,0,0.986,0.307,0.987,0.996c0,0.765,0.006,1.53-0.004,2.295
		c-0.003,0.198,0.045,0.336,0.207,0.466c0.37,0.296,0.72,0.616,1.078,0.926c0.09,0.078,0.181,0.155,0.273,0.234
		c0.017-0.028,0.029-0.038,0.029-0.049c0-1.394,0.024-2.79-0.012-4.183c-0.028-1.08-0.785-1.94-1.84-2.202
		C605.485,43.089,605.388,43.065,605.291,43.041z M608.626,53.444c-0.052-0.048-0.085-0.081-0.121-0.112
		c-1.903-1.65-3.807-3.298-5.707-4.951c-0.184-0.16-0.371-0.221-0.593-0.128c-0.215,0.09-0.32,0.273-0.325,0.498
		c-0.018,0.683-0.025,1.366-0.036,2.049c-0.001,0.078,0,0.156,0,0.248c-0.111,0-0.191,0-0.271,0c-1.469,0-2.938,0-4.408,0
		c-0.604,0-0.92,0.31-0.921,0.908c-0.002,0.988-0.002,1.977,0,2.965c0.001,0.6,0.316,0.911,0.918,0.911c1.476,0.001,2.952,0,4.428,0
		c0.079,0,0.158,0,0.254,0c0,0.403-0.004,0.781,0.001,1.159c0.006,0.372,0.01,0.744,0.037,1.115c0.017,0.236,0.136,0.429,0.373,0.51
		c0.214,0.073,0.393,0.018,0.572-0.14c1.001-0.882,2.012-1.751,3.02-2.624C606.768,55.055,607.688,54.257,608.626,53.444z"/>
	<path display="inline" d="M384.862,1c2.387,0.592,4.775,1.184,7.162,1.776c25.872,6.416,44.435,27.512,45.12,53.989
		c0.884,34.168,0.274,68.375,0.286,102.565c0,0.252-0.294,0.505-0.719,1.19c-2.261-1.935-4.491-3.824-6.7-5.737
		c-8.783-7.604-17.367-15.456-26.429-22.711c-3.967-3.176-5.143-6.562-5.079-11.424c0.245-18.752,0.109-37.51,0.097-56.265
		c-0.011-16.91-7.451-24.43-24.19-24.431c-88.632-0.006-177.264-0.018-265.897,0.052c-3.606,0.003-7.373,0.277-10.785,1.332
		c-8.891,2.75-13.447,10.243-13.465,21.482c-0.045,28.382-0.016,56.764-0.016,85.147c0,99.587-0.004,199.174,0.02,298.76
		c0.001,2.811,0.105,5.651,0.506,8.428c1.228,8.502,7.347,14.803,15.849,16.3c2.595,0.457,5.278,0.575,7.92,0.575
		c88.632,0.028,177.264,0.039,265.897-0.033c3.603-0.003,7.371-0.301,10.776-1.371c8.738-2.747,13.324-10.165,13.365-21.045
		c0.074-19.751,0.125-39.504-0.06-59.253c-0.039-4.148,1.015-6.998,4.348-9.744c10.37-8.547,20.39-17.519,30.558-26.313
		c1.076-0.931,2.234-1.767,4.066-3.207c0,1.921,0,3.009,0,4.097c-0.001,32.034,0.136,64.068-0.046,96.101
		c-0.162,28.655-18.355,51.471-45.897,58.112c-2.23,0.538-4.458,1.085-6.686,1.628c-95.625,0-191.25,0-286.875,0
		c-5.534-1.604-11.269-2.718-16.566-4.896c-22.706-9.338-36.051-30.511-36.055-56.78c-0.018-128.883-0.009-257.766-0.004-386.648
		c0-1.824,0.017-3.651,0.119-5.471C46.977,30.773,64.694,9.343,90.35,2.91c2.545-0.638,5.091-1.273,7.636-1.91
		C193.612,1,289.237,1,384.862,1z"/>
	<path fill="#FFFFFF" d="M593.591,43.041c-0.104,0.026-0.208,0.052-0.311,0.078c-1.046,0.262-1.769,1.136-1.83,2.214
		c-0.004,0.074-0.005,0.149-0.005,0.223c0,5.256-0.001,10.513,0,15.769c0,1.071,0.544,1.935,1.47,2.316
		c0.216,0.089,0.45,0.134,0.676,0.2c-1.517,0-3.033,0-4.55,0c0-6.933,0-13.867,0-20.8C590.557,43.041,592.074,43.041,593.591,43.041
		z"/>
	<path display="inline" d="M466.645,256.086c-22.994,19.937-45.558,39.504-68.126,59.068
		c-24.709,21.419-49.511,42.732-74.047,64.347c-4.39,3.867-8.786,5.217-14.03,3.423c-5.798-1.984-8.72-6.729-9.139-12.512
		c-0.658-9.085-0.776-18.215-0.915-27.329c-0.141-9.259-0.031-18.522-0.031-28.413c-2.371,0-4.303,0-6.235,0
		c-36.19,0-72.38,0.011-108.569-0.006c-14.76-0.007-22.479-7.633-22.51-22.347c-0.051-24.237-0.054-48.474,0.001-72.711
		c0.034-14.676,7.774-22.265,22.584-22.272c36.024-0.016,72.047-0.005,108.071-0.005c1.97,0,3.941,0,6.657,0
		c0-2.248-0.026-4.163,0.004-6.078c0.267-16.749,0.444-33.5,0.876-50.245c0.142-5.511,2.716-9.989,7.98-12.2
		c5.441-2.285,10.047-0.779,14.547,3.139c46.572,40.545,93.265,80.951,139.921,121.401
		C464.548,254.095,465.364,254.898,466.645,256.086z"/>
</g>
<g display="none">
	<path fill="#FFFFFF" d="M594.362,63.841c-1.774,0-3.548,0-5.322,0c0-6.933,0-13.867,0-20.8c1.774,0,3.548,0,5.322,0
		c-0.023,0.012-0.045,0.031-0.069,0.036c-1.266,0.24-2.039,1.164-2.042,2.446c-0.002,1.225,0,2.451,0,3.676c0,0.072,0,0.143,0,0.217
		c0.541,0,1.052,0,1.581,0c0-0.095,0-0.175,0-0.255c0-1.198-0.001-2.396,0-3.595c0-0.614,0.323-0.936,0.943-0.936
		c3.642-0.001,7.284-0.001,10.926,0c0.627,0,0.942,0.311,0.942,0.931c0.001,5.253,0.001,10.507,0,15.76
		c0,0.62-0.315,0.931-0.942,0.931c-3.642,0.001-7.284,0.001-10.926,0c-0.62,0-0.942-0.322-0.943-0.936c-0.001-1.205,0-2.41,0-3.615
		c0-0.078,0-0.157,0-0.233c-0.543,0-1.053,0-1.572,0c-0.004,0.055-0.009,0.095-0.009,0.134c0,1.3-0.007,2.6,0.004,3.899
		c0.009,1.058,0.756,1.991,1.78,2.254C594.144,63.782,594.253,63.812,594.362,63.841z M595.44,55.833
		c0.004,0.093,0.01,0.165,0.01,0.238c0.001,0.555-0.008,1.11,0.005,1.665c0.005,0.199,0.028,0.409,0.098,0.593
		c0.129,0.338,0.549,0.421,0.818,0.187c1.78-1.543,3.561-3.085,5.341-4.628c0.167-0.145,0.334-0.29,0.536-0.466
		c-0.058-0.035-0.096-0.051-0.126-0.078c-1.934-1.675-3.866-3.353-5.807-5.021c-0.093-0.08-0.263-0.111-0.391-0.1
		c-0.272,0.024-0.447,0.248-0.455,0.583c-0.016,0.663-0.013,1.327-0.018,1.99c-0.001,0.079,0,0.157,0,0.25c-0.113,0-0.194,0-0.275,0
		c-1.469,0-2.938,0-4.407,0c-0.609,0-0.917,0.303-0.917,0.904c-0.001,0.995-0.002,1.99,0,2.986c0.001,0.589,0.312,0.895,0.906,0.896
		c1.476,0.001,2.952,0,4.427,0C595.264,55.833,595.344,55.833,595.44,55.833z"/>
	<path display="inline" d="M141.202,511c-2.678-0.707-5.351-1.431-8.034-2.118c-25.101-6.435-43.431-29.308-43.645-55.255
		c-0.262-31.868-0.085-63.739-0.086-95.609c0-0.969,0.123-1.938,0.215-3.296c12.721,0,25.242,0,38.545,0c0,1.883,0,3.803,0,5.723
		c0,29.546-0.014,59.092,0.006,88.638c0.01,15.065,7.919,22.955,23.111,22.958c89.302,0.02,178.604,0.018,267.905,0.002
		c15.367-0.003,23.087-7.634,23.089-22.832c0.014-128.807,0.014-257.614,0-386.421c-0.002-15.197-7.723-22.829-23.089-22.832
		c-89.302-0.016-178.604-0.018-267.905,0.002c-15.192,0.003-23.101,7.893-23.111,22.959c-0.02,29.38-0.006,58.76-0.006,88.14
		c0,1.957,0,3.914,0,6.246c-12.978,0-25.498,0-38.774,0c0-1.8,0-3.557,0-5.315c0-30.044-0.041-60.088,0.013-90.132
		c0.057-31.434,19.017-54.079,50.064-59.975c0.601-0.114,1.136-0.581,1.701-0.883c95.957,0,191.914,0,287.871,0
		c1.075,0.352,2.127,0.849,3.23,1.032c10.914,1.807,20.553,6.345,28.835,13.639c14.556,12.821,20.326,29.248,20.29,48.353
		c-0.135,70.383-0.053,140.766-0.053,211.149c0,57.933,0.064,115.867-0.028,173.8c-0.049,30.654-17.405,53.415-45.639,60.322
		c-2.218,0.543-4.423,1.136-6.634,1.706C333.116,511,237.159,511,141.202,511z"/>
	<path fill="#FFFFFF" d="M606.103,63.841c0.09-0.023,0.18-0.047,0.271-0.07c1.151-0.282,1.859-1.21,1.861-2.46
		c0.004-2.363,0.001-4.726,0.001-7.088c0-2.871-0.003-5.741,0.002-8.612c0.001-0.779-0.234-1.449-0.828-1.972
		c-0.338-0.297-0.731-0.483-1.176-0.556c-0.045-0.007-0.088-0.028-0.132-0.042c1.245,0,2.49,0,3.736,0c0,6.933,0,13.867,0,20.8
		C608.593,63.841,607.348,63.841,606.103,63.841z"/>
	<path display="inline" d="M167.632,314.671c-2.367,0-4.318,0-6.269,0c-36.186,0-72.373,0.01-108.559-0.005
		c-14.548-0.006-22.178-7.526-22.202-21.959c-0.041-24.401-0.036-48.802-0.002-73.203c0.021-14.748,7.571-22.166,22.492-22.17
		c36.02-0.011,72.041-0.004,108.061-0.004c1.978,0,3.956,0,6.738,0c0-2.276-0.012-4.201,0.002-6.126
		c0.119-16.264,0.043-32.532,0.447-48.789c0.204-8.199,4.501-13.705,11.164-14.291c3.147-0.277,7.317,0.492,9.594,2.449
		c47.577,40.896,94.948,82.031,142.376,123.101c0.74,0.641,1.685,1.045,3.097,1.902c-4.95,4.306-9.034,7.872-13.131,11.423
		c-43.653,37.823-87.311,75.639-130.959,113.468c-6.613,5.731-16.9,3.708-20.068-4.585c-1.722-4.509-2.3-9.658-2.412-14.541
		c-0.311-13.604-0.101-27.22-0.121-40.832C167.878,318.728,167.733,316.948,167.632,314.671z"/>
</g>
<g display="none">
	<path fill="#FFFFFF" d="M609.834,63.841c-6.929,0-13.86,0-20.793,0c0-6.931,0-13.862,0-20.796c6.928,0,13.858,0,20.793,0
		C609.834,49.974,609.834,56.907,609.834,63.841z M608.883,53.447c0.016-5.202-4.212-9.434-9.436-9.446
		c-5.209-0.012-9.434,4.209-9.445,9.434c-0.011,5.208,4.208,9.433,9.434,9.448C604.636,62.897,608.867,58.672,608.883,53.447z"/>
	<path display="inline" d="M510.999,256.13C510.578,397.258,396.3,511.392,255.81,510.999
		C114.657,510.604,0.701,396.479,1.001,255.81C1.301,114.682,115.444,0.682,256.13,1.001
		C397.225,1.321,511.418,115.63,510.999,256.13z M346.26,179.999c0.242-31.779-10.22-53.286-35.17-65.352
		c-28.38-13.724-58.057-15.073-87.75-4.164c-15.035,5.524-27.115,15.206-33.604,30.404c-4.847,11.354-5.154,22.778,2.041,33.447
		c5.422,8.04,14.171,10.506,24.268,7.304c10.292-3.264,14.869-9.374,14.771-19.631c-0.045-4.744-0.325-9.515,0.063-14.228
		c0.786-9.539,6.209-15.813,15.524-18.177c3.159-0.801,6.465-1.228,9.725-1.384c16.897-0.807,27.868,7.66,30.361,23.491
		c2.715,17.246,1.079,34.215-3.733,50.925c-4.682,16.259-14.112,29.98-23.614,43.615c-10.398,14.92-16.939,30.971-16.287,49.531
		c0.13,3.696,1.012,5.295,4.959,5.095c5.468-0.276,10.976-0.312,16.439,0.01c4.44,0.261,6.328-0.98,5.803-5.762
		c-0.826-7.522,1.924-14.027,6.977-19.503c3.091-3.349,6.349-6.567,9.744-9.607c9.665-8.653,19.598-17.013,29.137-25.801
		C334.829,222.789,347.054,202.118,346.26,179.999z M218.374,375.662c0.079,20.462,16.222,36.395,36.726,36.249
		c20.157-0.144,36.119-16.19,36.155-36.345c0.037-20.409-16.109-36.541-36.517-36.488
		C234.217,339.13,218.294,355.15,218.374,375.662z"/>
	<path fill="#FFFFFF" d="M602.784,50.628c0.029,0.819-0.423,1.584-1.123,2.229c-0.353,0.325-0.721,0.635-1.079,0.955
		c-0.126,0.113-0.246,0.232-0.361,0.356c-0.187,0.203-0.289,0.444-0.258,0.722c0.019,0.177-0.05,0.223-0.215,0.213
		c-0.202-0.012-0.406-0.011-0.609,0c-0.146,0.007-0.179-0.052-0.184-0.189c-0.024-0.687,0.218-1.281,0.603-1.834
		c0.352-0.505,0.701-1.013,0.874-1.615c0.178-0.619,0.239-1.247,0.138-1.885c-0.092-0.586-0.498-0.9-1.124-0.87
		c-0.121,0.006-0.243,0.022-0.36,0.051c-0.345,0.087-0.546,0.32-0.575,0.673c-0.014,0.174-0.004,0.351-0.002,0.527
		c0.004,0.38-0.166,0.606-0.547,0.727c-0.374,0.119-0.698,0.027-0.898-0.27c-0.266-0.395-0.255-0.818-0.076-1.238
		c0.24-0.563,0.687-0.921,1.244-1.126c1.099-0.404,2.198-0.354,3.249,0.154C602.405,48.655,602.793,49.452,602.784,50.628z"/>
	<path fill="#FFFFFF" d="M598.049,57.872c-0.003-0.759,0.587-1.353,1.346-1.354c0.756-0.002,1.353,0.595,1.352,1.351
		c-0.001,0.746-0.592,1.34-1.339,1.346C598.649,59.22,598.052,58.63,598.049,57.872z"/>
</g>
<g display="none">
	<path fill="#FFFFFF" d="M589.042,63.841c0-6.931,0-13.861,0-20.796c6.928,0,13.857,0,20.792,0c0,6.929,0,13.863,0,20.796
		C602.907,63.841,595.975,63.841,589.042,63.841z M599.441,62.236c2.62,0,5.24,0.006,7.86-0.006
		c0.381-0.002,0.775-0.042,1.141-0.143c0.861-0.236,1.306-0.899,1.229-1.761c-0.04-0.454-0.223-0.86-0.448-1.25
		c-2.651-4.592-5.301-9.185-7.959-13.774c-0.171-0.295-0.383-0.579-0.623-0.82c-0.675-0.679-1.553-0.728-2.276-0.101
		c-0.3,0.26-0.556,0.596-0.756,0.941c-2.631,4.533-5.249,9.074-7.868,13.615c-0.145,0.251-0.281,0.511-0.385,0.781
		c-0.455,1.186,0.076,2.174,1.316,2.438c0.302,0.064,0.618,0.077,0.928,0.078C594.214,62.239,596.827,62.236,599.441,62.236z"/>
	<path display="inline" d="M256.076,483.745c-65.063,0-130.126,0.062-195.188-0.082c-7.714-0.017-15.601-0.338-23.108-1.932
		C6.903,475.174-6.315,450.57,5.006,421.038c2.576-6.719,5.976-13.189,9.579-19.438C79.771,288.543,144.961,175.487,210.469,62.617
		c4.988-8.594,11.369-16.952,18.833-23.424c17.995-15.602,39.855-14.389,56.663,2.526c5.98,6.018,11.25,13.069,15.509,20.421
		c66.18,114.233,132.141,228.594,198.151,342.926c5.6,9.699,10.158,19.826,11.162,31.121c1.91,21.473-9.168,37.97-30.608,43.849
		c-9.123,2.501-18.915,3.51-28.41,3.553C386.54,483.885,321.308,483.745,256.076,483.745z M274.202,323.483
		c0.377-1.925,0.758-3.534,1.001-5.164c5.359-35.96,10.852-71.901,15.956-107.897c1.456-10.266,3.139-20.808,2.287-31.02
		c-1.187-14.228-9.433-24.941-23.007-30.044c-14.225-5.347-27.976-3.716-39.591,6.855c-12.104,11.015-14.562,25.034-12.085,40.66
		c6.508,41.057,12.721,82.161,19.202,123.223c0.2,1.264,2.043,3.216,3.157,3.241C252.054,323.58,262.993,323.483,274.202,323.483z
		 M294.526,384.421c-0.067-20.813-17.49-38.195-38.375-38.287c-20.957-0.092-38.758,17.761-38.526,38.638
		c0.229,20.596,17.563,37.633,38.375,37.717C276.915,422.573,294.592,405.107,294.526,384.421z"/>
	<path fill="#FFFFFF" d="M600.169,55.799c-0.45,0-0.89,0.004-1.329-0.006c-0.045-0.001-0.119-0.079-0.127-0.13
		c-0.26-1.649-0.51-3.3-0.771-4.949c-0.099-0.628-0.001-1.191,0.485-1.633c0.466-0.425,1.019-0.49,1.59-0.275
		c0.545,0.205,0.876,0.635,0.924,1.207c0.034,0.41-0.033,0.834-0.092,1.246c-0.205,1.446-0.426,2.889-0.641,4.334
		C600.199,55.657,600.184,55.722,600.169,55.799z"/>
	<path fill="#FFFFFF" d="M600.985,58.247c0.003,0.831-0.707,1.532-1.547,1.529c-0.836-0.003-1.532-0.688-1.541-1.515
		c-0.009-0.839,0.706-1.556,1.547-1.552C600.283,56.713,600.982,57.411,600.985,58.247z"/>
</g>
<g display="none">
	<path fill="#FFFFFF" d="M609.841,63.839c-6.931,0-13.861,0-20.796,0c0-6.928,0-13.857,0-20.792c6.929,0,13.863,0,20.796,0
		C609.841,49.975,609.841,56.906,609.841,63.839z M599.437,56.168c0.095,0.122,0.139,0.192,0.196,0.249
		c1.306,1.308,2.613,2.615,3.92,3.921c0.423,0.423,0.853,0.424,1.274,0.005c0.499-0.497,0.997-0.995,1.494-1.493
		c0.449-0.449,0.448-0.866-0.004-1.318c-1.307-1.307-2.614-2.614-3.92-3.922c-0.055-0.055-0.107-0.113-0.183-0.193
		c0.078-0.063,0.14-0.106,0.192-0.158c1.313-1.311,2.625-2.622,3.936-3.934c0.419-0.419,0.418-0.855-0.002-1.275
		c-0.493-0.494-0.987-0.985-1.481-1.478c-0.465-0.464-0.87-0.466-1.33-0.005c-1.307,1.307-2.614,2.613-3.922,3.92
		c-0.052,0.052-0.106,0.101-0.168,0.159c-0.062-0.059-0.116-0.107-0.168-0.159c-1.302-1.302-2.604-2.604-3.907-3.906
		c-0.48-0.48-0.874-0.478-1.359,0.006c-0.479,0.478-0.958,0.957-1.437,1.436c-0.461,0.462-0.462,0.871-0.001,1.332
		c1.302,1.302,2.604,2.604,3.906,3.907c0.056,0.056,0.109,0.115,0.171,0.18c-0.062,0.064-0.111,0.118-0.163,0.17
		c-1.316,1.317-2.633,2.633-3.949,3.95c-0.411,0.412-0.412,0.85-0.003,1.26c0.497,0.498,0.997,0.995,1.496,1.492
		c0.462,0.46,0.867,0.458,1.331-0.006c1.303-1.302,2.606-2.603,3.907-3.906C599.318,56.35,599.354,56.282,599.437,56.168z"/>
	<path display="inline" d="M599.437,56.168c-0.082,0.114-0.119,0.182-0.171,0.234c-1.301,1.303-2.604,2.605-3.907,3.906
		c-0.464,0.464-0.87,0.465-1.331,0.006c-0.499-0.497-0.998-0.993-1.496-1.492c-0.409-0.41-0.409-0.848,0.003-1.26
		c1.316-1.317,2.633-2.633,3.949-3.95c0.052-0.052,0.102-0.106,0.163-0.17c-0.062-0.065-0.115-0.124-0.171-0.18
		c-1.302-1.302-2.604-2.604-3.906-3.907c-0.461-0.461-0.46-0.87,0.001-1.332c0.479-0.479,0.958-0.957,1.437-1.436
		c0.485-0.485,0.878-0.487,1.359-0.006c1.302,1.302,2.604,2.604,3.907,3.906c0.052,0.052,0.106,0.1,0.168,0.159
		c0.062-0.059,0.116-0.108,0.168-0.159c1.307-1.307,2.614-2.613,3.922-3.92c0.46-0.46,0.865-0.458,1.33,0.005
		c0.494,0.492,0.988,0.984,1.481,1.478c0.419,0.42,0.421,0.856,0.002,1.275c-1.311,1.312-2.623,2.624-3.936,3.934
		c-0.052,0.052-0.115,0.095-0.192,0.158c0.076,0.08,0.128,0.138,0.183,0.193c1.307,1.307,2.614,2.614,3.92,3.922
		c0.451,0.452,0.453,0.869,0.004,1.318c-0.498,0.498-0.995,0.996-1.494,1.493c-0.421,0.419-0.85,0.418-1.274-0.005
		c-1.308-1.306-2.615-2.613-3.92-3.921C599.576,56.36,599.532,56.29,599.437,56.168z"/>
</g>
<g display="none">
	<path fill="#FFFFFF" d="M589.041,63.841c0-6.931,0-13.863,0-20.797c6.929,0,13.859,0,20.794,0c0,6.93,0,13.864,0,20.797
		C602.905,63.841,595.973,63.841,589.041,63.841z M609.679,53.442c0.001-5.66-4.576-10.238-10.237-10.24
		c-5.66-0.001-10.239,4.577-10.24,10.238c-0.001,5.661,4.576,10.239,10.238,10.239C605.101,63.68,609.678,59.104,609.679,53.442z"/>
	<path display="inline" d="M511,256.031C510.97,397.048,396.976,511.02,255.98,511C114.981,510.98,0.979,396.96,1,255.98
		C1.021,114.996,115.073,0.967,256.031,1C397.038,1.033,511.03,115.052,511,256.031z M256.003,458.198
		c110.911-0.005,202.199-91.295,202.194-202.201c-0.004-110.911-91.295-202.199-202.201-202.195
		c-110.911,0.004-202.2,91.296-202.195,202.201C53.807,366.914,145.098,458.203,256.003,458.198z"/>
	<path fill="#FFFFFF" d="M599.441,61.559c-4.453,0-8.118-3.665-8.119-8.118c0-4.453,3.665-8.118,8.118-8.119
		c4.453,0,8.118,3.665,8.119,8.118C607.559,57.893,603.894,61.559,599.441,61.559z M606.171,49.64
		c-0.05-0.193-0.15-0.107-0.237-0.07c-1.92,0.819-3.84,1.641-5.763,2.454c-0.106,0.045-0.247,0.047-0.362,0.023
		c-0.53-0.114-1-0.006-1.383,0.376c-0.383,0.382-0.51,0.857-0.372,1.38c0.171,0.651,0.724,1.071,1.38,1.079
		c0.642,0.008,1.209-0.419,1.387-1.067c0.043-0.157,0.123-0.256,0.247-0.347c0.501-0.37,0.997-0.746,1.494-1.12
		C603.764,51.447,604.965,50.546,606.171,49.64z M598.792,47.019c0.012,0.174,0.012,0.344,0.039,0.51
		c0.053,0.329,0.315,0.548,0.63,0.541c0.294-0.006,0.57-0.24,0.594-0.56c0.025-0.327,0.018-0.661-0.013-0.988
		c-0.029-0.301-0.308-0.51-0.611-0.51c-0.272,0-0.543,0.211-0.595,0.488C598.803,46.672,598.805,46.849,598.792,47.019z
		 M593.046,54.086c0.151-0.01,0.315-0.009,0.473-0.034c0.336-0.054,0.549-0.302,0.55-0.622c0.001-0.298-0.24-0.58-0.57-0.606
		c-0.314-0.025-0.635-0.021-0.948,0.011c-0.327,0.033-0.532,0.29-0.539,0.606c-0.006,0.296,0.221,0.564,0.538,0.613
		C592.71,54.079,592.874,54.076,593.046,54.086z M605.884,52.769c-0.002,0.008-0.005,0.016-0.007,0.024
		c-0.175,0.012-0.351,0.011-0.523,0.038c-0.329,0.052-0.548,0.315-0.542,0.629c0.006,0.293,0.24,0.57,0.559,0.594
		c0.327,0.025,0.661,0.017,0.988-0.013c0.277-0.025,0.458-0.243,0.501-0.531c0.037-0.246-0.086-0.518-0.332-0.611
		C606.326,52.823,606.099,52.81,605.884,52.769z M603.48,47.553c-0.023-0.271-0.18-0.499-0.417-0.582
		c-0.264-0.093-0.556-0.031-0.708,0.194c-0.177,0.261-0.342,0.536-0.474,0.822c-0.149,0.324-0.019,0.659,0.273,0.814
		c0.283,0.15,0.642,0.053,0.831-0.241c0.142-0.221,0.272-0.451,0.394-0.684C603.429,47.778,603.447,47.662,603.48,47.553z
		 M593.551,49.399c-0.271,0.027-0.499,0.187-0.581,0.424c-0.089,0.258-0.033,0.546,0.183,0.694c0.266,0.182,0.546,0.351,0.839,0.485
		c0.323,0.149,0.661,0.015,0.812-0.277c0.148-0.285,0.049-0.641-0.245-0.83c-0.216-0.139-0.439-0.266-0.666-0.384
		C593.787,49.456,593.665,49.435,593.551,49.399z M605.292,57.461c0.31-0.009,0.533-0.166,0.616-0.394
		c0.092-0.254,0.041-0.551-0.173-0.697c-0.283-0.193-0.583-0.368-0.894-0.51c-0.283-0.129-0.613,0.018-0.759,0.288
		c-0.133,0.244-0.081,0.605,0.156,0.767c0.282,0.193,0.592,0.346,0.895,0.508C605.195,57.457,605.274,57.458,605.292,57.461z
		 M597.065,48.18c-0.081-0.362-0.318-0.707-0.568-1.039c-0.161-0.214-0.444-0.262-0.696-0.16c-0.241,0.097-0.412,0.321-0.374,0.585
		c0.07,0.474,0.33,0.867,0.667,1.189c0.181,0.173,0.444,0.153,0.665,0.024C596.96,48.662,597.061,48.476,597.065,48.18z
		 M594.861,56.455c0.012-0.449-0.431-0.772-0.849-0.59c-0.282,0.122-0.552,0.285-0.805,0.462c-0.295,0.207-0.358,0.582-0.18,0.857
		c0.178,0.274,0.542,0.36,0.86,0.191c0.214-0.114,0.424-0.237,0.631-0.364C594.723,56.885,594.864,56.713,594.861,56.455z"/>
	<path display="inline" d="M423.614,161.346c-30.029,22.549-59.941,45.008-89.851,67.47c-12.397,9.31-24.745,18.685-37.217,27.892
		c-3.083,2.276-5.083,4.751-6.158,8.65c-4.454,16.15-18.564,26.772-34.556,26.579c-16.339-0.198-30.108-10.677-34.372-26.883
		c-3.43-13.038-0.284-24.858,9.26-34.38c9.542-9.519,21.246-12.205,34.438-9.372c2.856,0.613,6.372,0.545,9.009-0.57
		c47.897-20.253,95.705-40.718,143.536-61.126C419.874,158.681,422.365,156.547,423.614,161.346z"/>
	<path display="inline" d="M239.854,96.067c0.319-4.225,0.258-8.647,1.065-12.906c1.306-6.89,8.059-12.144,14.825-12.153
		c7.551-0.01,14.503,5.198,15.226,12.69c0.786,8.146,0.942,16.451,0.327,24.607c-0.6,7.961-7.478,13.783-14.792,13.939
		c-7.828,0.166-14.373-5.28-15.684-13.481C240.162,104.641,240.163,100.412,239.854,96.067z"/>
	<path display="inline" d="M96.74,272.085c-4.293-0.252-8.363-0.174-12.325-0.79c-7.889-1.226-13.55-7.904-13.392-15.279
		c0.169-7.891,5.256-14.273,13.412-15.103c7.808-0.794,15.787-0.886,23.611-0.272c8.214,0.645,14.225,7.68,14.189,15.091
		c-0.039,7.972-5.331,14.151-13.706,15.493C104.572,271.861,100.509,271.831,96.74,272.085z"/>
	<path display="inline" d="M416.471,239.269c5.368,1.028,11.005,1.349,16.034,3.266c6.113,2.33,9.18,9.101,8.257,15.228
		c-1.078,7.162-5.572,12.597-12.473,13.216c-8.155,0.732-16.452,0.932-24.609,0.315c-7.956-0.601-13.781-7.494-13.925-14.803
		c-0.154-7.829,5.289-14.375,13.496-15.668c4.289-0.676,8.687-0.658,13.036-0.954C416.349,239.669,416.41,239.469,416.471,239.269z"
		/>
	<path display="inline" d="M356.596,109.373c-0.822,2.699-1.259,5.599-2.543,8.056c-3.036,5.805-6.257,11.539-9.804,17.044
		c-4.714,7.315-13.633,9.724-20.692,5.992c-7.273-3.846-10.507-12.191-6.792-20.271c3.28-7.134,7.386-13.968,11.796-20.48
		c3.797-5.607,11.067-7.165,17.644-4.843C352.11,96.953,356.028,102.629,356.596,109.373z"/>
	<path display="inline" d="M109.307,155.331c2.845,0.903,5.886,1.427,8.494,2.785c5.661,2.949,11.229,6.123,16.597,9.574
		c7.325,4.709,9.789,13.572,6.112,20.669c-3.773,7.281-12.183,10.61-20.224,6.902c-7.281-3.357-14.264-7.547-20.885-12.089
		c-5.385-3.695-6.785-10.868-4.563-17.287C96.883,159.978,102.569,156,109.307,155.331z"/>
	<path display="inline" d="M401.742,356.142c-0.448-0.097-2.436-0.102-3.978-0.933c-7.524-4.052-15.245-7.862-22.279-12.662
		c-5.9-4.027-7.186-13.026-3.885-19.102c3.657-6.732,11.868-10.397,18.914-7.176c7.746,3.541,15.203,7.916,22.254,12.711
		c5.331,3.625,6.614,11.015,4.321,17.348C415.028,352.018,409.456,355.926,401.742,356.142z"/>
	<path display="inline" d="M196.844,124.968c-0.111,7.38-2.618,12.017-7.581,14.913c-5.513,3.218-12.075,3.718-16.574-0.589
		c-8.391-8.032-14.886-17.808-16.62-29.624c-0.964-6.57,3.305-12.144,9.303-14.566c6.272-2.533,13.323-1.334,17.332,3.99
		C188.931,107.361,194.832,115.945,196.844,124.968z"/>
	<path display="inline" d="M141.94,331.067c0.075,6.422-3.425,10.726-8.542,13.876c-5.146,3.168-10.372,6.228-15.71,9.059
		c-7.91,4.195-16.992,2.068-21.422-4.768c-4.442-6.856-2.871-16.208,4.475-21.354c6.294-4.408,13.006-8.47,20.04-11.514
		C131.213,311.851,142.24,319.875,141.94,331.067z"/>
</g>
<g display="none">
	<path display="inline" d="M282.192,511c-16.63,0-33.261,0-49.891,0c-1.274-0.332-2.529-0.831-3.824-0.972
		c-32.066-3.485-62.571-12.412-90.765-28.017C59.252,438.585,13.991,372.153,3.17,283.134c-5.16-42.449,0.279-84.22,17.671-123.417
		C63.959,62.542,139.122,9.372,245.133,1.623c46.174-3.375,90.286,7.043,131.051,29.226
		c66.715,36.305,109.795,91.385,128.579,165.14c2.403,9.436,3.975,19.084,5.932,28.633c0,20.954,0,41.909,0,62.863
		c-0.449,2.42-0.951,4.833-1.34,7.263c-7.211,45.074-24.567,85.763-53.367,121.25c-39.408,48.558-89.873,79.043-151.341,91.067
		C297.191,508.525,289.678,509.696,282.192,511z M154.447,233.375c24.968-25.29,54.22-35.986,88.743-31.228
		c3.919,0.54,5.993-0.461,8.304-3.422c23.835-30.53,47.783-60.972,71.765-91.388c7.351-9.323,13.706-9.802,21.994-1.572
		c20.058,19.917,40.022,39.929,59.969,59.957c1.619,1.626,3.142,3.506,4.157,5.543c3.13,6.278,1.103,11.771-6.287,17.412
		c-30.39,23.198-60.779,46.399-91.252,69.487c-2.828,2.143-3.979,4.067-3.305,7.83c2.217,12.376,1.943,24.805-0.6,37.15
		c-4.296,20.855-15.111,37.959-30.661,53.447c-15.462-15.498-30.69-30.761-46.167-46.274
		c-42.448,32.524-85.02,65.143-127.636,97.795c74.977,78.552,211.596,91.793,303.245,3.909
		c86.44-82.889,90.388-221.93,2.448-308.756C317.495,12.76,173.407,19.689,90.57,118.647
		C12.448,211.974,32.595,339.67,102.924,407.18c32.63-42.609,65.229-85.178,97.834-127.756
		C185.223,263.976,170.029,248.868,154.447,233.375z"/>
	<path fill="#FFFFFF" d="M609.841,52.181c-0.08-0.389-0.144-0.782-0.242-1.166c-0.765-3.003-2.519-5.245-5.235-6.723
		c-1.66-0.903-3.456-1.327-5.336-1.19c-4.316,0.315-7.376,2.48-9.132,6.437c-0.708,1.596-0.93,3.296-0.719,5.025
		c0.44,3.624,2.283,6.329,5.478,8.097c1.148,0.635,2.39,0.999,3.695,1.141c0.053,0.006,0.104,0.026,0.156,0.04
		c-3.154,0-6.308,0-9.464,0c0-6.93,0-13.86,0-20.795c6.932,0,13.865,0,20.798,0C609.841,46.09,609.841,49.135,609.841,52.181z"/>
	<path fill="#FFFFFF" d="M600.537,63.841c0.305-0.053,0.611-0.101,0.914-0.16c2.503-0.49,4.557-1.731,6.162-3.708
		c1.173-1.445,1.879-3.101,2.173-4.936c0.016-0.099,0.036-0.197,0.055-0.296c0,3.033,0,6.067,0,9.1
		C606.74,63.841,603.639,63.841,600.537,63.841z"/>
	<path fill="#FFFFFF" d="M595.337,52.538c0.634,0.631,1.253,1.246,1.885,1.875c-1.327,1.733-2.655,3.467-3.983,5.201
		c-2.863-2.749-3.684-7.947-0.503-11.747c3.372-4.029,9.239-4.311,12.971-0.626c3.58,3.535,3.42,9.196-0.1,12.57
		c-3.731,3.578-9.294,3.039-12.346-0.159c1.735-1.329,3.468-2.657,5.196-3.982c0.63,0.632,1.25,1.253,1.88,1.884
		c0.633-0.631,1.073-1.327,1.248-2.176c0.104-0.503,0.115-1.009,0.024-1.513c-0.027-0.153,0.019-0.232,0.135-0.319
		c1.241-0.94,2.478-1.885,3.715-2.829c0.301-0.23,0.383-0.453,0.256-0.709c-0.041-0.083-0.103-0.16-0.169-0.226
		c-0.812-0.815-1.625-1.63-2.442-2.441c-0.337-0.335-0.596-0.316-0.895,0.064c-0.976,1.238-1.951,2.478-2.922,3.721
		c-0.094,0.121-0.179,0.161-0.338,0.139C597.544,51.072,596.353,51.508,595.337,52.538z"/>
</g>
<g display="none">
	<path display="inline" d="M282.192,511c-16.63,0-33.261,0-49.891,0c-1.274-0.332-2.529-0.831-3.824-0.972
		c-32.066-3.485-62.571-12.412-90.765-28.017C59.252,438.585,13.991,372.153,3.17,283.134c-5.16-42.449,0.279-84.22,17.671-123.417
		C63.959,62.542,139.122,9.372,245.133,1.623c46.174-3.375,90.286,7.043,131.051,29.226
		c66.715,36.305,109.795,91.385,128.579,165.14c2.403,9.436,3.975,19.084,5.932,28.633c0,20.954,0,41.909,0,62.863
		c-0.449,2.42-0.951,4.833-1.34,7.263c-7.211,45.074-24.567,85.763-53.367,121.25c-39.408,48.558-89.873,79.043-151.341,91.067
		C297.191,508.525,289.678,509.696,282.192,511z M421.975,395.428c68.176-79.08,72.549-207.792-12.958-292.361
		c-88.23-87.262-216.761-76.847-290.589-12.115c1.223,1.305,2.412,2.648,3.678,3.915c19.629,19.644,39.278,39.27,58.889,58.931
		c1.754,1.758,3.475,3.607,4.885,5.641c6.491,9.364,3.119,22.537-6.996,27.722c-8.63,4.424-16.753,2.77-24.759-5.216
		c-19.899-19.845-39.751-39.737-59.63-59.602c-1.249-1.248-2.568-2.426-3.871-3.652c-75.425,89.772-60.533,218.658,12.312,288.475
		c32.631-42.611,65.231-85.182,98.137-128.153c-15.552-15.543-30.793-30.776-46.148-46.122
		c24.528-24.829,53.79-35.516,88.314-30.734c3.953,0.548,5.992-0.546,8.281-3.477c23.844-30.528,47.791-60.975,71.777-91.392
		c7.334-9.301,13.683-9.743,22.002-1.48c20.056,19.922,40.021,39.937,59.977,59.96c1.507,1.512,2.921,3.242,3.912,5.118
		c3.394,6.424,1.429,12.048-6.154,17.835c-30.526,23.298-61.052,46.596-91.657,69.79c-2.579,1.955-3.454,3.764-2.895,7.067
		c3.147,18.586,1.567,36.799-5.638,54.291c-5.683,13.797-14.243,25.685-25.78,36.817c-15.428-15.528-30.616-30.816-46.022-46.321
		c-42.452,32.529-85.025,65.149-127.651,97.811c80.47,82.609,210.363,83.927,291.922,13.703c-1.559-1.122-3.222-2.012-4.502-3.288
		c-20.381-20.304-40.722-40.647-61.038-61.015c-1.871-1.876-3.716-3.84-5.22-6.008c-4.858-7.003-4.198-16.761,1.382-23.076
		c8.239-9.325,20.461-9.239,30.171,0.415c18.398,18.289,36.72,36.653,55.031,55.029
		C414.764,387.579,418.199,391.415,421.975,395.428z"/>
	<path fill="#FFFFFF" d="M609.841,52.181c-0.08-0.389-0.144-0.782-0.242-1.166c-0.765-3.003-2.519-5.245-5.235-6.723
		c-1.66-0.903-3.456-1.327-5.336-1.19c-4.316,0.315-7.376,2.48-9.132,6.437c-0.708,1.596-0.93,3.296-0.719,5.025
		c0.44,3.624,2.283,6.329,5.478,8.097c1.148,0.635,2.39,0.999,3.695,1.141c0.053,0.006,0.104,0.026,0.156,0.04
		c-3.154,0-6.308,0-9.464,0c0-6.93,0-13.86,0-20.795c6.932,0,13.865,0,20.798,0C609.841,46.09,609.841,49.135,609.841,52.181z"/>
	<path fill="#FFFFFF" d="M600.537,63.841c0.305-0.053,0.611-0.101,0.914-0.16c2.503-0.49,4.557-1.731,6.162-3.708
		c1.173-1.445,1.879-3.101,2.173-4.936c0.016-0.099,0.036-0.197,0.055-0.296c0,3.033,0,6.067,0,9.1
		C606.74,63.841,603.639,63.841,600.537,63.841z"/>
	<path fill="#FFFFFF" d="M606.229,59.135c-0.154-0.163-0.294-0.32-0.441-0.468c-0.745-0.748-1.491-1.496-2.24-2.24
		c-0.395-0.393-0.893-0.397-1.228-0.017c-0.227,0.257-0.254,0.654-0.056,0.94c0.061,0.088,0.136,0.168,0.213,0.245
		c0.827,0.829,1.655,1.657,2.485,2.484c0.052,0.052,0.12,0.088,0.183,0.134c-3.321,2.859-8.609,2.805-11.885-0.558
		c1.735-1.33,3.469-2.658,5.197-3.982c0.627,0.631,1.246,1.254,1.874,1.886c0.47-0.453,0.818-0.937,1.05-1.499
		c0.293-0.712,0.358-1.454,0.23-2.21c-0.023-0.134,0.013-0.208,0.118-0.288c1.246-0.944,2.489-1.893,3.732-2.841
		c0.309-0.236,0.389-0.465,0.251-0.726c-0.04-0.076-0.098-0.147-0.159-0.208c-0.813-0.815-1.625-1.63-2.442-2.441
		c-0.339-0.336-0.597-0.318-0.896,0.06c-0.977,1.238-1.952,2.478-2.922,3.721c-0.093,0.119-0.176,0.164-0.337,0.142
		c-1.406-0.195-2.597,0.24-3.596,1.251c0.625,0.625,1.246,1.245,1.879,1.878c-1.34,1.749-2.667,3.483-3.995,5.218
		c-2.966-2.842-3.572-8.09-0.501-11.745c0.053,0.05,0.107,0.098,0.158,0.149c0.809,0.809,1.618,1.619,2.428,2.427
		c0.326,0.325,0.657,0.392,1.008,0.212c0.412-0.211,0.549-0.747,0.285-1.129c-0.057-0.083-0.128-0.158-0.199-0.23
		c-0.798-0.8-1.598-1.6-2.398-2.399c-0.052-0.052-0.1-0.106-0.15-0.159c3.006-2.635,8.239-3.059,11.831,0.493
		C609.182,50.675,609.004,55.916,606.229,59.135z"/>
</g>
<g display="none">
	<path fill="#FFFFFF" d="M609.834,63.841c-6.929,0-13.86,0-20.793,0c0-6.931,0-13.862,0-20.796c6.928,0,13.858,0,20.793,0
		C609.834,49.974,609.834,56.907,609.834,63.841z M592.741,51.987c0.983,0.983,1.948,1.952,2.92,2.914
		c0.127,0.125,0.133,0.202,0.023,0.345c-2.108,2.742-4.21,5.488-6.313,8.234c-0.042,0.055-0.081,0.113-0.122,0.17
		c0.011,0.01,0.022,0.02,0.033,0.03c2.858-2.189,5.717-4.379,8.604-6.59c1.035,1.035,2.052,2.053,3.081,3.082
		c0.195-0.222,0.399-0.438,0.587-0.668c0.796-0.974,1.315-2.07,1.47-3.331c0.087-0.705,0.057-1.405-0.058-2.102
		c-0.025-0.155,0.019-0.243,0.143-0.337c1.79-1.358,3.577-2.721,5.363-4.084c0.344-0.263,0.697-0.517,1.019-0.805
		c0.344-0.307,0.364-0.766,0.085-1.135c-0.065-0.086-0.142-0.164-0.218-0.24c-1.306-1.307-2.613-2.614-3.922-3.92
		c-0.091-0.09-0.185-0.18-0.29-0.252c-0.3-0.205-0.644-0.193-0.919,0.039c-0.118,0.099-0.218,0.222-0.314,0.344
		c-1.607,2.043-3.214,4.086-4.815,6.133c-0.091,0.116-0.178,0.159-0.323,0.138c-0.665-0.099-1.332-0.124-2.003-0.045
		C595.176,50.095,593.878,50.858,592.741,51.987z"/>
	<path display="inline" d="M87.844,220.454c28.245-28.073,60.488-47.015,100.164-51.665c16.658-1.952,33.235-1.322,49.765,1.13
		c3.592,0.533,5.76-0.535,8.019-3.423c39.799-50.859,79.713-101.628,119.648-152.38c2.381-3.026,4.878-6.072,7.8-8.541
		c6.827-5.768,15.378-6.071,22.829-0.977c2.615,1.787,4.963,4.023,7.216,6.271c32.506,32.44,64.98,64.913,97.443,97.397
		c1.899,1.9,3.797,3.841,5.416,5.975c6.937,9.148,6.441,20.561-2.112,28.189c-8.011,7.145-16.77,13.466-25.319,19.992
		c-44.38,33.876-88.773,67.735-133.257,101.472c-3.072,2.33-4.177,4.51-3.545,8.37c2.836,17.327,3.591,34.707,1.431,52.232
		c-3.859,31.311-16.749,58.55-36.537,82.755c-4.669,5.711-9.736,11.097-14.593,16.602c-25.578-25.588-50.852-50.871-76.559-76.587
		C143.93,402.201,72.906,456.6,1.882,511c-0.273-0.252-0.546-0.503-0.819-0.755c1.009-1.409,1.978-2.847,3.031-4.222
		c52.254-68.222,104.485-136.461,156.862-204.588c2.737-3.56,2.586-5.465-0.562-8.578
		C136.241,268.965,112.275,244.883,87.844,220.454z"/>
</g>
<g display="none">
	<path fill="#FFFFFF" d="M609.834,63.841c-6.929,0-13.86,0-20.793,0c0-6.931,0-13.862,0-20.796c6.928,0,13.858,0,20.793,0
		C609.834,49.974,609.834,56.907,609.834,63.841z M609.762,48.248c0.004-0.318-0.171-0.545-0.382-0.755
		c-1.322-1.321-2.643-2.642-3.965-3.963c-0.072-0.072-0.146-0.142-0.227-0.203c-0.332-0.247-0.716-0.226-1.014,0.059
		c-0.107,0.102-0.2,0.22-0.292,0.337c-1.598,2.032-3.195,4.066-4.793,6.099c-0.136,0.173-0.334,0.19-0.501,0.041
		c-0.045-0.04-0.087-0.086-0.13-0.129c-1.972-1.972-3.945-3.945-5.918-5.916c-0.09-0.09-0.189-0.176-0.296-0.245
		c-0.383-0.251-0.927-0.083-1.111,0.337c-0.155,0.353-0.073,0.67,0.26,1.003c5.524,5.524,11.048,11.049,16.574,16.572
		c0.081,0.081,0.17,0.156,0.265,0.219c0.378,0.251,0.933,0.086,1.116-0.328c0.161-0.365,0.087-0.664-0.25-1.002
		c-1.967-1.968-3.935-3.935-5.903-5.903c-0.048-0.048-0.099-0.093-0.142-0.145c-0.143-0.176-0.11-0.461,0.067-0.595
		c0.754-0.574,1.508-1.148,2.261-1.723c1.308-0.997,2.616-1.995,3.924-2.992C609.56,48.822,609.765,48.597,609.762,48.248z
		 M589.249,63.646c0.011,0.012,0.022,0.023,0.033,0.035c2.859-2.189,5.717-4.379,8.607-6.593c1.034,1.037,2.05,2.055,3.068,3.076
		c0.531-0.534,0.985-1.127,1.348-1.791c0.088-0.16,0.089-0.252-0.05-0.391c-2.441-2.43-4.876-4.868-7.312-7.304
		c-0.034-0.034-0.062-0.079-0.102-0.097c-0.046-0.021-0.115-0.042-0.154-0.023c-0.724,0.365-1.366,0.843-1.97,1.46
		c0.065,0.045,0.128,0.075,0.175,0.122c0.92,0.917,1.836,1.839,2.761,2.752c0.133,0.131,0.142,0.208,0.025,0.361
		c-2.108,2.74-4.209,5.486-6.311,8.231C589.327,63.538,589.288,63.592,589.249,63.646z"/>
	<path display="inline" d="M510.865,127.517c0.059,8.67-5.035,14.259-11.398,19.11c-32.502,24.776-64.994,49.565-97.495,74.342
		c-18.725,14.275-37.462,28.533-56.191,42.803c-4.388,3.344-5.216,10.416-1.667,14.795c1.054,1.3,2.337,2.416,3.526,3.605
		c48.892,48.894,97.788,97.782,146.673,146.683c8.39,8.393,10.217,15.828,6.218,24.901c-4.533,10.285-18.333,14.402-27.724,8.155
		c-2.361-1.57-4.584-3.43-6.591-5.436C328.919,319.23,191.65,181.958,54.382,44.685c-8.277-8.278-10.3-16.146-6.458-24.93
		C52.493,9.307,66.022,5.124,75.537,11.37c2.646,1.737,5.1,3.857,7.345,6.099c49.045,48.978,98.049,97.998,147.061,147.009
		c1.071,1.071,2.096,2.192,3.226,3.196c4.159,3.693,9.07,3.278,12.455-1.03c39.696-50.52,79.382-101.047,119.1-151.549
		c2.282-2.902,4.605-5.824,7.262-8.369c7.409-7.097,16.96-7.605,25.205-1.472c2.014,1.498,3.859,3.254,5.64,5.033
		c32.855,32.811,65.682,65.651,98.533,98.465C506.599,113.98,510.956,119.609,510.865,127.517z"/>
	<path display="inline" d="M1.133,510.139c0.979-1.333,1.935-2.683,2.94-3.996c52.24-68.204,104.448-136.434,156.827-204.531
		c2.916-3.791,2.691-5.702-0.62-8.97c-22.983-22.68-45.735-45.593-68.605-68.388c-1.166-1.163-2.733-1.923-4.345-3.03
		c15.022-15.334,30.962-27.211,48.954-36.288c0.96-0.484,2.675,0.035,3.821,0.56c1.004,0.459,1.704,1.584,2.536,2.416
		c60.53,60.529,121.022,121.097,181.688,181.489c3.471,3.455,3.432,5.742,1.252,9.723c-9.033,16.495-20.313,31.221-33.504,44.495
		c-25.316-25.379-50.553-50.679-76.245-76.435C144.019,402.19,72.989,456.595,1.958,511C1.683,510.713,1.408,510.426,1.133,510.139z
		"/>
</g>
</svg>
