<?xml version="1.0" encoding="utf-8"?>
<!-- Generator: Adobe Illustrator 17.0.0, SVG Export Plug-In . SVG Version: 6.00 Build 0)  -->
<!DOCTYPE svg PUBLIC "-//W3C//DTD SVG 1.1//EN" "http://www.w3.org/Graphics/SVG/1.1/DTD/svg11.dtd">
<svg version="1.1" id="Layer_1" xmlns="http://www.w3.org/2000/svg" xmlns:xlink="http://www.w3.org/1999/xlink" x="0px" y="0px"
	 width="512px" height="512px" viewBox="0 0 512 512" enable-background="new 0 0 512 512" xml:space="preserve">
<g>
	<line fill="none" stroke="#B35047" x1="32" y1="0" x2="32" y2="512"/>
	<line fill="none" stroke="#B35047" x1="64" y1="0" x2="64" y2="512"/>
	<line fill="none" stroke="#B35047" x1="96" y1="0" x2="96" y2="512"/>
	<line fill="none" stroke="#B35047" x1="128" y1="0" x2="128" y2="512"/>
	<line fill="none" stroke="#B35047" x1="160" y1="0" x2="160" y2="512"/>
	<line fill="none" stroke="#B35047" x1="192" y1="0" x2="192" y2="512"/>
	<line fill="none" stroke="#B35047" x1="224" y1="0" x2="224" y2="512"/>
	<line fill="none" stroke="#B35047" x1="256" y1="0" x2="256" y2="512"/>
	<line fill="none" stroke="#B35047" x1="288" y1="0" x2="288" y2="512"/>
	<line fill="none" stroke="#B35047" x1="320" y1="0" x2="320" y2="512"/>
	<line fill="none" stroke="#B35047" x1="352" y1="0" x2="352" y2="512"/>
	<line fill="none" stroke="#B35047" x1="384" y1="0" x2="384" y2="512"/>
	<line fill="none" stroke="#B35047" x1="416" y1="0" x2="416" y2="512"/>
	<line fill="none" stroke="#B35047" x1="448" y1="0" x2="448" y2="512"/>
	<line fill="none" stroke="#B35047" x1="480" y1="0" x2="480" y2="512"/>
	<line fill="none" stroke="#B35047" x1="0" y1="32" x2="512" y2="32"/>
	<line fill="none" stroke="#B35047" x1="0" y1="64" x2="512" y2="64"/>
	<line fill="none" stroke="#B35047" x1="0" y1="96" x2="512" y2="96"/>
	<line fill="none" stroke="#B35047" x1="0" y1="128" x2="512" y2="128"/>
	<line fill="none" stroke="#B35047" x1="0" y1="160" x2="512" y2="160"/>
	<line fill="none" stroke="#B35047" x1="0" y1="192" x2="512" y2="192"/>
	<line fill="none" stroke="#B35047" x1="0" y1="224" x2="512" y2="224"/>
	<line fill="none" stroke="#B35047" x1="0" y1="256" x2="512" y2="256"/>
	<line fill="none" stroke="#B35047" x1="0" y1="288" x2="512" y2="288"/>
	<line fill="none" stroke="#B35047" x1="0" y1="320" x2="512" y2="320"/>
	<line fill="none" stroke="#B35047" x1="0" y1="352" x2="512" y2="352"/>
	<line fill="none" stroke="#B35047" x1="0" y1="384" x2="512" y2="384"/>
	<line fill="none" stroke="#B35047" x1="0" y1="416" x2="512" y2="416"/>
	<line fill="none" stroke="#B35047" x1="0" y1="448" x2="512" y2="448"/>
	<line fill="none" stroke="#B35047" x1="0" y1="480" x2="512" y2="480"/>
	<rect x="0" fill="none" stroke="#B35047" width="512" height="512"/>
</g>
<image display="none" overflow="visible" width="512" height="512" xlink:href="../../../Knowledge/Icon/[+++++] (Full) Windows 8 Icons [icons8]/Buzz/message/message-512.png"  transform="matrix(0.0406 0 0 0.0406 570 65)">
</image>
<image display="none" overflow="visible" width="512" height="512" xlink:href="../../../Knowledge/Icon/[+++++] (Full) Windows 8 Icons [icons8]/Buzz/invisible/invisible-512.png"  transform="matrix(0.0406 0 0 0.0406 570 65)">
</image>
<image display="none" overflow="visible" width="512" height="512" xlink:href="../../../Knowledge/Icon/[+++++] (Full) Windows 8 Icons [icons8]/Buzz/forward/forward-512.png"  transform="matrix(0.0406 0 0 0.0406 570 65)">
</image>
<image display="none" overflow="visible" width="512" height="512" xlink:href="../../../Knowledge/Icon/[+++++] (Full) Windows 8 Icons [icons8]/Buzz/visible/visible-512.png"  transform="matrix(0.0406 0 0 0.0406 570 65)">
</image>
<image display="none" overflow="visible" width="512" height="512" xlink:href="../../../Knowledge/Icon/[+++++] (Full) Windows 8 Icons [icons8]/Buzz/star/star-512.png"  transform="matrix(0.0406 0 0 0.0406 570 65)">
</image>
<image display="none" overflow="visible" width="512" height="512" xlink:href="../../../Knowledge/Icon/[+++++] (Full) Windows 8 Icons [icons8]/Buzz/speech_bubble/speech_bubble-512.png"  transform="matrix(0.0406 0 0 0.0406 570 65)">
</image>
<image display="none" overflow="visible" width="512" height="512" xlink:href="../../../Knowledge/Icon/[+++++] (Full) Windows 8 Icons [icons8]/Buzz/reply/reply-512.png"  transform="matrix(0.0406 0 0 0.0406 570 65)">
</image>
<image display="none" overflow="visible" width="512" height="512" xlink:href="../../../Knowledge/Icon/[+++++] (Full) Windows 8 Icons [icons8]/Buzz/read_message/read_message-512.png"  transform="matrix(0.0406 0 0 0.0406 570 65)">
</image>
<image display="none" overflow="visible" width="512" height="512" xlink:href="../../../Knowledge/Icon/[+++++] (Full) Windows 8 Icons [icons8]/Buzz/outline_star/outline_star-512.png"  transform="matrix(0.0406 0 0 0.0406 570 65)">
</image>
<image display="none" overflow="visible" width="512" height="512" xlink:href="../../../Knowledge/Icon/[+++++] (Full) Windows 8 Icons [icons8]/Buzz/message_outline/message_outline-512_.png"  transform="matrix(0.0406 0 0 0.0406 573 87)">
</image>
<image display="none" overflow="visible" width="512" height="512" xlink:href="../../../Knowledge/Icon/[+++++] (Full) Windows 8 Icons [icons8]/Buzz/recurring_appointment/recurring_appointment-512_.png"  transform="matrix(0.0406 0 0 0.0406 573 87)">
</image>
<image display="none" overflow="visible" width="512" height="512" xlink:href="../../../Knowledge/Icon/[+++++] (Full) Windows 8 Icons [icons8]/Buzz/appointment_reminders/appointment_reminders-512_.png"  transform="matrix(0.0406 0 0 0.0406 573 87)">
</image>
<image display="none" overflow="visible" width="512" height="512" xlink:href="../../../Knowledge/Icon/[+++++] (Full) Windows 8 Icons [icons8]/Buzz/activity_feed/activity_feed-512_.png"  transform="matrix(0.0406 0 0 0.0406 573 87)">
</image>
<g>
	<path d="M130.466,1c56.113,0,112.227,0,168.34,0c2.186,0.64,4.378,1.263,6.558,1.924c13.267,4.022,23.78,12.509,33.395,21.872
		c26.741,26.037,53.146,52.422,79.516,78.838c6.551,6.563,12.72,13.552,18.613,20.716c8.326,10.122,15.103,21.171,15.113,34.871
		c0.062,91.246,0.283,182.494-0.118,273.738c-0.151,34.296-21.294,62.684-53.189,73.648c-5.581,1.919-11.467,2.951-17.212,4.393
		c-83.672,0-167.344,0-251.016,0c-5.746-1.442-11.632-2.474-17.214-4.393c-32.738-11.26-53.261-40.558-53.321-76.145
		c-0.089-52.761-0.024-105.523-0.024-158.285c0-63.546-0.06-127.092,0.025-190.638c0.048-35.587,20.582-64.885,53.32-76.145
		C118.833,3.474,124.72,2.442,130.466,1z M98.796,255.901c0,57.273-0.033,114.546,0.061,171.819
		c0.008,4.77,0.244,9.706,1.458,14.278c5.004,18.841,19.755,29.973,40.064,30.004c77.028,0.117,154.056,0.074,231.084,0.013
		c9.481-0.008,18.346-2.308,26.033-8.291c11.419-8.887,15.678-20.872,15.672-34.902c-0.034-82.506-0.014-165.012-0.036-247.518
		c-0.001-1.981-0.352-3.959-0.426-5.943c-0.322-8.647-5.538-13.242-13.241-15.247c-4.447-1.158-9.137-1.842-13.73-1.908
		c-22.738-0.327-45.48-0.451-68.22-0.481c-7.38-0.01-14.393-1.455-18.122-8.132c-2.453-4.393-3.799-9.945-3.906-15.014
		c-0.466-22.07-0.125-44.156-0.473-66.23c-0.093-5.889-0.975-11.931-2.591-17.589c-2.026-7.095-7.606-10.844-14.392-10.846
		c-45.984-0.014-91.969-0.049-137.953,0.079c-13.504,0.038-24.867,5.011-33.252,15.97c-6.256,8.176-8.039,17.625-8.037,27.623
		C98.802,141.023,98.796,198.462,98.796,255.901z"/>
	<path display="none" fill="#FFFFFF" d="M588.559,107.841c0.234-0.059,0.474-0.101,0.702-0.179c1.301-0.447,2.163-1.605,2.169-3.004
		c0.016-3.721,0.007-7.443,0.005-11.164c0-0.559-0.277-1.009-0.616-1.422c-0.24-0.292-0.492-0.577-0.759-0.845
		c-1.075-1.077-2.152-2.153-3.243-3.215c-0.392-0.382-0.821-0.728-1.362-0.892c-0.089-0.027-0.178-0.052-0.267-0.078
		c2.883,0,5.765,0,8.651,0c0,6.933,0,13.867,0,20.8C592.078,107.841,590.319,107.841,588.559,107.841z"/>
	<path display="none" fill="#FFFFFF" d="M578.322,87.041c-0.234,0.059-0.474,0.101-0.702,0.179
		c-1.335,0.459-2.173,1.654-2.175,3.106c-0.003,2.592-0.001,5.183-0.001,7.775c0,2.152-0.003,4.304,0.001,6.456
		c0.003,1.451,0.839,2.646,2.175,3.106c0.228,0.078,0.468,0.12,0.702,0.179c-1.76,0-3.521,0-5.281,0c0-6.933,0-13.867,0-20.8
		C574.801,87.041,576.561,87.041,578.322,87.041z"/>
	<path display="none" fill="#FFFFFF" d="M577.03,97.437c0-2.343,0-4.685,0-7.028c0-0.408,0.073-0.793,0.328-1.127
		c0.342-0.447,0.805-0.65,1.356-0.651c1.875-0.005,3.751-0.004,5.626-0.003c0.277,0,0.504,0.153,0.587,0.442
		c0.066,0.231,0.102,0.477,0.106,0.717c0.014,0.9,0,1.801,0.019,2.701c0.004,0.207,0.059,0.433,0.159,0.612
		c0.152,0.272,0.438,0.331,0.739,0.332c0.927,0.001,1.855,0.006,2.782,0.02c0.187,0.003,0.379,0.031,0.56,0.078
		c0.314,0.082,0.527,0.269,0.54,0.622c0.003,0.081,0.017,0.162,0.017,0.242c0.001,3.365,0,6.73,0.001,10.095
		c0,0.572-0.173,1.061-0.639,1.423c-0.313,0.244-0.675,0.338-1.062,0.338c-3.142,0.003-6.283,0.004-9.425-0.001
		c-0.828-0.001-1.43-0.455-1.634-1.224c-0.05-0.186-0.059-0.388-0.06-0.582C577.029,102.108,577.03,99.772,577.03,97.437z
		 M583.464,97.686c-0.4,0.043-0.781,0.087-1.164,0.123c-0.734,0.068-1.468,0.133-2.202,0.194c-0.177,0.015-0.281,0.108-0.356,0.259
		c-0.193,0.386-0.222,0.789-0.127,1.203c0.132,0.577,0.232,0.659,0.814,0.691c0.034,0.002,0.068,0.001,0.101,0.004
		c0.91,0.066,1.82,0.137,2.731,0.195c0.176,0.011,0.209,0.084,0.205,0.239c-0.009,0.372-0.001,0.744-0.003,1.116
		c-0.001,0.193,0.034,0.369,0.225,0.463c0.189,0.093,0.346,0.015,0.506-0.097c1.093-0.766,2.043-1.687,2.926-2.681
		c0.252-0.283,0.262-0.455,0-0.722c-0.61-0.624-1.219-1.248-1.856-1.844c-0.349-0.326-0.747-0.603-1.135-0.885
		c-0.303-0.221-0.638-0.051-0.663,0.323c-0.008,0.115-0.003,0.23-0.003,0.345C583.464,96.964,583.464,97.315,583.464,97.686z"/>
	<path d="M256.554,262.008c0-9.076-0.005-17.682,0.003-26.289c0.002-2.82-0.11-5.65,0.082-8.458
		c0.628-9.18,8.821-13.343,16.258-7.93c9.513,6.924,19.272,13.694,27.835,21.697c15.615,14.595,30.564,29.915,45.512,45.205
		c6.406,6.553,6.16,10.764-0.012,17.707c-21.662,24.369-44.955,46.958-71.752,65.741c-3.91,2.741-7.769,4.657-12.407,2.384
		c-4.689-2.298-5.554-6.62-5.529-11.353c0.048-9.125-0.136-18.253,0.078-27.373c0.089-3.801-0.725-5.595-5.038-5.87
		c-22.335-1.421-44.65-3.164-66.972-4.789c-0.827-0.06-1.659-0.045-2.487-0.09c-14.268-0.785-16.725-2.796-19.963-16.955
		c-2.323-10.155-1.602-20.037,3.123-29.503c1.844-3.694,4.405-5.982,8.733-6.344c18.008-1.506,36.009-3.096,54.002-4.766
		C237.397,264.151,246.755,263.05,256.554,262.008z"/>
</g>
</svg>
