<?xml version="1.0" encoding="utf-8"?>
<!-- Generator: Adobe Illustrator 17.0.0, SVG Export Plug-In . SVG Version: 6.00 Build 0)  -->
<!DOCTYPE svg PUBLIC "-//W3C//DTD SVG 1.1//EN" "http://www.w3.org/Graphics/SVG/1.1/DTD/svg11.dtd">
<svg version="1.1" id="Layer_1" xmlns="http://www.w3.org/2000/svg" xmlns:xlink="http://www.w3.org/1999/xlink" x="0px" y="0px"
	 width="512px" height="512px" viewBox="0 0 512 512" enable-background="new 0 0 512 512" xml:space="preserve">
<g>
	<line fill="none" stroke="#B35047" x1="32" y1="0" x2="32" y2="512"/>
	<line fill="none" stroke="#B35047" x1="64" y1="0" x2="64" y2="512"/>
	<line fill="none" stroke="#B35047" x1="96" y1="0" x2="96" y2="512"/>
	<line fill="none" stroke="#B35047" x1="128" y1="0" x2="128" y2="512"/>
	<line fill="none" stroke="#B35047" x1="160" y1="0" x2="160" y2="512"/>
	<line fill="none" stroke="#B35047" x1="192" y1="0" x2="192" y2="512"/>
	<line fill="none" stroke="#B35047" x1="224" y1="0" x2="224" y2="512"/>
	<line fill="none" stroke="#B35047" x1="256" y1="0" x2="256" y2="512"/>
	<line fill="none" stroke="#B35047" x1="288" y1="0" x2="288" y2="512"/>
	<line fill="none" stroke="#B35047" x1="320" y1="0" x2="320" y2="512"/>
	<line fill="none" stroke="#B35047" x1="352" y1="0" x2="352" y2="512"/>
	<line fill="none" stroke="#B35047" x1="384" y1="0" x2="384" y2="512"/>
	<line fill="none" stroke="#B35047" x1="416" y1="0" x2="416" y2="512"/>
	<line fill="none" stroke="#B35047" x1="448" y1="0" x2="448" y2="512"/>
	<line fill="none" stroke="#B35047" x1="480" y1="0" x2="480" y2="512"/>
	<line fill="none" stroke="#B35047" x1="0" y1="32" x2="512" y2="32"/>
	<line fill="none" stroke="#B35047" x1="0" y1="64" x2="512" y2="64"/>
	<line fill="none" stroke="#B35047" x1="0" y1="96" x2="512" y2="96"/>
	<line fill="none" stroke="#B35047" x1="0" y1="128" x2="512" y2="128"/>
	<line fill="none" stroke="#B35047" x1="0" y1="160" x2="512" y2="160"/>
	<line fill="none" stroke="#B35047" x1="0" y1="192" x2="512" y2="192"/>
	<line fill="none" stroke="#B35047" x1="0" y1="224" x2="512" y2="224"/>
	<line fill="none" stroke="#B35047" x1="0" y1="256" x2="512" y2="256"/>
	<line fill="none" stroke="#B35047" x1="0" y1="288" x2="512" y2="288"/>
	<line fill="none" stroke="#B35047" x1="0" y1="320" x2="512" y2="320"/>
	<line fill="none" stroke="#B35047" x1="0" y1="352" x2="512" y2="352"/>
	<line fill="none" stroke="#B35047" x1="0" y1="384" x2="512" y2="384"/>
	<line fill="none" stroke="#B35047" x1="0" y1="416" x2="512" y2="416"/>
	<line fill="none" stroke="#B35047" x1="0" y1="448" x2="512" y2="448"/>
	<line fill="none" stroke="#B35047" x1="0" y1="480" x2="512" y2="480"/>
	<rect x="0" fill="none" stroke="#B35047" width="512" height="512"/>
</g>
<g display="none">
	<path fill="#FFFFFF" d="M609.841,63.839c-6.931,0-13.861,0-20.796,0c0-6.928,0-13.857,0-20.792c6.929,0,13.863,0,20.796,0
		C609.841,49.975,609.841,56.906,609.841,63.839z M599.437,56.168c0.095,0.122,0.139,0.192,0.196,0.249
		c1.306,1.308,2.613,2.615,3.92,3.921c0.423,0.423,0.853,0.424,1.274,0.005c0.499-0.497,0.997-0.995,1.494-1.493
		c0.449-0.449,0.448-0.866-0.004-1.318c-1.307-1.307-2.614-2.614-3.92-3.922c-0.055-0.055-0.107-0.113-0.183-0.193
		c0.078-0.063,0.14-0.106,0.192-0.158c1.313-1.311,2.625-2.622,3.936-3.934c0.419-0.419,0.418-0.855-0.002-1.275
		c-0.493-0.494-0.987-0.985-1.481-1.478c-0.465-0.464-0.87-0.466-1.33-0.005c-1.307,1.307-2.614,2.613-3.922,3.92
		c-0.052,0.052-0.106,0.101-0.168,0.159c-0.062-0.059-0.116-0.107-0.168-0.159c-1.302-1.302-2.604-2.604-3.907-3.906
		c-0.48-0.48-0.874-0.478-1.359,0.006c-0.479,0.478-0.958,0.957-1.437,1.436c-0.461,0.462-0.462,0.871-0.001,1.332
		c1.302,1.302,2.604,2.604,3.906,3.907c0.056,0.056,0.109,0.115,0.171,0.18c-0.062,0.064-0.111,0.118-0.163,0.17
		c-1.316,1.317-2.633,2.633-3.949,3.95c-0.411,0.412-0.412,0.85-0.003,1.26c0.497,0.498,0.997,0.995,1.496,1.492
		c0.462,0.46,0.867,0.458,1.331-0.006c1.303-1.302,2.606-2.603,3.907-3.906C599.318,56.35,599.354,56.282,599.437,56.168z"/>
	<path display="inline" d="M599.437,56.168c-0.082,0.114-0.119,0.182-0.171,0.234c-1.301,1.303-2.604,2.605-3.907,3.906
		c-0.464,0.464-0.87,0.465-1.331,0.006c-0.499-0.497-0.998-0.993-1.496-1.492c-0.409-0.41-0.409-0.848,0.003-1.26
		c1.316-1.317,2.633-2.633,3.949-3.95c0.052-0.052,0.102-0.106,0.163-0.17c-0.062-0.065-0.115-0.124-0.171-0.18
		c-1.302-1.302-2.604-2.604-3.906-3.907c-0.461-0.461-0.46-0.87,0.001-1.332c0.479-0.479,0.958-0.957,1.437-1.436
		c0.485-0.485,0.878-0.487,1.359-0.006c1.302,1.302,2.604,2.604,3.907,3.906c0.052,0.052,0.106,0.1,0.168,0.159
		c0.062-0.059,0.116-0.108,0.168-0.159c1.307-1.307,2.614-2.613,3.922-3.92c0.46-0.46,0.865-0.458,1.33,0.005
		c0.494,0.492,0.988,0.984,1.481,1.478c0.419,0.42,0.421,0.856,0.002,1.275c-1.311,1.312-2.623,2.624-3.936,3.934
		c-0.052,0.052-0.115,0.095-0.192,0.158c0.076,0.08,0.128,0.138,0.183,0.193c1.307,1.307,2.614,2.614,3.92,3.922
		c0.451,0.452,0.453,0.869,0.004,1.318c-0.498,0.498-0.995,0.996-1.494,1.493c-0.421,0.419-0.85,0.418-1.274-0.005
		c-1.308-1.306-2.615-2.613-3.92-3.921C599.576,56.36,599.532,56.29,599.437,56.168z"/>
</g>
<image display="none" overflow="visible" width="512" height="512" xlink:href="../../../Knowledge/Icon/[+++++] (Full) Windows 8 Icons [icons8]/Very_Basic/checkmark/checkmark-512.png"  transform="matrix(0.0406 0 0 0.0406 709 84)">
</image>
<image display="none" overflow="visible" width="512" height="512" xlink:href="../../../Knowledge/Icon/[+++++] (Full) Windows 8 Icons [icons8]/Very_Basic/plus/plus-512.png"  transform="matrix(0.0406 0 0 0.0406 709 84)">
</image>
<image display="none" overflow="visible" width="512" height="512" xlink:href="../../../Knowledge/Icon/[+++++] (Full) Windows 8 Icons [icons8]/Very_Basic/minus/minus-512.png"  transform="matrix(0.0406 0 0 0.0406 709 84)">
</image>
<image display="none" overflow="visible" width="512" height="512" xlink:href="../../../Knowledge/Icon/[+++++] (Full) Windows 8 Icons [icons8]/Very_Basic/key/key-512.png"  transform="matrix(0.0406 0 0 0.0406 709 84)">
</image>
<image display="none" overflow="visible" width="512" height="512" xlink:href="../../../Knowledge/Icon/[+++++] (Full) Windows 8 Icons [icons8]/Very_Basic/info/info-512.png"  transform="matrix(0.0406 0 0 0.0406 709 84)">
</image>
<image display="none" overflow="visible" width="512" height="512" xlink:href="../../../Knowledge/Icon/[+++++] (Full) Windows 8 Icons [icons8]/Very_Basic/home/home-512.png"  transform="matrix(0.0406 0 0 0.0406 709 84)">
</image>
<image display="none" overflow="visible" width="512" height="512" xlink:href="../../../Knowledge/Icon/[+++++] (Full) Windows 8 Icons [icons8]/Very_Basic/globe/globe-512.png"  transform="matrix(0.0406 0 0 0.0406 709 84)">
</image>
<image display="none" overflow="visible" width="512" height="512" xlink:href="../../../Knowledge/Icon/[+++++] (Full) Windows 8 Icons [icons8]/Very_Basic/full_trash/full_trash-512.png"  transform="matrix(0.0406 0 0 0.0406 709 84)">
</image>
<image display="none" overflow="visible" width="512" height="512" xlink:href="../../../Knowledge/Icon/[+++++] (Full) Windows 8 Icons [icons8]/Very_Basic/empty_trash/empty_trash-512.png"  transform="matrix(0.0406 0 0 0.0406 709 84)">
</image>
<image display="none" overflow="visible" width="512" height="512" xlink:href="../../../Knowledge/Icon/[+++++] (Full) Windows 8 Icons [icons8]/Very_Basic/document/document-512.png"  transform="matrix(0.0406 0 0 0.0406 709 84)">
</image>
<image display="none" overflow="visible" width="512" height="512" xlink:href="../../../Knowledge/Icon/[+++++] (Full) Windows 8 Icons [icons8]/Very_Basic/clock/clock-512.png"  transform="matrix(0.0406 0 0 0.0406 709 84)">
</image>
<image display="none" overflow="visible" width="512" height="512" xlink:href="../../../Knowledge/Icon/[+++++] (Full) Windows 8 Icons [icons8]/Very_Basic/bookmark/bookmark-512.png"  transform="matrix(0.0406 0 0 0.0406 709 84)">
</image>
<image display="none" overflow="visible" width="512" height="512" xlink:href="../../../Knowledge/Icon/[+++++] (Full) Windows 8 Icons [icons8]/Very_Basic/refresh/refresh-512_.png"  transform="matrix(0.0406 0 0 0.0406 709 84)">
</image>
<image display="none" overflow="visible" width="512" height="512" xlink:href="../../../Knowledge/Icon/[+++++] (Full) Windows 8 Icons [icons8]/Very_Basic/puzzle/puzzle-512_.png"  transform="matrix(0.0406 0 0 0.0406 709 84)">
</image>
<image display="none" overflow="visible" width="512" height="512" xlink:href="../../../Knowledge/Icon/[+++++] (Full) Windows 8 Icons [icons8]/Very_Basic/upload/upload-512.png"  transform="matrix(0.0406 0 0 0.0406 709 84)">
</image>
<image display="none" overflow="visible" width="512" height="512" xlink:href="../../../Knowledge/Icon/[+++++] (Full) Windows 8 Icons [icons8]/Very_Basic/unlock/unlock-512.png"  transform="matrix(0.0406 0 0 0.0406 709 84)">
</image>
<image display="none" overflow="visible" width="512" height="512" xlink:href="../../../Knowledge/Icon/[+++++] (Full) Windows 8 Icons [icons8]/Very_Basic/sinchronize/sinchronize-512.png"  transform="matrix(0.0406 0 0 0.0406 709 84)">
</image>
<g>
	<path display="none" fill="#FFFFFF" d="M709.042,104.841c0-6.931,0-13.862,0-20.796c6.928,0,13.857,0,20.792,0
		c0,6.93,0,13.863,0,20.796C722.906,104.841,715.975,104.841,709.042,104.841z M718.225,104.052c0.809,0,1.597,0,2.388,0
		c0.015-0.064,0.03-0.116,0.039-0.169c0.149-0.832,0.301-1.663,0.44-2.496c0.023-0.139,0.088-0.181,0.207-0.229
		c0.532-0.212,1.061-0.433,1.584-0.666c0.123-0.055,0.199-0.053,0.306,0.024c0.578,0.414,1.161,0.819,1.743,1.227
		c0.159,0.112,0.319,0.221,0.439,0.304c0.581-0.572,1.142-1.126,1.712-1.688c-0.031-0.045-0.068-0.101-0.107-0.155
		c-0.49-0.681-0.98-1.362-1.472-2.042c-0.06-0.083-0.088-0.149-0.028-0.252c0.302-0.516,0.524-1.066,0.687-1.641
		c0.019-0.068,0.113-0.149,0.184-0.163c0.457-0.092,0.918-0.167,1.377-0.249c0.444-0.079,0.888-0.159,1.327-0.238
		c0-0.81,0-1.599,0-2.387c-0.065-0.015-0.117-0.031-0.17-0.04c-0.834-0.137-1.667-0.277-2.503-0.404
		c-0.138-0.021-0.187-0.079-0.234-0.2c-0.21-0.533-0.428-1.063-0.656-1.588c-0.049-0.112-0.058-0.185,0.016-0.289
		c0.429-0.6,0.85-1.205,1.274-1.809c0.1-0.142,0.198-0.286,0.267-0.385c-0.576-0.578-1.133-1.137-1.699-1.705
		c-0.033,0.022-0.089,0.059-0.143,0.098c-0.676,0.485-1.352,0.97-2.028,1.457c-0.079,0.057-0.142,0.103-0.251,0.038
		c-0.526-0.313-1.089-0.539-1.677-0.707c-0.059-0.017-0.129-0.097-0.141-0.158c-0.089-0.451-0.165-0.904-0.245-1.357
		c-0.08-0.452-0.159-0.903-0.24-1.356c-0.806,0-1.596,0-2.389,0c-0.015,0.068-0.031,0.127-0.041,0.187
		c-0.136,0.827-0.274,1.654-0.401,2.482c-0.02,0.132-0.082,0.169-0.195,0.213c-0.54,0.211-1.076,0.431-1.607,0.663
		c-0.115,0.05-0.188,0.053-0.289-0.02c-0.663-0.48-1.331-0.954-1.997-1.429c-0.065-0.046-0.132-0.091-0.177-0.122
		c-0.573,0.573-1.132,1.131-1.697,1.696c0.031,0.046,0.072,0.108,0.114,0.169c0.469,0.671,0.941,1.34,1.404,2.015
		c0.044,0.064,0.074,0.186,0.043,0.244c-0.299,0.541-0.538,1.105-0.706,1.7c-0.018,0.063-0.109,0.135-0.177,0.148
		c-0.418,0.08-0.84,0.143-1.26,0.213c-0.472,0.079-0.943,0.16-1.412,0.24c0,0.808,0,1.597,0,2.39
		c0.077,0.015,0.143,0.03,0.209,0.042c0.812,0.146,1.623,0.296,2.436,0.431c0.141,0.024,0.18,0.093,0.226,0.209
		c0.211,0.532,0.427,1.063,0.66,1.586c0.059,0.131,0.055,0.211-0.026,0.323c-0.477,0.657-0.939,1.325-1.423,1.977
		c-0.123,0.165-0.098,0.248,0.038,0.38c0.463,0.446,0.912,0.907,1.367,1.362c0.051,0.051,0.104,0.1,0.157,0.15
		c0.748-0.523,1.48-1.034,2.21-1.548c0.089-0.062,0.16-0.099,0.272-0.033c0.521,0.308,1.078,0.53,1.66,0.694
		c0.064,0.018,0.142,0.106,0.154,0.173c0.081,0.425,0.144,0.853,0.216,1.28C718.064,103.111,718.145,103.582,718.225,104.052z"/>
	<path d="M223.76,511c-2.113-12.443-4.263-24.943-6.353-37.452c-1.891-11.32-3.572-22.679-5.719-33.95
		c-0.337-1.768-2.389-4.096-4.096-4.577c-15.446-4.354-30.229-10.24-44.042-18.407c-2.956-1.748-4.859-0.774-7.211,0.882
		c-19.373,13.636-38.802,27.194-58.635,41.071c-1.387-1.324-2.802-2.621-4.159-3.978c-12.062-12.065-23.976-24.283-36.252-36.126
		c-3.619-3.492-4.264-5.699-1.011-10.081c12.839-17.291,25.106-35.006,37.754-52.442c2.153-2.969,2.24-5.084,0.686-8.562
		c-6.198-13.867-11.917-27.955-17.52-42.078c-1.222-3.08-2.25-4.933-5.989-5.557c-21.576-3.603-43.089-7.585-64.621-11.447
		c-1.757-0.315-3.502-0.698-5.542-1.107c0-21.05,0-41.972,0-63.408c12.454-2.115,24.957-4.261,37.468-6.356
		c11.142-1.866,22.321-3.537,33.415-5.65c1.794-0.342,4.215-2.264,4.686-3.926c4.471-15.791,10.8-30.746,18.733-45.102
		c0.843-1.525,0.029-4.783-1.13-6.473c-12.283-17.91-24.794-35.664-37.235-53.466c-1.121-1.603-2.19-3.242-3.019-4.472
		C68.966,83.346,83.784,68.536,98.989,53.34c1.217,0.836,2.983,2.011,4.709,3.242c17.681,12.615,35.394,25.186,52.992,37.917
		c2.677,1.936,4.601,1.879,7.661,0.543c14.09-6.15,28.327-11.976,42.646-17.576c2.99-1.169,4.628-2.146,5.165-5.654
		c3.369-21.98,7.05-43.912,10.648-65.856c0.26-1.587,0.682-3.148,1.08-4.957c21.045,0,41.994,0,63.386,0
		c2.123,12.026,4.239,24.005,6.354,35.985c2.12,12.008,4.127,24.038,6.491,35.998c0.32,1.618,2.185,3.733,3.746,4.179
		c15.601,4.456,30.539,10.454,44.485,18.748c2.894,1.721,4.561,0.513,6.663-1.001c17.913-12.908,35.853-25.777,53.792-38.65
		c1.445-1.037,2.934-2.013,3.805-2.608c15.019,15.066,29.792,29.886,45.082,45.224c-1.817,2.624-4.423,6.43-7.071,10.206
		c-11.234,16.019-22.408,32.08-33.791,47.992c-1.973,2.758-1.718,4.696-0.422,7.676c6.06,13.931,11.849,27.986,17.412,42.124
		c1.261,3.205,2.569,4.747,6.22,5.302c22.161,3.371,44.267,7.098,66.388,10.729c1.412,0.232,2.793,0.649,4.523,1.06
		c0,20.905,0,41.821,0,63.317c-11.648,2.087-23.418,4.209-35.194,6.302c-12.182,2.165-24.399,4.153-36.523,6.601
		c-1.892,0.382-4.375,2.52-4.886,4.327c-4.322,15.269-10.199,29.862-18.217,43.545c-1.612,2.751-0.87,4.485,0.731,6.693
		c13.066,18.02,26.056,36.095,39.061,54.159c1.039,1.444,2.022,2.928,2.843,4.122c-15.121,14.905-30.028,29.599-45.429,44.78
		c-3.167-2.193-7.42-5.109-11.642-8.069c-15.432-10.82-30.908-21.578-46.228-32.554c-2.852-2.043-4.861-2.093-8.122-0.634
		c-13.867,6.205-27.901,12.055-42.015,17.681c-3.158,1.259-4.874,2.386-5.49,6.071c-3.693,22.107-7.736,44.155-11.679,66.22
		c-0.251,1.406-0.644,2.787-1.04,4.477C266.13,511,245.21,511,223.76,511z M394.694,256.052
		c0.061-76.198-61.492-137.891-138.385-138.701c-75.729-0.797-138.916,62.246-138.977,138.661
		c-0.061,76.31,63.125,139.389,138.937,138.701C333.073,394.015,394.633,332.351,394.694,256.052z"/>
	<path display="none" fill="#FFFFFF" d="M724.668,94.441c-0.002,2.876-2.323,5.2-5.218,5.227c-2.858,0.026-5.239-2.352-5.237-5.228
		c0.002-2.88,2.384-5.257,5.239-5.227C722.35,89.244,724.67,91.569,724.668,94.441z M723.377,94.431
		c-0.007-2.167-1.787-3.936-3.951-3.927c-2.159,0.01-3.921,1.778-3.922,3.936c0,2.165,1.776,3.94,3.941,3.937
		C721.611,98.374,723.383,96.595,723.377,94.431z"/>
	<path d="M360.442,255.773c0.172,57.418-46.84,104.602-104.306,104.687c-57.424,0.085-104.56-47.001-104.553-104.44
		c0.008-57.241,46.754-104.159,104.036-104.418C313.025,151.343,360.27,198.294,360.442,255.773z M299.637,255.851
		c-0.233-24.362-20.246-44.249-44.321-44.043c-24.273,0.209-44.075,20.251-43.906,44.44c0.17,24.338,20.128,44.17,44.304,44.025
		C279.916,300.127,299.867,279.95,299.637,255.851z"/>
	<path display="none" fill="#FFFFFF" d="M721.085,94.434c0.009,0.908-0.743,1.669-1.656,1.674c-0.911,0.005-1.664-0.742-1.67-1.659
		c-0.006-0.912,0.74-1.667,1.655-1.675C720.322,92.766,721.076,93.516,721.085,94.434z"/>
</g>
<g display="none">
	<path fill="#FFFFFF" d="M709.041,104.841c0-6.931,0-13.863,0-20.797c6.929,0,13.859,0,20.794,0c0,6.93,0,13.864,0,20.797
		C722.905,104.841,715.973,104.841,709.041,104.841z M721.913,98.193c0.214,0.214,0.426,0.422,0.629,0.638
		c0.03,0.032,0.038,0.112,0.021,0.156c-0.253,0.655-0.107,1.216,0.383,1.705c1.174,1.172,2.346,2.346,3.52,3.518
		c0.072,0.072,0.146,0.142,0.227,0.202c0.485,0.357,1.024,0.448,1.537,0.136c0.368-0.224,0.676-0.555,0.988-0.861
		c0.68-0.669,0.676-1.533,0.004-2.207c-1.176-1.18-2.356-2.355-3.532-3.535c-0.489-0.49-1.051-0.633-1.705-0.38
		c-0.044,0.017-0.124,0.009-0.156-0.021c-0.216-0.203-0.424-0.415-0.64-0.629c1.308-1.725,1.887-3.646,1.634-5.781
		c-0.253-2.134-1.231-3.893-2.916-5.23c-3.175-2.519-7.62-2.192-10.402,0.589c-2.777,2.775-3.037,7.033-0.848,10.093
		c1.18,1.65,2.774,2.708,4.755,3.122C717.792,100.203,719.958,99.66,721.913,98.193z"/>
	<path display="inline" d="M316.849,348.522c-48.525,36.418-102.29,49.903-161.374,37.56
		c-49.183-10.275-88.743-36.533-118.044-77.498C-16.91,232.61-10.45,126.914,58.484,58.022
		C127.565-11.017,237.908-19.143,316.727,43.4c41.823,33.186,66.102,76.871,72.384,129.843
		c6.284,52.999-8.096,100.692-40.571,143.514c5.36,5.32,10.522,10.581,15.893,15.62c0.789,0.74,2.769,0.941,3.861,0.52
		c16.251-6.28,30.194-2.739,42.339,9.438c29.2,29.277,58.486,58.469,87.68,87.752c16.688,16.739,16.77,38.203-0.1,54.799
		c-7.74,7.614-15.392,15.824-24.531,21.386c-12.754,7.762-26.138,5.502-38.169-3.365c-2.019-1.488-3.86-3.247-5.639-5.025
		c-29.138-29.102-58.232-58.248-87.382-87.337c-12.156-12.131-15.791-26.057-9.504-42.325c0.423-1.095,0.229-3.081-0.511-3.867
		C327.425,358.991,322.151,353.841,316.849,348.522z M36.849,195.941c0.502,87.996,72.185,159.416,159.332,158.747
		c88.086-0.675,158.758-71.177,158.622-158.811C354.665,108.14,284.795,36.87,195.861,36.934
		C106.789,36.999,37.529,108.06,36.849,195.941z"/>
	<path fill="#FFFFFF" d="M710.634,92.047c0.027-3.54,2.817-6.402,6.405-6.405c3.582-0.003,6.397,2.868,6.402,6.402
		c0.005,3.53-2.841,6.37-6.389,6.397C713.542,98.468,710.654,95.591,710.634,92.047z M719.163,95.909
		c-1.705,0.109-3.174-0.376-4.398-1.526c-1.22-1.147-1.791-2.583-1.797-4.279c-1.007,1.574-0.836,4.014,0.891,5.512
		C715.455,96.999,717.741,96.952,719.163,95.909z"/>
	<path display="inline" d="M248.589,291.828c-35.315,25.891-92.065,27.062-131.658-7.276
		c-42.876-37.184-47.118-97.782-22.125-136.845c0.154,42.104,14.323,77.755,44.606,106.228
		C169.796,282.502,206.255,294.54,248.589,291.828z"/>
</g>
<g display="none">
	<path fill="#FFFFFF" d="M715.987,104.841c-2.314,0-4.629,0-6.945,0c0-6.929,0-13.857,0-20.8c4.142,0,8.286,0,12.43,0
		c-0.193,0.028-0.386,0.054-0.579,0.083c-1.839,0.281-3.154,1.272-3.961,2.94c-0.523,1.083-0.68,2.243-0.688,3.432
		c-0.002,0.241,0,0.482,0,0.717c0.813,0,1.595,0,2.387,0c0-0.206-0.011-0.396,0.002-0.585c0.033-0.492,0.043-0.989,0.122-1.474
		c0.124-0.754,0.399-1.46,0.988-1.977c0.979-0.86,2.125-0.912,3.301-0.54c1.02,0.323,1.521,1.139,1.799,2.116
		c0.205,0.718,0.216,1.456,0.206,2.194c-0.001,0.091,0,0.182,0,0.264c0.816,0,1.598,0,2.388,0c0-0.281,0.003-0.545,0-0.808
		c-0.016-1.373-0.248-2.694-0.975-3.886c-0.685-1.122-1.656-1.883-2.928-2.23c-0.434-0.118-0.886-0.167-1.33-0.248
		c2.546,0,5.092,0,7.637,0c0,3.385,0,6.771,0,10.156c-0.013-0.038-0.031-0.075-0.038-0.113c-0.23-1.243-1.171-2.034-2.433-2.035
		c-3.69-0.002-7.379-0.002-11.069,0c-1.383,0.001-2.44,1.011-2.45,2.39c-0.018,2.667-0.015,5.335-0.001,8.002
		c0.006,1.155,0.757,2.063,1.866,2.332C715.806,104.795,715.897,104.818,715.987,104.841z"/>
	<path display="inline" d="M112.523,511c-2.224-0.55-4.446-1.108-6.673-1.648c-27.193-6.593-45.605-28.873-45.754-57.187
		c-0.343-65.399-0.427-130.804,0.021-196.202c0.232-33.829,26.166-58.589,60.07-58.612c90.466-0.06,180.932-0.047,271.399-0.006
		c30.952,0.014,54.035,19.412,59.665,49.895c0.176,0.953,0.62,1.856,0.94,2.783c0,69.395,0,138.789,0,208.184
		c-0.341,1.091-0.796,2.16-1.005,3.275c-4.298,22.956-17.568,38.317-39.398,46.286c-3.991,1.457-8.253,2.174-12.39,3.233
		C303.773,511,208.148,511,112.523,511z M236.148,391.747c0,6.64-0.109,13.282,0.027,19.919c0.181,8.876,3.857,15.783,12.24,19.415
		c13.043,5.651,27.102-3.858,27.417-18.679c0.279-13.108,0.162-26.228,0.001-39.34c-0.04-3.28,0.905-5.288,3.636-7.351
		c13.016-9.832,17.914-23.212,15.077-39.066c-2.782-15.548-16.643-28.72-31.446-30.869c-18.223-2.646-33.869,5.234-42.217,21.262
		c-7.43,14.265-5.667,33.354,6.929,43.923c7.992,6.706,8.785,13.673,8.35,22.32C236.021,386.097,236.14,388.925,236.148,391.747z"/>
	<path display="inline" d="M264.925,1c10.887,1.976,21.986,3.171,32.619,6.074c31.173,8.51,54.998,27.172,71.785,54.675
		c17.845,29.235,23.528,61.622,23.914,95.284c0.074,6.462,0.011,12.926,0.011,19.822c-19.379,0-38.534,0-58.548,0
		c0-2.011-0.026-4.245,0.004-6.479c0.244-18.118-0.03-36.208-5.053-53.806c-6.836-23.948-19.11-43.962-44.119-51.881
		c-28.85-9.135-56.926-7.848-80.942,13.235c-14.444,12.68-21.201,29.982-24.229,48.472c-1.948,11.893-2.196,24.075-3.002,36.141
		c-0.309,4.618-0.05,9.274-0.05,14.332c-19.421,0-38.577,0-58.52,0c0-5.776-0.034-11.683,0.006-17.589
		c0.195-29.136,4.04-57.592,16.876-84.143c19.774-40.901,52.02-65.21,97.119-72.093c4.727-0.721,9.466-1.364,14.2-2.044
		C252.972,1,258.949,1,264.925,1z"/>
	<path fill="#FFFFFF" d="M727.688,104.841c0.169-0.043,0.342-0.072,0.505-0.132c0.89-0.325,1.432-0.951,1.607-1.888
		c0.008-0.045,0.027-0.089,0.041-0.134c0,0.718,0,1.435,0,2.153C729.123,104.841,728.405,104.841,727.688,104.841z"/>
	<path fill="#FFFFFF" d="M721.029,99.977c0-0.115-0.005-0.23,0.001-0.345c0.018-0.353-0.015-0.637-0.341-0.91
		c-0.514-0.431-0.586-1.21-0.283-1.791c0.341-0.654,0.979-0.975,1.722-0.867c0.604,0.088,1.169,0.625,1.283,1.259
		c0.116,0.647-0.084,1.192-0.615,1.593c-0.111,0.084-0.15,0.166-0.148,0.3c0.007,0.535,0.011,1.07,0,1.604
		c-0.013,0.604-0.586,0.992-1.118,0.762c-0.342-0.148-0.492-0.43-0.499-0.792C721.025,100.519,721.029,100.248,721.029,99.977z"/>
</g>
<g display="none">
	<path fill="#FFFFFF" d="M707.041,110.869c0-0.609,0-1.219,0-1.828c6.933,0,13.867,0,20.8,0c0,6.31,0,12.621,0,18.931
		c-0.064-0.033-0.132-0.06-0.19-0.101c-1.27-0.886-2.54-1.773-3.81-2.66c-0.059-0.042-0.121-0.08-0.154-0.101
		c-0.203,0.196-0.392,0.377-0.59,0.568c0.962,1.375,1.928,2.756,2.905,4.153c0.355-0.356,0.682-0.687,1.013-1.015
		c0.273-0.27,0.55-0.535,0.826-0.803c0,0.609,0,1.218,0,1.827c-6.93,0-13.859,0-20.8,0c0-6.31,0-12.62,0-18.931
		c0.064,0.033,0.132,0.06,0.19,0.101c1.265,0.882,2.528,1.765,3.792,2.648c0.065,0.045,0.133,0.087,0.177,0.116
		c0.203-0.194,0.392-0.375,0.589-0.564c-0.967-1.382-1.934-2.763-2.909-4.156c-0.355,0.354-0.683,0.684-1.015,1.012
		C707.593,110.336,707.316,110.601,707.041,110.869z M717.528,122.536c-0.034,0.045-0.075,0.118-0.132,0.175
		c-1.162,1.164-2.327,2.326-3.489,3.49c-0.319,0.32-0.675,0.582-1.098,0.749c-1.564,0.618-3.145-0.487-3.044-2.137
		c0.045-0.73,0.395-1.322,0.905-1.831c1.17-1.166,2.336-2.336,3.506-3.502c0.056-0.056,0.137-0.086,0.175-0.109
		c-0.651-0.652-1.252-1.254-1.881-1.884c-0.033,0.044-0.072,0.11-0.124,0.162c-1.147,1.15-2.3,2.295-3.442,3.451
		c-0.261,0.264-0.517,0.541-0.726,0.846c-1.115,1.632-1.36,3.36-0.489,5.178c0.862,1.799,3.011,2.872,4.973,2.529
		c1.203-0.21,2.213-0.761,3.069-1.619c1.171-1.174,2.346-2.346,3.518-3.518c0.047-0.047,0.091-0.097,0.127-0.135
		C718.766,123.772,718.164,123.171,717.528,122.536z M722.388,121.407c0.053-0.064,0.097-0.125,0.149-0.177
		c1.148-1.15,2.301-2.295,3.443-3.45c0.261-0.264,0.517-0.541,0.725-0.846c1.114-1.633,1.357-3.361,0.486-5.178
		c-0.862-1.799-3.011-2.869-4.975-2.525c-1.188,0.208-2.192,0.746-3.039,1.592c-1.188,1.186-2.375,2.374-3.562,3.561
		c-0.042,0.042-0.08,0.087-0.11,0.121c0.61,0.609,1.211,1.21,1.851,1.849c0.037-0.052,0.076-0.127,0.132-0.184
		c1.162-1.165,2.326-2.326,3.488-3.491c0.319-0.32,0.675-0.582,1.098-0.749c1.566-0.615,3.145,0.491,3.041,2.14
		c-0.045,0.722-0.387,1.311-0.893,1.816c-1.174,1.171-2.346,2.345-3.518,3.518c-0.056,0.056-0.109,0.114-0.151,0.158
		C721.163,120.175,721.759,120.775,722.388,121.407z"/>
	<path display="inline" d="M511,466.129c-6.751,6.555-13.552,13.06-20.24,19.679c-8.125,8.041-16.155,16.178-24.848,24.898
		c-23.957-34.25-47.642-68.111-71.227-101.83c4.847-4.667,9.473-9.121,14.457-13.921c0.809,0.527,2.328,1.458,3.787,2.476
		c31.134,21.745,62.257,43.508,93.407,65.23c1.433,0.999,3.104,1.655,4.664,2.471C511,465.465,511,465.797,511,466.129z"/>
	<path display="inline" d="M1,45.777c6.748-6.557,13.535-13.074,20.233-19.682c8.136-8.027,16.196-16.131,24.89-24.801
		c23.902,34.157,47.594,68.013,71.314,101.911c-4.828,4.619-9.468,9.057-14.445,13.818c-1.087-0.711-2.744-1.735-4.339-2.848
		C67.658,92.53,36.675,70.867,5.664,49.244C4.231,48.245,2.56,47.589,1,46.773C1,46.441,1,46.109,1,45.777z"/>
	<path display="inline" d="M258.134,331.838c15.611,15.578,30.375,30.311,45.326,45.23c-0.876,0.933-1.957,2.151-3.107,3.301
		c-28.754,28.757-57.544,57.478-86.265,86.267c-20.988,21.037-45.764,34.527-75.257,39.686c-48.116,8.417-100.806-17.879-121.942-62
		c-21.357-44.583-15.331-86.947,11.995-126.961c5.108-7.48,11.398-14.269,17.792-20.734c28.012-28.324,56.269-56.404,84.403-84.608
		c1.279-1.282,2.222-2.899,3.035-3.979c15.429,15.452,30.167,30.212,46.132,46.201c-0.917,0.557-2.911,1.303-4.285,2.672
		c-28.688,28.588-57.269,57.283-85.955,85.872c-12.522,12.48-21.095,26.989-22.198,44.893c-2.494,40.455,36.282,67.54,74.626,52.397
		c10.37-4.095,19.091-10.531,26.92-18.376c28.489-28.552,57.052-57.03,85.547-85.577
		C256.295,334.728,257.306,332.951,258.134,331.838z"/>
	<path display="inline" d="M377.298,304.156c-15.408-15.492-30.022-30.185-44.974-45.219c1.048-1.1,2.35-2.523,3.712-3.886
		c28.745-28.766,57.466-57.555,86.261-86.271c12.403-12.368,20.776-26.811,21.89-44.515c2.545-40.444-36.178-67.561-74.566-52.483
		c-10.377,4.076-19.105,10.51-26.932,18.355c-28.489,28.552-57.047,57.035-85.532,85.592c-1.393,1.397-2.341,3.237-3.249,4.52
		c-15.681-15.67-30.428-30.407-45.379-45.347c0.744-0.815,1.682-1.93,2.708-2.957c29.105-29.11,58.207-58.223,87.337-87.308
		c20.778-20.746,45.387-33.929,74.517-39.033c48.154-8.437,100.845,17.811,121.984,61.909
		c21.362,44.565,15.401,86.939-11.911,126.97c-5.105,7.482-11.391,14.275-17.786,20.739c-28.015,28.32-56.275,56.398-84.424,84.586
		C379.668,301.096,378.598,302.599,377.298,304.156z"/>
</g>
<g display="none">
	<path fill="#FFFFFF" d="M709.041,84.041c6.933,0,13.867,0,20.8,0c0,6.933,0,13.867,0,20.8c-6.933,0-13.867,0-20.8,0
		C709.041,97.907,709.041,90.974,709.041,84.041z M718.09,99.008c-0.71,0.712-1.429,1.437-2.153,2.158
		c-0.148,0.148-0.3,0.296-0.471,0.416c-0.769,0.54-1.6,0.743-2.485,0.33c-1.118-0.522-1.545-1.825-0.978-2.987
		c0.16-0.328,0.383-0.643,0.639-0.904c1.298-1.324,2.621-2.624,3.927-3.942c1-1.009,2.565-1.19,3.582-0.19
		c0.488,0.48,1.301,0.399,1.755-0.094c0.481-0.521,0.475-1.314-0.041-1.811c-1.114-1.075-2.458-1.488-3.983-1.302
		c-1.27,0.155-2.326,0.747-3.222,1.651c-1.253,1.265-2.527,2.508-3.768,3.784c-0.379,0.389-0.731,0.824-1.007,1.289
		c-0.668,1.124-0.894,2.349-0.589,3.632c0.594,2.497,2.95,4.036,5.462,3.592c1.158-0.204,2.13-0.756,2.955-1.583
		c1.148-1.149,2.297-2.297,3.446-3.446c0.04-0.04,0.076-0.083,0.105-0.116C720.154,99.754,719.114,99.574,718.09,99.008z
		 M720.786,89.874c0.728-0.73,1.465-1.467,2.2-2.205c0.314-0.315,0.666-0.572,1.082-0.737c1.567-0.619,3.137,0.472,3.048,2.13
		c-0.038,0.715-0.373,1.303-0.873,1.803c-0.713,0.713-1.426,1.426-2.139,2.14c-0.598,0.598-1.197,1.196-1.795,1.795
		c-0.422,0.423-0.917,0.714-1.508,0.821c-0.78,0.141-1.445-0.077-2.037-0.607c-0.55-0.493-1.355-0.429-1.816,0.104
		c-0.48,0.554-0.427,1.329,0.126,1.837c1.219,1.121,2.655,1.486,4.265,1.189c1.112-0.205,2.043-0.758,2.837-1.555
		c1.261-1.266,2.53-2.524,3.788-3.793c0.266-0.268,0.528-0.549,0.74-0.86c1.113-1.632,1.359-3.359,0.488-5.178
		c-0.861-1.797-3.01-2.87-4.973-2.527c-1.195,0.209-2.203,0.752-3.054,1.604c-1.134,1.135-2.269,2.268-3.403,3.403
		c-0.046,0.046-0.09,0.096-0.137,0.147C718.739,89.139,719.776,89.306,720.786,89.874z"/>
	<path display="inline" d="M222.52,369.427c25.396,14.048,51.199,18.494,78.769,11.877c-0.73,0.809-1.621,1.889-2.606,2.874
		c-28.496,28.508-57.017,56.991-85.501,85.511c-20.482,20.508-44.602,34.202-73.329,39.276
		C77.508,519.977,19.043,481.788,4.315,419.834c-7.57-31.844-1.956-62.241,14.611-90.128c6.866-11.557,15.598-22.337,24.997-31.995
		c30.805-31.651,62.414-62.517,93.503-93.894c22.232-22.438,48.432-37.121,79.951-40.969c37.818-4.616,71.172,5.643,98.82,32.314
		c12.793,12.341,12.945,32.011,1.015,44.943c-11.287,12.235-31.443,14.244-43.558,2.334c-25.237-24.809-64.064-20.338-88.885,4.71
		c-32.391,32.687-65.219,64.943-97.433,97.803c-6.345,6.473-11.881,14.295-15.852,22.439c-14.055,28.827-3.472,61.165,24.273,74.107
		c21.953,10.24,42.582,5.218,61.655-8.189c4.227-2.972,8.002-6.662,11.681-10.327C187.053,405.093,204.911,387.099,222.52,369.427z"
		/>
	<path display="inline" d="M289.421,142.773c-25.062-14.089-50.802-18.223-78.5-12.16c1.186-1.27,2.262-2.494,3.411-3.643
		c28.144-28.148,56.306-56.279,84.443-84.434c21.132-21.145,46.132-34.614,75.787-39.805
		c48.704-8.525,102.044,18.099,123.404,62.693c21.61,45.117,15.512,87.98-12.102,128.475c-5.256,7.708-11.757,14.687-18.351,21.342
		c-31.207,31.496-62.685,62.722-93.987,94.125c-19.709,19.772-42.797,33.489-70.396,38.574
		c-39.954,7.361-75.566-1.678-105.821-29.505c-13.707-12.607-15.016-31.814-3.117-45.571c11.441-13.229,31.41-14.827,45.053-2.588
		c14.677,13.167,31.196,18.568,50.541,15.071c14.681-2.654,26.958-9.862,37.426-20.362c14.822-14.868,29.685-29.695,44.53-44.54
		c17.695-17.695,35.391-35.39,53.084-53.088c12.399-12.402,20.707-26.979,21.658-44.728c2.204-41.141-36.743-68.217-75.625-52.861
		c-10.326,4.078-19.068,10.455-26.855,18.28C325.766,106.38,307.486,124.667,289.421,142.773z"/>
</g>
<g display="none">
	<path fill="#FFFFFF" d="M709.042,104.841c0-6.931,0-13.862,0-20.797c6.929,0,13.859,0,20.794,0c0,6.93,0,13.864,0,20.797
		C722.905,104.841,715.973,104.841,709.042,104.841z M719.442,89.104c-0.514-0.398-1.021-0.839-1.575-1.211
		c-1.708-1.148-3.859-0.838-5.24,0.124c-1.436,0.999-1.987,2.442-1.972,4.14c0.013,1.48,0.601,2.741,1.5,3.88
		c0.705,0.892,1.543,1.65,2.406,2.382c1.455,1.234,2.988,2.378,4.257,3.821c0.362,0.411,0.906,0.371,1.283-0.034
		c0.207-0.223,0.397-0.466,0.624-0.667c0.94-0.837,1.881-1.672,2.84-2.487c1.099-0.934,2.219-1.843,3.129-2.975
		c1.148-1.429,1.736-3.028,1.474-4.881c-0.128-0.904-0.471-1.717-1.061-2.419c-1.337-1.591-4.113-2.242-6.139-0.856
		C720.43,88.288,719.935,88.719,719.442,89.104z"/>
	<path display="inline" d="M255.986,89.471c14.284-11.156,28.665-23.678,44.299-34.369c58.81-40.216,139.363-21.337,178.149,24.841
		c17.126,20.39,27.081,43.965,30.782,70.206c7.585,53.782-9.455,100.174-42.779,141.641c-26.401,32.853-58.891,59.25-90.793,86.341
		c-27.831,23.634-55.141,47.887-82.417,72.164c-6.571,5.849-12.084,12.885-18.101,19.358c-10.945,11.774-26.743,12.939-37.239,0.999
		c-36.817-41.881-81.307-75.087-123.522-110.882c-25.048-21.239-49.371-43.235-69.82-69.121
		C18.448,257.611,1.388,220.994,1.009,178.06c-0.435-49.271,15.539-91.13,57.22-120.133c40.097-27.9,102.512-36.909,152.068-3.587
		C226.347,65.133,241.062,77.912,255.986,89.471z M254.057,423.05c1.213-0.124,2.426-0.248,3.64-0.372
		c6.358-6.956,12.103-14.622,19.182-20.744c30.156-26.079,60.75-51.651,91.101-77.506c26.952-22.959,53.226-46.557,73.258-76.217
		c18.652-27.616,26.642-57.559,22.51-90.945c-9.151-73.924-90.133-92.647-131.817-67.71c-21.769,13.023-39.946,29.64-55.817,49.135
		c-12.376,15.203-27.827,14.897-40.663-0.02c-8.691-10.1-17.647-20.134-27.566-28.984c-23.477-20.948-49.608-35.053-82.858-29.373
		c-31.947,5.458-57.028,20.42-69.625,51.253c-14.971,36.644-10.394,72.394,8.862,106.341c15.707,27.69,37.801,50.138,61.614,70.79
		c36.204,31.398,73.032,62.076,109.273,93.432C242.206,408.234,247.793,416.033,254.057,423.05z"/>
	<path display="inline" stroke="#000000" d="M257.696,422.678c-1.213,0.124-2.426,0.248-3.64,0.372
		c-6.264-7.017-11.851-14.816-18.905-20.919c-36.242-31.355-73.069-62.034-109.273-93.432c-23.813-20.652-45.908-43.1-61.614-70.79
		c-19.256-33.947-23.834-69.697-8.862-106.341c12.597-30.833,37.678-45.796,69.625-51.253c33.25-5.68,59.381,8.425,82.858,29.373
		c9.919,8.851,18.875,18.884,27.566,28.984c20.55-14.838,10.287,22.222,22.663,7.02"/>
</g>
<g display="none">
	<path fill="#FFFFFF" d="M729.841,104.84c-6.931,0-13.862,0-20.797,0c0-6.928,0-13.858,0-20.793c6.93,0,13.863,0,20.797,0
		C729.841,90.976,729.841,97.907,729.841,104.84z M719.408,89.168c-0.088-0.094-0.181-0.2-0.282-0.298
		c-0.107-0.104-0.218-0.203-0.332-0.299c-1.165-0.986-2.45-1.602-4.033-1.359c-1.271,0.194-2.357,0.719-3.13,1.766
		c-1.094,1.483-1.21,3.131-0.696,4.847c0.317,1.057,0.943,1.941,1.677,2.75c0.89,0.981,1.912,1.818,2.93,2.658
		c1.107,0.913,2.221,1.819,3.173,2.902c0.463,0.527,0.967,0.508,1.452,0.002c0.538-0.561,1.083-1.12,1.667-1.633
		c1.017-0.893,2.076-1.739,3.097-2.627c0.88-0.765,1.702-1.591,2.323-2.591c0.982-1.581,1.272-3.264,0.67-5.048
		c-0.801-2.37-3.207-3.355-5.302-3.002c-0.796,0.134-1.49,0.522-2.125,1.008C720.13,88.527,719.788,88.845,719.408,89.168z"/>
	<path display="inline" d="M255.064,91.574c11.007-9.383,20.92-18.587,31.608-26.777c18.38-14.084,38.519-25.328,61.577-29.209
		c60.726-10.22,130.467,18.333,153.674,87.012c17.465,51.687,9.045,100.475-19.414,146.298
		c-18.003,28.988-41.808,52.924-67.328,75.103c-29.609,25.734-60.295,50.235-89.762,76.127
		c-16.909,14.858-32.71,31.048-48.301,47.317c-14.067,14.679-28.66,15.211-42.081-0.054c-27.599-31.391-59.887-57.633-91.967-84.107
		c-29.513-24.356-59.123-48.613-84.925-77.039c-21.279-23.442-39.428-49.058-48.612-79.695
		C-5.378,176.81-2.004,129.05,29.695,86.076c22.386-30.348,53.886-45.564,90.71-51.197c45.881-7.018,83.135,10.835,116.886,39.399
		c3.293,2.787,6.524,5.662,9.614,8.671C249.823,85.792,252.517,88.864,255.064,91.574z"/>
</g>
</svg>
