<?xml version="1.0" encoding="utf-8"?>
<!-- Generator: Adobe Illustrator 17.0.0, SVG Export Plug-In . SVG Version: 6.00 Build 0)  -->
<!DOCTYPE svg PUBLIC "-//W3C//DTD SVG 1.1//EN" "http://www.w3.org/Graphics/SVG/1.1/DTD/svg11.dtd">
<svg version="1.1" id="Layer_1" xmlns="http://www.w3.org/2000/svg" xmlns:xlink="http://www.w3.org/1999/xlink" x="0px" y="0px"
	 width="512px" height="512px" viewBox="0 0 512 512" enable-background="new 0 0 512 512" xml:space="preserve">
<g>
	<line fill="none" stroke="#B35047" x1="32" y1="0" x2="32" y2="512"/>
	<line fill="none" stroke="#B35047" x1="64" y1="0" x2="64" y2="512"/>
	<line fill="none" stroke="#B35047" x1="96" y1="0" x2="96" y2="512"/>
	<line fill="none" stroke="#B35047" x1="128" y1="0" x2="128" y2="512"/>
	<line fill="none" stroke="#B35047" x1="160" y1="0" x2="160" y2="512"/>
	<line fill="none" stroke="#B35047" x1="192" y1="0" x2="192" y2="512"/>
	<line fill="none" stroke="#B35047" x1="224" y1="0" x2="224" y2="512"/>
	<line fill="none" stroke="#B35047" x1="256" y1="0" x2="256" y2="512"/>
	<line fill="none" stroke="#B35047" x1="288" y1="0" x2="288" y2="512"/>
	<line fill="none" stroke="#B35047" x1="320" y1="0" x2="320" y2="512"/>
	<line fill="none" stroke="#B35047" x1="352" y1="0" x2="352" y2="512"/>
	<line fill="none" stroke="#B35047" x1="384" y1="0" x2="384" y2="512"/>
	<line fill="none" stroke="#B35047" x1="416" y1="0" x2="416" y2="512"/>
	<line fill="none" stroke="#B35047" x1="448" y1="0" x2="448" y2="512"/>
	<line fill="none" stroke="#B35047" x1="480" y1="0" x2="480" y2="512"/>
	<line fill="none" stroke="#B35047" x1="0" y1="32" x2="512" y2="32"/>
	<line fill="none" stroke="#B35047" x1="0" y1="64" x2="512" y2="64"/>
	<line fill="none" stroke="#B35047" x1="0" y1="96" x2="512" y2="96"/>
	<line fill="none" stroke="#B35047" x1="0" y1="128" x2="512" y2="128"/>
	<line fill="none" stroke="#B35047" x1="0" y1="160" x2="512" y2="160"/>
	<line fill="none" stroke="#B35047" x1="0" y1="192" x2="512" y2="192"/>
	<line fill="none" stroke="#B35047" x1="0" y1="224" x2="512" y2="224"/>
	<line fill="none" stroke="#B35047" x1="0" y1="256" x2="512" y2="256"/>
	<line fill="none" stroke="#B35047" x1="0" y1="288" x2="512" y2="288"/>
	<line fill="none" stroke="#B35047" x1="0" y1="320" x2="512" y2="320"/>
	<line fill="none" stroke="#B35047" x1="0" y1="352" x2="512" y2="352"/>
	<line fill="none" stroke="#B35047" x1="0" y1="384" x2="512" y2="384"/>
	<line fill="none" stroke="#B35047" x1="0" y1="416" x2="512" y2="416"/>
	<line fill="none" stroke="#B35047" x1="0" y1="448" x2="512" y2="448"/>
	<line fill="none" stroke="#B35047" x1="0" y1="480" x2="512" y2="480"/>
	<rect x="0" fill="none" stroke="#B35047" width="512" height="512"/>
</g>
<image display="none" overflow="visible" width="512" height="512" xlink:href="../../../Knowledge/Icon/[+++++] (Full) Windows 8 Icons [icons8]/Media_Controls/repeat/repeat-512.png"  transform="matrix(0.0406 0 0 0.0406 601 49)">
</image>
<image display="none" overflow="visible" width="512" height="512" xlink:href="../../../Knowledge/Icon/[+++++] (Full) Windows 8 Icons [icons8]/Media_Controls/pause/pause-512.png"  transform="matrix(0.0406 0 0 0.0406 601 49)">
</image>
<g>
	<path display="none" fill="#FFFFFF" d="M616.803,69.841c-5.254,0-10.508,0-15.762,0c0-1.289,0-2.574,0-3.859
		c0.009,0.018,0.025,0.035,0.027,0.054c0.103,0.832,0.803,1.423,1.727,1.405c0.731-0.014,1.462-0.012,2.193-0.001
		c1.262,0.019,2.289-0.469,3.033-1.475c0.578-0.781,1.113-1.598,1.619-2.429c1.533-2.519,3.037-5.054,4.564-7.576
		c0.244-0.403,0.544-0.773,0.826-1.153c0.049-0.067,0.134-0.147,0.205-0.151c0.334-0.016,0.67-0.007,1.011-0.007
		c0.006,0.058,0.013,0.098,0.013,0.138c0.001,0.521,0,1.042,0.003,1.563c0.001,0.281,0.116,0.497,0.38,0.617
		c0.262,0.119,0.489,0.063,0.713-0.116c1.316-1.052,2.637-2.098,3.957-3.145c0.631-0.501,0.63-0.829-0.001-1.33
		c-1.272-1.009-2.543-2.02-3.817-3.028c-0.141-0.112-0.298-0.205-0.447-0.307c1.597,0,3.194,0,4.792,0c0,6.933,0,13.867,0,20.8
		c-1.598,0-3.195,0-4.792,0c0.086-0.051,0.179-0.094,0.256-0.156c1.353-1.071,2.706-2.143,4.056-3.218
		c0.567-0.451,0.565-0.803,0-1.253c-1.345-1.071-2.692-2.139-4.039-3.206c-0.063-0.05-0.133-0.097-0.207-0.122
		c-0.392-0.134-0.816,0.13-0.836,0.546c-0.025,0.52-0.011,1.042-0.016,1.563c-0.001,0.078-0.007,0.157-0.011,0.249
		c-0.117,0-0.211,0-0.305,0c-0.849,0-0.85,0.001-1.331-0.697c-0.245-0.356-0.467-0.731-0.732-1.072
		c-0.487-0.628-1.393-0.77-2.063-0.348c-0.667,0.42-0.956,1.293-0.597,1.989c0.441,0.855,0.983,1.65,1.674,2.331
		c0.418,0.412,0.905,0.72,1.477,0.848c0.393,0.088,0.802,0.106,1.205,0.139c0.219,0.018,0.441,0.003,0.682,0.003
		c0,0.534,0.016,1.041-0.005,1.547C616.238,69.411,616.388,69.704,616.803,69.841z"/>
	<path display="none" fill="#FFFFFF" d="M601.041,52.9c0-1.286,0-2.573,0-3.859c5.254,0,10.508,0,15.762,0
		c-0.42,0.134-0.565,0.432-0.546,0.856c0.019,0.432,0.004,0.866,0.004,1.299c0,0.078,0,0.156,0,0.248
		c-0.27,0-0.506,0.005-0.742-0.001c-1.277-0.031-2.317,0.464-3.069,1.483c-0.573,0.777-1.104,1.588-1.606,2.413
		c-1.536,2.524-3.044,5.065-4.574,7.593c-0.241,0.398-0.538,0.761-0.811,1.139c-0.094,0.13-0.224,0.176-0.387,0.175
		c-0.771-0.005-1.543-0.004-2.314,0c-0.649,0.003-1.176,0.244-1.497,0.828c-0.105,0.19-0.147,0.415-0.218,0.624
		c0-4.171,0-8.342,0-12.512c0.009,0.018,0.025,0.035,0.028,0.053c0.105,0.838,0.809,1.415,1.709,1.401
		c0.636-0.01,1.275,0.035,1.907-0.014c0.507-0.039,0.827,0.151,1.08,0.563c0.364,0.593,0.754,1.17,1.127,1.758
		c0.456,0.72,1.269,1.024,1.972,0.731c0.953-0.397,1.303-1.441,0.779-2.34c-0.167-0.286-0.331-0.575-0.521-0.846
		c-0.447-0.635-0.876-1.287-1.373-1.88c-0.593-0.707-1.38-1.107-2.317-1.135c-0.926-0.028-1.853-0.037-2.779-0.026
		c-0.609,0.007-1.098,0.278-1.394,0.825C601.154,52.466,601.111,52.691,601.041,52.9z"/>
	<path d="M1.69,409.398c1.742-5.122,2.789-10.625,5.355-15.293c7.871-14.322,20.806-20.237,36.714-20.311
		c18.916-0.088,37.833-0.127,56.748,0.004c4,0.028,7.172-1.084,9.485-4.28c6.701-9.259,13.994-18.168,19.895-27.916
		c37.517-61.976,74.5-124.277,112.154-186.169c12.306-20.227,25.334-40.113,39.387-59.155c18.448-24.996,43.931-37.115,75.25-36.364
		c5.789,0.139,11.583,0.02,18.198,0.02c0-2.263,0-4.178,0-6.092c0-10.62,0.354-21.254-0.1-31.855
		C374.331,11.59,377.871,4.273,388.175,1c1.992,0,3.984,0,5.977,0c3.663,2.496,7.496,4.778,10.964,7.521
		c31.231,24.7,62.394,49.487,93.587,74.235c15.464,12.269,15.481,20.326,0.019,32.603c-32.353,25.689-64.753,51.32-97.016,77.122
		c-5.491,4.391-11.051,5.779-17.482,2.852c-6.463-2.94-9.277-8.235-9.308-15.13c-0.057-12.778-0.033-25.556-0.064-38.334
		c-0.002-0.973-0.175-1.945-0.312-3.372c-8.373,0-16.601-0.217-24.801,0.173c-1.753,0.084-3.817,2.064-5.029,3.697
		c-6.908,9.312-14.272,18.377-20.259,28.265c-37.44,61.838-74.33,124.01-111.909,185.763
		c-12.395,20.368-25.523,40.391-39.696,59.552c-18.235,24.654-43.422,36.621-74.368,36.164c-17.919-0.265-35.85-0.321-53.766,0.023
		c-22.673,0.435-39.826-14.033-42.357-34.444c-0.057-0.461-0.438-0.881-0.668-1.321C1.69,414.047,1.69,411.723,1.69,409.398z"/>
	<path d="M388.175,511c-10.189-3.357-13.844-10.541-13.416-21.008c0.506-12.397,0.119-24.83,0.119-37.925
		c-5.92,0-11.36,0.365-16.733-0.079c-9.887-0.818-19.925-1.259-29.553-3.411c-14.02-3.134-25.968-10.7-36.217-20.795
		c-16.952-16.696-30.228-36.176-41.05-57.152c-8.804-17.063-1.723-38.466,14.639-48.765c16.434-10.344,38.658-6.86,50.591,8.541
		c6.484,8.369,11.919,17.545,17.937,26.282c11.785,17.111,11.817,17.09,32.636,17.088c2.307,0,4.615,0,7.476,0
		c0.102-2.272,0.25-4.192,0.266-6.113c0.101-12.776-0.231-25.572,0.382-38.323c0.49-10.206,10.905-16.678,20.51-13.391
		c1.826,0.625,3.549,1.786,5.081,3c33.035,26.174,66.057,52.364,99.032,78.613c13.872,11.043,13.9,19.659,0.007,30.726
		c-33.097,26.363-66.263,52.638-99.443,78.897c-1.907,1.509-4.181,2.554-6.285,3.815C392.159,511,390.167,511,388.175,511z"/>
	<path d="M1.69,95.629c1.728-5.13,2.773-10.63,5.313-15.32c7.261-13.407,19.262-20.041,34.191-20.222
		c22.711-0.275,45.442-0.039,68.145,0.639c22.971,0.685,42.267,10.502,56.807,27.838c12.204,14.551,22.715,30.54,33.673,46.106
		c4.666,6.628,8.696,13.719,12.781,20.736c12.832,22.041,4.265,47.632-19.107,57.369c-17.239,7.182-37.173-0.287-48.357-17.93
		c-9.138-14.415-18.699-28.566-27.63-43.107c-6.207-10.106-14.045-14.748-26.483-13.797c-15.502,1.186-31.168,0.087-46.757,0.332
		c-22.054,0.346-39.327-13.823-41.899-34.36c-0.057-0.458-0.444-0.874-0.678-1.31C1.69,100.277,1.69,97.953,1.69,95.629z"/>
</g>
</svg>
