<?xml version="1.0" encoding="utf-8"?>
<!-- Generator: Adobe Illustrator 17.0.0, SVG Export Plug-In . SVG Version: 6.00 Build 0)  -->
<!DOCTYPE svg PUBLIC "-//W3C//DTD SVG 1.1//EN" "http://www.w3.org/Graphics/SVG/1.1/DTD/svg11.dtd">
<svg version="1.1" id="Layer_1" xmlns="http://www.w3.org/2000/svg" xmlns:xlink="http://www.w3.org/1999/xlink" x="0px" y="0px"
	 width="512px" height="512px" viewBox="0 0 512 512" enable-background="new 0 0 512 512" xml:space="preserve">
<g>
	<line fill="none" stroke="#B35047" x1="32" y1="0" x2="32" y2="512"/>
	<line fill="none" stroke="#B35047" x1="64" y1="0" x2="64" y2="512"/>
	<line fill="none" stroke="#B35047" x1="96" y1="0" x2="96" y2="512"/>
	<line fill="none" stroke="#B35047" x1="128" y1="0" x2="128" y2="512"/>
	<line fill="none" stroke="#B35047" x1="160" y1="0" x2="160" y2="512"/>
	<line fill="none" stroke="#B35047" x1="192" y1="0" x2="192" y2="512"/>
	<line fill="none" stroke="#B35047" x1="224" y1="0" x2="224" y2="512"/>
	<line fill="none" stroke="#B35047" x1="256" y1="0" x2="256" y2="512"/>
	<line fill="none" stroke="#B35047" x1="288" y1="0" x2="288" y2="512"/>
	<line fill="none" stroke="#B35047" x1="320" y1="0" x2="320" y2="512"/>
	<line fill="none" stroke="#B35047" x1="352" y1="0" x2="352" y2="512"/>
	<line fill="none" stroke="#B35047" x1="384" y1="0" x2="384" y2="512"/>
	<line fill="none" stroke="#B35047" x1="416" y1="0" x2="416" y2="512"/>
	<line fill="none" stroke="#B35047" x1="448" y1="0" x2="448" y2="512"/>
	<line fill="none" stroke="#B35047" x1="480" y1="0" x2="480" y2="512"/>
	<line fill="none" stroke="#B35047" x1="0" y1="32" x2="512" y2="32"/>
	<line fill="none" stroke="#B35047" x1="0" y1="64" x2="512" y2="64"/>
	<line fill="none" stroke="#B35047" x1="0" y1="96" x2="512" y2="96"/>
	<line fill="none" stroke="#B35047" x1="0" y1="128" x2="512" y2="128"/>
	<line fill="none" stroke="#B35047" x1="0" y1="160" x2="512" y2="160"/>
	<line fill="none" stroke="#B35047" x1="0" y1="192" x2="512" y2="192"/>
	<line fill="none" stroke="#B35047" x1="0" y1="224" x2="512" y2="224"/>
	<line fill="none" stroke="#B35047" x1="0" y1="256" x2="512" y2="256"/>
	<line fill="none" stroke="#B35047" x1="0" y1="288" x2="512" y2="288"/>
	<line fill="none" stroke="#B35047" x1="0" y1="320" x2="512" y2="320"/>
	<line fill="none" stroke="#B35047" x1="0" y1="352" x2="512" y2="352"/>
	<line fill="none" stroke="#B35047" x1="0" y1="384" x2="512" y2="384"/>
	<line fill="none" stroke="#B35047" x1="0" y1="416" x2="512" y2="416"/>
	<line fill="none" stroke="#B35047" x1="0" y1="448" x2="512" y2="448"/>
	<line fill="none" stroke="#B35047" x1="0" y1="480" x2="512" y2="480"/>
	<rect x="0" fill="none" stroke="#B35047" width="512" height="512"/>
</g>
<g display="none">
	<path display="inline" fill="#FFFFFF" d="M557.841,26.855c0,3.44,0,6.879,0,10.319c-6.933,0-13.867,0-20.8,0
		c0-6.933,0-13.867,0-20.8c1.855,0,3.71,0,5.566,0c-0.24,0.183-0.49,0.354-0.72,0.549c-1.53,1.298-2.643,2.906-3.461,4.724
		c-0.704,1.566-1.113,3.21-1.276,4.923c-0.155,1.633-0.008,3.226,0.503,4.785c0.501,1.53,1.242,2.923,2.352,4.1
		c0.289,0.306,0.611,0.581,0.918,0.869c0.014-0.012,0.027-0.024,0.041-0.036c-0.009-0.023-0.018-0.046-0.028-0.068
		c-1.071-2.248-1.625-4.605-1.505-7.106c0.052-1.092,0.288-2.141,0.725-3.143c0.123-0.282,0.272-0.552,0.423-0.854
		c0.171,0.517,0.318,0.993,0.486,1.461c0.138,0.384,0.323,0.747,0.63,1.028c0.313,0.286,0.652,0.261,0.874-0.099
		c0.146-0.237,0.255-0.51,0.317-0.781c0.23-1.002,0.141-2.004-0.06-2.999c-0.074-0.368-0.173-0.732-0.26-1.098
		c1.161,1.035,1.779,2.344,1.933,3.869c0.157,1.546-0.282,2.932-1.214,4.182c0.369-0.14,0.725-0.286,1.065-0.461
		c1.13-0.583,1.89-1.459,2.164-2.73c0.232-1.076,0.074-2.109-0.271-3.131c-0.367-1.086-0.873-2.109-1.386-3.13
		c-0.553-1.099-1.131-2.186-1.658-3.297c-0.235-0.495-0.372-1.038-0.553-1.558c5.065,0,10.129,0,15.194,0c0,3.44,0,6.879,0,10.319
		c-0.089-0.312-0.237-0.573-0.577-0.667c-0.273-0.076-0.514,0.002-0.755,0.133c-3.837,2.089-7.675,4.175-11.515,6.257
		c-0.088,0.047-0.211,0.09-0.299,0.066c-0.985-0.275-2.178,0.328-2.628,1.175c-0.312,0.587-0.231,1.205,0.244,1.575
		c0.382,0.299,0.83,0.355,1.291,0.272c0.866-0.156,1.523-0.596,1.888-1.426c0.042-0.094,0.131-0.188,0.222-0.237
		c3.818-2.081,7.638-4.158,11.46-6.231C557.493,27.436,557.76,27.234,557.841,26.855z"/>
	<path display="inline" d="M542.647,16.374c0.181,0.521,0.318,1.063,0.553,1.558c0.527,1.111,1.105,2.198,1.658,3.297
		c0.513,1.021,1.02,2.044,1.386,3.13c0.345,1.022,0.503,2.055,0.271,3.131c-0.274,1.271-1.034,2.147-2.164,2.73
		c-0.34,0.176-0.696,0.321-1.065,0.461c0.932-1.249,1.371-2.636,1.214-4.182c-0.155-1.525-0.773-2.833-1.933-3.869
		c0.087,0.366,0.186,0.729,0.26,1.098c0.201,0.995,0.29,1.997,0.06,2.999c-0.062,0.271-0.171,0.545-0.317,0.781
		c-0.222,0.36-0.561,0.385-0.874,0.099c-0.308-0.281-0.492-0.644-0.63-1.028c-0.168-0.468-0.315-0.944-0.486-1.461
		c-0.151,0.302-0.3,0.572-0.423,0.854c-0.437,1.002-0.672,2.05-0.725,3.143c-0.12,2.501,0.434,4.858,1.505,7.106
		c0.01,0.022,0.019,0.045,0.028,0.068c-0.014,0.012-0.027,0.024-0.041,0.036c-0.307-0.289-0.629-0.563-0.918-0.869
		c-1.111-1.178-1.851-2.571-2.352-4.1c-0.511-1.56-0.658-3.152-0.503-4.785c0.163-1.712,0.571-3.356,1.276-4.923
		c0.818-1.818,1.931-3.426,3.461-4.724c0.23-0.195,0.479-0.367,0.72-0.549C542.62,16.374,542.633,16.374,542.647,16.374z"/>
	<path display="inline" d="M557.841,26.855c-0.08,0.379-0.348,0.581-0.669,0.755c-3.823,2.072-7.643,4.15-11.46,6.231
		c-0.091,0.05-0.181,0.143-0.222,0.237c-0.365,0.83-1.022,1.27-1.888,1.426c-0.461,0.083-0.909,0.027-1.291-0.272
		c-0.474-0.371-0.556-0.988-0.244-1.575c0.45-0.847,1.644-1.45,2.628-1.175c0.087,0.024,0.211-0.019,0.299-0.066
		c3.84-2.083,7.678-4.169,11.515-6.257c0.241-0.131,0.483-0.209,0.755-0.133c0.34,0.095,0.488,0.355,0.577,0.667
		C557.841,26.747,557.841,26.801,557.841,26.855z"/>
</g>
<g>
	<path d="M511,124.516c0,5.645,0,11.289,0,16.934c-2.097,3.908-3.812,8.086-6.348,11.685
		c-60.21,85.447-120.51,170.832-180.792,256.229c-17.032,24.128-34.026,48.283-51.106,72.377c-6.557,9.249-16.74,11.914-26.16,6.702
		c-8.323-4.605-10.383-12.264-9.607-21.203c2.682-30.883,1.01-61.322-9.721-90.771c-6.753-18.533-16.766-35.185-33.888-45.439
		c-36.753-22.009-75.583-23.227-112.908-3.277c-45.491,24.314-54.1,83.982-18.949,120.651
		c19.854,20.712,44.951,26.292,72.635,22.186c10.333-1.533,19.933-5.108,27.792-12.31c12.792-11.723,16.169-26.81,15.536-43.424
		c-1.254-32.921-36.594-52.657-65.628-36.583c-7.905,4.376-12.18,10.985-12.793,19.992c-0.436,6.402,3.721,13.053,9.399,14.116
		c2.661,0.498,6.066,0.694,8.172-0.572c2.01-1.208,2.887-4.439,4.058-6.879c3.984-8.301,12.857-12.685,21.889-10.711
		c8.601,1.88,14.497,9.202,14.796,18.174c0.365,10.952-4.57,19.585-12.132,26.796c-22.954,21.89-62.784,14.726-78.41-13.958
		c-15.86-29.112-2.189-67.999,28.814-82.448c16.651-7.761,34.043-9.717,51.97-6.928c25.714,4.001,46.057,16.377,58.765,39.661
		c9.128,16.725,10.985,34.875,9.719,53.583c-2.376,35.123-25.509,65.217-59.044,75.679c-9.265,2.89-19.026,4.192-28.56,6.223
		c-5.977,0-11.953,0-17.93,0c-4.075-0.653-8.163-1.234-12.222-1.972c-43.019-7.817-73.324-31.646-89.106-72.541
		C4.961,425.393,3.666,413.147,1,401.43c0-5.313,0-10.625,0-15.938c0.331-1.268,0.797-2.518,0.972-3.807
		c4.368-32.066,19.29-58.111,44.509-78.339c3.74-3,7.489-6.047,10.852-9.45c87.674-88.72,175.41-177.38,262.794-266.385
		c11.529-11.743,24.727-19.199,40.428-22.745c6.915-1.562,13.965-2.53,20.953-3.767c6.309,0,12.617,0,18.926,0
		c4.901,0.689,9.81,1.323,14.701,2.075c24.039,3.696,45.442,12.738,62.52,30.677c16.456,17.286,24.995,38.368,29.28,61.383
		C508.743,104.844,509.672,114.717,511,124.516z M359.495,291.268c1.414-1.951,2.467-3.374,3.489-4.82
		c13.965-19.771,27.841-39.605,41.961-59.265c2.595-3.613,3.836-7.24,3.406-11.541c-0.378-3.791-0.541-7.629-1.268-11.355
		c-10.626-54.488-62.687-92.801-117.489-86.356c-2.526,0.297-5.368,1.803-7.188,3.622c-19.123,19.111-38.071,38.398-57.052,57.65
		c-0.997,1.011-1.865,2.149-3.044,3.52C289.251,192.028,333.689,229.121,359.495,291.268z M275.38,410.047
		c1.317-1.65,2.378-2.849,3.297-4.15c11.487-16.254,22.768-32.66,34.544-48.701c3.361-4.579,4.331-9.077,3.506-14.352
		c-6.152-39.333-26.386-69.582-59.55-91.149c-23.993-15.603-50.839-21.195-79.126-20.54c-2.449,0.057-5.388,1.595-7.187,3.37
		c-12.52,12.354-24.804,24.947-37.143,37.483c-0.959,0.974-1.759,2.104-2.45,2.941c12.13,1.381,24.058,2.076,35.726,4.196
		c29.955,5.444,55.032,19.674,74.316,43.508c15.231,18.825,24.162,40.609,29.459,64.01
		C272.478,394.195,273.772,401.82,275.38,410.047z M451.95,160.417c6.58-9.343,12.888-18.231,19.077-27.2
		c0.587-0.85,0.615-2.219,0.59-3.339c-0.353-15.327-2.276-30.428-7.509-44.911c-6.705-18.554-18.514-32.459-37.567-39.128
		c-17.576-6.152-35.591-6.748-53.965-4.166c-16.695,2.347-25.894,14.512-36.572,25.694
		C391.438,77.719,431.276,106.653,451.95,160.417z"/>
	<path display="none" fill="#FFFFFF" d="M542.241,96.041c0.389-0.083,0.787-0.136,1.165-0.254c1.368-0.427,2.311-1.654,2.408-3.086
		c0.052-0.763-0.024-1.503-0.396-2.185c-0.518-0.95-1.348-1.454-2.397-1.618c-0.731-0.114-1.44-0.034-2.12,0.283
		c-1.264,0.589-1.822,2.175-1.175,3.363c0.637,1.17,2.262,1.462,3.198,0.569c0.308-0.294,0.51-0.646,0.495-1.093
		c-0.012-0.366-0.253-0.665-0.603-0.741c-0.368-0.081-0.73,0.098-0.893,0.437c-0.048,0.1-0.083,0.231-0.165,0.281
		c-0.086,0.052-0.225,0.044-0.333,0.023c-0.232-0.043-0.401-0.315-0.383-0.576c0.025-0.367,0.199-0.637,0.522-0.815
		c1.184-0.656,2.625,0.149,2.677,1.492c0.026,0.678-0.112,1.293-0.634,1.771c-0.32,0.294-0.712,0.44-1.133,0.502
		c-1.129,0.167-2.153-0.06-2.962-0.905c-1.434-1.496-1.082-3.929,0.773-4.921c1.522-0.814,3.106-0.764,4.605,0.134
		c0.698,0.418,1.107,1.097,1.382,1.853c0.438,1.201,0.506,2.442,0.396,3.702c-0.032,0.365,0.052,0.677,0.392,0.865
		c0.384,0.213,0.799,0.104,1.067-0.273c0.697-0.983,1.39-1.968,2.084-2.952c2.459-3.483,4.918-6.965,7.373-10.45
		c0.103-0.147,0.173-0.317,0.259-0.477c0,5.024,0,10.048,0,15.072C552.641,96.041,547.441,96.041,542.241,96.041z"/>
	<path display="none" fill="#FFFFFF" d="M552.559,75.241c-0.285,0.05-0.573,0.09-0.855,0.154c-0.64,0.145-1.179,0.449-1.649,0.928
		c-3.564,3.63-7.142,7.246-10.718,10.864c-0.137,0.139-0.29,0.263-0.443,0.385c-1.029,0.825-1.637,1.887-1.815,3.195
		c-0.007,0.053-0.026,0.104-0.04,0.155c0-5.224,0-10.447,0-15.681C542.214,75.241,547.386,75.241,552.559,75.241z"/>
	<path display="none" fill="#FFFFFF" d="M537.041,91.572c0.109,0.478,0.162,0.977,0.336,1.43c0.644,1.668,1.88,2.64,3.634,2.959
		c0.166,0.03,0.332,0.054,0.498,0.08c-1.486,0-2.972,0-4.469,0C537.041,94.551,537.041,93.061,537.041,91.572z"/>
	<path display="none" fill="#FFFFFF" d="M557.841,80.278c-0.054-0.4-0.092-0.802-0.166-1.198c-0.175-0.939-0.523-1.798-1.194-2.503
		c-0.696-0.732-1.569-1.1-2.55-1.251c-0.199-0.031-0.4-0.057-0.6-0.085c1.503,0,3.006,0,4.509,0
		C557.841,76.92,557.841,78.599,557.841,80.278z"/>
	<path display="none" fill="#FFFFFF" d="M551.662,87.079c-1.052-2.535-2.865-4.047-5.595-4.427c0.048-0.056,0.083-0.102,0.124-0.144
		c0.774-0.785,1.547-1.572,2.327-2.351c0.074-0.074,0.19-0.136,0.293-0.148c2.235-0.263,4.358,1.3,4.792,3.522
		c0.03,0.152,0.036,0.309,0.052,0.463c0.018,0.175-0.033,0.323-0.139,0.471c-0.576,0.802-1.142,1.611-1.711,2.417
		C551.762,86.941,551.719,86.999,551.662,87.079z"/>
	<path display="none" fill="#FFFFFF" d="M548.231,91.923c-0.066-0.336-0.118-0.646-0.188-0.954c-0.216-0.954-0.58-1.843-1.201-2.611
		c-0.786-0.972-1.809-1.552-3.031-1.774c-0.476-0.086-0.962-0.115-1.457-0.171c0.028-0.034,0.061-0.08,0.1-0.12
		c0.503-0.511,1.004-1.025,1.515-1.529c0.073-0.072,0.193-0.135,0.293-0.137c1.154-0.027,2.249,0.201,3.227,0.838
		c1.353,0.88,2.178,2.113,2.429,3.717c0.034,0.215-0.006,0.399-0.143,0.585c-0.48,0.654-0.94,1.323-1.409,1.986
		C548.328,91.807,548.285,91.856,548.231,91.923z"/>
	<path display="none" fill="#FFFFFF" d="M555.432,81.742c-0.843-2.193-2.468-3.373-4.729-3.795c0.435-0.456,0.811-0.952,1.492-1.048
		c0.749-0.105,1.484-0.081,2.201,0.17c0.777,0.272,1.259,0.839,1.532,1.596c0.213,0.591,0.292,1.207,0.306,1.832
		c0.001,0.046,0,0.102-0.024,0.136C555.958,80.999,555.701,81.361,555.432,81.742z"/>
</g>
</svg>
