<?xml version="1.0" encoding="utf-8"?>
<!-- Generator: Adobe Illustrator 17.0.0, SVG Export Plug-In . SVG Version: 6.00 Build 0)  -->
<!DOCTYPE svg PUBLIC "-//W3C//DTD SVG 1.1//EN" "http://www.w3.org/Graphics/SVG/1.1/DTD/svg11.dtd">
<svg version="1.1" id="Layer_1" xmlns="http://www.w3.org/2000/svg" xmlns:xlink="http://www.w3.org/1999/xlink" x="0px" y="0px"
	 width="512px" height="512px" viewBox="0 0 512 512" enable-background="new 0 0 512 512" xml:space="preserve">
<g>
	<line fill="none" stroke="#B35047" x1="32" y1="0" x2="32" y2="512"/>
	<line fill="none" stroke="#B35047" x1="64" y1="0" x2="64" y2="512"/>
	<line fill="none" stroke="#B35047" x1="96" y1="0" x2="96" y2="512"/>
	<line fill="none" stroke="#B35047" x1="128" y1="0" x2="128" y2="512"/>
	<line fill="none" stroke="#B35047" x1="160" y1="0" x2="160" y2="512"/>
	<line fill="none" stroke="#B35047" x1="192" y1="0" x2="192" y2="512"/>
	<line fill="none" stroke="#B35047" x1="224" y1="0" x2="224" y2="512"/>
	<line fill="none" stroke="#B35047" x1="256" y1="0" x2="256" y2="512"/>
	<line fill="none" stroke="#B35047" x1="288" y1="0" x2="288" y2="512"/>
	<line fill="none" stroke="#B35047" x1="320" y1="0" x2="320" y2="512"/>
	<line fill="none" stroke="#B35047" x1="352" y1="0" x2="352" y2="512"/>
	<line fill="none" stroke="#B35047" x1="384" y1="0" x2="384" y2="512"/>
	<line fill="none" stroke="#B35047" x1="416" y1="0" x2="416" y2="512"/>
	<line fill="none" stroke="#B35047" x1="448" y1="0" x2="448" y2="512"/>
	<line fill="none" stroke="#B35047" x1="480" y1="0" x2="480" y2="512"/>
	<line fill="none" stroke="#B35047" x1="0" y1="32" x2="512" y2="32"/>
	<line fill="none" stroke="#B35047" x1="0" y1="64" x2="512" y2="64"/>
	<line fill="none" stroke="#B35047" x1="0" y1="96" x2="512" y2="96"/>
	<line fill="none" stroke="#B35047" x1="0" y1="128" x2="512" y2="128"/>
	<line fill="none" stroke="#B35047" x1="0" y1="160" x2="512" y2="160"/>
	<line fill="none" stroke="#B35047" x1="0" y1="192" x2="512" y2="192"/>
	<line fill="none" stroke="#B35047" x1="0" y1="224" x2="512" y2="224"/>
	<line fill="none" stroke="#B35047" x1="0" y1="256" x2="512" y2="256"/>
	<line fill="none" stroke="#B35047" x1="0" y1="288" x2="512" y2="288"/>
	<line fill="none" stroke="#B35047" x1="0" y1="320" x2="512" y2="320"/>
	<line fill="none" stroke="#B35047" x1="0" y1="352" x2="512" y2="352"/>
	<line fill="none" stroke="#B35047" x1="0" y1="384" x2="512" y2="384"/>
	<line fill="none" stroke="#B35047" x1="0" y1="416" x2="512" y2="416"/>
	<line fill="none" stroke="#B35047" x1="0" y1="448" x2="512" y2="448"/>
	<line fill="none" stroke="#B35047" x1="0" y1="480" x2="512" y2="480"/>
	<rect x="0" fill="none" stroke="#B35047" width="512" height="512"/>
</g>
<image display="none" overflow="visible" width="512" height="512" xlink:href="../../../Knowledge/Icon/[+++++] (Full) Windows 8 Icons [icons8]/Phones/conference_call/conference_call-512.png"  transform="matrix(0.0406 0 0 0.0406 611 50)">
</image>
<image display="none" overflow="visible" width="512" height="512" xlink:href="../../../Knowledge/Icon/[+++++] (Full) Windows 8 Icons [icons8]/Phones/headset/headset-512.png"  transform="matrix(0.0406 0 0 0.0406 611 50)">
</image>
<g>
	<path display="none" fill="#FFFFFF" d="M631.841,60.887c0,3.318,0,6.635,0,9.953c-6.933,0-13.867,0-20.8,0c0-2.356,0-4.712,0-7.069
		c0.158,0.503,0.509,0.676,1.023,0.665c1.001-0.022,2.004-0.004,3.005-0.009c0.154-0.001,0.262,0.04,0.368,0.16
		c1.439,1.637,2.882,3.271,4.332,4.898c0.145,0.163,0.329,0.308,0.522,0.408c0.432,0.225,0.856,0.064,1.02-0.395
		c0.082-0.23,0.12-0.488,0.12-0.734c0.006-5.605,0.005-11.21,0.003-16.815c0-0.148-0.011-0.299-0.044-0.443
		c-0.118-0.514-0.583-0.758-1.059-0.531c-0.213,0.102-0.419,0.256-0.576,0.432c-1.447,1.62-2.885,3.25-4.32,4.881
		c-0.104,0.118-0.21,0.165-0.366,0.164c-1.042-0.006-2.085-0.001-3.127-0.004c-0.27-0.001-0.518,0.052-0.69,0.272
		c-0.089,0.114-0.142,0.257-0.211,0.387c0-2.356,0-4.712,0-7.069c6.933,0,13.867,0,20.8,0c0,3.318,0,6.635,0,9.953
		c-0.042-0.327-0.072-0.657-0.128-0.982c-0.427-2.448-1.665-4.387-3.695-5.813c-0.362-0.254-0.758-0.476-1.167-0.645
		c-0.443-0.184-0.937,0.173-0.983,0.648c-0.04,0.416,0.173,0.669,0.515,0.858c2.192,1.212,3.491,3.051,3.804,5.542
		c0.238,1.897-0.247,3.623-1.382,5.159c-0.646,0.873-1.459,1.557-2.421,2.063c-0.241,0.127-0.442,0.295-0.503,0.576
		c-0.066,0.307,0.006,0.577,0.255,0.784c0.26,0.217,0.557,0.253,0.852,0.105c0.326-0.163,0.647-0.343,0.947-0.548
		c1.952-1.336,3.196-3.159,3.701-5.473C631.734,61.814,631.773,61.348,631.841,60.887z M627.835,60.255
		c-0.063-1.867-1.033-3.388-2.714-4.49c-0.419-0.275-0.876-0.161-1.128,0.239c-0.228,0.363-0.105,0.797,0.278,1.101
		c0.359,0.284,0.73,0.565,1.036,0.902c1.257,1.383,1.253,3.499-0.009,4.881c-0.307,0.336-0.681,0.612-1.038,0.899
		c-0.278,0.223-0.467,0.48-0.388,0.849c0.127,0.592,0.729,0.831,1.245,0.486c0.319-0.213,0.633-0.444,0.913-0.705
		C627.182,63.342,627.815,62.026,627.835,60.255z"/>
	<path d="M1,174.259c1.698-3.19,2.99-6.696,5.18-9.501c4.217-5.399,10.293-6.699,16.909-6.676
		c25.561,0.089,51.122-0.035,76.682,0.109c3.826,0.022,6.415-1.122,8.971-4.027c35.198-39.992,70.441-79.945,105.93-119.679
		c3.86-4.321,8.899-8.093,14.123-10.588c11.654-5.565,23.068,0.416,25.954,13.014c0.806,3.518,1.079,7.229,1.081,10.851
		c0.052,137.432,0.081,274.863-0.078,412.295c-0.007,6.019-0.926,12.349-2.944,17.989c-4.021,11.237-14.411,15.189-25.003,9.674
		c-4.739-2.467-9.248-6.014-12.809-10.009c-35.554-39.898-70.922-79.962-106.212-120.094c-2.594-2.951-5.247-3.94-9.014-3.921
		c-24.564,0.126-49.138-0.313-73.691,0.221C13.488,354.191,4.883,349.952,1,337.619C1,283.166,1,228.713,1,174.259z"/>
	<path d="M511,266.896c-1.646,11.285-2.626,22.715-5.05,33.829c-12.375,56.737-42.875,101.427-90.736,134.195
		c-7.362,5.04-15.232,9.44-23.216,13.439c-7.23,3.622-14.513,2.732-20.898-2.577c-6.096-5.068-7.87-11.699-6.242-19.226
		c1.488-6.879,6.404-11.004,12.325-14.116c23.588-12.399,43.526-29.162,59.354-50.577c27.849-37.677,39.74-80,33.896-126.501
		c-7.675-61.076-39.51-106.169-93.262-135.885c-8.392-4.64-13.627-10.843-12.635-21.044c1.132-11.639,13.246-20.379,24.113-15.879
		c10.015,4.147,19.726,9.581,28.607,15.821c49.77,34.969,80.134,82.506,90.599,142.534c1.389,7.965,2.112,16.046,3.144,24.073
		C511,252.287,511,259.591,511,266.896z"/>
	<path d="M412.774,251.379c-0.471,43.424-16.003,75.689-44.261,102.008c-6.877,6.405-14.563,12.065-22.393,17.295
		c-12.649,8.449-27.392,2.608-30.516-11.914c-1.943-9.035,2.705-15.338,9.514-20.81c8.753-7.032,17.94-13.805,25.46-22.041
		c30.942-33.889,31.039-85.774,0.226-119.673c-7.503-8.255-16.603-15.143-25.403-22.112c-9.394-7.439-12.407-18.073-6.807-26.985
		c6.17-9.82,17.366-12.612,27.648-5.868C387.438,168.301,411.219,205.599,412.774,251.379z"/>
</g>
</svg>
