<?xml version="1.0" encoding="utf-8"?>
<!-- Generator: Adobe Illustrator 17.0.0, SVG Export Plug-In . SVG Version: 6.00 Build 0)  -->
<!DOCTYPE svg PUBLIC "-//W3C//DTD SVG 1.1//EN" "http://www.w3.org/Graphics/SVG/1.1/DTD/svg11.dtd">
<svg version="1.1" id="Layer_1" xmlns="http://www.w3.org/2000/svg" xmlns:xlink="http://www.w3.org/1999/xlink" x="0px" y="0px"
	 width="512px" height="512px" viewBox="0 0 512 512" enable-background="new 0 0 512 512" xml:space="preserve">
<g>
	<line fill="none" stroke="#B35047" x1="32" y1="0" x2="32" y2="512"/>
	<line fill="none" stroke="#B35047" x1="64" y1="0" x2="64" y2="512"/>
	<line fill="none" stroke="#B35047" x1="96" y1="0" x2="96" y2="512"/>
	<line fill="none" stroke="#B35047" x1="128" y1="0" x2="128" y2="512"/>
	<line fill="none" stroke="#B35047" x1="160" y1="0" x2="160" y2="512"/>
	<line fill="none" stroke="#B35047" x1="192" y1="0" x2="192" y2="512"/>
	<line fill="none" stroke="#B35047" x1="224" y1="0" x2="224" y2="512"/>
	<line fill="none" stroke="#B35047" x1="256" y1="0" x2="256" y2="512"/>
	<line fill="none" stroke="#B35047" x1="288" y1="0" x2="288" y2="512"/>
	<line fill="none" stroke="#B35047" x1="320" y1="0" x2="320" y2="512"/>
	<line fill="none" stroke="#B35047" x1="352" y1="0" x2="352" y2="512"/>
	<line fill="none" stroke="#B35047" x1="384" y1="0" x2="384" y2="512"/>
	<line fill="none" stroke="#B35047" x1="416" y1="0" x2="416" y2="512"/>
	<line fill="none" stroke="#B35047" x1="448" y1="0" x2="448" y2="512"/>
	<line fill="none" stroke="#B35047" x1="480" y1="0" x2="480" y2="512"/>
	<line fill="none" stroke="#B35047" x1="0" y1="32" x2="512" y2="32"/>
	<line fill="none" stroke="#B35047" x1="0" y1="64" x2="512" y2="64"/>
	<line fill="none" stroke="#B35047" x1="0" y1="96" x2="512" y2="96"/>
	<line fill="none" stroke="#B35047" x1="0" y1="128" x2="512" y2="128"/>
	<line fill="none" stroke="#B35047" x1="0" y1="160" x2="512" y2="160"/>
	<line fill="none" stroke="#B35047" x1="0" y1="192" x2="512" y2="192"/>
	<line fill="none" stroke="#B35047" x1="0" y1="224" x2="512" y2="224"/>
	<line fill="none" stroke="#B35047" x1="0" y1="256" x2="512" y2="256"/>
	<line fill="none" stroke="#B35047" x1="0" y1="288" x2="512" y2="288"/>
	<line fill="none" stroke="#B35047" x1="0" y1="320" x2="512" y2="320"/>
	<line fill="none" stroke="#B35047" x1="0" y1="352" x2="512" y2="352"/>
	<line fill="none" stroke="#B35047" x1="0" y1="384" x2="512" y2="384"/>
	<line fill="none" stroke="#B35047" x1="0" y1="416" x2="512" y2="416"/>
	<line fill="none" stroke="#B35047" x1="0" y1="448" x2="512" y2="448"/>
	<line fill="none" stroke="#B35047" x1="0" y1="480" x2="512" y2="480"/>
	<rect x="0" fill="none" stroke="#B35047" width="512" height="512"/>
</g>
<g>
	<path display="none" fill="#FFFFFF" d="M605.041,73.662c0-6.541,0-13.081,0-19.622c6.933,0,13.867,0,20.8,0
		c0,6.933,0,13.867,0,20.8c-6.933,0-13.867,0-20.8,0c0-0.298,0-0.596,0-0.894c0.07,0.13,0.122,0.273,0.212,0.386
		c0.254,0.318,0.642,0.327,0.997,0.377c0.95,0.134,1.89,0.043,2.818-0.188c1.62-0.403,3.101-1.107,4.458-2.077
		c0.082-0.059,0.21-0.096,0.309-0.083c1.313,0.174,2.621,0.149,3.917-0.129c2.443-0.524,4.513-1.689,6.076-3.662
		c1.439-1.817,2.058-3.896,1.795-6.206c-0.22-1.928-1.051-3.588-2.403-4.968c-1.981-2.021-4.426-3.036-7.232-3.183
		c-1.754-0.092-3.448,0.206-5.061,0.925c-1.825,0.814-3.343,2.001-4.404,3.709c-1.468,2.362-1.731,4.866-0.756,7.48
		c0.455,1.218,1.185,2.259,2.115,3.163c0.104,0.101,0.157,0.195,0.095,0.335c-0.122,0.276-0.21,0.573-0.368,0.826
		c-0.32,0.514-0.814,0.862-1.277,1.237C605.745,72.366,605.176,72.856,605.041,73.662z"/>
	<path d="M1,482.747c3.354-19.913,17.397-32.034,31.922-43.812c11.424-9.263,23.634-17.871,31.546-30.565
		c3.9-6.258,6.075-13.587,9.082-20.408c1.525-3.46,0.235-5.772-2.345-8.28c-22.964-22.319-41.017-48.062-52.247-78.144
		c-24.111-64.591-17.61-126.455,18.668-184.824c26.218-42.182,63.713-71.532,108.809-91.631
		C186.288,7.32,228.147-0.045,271.491,2.231c69.336,3.642,129.745,28.705,178.679,78.642c33.413,34.098,53.941,75.1,59.371,122.739
		c6.503,57.063-8.799,108.44-44.354,153.325c-38.624,48.761-89.758,77.546-150.127,90.488c-32.021,6.865-64.319,7.479-96.771,3.189
		c-2.442-0.323-5.608,0.593-7.64,2.046c-33.53,23.988-70.113,41.37-110.152,51.328c-22.916,5.699-46.148,7.953-69.619,4.641
		c-8.765-1.237-18.353-1.464-24.628-9.31c-2.235-2.795-3.527-6.344-5.249-9.549C1,487.431,1,485.089,1,482.747z M57.273,469.727
		c0.186,0.499,0.373,0.998,0.559,1.497c7.587-0.992,15.265-1.536,22.746-3.051c42.329-8.572,80.383-26.488,114.359-53.093
		c5.881-4.605,12.261-6.242,19.676-4.927c30.098,5.338,60.234,5.47,90.217-0.656c52.019-10.627,96.047-35.035,129.652-76.758
		c43.991-54.619,49.658-128.77,14.314-189.229c-25.324-43.318-63.328-71.364-109.768-88.425
		c-38.575-14.172-78.448-17.622-118.977-11.003c-56.246,9.185-104.245,33.974-139.327,79.551
		C42.399,173.426,33.508,228.769,55.8,288.106c10.306,27.433,27.486,50.34,49.393,69.676c5.75,5.075,9.232,11.048,9.037,18.713
		c-0.378,14.87-3.472,29.126-10.272,42.488c-8.601,16.901-21.478,30.106-35.948,41.961C64.434,463.875,60.852,466.8,57.273,469.727z
		"/>
	<path display="none" fill="#FFFFFF" d="M607.318,73.136c0.145-0.118,0.29-0.237,0.435-0.355c0.586-0.48,1.107-1.014,1.455-1.698
		c0.275-0.541,0.4-1.118,0.416-1.72c0.008-0.31-0.133-0.552-0.366-0.757c-0.887-0.783-1.582-1.71-1.999-2.82
		c-0.902-2.402-0.542-4.642,1.009-6.657c1.42-1.845,3.363-2.848,5.639-3.22c1.64-0.268,3.254-0.128,4.815,0.445
		c1.88,0.691,3.418,1.826,4.443,3.579c1.431,2.447,1.201,5.448-0.579,7.659c-1.36,1.689-3.142,2.677-5.247,3.107
		c-1.214,0.248-2.433,0.243-3.651,0.027c-0.3-0.053-0.558,0.013-0.796,0.199c-1.375,1.077-2.915,1.802-4.629,2.149
		c-0.303,0.061-0.614,0.083-0.921,0.123C607.333,73.176,607.326,73.156,607.318,73.136z"/>
</g>
</svg>
