<?xml version="1.0" encoding="utf-8"?>
<!-- Generator: Adobe Illustrator 17.0.0, SVG Export Plug-In . SVG Version: 6.00 Build 0)  -->
<!DOCTYPE svg PUBLIC "-//W3C//DTD SVG 1.1//EN" "http://www.w3.org/Graphics/SVG/1.1/DTD/svg11.dtd">
<svg version="1.1" id="Layer_1" xmlns="http://www.w3.org/2000/svg" xmlns:xlink="http://www.w3.org/1999/xlink" x="0px" y="0px"
	 width="512px" height="512px" viewBox="0 0 512 512" enable-background="new 0 0 512 512" xml:space="preserve">
<g>
	<line fill="none" stroke="#B35047" x1="32" y1="0" x2="32" y2="512"/>
	<line fill="none" stroke="#B35047" x1="64" y1="0" x2="64" y2="512"/>
	<line fill="none" stroke="#B35047" x1="96" y1="0" x2="96" y2="512"/>
	<line fill="none" stroke="#B35047" x1="128" y1="0" x2="128" y2="512"/>
	<line fill="none" stroke="#B35047" x1="160" y1="0" x2="160" y2="512"/>
	<line fill="none" stroke="#B35047" x1="192" y1="0" x2="192" y2="512"/>
	<line fill="none" stroke="#B35047" x1="224" y1="0" x2="224" y2="512"/>
	<line fill="none" stroke="#B35047" x1="256" y1="0" x2="256" y2="512"/>
	<line fill="none" stroke="#B35047" x1="288" y1="0" x2="288" y2="512"/>
	<line fill="none" stroke="#B35047" x1="320" y1="0" x2="320" y2="512"/>
	<line fill="none" stroke="#B35047" x1="352" y1="0" x2="352" y2="512"/>
	<line fill="none" stroke="#B35047" x1="384" y1="0" x2="384" y2="512"/>
	<line fill="none" stroke="#B35047" x1="416" y1="0" x2="416" y2="512"/>
	<line fill="none" stroke="#B35047" x1="448" y1="0" x2="448" y2="512"/>
	<line fill="none" stroke="#B35047" x1="480" y1="0" x2="480" y2="512"/>
	<line fill="none" stroke="#B35047" x1="0" y1="32" x2="512" y2="32"/>
	<line fill="none" stroke="#B35047" x1="0" y1="64" x2="512" y2="64"/>
	<line fill="none" stroke="#B35047" x1="0" y1="96" x2="512" y2="96"/>
	<line fill="none" stroke="#B35047" x1="0" y1="128" x2="512" y2="128"/>
	<line fill="none" stroke="#B35047" x1="0" y1="160" x2="512" y2="160"/>
	<line fill="none" stroke="#B35047" x1="0" y1="192" x2="512" y2="192"/>
	<line fill="none" stroke="#B35047" x1="0" y1="224" x2="512" y2="224"/>
	<line fill="none" stroke="#B35047" x1="0" y1="256" x2="512" y2="256"/>
	<line fill="none" stroke="#B35047" x1="0" y1="288" x2="512" y2="288"/>
	<line fill="none" stroke="#B35047" x1="0" y1="320" x2="512" y2="320"/>
	<line fill="none" stroke="#B35047" x1="0" y1="352" x2="512" y2="352"/>
	<line fill="none" stroke="#B35047" x1="0" y1="384" x2="512" y2="384"/>
	<line fill="none" stroke="#B35047" x1="0" y1="416" x2="512" y2="416"/>
	<line fill="none" stroke="#B35047" x1="0" y1="448" x2="512" y2="448"/>
	<line fill="none" stroke="#B35047" x1="0" y1="480" x2="512" y2="480"/>
	<rect x="0" fill="none" stroke="#B35047" width="512" height="512"/>
</g>
<image display="none" overflow="visible" width="512" height="512" xlink:href="../../../Knowledge/Icon/[+++++] (Full) Windows 8 Icons [icons8]/It_Infrastructure/cloud/cloud-512.png"  transform="matrix(0.0406 0 0 0.0406 570 59)">
</image>
<image display="none" overflow="visible" width="512" height="512" xlink:href="../../../Knowledge/Icon/[+++++] (Full) Windows 8 Icons [icons8]/It_Infrastructure/workstation/workstation-512.png"  transform="matrix(0.0406 0 0 0.0406 570 59)">
</image>
<image display="none" overflow="visible" width="512" height="512" xlink:href="../../../Knowledge/Icon/[+++++] (Full) Windows 8 Icons [icons8]/It_Infrastructure/wifi/wifi-512.png"  transform="matrix(0.0406 0 0 0.0406 570 59)">
</image>
<g>
	<path d="M92.641,1c108.906,0,217.813,0,326.719,0c0.553,0.317,1.075,0.827,1.664,0.922c9.898,1.598,17.945,6.407,24.737,13.698
		c12.836,13.779,20.28,30.72,27,47.789c12.135,30.826,23.237,62.06,34.756,93.128c0.606,1.634,1.084,3.316,1.231,3.77
		c-8.283-0.873-16.582-2.503-24.882-2.511c-148.552-0.154-297.103-0.128-445.655-0.081c-11.793,0.004-23.779-1.399-35.762,4.596
		c0.98-2.75,1.561-4.444,2.184-6.123c9.108-24.542,17.893-49.209,27.442-73.578c6.938-17.707,14.14-35.391,22.622-52.387
		C61.349,16.893,71.778,6.579,87.045,2.647C88.927,2.162,90.776,1.552,92.641,1z"/>
	<path d="M1,259.984c0-22.246,0-44.492,0-66.738c4.547-12.549,14.01-15.803,26.587-15.785c152.275,0.22,304.551,0.22,456.826,0
		c12.577-0.018,22.04,3.235,26.587,15.785c0,22.246,0,44.492,0,66.738c-1.303,2.445-2.373,5.053-3.953,7.304
		c-4.936,7.035-12.262,8.269-20.236,8.266c-153.874-0.046-307.749-0.032-461.623-0.054c-2.48,0-4.978-0.153-7.436-0.48
		c-6.998-0.93-11.769-4.912-14.811-11.15C2.307,262.569,1.648,261.28,1,259.984z M442.184,197.113
		c-16.187,0.061-29.385,13.325-29.357,29.502c0.029,16.144,13.31,29.445,29.436,29.479c16.303,0.034,30.036-13.752,29.688-29.804
		C471.598,209.984,458.405,197.052,442.184,197.113z"/>
	<path d="M511,310.785c0,22.246,0,44.492,0,66.738c-4.386,12.359-13.573,15.855-26.046,15.838c-152.636-0.21-305.273-0.21-457.909,0
		C14.573,393.379,5.386,389.883,1,377.523c0-22.246,0-44.492,0-66.738c1.313-2.434,2.403-5.023,3.98-7.272
		c5.078-7.243,12.651-8.211,20.754-8.209c153.511,0.048,307.022,0.033,460.534,0.051c2.483,0,4.979,0.12,7.445,0.394
		c7.211,0.801,12.186,4.744,15.321,11.179C509.664,308.226,510.343,309.5,511,310.785z M442.266,373.719
		c16.224,0.017,29.441-13.002,29.687-29.244c0.244-16.069-13.558-29.869-29.771-29.767c-16.101,0.101-29.38,13.496-29.349,29.604
		C412.864,360.52,426.057,373.702,442.266,373.719z"/>
	<path d="M511,429.32c0,21.914,0,43.828,0,65.742c-2.709,7.916-8.021,13.229-15.938,15.938c-159.375,0-318.75,0-478.125,0
		C9.021,508.291,3.709,502.979,1,495.063c0-21.914,0-43.828,0-65.742c1.38-2.805,2.424-5.846,4.204-8.368
		c4.844-6.86,12.056-7.832,19.862-7.828c153.956,0.072,307.912,0.053,461.868,0.06c1.989,0,3.985,0.014,5.966,0.167
		c7.649,0.588,12.939,4.584,16.186,11.42C509.791,426.256,510.366,427.803,511,429.32z M442.484,491.394
		c16.225-0.084,29.486-13.335,29.473-29.449c-0.013-15.959-13.483-29.476-29.495-29.596c-16.181-0.122-29.852,13.667-29.614,29.871
		C413.088,478.557,426.213,491.478,442.484,491.394z"/>
	<path display="none" fill="#FFFFFF" d="M221.507,231.881c-0.185-0.512-0.571-0.645-1.084-0.644c-6.21,0.009-12.421,0.009-18.631,0
		c-0.513-0.001-0.899,0.132-1.084,0.644c0-2.609,0-5.218,0-7.841c1.246,0,2.492,0,3.737,0c-0.076,0.023-0.151,0.047-0.228,0.067
		c-0.623,0.16-1.048,0.581-1.319,1.125c-0.346,0.693-0.64,1.414-0.923,2.137c-0.389,0.994-0.748,2-1.119,3.001
		c-0.025,0.068-0.049,0.138-0.089,0.25c0.489-0.244,0.978-0.187,1.459-0.187c6.059-0.002,12.117-0.003,18.176,0.003
		c0.339,0,0.677,0.067,1.015,0.102c-0.006-0.019-0.025-0.087-0.05-0.154c-0.47-1.267-0.923-2.541-1.417-3.798
		c-0.274-0.696-0.578-1.387-1.101-1.949c-0.277-0.297-0.605-0.493-1.009-0.559c-0.024-0.004-0.045-0.025-0.068-0.038
		c1.244,0,2.487,0,3.738,0C221.507,226.654,221.507,229.268,221.507,231.881z"/>
	<path display="none" fill="#FFFFFF" d="M221.507,241.509c-0.026-0.062-0.049-0.125-0.078-0.186
		c-0.132-0.279-0.348-0.442-0.66-0.466c-0.081-0.006-0.162-0.007-0.243-0.007c-6.279,0-12.558,0-18.837-0.002
		c-0.318,0-0.612,0.039-0.81,0.319c-0.073,0.103-0.115,0.227-0.171,0.341c0-0.704,0-1.408,0-2.113
		c0.179,0.504,0.554,0.647,1.062,0.646c6.225-0.009,12.45-0.009,18.675,0c0.509,0.001,0.883-0.142,1.062-0.646
		C221.507,240.101,221.507,240.805,221.507,241.509z"/>
	<path display="none" fill="#FFFFFF" d="M221.507,236.675c-0.027-0.052-0.054-0.104-0.08-0.157
		c-0.128-0.262-0.331-0.423-0.625-0.456c-0.101-0.011-0.202-0.016-0.304-0.016c-6.261-0.001-12.522,0-18.783-0.002
		c-0.33,0-0.639,0.039-0.846,0.335c-0.064,0.092-0.109,0.197-0.162,0.297c0-0.691,0-1.381,0-2.072
		c0.026,0.053,0.053,0.105,0.079,0.159c0.124,0.254,0.319,0.417,0.604,0.455c0.1,0.013,0.202,0.02,0.303,0.02
		c6.276,0.001,12.551,0,18.827,0.002c0.325,0,0.624-0.05,0.825-0.337c0.064-0.092,0.108-0.198,0.161-0.298
		C221.507,235.294,221.507,235.984,221.507,236.675z"/>
	<path display="none" fill="#FFFFFF" d="M200.707,244.191c0.11,0.323,0.327,0.54,0.65,0.65c-0.217,0-0.433,0-0.65,0
		C200.707,244.624,200.707,244.407,200.707,244.191z"/>
	<path display="none" fill="#FFFFFF" d="M220.857,244.841c0.323-0.11,0.54-0.327,0.65-0.65c0,0.217,0,0.433,0,0.65
		C221.291,244.841,221.074,244.841,220.857,244.841z"/>
	<path display="none" fill="#FFFFFF" d="M218.701,232.039c0.662-0.003,1.2,0.525,1.214,1.19c0.014,0.655-0.546,1.217-1.211,1.216
		c-0.658-0.001-1.199-0.544-1.201-1.202C217.502,232.582,218.04,232.041,218.701,232.039z"/>
	<path display="none" fill="#FFFFFF" d="M218.704,239.242c-0.661-0.001-1.199-0.538-1.2-1.199c-0.001-0.657,0.54-1.203,1.197-1.207
		c0.661-0.004,1.224,0.559,1.214,1.214C219.905,238.711,219.366,239.242,218.704,239.242z"/>
	<path display="none" fill="#FFFFFF" d="M218.713,244.041c-0.664,0.003-1.199-0.524-1.209-1.19c-0.01-0.661,0.548-1.223,1.208-1.218
		c0.653,0.005,1.202,0.556,1.203,1.207C219.915,243.497,219.375,244.038,218.713,244.041z"/>
</g>
</svg>
