<?xml version="1.0" encoding="utf-8"?>
<!-- Generator: Adobe Illustrator 17.0.0, SVG Export Plug-In . SVG Version: 6.00 Build 0)  -->
<!DOCTYPE svg PUBLIC "-//W3C//DTD SVG 1.1//EN" "http://www.w3.org/Graphics/SVG/1.1/DTD/svg11.dtd">
<svg version="1.1" id="Layer_1" xmlns="http://www.w3.org/2000/svg" xmlns:xlink="http://www.w3.org/1999/xlink" x="0px" y="0px"
	 width="512px" height="512px" viewBox="0 0 512 512" enable-background="new 0 0 512 512" xml:space="preserve">
<g>
	<line fill="none" stroke="#B35047" x1="32" y1="0" x2="32" y2="512"/>
	<line fill="none" stroke="#B35047" x1="64" y1="0" x2="64" y2="512"/>
	<line fill="none" stroke="#B35047" x1="96" y1="0" x2="96" y2="512"/>
	<line fill="none" stroke="#B35047" x1="128" y1="0" x2="128" y2="512"/>
	<line fill="none" stroke="#B35047" x1="160" y1="0" x2="160" y2="512"/>
	<line fill="none" stroke="#B35047" x1="192" y1="0" x2="192" y2="512"/>
	<line fill="none" stroke="#B35047" x1="224" y1="0" x2="224" y2="512"/>
	<line fill="none" stroke="#B35047" x1="256" y1="0" x2="256" y2="512"/>
	<line fill="none" stroke="#B35047" x1="288" y1="0" x2="288" y2="512"/>
	<line fill="none" stroke="#B35047" x1="320" y1="0" x2="320" y2="512"/>
	<line fill="none" stroke="#B35047" x1="352" y1="0" x2="352" y2="512"/>
	<line fill="none" stroke="#B35047" x1="384" y1="0" x2="384" y2="512"/>
	<line fill="none" stroke="#B35047" x1="416" y1="0" x2="416" y2="512"/>
	<line fill="none" stroke="#B35047" x1="448" y1="0" x2="448" y2="512"/>
	<line fill="none" stroke="#B35047" x1="480" y1="0" x2="480" y2="512"/>
	<line fill="none" stroke="#B35047" x1="0" y1="32" x2="512" y2="32"/>
	<line fill="none" stroke="#B35047" x1="0" y1="64" x2="512" y2="64"/>
	<line fill="none" stroke="#B35047" x1="0" y1="96" x2="512" y2="96"/>
	<line fill="none" stroke="#B35047" x1="0" y1="128" x2="512" y2="128"/>
	<line fill="none" stroke="#B35047" x1="0" y1="160" x2="512" y2="160"/>
	<line fill="none" stroke="#B35047" x1="0" y1="192" x2="512" y2="192"/>
	<line fill="none" stroke="#B35047" x1="0" y1="224" x2="512" y2="224"/>
	<line fill="none" stroke="#B35047" x1="0" y1="256" x2="512" y2="256"/>
	<line fill="none" stroke="#B35047" x1="0" y1="288" x2="512" y2="288"/>
	<line fill="none" stroke="#B35047" x1="0" y1="320" x2="512" y2="320"/>
	<line fill="none" stroke="#B35047" x1="0" y1="352" x2="512" y2="352"/>
	<line fill="none" stroke="#B35047" x1="0" y1="384" x2="512" y2="384"/>
	<line fill="none" stroke="#B35047" x1="0" y1="416" x2="512" y2="416"/>
	<line fill="none" stroke="#B35047" x1="0" y1="448" x2="512" y2="448"/>
	<line fill="none" stroke="#B35047" x1="0" y1="480" x2="512" y2="480"/>
	<rect x="0" fill="none" stroke="#B35047" width="512" height="512"/>
</g>
<g display="none">
	<path fill="#FFFFFF" d="M609.841,63.839c-6.931,0-13.861,0-20.796,0c0-6.928,0-13.857,0-20.792c6.929,0,13.863,0,20.796,0
		C609.841,49.975,609.841,56.906,609.841,63.839z M599.437,56.168c0.095,0.122,0.139,0.192,0.196,0.249
		c1.306,1.308,2.613,2.615,3.92,3.921c0.423,0.423,0.853,0.424,1.274,0.005c0.499-0.497,0.997-0.995,1.494-1.493
		c0.449-0.449,0.448-0.866-0.004-1.318c-1.307-1.307-2.614-2.614-3.92-3.922c-0.055-0.055-0.107-0.113-0.183-0.193
		c0.078-0.063,0.14-0.106,0.192-0.158c1.313-1.311,2.625-2.622,3.936-3.934c0.419-0.419,0.418-0.855-0.002-1.275
		c-0.493-0.494-0.987-0.985-1.481-1.478c-0.465-0.464-0.87-0.466-1.33-0.005c-1.307,1.307-2.614,2.613-3.922,3.92
		c-0.052,0.052-0.106,0.101-0.168,0.159c-0.062-0.059-0.116-0.107-0.168-0.159c-1.302-1.302-2.604-2.604-3.907-3.906
		c-0.48-0.48-0.874-0.478-1.359,0.006c-0.479,0.478-0.958,0.957-1.437,1.436c-0.461,0.462-0.462,0.871-0.001,1.332
		c1.302,1.302,2.604,2.604,3.906,3.907c0.056,0.056,0.109,0.115,0.171,0.18c-0.062,0.064-0.111,0.118-0.163,0.17
		c-1.316,1.317-2.633,2.633-3.949,3.95c-0.411,0.412-0.412,0.85-0.003,1.26c0.497,0.498,0.997,0.995,1.496,1.492
		c0.462,0.46,0.867,0.458,1.331-0.006c1.303-1.302,2.606-2.603,3.907-3.906C599.318,56.35,599.354,56.282,599.437,56.168z"/>
	<path display="inline" d="M599.437,56.168c-0.082,0.114-0.119,0.182-0.171,0.234c-1.301,1.303-2.604,2.605-3.907,3.906
		c-0.464,0.464-0.87,0.465-1.331,0.006c-0.499-0.497-0.998-0.993-1.496-1.492c-0.409-0.41-0.409-0.848,0.003-1.26
		c1.316-1.317,2.633-2.633,3.949-3.95c0.052-0.052,0.102-0.106,0.163-0.17c-0.062-0.065-0.115-0.124-0.171-0.18
		c-1.302-1.302-2.604-2.604-3.906-3.907c-0.461-0.461-0.46-0.87,0.001-1.332c0.479-0.479,0.958-0.957,1.437-1.436
		c0.485-0.485,0.878-0.487,1.359-0.006c1.302,1.302,2.604,2.604,3.907,3.906c0.052,0.052,0.106,0.1,0.168,0.159
		c0.062-0.059,0.116-0.108,0.168-0.159c1.307-1.307,2.614-2.613,3.922-3.92c0.46-0.46,0.865-0.458,1.33,0.005
		c0.494,0.492,0.988,0.984,1.481,1.478c0.419,0.42,0.421,0.856,0.002,1.275c-1.311,1.312-2.623,2.624-3.936,3.934
		c-0.052,0.052-0.115,0.095-0.192,0.158c0.076,0.08,0.128,0.138,0.183,0.193c1.307,1.307,2.614,2.614,3.92,3.922
		c0.451,0.452,0.453,0.869,0.004,1.318c-0.498,0.498-0.995,0.996-1.494,1.493c-0.421,0.419-0.85,0.418-1.274-0.005
		c-1.308-1.306-2.615-2.613-3.92-3.921C599.576,56.36,599.532,56.29,599.437,56.168z"/>
</g>
<image overflow="visible" width="512" height="512" xlink:href="../../../Knowledge/Icon/[+++++] (Full) Windows 8 Icons [icons8]/Very_Basic/link/link-512.png"  transform="matrix(0.0406 0 0 0.0406 709 84)">
</image>
<image overflow="visible" width="512" height="512" xlink:href="../../../Knowledge/Icon/[+++++] (Full) Windows 8 Icons [icons8]/Very_Basic/like_outline/like_outline-512.png"  transform="matrix(0.0406 0 0 0.0406 709 84)">
</image>
<image overflow="visible" width="512" height="512" xlink:href="../../../Knowledge/Icon/[+++++] (Full) Windows 8 Icons [icons8]/Very_Basic/like/like-512.png"  transform="matrix(0.0406 0 0 0.0406 709 84)">
</image>
<image overflow="visible" width="512" height="512" xlink:href="../../../Knowledge/Icon/[+++++] (Full) Windows 8 Icons [icons8]/Very_Basic/key/key-512.png"  transform="matrix(0.0406 0 0 0.0406 709 84)">
</image>
<image overflow="visible" width="512" height="512" xlink:href="../../../Knowledge/Icon/[+++++] (Full) Windows 8 Icons [icons8]/Very_Basic/info/info-512.png"  transform="matrix(0.0406 0 0 0.0406 709 84)">
</image>
<image overflow="visible" width="512" height="512" xlink:href="../../../Knowledge/Icon/[+++++] (Full) Windows 8 Icons [icons8]/Very_Basic/home/home-512.png"  transform="matrix(0.0406 0 0 0.0406 709 84)">
</image>
<image overflow="visible" width="512" height="512" xlink:href="../../../Knowledge/Icon/[+++++] (Full) Windows 8 Icons [icons8]/Very_Basic/globe/globe-512.png"  transform="matrix(0.0406 0 0 0.0406 709 84)">
</image>
<image overflow="visible" width="512" height="512" xlink:href="../../../Knowledge/Icon/[+++++] (Full) Windows 8 Icons [icons8]/Very_Basic/full_trash/full_trash-512.png"  transform="matrix(0.0406 0 0 0.0406 709 84)">
</image>
<image overflow="visible" width="512" height="512" xlink:href="../../../Knowledge/Icon/[+++++] (Full) Windows 8 Icons [icons8]/Very_Basic/empty_trash/empty_trash-512.png"  transform="matrix(0.0406 0 0 0.0406 709 84)">
</image>
<image overflow="visible" width="512" height="512" xlink:href="../../../Knowledge/Icon/[+++++] (Full) Windows 8 Icons [icons8]/Very_Basic/document/document-512.png"  transform="matrix(0.0406 0 0 0.0406 709 84)">
</image>
<image overflow="visible" width="512" height="512" xlink:href="../../../Knowledge/Icon/[+++++] (Full) Windows 8 Icons [icons8]/Very_Basic/clock/clock-512.png"  transform="matrix(0.0406 0 0 0.0406 709 84)">
</image>
<image overflow="visible" width="512" height="512" xlink:href="../../../Knowledge/Icon/[+++++] (Full) Windows 8 Icons [icons8]/Very_Basic/checkmark/checkmark-512.png"  transform="matrix(0.0406 0 0 0.0406 709 84)">
</image>
<image overflow="visible" width="512" height="512" xlink:href="../../../Knowledge/Icon/[+++++] (Full) Windows 8 Icons [icons8]/Very_Basic/bookmark/bookmark-512.png"  transform="matrix(0.0406 0 0 0.0406 709 84)">
</image>
<image overflow="visible" width="512" height="512" xlink:href="../../../Knowledge/Icon/[+++++] (Full) Windows 8 Icons [icons8]/Very_Basic/refresh/refresh-512_.png"  transform="matrix(0.0406 0 0 0.0406 709 84)">
</image>
<image overflow="visible" width="512" height="512" xlink:href="../../../Knowledge/Icon/[+++++] (Full) Windows 8 Icons [icons8]/Very_Basic/puzzle/puzzle-512_.png"  transform="matrix(0.0406 0 0 0.0406 709 84)">
</image>
<image overflow="visible" width="512" height="512" xlink:href="../../../Knowledge/Icon/[+++++] (Full) Windows 8 Icons [icons8]/Very_Basic/upload/upload-512.png"  transform="matrix(0.0406 0 0 0.0406 709 84)">
</image>
<image overflow="visible" width="512" height="512" xlink:href="../../../Knowledge/Icon/[+++++] (Full) Windows 8 Icons [icons8]/Very_Basic/unlock/unlock-512.png"  transform="matrix(0.0406 0 0 0.0406 709 84)">
</image>
<image overflow="visible" width="512" height="512" xlink:href="../../../Knowledge/Icon/[+++++] (Full) Windows 8 Icons [icons8]/Very_Basic/sinchronize/sinchronize-512.png"  transform="matrix(0.0406 0 0 0.0406 709 84)">
</image>
<image overflow="visible" width="512" height="512" xlink:href="../../../Knowledge/Icon/[+++++] (Full) Windows 8 Icons [icons8]/Very_Basic/settings/settings-512.png"  transform="matrix(0.0406 0 0 0.0406 709 84)">
</image>
<image overflow="visible" width="512" height="512" xlink:href="../../../Knowledge/Icon/[+++++] (Full) Windows 8 Icons [icons8]/Very_Basic/search/search-512.png"  transform="matrix(0.0406 0 0 0.0406 709 84)">
</image>
<image overflow="visible" width="512" height="512" xlink:href="../../../Knowledge/Icon/[+++++] (Full) Windows 8 Icons [icons8]/Very_Basic/plus/plus-512.png"  transform="matrix(0.0406 0 0 0.0406 709 84)">
</image>
<image overflow="visible" width="512" height="512" xlink:href="../../../Knowledge/Icon/[+++++] (Full) Windows 8 Icons [icons8]/Very_Basic/minus/minus-512.png"  transform="matrix(0.0406 0 0 0.0406 709 84)">
</image>
<image overflow="visible" width="512" height="512" xlink:href="../../../Knowledge/Icon/[+++++] (Full) Windows 8 Icons [icons8]/Very_Basic/lock/lock-512.png"  transform="matrix(0.0406 0 0 0.0406 709 84)">
</image>
<image overflow="visible" width="512" height="512" xlink:href="../../../Knowledge/Icon/[+++++] (Full) Windows 8 Icons [icons8]/Very_Basic/broken_link/broken_link-512_.png"  transform="matrix(0.0406 0 0 0.0406 707 109)">
</image>
<g>
	<path display="none" fill="#FFFFFF" d="M735.834,208.841c-6.929,0-13.86,0-20.793,0c0-6.931,0-13.862,0-20.796
		c6.928,0,13.858,0,20.793,0C735.834,194.974,735.834,201.907,735.834,208.841z M719.008,207.13c0.052,0.12,0.095,0.304,0.198,0.442
		c0.258,0.343,0.649,0.397,1.071,0.176c1.646-0.864,3.293-1.727,4.935-2.599c0.169-0.09,0.296-0.086,0.464,0.004
		c0.899,0.484,1.805,0.954,2.709,1.429c0.742,0.39,1.484,0.78,2.226,1.17c0.303,0.159,0.615,0.189,0.902-0.015
		c0.299-0.213,0.378-0.518,0.315-0.88c-0.322-1.858-0.634-3.718-0.957-5.576c-0.023-0.132,0.006-0.21,0.098-0.299
		c0.692-0.667,1.379-1.339,2.068-2.01c0.664-0.647,1.327-1.295,1.992-1.942c0.248-0.241,0.361-0.529,0.261-0.864
		c-0.098-0.328-0.348-0.512-0.681-0.561c-1.859-0.274-3.719-0.546-5.58-0.807c-0.184-0.026-0.279-0.093-0.36-0.259
		c-0.814-1.664-1.637-3.323-2.456-4.984c-0.117-0.238-0.269-0.439-0.537-0.518c-0.414-0.121-0.779,0.059-0.992,0.49
		c-0.832,1.685-1.663,3.37-2.493,5.056c-0.053,0.108-0.108,0.184-0.246,0.203c-1.881,0.267-3.761,0.54-5.641,0.814
		c-0.248,0.036-0.467,0.134-0.61,0.356c-0.23,0.361-0.173,0.747,0.167,1.079c1.347,1.314,2.696,2.626,4.04,3.943
		c0.062,0.06,0.122,0.174,0.109,0.25c-0.247,1.494-0.504,2.986-0.759,4.478C719.173,206.161,719.096,206.614,719.008,207.13z"/>
	<path d="M90.08,480.119c2.268-13.309,4.253-24.989,6.25-36.666c6.583-38.496,13.229-76.981,19.59-115.514
		c0.325-1.971-1.235-4.892-2.822-6.447C78.436,287.512,43.632,253.678,8.89,219.78c-8.773-8.56-10.257-18.526-4.314-27.825
		c3.668-5.739,9.325-8.252,15.724-9.185c48.49-7.07,96.985-14.105,145.502-20.987c3.566-0.506,4.972-2.457,6.344-5.246
		c21.401-43.492,42.846-86.962,64.305-130.426c5.494-11.128,14.906-15.775,25.589-12.642c6.912,2.027,10.822,7.21,13.852,13.351
		c21.135,42.845,42.37,85.641,63.359,128.557c2.087,4.268,4.542,6.001,9.296,6.668c48.008,6.742,95.979,13.748,143.941,20.814
		c8.59,1.265,15.044,5.995,17.577,14.465c2.581,8.633-0.34,16.073-6.733,22.286c-17.153,16.673-34.26,33.392-51.392,50.085
		c-17.758,17.303-35.485,34.637-53.334,51.845c-2.379,2.293-3.12,4.32-2.529,7.721c8.326,47.926,16.38,95.899,24.686,143.828
		c1.615,9.319-0.425,17.195-8.129,22.688c-7.393,5.271-15.432,4.494-23.256,0.387c-19.146-10.053-38.289-20.111-57.431-30.171
		c-23.31-12.251-46.68-24.388-69.868-36.865c-4.319-2.324-7.588-2.421-11.957-0.103c-42.362,22.48-84.838,44.744-127.299,67.036
		c-10.891,5.717-20.977,4.319-27.626-4.531C92.523,487.969,91.423,483.226,90.08,480.119z M373.307,441.317
		c0-1.665,0.124-2.538-0.018-3.366c-6.401-37.296-12.683-74.612-19.339-111.863c-1.85-10.353,0.393-18.634,8.082-26.035
		c26.799-25.795,53.334-51.865,79.958-77.841c1.299-1.268,2.494-2.642,4.171-4.427c-1.501-0.368-2.123-0.576-2.761-0.669
		c-37.968-5.556-75.914-11.275-113.924-16.533c-9.999-1.383-16.583-6.195-20.933-15.07c-16.349-33.354-32.847-66.636-49.293-99.942
		c-0.889-1.8-1.822-3.579-3.139-6.162c-1.376,2.488-2.335,4.07-3.151,5.722c-16.599,33.62-33.255,67.213-49.714,100.901
		c-3.923,8.029-9.897,12.938-18.676,14.22c-31.929,4.661-63.874,9.22-95.808,13.85c-7.436,1.078-14.853,2.288-22.279,3.437
		c-0.169,0.478-0.338,0.956-0.507,1.435c1.603,1.332,3.306,2.561,4.794,4.01c26.529,25.824,52.911,51.801,79.621,77.437
		c7.184,6.895,9.482,14.753,7.872,24.135c-5.396,31.452-10.869,62.892-16.282,94.341c-1.245,7.234-2.369,14.488-3.694,22.631
		c2.637-1.31,4.194-2.045,5.717-2.845c32.584-17.111,65.279-34.016,97.677-51.472c9.955-5.364,18.84-5.187,28.647,0.054
		c32.459,17.345,65.115,34.32,97.7,51.43C369.552,439.496,371.11,440.228,373.307,441.317z"/>
	<path stroke="#000000" d="M256,384c-11.5,15.167-4.362-2.152-14.317,3.212c-32.398,17.457-65.093,34.362-97.677,51.472
		c-1.523,0.8-3.08,1.535-5.717,2.845c1.326-8.143,2.449-15.398,3.694-22.631c5.413-31.45,10.885-62.889,16.282-94.341
		c1.61-9.383-0.688-17.24-7.872-24.135c-26.71-25.636-53.092-51.612-79.621-77.437c-1.489-1.449-3.191-2.679-4.794-4.01
		c0.169-0.478,0.338-0.956,0.507-1.435c7.426-1.149,14.843-2.359,22.279-3.437c31.934-4.631,63.878-9.189,95.808-13.85
		c8.779-1.282,14.753-6.191,18.676-14.22c16.46-33.688,33.115-67.281,49.714-100.901c0.816-1.652,1.775-3.234,3.151-5.722"/>
	<path stroke="#000000" d="M373.289,437.951"/>
</g>
</svg>
