<?xml version="1.0" encoding="utf-8"?>
<!-- Generator: Adobe Illustrator 17.0.0, SVG Export Plug-In . SVG Version: 6.00 Build 0)  -->
<!DOCTYPE svg PUBLIC "-//W3C//DTD SVG 1.1//EN" "http://www.w3.org/Graphics/SVG/1.1/DTD/svg11.dtd">
<svg version="1.1" id="Layer_1" xmlns="http://www.w3.org/2000/svg" xmlns:xlink="http://www.w3.org/1999/xlink" x="0px" y="0px"
	 width="512px" height="512px" viewBox="0 0 512 512" enable-background="new 0 0 512 512" xml:space="preserve">
<g>
	<line fill="none" stroke="#B35047" x1="32" y1="0" x2="32" y2="512"/>
	<line fill="none" stroke="#B35047" x1="64" y1="0" x2="64" y2="512"/>
	<line fill="none" stroke="#B35047" x1="96" y1="0" x2="96" y2="512"/>
	<line fill="none" stroke="#B35047" x1="128" y1="0" x2="128" y2="512"/>
	<line fill="none" stroke="#B35047" x1="160" y1="0" x2="160" y2="512"/>
	<line fill="none" stroke="#B35047" x1="192" y1="0" x2="192" y2="512"/>
	<line fill="none" stroke="#B35047" x1="224" y1="0" x2="224" y2="512"/>
	<line fill="none" stroke="#B35047" x1="256" y1="0" x2="256" y2="512"/>
	<line fill="none" stroke="#B35047" x1="288" y1="0" x2="288" y2="512"/>
	<line fill="none" stroke="#B35047" x1="320" y1="0" x2="320" y2="512"/>
	<line fill="none" stroke="#B35047" x1="352" y1="0" x2="352" y2="512"/>
	<line fill="none" stroke="#B35047" x1="384" y1="0" x2="384" y2="512"/>
	<line fill="none" stroke="#B35047" x1="416" y1="0" x2="416" y2="512"/>
	<line fill="none" stroke="#B35047" x1="448" y1="0" x2="448" y2="512"/>
	<line fill="none" stroke="#B35047" x1="480" y1="0" x2="480" y2="512"/>
	<line fill="none" stroke="#B35047" x1="0" y1="32" x2="512" y2="32"/>
	<line fill="none" stroke="#B35047" x1="0" y1="64" x2="512" y2="64"/>
	<line fill="none" stroke="#B35047" x1="0" y1="96" x2="512" y2="96"/>
	<line fill="none" stroke="#B35047" x1="0" y1="128" x2="512" y2="128"/>
	<line fill="none" stroke="#B35047" x1="0" y1="160" x2="512" y2="160"/>
	<line fill="none" stroke="#B35047" x1="0" y1="192" x2="512" y2="192"/>
	<line fill="none" stroke="#B35047" x1="0" y1="224" x2="512" y2="224"/>
	<line fill="none" stroke="#B35047" x1="0" y1="256" x2="512" y2="256"/>
	<line fill="none" stroke="#B35047" x1="0" y1="288" x2="512" y2="288"/>
	<line fill="none" stroke="#B35047" x1="0" y1="320" x2="512" y2="320"/>
	<line fill="none" stroke="#B35047" x1="0" y1="352" x2="512" y2="352"/>
	<line fill="none" stroke="#B35047" x1="0" y1="384" x2="512" y2="384"/>
	<line fill="none" stroke="#B35047" x1="0" y1="416" x2="512" y2="416"/>
	<line fill="none" stroke="#B35047" x1="0" y1="448" x2="512" y2="448"/>
	<line fill="none" stroke="#B35047" x1="0" y1="480" x2="512" y2="480"/>
	<rect x="0" fill="none" stroke="#B35047" width="512" height="512"/>
</g>
<g>
	<path display="none" fill="#FFFFFF" d="M132.508,511c-43.828,0-87.656,0-131.484,0c0-170,0-340,0-510c13.281,0,26.562,0,39.844,0
		c-0.08,1.812-0.274,3.627-0.223,5.435c0.423,15.097,0.506,30.215,1.431,45.282c1.605,26.158,3.488,52.306,5.759,78.414
		c1.127,12.956,1.637,12.712,14.635,12.979c4.101,0.084,5.738-1.394,7.094-5.027c11.817-31.67,23.874-63.251,35.692-94.921
		c1.227-3.287,2.687-4.538,6.324-4.517c28.219,0.166,56.44,0.088,84.66,0.103c1.591,0.001,3.181,0.166,4.886,0.26
		c0.081,1.784,0.192,3.093,0.192,4.401c0.008,141.433-0.006,282.867,0.082,424.3c0.002,3.693-1.068,4.86-4.762,5.738
		c-20.125,4.788-40.133,10.063-60.201,15.093c-3.042,0.763-4.377,2.244-4.197,5.542C132.546,499.711,132.441,505.36,132.508,511z"/>
	<path display="none" fill="#FFFFFF" d="M471.18,1c13.272,0,26.543,0,39.796,0c0,170,0,340,0,510c-43.844,0-87.64,0-131.436,0
		c0.068-5.306-0.146-10.635,0.295-15.91c0.346-4.138-1.276-6.016-5.105-6.964c-19.267-4.766-38.456-9.858-57.787-14.34
		c-4.326-1.003-5.466-2.501-5.462-6.759c0.108-140.879,0.089-281.759,0.089-422.639c0-1.754,0-3.508,0-5.652c2.165,0,3.628,0,5.09,0
		c27.877,0,55.755,0.079,83.631-0.092c3.836-0.023,5.325,1.314,6.617,4.815c11.699,31.699,23.668,63.299,35.428,94.976
		c1.19,3.206,2.571,4.685,6.318,4.662c15.338-0.092,15.482,0.066,16.487-15.425c2.008-30.951,3.997-61.906,5.666-92.876
		C471.413,23.558,471.083,12.267,471.18,1z"/>
	<path d="M471.27,1c-0.097,11.267,0.233,22.558-0.373,33.798c-1.669,30.971-3.658,61.925-5.666,92.876
		c-1.005,15.491-1.149,15.333-16.487,15.425c-3.747,0.023-5.128-1.456-6.318-4.662c-11.76-31.677-23.729-63.276-35.428-94.976
		c-1.292-3.501-2.781-4.839-6.617-4.815c-27.876,0.17-55.754,0.091-83.631,0.092c-1.463,0-2.925,0-5.09,0c0,2.144,0,3.898,0,5.652
		c0,140.88,0.018,281.759-0.089,422.639c-0.003,4.258,1.136,5.756,5.462,6.759c19.331,4.482,38.52,9.574,57.787,14.34
		c3.829,0.947,5.451,2.825,5.105,6.964c-0.441,5.275-0.227,10.604-0.295,15.91c-82.344,0-164.687,0-247.031,0
		c-0.068-5.64,0.038-11.289-0.269-16.916c-0.18-3.298,1.155-4.78,4.197-5.542c20.068-5.031,40.076-10.306,60.201-15.093
		c3.693-0.879,4.764-2.046,4.762-5.738c-0.088-141.433-0.074-282.867-0.082-424.3c0-1.308-0.111-2.617-0.192-4.401
		c-1.705-0.095-3.295-0.259-4.886-0.26c-28.22-0.016-56.441,0.063-84.66-0.103c-3.638-0.021-5.098,1.23-6.324,4.517
		c-11.818,31.67-23.875,63.251-35.692,94.921c-1.356,3.633-2.993,5.112-7.094,5.027c-12.998-0.267-13.508-0.024-14.635-12.979
		c-2.27-26.108-4.153-52.256-5.759-78.414C41.24,36.65,41.157,21.531,40.734,6.435C40.683,4.627,40.877,2.812,40.957,1
		C184.395,1,327.832,1,471.27,1z"/>
</g>
<image display="none" overflow="visible" width="512" height="512" xlink:href="../../../Knowledge/Icon/[+++++] (Full) Windows 8 Icons [icons8]/Image_Edition_Tools/screenshot/screenshot-512.png"  transform="matrix(0.0406 0 0 0.0406 572 39)">
</image>
<image display="none" overflow="visible" width="512" height="512" xlink:href="../../../Knowledge/Icon/[+++++] (Full) Windows 8 Icons [icons8]/Image_Edition_Tools/pencil/pencil-512.png"  transform="matrix(0.0406 0 0 0.0406 572 39)">
</image>
<image display="none" overflow="visible" width="512" height="512" xlink:href="../../../Knowledge/Icon/[+++++] (Full) Windows 8 Icons [icons8]/Image_Edition_Tools/eraser/eraser-512.png"  transform="matrix(0.0406 0 0 0.0406 572 39)">
</image>
<image display="none" overflow="visible" width="512" height="512" xlink:href="../../../Knowledge/Icon/[+++++] (Full) Windows 8 Icons [icons8]/Image_Edition_Tools/expand/expand-512_.png"  transform="matrix(0.0406 0 0 0.0406 572 39)">
</image>
<image display="none" overflow="visible" width="512" height="512" xlink:href="../../../Knowledge/Icon/[+++++] (Full) Windows 8 Icons [icons8]/Image_Edition_Tools/collapse/collapse-512_.png"  transform="matrix(0.0406 0 0 0.0406 572 39)">
</image>
<image display="none" overflow="visible" width="512" height="512" xlink:href="../../../Knowledge/Icon/[+++++] (Full) Windows 8 Icons [icons8]/Image_Edition_Tools/rotate/rotate-512_.png"  transform="matrix(0.0406 0 0 0.0406 572 39)">
</image>
<image display="none" overflow="visible" width="512" height="512" xlink:href="../../../Knowledge/Icon/[+++++] (Full) Windows 8 Icons [icons8]/Image_Edition_Tools/resize/resize-512_.png"  transform="matrix(0.0406 0 0 0.0406 572 39)">
</image>
</svg>
