<?xml version="1.0" encoding="utf-8"?>
<!-- Generator: Adobe Illustrator 17.0.0, SVG Export Plug-In . SVG Version: 6.00 Build 0)  -->
<!DOCTYPE svg PUBLIC "-//W3C//DTD SVG 1.1//EN" "http://www.w3.org/Graphics/SVG/1.1/DTD/svg11.dtd">
<svg version="1.1" id="Layer_1" xmlns="http://www.w3.org/2000/svg" xmlns:xlink="http://www.w3.org/1999/xlink" x="0px" y="0px"
	 width="512px" height="512px" viewBox="0 0 512 512" enable-background="new 0 0 512 512" xml:space="preserve">
<g>
	<line fill="none" stroke="#B35047" x1="32" y1="0" x2="32" y2="512"/>
	<line fill="none" stroke="#B35047" x1="64" y1="0" x2="64" y2="512"/>
	<line fill="none" stroke="#B35047" x1="96" y1="0" x2="96" y2="512"/>
	<line fill="none" stroke="#B35047" x1="128" y1="0" x2="128" y2="512"/>
	<line fill="none" stroke="#B35047" x1="160" y1="0" x2="160" y2="512"/>
	<line fill="none" stroke="#B35047" x1="192" y1="0" x2="192" y2="512"/>
	<line fill="none" stroke="#B35047" x1="224" y1="0" x2="224" y2="512"/>
	<line fill="none" stroke="#B35047" x1="256" y1="0" x2="256" y2="512"/>
	<line fill="none" stroke="#B35047" x1="288" y1="0" x2="288" y2="512"/>
	<line fill="none" stroke="#B35047" x1="320" y1="0" x2="320" y2="512"/>
	<line fill="none" stroke="#B35047" x1="352" y1="0" x2="352" y2="512"/>
	<line fill="none" stroke="#B35047" x1="384" y1="0" x2="384" y2="512"/>
	<line fill="none" stroke="#B35047" x1="416" y1="0" x2="416" y2="512"/>
	<line fill="none" stroke="#B35047" x1="448" y1="0" x2="448" y2="512"/>
	<line fill="none" stroke="#B35047" x1="480" y1="0" x2="480" y2="512"/>
	<line fill="none" stroke="#B35047" x1="0" y1="32" x2="512" y2="32"/>
	<line fill="none" stroke="#B35047" x1="0" y1="64" x2="512" y2="64"/>
	<line fill="none" stroke="#B35047" x1="0" y1="96" x2="512" y2="96"/>
	<line fill="none" stroke="#B35047" x1="0" y1="128" x2="512" y2="128"/>
	<line fill="none" stroke="#B35047" x1="0" y1="160" x2="512" y2="160"/>
	<line fill="none" stroke="#B35047" x1="0" y1="192" x2="512" y2="192"/>
	<line fill="none" stroke="#B35047" x1="0" y1="224" x2="512" y2="224"/>
	<line fill="none" stroke="#B35047" x1="0" y1="256" x2="512" y2="256"/>
	<line fill="none" stroke="#B35047" x1="0" y1="288" x2="512" y2="288"/>
	<line fill="none" stroke="#B35047" x1="0" y1="320" x2="512" y2="320"/>
	<line fill="none" stroke="#B35047" x1="0" y1="352" x2="512" y2="352"/>
	<line fill="none" stroke="#B35047" x1="0" y1="384" x2="512" y2="384"/>
	<line fill="none" stroke="#B35047" x1="0" y1="416" x2="512" y2="416"/>
	<line fill="none" stroke="#B35047" x1="0" y1="448" x2="512" y2="448"/>
	<line fill="none" stroke="#B35047" x1="0" y1="480" x2="512" y2="480"/>
	<rect x="0" fill="none" stroke="#B35047" width="512" height="512"/>
</g>
<image display="none" overflow="visible" width="512" height="512" xlink:href="../../../Knowledge/Icon/[+++++] (Full) Windows 8 Icons [icons8]/Data/zoom_out/zoom_out-512.png"  transform="matrix(0.0406 0 0 0.0406 563 53)">
</image>
<image display="none" overflow="visible" width="512" height="512" xlink:href="../../../Knowledge/Icon/[+++++] (Full) Windows 8 Icons [icons8]/Data/zoom_in/zoom_in-512.png"  transform="matrix(0.0406 0 0 0.0406 563 53)">
</image>
<image display="none" overflow="visible" width="512" height="512" xlink:href="../../../Knowledge/Icon/[+++++] (Full) Windows 8 Icons [icons8]/Data/delete_ticket/delete_ticket-512.png"  transform="matrix(0.0406 0 0 0.0406 563 53)">
</image>
<g>
	<path display="none" fill="#FFFFFF" d="M583.834,73.841c-6.929,0-13.86,0-20.793,0c0-6.931,0-13.862,0-20.796
		c6.928,0,13.858,0,20.793,0C583.834,59.974,583.834,66.907,583.834,73.841z M564.66,68.752c0.47-0.383,1.005-0.595,1.608-0.588
		c0.61,0.007,1.152,0.216,1.612,0.622c0.42,0.371,0.685,0.834,0.791,1.383c0.149,0.771-0.069,1.454-0.541,2.061
		c0.454,0.456,0.89,0.9,1.335,1.335c0.084,0.082,0.196,0.149,0.308,0.188c0.375,0.131,0.662-0.027,0.925-0.291
		c3.315-3.32,6.633-6.636,9.95-9.954c0.047-0.047,0.091-0.096,0.145-0.154c-0.119-0.116-0.238-0.216-0.339-0.333
		c-0.158-0.183-0.15-0.415,0.006-0.567c0.157-0.153,0.384-0.156,0.567,0.006c0.114,0.102,0.213,0.221,0.309,0.323
		c0.76-0.75,1.511-1.472,2.238-2.217c0.306-0.313,0.265-0.765-0.054-1.097c-0.276-0.288-0.565-0.565-0.845-0.849
		c-0.155-0.158-0.305-0.321-0.453-0.476c-1.288,0.958-2.6,0.559-3.301-0.119c-0.91-0.88-0.982-1.985-0.197-3.36
		c-0.403-0.401-0.81-0.806-1.217-1.211c-0.447-0.444-0.875-0.444-1.32,0.001c-0.656,0.655-1.312,1.312-1.967,1.968
		c-0.041,0.041-0.079,0.086-0.114,0.123c0.133,0.127,0.26,0.238,0.374,0.361c0.185,0.199,0.19,0.432,0.024,0.598
		c-0.165,0.165-0.393,0.152-0.6-0.026c-0.131-0.113-0.269-0.218-0.407-0.33c0.008-0.008-0.027,0.024-0.06,0.058
		c-3.342,3.341-6.683,6.682-10.025,10.023c-0.029,0.029-0.058,0.057-0.085,0.087c-0.308,0.345-0.318,0.784,0.002,1.116
		C563.758,67.873,564.203,68.299,564.66,68.752z"/>
	<path d="M39.611,386.466c-11.275-11.174-22.248-21.675-32.776-32.603c-7.897-8.197-7.644-19.009-0.055-27.511
		c0.666-0.746,1.389-1.442,2.097-2.15c82.37-82.363,164.74-164.725,247.114-247.084c0.823-0.823,1.683-1.611,1.48-1.418
		c3.411,2.755,6.809,5.349,10.036,8.139c5.089,4.4,10.708,4.713,14.781,0.65c4.092-4.081,3.971-9.826-0.583-14.73
		c-2.813-3.029-5.952-5.754-9.229-8.887c0.843-0.914,1.784-2.005,2.8-3.022c16.157-16.176,32.313-32.353,48.491-48.508
		c10.986-10.971,21.535-10.963,32.544-0.015c10.039,9.982,20.07,19.973,29.996,29.852c-19.341,33.918-17.566,61.138,4.866,82.838
		c17.273,16.709,49.618,26.538,81.369,2.929c3.636,3.835,7.328,7.855,11.157,11.74c6.912,7.012,14.023,13.83,20.836,20.935
		c7.848,8.184,8.86,19.317,1.326,27.043c-17.921,18.377-36.435,36.177-55.158,54.653c-2.361-2.497-4.784-5.45-7.606-7.955
		c-4.513-4.006-10.117-3.92-13.986-0.149c-3.849,3.752-4.059,9.453-0.154,13.976c2.479,2.872,5.414,5.35,8.352,8.207
		c-1.342,1.431-2.425,2.652-3.578,3.805c-81.771,81.781-163.567,163.538-245.288,245.37c-6.487,6.496-13.554,10.385-22.8,7.165
		c-2.749-0.957-5.518-2.598-7.592-4.627c-10.969-10.731-21.719-21.685-32.901-32.92c11.633-14.963,17.016-31.795,13.339-50.802
		c-2.615-13.516-9.164-24.936-19.509-34.083c-11.334-10.022-24.698-15.174-39.731-15.338
		C64.383,371.801,51.194,377.019,39.611,386.466z M301.93,94.296c-7.18,0.122-12.394,8.32-8.478,14.316
		c2.747,4.208,6.618,8.059,10.796,10.866c5.992,4.026,14.149-0.937,14.415-8.162C318.893,105.041,308.225,94.189,301.93,94.296z
		 M335.388,127.981c-7.486,0.135-12.397,8.513-8.14,14.688c2.685,3.894,6.211,7.635,10.206,10.041
		c2.439,1.469,7.145,1.41,9.619-0.038c2.499-1.462,4.61-5.371,4.923-8.41C352.632,138.079,341.598,127.869,335.388,127.981z
		 M385.976,179.582c-1.225-8.855-6.753-12.659-11.816-16.567c-3.712-2.865-8.578-2.06-11.914,1.113
		c-3.45,3.282-4.396,8.42-1.429,12.259c2.817,3.645,6.02,7.389,9.887,9.682c2.498,1.481,6.987,1.472,9.687,0.211
		C383.052,185.038,384.581,181.374,385.976,179.582z M419.213,211.581c0.087-6.33-10.752-16.88-17.072-16.618
		c-7.298,0.303-12.138,8.318-8.109,14.394c2.693,4.062,6.408,7.801,10.443,10.537C410.622,224.062,419.111,218.962,419.213,211.581z
		"/>
	<path display="none" fill="#FFFFFF" d="M575.302,56.9c0.255-0.004,0.688,0.436,0.679,0.69c-0.011,0.293-0.342,0.494-0.585,0.331
		c-0.169-0.114-0.326-0.27-0.438-0.441C574.799,57.238,575.011,56.905,575.302,56.9z"/>
	<path display="none" fill="#FFFFFF" d="M576.659,58.266c0.252-0.005,0.7,0.41,0.674,0.66c-0.013,0.123-0.098,0.282-0.2,0.341
		c-0.1,0.059-0.291,0.061-0.39,0.002c-0.162-0.098-0.305-0.249-0.414-0.407C576.156,58.612,576.355,58.272,576.659,58.266z"/>
	<path display="none" fill="#FFFFFF" d="M578.711,60.36c-0.057,0.073-0.119,0.221-0.227,0.272c-0.109,0.051-0.292,0.052-0.393-0.009
		c-0.157-0.093-0.287-0.245-0.401-0.393c-0.12-0.156-0.082-0.364,0.058-0.497c0.135-0.129,0.333-0.161,0.483-0.045
		C578.437,59.846,578.661,60.001,578.711,60.36z"/>
	<path display="none" fill="#FFFFFF" d="M580.06,61.658c-0.004,0.299-0.348,0.506-0.598,0.337c-0.164-0.111-0.314-0.263-0.424-0.427
		c-0.163-0.246,0.033-0.572,0.329-0.584C579.623,60.973,580.063,61.401,580.06,61.658z"/>
</g>
</svg>
