<?xml version="1.0" encoding="utf-8"?>
<!-- Generator: Adobe Illustrator 17.0.0, SVG Export Plug-In . SVG Version: 6.00 Build 0)  -->
<!DOCTYPE svg PUBLIC "-//W3C//DTD SVG 1.1//EN" "http://www.w3.org/Graphics/SVG/1.1/DTD/svg11.dtd">
<svg version="1.1" id="Layer_1" xmlns="http://www.w3.org/2000/svg" xmlns:xlink="http://www.w3.org/1999/xlink" x="0px" y="0px"
	 width="512px" height="512px" viewBox="0 0 512 512" enable-background="new 0 0 512 512" xml:space="preserve">
<g>
	<line fill="none" stroke="#B35047" x1="32" y1="0" x2="32" y2="512"/>
	<line fill="none" stroke="#B35047" x1="64" y1="0" x2="64" y2="512"/>
	<line fill="none" stroke="#B35047" x1="96" y1="0" x2="96" y2="512"/>
	<line fill="none" stroke="#B35047" x1="128" y1="0" x2="128" y2="512"/>
	<line fill="none" stroke="#B35047" x1="160" y1="0" x2="160" y2="512"/>
	<line fill="none" stroke="#B35047" x1="192" y1="0" x2="192" y2="512"/>
	<line fill="none" stroke="#B35047" x1="224" y1="0" x2="224" y2="512"/>
	<line fill="none" stroke="#B35047" x1="256" y1="0" x2="256" y2="512"/>
	<line fill="none" stroke="#B35047" x1="288" y1="0" x2="288" y2="512"/>
	<line fill="none" stroke="#B35047" x1="320" y1="0" x2="320" y2="512"/>
	<line fill="none" stroke="#B35047" x1="352" y1="0" x2="352" y2="512"/>
	<line fill="none" stroke="#B35047" x1="384" y1="0" x2="384" y2="512"/>
	<line fill="none" stroke="#B35047" x1="416" y1="0" x2="416" y2="512"/>
	<line fill="none" stroke="#B35047" x1="448" y1="0" x2="448" y2="512"/>
	<line fill="none" stroke="#B35047" x1="480" y1="0" x2="480" y2="512"/>
	<line fill="none" stroke="#B35047" x1="0" y1="32" x2="512" y2="32"/>
	<line fill="none" stroke="#B35047" x1="0" y1="64" x2="512" y2="64"/>
	<line fill="none" stroke="#B35047" x1="0" y1="96" x2="512" y2="96"/>
	<line fill="none" stroke="#B35047" x1="0" y1="128" x2="512" y2="128"/>
	<line fill="none" stroke="#B35047" x1="0" y1="160" x2="512" y2="160"/>
	<line fill="none" stroke="#B35047" x1="0" y1="192" x2="512" y2="192"/>
	<line fill="none" stroke="#B35047" x1="0" y1="224" x2="512" y2="224"/>
	<line fill="none" stroke="#B35047" x1="0" y1="256" x2="512" y2="256"/>
	<line fill="none" stroke="#B35047" x1="0" y1="288" x2="512" y2="288"/>
	<line fill="none" stroke="#B35047" x1="0" y1="320" x2="512" y2="320"/>
	<line fill="none" stroke="#B35047" x1="0" y1="352" x2="512" y2="352"/>
	<line fill="none" stroke="#B35047" x1="0" y1="384" x2="512" y2="384"/>
	<line fill="none" stroke="#B35047" x1="0" y1="416" x2="512" y2="416"/>
	<line fill="none" stroke="#B35047" x1="0" y1="448" x2="512" y2="448"/>
	<line fill="none" stroke="#B35047" x1="0" y1="480" x2="512" y2="480"/>
	<rect x="0" fill="none" stroke="#B35047" width="512" height="512"/>
</g>
<image display="none" overflow="visible" width="512" height="512" xlink:href="../../../Knowledge/Icon/[+++++] (Full) Windows 8 Icons [icons8]/Office_Stuff/phone/phone-512.png"  transform="matrix(0.0406 0 0 0.0406 577 56)">
</image>
<g>
	<path d="M511,256.502c0,54.453,0,108.906,0,163.359c-0.302,0.566-0.769,1.1-0.883,1.701c-5.931,31.237-28.569,50.031-60.45,50.068
		c-31.697,0.037-63.394,0.009-95.091,0.009c-97.746,0-195.492,0.033-293.238-0.023c-29.178-0.017-51.946-17.856-58.69-45.655
		c-0.496-2.046-1.096-4.068-1.648-6.1c0-54.453,0-108.906,0-163.359c32.462,0,64.924,0,97.827,0c0,9.286-0.091,17.894,0.025,26.5
		c0.119,8.776,3.826,12.431,12.464,12.462c11.62,0.042,23.241,0.058,34.862-0.007c7.85-0.044,11.545-3.624,11.963-11.456
		c0.124-2.318,0.035-4.647,0.035-6.971c0.002-6.735,0.001-13.471,0.001-20.234c65.604,0,130.405,0,195.649,0
		c0,8.996-0.091,17.604,0.026,26.209c0.119,8.775,3.828,12.427,12.467,12.458c11.454,0.042,22.909,0.041,34.364,0
		c8.47-0.03,12.161-3.595,12.474-11.964c0.081-2.155,0.019-4.316,0.019-6.474c0.001-6.735,0-13.47,0-20.524
		C446.321,256.502,478.66,256.502,511,256.502z"/>
	<path display="none" fill="#FFFFFF" d="M577.041,62.987c0-2.313,0-4.625,0-6.947c2.83,0,5.66,0,8.491,0
		c-0.044,0.014-0.087,0.033-0.133,0.041c-2.076,0.356-2.914,2.055-2.761,3.912c0.436,0.022,0.875,0.044,1.313,0.065
		c0.073,0.003,0.145,0,0.239,0c0.014-0.277,0.03-0.539,0.039-0.801c0.032-0.928,0.679-1.604,1.606-1.623
		c1.069-0.021,2.139-0.021,3.208,0c0.928,0.019,1.574,0.694,1.606,1.623c0.009,0.262,0.026,0.524,0.04,0.812
		c0.537-0.027,1.052-0.053,1.584-0.079c-0.009-0.164-0.017-0.298-0.024-0.433c-0.007-0.135-0.012-0.27-0.02-0.405
		c-0.071-1.261-0.66-2.2-1.787-2.769c-0.337-0.17-0.727-0.233-1.093-0.344c2.83,0,5.66,0,8.491,0c0,2.316,0,4.631,0,6.947
		c-0.066-0.226-0.106-0.463-0.202-0.675c-0.45-0.991-1.241-1.467-2.319-1.467c-4.792-0.002-9.584-0.001-14.377-0.001
		c-0.487,0-0.975-0.005-1.462,0.001c-1.176,0.015-2.1,0.746-2.373,1.869C577.086,62.806,577.063,62.897,577.041,62.987z"/>
	<path display="none" fill="#FFFFFF" d="M577.041,71.519c0.022,0.083,0.047,0.165,0.067,0.249c0.275,1.134,1.204,1.861,2.394,1.862
		c3.987,0.002,7.973,0.001,11.959,0.001c1.293,0,2.586,0.001,3.878,0c1.3-0.002,2.224-0.768,2.465-2.042
		c0.005-0.025,0.024-0.046,0.036-0.069c0,1.774,0,3.548,0,5.322c-6.933,0-13.867,0-20.8,0
		C577.041,75.067,577.041,73.293,577.041,71.519z"/>
	<path d="M1,210.682c0.552-2.229,1.112-4.457,1.653-6.689c6.686-27.548,29.345-45.466,58.175-45.838
		c11.947-0.154,23.898-0.031,35.848-0.031c117.501,0,235.003-0.034,352.504,0.027c26.429,0.014,45.817,11.672,56.858,35.973
		c2.362,5.198,3.344,11.022,4.962,16.557c0,8.633,0,17.266,0,25.898c-32.465,0-64.93,0-97.825,0c0-2.972,0.042-5.109-0.007-7.244
		c-0.205-8.931-3.929-12.644-12.86-12.684c-11.285-0.05-22.57-0.059-33.855,0.004c-8.457,0.047-12.261,3.683-12.606,11.924
		c-0.102,2.434-0.016,4.875-0.016,7.571c-65.431,0-130.231,0-195.659,0c0-2.53,0.055-4.803-0.01-7.073
		c-0.246-8.634-3.991-12.373-12.616-12.421c-11.451-0.064-22.902-0.076-34.353,0.005c-8.309,0.059-12.067,3.829-12.353,12.177
		c-0.082,2.404-0.013,4.813-0.013,7.578c-2.798,0-4.763-0.003-6.729,0c-30.367,0.054-60.734,0.109-91.1,0.163
		C1,227.948,1,219.315,1,210.682z"/>
	<path display="none" fill="#FFFFFF" d="M577.041,64.044c1.238-0.002,2.477-0.004,3.715-0.007c0.08,0,0.16,0,0.274,0
		c0-0.113-0.003-0.211,0-0.309c0.012-0.34,0.165-0.494,0.504-0.497c0.467-0.003,0.934-0.003,1.401,0
		c0.352,0.002,0.505,0.154,0.515,0.507c0.003,0.093,0,0.185,0,0.288c2.668,0,5.311,0,7.98,0c0-0.11-0.004-0.21,0.001-0.309
		c0.014-0.336,0.169-0.484,0.514-0.486c0.46-0.003,0.92-0.002,1.381,0c0.364,0.002,0.516,0.153,0.524,0.517
		c0.002,0.087,0,0.174,0,0.295c1.342,0,2.666,0,3.99,0c0,0.271,0,0.542,0,0.813c-1.319,0-2.638,0-3.99,0c0,0.288,0,0.562,0,0.837
		c0,0.088,0.003,0.176-0.001,0.264c-0.013,0.341-0.163,0.487-0.509,0.488c-0.467,0.002-0.934,0.002-1.401,0
		c-0.352-0.001-0.504-0.15-0.508-0.508c-0.005-0.351-0.001-0.702-0.001-1.069c-2.661,0-5.304,0-7.979,0c0,0.276,0,0.551,0,0.825
		c0,0.095,0.004,0.19-0.001,0.284c-0.017,0.319-0.168,0.465-0.488,0.467c-0.474,0.003-0.948,0.002-1.422,0
		c-0.352-0.001-0.503-0.15-0.508-0.508c-0.005-0.351-0.001-0.702-0.001-1.081c-1.342,0-2.666,0-3.99,0
		C577.041,64.585,577.041,64.315,577.041,64.044z"/>
	<path d="M302.816,40.35c8.971,2.741,18.547,4.281,26.801,8.443c27.627,13.929,42.073,36.954,43.819,67.882
		c0.187,3.313,0.313,6.629,0.487,9.943c0.172,3.29,0.369,6.579,0.597,10.607c-13.024,0.65-25.652,1.28-38.83,1.938
		c-0.353-7.065-0.756-13.48-0.979-19.901c-0.79-22.764-16.638-39.33-39.385-39.787c-26.208-0.527-52.444-0.526-78.652,0
		c-22.746,0.456-38.595,17.023-39.386,39.787c-0.223,6.421-0.626,12.836-0.966,19.632c-2.307,0-4.092,0.073-5.87-0.012
		c-10.756-0.515-21.51-1.067-32.206-1.603c-3.77-45.539,16.773-87.186,67.688-95.92c1.108-0.19,2.167-0.666,3.25-1.009
		C240.395,40.35,271.605,40.35,302.816,40.35z"/>
</g>
<g display="none">
	<path display="inline" d="M133.48,1C215.16,1,296.84,1,378.52,1c0.911,0.317,1.8,0.806,2.737,0.927
		c14.604,1.882,26.579,8.579,36.265,19.581c10.885,12.365,14.653,27.052,14.586,43.162c-0.121,29.016-0.034,58.033-0.034,87.05
		c0,1.941,0,3.883,0,6.581c7.826,0,15.086-0.23,22.327,0.041c26.394,0.989,48.137,18.703,54.605,44.271
		c0.64,2.529,1.329,5.045,1.994,7.567c0,43.496,0,86.992,0,130.488c-0.55,2.226-1.109,4.45-1.65,6.679
		c-6.672,27.497-29.305,45.403-58.049,45.858c-6.24,0.099-12.484,0.014-19.228,0.014c0,2.552,0.021,4.498-0.003,6.443
		c-0.252,19.869,0.299,39.791-1.003,59.592c-1.227,18.671-11.097,33.291-27.242,42.549c-7.671,4.399-16.824,6.213-25.305,9.198
		c-81.68,0-163.359,0-245.039,0c-5.272-1.304-10.63-2.336-15.801-3.961c-19.681-6.186-36.906-27.633-37.748-48.19
		c-0.808-19.715-0.542-39.474-0.742-59.214c-0.02-1.941-0.003-3.883-0.003-6.416c-6.505,0-12.432,0.074-18.357-0.013
		c-28.822-0.421-51.492-18.31-58.176-45.85c-0.542-2.232-1.102-4.459-1.653-6.689c0-43.496,0-86.992,0-130.488
		c0.321-0.74,0.805-1.451,0.938-2.224c4.458-25.882,22.497-44.488,48.36-48.849c7.614-1.284,15.552-0.945,23.333-0.822
		c4.286,0.068,5.687-1.048,5.657-5.538c-0.196-30.046-0.172-60.095-0.078-90.142c0.075-23.796,9.575-42.606,30.901-53.976
		C117.232,4.832,125.654,3.473,133.48,1z M118.507,295.543c-0.132,1.393-0.277,2.205-0.277,3.017
		c-0.009,50.622-0.091,101.245,0.05,151.866c0.038,13.823,8.109,21.557,22.412,21.574c76.514,0.094,153.028,0.058,229.543,0.021
		c5.722-0.003,11.205-1.024,15.799-4.926c6.051-5.14,7.089-12.026,7.086-19.366c-0.016-48.962-0.005-97.925-0.022-146.887
		c-0.001-1.742-0.213-3.485-0.331-5.3C301.085,295.543,210.011,295.543,118.507,295.543z M118.451,157.309
		c91.822,0,183.012,0,274.281,0c0.155-1.068,0.329-1.713,0.33-2.358c0.019-31.044,0.22-62.09-0.177-93.128
		c-0.062-4.815-1.988-10.156-4.605-14.264c-4.229-6.638-11.645-7.604-19.009-7.604c-75.7-0.006-151.401-0.018-227.101,0.008
		c-16.48,0.006-23.933,7.547-23.949,24.125c-0.027,29.384-0.011,58.767,0.002,88.151
		C118.224,153.859,118.365,155.481,118.451,157.309z M393.273,226.462c-0.046,16.231,13.048,29.512,29.218,29.636
		c16.326,0.125,29.894-13.374,29.805-29.654c-0.089-16.166-13.366-29.332-29.577-29.329
		C406.462,197.117,393.319,210.216,393.273,226.462z"/>
	<path fill="#FFFFFF" d="M597.841,64.572c-0.027-0.103-0.055-0.205-0.081-0.309c-0.264-1.043-1.151-1.765-2.227-1.806
		c-0.295-0.011-0.591-0.002-0.911-0.002c0-0.11,0-0.189,0-0.268c0-1.183-0.004-2.367,0.001-3.55c0.003-0.657-0.151-1.256-0.595-1.76
		c-0.395-0.449-0.883-0.722-1.479-0.799c-0.038-0.005-0.074-0.025-0.112-0.038c1.801,0,3.602,0,5.403,0
		C597.841,58.884,597.841,61.728,597.841,64.572z"/>
	<path fill="#FFFFFF" d="M582.444,56.041c-0.319,0.101-0.663,0.156-0.953,0.311c-0.87,0.464-1.257,1.231-1.26,2.201
		c-0.004,1.225-0.005,2.451,0.003,3.676c0.001,0.183-0.056,0.229-0.231,0.226c-0.317-0.005-0.641-0.019-0.952,0.034
		c-1.055,0.178-1.79,0.937-1.972,1.992c-0.005,0.031-0.025,0.061-0.038,0.091c0-2.84,0-5.679,0-8.531
		C578.842,56.041,580.643,56.041,582.444,56.041z"/>
	<path fill="#FFFFFF" d="M592.438,76.841c0.346-0.122,0.719-0.196,1.032-0.375c0.658-0.378,1.061-0.974,1.111-1.735
		c0.053-0.808,0.031-1.62,0.041-2.43c0.001-0.079,0-0.159,0-0.263c0.275,0,0.53,0.003,0.784-0.001
		c1.172-0.019,2.095-0.749,2.367-1.87c0.022-0.091,0.045-0.182,0.067-0.272c0,2.316,0,4.631,0,6.947
		C596.04,76.841,594.239,76.841,592.438,76.841z"/>
	<path fill="#FFFFFF" d="M577.041,69.894c0.022,0.091,0.045,0.182,0.067,0.273c0.273,1.123,1.197,1.853,2.373,1.87
		c0.242,0.004,0.483,0.001,0.749,0.001c0,0.103-0.001,0.183,0,0.262c0.008,0.805-0.003,1.611,0.03,2.415
		c0.034,0.838,0.737,1.713,1.54,1.965c0.211,0.066,0.429,0.108,0.644,0.162c-1.801,0-3.602,0-5.403,0
		C577.041,74.525,577.041,72.209,577.041,69.894z"/>
	<path fill="#FFFFFF" d="M581.833,68.053c3.732,0,7.446,0,11.185,0c0.005,0.074,0.013,0.145,0.013,0.216
		c0.001,1.997,0,3.994,0.001,5.991c0,0.299-0.042,0.58-0.289,0.79c-0.187,0.159-0.411,0.201-0.644,0.201
		c-3.121,0.002-6.241,0.003-9.362-0.001c-0.583-0.001-0.913-0.316-0.914-0.88c-0.006-2.065-0.002-4.129-0.002-6.194
		C581.822,68.143,581.828,68.11,581.833,68.053z M583.464,71.218c2.663,0,5.305,0,7.952,0c0-0.525,0-1.035,0-1.556
		c-2.655,0-5.297,0-7.952,0C583.464,70.183,583.464,70.694,583.464,71.218z M583.467,72.061c0,0.532,0,1.043,0,1.556
		c1.858,0,3.701,0,5.551,0c0-0.524,0-1.034,0-1.556C587.164,72.061,585.322,72.061,583.467,72.061z"/>
	<path fill="#FFFFFF" d="M581.831,62.416c-0.003-0.075-0.009-0.141-0.009-0.207c-0.001-1.198-0.001-2.397,0-3.595
		c0.001-0.676,0.305-0.984,0.977-0.984c3.087-0.001,6.175-0.001,9.262,0c0.3,0,0.603,0.039,0.775,0.31
		c0.107,0.168,0.185,0.385,0.188,0.582c0.016,1.266,0.008,2.532,0.007,3.798c0,0.026-0.007,0.053-0.013,0.096
		C589.295,62.416,585.576,62.416,581.831,62.416z"/>
	<path fill="#FFFFFF" d="M593.039,65.236c0.002-0.663,0.538-1.197,1.201-1.197c0.661,0,1.203,0.537,1.206,1.196
		c0.004,0.664-0.55,1.215-1.216,1.209C593.571,66.44,593.037,65.898,593.039,65.236z"/>
	<path display="inline" d="M158.507,373.142c0-12.865,0-25.383,0-38.164c65.106,0,129.884,0,194.989,0c0,12.784,0,25.302,0,38.164
		C288.578,373.142,223.799,373.142,158.507,373.142z"/>
	<path display="inline" d="M158.572,393.799c45.47,0,90.642,0,136.095,0c0,12.797,0,25.311,0,38.159c-45.363,0-90.532,0-136.095,0
		C158.572,419.365,158.572,406.853,158.572,393.799z"/>
</g>
</svg>
