<?xml version="1.0" encoding="utf-8"?>
<!-- Generator: Adobe Illustrator 17.0.0, SVG Export Plug-In . SVG Version: 6.00 Build 0)  -->
<!DOCTYPE svg PUBLIC "-//W3C//DTD SVG 1.1//EN" "http://www.w3.org/Graphics/SVG/1.1/DTD/svg11.dtd">
<svg version="1.1" id="Layer_1" xmlns="http://www.w3.org/2000/svg" xmlns:xlink="http://www.w3.org/1999/xlink" x="0px" y="0px"
	 width="512px" height="512px" viewBox="0 0 512 512" enable-background="new 0 0 512 512" xml:space="preserve">
<g>
	<line fill="none" stroke="#B35047" x1="32" y1="0" x2="32" y2="512"/>
	<line fill="none" stroke="#B35047" x1="64" y1="0" x2="64" y2="512"/>
	<line fill="none" stroke="#B35047" x1="96" y1="0" x2="96" y2="512"/>
	<line fill="none" stroke="#B35047" x1="128" y1="0" x2="128" y2="512"/>
	<line fill="none" stroke="#B35047" x1="160" y1="0" x2="160" y2="512"/>
	<line fill="none" stroke="#B35047" x1="192" y1="0" x2="192" y2="512"/>
	<line fill="none" stroke="#B35047" x1="224" y1="0" x2="224" y2="512"/>
	<line fill="none" stroke="#B35047" x1="256" y1="0" x2="256" y2="512"/>
	<line fill="none" stroke="#B35047" x1="288" y1="0" x2="288" y2="512"/>
	<line fill="none" stroke="#B35047" x1="320" y1="0" x2="320" y2="512"/>
	<line fill="none" stroke="#B35047" x1="352" y1="0" x2="352" y2="512"/>
	<line fill="none" stroke="#B35047" x1="384" y1="0" x2="384" y2="512"/>
	<line fill="none" stroke="#B35047" x1="416" y1="0" x2="416" y2="512"/>
	<line fill="none" stroke="#B35047" x1="448" y1="0" x2="448" y2="512"/>
	<line fill="none" stroke="#B35047" x1="480" y1="0" x2="480" y2="512"/>
	<line fill="none" stroke="#B35047" x1="0" y1="32" x2="512" y2="32"/>
	<line fill="none" stroke="#B35047" x1="0" y1="64" x2="512" y2="64"/>
	<line fill="none" stroke="#B35047" x1="0" y1="96" x2="512" y2="96"/>
	<line fill="none" stroke="#B35047" x1="0" y1="128" x2="512" y2="128"/>
	<line fill="none" stroke="#B35047" x1="0" y1="160" x2="512" y2="160"/>
	<line fill="none" stroke="#B35047" x1="0" y1="192" x2="512" y2="192"/>
	<line fill="none" stroke="#B35047" x1="0" y1="224" x2="512" y2="224"/>
	<line fill="none" stroke="#B35047" x1="0" y1="256" x2="512" y2="256"/>
	<line fill="none" stroke="#B35047" x1="0" y1="288" x2="512" y2="288"/>
	<line fill="none" stroke="#B35047" x1="0" y1="320" x2="512" y2="320"/>
	<line fill="none" stroke="#B35047" x1="0" y1="352" x2="512" y2="352"/>
	<line fill="none" stroke="#B35047" x1="0" y1="384" x2="512" y2="384"/>
	<line fill="none" stroke="#B35047" x1="0" y1="416" x2="512" y2="416"/>
	<line fill="none" stroke="#B35047" x1="0" y1="448" x2="512" y2="448"/>
	<line fill="none" stroke="#B35047" x1="0" y1="480" x2="512" y2="480"/>
	<rect x="0" fill="none" stroke="#B35047" width="512" height="512"/>
</g>
<image display="none" overflow="visible" width="512" height="512" xlink:href="../../../Knowledge/Icon/[+++++] (Full) Windows 8 Icons [icons8]/Objects/male/male-512_.png"  transform="matrix(0.0406 0 0 0.0406 562 47)">
</image>
<g>
	<path display="none" fill="#FFFFFF" d="M569.678,67.841c-2.546,0-5.092,0-7.637,0c0-6.933,0-13.867,0-20.8
		c3.426,0,6.852,0,10.278,0c-0.532,0.168-0.701,0.553-0.678,1.079c0.019,0.446,0,0.894,0.006,1.34
		c0.002,0.131-0.042,0.173-0.173,0.183c-1.502,0.108-2.938,0.476-4.268,1.186c-3.059,1.634-4.737,4.182-4.994,7.651
		c-0.012,0.162-0.002,0.325-0.002,0.452c0.47-0.318,0.917-0.661,1.401-0.938c0.781-0.448,1.628-0.648,2.536-0.521
		c0.958,0.133,1.784,0.565,2.555,1.121c0.185,0.134,0.359,0.282,0.537,0.423c0.866-0.953,1.887-1.578,3.203-1.578
		c1.32,0,2.344,0.633,3.202,1.578c1.029-0.872,2.136-1.543,3.515-1.575c1.391-0.032,2.494,0.636,3.507,1.547
		c0.006-0.053,0.012-0.078,0.01-0.103c-0.026-0.378-0.035-0.758-0.083-1.132c-0.264-2.075-1.137-3.855-2.647-5.303
		c-1.819-1.745-4.034-2.598-6.519-2.805c-0.149-0.012-0.196-0.056-0.194-0.205c0.008-0.494,0.005-0.988,0.002-1.483
		c-0.001-0.313-0.088-0.591-0.366-0.77c-0.095-0.061-0.205-0.098-0.307-0.147c3.426,0,6.852,0,10.278,0c0,6.933,0,13.867,0,20.8
		c-4.171,0-8.342,0-12.512,0c0.165-0.029,0.331-0.056,0.496-0.087c0.809-0.151,1.466-0.54,1.918-1.24
		c0.39-0.603,0.492-1.28,0.493-1.979c0.003-1.767,0.001-3.533-0.001-5.3c0-0.121-0.011-0.244-0.032-0.363
		c-0.082-0.453-0.604-0.736-1.032-0.565c-0.356,0.142-0.526,0.419-0.526,0.872c-0.002,1.225,0,2.45-0.001,3.675
		c-0.001,0.663,0.005,1.327-0.012,1.99c-0.02,0.793-0.4,1.226-1.174,1.367c-0.119,0.022-0.242,0.028-0.363,0.036
		c-0.84,0.056-1.477-0.413-1.625-1.205c-0.036-0.192-0.032-0.392-0.072-0.583c-0.076-0.362-0.397-0.603-0.765-0.596
		c-0.385,0.007-0.705,0.258-0.755,0.631c-0.029,0.211-0.023,0.433,0.007,0.645c0.174,1.232,0.821,2.096,2.012,2.512
		C569.149,67.737,569.417,67.778,569.678,67.841z"/>
	<path d="M258.97,1c2.524,1.182,5.216,2.101,7.539,3.596c6.829,4.394,8.942,11.208,8.977,18.879
		c0.055,12.119,0.143,24.24-0.059,36.356c-0.061,3.658,1.099,4.722,4.747,5.026c60.941,5.081,115.246,26.001,159.853,68.78
		c37.022,35.505,58.419,79.161,64.891,130.031c1.17,9.194,1.397,18.508,2.037,27.768c0.041,0.597-0.113,1.207-0.251,2.517
		c-24.851-22.338-51.894-38.719-85.994-37.925c-33.8,0.787-60.963,17.243-86.181,38.621c-21.039-23.152-46.136-38.681-78.506-38.683
		c-32.264-0.002-57.294,15.328-78.528,38.685c-4.363-3.448-8.636-7.088-13.172-10.362c-18.902-13.639-39.142-24.226-62.642-27.493
		c-22.276-3.097-43.021,1.802-62.182,12.78c-11.872,6.802-22.827,15.205-34.355,22.998c0-3.123-0.256-7.127,0.038-11.089
		c6.306-85.042,47.443-147.527,122.449-187.589c32.612-17.418,67.824-26.432,104.654-29.084c3.199-0.23,4.279-1.278,4.234-4.481
		c-0.153-10.955,0.322-21.93-0.155-32.866C235.8,14.569,239.941,5.108,252.994,1C254.986,1,256.978,1,258.97,1z"/>
	<path d="M188.247,511c-6.399-1.536-12.982-2.542-19.165-4.698c-29.222-10.191-45.068-31.39-49.344-61.588
		c-0.735-5.19-0.875-10.64-0.171-15.818c1.244-9.147,9.076-15.285,18.519-15.469c9.026-0.176,16.902,5.735,18.763,14.604
		c0.983,4.683,0.88,9.588,1.765,14.3c3.649,19.428,19.26,30.938,39.851,29.558c2.978-0.2,5.984-0.346,8.912-0.877
		c18.964-3.444,28.288-14.068,28.777-33.508c0.409-16.255,0.275-32.525,0.295-48.788c0.037-30.04-0.013-60.08,0.025-90.12
		c0.014-11.107,4.183-17.898,12.9-21.375c10.501-4.189,23.288,2.754,25.3,13.851c0.529,2.918,0.789,5.926,0.792,8.893
		c0.049,43.317,0.075,86.635,0.013,129.952c-0.025,17.148-2.539,33.757-12.094,48.53c-11.102,17.167-27.203,26.713-47.04,30.416
		c-4.046,0.755-8.108,1.427-12.162,2.138C198.872,511,193.56,511,188.247,511z"/>
</g>
<g display="none">
	<path fill="#FFFFFF" d="M562.041,56.872c0-3.277,0-6.554,0-9.831c3.412,0,6.825,0,10.237,0c-0.024,0.011-0.048,0.028-0.073,0.031
		c-0.828,0.113-1.477,0.89-1.333,1.823c0.125,0.806,0.874,1.431,1.78,1.318c0.571-0.071,1.117-0.502,1.289-1.063
		c0.2-0.65,0.054-1.213-0.435-1.686c-0.253-0.245-0.574-0.343-0.904-0.423c3.413,0,6.825,0,10.237,0c0,3.331,0,6.662,0,9.994
		c-0.012-0.079-0.03-0.158-0.034-0.238c-0.055-1.042-0.268-2.053-0.645-3.022c-0.971-2.494-2.652-4.356-5.027-5.591
		c-0.406-0.212-0.859-0.16-1.124,0.128c-0.347,0.378-0.416,0.874-0.145,1.264c0.113,0.162,0.269,0.306,0.431,0.421
		c0.458,0.324,0.958,0.594,1.39,0.948c1.972,1.616,3.021,3.708,3.122,6.26c0.056,1.415-0.26,2.753-0.901,4.013
		c-0.797,1.567-1.974,2.774-3.519,3.602c-1.696,0.91-3.506,1.201-5.405,0.867c-1.485-0.261-2.805-0.889-3.953-1.863
		c-1.193-1.012-2.038-2.266-2.539-3.751c-0.48-1.425-0.557-2.877-0.24-4.342c0.108-0.499,0.283-0.986,0.45-1.471
		c0.221-0.643-0.09-1.254-0.746-1.424c-0.404-0.105-0.887,0.102-1.046,0.469c-0.365,0.841-0.622,1.714-0.747,2.624
		C562.12,56.243,562.081,56.558,562.041,56.872z M564.778,49.697c-0.014,0.017-0.029,0.033-0.043,0.05
		c0.033,0.07,0.058,0.144,0.1,0.208c0.307,0.462,0.594,0.939,0.929,1.38c1.794,2.36,3.597,4.712,5.405,7.061
		c0.121,0.157,0.283,0.297,0.453,0.399c0.742,0.442,1.664,0.234,2.136-0.465c0.472-0.699,0.309-1.643-0.375-2.178
		c-1.152-0.9-2.292-1.816-3.456-2.699c-1.536-1.165-3.09-2.307-4.64-3.454C565.129,49.881,564.948,49.797,564.778,49.697z"/>
	<path display="inline" d="M1,242.055c0.995-7.706,1.934-15.419,2.995-23.116c3.074-22.31,9.377-43.727,18.327-64.348
		c3.9-8.987,15.744-14.051,25.658-11.488c16.08,4.157,23.71,19.141,18.284,34.909c-4.09,11.886-8.374,23.819-11.023,36.066
		c-7.772,35.928-5.906,71.521,5.874,106.468c12.269,36.396,33.006,67.143,62.249,91.969c28.147,23.895,60.515,39.292,96.921,45.688
		c46.565,8.182,90.941,1.035,132.522-21.266c37.884-20.318,66.73-49.912,86.275-88.326c15.724-30.904,23.468-63.718,22.103-98.404
		c-2.463-62.582-28.184-113.864-76.54-153.499c-10.59-8.68-22.851-15.294-34.071-23.243c-3.985-2.824-7.811-6.336-10.58-10.32
		c-6.651-9.568-4.966-21.731,3.544-30.991c6.483-7.055,17.59-8.325,27.557-3.139c58.219,30.292,99.455,75.948,123.255,137.092
		c9.255,23.777,14.474,48.565,15.823,74.109c0.103,1.95,0.544,3.883,0.828,5.824c0,7.969,0,15.938,0,23.906
		c-0.341,1.76-0.798,3.507-1.004,5.283c-0.818,7.075-1.216,14.215-2.38,21.23c-7.977,48.072-27.66,90.765-59.967,127.303
		c-41.432,46.857-93.189,75.083-155.148,84.334c-7.496,1.119-15.036,1.944-22.556,2.905c-9.297,0-18.594,0-27.891,0
		c-1.757-0.341-3.501-0.798-5.273-1.003c-7.075-0.817-14.215-1.215-21.23-2.379c-48.072-7.975-90.766-27.657-127.305-59.963
		c-46.858-41.431-75.086-93.186-84.34-155.144c-1.12-7.499-1.945-15.043-2.907-22.566C1,260.648,1,251.352,1,242.055z"/>
	<path fill="#FFFFFF" d="M562.041,58.009c0.039,0.307,0.073,0.614,0.119,0.92c0.377,2.527,1.529,4.638,3.44,6.327
		c1.49,1.318,3.231,2.12,5.192,2.446c0.286,0.047,0.577,0.064,0.866,0.097c0.072,0.008,0.143,0.027,0.215,0.041
		c-3.274,0-6.547,0-9.831,0C562.041,64.564,562.041,61.286,562.041,58.009z"/>
	<path fill="#FFFFFF" d="M573.009,67.841c0.307-0.039,0.614-0.073,0.92-0.118c2.527-0.377,4.638-1.528,6.328-3.439
		c1.318-1.49,2.12-3.231,2.446-5.192c0.047-0.286,0.064-0.577,0.097-0.866c0.008-0.072,0.027-0.144,0.041-0.215
		c0,3.277,0,6.554,0,9.831C579.564,67.841,576.286,67.841,573.009,67.841z"/>
	<path display="inline" d="M259.984,1c8.084,1.965,15.966,4.37,22.16,10.369c11.983,11.606,15.566,25.422,10.667,41.348
		c-4.236,13.772-17.606,24.323-31.613,26.072c-22.211,2.774-40.59-12.544-43.65-32.311c-3.543-22.891,12.376-41.933,32.671-44.71
		c0.622-0.085,1.198-0.504,1.796-0.767C254.672,1,257.328,1,259.984,1z"/>
	<path display="inline" d="M68.112,66.135c4.176,2.439,8.622,4.514,12.486,7.375c38.001,28.131,76.103,56.13,113.772,84.701
		c28.554,21.658,56.514,44.099,84.75,66.177c16.776,13.117,20.776,36.275,9.192,53.408c-11.582,17.132-34.192,22.227-52.385,11.396
		c-4.181-2.489-8.153-5.925-11.116-9.776c-44.312-57.604-88.541-115.273-132.517-173.133c-8.212-10.805-15.263-22.496-22.778-33.825
		c-1.033-1.558-1.651-3.391-2.461-5.097C67.407,66.951,67.76,66.543,68.112,66.135z"/>
</g>
<g display="none">
	<path fill="#FFFFFF" d="M582.841,63.25c0,1.53,0,3.06,0,4.591c-6.933,0-13.867,0-20.8,0c0-6.933,0-13.867,0-20.8
		c6.933,0,13.867,0,20.8,0c0,1.557,0,3.115,0,4.672c-0.016-0.079-0.032-0.157-0.046-0.236c-0.034-0.188-0.092-0.369-0.31-0.402
		c-0.398-0.06-0.785-0.04-1.109,0.249c-0.287,0.257-0.582,0.506-0.862,0.771c-1.193,1.126-2.565,1.956-4.109,2.507
		c-2.411,0.86-4.916,1.141-7.454,1.216c-0.065,0.002-0.162-0.062-0.195-0.122c-0.483-0.887-1.196-1.546-2.044-2.07
		c-0.092-0.057-0.213-0.09-0.321-0.092c-0.487-0.01-0.975-0.009-1.462,0c-0.103,0.002-0.215,0.033-0.306,0.082
		c-0.625,0.34-1.177,0.775-1.607,1.345c-0.941,1.246-1.138,2.607-0.54,4.052c0.432,1.045,1.234,1.759,2.21,2.291
		c0.067,0.037,0.155,0.048,0.233,0.049c0.494,0.004,0.988,0.006,1.482-0.001c0.096-0.001,0.204-0.028,0.285-0.077
		c0.856-0.525,1.58-1.183,2.057-2.082c0.057-0.108,0.123-0.14,0.239-0.132c0.682,0.044,1.365,0.072,2.046,0.126
		c1.33,0.106,2.644,0.317,3.935,0.656c1.562,0.41,3.045,1.007,4.345,1.982c0.605,0.454,1.154,0.981,1.733,1.469
		c0.18,0.152,0.366,0.305,0.57,0.421c0.304,0.173,0.642,0.156,0.966,0.065C582.833,63.705,582.757,63.43,582.841,63.25z"/>
	<path display="inline" d="M511,398.961c-2.055,4.424-0.179,11.208-6.523,12.991c-7.975,2.241-16.305,2.64-23.787-1.613
		c-5.02-2.854-9.585-6.617-14.027-10.359c-14.267-12.02-27.787-25.011-42.678-36.186c-32.012-24.023-68.535-38.727-107.018-48.823
		c-31.81-8.345-64.171-13.559-96.932-16.159c-16.772-1.331-33.595-2.018-50.388-3.11c-2.84-0.185-4.473,0.606-5.881,3.259
		c-11.746,22.136-29.591,38.344-50.663,51.273c-1.997,1.225-4.657,1.872-7.023,1.908c-12.167,0.187-24.34,0.138-36.509,0.034
		c-1.931-0.017-4.096-0.297-5.748-1.198c-24.037-13.111-43.793-30.702-54.444-56.436c-14.729-35.59-9.881-69.112,13.293-99.795
		c10.594-14.027,24.187-24.751,39.593-33.12c2.231-1.212,4.993-1.975,7.525-2.019c12-0.207,24.008-0.228,36.007,0.012
		c2.669,0.053,5.65,0.876,7.913,2.274c20.887,12.903,38.439,29.137,50.341,50.984c0.808,1.483,3.199,3.059,4.807,3.011
		c62.52-1.853,124.23-8.78,183.608-29.955c38.024-13.56,71.813-34.014,101.203-61.743c6.905-6.515,14.165-12.653,21.241-18.988
		c7.965-7.13,17.492-7.599,27.308-6.134c5.379,0.803,6.788,5.273,7.639,9.897c0.357,1.944,0.761,3.879,1.144,5.818
		C511,209.51,511,304.236,511,398.961z M136.822,255.725c0-4.999-0.564-10.075,0.114-14.98c1.543-11.157-3.379-19.678-10.233-27.52
		c-3.282-3.755-6.946-7.173-10.389-10.79c-8.183-8.595-17.588-12.187-30.013-12.274c-12.257-0.086-20.509,5.051-28.555,12.497
		c-19.235,17.801-29.142,39.267-24.065,65.747c4.497,23.455,19.477,39.54,39.065,51.892c0.667,0.421,1.535,0.613,2.335,0.719
		c21.148,2.789,29.479,0.021,44.719-14.977c2.49-2.451,4.829-5.069,7.092-7.733c6.745-7.942,11.726-16.418,10.052-27.604
		C136.213,265.813,136.822,260.723,136.822,255.725z M195.88,255.972c2.311,0,4.124,0.049,5.934-0.007
		c30.989-0.966,61.996-1.555,92.961-3.019c38.312-1.811,76.38-6.074,113.963-13.996c20.239-4.266,40.13-9.633,58.697-19.103
		c3.178-1.621,4.578-3.593,4.53-7.355c-0.212-16.672-0.084-33.347-0.106-50.022c-0.002-1.414-0.201-2.828-0.356-4.856
		c-1.441,1.042-2.41,1.602-3.213,2.344c-22.894,21.144-49.883,35.5-78.658,46.582c-55.24,21.274-112.917,30.733-171.727,34.346
		c-7.27,0.447-14.543,0.85-22.025,1.286C195.88,246.78,195.88,251.049,195.88,255.972z"/>
	<path fill="#FFFFFF" d="M567.649,57.435c0,0.203-0.025,0.41,0.005,0.608c0.068,0.454-0.134,0.798-0.408,1.121
		c-0.092,0.108-0.187,0.214-0.288,0.314c-0.619,0.609-0.957,0.721-1.816,0.608c-0.032-0.004-0.068-0.012-0.095-0.029
		c-0.795-0.501-1.403-1.155-1.586-2.107c-0.206-1.075,0.196-1.947,0.977-2.669c0.327-0.302,0.662-0.511,1.159-0.507
		c0.504,0.004,0.886,0.149,1.219,0.498c0.14,0.147,0.289,0.286,0.422,0.438c0.278,0.318,0.478,0.664,0.415,1.117
		C567.626,57.026,567.649,57.232,567.649,57.435z M564.475,59.064c0.38-0.055,0.749-0.091,1.11-0.166
		c0.406-0.085,0.74-0.298,0.939-0.677c0.219-0.418,0.233-0.873,0.22-1.339c-0.39,1.052-1.18,1.461-2.268,1.42
		C564.475,58.545,564.475,58.771,564.475,59.064z"/>
	<path fill="#FFFFFF" d="M570.047,57.445c0-0.2,0-0.373,0-0.56c0.304-0.018,0.599-0.034,0.894-0.052
		c2.388-0.147,4.729-0.531,6.972-1.394c1.168-0.45,2.264-1.033,3.193-1.891c0.033-0.03,0.072-0.053,0.13-0.095
		c0.006,0.082,0.014,0.14,0.014,0.197c0.001,0.677-0.004,1.354,0.004,2.031c0.002,0.153-0.055,0.233-0.184,0.299
		c-0.754,0.384-1.561,0.602-2.383,0.776c-1.526,0.322-3.071,0.495-4.627,0.568c-1.257,0.059-2.516,0.083-3.774,0.123
		C570.214,57.447,570.141,57.445,570.047,57.445z"/>
	<path display="inline" d="M58.637,295.87c0-7.223,0-12.796,0-18.787c26.799,1.014,46.276-9.065,55.87-34.971
		c0.338,11.476-0.019,22.687-5.412,32.985c-4.89,9.339-13.131,14.591-23.127,16.679C77.089,293.63,68.005,294.507,58.637,295.87z"/>
</g>
<g display="none">
	<path fill="#FFFFFF" d="M579.631,47.041c1.069,0,2.138,0,3.208,0c0,6.933,0,13.867,0,20.8c-1.07,0-2.139,0-3.208,0
		c0-0.217-0.016-0.434,0.002-0.649c0.047-0.557-0.328-0.987-0.944-0.942c-0.212,0.016-0.426,0.003-0.653,0.003
		c0-0.279,0.005-0.522-0.001-0.765c-0.012-0.459-0.262-0.749-0.706-0.829c-0.046-0.008-0.091-0.017-0.143-0.026
		c-0.027-0.284-0.049-0.559-0.079-0.833c-0.181-1.634-0.771-3.103-1.818-4.373c-0.434-0.527-0.918-1.012-1.367-1.526
		c-0.326-0.373-0.325-0.541,0.004-0.915c0.344-0.391,0.712-0.761,1.059-1.149c1.104-1.236,1.806-2.668,2.061-4.31
		c0.065-0.419,0.099-0.843,0.147-1.264c0.708-0.186,0.845-0.366,0.845-1.109c0-0.167,0-0.333,0-0.522c0.263,0,0.499,0.002,0.734,0
		c0.543-0.006,0.855-0.318,0.859-0.857C579.632,47.528,579.631,47.284,579.631,47.041z"/>
	<path fill="#FFFFFF" d="M565.25,67.841c-1.07,0-2.14,0-3.209,0c0-6.933,0-13.867,0-20.8c1.07,0,2.14,0,3.209,0
		c0,0.217,0.016,0.435-0.002,0.65c-0.047,0.555,0.327,0.987,0.944,0.941c0.212-0.016,0.426-0.003,0.652-0.003
		c0,0.28-0.005,0.524,0.001,0.766c0.012,0.458,0.261,0.754,0.708,0.824c0.139,0.022,0.168,0.081,0.176,0.209
		c0.025,0.371,0.047,0.743,0.105,1.11c0.253,1.619,0.936,3.039,2.015,4.269c0.366,0.417,0.752,0.816,1.114,1.237
		c0.259,0.301,0.255,0.488-0.002,0.791c-0.263,0.309-0.542,0.605-0.82,0.901c-1.36,1.447-2.183,3.142-2.374,5.129
		c-0.024,0.253-0.041,0.507-0.061,0.755c-0.703,0.16-0.863,0.366-0.863,1.087c0,0.174,0,0.347,0,0.546
		c-0.296,0-0.566-0.008-0.835,0.002c-0.43,0.016-0.745,0.34-0.756,0.771C565.246,67.299,565.251,67.57,565.25,67.841z"/>
	<path display="inline" d="M79.691,511c0.016-6.639-0.089-13.281,0.077-19.917c0.265-10.587,7.994-18.526,18.542-18.912
		c6.59-0.242,13.196-0.045,20.465-0.045c0-4.88,0-9.136,0-13.391c0-17.698,3.944-22.746,21.168-26.661
		c0.488-6.078,0.906-12.3,1.5-18.506c4.665-48.737,24.851-90.291,58.202-125.77c6.818-7.253,13.66-14.505,20.097-22.091
		c6.312-7.439,6.391-12.014,0.052-19.399c-8.859-10.321-18.335-20.109-27.307-30.336c-26.457-30.158-43.211-64.983-49.415-104.681
		c-1.404-8.986-1.963-18.119-2.566-27.207c-0.208-3.143-0.913-4.587-4.327-5.126c-10.979-1.735-17.079-8.981-17.37-20.215
		c-0.154-5.958-0.027-11.923-0.027-18.794c-5.544,0-10.793-0.326-15.989,0.062c-15.136,1.129-24.307-9.465-23.157-23.082
		C80.082,11.655,79.698,6.311,79.691,1C197.231,1,314.77,1,432.309,1c-0.007,5.973,0.017,11.947-0.028,17.92
		c-0.1,13.228-7.742,20.864-21.061,21.013c-5.767,0.065-11.536,0.011-17.995,0.011c0,4.622,0,8.709,0,12.796
		c0,18.227-3.35,22.635-20.711,27.198c-1.179,10.319-2.008,20.713-3.605,30.987c-6.257,40.253-23.467,75.364-50.532,105.68
		c-8.505,9.527-17.528,18.595-25.962,28.183c-8.055,9.157-8.088,13.269-0.097,22.426c11.012,12.619,22.879,24.514,33.524,37.425
		c25.681,31.15,40.143,67.162,44.582,107.233c0.745,6.723,1.281,13.468,1.935,20.43c1.282,0.236,2.398,0.446,3.516,0.648
		c10.887,1.964,17.031,9.09,17.316,20.337c0.151,5.956,0.027,11.919,0.027,18.765c5.555,0,10.808,0.326,16.007-0.062
		c15.088-1.125,24.29,9.437,23.139,23.087c-0.445,5.272-0.061,10.613-0.055,15.923C314.77,511,197.231,511,79.691,511z
		 M352.591,432.371c0-2.194,0.233-4.02-0.037-5.767c-2.126-13.738-3.503-27.663-6.717-41.147
		c-6.823-28.622-21.235-53.469-40.547-75.496c-9.95-11.349-20.516-22.168-30.246-33.697c-10.908-12.925-10.866-27.277-0.112-40.312
		c6.748-8.179,14.019-15.948,21.356-23.613c28.753-30.038,48.071-64.835,53.966-106.416c1.221-8.61,1.879-17.3,2.815-26.126
		c-65.17,0-129.278,0-193.763,0c0.509,16.196,2.703,31.707,6.616,47.002c8.439,32.982,25.974,60.714,48.945,85.373
		c7.234,7.766,14.496,15.541,21.192,23.763c10.532,12.932,10.536,27.1,0.016,39.993c-6.703,8.215-13.936,16.02-21.215,23.741
		c-28.398,30.124-47.332,64.958-53.162,106.319c-1.215,8.62-1.86,17.321-2.797,26.259c8.538,0,16.053,0,23.713,0
		c0.169-1.132,0.372-1.934,0.398-2.742c0.421-13.168,5.623-24.404,13.974-34.317c15.294-18.155,35.394-29.185,56.941-37.945
		c1.507-0.613,3.988-0.064,5.519,0.813c11.065,6.336,22.554,12.13,32.861,19.55c18.83,13.555,35.985,28.761,37.017,54.765
		C336.999,432.371,344.427,432.371,352.591,432.371z"/>
	<path fill="#FFFFFF" d="M576.38,64.634c-0.333,0-0.636,0-0.949,0c-0.042-1.061-0.742-1.681-1.51-2.234
		c-0.42-0.303-0.889-0.539-1.34-0.797c-0.062-0.036-0.164-0.058-0.225-0.033c-0.879,0.357-1.699,0.807-2.322,1.548
		c-0.341,0.404-0.553,0.863-0.57,1.4c-0.001,0.033-0.009,0.066-0.016,0.112c-0.312,0-0.619,0-0.967,0
		c0.038-0.365,0.064-0.719,0.114-1.071c0.238-1.687,1.01-3.108,2.168-4.336c0.297-0.315,0.592-0.633,0.865-0.968
		c0.429-0.526,0.429-1.104-0.001-1.631c-0.273-0.335-0.569-0.652-0.864-0.969c-0.937-1.006-1.652-2.137-1.996-3.482
		c-0.16-0.624-0.249-1.256-0.27-1.917c2.63,0,5.245,0,7.902,0c-0.038,0.36-0.065,0.714-0.115,1.066
		c-0.24,1.696-1.028,3.115-2.201,4.34c-0.299,0.313-0.596,0.629-0.871,0.963c-0.439,0.532-0.44,1.117,0.005,1.644
		c0.397,0.47,0.828,0.911,1.234,1.374c0.788,0.898,1.375,1.912,1.654,3.079c0.131,0.55,0.187,1.118,0.274,1.678
		C576.39,64.47,576.38,64.544,576.38,64.634z M572.485,56.54c0.412-0.404,0.83-0.779,1.205-1.193
		c0.304-0.336,0.54-0.728,0.606-1.195c0.04-0.285-0.024-0.382-0.302-0.449c-0.065-0.016-0.133-0.033-0.199-0.033
		c-0.858-0.007-1.717-0.013-2.575-0.014c-0.1,0-0.203,0.016-0.3,0.041c-0.316,0.079-0.401,0.203-0.313,0.511
		c0.058,0.206,0.136,0.414,0.247,0.595C571.265,55.471,571.826,56.006,572.485,56.54z"/>
	<path display="inline" d="M257.081,233.92c-16.14-13.09-29.908-26.201-40.02-42.623c-2.732-4.436-4.636-9.54-6.066-14.58
		c-2.142-7.551-0.061-10.59,7.683-12.539c2.391-0.602,4.906-1.011,7.363-1.006c21.049,0.041,42.098,0.179,63.147,0.353
		c1.634,0.014,3.286,0.427,4.891,0.818c6.811,1.658,8.393,4.035,7.401,11.018c-1.628,11.448-7.408,21.055-14.861,29.303
		C277.44,214.82,267.186,224.004,257.081,233.92z"/>
</g>
<g display="none">
	<path fill="#FFFFFF" d="M582.834,67.841c-6.929,0-13.86,0-20.793,0c0-6.931,0-13.862,0-20.796c6.928,0,13.858,0,20.793,0
		C582.834,53.974,582.834,60.907,582.834,67.841z M575.847,54.755c0.057,0.122,0.095,0.199,0.13,0.278
		c0.232,0.518,0.464,1.036,0.694,1.556c0.17,0.385,0.457,0.604,0.88,0.655c0.947,0.113,1.892,0.241,2.839,0.349
		c0.299,0.034,0.614,0.074,0.904,0.019c0.464-0.088,0.737-0.538,0.698-1.028c-0.038-0.476-0.419-0.821-0.956-0.884
		c-0.853-0.101-1.704-0.216-2.558-0.309c-0.169-0.018-0.243-0.088-0.307-0.232c-0.375-0.854-0.762-1.703-1.136-2.557
		c-0.115-0.263-0.281-0.46-0.529-0.615c-0.476-0.297-0.93-0.629-1.402-0.934c-0.155-0.1-0.329-0.192-0.508-0.233
		c-1.087-0.249-2.178-0.48-3.266-0.722c-0.345-0.077-0.65-0.009-0.942,0.19c-0.995,0.678-1.996,1.347-2.995,2.021
		c-0.067,0.045-0.133,0.093-0.194,0.146c-0.345,0.3-0.43,0.8-0.207,1.199c0.289,0.516,0.918,0.656,1.437,0.31
		c0.889-0.593,1.773-1.194,2.662-1.789c0.062-0.041,0.151-0.084,0.216-0.071c0.614,0.124,1.226,0.261,1.866,0.4
		c-0.05,0.081-0.085,0.144-0.125,0.203c-0.778,1.156-1.561,2.309-2.331,3.47c-0.175,0.263-0.329,0.545-0.457,0.834
		c-0.401,0.908-0.167,1.624,0.704,2.222c1.154,0.793,2.331,1.551,3.497,2.325c0.033,0.022,0.061,0.05,0.097,0.081
		c-0.052,0.118-0.101,0.228-0.15,0.338c-0.594,1.334-1.187,2.668-1.783,4c-0.191,0.427-0.198,0.842,0.075,1.233
		c0.538,0.773,1.656,0.644,2.055-0.242c0.774-1.719,1.54-3.443,2.306-5.166c0.3-0.676,0.142-1.217-0.472-1.638
		c-0.898-0.616-1.797-1.232-2.695-1.848c-0.059-0.041-0.117-0.084-0.187-0.135C574.42,57.041,575.121,55.918,575.847,54.755z
		 M569.325,59.155c-0.042,0.055-0.085,0.107-0.124,0.161c-0.293,0.406-0.589,0.81-0.875,1.221c-0.074,0.107-0.155,0.148-0.284,0.147
		c-0.575-0.006-1.151-0.004-1.726-0.002c-0.778,0.002-1.557-0.005-2.335,0.016c-0.382,0.01-0.682,0.212-0.878,0.541
		c-0.469,0.784,0.101,1.746,1.055,1.754c1.537,0.014,3.074,0.006,4.61,0.003c0.414-0.001,0.785-0.146,1.031-0.478
		c0.414-0.559,0.793-1.143,1.192-1.724C570.377,60.296,569.706,59.88,569.325,59.155z M577.648,47.157
		c-1.036-0.007-1.874,0.82-1.897,1.871c-0.023,1.018,0.86,1.907,1.891,1.903c1.029-0.004,1.882-0.856,1.888-1.887
		C579.536,48.013,578.688,47.163,577.648,47.157z"/>
	<path display="inline" d="M339.893,189.464c-18.006,28.846-35.395,56.702-53.061,85.003c1.738,1.255,3.161,2.329,4.629,3.336
		c22.277,15.286,44.563,30.557,66.839,45.843c15.213,10.44,19.151,23.864,11.698,40.619
		c-19.007,42.733-37.999,85.473-57.195,128.122c-9.886,21.965-37.607,25.161-50.957,5.991c-6.765-9.714-6.594-20.001-1.853-30.589
		c14.797-33.047,29.494-66.138,44.228-99.213c1.218-2.735,2.427-5.474,3.719-8.39c-0.903-0.758-1.6-1.468-2.411-2.006
		c-28.934-19.195-58.125-38.015-86.741-57.671c-21.605-14.841-27.407-32.594-17.452-55.117c3.169-7.169,7.003-14.149,11.339-20.68
		c19.118-28.797,38.532-57.397,57.826-86.077c0.992-1.475,1.865-3.03,3.096-5.044c-15.876-3.448-31.051-6.833-46.287-9.92
		c-1.62-0.328-3.836,0.732-5.368,1.756c-22.04,14.734-43.963,29.644-66.015,44.36c-12.882,8.597-28.47,5.123-35.641-7.685
		c-5.548-9.908-3.433-22.31,5.128-29.741c1.516-1.316,3.152-2.51,4.818-3.633c24.762-16.702,49.592-33.304,74.277-50.118
		c7.247-4.936,14.795-6.607,23.364-4.701c26.995,6.005,54.053,11.73,81.008,17.906c4.418,1.012,8.735,3.298,12.589,5.786
		c11.696,7.553,22.952,15.799,34.764,23.157c6.158,3.836,10.264,8.721,13.122,15.251c9.276,21.191,18.871,42.243,28.167,63.425
		c1.568,3.574,3.414,5.288,7.604,5.746c21.172,2.313,42.283,5.178,63.437,7.674c13.335,1.573,22.772,10.133,23.719,21.935
		c0.975,12.153-5.8,23.319-17.302,25.494c-7.194,1.36-14.99,0.369-22.413-0.473c-23.497-2.665-46.936-5.837-70.417-8.645
		c-10.488-1.254-17.599-6.683-21.824-16.234c-5.696-12.877-11.457-25.726-17.203-38.581
		C342.25,194.401,341.311,192.482,339.893,189.464z"/>
	<path display="inline" d="M178.118,298.588c9.46,17.977,26.097,28.302,41.32,40.626c-9.899,14.416-19.305,28.911-29.571,42.768
		c-6.105,8.239-15.315,11.837-25.581,11.859c-38.117,0.081-76.236,0.289-114.35-0.063c-23.668-0.219-37.787-24.078-26.166-43.514
		c4.882-8.165,12.32-13.167,21.786-13.424c19.296-0.525,38.611-0.338,57.919-0.397c14.273-0.043,28.547-0.097,42.818,0.058
		c3.21,0.035,5.203-0.989,7.048-3.634c7.105-10.186,14.446-20.207,21.713-30.28C176.023,301.244,177.067,299.956,178.118,298.588z"
		/>
	<path display="inline" d="M384.568,1.001c25.788,0.17,46.815,21.248,46.677,46.791c-0.138,25.568-21.294,46.72-46.819,46.808
		c-25.569,0.089-47.471-21.947-46.913-47.201C338.09,21.333,358.881,0.832,384.568,1.001z"/>
</g>
<g display="none">
	<path display="inline" d="M1,429.574c0-83.008,0-166.016,0-249.023c0.273-0.4,0.702-0.766,0.797-1.204
		c7.225-33.309,28.533-50.535,62.573-50.537c71.675-0.004,143.349-0.002,215.024-0.001c57.24,0,114.48-0.049,171.72,0.026
		c24.979,0.033,46.063,13.88,55.134,36.202c2.028,4.991,3.191,10.333,4.752,15.514c0,83.008,0,166.016,0,249.023
		c-2.544,7.288-4.064,15.158-7.821,21.754c-11.668,20.49-29.875,30.133-53.47,30.118c-106.067-0.07-212.134-0.026-318.201-0.032
		c-24.4-0.001-48.804,0.215-73.2-0.123c-25.465-0.352-47.399-17.36-54.661-41.759C2.669,436.241,1.878,432.894,1,429.574z"/>
	<path fill="#FFFFFF" d="M582.841,54.759c-0.064-0.211-0.111-0.429-0.194-0.633c-0.37-0.91-1.23-1.475-2.249-1.476
		c-2.334-0.003-4.669-0.001-7.003-0.001c-2.923,0-5.846,0-8.77,0c-1.388,0-2.257,0.703-2.552,2.061
		c-0.004,0.018-0.021,0.033-0.032,0.049c0-2.571,0-5.143,0-7.717c6.933,0,13.867,0,20.8,0
		C582.841,49.616,582.841,52.188,582.841,54.759z M570.037,51.824c0-0.78,0.002-1.538-0.001-2.295
		c-0.002-0.543-0.307-0.873-0.847-0.879c-1.036-0.012-2.071-0.012-3.107,0.001c-0.534,0.007-0.83,0.332-0.831,0.867
		c-0.002,0.704-0.001,1.408,0,2.112c0,0.064,0.005,0.129,0.008,0.195C566.86,51.824,568.435,51.824,570.037,51.824z M579.63,51.823
		c0-0.774,0.001-1.524,0-2.275c-0.001-0.583-0.302-0.898-0.881-0.901c-1.002-0.006-2.004-0.006-3.006,0
		c-0.588,0.003-0.898,0.323-0.899,0.911c-0.001,0.69,0,1.381,0,2.071c0,0.064,0,0.129,0,0.194
		C576.452,51.823,578.028,51.823,579.63,51.823z"/>
	<path fill="#FFFFFF" d="M562.041,64.916c0.036,0.135,0.068,0.272,0.108,0.406c0.296,0.995,1.191,1.689,2.229,1.703
		c0.995,0.014,1.99,0.005,2.985,0.005c4.326,0,8.652-0.002,12.978,0.001c0.962,0.001,1.705-0.393,2.181-1.228
		c0.153-0.269,0.215-0.59,0.319-0.887c0,0.975,0,1.95,0,2.925c-6.933,0-13.867,0-20.8,0
		C562.041,66.866,562.041,65.891,562.041,64.916z"/>
	<path display="inline" d="M197.066,108.572c-39.274,0-77.902,0-117.143,0c-0.072-1.61-0.202-3.192-0.203-4.773
		c-0.014-17.262-0.047-34.524,0.005-51.785c0.039-13.12,7.293-21.099,20.381-21.262c25.391-0.316,50.79-0.298,76.182-0.016
		c13.241,0.147,20.711,8.245,20.761,21.56C197.117,70.865,197.066,89.435,197.066,108.572z"/>
	<path display="inline" d="M432.289,108.564c-39.292,0-77.924,0-117.356,0c0-1.602,0-3.179,0-4.755
		c0-16.93-0.026-33.86,0.009-50.789c0.03-14.439,7.617-22.272,22.038-22.348c24.564-0.129,49.13-0.145,73.694,0.009
		c14.214,0.089,21.587,7.809,21.609,22.103C432.31,71.191,432.289,89.598,432.289,108.564z"/>
</g>
<image display="none" overflow="visible" width="512" height="512" xlink:href="../../../Knowledge/Icon/[+++++] (Full) Windows 8 Icons [icons8]/Objects/phone2/phone2-512.png"  transform="matrix(0.0406 0 0 0.0406 562 47)">
</image>
<g display="none">
	<path display="inline" d="M1,276.918c0-0.664,0-1.328,0-1.992c1.543-8.395,6.301-14.062,13.847-18.144
		c143.267-77.496,286.434-155.174,429.747-232.584C459.814,15.977,474.144,5.834,491.078,1c0.664,0,1.328,0,1.992,0
		c2.402,0.951,4.834,1.836,7.202,2.867c6.176,2.686,8.148,8.617,10.728,14.067c0,0.664,0,1.328,0,1.992
		c-0.609,2.885-1.126,5.793-1.84,8.652c-30.367,121.683-60.748,243.363-91.136,365.041c-8.229,32.951-16.52,65.886-24.709,98.847
		c-1.848,7.438-5.105,13.684-12.715,16.578c-2.273,0.864-4.703,1.316-7.061,1.956c-0.664,0-1.328,0-1.992,0
		c-8.295-2.389-13.924-8.399-19.762-14.256c-33.035-33.148-66.16-66.205-99.223-99.324c-1.283-1.285-2.247-2.889-3.698-4.788
		c-1.752,2.329-2.863,3.736-3.901,5.196c-18.547,26.093-37.008,52.249-55.702,78.236c-3.059,4.252-6.719,8.306-10.833,11.514
		c-6.859,5.348-13.948,3.279-17.309-4.708c-1.39-3.302-2.189-6.958-2.646-10.531c-5.784-45.22-11.48-90.452-17.112-135.692
		c-0.437-3.508-1.666-5.308-5.382-6.403c-37.813-11.143-75.488-22.758-113.347-33.74C11.859,293.379,3.454,288.716,1,276.918z
		 M363.554,452.598c32.745-130.99,65.482-261.945,98.547-394.212c-130.986,70.951-260.698,141.212-391.403,212.01
		c2.64,0.861,3.885,1.295,5.146,1.673c26.823,8.042,53.679,15.975,80.439,24.219c4.215,1.298,7.199,0.905,10.827-1.693
		c79.452-56.916,159.001-113.697,238.536-170.498c1.411-1.008,2.876-1.94,4.316-2.907c0.184,0.183,0.368,0.366,0.552,0.549
		c-52.853,73.446-105.707,146.891-158.108,219.709C289.626,378.668,326.445,415.487,363.554,452.598z"/>
	<path fill="#FFFFFF" d="M582.028,47.041c-0.691,0.197-1.275,0.611-1.896,0.946c-5.845,3.157-11.684,6.325-17.527,9.486
		c-0.308,0.166-0.502,0.398-0.565,0.74c0-3.722,0-7.443,0-11.172C568.703,47.041,575.366,47.041,582.028,47.041z"/>
	<path fill="#FFFFFF" d="M562.041,58.294c0.1,0.481,0.443,0.671,0.882,0.799c1.544,0.448,3.081,0.922,4.623,1.376
		c0.152,0.045,0.202,0.118,0.219,0.261c0.23,1.845,0.462,3.69,0.698,5.534c0.019,0.146,0.051,0.295,0.108,0.429
		c0.137,0.326,0.426,0.41,0.706,0.192c0.168-0.131,0.317-0.296,0.442-0.47c0.762-1.06,1.515-2.127,2.272-3.191
		c0.042-0.06,0.088-0.117,0.159-0.212c0.059,0.077,0.099,0.143,0.151,0.195c1.348,1.351,2.699,2.699,4.047,4.051
		c0.238,0.239,0.468,0.484,0.806,0.581c-5.033,0-10.067,0-15.112,0C562.041,64.658,562.041,61.476,562.041,58.294z"/>
	<path fill="#FFFFFF" d="M577.234,67.841c0.096-0.026,0.195-0.045,0.288-0.08c0.31-0.118,0.443-0.373,0.519-0.676
		c0.334-1.344,0.672-2.688,1.008-4.031c1.239-4.963,2.478-9.925,3.717-14.888c0.029-0.117,0.05-0.235,0.075-0.353
		c0,6.676,0,13.352,0,20.028C580.972,67.841,579.103,67.841,577.234,67.841z"/>
	<path fill="#FFFFFF" d="M582.841,47.731c-0.105-0.222-0.186-0.464-0.438-0.574c-0.097-0.042-0.196-0.078-0.294-0.117
		c0.244,0,0.488,0,0.731,0C582.841,47.271,582.841,47.501,582.841,47.731z"/>
	<path fill="#FFFFFF" d="M576.827,65.459c-1.513-1.514-3.015-3.015-4.533-4.533c2.137-2.97,4.293-5.965,6.448-8.961
		c-0.008-0.007-0.015-0.015-0.023-0.022c-0.059,0.039-0.118,0.077-0.176,0.119c-3.244,2.317-6.488,4.632-9.729,6.954
		c-0.148,0.106-0.27,0.122-0.442,0.069c-1.091-0.336-2.187-0.66-3.281-0.988c-0.051-0.015-0.102-0.033-0.21-0.068
		c5.331-2.887,10.621-5.753,15.963-8.647C579.498,54.775,578.163,60.116,576.827,65.459z"/>
</g>
<g display="none">
	<path display="inline" d="M511,71.723c0,88.984,0,177.969,0,266.953c-0.856,2.112-1.704,4.228-2.568,6.337
		c-6.237,15.225-16.942,27.317-28.194,38.795c-29.034,29.619-58.274,59.041-87.773,88.198
		c-15.882,15.698-31.867,31.512-53.79,38.995c-88.984,0-177.969,0-266.953,0c-1.077-0.351-2.129-0.842-3.233-1.031
		c-30.493-5.24-51.484-22.206-62.52-51.113C3.695,452.899,2.625,446.482,1,440.277C1,317.426,1,194.574,1,71.723
		c0.351-1.077,0.842-2.129,1.031-3.233c5.24-30.493,22.206-51.484,51.113-62.52C59.101,3.695,65.518,2.625,71.723,1
		c122.852,0,245.703,0,368.555,0c1.077,0.351,2.129,0.842,3.233,1.031c30.493,5.24,51.484,22.206,62.52,51.113
		C508.305,59.101,509.375,65.518,511,71.723z M39.949,255.717c0,57.599-0.146,115.198,0.187,172.795
		c0.041,7.089,1.344,14.761,4.299,21.126c7.51,16.179,21.559,22.434,38.9,22.431c83.327-0.014,166.655,0.02,249.982,0.037
		c11.858,0.002,17.595-4.301,19.368-16.019c1.234-8.155,1.456-16.508,1.561-24.78c0.221-17.426,0.578-34.876-0.076-52.281
		c-0.632-16.814,8.448-25.454,24.613-24.849c16.742,0.626,33.525,0.203,50.29,0.108c6.968-0.04,13.987,0.047,20.89-0.737
		c17.211-1.955,22.147-7.863,22.13-23.732c-0.09-81.999-0.019-163.999-0.103-245.998c-0.005-4.603-0.304-9.358-1.466-13.78
		c-4.89-18.618-19.502-29.556-39.537-30.079c-0.829-0.022-1.66-0.008-2.49-0.008c-115.032,0-230.063,0.015-345.095-0.019
		c-14.214-0.004-26.352,4.296-35.292,15.911c-6.28,8.16-8.159,17.584-8.16,27.578C39.948,140.852,39.949,198.284,39.949,255.717z"/>
	<path fill="#FFFFFF" d="M575.813,67.841c0.894-0.305,1.546-0.95,2.194-1.59c1.203-1.189,2.396-2.389,3.58-3.597
		c0.459-0.468,0.896-0.961,1.15-1.582c0.035-0.086,0.07-0.172,0.105-0.258c0,2.343,0,4.685,0,7.028
		C580.498,67.841,578.155,67.841,575.813,67.841z"/>
	<path fill="#FFFFFF" d="M564.925,47.041c-0.253,0.066-0.515,0.11-0.758,0.203c-1.179,0.45-1.871,1.306-2.085,2.55
		c-0.008,0.045-0.028,0.088-0.042,0.132c0-0.961,0-1.923,0-2.884C563.002,47.041,563.964,47.041,564.925,47.041z"/>
	<path fill="#FFFFFF" d="M582.841,49.925c-0.066-0.253-0.11-0.515-0.203-0.758c-0.45-1.179-1.306-1.871-2.55-2.085
		c-0.045-0.008-0.088-0.028-0.132-0.042c0.961,0,1.923,0,2.884,0C582.841,48.002,582.841,48.964,582.841,49.925z"/>
	<path fill="#FFFFFF" d="M562.041,64.956c0.066,0.253,0.11,0.515,0.203,0.758c0.45,1.179,1.306,1.871,2.55,2.085
		c0.045,0.008,0.088,0.028,0.132,0.042c-0.958,0-1.916,0-2.884,0C562.041,66.879,562.041,65.918,562.041,64.956z"/>
	<path fill="#FFFFFF" d="M563.629,57.429c0-2.342,0-4.685,0-7.027c0-0.408,0.077-0.792,0.333-1.125
		c0.365-0.474,0.86-0.649,1.439-0.649c4.691,0.001,9.383,0.001,14.074,0.001c0.034,0,0.068-0.001,0.102,0
		c0.817,0.021,1.413,0.467,1.612,1.227c0.047,0.18,0.06,0.374,0.06,0.562c0.003,3.344,0.001,6.689,0.004,10.033
		c0.001,0.647-0.201,0.888-0.903,0.968c-0.282,0.032-0.568,0.028-0.852,0.03c-0.684,0.004-1.368,0.021-2.051-0.004
		c-0.659-0.025-1.03,0.328-1.004,1.013c0.027,0.71,0.012,1.422,0.003,2.132c-0.004,0.337-0.013,0.678-0.064,1.011
		c-0.072,0.478-0.306,0.653-0.79,0.653c-3.398-0.001-6.797-0.002-10.195-0.001c-0.707,0-1.28-0.255-1.586-0.915
		c-0.12-0.26-0.174-0.572-0.175-0.862C563.623,62.127,563.629,59.778,563.629,57.429z M572.47,53.451
		c-1.543,0-3.086-0.001-4.629,0.001c-0.121,0-0.245,0.002-0.364,0.025c-0.472,0.092-0.742,0.598-0.563,1.047
		c0.137,0.344,0.417,0.513,0.859,0.513c3.106,0.001,6.212,0,9.318,0c0.041,0,0.081,0.002,0.122-0.001
		c0.632-0.045,0.986-0.595,0.725-1.142c-0.162-0.34-0.46-0.445-0.82-0.444C575.57,53.453,574.02,53.451,572.47,53.451z
		 M571.623,59.029c1.286,0,2.573,0.001,3.859-0.002c0.127,0,0.259-0.009,0.382-0.04c0.427-0.108,0.672-0.602,0.513-1.012
		c-0.14-0.36-0.416-0.529-0.869-0.529c-2.573,0-5.145,0-7.718,0c-0.041,0-0.081-0.001-0.122,0.001
		c-0.509,0.032-0.835,0.378-0.803,0.851c0.029,0.444,0.359,0.729,0.859,0.73C569.023,59.031,570.323,59.029,571.623,59.029z"/>
	<path display="inline" d="M256.723,158.178c37.997,0.001,75.995,0.053,113.992-0.039c8.811-0.021,16.117,2.56,20.096,10.894
		c6.398,13.4-2.272,26.89-17.78,27.999c-0.991,0.071-1.99,0.033-2.986,0.033c-76.16,0.001-152.321,0.007-228.481-0.006
		c-10.828-0.002-17.715-4.159-21.062-12.581c-4.371-11.001,2.234-23.414,13.814-25.663c2.903-0.564,5.938-0.611,8.913-0.614
		C181.061,158.165,218.892,158.178,256.723,158.178z"/>
	<path display="inline" d="M235.953,294.947c-31.87-0.001-63.74,0.047-95.61-0.026c-12.27-0.028-20.339-7.022-21.061-17.904
		c-0.769-11.603,7.217-20.071,19.696-20.865c0.992-0.063,1.991-0.027,2.987-0.027c63.076-0.001,126.152-0.006,189.227,0.004
		c11.109,0.002,17.864,4.152,21.298,12.982c3.912,10.056-2.109,22.159-12.569,24.817c-3.011,0.765-6.231,0.972-9.356,0.978
		C299.029,294.975,267.491,294.949,235.953,294.947z"/>
</g>
<g display="none">
	<path fill="#FFFFFF" d="M582.841,56.912c0,3.641,0,7.282,0,10.925c-6.933,0-13.867,0-20.8,0c0-3.386,0-6.77,0-10.154
		c0.013,0.038,0.031,0.075,0.038,0.113c0.23,1.243,1.171,2.033,2.432,2.035c1.266,0.002,2.531,0,3.797,0.001
		c1.311,0,2.606,0.119,3.87,0.489c1.807,0.529,3.297,1.52,4.394,3.058c0.49,0.687,0.93,1.411,1.371,2.131
		c0.329,0.537,0.746,0.811,1.408,0.713c0.555-0.082,0.897-0.315,1.004-0.863c0.055-0.283,0.077-0.577,0.078-0.866
		c0.007-1.739,0.003-3.479,0.003-5.218c0-0.078,0-0.156,0-0.236c0.065-0.008,0.098-0.014,0.131-0.016
		c1.087-0.066,1.951-0.796,2.208-1.863C582.795,57.079,582.819,56.996,582.841,56.912z M568.371,60.66c-1.272,0-2.527,0-3.797,0
		c0.02,0.08,0.037,0.151,0.056,0.222c0.154,0.574,0.309,1.148,0.464,1.721c0.256,0.945,0.509,1.891,0.771,2.834
		c0.129,0.466,0.475,0.771,0.945,0.786c0.628,0.02,1.259,0.022,1.886-0.014c0.591-0.034,0.958-0.535,0.874-1.116
		c-0.08-0.556-0.398-0.971-0.813-1.314c-0.423-0.35-0.606-0.797-0.629-1.329C568.101,61.843,568.196,61.252,568.371,60.66z"/>
	<path display="inline" d="M511,262.628c-0.536,2.042-1.109,4.074-1.602,6.126c-6.283,26.165-27.47,44.045-54.127,45.673
		c-0.81,0.049-1.614,0.19-3.204,0.384c0,1.967,0,3.88,0,5.793c0,42.647,0.085,85.294-0.085,127.94
		c-0.028,7.092-0.571,14.297-1.925,21.246c-2.619,13.441-11.001,19.141-24.616,21.153c-16.23,2.398-26.448-4.318-34.514-17.477
		c-10.823-17.659-21.616-35.404-33.627-52.253c-26.882-37.71-63.434-62.005-107.731-74.97c-31.002-9.074-62.763-11.99-94.901-11.994
		c-31.031-0.004-62.062,0.04-93.093-0.014C30.651,334.181,7.569,314.81,1.94,284.336c-0.176-0.953-0.62-1.856-0.94-2.782
		c0-17.266,0-34.531,0-51.797c0.34-0.905,0.844-1.782,0.996-2.717c4.467-27.572,27.344-48.471,55.187-49.019
		c37.156-0.732,74.329-0.625,111.496-0.809c22.986-0.114,45.639-2.891,67.988-8.199c49.603-11.782,90.69-36.918,120.695-78.556
		c11.808-16.386,22.114-33.855,33.076-50.85c4.968-7.703,10.494-14.825,18.961-19.029c4.98,0,9.961,0,14.941,0
		c1.255,0.345,2.491,0.802,3.768,1.018c12.246,2.079,19.407,8.375,21.869,20.559c1.367,6.765,1.974,13.789,2.002,20.701
		c0.175,42.765,0.088,85.531,0.088,128.297c0,1.916,0,3.832,0,5.811c2.319,0.287,3.954,0.51,5.593,0.689
		c25.856,2.821,45.52,20.085,51.672,45.365c0.541,2.224,1.111,4.441,1.668,6.662C511,253.996,511,258.312,511,262.628z
		 M197.105,296.883c1.971,0.307,3.265,0.478,4.546,0.714c18.229,3.362,36.725,5.69,54.631,10.31
		c42.286,10.909,79.143,31.783,109.823,63.187c16.926,17.325,30.734,36.938,43.113,57.643c0.913,1.528,1.971,2.969,3.488,5.237
		c0-119.157,0-236.954,0-354.75c-0.35-0.304-0.7-0.607-1.05-0.911c-46.333,85.222-119.413,128.261-214.551,136.282
		c0,2.604,0,4.41,0,6.216C197.105,246.022,197.105,271.233,197.105,296.883z M157.478,217.204c-0.703-0.221-1.158-0.489-1.613-0.489
		c-22.564-0.015-45.139-0.445-67.687,0.139c-17.404,0.45-32.108,21.774-27.686,38.824c32.28,0,64.545,0,96.987,0
		C157.478,242.604,157.478,229.912,157.478,217.204z"/>
	<path fill="#FFFFFF" d="M578.697,47.041c-0.345,0.171-0.571,0.462-0.773,0.776c-0.447,0.693-0.867,1.406-1.349,2.074
		c-1.224,1.698-2.899,2.723-4.922,3.204c-0.911,0.216-1.835,0.33-2.773,0.334c-1.516,0.008-3.032,0.003-4.547,0.033
		c-1.136,0.022-2.069,0.875-2.251,1.999c-0.006,0.038-0.027,0.074-0.041,0.111c0-2.841,0-5.683,0-8.531
		C567.593,47.041,573.145,47.041,578.697,47.041z"/>
	<path fill="#FFFFFF" d="M582.841,56.384c-0.023-0.091-0.046-0.181-0.068-0.272c-0.251-1.031-1.053-1.735-2.107-1.85
		c-0.067-0.007-0.134-0.016-0.228-0.028c0-0.081,0-0.159,0-0.237c0-1.744,0.004-3.488-0.004-5.233
		c-0.001-0.282-0.026-0.568-0.082-0.844c-0.1-0.497-0.392-0.754-0.892-0.838c-0.052-0.009-0.102-0.027-0.154-0.042
		c1.176,0,2.353,0,3.534,0C582.841,50.155,582.841,53.27,582.841,56.384z"/>
	<path display="inline" d="M156.209,354.514c-4.284,14.519-6.623,29.008-5.978,43.884c0.565,13.031,5.07,24.006,15.431,32.577
		c10.163,8.408,17.958,18.574,19.927,32.214c2.057,14.256-6.937,26.539-21.422,27.367c-15.373,0.879-30.839,0.84-46.237,0.346
		c-11.522-0.369-19.993-7.85-23.167-19.264c-6.431-23.128-12.631-46.32-18.91-69.491c-3.811-14.062-7.595-28.132-11.382-42.2
		c-0.466-1.729-0.878-3.473-1.371-5.433C94.238,354.514,125.03,354.514,156.209,354.514z"/>
	<path fill="#FFFFFF" d="M570.039,58.31c0-1.046,0-2.074,0-3.103c0-0.074,0-0.147,0-0.254c3.88-0.327,6.861-2.082,8.75-5.558
		c0.014,0.012,0.029,0.025,0.043,0.037c0,4.804,0,9.609,0,14.468c-0.062-0.092-0.105-0.151-0.142-0.214
		c-0.505-0.844-1.068-1.644-1.758-2.351c-1.251-1.281-2.754-2.132-4.479-2.577c-0.73-0.188-1.485-0.283-2.228-0.42
		C570.172,58.329,570.119,58.322,570.039,58.31z M577.221,53.525c-1.635,1.34-3.423,2.266-5.563,2.329c0,0.273,0,0.514,0,0.774
		c1.892-0.008,3.74-0.246,5.563-0.701C577.221,55.124,577.221,54.337,577.221,53.525z"/>
	<path fill="#FFFFFF" d="M568.422,55.06c0,0.518,0,1.036,0,1.569c-1.323,0-2.639,0-3.956,0c-0.18-0.695,0.419-1.565,1.129-1.583
		c0.92-0.024,1.84-0.006,2.761-0.006C568.375,55.04,568.394,55.051,568.422,55.06z"/>
	<path display="inline" d="M373.204,179.569c0,19.902,0,39.2,0,58.907c-44.696,11.169-90.002,16.991-136.401,17.188
		c0-6.389,0-12.29,0-18.984C289.271,235.122,333.104,212.414,373.204,179.569z"/>
</g>
<g display="none">
	<path display="inline" d="M1,298.828c0-35.195,0-70.391,0-105.586c0.439-0.847,0.951-1.665,1.304-2.546
		c3.641-9.098,12.158-14.156,21.29-12.612c9.668,1.635,15.929,8.915,16.306,19.02c0.078,2.101,0.011,4.208,0.011,6.892
		c2.306-0.591,3.886-0.94,5.432-1.4c82.575-24.578,165.147-49.168,247.72-73.752c58.119-17.304,116.23-34.635,174.385-51.819
		c3.474-1.027,4.951-2.435,4.675-6.129c-0.296-3.959-0.145-7.967,0.037-11.944c0.41-8.967,6.697-16.382,15.105-18.018
		c9.245-1.799,17.889,2.568,21.778,10.981c0.606,1.31,1.302,2.578,1.956,3.866c0,133.477,0,266.953,0,400.43
		c-0.519,0.983-1.111,1.935-1.546,2.953c-3.895,9.118-12.52,13.759-22.166,11.897c-8.578-1.656-14.789-9.173-15.163-18.479
		c-0.133-3.313-0.429-6.684,0.01-9.94c0.731-5.426-1.566-7.677-6.629-9.378C325.661,386.297,185.872,339.166,46.07,292.074
		c-1.797-0.605-3.645-1.059-5.849-1.692c-0.158,2.568-0.26,4.371-0.382,6.173c-0.884,13.078-14.067,21.455-26.263,16.762
		C6.777,310.7,3.544,305.086,1,298.828z M452.105,118.66c-2.211,0.578-4.108,1.053-5.993,1.57
		c-104.445,28.688-208.889,57.378-313.332,86.07c-22.837,6.274-45.656,12.613-68.524,18.774c-3.38,0.911-5.255,2.246-4.629,6.025
		c0.26,1.569,0.043,3.216,0.043,5.48c131.212-19.686,261.751-39.27,392.435-58.877C452.105,157.841,452.105,138.484,452.105,118.66z
		"/>
	<path fill="#FFFFFF" d="M582.841,49.275c-0.027-0.053-0.055-0.104-0.08-0.158c-0.159-0.343-0.511-0.521-0.888-0.448
		c-0.343,0.067-0.599,0.369-0.616,0.735c-0.007,0.162-0.014,0.326-0.001,0.487c0.011,0.151-0.049,0.208-0.191,0.25
		c-2.372,0.701-4.742,1.408-7.112,2.113c-3.368,1.003-6.735,2.006-10.103,3.008c-0.063,0.019-0.127,0.033-0.221,0.057
		c0-0.109,0.003-0.195,0-0.281c-0.015-0.412-0.271-0.709-0.665-0.776c-0.372-0.063-0.72,0.143-0.868,0.514
		c-0.014,0.036-0.035,0.069-0.053,0.104c0-2.612,0-5.224,0-7.838c6.933,0,13.867,0,20.8,0
		C582.841,47.786,582.841,48.531,582.841,49.275z"/>
	<path fill="#FFFFFF" d="M562.041,59.187c0.104,0.255,0.236,0.484,0.513,0.591c0.497,0.191,1.035-0.15,1.071-0.684
		c0.005-0.073,0.009-0.147,0.016-0.252c0.09,0.026,0.165,0.044,0.239,0.069c5.702,1.921,11.403,3.843,17.106,5.758
		c0.207,0.069,0.3,0.161,0.27,0.382c-0.018,0.133-0.006,0.27,0,0.405c0.015,0.38,0.269,0.686,0.618,0.754
		c0.393,0.076,0.745-0.113,0.904-0.485c0.018-0.042,0.042-0.08,0.063-0.12c0,0.745,0,1.49,0,2.234c-6.933,0-13.867,0-20.8,0
		C562.041,64.956,562.041,62.072,562.041,59.187z M570.619,64.857c0.563-0.021,1.045-0.211,1.462-0.585
		c0.424-0.381,0.599-0.892,0.752-1.412c0.076-0.261-0.068-0.498-0.297-0.569c-0.253-0.078-0.497,0.045-0.603,0.309
		c-0.075,0.188-0.134,0.383-0.215,0.568c-0.246,0.559-0.794,0.851-1.377,0.679c-0.725-0.214-1.444-0.456-2.151-0.723
		c-0.557-0.211-0.818-0.777-0.675-1.36c0.051-0.209,0.138-0.41,0.191-0.619c0.064-0.258-0.071-0.501-0.298-0.569
		c-0.25-0.075-0.493,0.036-0.594,0.287c-0.076,0.188-0.144,0.38-0.198,0.575c-0.299,1.09,0.178,2.139,1.224,2.564
		c0.724,0.294,1.48,0.511,2.226,0.751C570.243,64.81,570.434,64.823,570.619,64.857z"/>
	<path fill="#FFFFFF" d="M580.439,51.839c0,0.808,0,1.598,0,2.408c-5.33,0.8-10.654,1.598-16.005,2.401
		c0-0.092,0.009-0.16-0.002-0.224c-0.026-0.154,0.051-0.209,0.189-0.246c0.933-0.251,1.863-0.51,2.795-0.766
		c4.26-1.17,8.519-2.34,12.779-3.51C580.271,51.882,580.348,51.863,580.439,51.839z"/>
	<path display="inline" d="M211.343,437.836c-4.539-0.822-9.237-1.15-13.589-2.553c-18.277-5.891-36.819-11.197-54.575-18.412
		c-25.638-10.418-37.341-36.133-30.014-62.866c1.311-4.783,2.99-9.491,4.85-14.092c2.485-6.148,8.446-8.878,14.567-7.034
		c5.568,1.677,8.887,7.63,7.307,13.95c-1.283,5.127-3.42,10.042-4.678,15.174c-3.505,14.29,2.903,28.177,16.561,33.344
		c17.339,6.56,34.957,12.496,52.739,17.734c14.284,4.208,27.74-2.952,33.759-16.659c1.994-4.541,3.439-9.32,5.282-13.932
		c2.594-6.491,8.587-9.506,14.78-7.586c5.608,1.739,9.157,7.551,7.282,13.956c-3.731,12.745-8.04,25.293-18.43,34.626
		C236.978,432.656,225.157,437.328,211.343,437.836z"/>
</g>
<g display="none">
	<path fill="#FFFFFF" d="M581.378,47.041c0.487,0,0.975,0,1.462,0c0,6.933,0,13.867,0,20.8c-6.933,0-13.867,0-20.8,0
		c0-6.933,0-13.867,0-20.8c6.351,0,12.702,0,19.053,0c-0.445,0.161-0.615,0.489-0.674,0.951c-0.141,1.094-0.781,1.8-1.842,2.067
		c-0.505,0.127-1.04,0.164-1.563,0.19c-0.931,0.046-1.846,0.153-2.716,0.509c-1.021,0.418-1.817,1.087-2.289,2.102
		c-0.212,0.457-0.364,0.938-0.322,1.449c0.037,0.444,0.367,0.716,0.808,0.715c0.376-0.001,0.709-0.307,0.751-0.717
		c0.108-1.044,0.717-1.686,1.646-2.075c0.757-0.317,1.558-0.377,2.365-0.399c0.63-0.017,1.252-0.08,1.86-0.265
		c1.624-0.495,2.714-1.793,2.9-3.474c0.038-0.346-0.013-0.667-0.32-0.887C581.602,47.137,581.486,47.095,581.378,47.041z
		 M582.626,62.945c0-0.21,0.016-0.421-0.003-0.629c-0.127-1.378-0.457-2.704-1.046-3.959c-0.59-1.258-1.352-2.39-2.456-3.261
		c-0.451-0.356-0.945-0.64-1.517-0.736c-0.765-0.128-1.451,0.095-2.05,0.567c-0.473,0.372-0.908,0.792-1.383,1.162
		c-1.012,0.79-2.241,0.841-3.298,0.111c-0.465-0.321-0.876-0.723-1.308-1.091c-1.12-0.954-2.275-1.036-3.494-0.23
		c-1.06,0.701-1.806,1.683-2.41,2.778c-0.897,1.627-1.352,3.373-1.432,5.231c-0.049,1.14,0.276,2.147,0.913,3.069
		c0.289,0.417,0.64,0.781,1.137,0.943c0.653,0.213,1.242,0.003,1.79-0.341c0.648-0.407,1.151-0.983,1.684-1.52
		c1.135-1.143,2.438-1.933,4.09-2.056c1.686-0.126,3.215,0.257,4.513,1.37c0.6,0.515,1.137,1.103,1.731,1.625
		c0.337,0.296,0.704,0.584,1.105,0.776c0.908,0.435,1.578,0.27,2.18-0.369C582.279,65.424,582.688,64.265,582.626,62.945z"/>
	<path display="inline" d="M479.652,6.647c2.685,1.36,5.592,2.409,8.015,4.137c7.689,5.483,8.96,13.504,8.003,22.155
		c-4.644,42.003-31.888,74.454-72.478,86.817c-15.194,4.628-30.737,6.204-46.492,6.634c-20.163,0.55-40.19,2.04-59.098,9.969
		c-23.2,9.728-38.418,25.778-41.126,51.863c-1.062,10.226-9.376,17.883-18.778,17.908c-11.038,0.03-19.291-6.766-20.204-17.874
		c-1.048-12.755,2.734-24.787,8.041-36.203c11.784-25.345,31.692-42.081,57.199-52.52c21.728-8.893,44.601-11.57,67.865-12.722
		c13.087-0.648,26.437-1.563,39.066-4.745c26.524-6.683,42.519-24.309,46.031-51.661c1.48-11.526,5.735-19.724,16.849-23.759
		C474.915,6.647,477.284,6.647,479.652,6.647z"/>
	<path display="inline" d="M510.836,404.11c1.562,32.968-8.68,61.95-31.308,85.963c-15.042,15.962-31.791,20.076-54.47,9.211
		c-10.024-4.802-19.202-11.985-27.619-19.389c-14.843-13.056-28.256-27.752-43.253-40.613
		c-32.427-27.81-70.638-37.383-112.78-34.238c-41.282,3.081-73.851,22.805-102.221,51.381
		c-13.326,13.423-25.889,27.802-42.095,37.982c-13.706,8.609-28.43,13.862-44.739,8.528c-12.417-4.061-21.203-13.143-28.413-23.566
		C8.01,456.347-0.105,431.169,1.121,402.685c1.999-46.425,13.383-90.079,35.797-130.728c15.095-27.375,33.742-51.914,60.231-69.433
		c30.455-20.142,59.337-18.093,87.313,5.755c10.804,9.21,21.062,19.236,32.689,27.27c26.425,18.257,57.118,16.985,82.42-2.769
		c11.851-9.252,22.731-19.745,34.55-29.042c14.969-11.776,32.109-17.352,51.224-14.159c14.316,2.392,26.658,9.511,37.919,18.396
		c27.586,21.763,46.627,50.055,61.369,81.482c14.714,31.366,22.971,64.509,26.136,98.94
		C511.247,393.592,510.836,398.87,510.836,404.11z M156.562,266.825c-13.922,0-27.006,0-40.668,0c0,13.315,0,26.233,0,39.591
		c-13.373,0-26.166,0-39.109,0c0,13.658,0,26.849,0,40.471c13.257,0,26.038,0,39.399,0c0,13.34,0,26.257,0,39.361
		c13.666,0,26.74,0,40.499,0c0-13.226,0-26.134,0-39.63c13.589,0,26.503,0,39.452,0c0-13.693,0-26.773,0-40.505
		c-13.266,0-26.179,0-39.573,0C156.562,292.681,156.562,279.896,156.562,266.825z M310.959,326.67
		c0.065,14.041,11.56,25.375,25.593,25.235c13.705-0.136,25.056-11.536,25.174-25.28c0.118-13.765-11.648-25.567-25.474-25.552
		C322.283,301.089,310.894,312.615,310.959,326.67z M390.97,326.542c0.026,14.106,11.384,25.44,25.422,25.368
		c13.975-0.072,25.34-11.66,25.173-25.665c-0.165-13.835-11.448-25.101-25.214-25.175
		C402.391,300.994,390.944,312.483,390.97,326.542z M376.514,261.259c-14.079-0.099-25.628,11.187-25.739,25.154
		c-0.11,13.739,11.607,25.499,25.482,25.576c13.644,0.076,25.169-11.326,25.33-25.06
		C401.752,272.792,390.584,261.358,376.514,261.259z M401.591,366.357c-0.07-14.043-11.59-25.366-25.609-25.171
		c-13.857,0.192-25.095,11.43-25.205,25.203c-0.111,13.888,11.46,25.412,25.492,25.389
		C390.402,391.754,401.661,380.45,401.591,366.357z"/>
	<path fill="#FFFFFF" d="M568.449,57.452c0,0.523,0,1.035,0,1.572c0.536,0,1.053,0,1.584,0c0,0.549,0,1.073,0,1.621
		c-0.518,0-1.035,0-1.579,0c0,0.54,0,1.057,0,1.586c-0.551,0-1.074,0-1.621,0c0-0.524,0-1.041,0-1.575c-0.535,0-1.046,0-1.577,0
		c0-0.545,0-1.073,0-1.619c0.518,0,1.03,0,1.565,0c0-0.535,0-1.051,0-1.584C567.369,57.452,567.892,57.452,568.449,57.452z"/>
	<path fill="#FFFFFF" d="M574.628,59.847c-0.003-0.562,0.453-1.024,1.012-1.024c0.553-0.001,1.024,0.472,1.019,1.022
		c-0.005,0.55-0.459,1.006-1.007,1.012C575.09,60.862,574.63,60.408,574.628,59.847z"/>
	<path fill="#FFFFFF" d="M577.829,59.841c-0.001-0.563,0.457-1.022,1.016-1.019c0.551,0.003,1.002,0.454,1.009,1.007
		c0.007,0.56-0.448,1.024-1.007,1.027C578.285,60.859,577.831,60.406,577.829,59.841z"/>
	<path fill="#FFFFFF" d="M577.251,57.229c0.563,0.004,1.01,0.462,1.003,1.027c-0.006,0.55-0.468,1.006-1.014,1.003
		c-0.555-0.003-1.024-0.474-1.02-1.023C576.225,57.677,576.688,57.225,577.251,57.229z"/>
	<path fill="#FFFFFF" d="M578.254,61.435c0.003,0.564-0.448,1.016-1.013,1.017c-0.562,0.001-1.025-0.46-1.02-1.016
		c0.004-0.551,0.454-1.001,1.009-1.009C577.791,60.42,578.252,60.873,578.254,61.435z"/>
</g>
<g display="none">
	<path fill="#FFFFFF" d="M582.841,48.666c0,6.389,0,12.779,0,19.172c-6.929,0-13.857,0-20.8,0c0-6.388,0-12.78,0-19.172
		c0.086,0.084,0.177,0.162,0.257,0.251c2.269,2.52,4.538,5.04,6.803,7.563c0.1,0.111,0.2,0.154,0.348,0.153
		c1.976-0.005,3.953-0.007,5.929,0.003c0.2,0.001,0.32-0.063,0.445-0.202c2.256-2.513,4.516-5.023,6.775-7.533
		C582.673,48.818,582.759,48.744,582.841,48.666z M575.638,56.665c-0.061,0.003-0.088,0-0.113,0.006
		c-2.025,0.507-4.049,1.017-6.074,1.52c-0.159,0.04-0.213,0.099-0.212,0.269c0.007,1.854,0.003,3.709,0.007,5.563
		c0,0.188,0.014,0.382,0.061,0.562c0.233,0.89,0.787,1.509,1.635,1.861c0.418,0.174,0.84,0.338,1.261,0.503
		c0.692,0.271,1.379,0.555,2.079,0.801c0.352,0.124,0.711,0.078,1.011-0.182c0.307-0.266,0.344-0.629,0.344-1
		c0.002-3.221,0.001-6.443,0.001-9.664C575.638,56.832,575.638,56.758,575.638,56.665z"/>
	<path display="inline" d="M511,41.133c-1.995,1.922-4.118,3.728-5.966,5.782c-55.411,61.536-110.815,123.078-166.129,184.701
		c-3.064,3.413-6.005,4.987-10.901,4.96c-48.458-0.268-96.918-0.201-145.377-0.085c-3.639,0.009-6.085-1.033-8.535-3.762
		C118.555,170.86,62.927,109.072,7.291,47.293C5.331,45.116,3.103,43.181,1,41.133c0-1.328,0-2.656,0-3.984
		c0.314-1.099,0.733-2.179,0.927-3.299C3.815,22.974,9.206,14.06,18.534,8.399c5.515-3.347,12.179-4.803,18.326-7.11
		c146.094,0,292.188,0,438.281,0c0.937,0.298,1.854,0.725,2.815,0.874c10.733,1.666,19.663,6.786,25.347,15.873
		c3.586,5.733,5.2,12.699,7.698,19.113C511,38.477,511,39.805,511,41.133z"/>
	<path fill="#FFFFFF" d="M563.503,47.041c-0.251,0.094-0.522,0.153-0.747,0.29c-0.38,0.231-0.6,0.594-0.677,1.038
		c-0.008,0.046-0.025,0.09-0.038,0.135c0-0.487,0-0.975,0-1.462C562.528,47.041,563.016,47.041,563.503,47.041z"/>
	<path fill="#FFFFFF" d="M582.841,48.503c-0.102-0.262-0.168-0.546-0.314-0.779c-0.232-0.371-0.596-0.579-1.034-0.647
		c-0.039-0.006-0.077-0.023-0.115-0.036c0.487,0,0.975,0,1.462,0C582.841,47.528,582.841,48.016,582.841,48.503z"/>
	<path display="inline" d="M334.396,237.272c0,2.283,0,4.087,0,5.89c0,78.988,0.018,157.976-0.025,236.964
		c-0.005,9.083-0.903,18-8.437,24.518c-7.357,6.365-16.166,7.488-24.787,4.456c-17.173-6.041-34.021-13.006-50.98-19.649
		c-10.334-4.048-20.677-8.079-30.924-12.341c-20.787-8.646-34.36-23.808-40.08-45.639c-1.16-4.426-1.484-9.177-1.495-13.78
		c-0.106-45.468,0.001-90.936-0.174-136.403c-0.016-4.17,1.29-5.634,5.198-6.604c49.671-12.325,99.298-24.827,148.94-37.266
		C332.243,237.266,332.91,237.342,334.396,237.272z"/>
</g>
<g display="none">
	<path display="inline" d="M92.641,1c108.906,0,217.812,0,326.719,0c1.075,0.352,2.127,0.849,3.23,1.032
		c10.914,1.807,20.553,6.345,28.835,13.639c14.556,12.821,20.326,29.248,20.29,48.353c-0.135,70.383-0.053,140.766-0.053,211.149
		c0,57.933,0.064,115.867-0.028,173.8c-0.049,30.654-17.405,53.415-45.639,60.322c-2.218,0.543-4.423,1.136-6.634,1.706
		c-108.906,0-217.813,0-326.719,0c-1.076-0.352-2.127-0.849-3.23-1.032c-10.914-1.807-20.553-6.345-28.834-13.639
		c-14.556-12.821-20.326-29.248-20.289-48.353c0.135-70.383,0.053-140.766,0.053-211.149c0-57.933-0.064-115.867,0.028-173.8
		C40.416,32.373,57.773,9.612,86.006,2.706C88.224,2.163,90.429,1.57,92.641,1z M79.396,255.492
		c0,49.631-0.001,99.263,0.001,148.894c0.001,15.769-0.112,31.54,0.056,47.307c0.12,11.193,6.996,18.685,18.072,20.095
		c2.292,0.292,4.636,0.252,6.955,0.252c98.267,0.011,196.534,0.01,294.801,0.009c4.316,0,8.637,0.133,12.946-0.046
		c9.975-0.414,17.377-5.838,19.606-14.652c0.758-2.997,0.741-6.24,0.742-9.371c0.034-127.979,0.029-255.959,0.024-383.938
		c0-1.825,0.001-3.654-0.11-5.475c-0.549-9.047-6.868-16.327-15.81-17.969c-2.751-0.505-5.606-0.624-8.413-0.625
		c-101.421-0.03-202.842,0.095-304.262-0.167c-13.746-0.036-24.961,6.412-24.809,24.963
		C79.718,128.341,79.396,191.918,79.396,255.492z"/>
	<path fill="#FFFFFF" d="M565.778,47.041c-0.09,0.023-0.18,0.047-0.271,0.07c-1.151,0.282-1.859,1.21-1.861,2.46
		c-0.004,2.363-0.001,4.726-0.001,7.088c0,2.871,0.003,5.741-0.002,8.612c-0.001,0.779,0.234,1.449,0.828,1.972
		c0.338,0.297,0.731,0.483,1.176,0.556c0.045,0.007,0.088,0.028,0.132,0.042c-1.246,0-2.492,0-3.737,0c0-6.933,0-13.867,0-20.8
		C563.286,47.041,564.532,47.041,565.778,47.041z"/>
	<path fill="#FFFFFF" d="M579.103,67.841c0.09-0.023,0.18-0.047,0.271-0.07c1.151-0.282,1.859-1.21,1.861-2.46
		c0.004-2.363,0.001-4.726,0.001-7.088c0-2.871-0.003-5.741,0.002-8.612c0.001-0.779-0.234-1.449-0.828-1.972
		c-0.338-0.297-0.731-0.483-1.176-0.556c-0.045-0.007-0.088-0.028-0.132-0.042c1.245,0,2.49,0,3.736,0c0,6.933,0,13.867,0,20.8
		C581.593,67.841,580.348,67.841,579.103,67.841z"/>
	<path fill="#FFFFFF" d="M565.238,57.42c0-2.593,0.013-5.186-0.008-7.778c-0.006-0.757,0.451-1.02,1.012-1.018
		c4.136,0.011,8.273,0.006,12.409,0.007c0.115,0,0.231,0.005,0.343,0.025c0.365,0.067,0.622,0.364,0.645,0.733
		c0.005,0.074,0.004,0.149,0.004,0.223c0,5.22,0,10.439-0.001,15.659c0,0.128,0.001,0.26-0.03,0.382
		c-0.091,0.359-0.393,0.581-0.8,0.598c-0.176,0.007-0.352,0.002-0.528,0.002c-4.008,0-8.016,0-12.023,0
		c-0.095,0-0.19,0.002-0.284-0.01c-0.452-0.057-0.732-0.363-0.737-0.82c-0.007-0.643-0.002-1.286-0.002-1.929
		C565.238,61.468,565.238,59.444,565.238,57.42z M578.82,60.664c-4.267,0-8.507,0-12.755,0c0,1.593,0,3.173,0,4.756
		c4.26,0,8.505,0,12.755,0C578.82,63.828,578.82,62.253,578.82,60.664z M566.061,54.217c4.267,0,8.507,0,12.755,0
		c0-1.593,0-3.173,0-4.756c-4.26,0-8.505,0-12.755,0C566.061,51.053,566.061,52.628,566.061,54.217z M578.821,55.061
		c-4.267,0-8.508,0-12.756,0c0,1.593,0,3.173,0,4.756c4.26,0,8.506,0,12.756,0C578.821,58.225,578.821,56.65,578.821,55.061z"/>
	<path display="inline" d="M412.425,335.038c0,38.967,0,77.584,0,116.615c-104.223,0-208.311,0-312.755,0
		c0-38.826,0-77.556,0-116.615C203.835,335.038,307.808,335.038,412.425,335.038z M217.04,411.463
		c26.188-13.963,51.868-13.999,78.14,0.139c0-6.426,0.311-12.976-0.071-19.486c-0.618-10.525-8.462-18.262-19.062-18.514
		c-13.41-0.318-26.839-0.303-40.25,0.011c-9.572,0.224-17.801,7.281-18.622,16.194C216.512,397.004,217.04,404.311,217.04,411.463z"
		/>
	<path display="inline" d="M99.579,176.958c0-38.956,0-77.572,0-116.607c104.214,0,208.3,0,312.747,0c0,38.814,0,77.545,0,116.607
		C308.173,176.958,204.2,176.958,99.579,176.958z M217.17,136.791c26.217-14.019,51.958-13.961,77.788,0.096
		c0-7.21,0.487-14.523-0.131-21.741c-0.678-7.923-7.67-15.268-15.771-15.597c-15.386-0.626-30.833-0.596-46.221,0.009
		c-7.689,0.303-14.694,7.186-15.492,14.72C216.55,121.767,217.17,129.406,217.17,136.791z"/>
	<path display="inline" d="M412.433,197.648c0,38.956,0,77.581,0,116.615c-104.213,0-208.315,0-312.768,0
		c0-38.823,0-77.56,0-116.615C203.82,197.648,307.804,197.648,412.433,197.648z M295.29,274.353c0-6.083,0.213-12.168-0.045-18.234
		c-0.506-11.92-8.328-19.678-20.367-19.924c-12.586-0.257-25.183-0.163-37.773-0.018c-7.644,0.088-14.02,3.161-17.712,10.023
		c-4.871,9.054-2.091,18.786-2.663,28.094C243.246,260.265,268.768,260.176,295.29,274.353z"/>
	<path fill="#FFFFFF" d="M570.852,63.781c0-0.292-0.022-0.59,0.005-0.883c0.034-0.363,0.369-0.651,0.76-0.66
		c0.547-0.013,1.095-0.013,1.642,0c0.432,0.01,0.752,0.326,0.777,0.755c0.016,0.265,0.003,0.533,0.003,0.795
		C572.967,63.21,571.92,63.212,570.852,63.781z"/>
	<path fill="#FFFFFF" d="M570.857,52.579c0-0.301-0.025-0.613,0.007-0.918c0.033-0.307,0.318-0.588,0.632-0.6
		c0.628-0.025,1.258-0.026,1.885,0c0.33,0.013,0.616,0.313,0.643,0.636c0.025,0.294,0.005,0.593,0.005,0.887
		C572.976,52.009,571.926,52.007,570.857,52.579z"/>
	<path fill="#FFFFFF" d="M574.043,58.189c-1.082-0.578-2.123-0.575-3.204-0.002c0.023-0.38-0.09-0.777,0.109-1.146
		c0.151-0.28,0.411-0.405,0.722-0.409c0.513-0.006,1.027-0.01,1.541,0.001c0.491,0.01,0.81,0.326,0.831,0.813
		C574.052,57.693,574.043,57.941,574.043,58.189z"/>
</g>
<g display="none">
	<path fill="#FFFFFF" d="M582.841,48.666c0,6.389,0,12.779,0,19.172c-6.929,0-13.857,0-20.8,0c0-6.388,0-12.78,0-19.172
		c0.077,0.073,0.159,0.142,0.23,0.221c2.274,2.525,4.546,5.052,6.822,7.575c0.107,0.119,0.154,0.235,0.154,0.396
		c-0.005,2.376-0.005,4.752-0.001,7.129c0,0.201,0.012,0.409,0.063,0.603c0.233,0.891,0.789,1.509,1.637,1.859
		c0.525,0.217,1.053,0.424,1.582,0.631c0.585,0.229,1.164,0.477,1.76,0.673c0.565,0.187,1.101-0.066,1.264-0.568
		c0.064-0.195,0.082-0.412,0.083-0.619c0.005-3.243,0.002-6.486,0.009-9.728c0-0.115,0.049-0.255,0.125-0.34
		c2.286-2.551,4.578-5.097,6.87-7.642C582.7,48.787,582.773,48.729,582.841,48.666z"/>
	<path display="inline" d="M511,41.166c-1.664,1.55-3.458,2.984-4.974,4.668c-56.197,62.415-112.393,124.831-168.439,187.381
		c-1.853,2.068-3.055,5.517-3.061,8.325c-0.162,79.51-0.094,159.02-0.215,238.529c-0.008,5.078-0.47,10.402-2.029,15.185
		c-4.01,12.302-17.155,18.493-31.003,13.92c-14.607-4.824-28.808-10.887-43.147-16.509c-12.958-5.081-25.915-10.172-38.78-15.484
		c-20.814-8.594-34.448-23.73-40.15-45.582c-1.237-4.741-1.526-9.838-1.534-14.773c-0.101-58.263-0.101-116.526,0.015-174.789
		c0.008-3.945-1.139-6.799-3.768-9.714C118.105,170.452,62.393,108.494,6.636,46.577C4.897,44.646,2.885,42.964,1,41.166
		c0-1.328,0-2.656,0-3.984c0.314-1.099,0.733-2.179,0.927-3.299c1.888-10.876,7.279-19.79,16.606-25.451
		c5.515-3.347,12.179-4.803,18.326-7.11c146.094,0,292.188,0,438.281,0c0.937,0.298,1.854,0.725,2.815,0.874
		c10.733,1.666,19.663,6.786,25.347,15.873c3.586,5.733,5.2,12.699,7.698,19.113C511,38.509,511,39.837,511,41.166z M53.997,40.522
		c1.144,1.502,1.674,2.31,2.312,3.02c45.505,50.596,91.003,101.198,136.611,151.7c1.225,1.357,3.648,2.303,5.517,2.31
		c38.341,0.132,76.683,0.138,115.025-0.012c1.994-0.008,4.562-1.104,5.889-2.572c45.283-50.125,90.451-100.355,135.62-150.583
		c0.924-1.028,1.681-2.206,2.929-3.862C323.05,40.522,189.027,40.522,53.997,40.522z M295.025,465.266
		c0.124-1.88,0.301-3.325,0.302-4.77c0.014-72.847-0.019-145.694,0.093-218.541c0.006-4.107-1.142-5.382-5.296-5.349
		c-22.4,0.181-44.805,0.236-67.203-0.031c-4.994-0.06-6.399,1.212-6.382,6.327c0.192,57.414,0.121,114.829,0.122,172.244
		c0,13.021,5.689,21.381,17.918,26.282c18.299,7.334,36.603,14.656,54.914,21.959C291.153,464.049,292.881,464.543,295.025,465.266z
		"/>
	<path fill="#FFFFFF" d="M563.503,47.041c-0.251,0.094-0.522,0.153-0.747,0.29c-0.38,0.231-0.6,0.594-0.677,1.038
		c-0.008,0.046-0.025,0.09-0.038,0.135c0-0.487,0-0.975,0-1.462C562.528,47.041,563.016,47.041,563.503,47.041z"/>
	<path fill="#FFFFFF" d="M582.841,48.503c-0.102-0.262-0.168-0.546-0.314-0.779c-0.232-0.371-0.596-0.579-1.034-0.647
		c-0.039-0.006-0.077-0.023-0.115-0.036c0.487,0,0.975,0,1.462,0C582.841,47.528,582.841,48.016,582.841,48.503z"/>
	<path fill="#FFFFFF" d="M564.202,48.639c5.507,0,10.973,0,16.473,0c-0.051,0.068-0.082,0.116-0.119,0.158
		c-1.842,2.049-3.684,4.097-5.531,6.141c-0.054,0.06-0.159,0.105-0.24,0.105c-1.564,0.006-3.128,0.006-4.691,0
		c-0.076,0-0.175-0.039-0.225-0.094c-1.86-2.06-3.716-4.123-5.572-6.187C564.27,48.734,564.249,48.701,564.202,48.639z"/>
	<path fill="#FFFFFF" d="M574.032,65.962c-0.087-0.029-0.158-0.05-0.226-0.077c-0.747-0.298-1.493-0.596-2.24-0.896
		c-0.499-0.2-0.731-0.541-0.731-1.072c0-2.342,0.003-4.683-0.005-7.025c-0.001-0.209,0.057-0.26,0.26-0.258
		c0.914,0.011,1.827,0.009,2.741,0.001c0.169-0.001,0.216,0.051,0.216,0.218c-0.005,2.971-0.003,5.942-0.004,8.913
		C574.044,65.827,574.037,65.886,574.032,65.962z"/>
</g>
<g display="none">
	<path display="inline" d="M1,363.622c0-87.988,0-175.977,0-263.965c1.726-0.451,3.521-0.729,5.169-1.379
		c78.1-30.804,156.196-61.621,234.248-92.547c3.16-1.252,5.788-1.304,8.954-0.155c85.446,31.022,170.922,61.96,256.405,92.879
		c1.668,0.603,3.479,0.81,5.224,1.201c0,87.988,0,175.977,0,263.965c-70.638,47.366-141.29,94.713-211.867,142.171
		c-2.928,1.969-5.052,1.801-8.038,0.327c-50.383-24.874-100.816-49.649-151.254-74.412C93.572,408.991,47.281,386.316,1,363.622z
		 M39.949,125.707c0,3.103,0,5.032,0,6.961c0,66.873,0.047,133.746-0.106,200.618c-0.01,4.435,1.265,6.678,5.313,8.659
		c80.518,39.411,160.954,78.989,241.407,118.531c7.931,3.898,8.774,3.395,8.774-5.255c0.003-74.672-0.044-149.344,0.112-224.015
		c0.01-4.565-1.343-6.577-5.623-8.236c-72.126-27.96-144.176-56.116-216.247-84.22C62.812,134.549,52.028,130.389,39.949,125.707z
		 M379.915,170.146c-1.98-0.862-3.023-1.361-4.097-1.778c-72.725-28.22-145.441-56.465-218.232-84.514
		c-2.604-1.004-6.284-0.903-8.914,0.109c-25.195,9.696-50.273,19.694-75.377,29.624c-1.457,0.576-2.853,1.308-4.97,2.287
		c2.092,0.881,3.291,1.419,4.514,1.896c76.533,29.853,153.075,59.684,229.579,89.61c3.242,1.268,5.802,1.098,8.866-0.546
		c21.318-11.44,42.734-22.699,64.111-34.029C376.667,172.133,377.878,171.349,379.915,170.146z M180.207,71.429
		c2.149,1.036,3.397,1.747,4.723,2.261c71.22,27.623,142.452,55.214,213.651,82.889c3.025,1.176,5.489,1.212,8.426-0.369
		c17.808-9.591,35.716-18.996,53.582-28.48c1.272-0.675,2.477-1.476,4.178-2.497c-1.093-0.509-1.62-0.804-2.18-1.007
		c-71.513-25.881-143.023-51.771-214.58-77.532c-1.768-0.637-4.248-0.322-6.073,0.384c-16.382,6.336-32.691,12.859-49.022,19.326
		C188.97,67.967,185.026,69.524,180.207,71.429z M378.198,231.354c0.733,1.233,1.685,4.926,3.537,5.452
		c2.726,0.775,6.617,0.146,9.1-1.374c12.845-7.863,25.465-16.1,38.024-24.418c5.524-3.659,8.856-9.119,9.221-15.72
		c0.145-2.626-0.978-6.287-2.864-7.752c-1.488-1.156-5.466-0.441-7.584,0.766c-12.651,7.211-25.158,14.686-37.562,22.318
		C383.028,214.959,379.124,221.481,378.198,231.354z"/>
	<path fill="#FFFFFF" d="M562.041,61.869c1.888,0.926,3.775,1.85,5.663,2.777c2.057,1.01,4.114,2.02,6.169,3.035
		c0.122,0.06,0.208,0.067,0.328-0.013c2.878-1.936,5.76-3.867,8.641-5.798c0,1.991,0,3.981,0,5.972c-6.933,0-13.867,0-20.8,0
		C562.041,65.85,562.041,63.859,562.041,61.869z"/>
	<path fill="#FFFFFF" d="M582.841,51.103c-0.071-0.016-0.145-0.024-0.213-0.049c-3.486-1.261-6.972-2.523-10.457-3.788
		c-0.129-0.047-0.236-0.045-0.365,0.006c-3.183,1.261-6.368,2.518-9.554,3.774c-0.067,0.027-0.14,0.038-0.211,0.056
		c0-1.353,0-2.706,0-4.061c6.933,0,13.867,0,20.8,0C582.841,48.397,582.841,49.75,582.841,51.103z"/>
	<path fill="#FFFFFF" d="M563.629,52.166c0.493,0.191,0.932,0.361,1.372,0.532c2.939,1.146,5.878,2.295,8.819,3.435
		c0.175,0.068,0.23,0.15,0.229,0.336c-0.006,3.045-0.004,6.091-0.005,9.136c0,0.353-0.034,0.373-0.358,0.214
		c-3.281-1.613-6.562-3.227-9.846-4.834c-0.165-0.081-0.217-0.172-0.217-0.353c0.006-2.727,0.004-5.455,0.004-8.182
		C563.629,52.371,563.629,52.292,563.629,52.166z"/>
	<path fill="#FFFFFF" d="M577.494,53.978c-0.083,0.049-0.133,0.081-0.184,0.108c-0.872,0.462-1.745,0.921-2.615,1.388
		c-0.125,0.067-0.229,0.074-0.362,0.022c-3.12-1.221-6.242-2.437-9.363-3.655c-0.05-0.019-0.099-0.041-0.184-0.077
		c0.086-0.04,0.143-0.07,0.203-0.093c1.024-0.405,2.047-0.813,3.074-1.208c0.107-0.041,0.257-0.045,0.364-0.004
		c2.969,1.144,5.934,2.296,8.9,3.447C577.371,53.922,577.414,53.943,577.494,53.978z"/>
	<path fill="#FFFFFF" d="M569.349,49.952c0.197-0.078,0.357-0.141,0.518-0.205c0.666-0.264,1.331-0.53,1.999-0.788
		c0.074-0.029,0.176-0.042,0.248-0.016c2.918,1.051,5.835,2.107,8.751,3.162c0.023,0.008,0.044,0.02,0.089,0.041
		c-0.069,0.042-0.119,0.074-0.17,0.102c-0.729,0.387-1.459,0.77-2.185,1.162c-0.12,0.065-0.22,0.063-0.344,0.015
		c-2.904-1.129-5.809-2.254-8.714-3.381C569.488,50.023,569.437,49.994,569.349,49.952z"/>
	<path fill="#FFFFFF" d="M577.424,56.474c0.038-0.403,0.197-0.669,0.484-0.845c0.506-0.311,1.016-0.616,1.532-0.91
		c0.086-0.049,0.249-0.078,0.309-0.031c0.077,0.06,0.123,0.209,0.117,0.316c-0.015,0.269-0.151,0.492-0.376,0.641
		c-0.512,0.339-1.027,0.675-1.551,0.996c-0.101,0.062-0.26,0.088-0.371,0.056C577.493,56.675,577.454,56.525,577.424,56.474z"/>
</g>
<g display="none">
	<path fill="#FFFFFF" d="M562.041,60.325c0-4.428,0-8.856,0-13.284c6.933,0,13.867,0,20.8,0c0,6.933,0,13.867,0,20.8
		c-4.428,0-8.856,0-13.284,0c0.059-0.012,0.118-0.025,0.177-0.036c0.551-0.099,1.125-0.13,1.649-0.309
		c2.692-0.92,4.36-2.779,4.925-5.578c0.258-1.281,0.139-2.548-0.332-3.771c-0.177-0.458-0.404-0.897-0.593-1.312
		c0.691-0.691,1.392-1.392,2.108-2.108c0.993,0.993,2.006,2.006,3.002,3.003c0.748-0.748,1.493-1.493,2.277-2.277
		c-1.005-1.004-2.021-2.021-3.061-3.061c1.004-1.003,2.018-2.016,3.005-3.002c-0.743-0.743-1.487-1.488-2.257-2.257
		c-0.997,0.997-2.01,2.011-3.045,3.046c-1.011-1.012-2.028-2.029-3.012-3.014c-0.752,0.752-1.496,1.497-2.27,2.271
		c0.995,0.994,2.008,2.007,3.013,3.013c-0.69,0.687-1.39,1.383-2.096,2.087c-0.153-0.085-0.322-0.185-0.496-0.275
		c-0.174-0.09-0.348-0.183-0.53-0.254c-2.012-0.79-4.014-0.777-5.955,0.195c-2.167,1.086-3.468,2.852-3.907,5.243
		C562.107,59.735,562.08,60.031,562.041,60.325z"/>
	<path display="inline" d="M1,325.839c0.964-7.229,1.627-14.513,2.94-21.678c10.78-58.811,42.793-102.28,96.119-128.992
		c47.755-23.922,96.999-24.256,146.512-4.806c4.477,1.759,8.764,4.033,13.045,6.252c4.272,2.214,8.425,4.66,12.194,6.761
		c17.381-17.302,34.583-34.428,51.57-51.337c-24.743-24.739-49.67-49.662-74.143-74.131c19.041-19.051,37.338-37.358,55.842-55.872
		c24.227,24.24,49.227,49.252,74.113,74.15c25.465-25.473,50.393-50.409,74.915-74.94c18.933,18.936,37.247,37.252,55.531,55.538
		c-24.301,24.276-49.235,49.184-73.948,73.872c25.575,25.573,50.595,50.592,75.311,75.305c-19.282,19.286-37.61,37.617-56.018,56.03
		c-24.516-24.524-49.443-49.46-73.866-73.891c-17.613,17.618-34.86,34.87-51.858,51.873c4.651,10.211,10.231,21.013,14.579,32.29
		c11.593,30.07,14.539,61.266,8.179,92.773c-13.905,68.884-54.945,114.609-121.178,137.25c-12.882,4.404-27.012,5.152-40.565,7.595
		c-1.457,0.263-2.904,0.582-4.356,0.875c-4.998,0-9.995,0-14.993,0c-1.622-0.293-3.235-0.774-4.868-0.85
		c-19.816-0.927-38.958-5.334-56.903-13.467C50.974,470.071,15.386,425.587,3.829,362.443C2.523,355.306,1.926,348.039,1,340.832
		C1,335.834,1,330.837,1,325.839z M177.946,432.051c54.275,0.149,98.639-43.931,98.873-98.242
		c0.233-53.946-44.158-98.529-98.446-98.874c-53.98-0.343-98.409,43.987-98.67,98.447
		C79.444,387.666,123.487,431.901,177.946,432.051z"/>
	<path fill="#FFFFFF" d="M562.041,60.934c0.038,0.293,0.062,0.588,0.115,0.878c0.47,2.566,1.916,4.374,4.281,5.446
		c0.729,0.331,1.507,0.51,2.313,0.547c0.066,0.003,0.132,0.023,0.198,0.035c-2.302,0-4.604,0-6.906,0
		C562.041,65.539,562.041,63.236,562.041,60.934z"/>
	<path fill="#FFFFFF" d="M569.232,64.642c-2.213-0.006-4.003-1.804-3.993-4.01c0.011-2.213,1.816-4.015,4.01-4.001
		c2.206,0.014,4.011,1.826,4.001,4.019C573.241,62.856,571.438,64.648,569.232,64.642z"/>
</g>
</svg>
