<?xml version="1.0" encoding="utf-8"?>
<!-- Generator: Adobe Illustrator 17.0.0, SVG Export Plug-In . SVG Version: 6.00 Build 0)  -->
<!DOCTYPE svg PUBLIC "-//W3C//DTD SVG 1.1//EN" "http://www.w3.org/Graphics/SVG/1.1/DTD/svg11.dtd">
<svg version="1.1" id="Layer_1" xmlns="http://www.w3.org/2000/svg" xmlns:xlink="http://www.w3.org/1999/xlink" x="0px" y="0px"
	 width="512px" height="512px" viewBox="0 0 512 512" enable-background="new 0 0 512 512" xml:space="preserve">
<g>
	<line fill="none" stroke="#B35047" x1="32" y1="0" x2="32" y2="512"/>
	<line fill="none" stroke="#B35047" x1="64" y1="0" x2="64" y2="512"/>
	<line fill="none" stroke="#B35047" x1="96" y1="0" x2="96" y2="512"/>
	<line fill="none" stroke="#B35047" x1="128" y1="0" x2="128" y2="512"/>
	<line fill="none" stroke="#B35047" x1="160" y1="0" x2="160" y2="512"/>
	<line fill="none" stroke="#B35047" x1="192" y1="0" x2="192" y2="512"/>
	<line fill="none" stroke="#B35047" x1="224" y1="0" x2="224" y2="512"/>
	<line fill="none" stroke="#B35047" x1="256" y1="0" x2="256" y2="512"/>
	<line fill="none" stroke="#B35047" x1="288" y1="0" x2="288" y2="512"/>
	<line fill="none" stroke="#B35047" x1="320" y1="0" x2="320" y2="512"/>
	<line fill="none" stroke="#B35047" x1="352" y1="0" x2="352" y2="512"/>
	<line fill="none" stroke="#B35047" x1="384" y1="0" x2="384" y2="512"/>
	<line fill="none" stroke="#B35047" x1="416" y1="0" x2="416" y2="512"/>
	<line fill="none" stroke="#B35047" x1="448" y1="0" x2="448" y2="512"/>
	<line fill="none" stroke="#B35047" x1="480" y1="0" x2="480" y2="512"/>
	<line fill="none" stroke="#B35047" x1="0" y1="32" x2="512" y2="32"/>
	<line fill="none" stroke="#B35047" x1="0" y1="64" x2="512" y2="64"/>
	<line fill="none" stroke="#B35047" x1="0" y1="96" x2="512" y2="96"/>
	<line fill="none" stroke="#B35047" x1="0" y1="128" x2="512" y2="128"/>
	<line fill="none" stroke="#B35047" x1="0" y1="160" x2="512" y2="160"/>
	<line fill="none" stroke="#B35047" x1="0" y1="192" x2="512" y2="192"/>
	<line fill="none" stroke="#B35047" x1="0" y1="224" x2="512" y2="224"/>
	<line fill="none" stroke="#B35047" x1="0" y1="256" x2="512" y2="256"/>
	<line fill="none" stroke="#B35047" x1="0" y1="288" x2="512" y2="288"/>
	<line fill="none" stroke="#B35047" x1="0" y1="320" x2="512" y2="320"/>
	<line fill="none" stroke="#B35047" x1="0" y1="352" x2="512" y2="352"/>
	<line fill="none" stroke="#B35047" x1="0" y1="384" x2="512" y2="384"/>
	<line fill="none" stroke="#B35047" x1="0" y1="416" x2="512" y2="416"/>
	<line fill="none" stroke="#B35047" x1="0" y1="448" x2="512" y2="448"/>
	<line fill="none" stroke="#B35047" x1="0" y1="480" x2="512" y2="480"/>
	<rect x="0" fill="none" stroke="#B35047" width="512" height="512"/>
</g>
<image display="none" overflow="visible" width="512" height="512" xlink:href="../../../Knowledge/Icon/[+++++] (Full) Windows 8 Icons [icons8]/System/save_as/save_as-512.png"  transform="matrix(0.0406 0 0 0.0406 589 43)">
</image>
<image display="none" overflow="visible" width="512" height="512" xlink:href="../../../Knowledge/Icon/[+++++] (Full) Windows 8 Icons [icons8]/System/save/save-512.png"  transform="matrix(0.0406 0 0 0.0406 589 43)">
</image>
<image display="none" overflow="visible" width="512" height="512" xlink:href="../../../Knowledge/Icon/[+++++] (Full) Windows 8 Icons [icons8]/System/public/public-512.png"  transform="matrix(0.0406 0 0 0.0406 589 43)">
</image>
<image display="none" overflow="visible" width="512" height="512" xlink:href="../../../Knowledge/Icon/[+++++] (Full) Windows 8 Icons [icons8]/System/private/private-512.png"  transform="matrix(0.0406 0 0 0.0406 589 43)">
</image>
<image display="none" overflow="visible" width="512" height="512" xlink:href="../../../Knowledge/Icon/[+++++] (Full) Windows 8 Icons [icons8]/System/logout/logout-512.png"  transform="matrix(0.0406 0 0 0.0406 589 43)">
</image>
<image display="none" overflow="visible" width="512" height="512" xlink:href="../../../Knowledge/Icon/[+++++] (Full) Windows 8 Icons [icons8]/System/login/login-512.png"  transform="matrix(0.0406 0 0 0.0406 589 43)">
</image>
<image display="none" overflow="visible" width="512" height="512" xlink:href="../../../Knowledge/Icon/[+++++] (Full) Windows 8 Icons [icons8]/System/help/help-512.png"  transform="matrix(0.0406 0 0 0.0406 589 43)">
</image>
<image display="none" overflow="visible" width="512" height="512" xlink:href="../../../Knowledge/Icon/[+++++] (Full) Windows 8 Icons [icons8]/System/error/error-512.png"  transform="matrix(0.0406 0 0 0.0406 589 43)">
</image>
<image display="none" overflow="visible" width="512" height="512" xlink:href="../../../Knowledge/Icon/[+++++] (Full) Windows 8 Icons [icons8]/System/delete/delete-512.png"  transform="matrix(0.0406 0 0 0.0406 589 43)">
</image>
<image display="none" overflow="visible" width="512" height="512" xlink:href="../../../Knowledge/Icon/[+++++] (Full) Windows 8 Icons [icons8]/System/dashboard/dashboard-512.png"  transform="matrix(0.0406 0 0 0.0406 589 43)">
</image>
<image display="none" overflow="visible" width="512" height="512" xlink:href="../../../Knowledge/Icon/[+++++] (Full) Windows 8 Icons [icons8]/System/pin2/pin2-512.png"  transform="matrix(0.0406 0 0 0.0406 589 43)">
</image>
<g>
	<path d="M282.192,511c-16.63,0-33.261,0-49.891,0c-1.274-0.332-2.529-0.831-3.824-0.972c-32.066-3.485-62.571-12.412-90.765-28.017
		C59.252,438.585,13.991,372.153,3.17,283.134c-5.16-42.449,0.279-84.22,17.671-123.417C63.959,62.542,139.122,9.372,245.133,1.623
		c46.174-3.375,90.286,7.043,131.051,29.226c66.715,36.305,109.795,91.385,128.579,165.14c2.403,9.436,3.975,19.084,5.932,28.633
		c0,20.954,0,41.909,0,62.863c-0.449,2.42-0.951,4.833-1.34,7.263c-7.211,45.074-24.567,85.763-53.367,121.25
		c-39.408,48.558-89.873,79.043-151.341,91.067C297.191,508.525,289.678,509.696,282.192,511z M421.975,395.428
		c68.176-79.08,72.549-207.792-12.958-292.361c-88.23-87.262-216.761-76.847-290.589-12.115c1.223,1.305,2.412,2.648,3.678,3.915
		c19.629,19.644,39.278,39.27,58.889,58.931c1.754,1.758,3.475,3.607,4.885,5.641c6.491,9.364,3.119,22.537-6.996,27.722
		c-8.63,4.424-16.753,2.77-24.759-5.216c-19.899-19.845-39.751-39.737-59.63-59.602c-1.249-1.248-2.568-2.426-3.871-3.652
		c-75.425,89.772-60.533,218.658,12.312,288.475c32.631-42.611,65.231-85.182,98.137-128.153
		c-15.552-15.543-30.793-30.776-46.148-46.122c24.528-24.829,53.79-35.516,88.314-30.734c3.953,0.548,5.992-0.546,8.281-3.477
		c23.844-30.528,47.791-60.975,71.777-91.392c7.334-9.301,13.683-9.743,22.002-1.48c20.056,19.922,40.021,39.937,59.977,59.96
		c1.507,1.512,2.921,3.242,3.912,5.118c3.394,6.424,1.429,12.048-6.154,17.835c-30.526,23.298-61.052,46.596-91.657,69.79
		c-2.579,1.955-3.454,3.764-2.895,7.067c3.147,18.586,1.567,36.799-5.638,54.291c-5.683,13.797-14.243,25.685-25.78,36.817
		c-15.428-15.528-30.616-30.816-46.022-46.321c-42.452,32.529-85.025,65.149-127.651,97.811
		c80.47,82.609,210.363,83.927,291.922,13.703c-1.559-1.122-3.222-2.012-4.502-3.288c-20.381-20.304-40.722-40.647-61.038-61.015
		c-1.871-1.876-3.716-3.84-5.22-6.008c-4.858-7.003-4.198-16.761,1.382-23.076c8.239-9.325,20.461-9.239,30.171,0.415
		c18.398,18.289,36.72,36.653,55.031,55.029C414.764,387.579,418.199,391.415,421.975,395.428z"/>
	<path display="none" fill="#FFFFFF" d="M609.841,52.181c-0.08-0.389-0.144-0.782-0.242-1.166c-0.765-3.003-2.519-5.245-5.235-6.723
		c-1.66-0.903-3.456-1.327-5.336-1.19c-4.316,0.315-7.376,2.48-9.132,6.437c-0.708,1.596-0.93,3.296-0.719,5.025
		c0.44,3.624,2.283,6.329,5.478,8.097c1.148,0.635,2.39,0.999,3.695,1.141c0.053,0.006,0.104,0.026,0.156,0.04
		c-3.154,0-6.308,0-9.464,0c0-6.93,0-13.86,0-20.795c6.932,0,13.865,0,20.798,0C609.841,46.09,609.841,49.135,609.841,52.181z"/>
	<path display="none" fill="#FFFFFF" d="M600.537,63.841c0.305-0.053,0.611-0.101,0.914-0.16c2.503-0.49,4.557-1.731,6.162-3.708
		c1.173-1.445,1.879-3.101,2.173-4.936c0.016-0.099,0.036-0.197,0.055-0.296c0,3.033,0,6.067,0,9.1
		C606.74,63.841,603.639,63.841,600.537,63.841z"/>
	<path display="none" fill="#FFFFFF" d="M606.229,59.135c-0.154-0.163-0.294-0.32-0.441-0.468c-0.745-0.748-1.491-1.496-2.24-2.24
		c-0.395-0.393-0.893-0.397-1.228-0.017c-0.227,0.257-0.254,0.654-0.056,0.94c0.061,0.088,0.136,0.168,0.213,0.245
		c0.827,0.829,1.655,1.657,2.485,2.484c0.052,0.052,0.12,0.088,0.183,0.134c-3.321,2.859-8.609,2.805-11.885-0.558
		c1.735-1.33,3.469-2.658,5.197-3.982c0.627,0.631,1.246,1.254,1.874,1.886c0.47-0.453,0.818-0.937,1.05-1.499
		c0.293-0.712,0.358-1.454,0.23-2.21c-0.023-0.134,0.013-0.208,0.118-0.288c1.246-0.944,2.489-1.893,3.732-2.841
		c0.309-0.236,0.389-0.465,0.251-0.726c-0.04-0.076-0.098-0.147-0.159-0.208c-0.813-0.815-1.625-1.63-2.442-2.441
		c-0.339-0.336-0.597-0.318-0.896,0.06c-0.977,1.238-1.952,2.478-2.922,3.721c-0.093,0.119-0.176,0.164-0.337,0.142
		c-1.406-0.195-2.597,0.24-3.596,1.251c0.625,0.625,1.246,1.245,1.879,1.878c-1.34,1.749-2.667,3.483-3.995,5.218
		c-2.966-2.842-3.572-8.09-0.501-11.745c0.053,0.05,0.107,0.098,0.158,0.149c0.809,0.809,1.618,1.619,2.428,2.427
		c0.326,0.325,0.657,0.392,1.008,0.212c0.412-0.211,0.549-0.747,0.285-1.129c-0.057-0.083-0.128-0.158-0.199-0.23
		c-0.798-0.8-1.598-1.6-2.398-2.399c-0.052-0.052-0.1-0.106-0.15-0.159c3.006-2.635,8.239-3.059,11.831,0.493
		C609.182,50.675,609.004,55.916,606.229,59.135z"/>
</g>
<g display="none">
	<path fill="#FFFFFF" d="M609.834,63.841c-6.929,0-13.86,0-20.793,0c0-6.931,0-13.862,0-20.796c6.928,0,13.858,0,20.793,0
		C609.834,49.974,609.834,56.907,609.834,63.841z M592.741,51.987c0.983,0.983,1.948,1.952,2.92,2.914
		c0.127,0.125,0.133,0.202,0.023,0.345c-2.108,2.742-4.21,5.488-6.313,8.234c-0.042,0.055-0.081,0.113-0.122,0.17
		c0.011,0.01,0.022,0.02,0.033,0.03c2.858-2.189,5.717-4.379,8.604-6.59c1.035,1.035,2.052,2.053,3.081,3.082
		c0.195-0.222,0.399-0.438,0.587-0.668c0.796-0.974,1.315-2.07,1.47-3.331c0.087-0.705,0.057-1.405-0.058-2.102
		c-0.025-0.155,0.019-0.243,0.143-0.337c1.79-1.358,3.577-2.721,5.363-4.084c0.344-0.263,0.697-0.517,1.019-0.805
		c0.344-0.307,0.364-0.766,0.085-1.135c-0.065-0.086-0.142-0.164-0.218-0.24c-1.306-1.307-2.613-2.614-3.922-3.92
		c-0.091-0.09-0.185-0.18-0.29-0.252c-0.3-0.205-0.644-0.193-0.919,0.039c-0.118,0.099-0.218,0.222-0.314,0.344
		c-1.607,2.043-3.214,4.086-4.815,6.133c-0.091,0.116-0.178,0.159-0.323,0.138c-0.665-0.099-1.332-0.124-2.003-0.045
		C595.176,50.095,593.878,50.858,592.741,51.987z"/>
	<path display="inline" d="M87.844,220.454c28.245-28.073,60.488-47.015,100.164-51.665c16.658-1.952,33.235-1.322,49.765,1.13
		c3.592,0.533,5.76-0.535,8.019-3.423c39.799-50.859,79.713-101.628,119.648-152.38c2.381-3.026,4.878-6.072,7.8-8.541
		c6.827-5.768,15.378-6.071,22.829-0.977c2.615,1.787,4.963,4.023,7.216,6.271c32.506,32.44,64.98,64.913,97.443,97.397
		c1.899,1.9,3.797,3.841,5.416,5.975c6.937,9.148,6.441,20.561-2.112,28.189c-8.011,7.145-16.77,13.466-25.319,19.992
		c-44.38,33.876-88.773,67.735-133.257,101.472c-3.072,2.33-4.177,4.51-3.545,8.37c2.836,17.327,3.591,34.707,1.431,52.232
		c-3.859,31.311-16.749,58.55-36.537,82.755c-4.669,5.711-9.736,11.097-14.593,16.602c-25.578-25.588-50.852-50.871-76.559-76.587
		C143.93,402.201,72.906,456.6,1.882,511c-0.273-0.252-0.546-0.503-0.819-0.755c1.009-1.409,1.978-2.847,3.031-4.222
		c52.254-68.222,104.485-136.461,156.862-204.588c2.737-3.56,2.586-5.465-0.562-8.578
		C136.241,268.965,112.275,244.883,87.844,220.454z"/>
</g>
<g display="none">
	<path fill="#FFFFFF" d="M609.834,63.841c-6.929,0-13.86,0-20.793,0c0-6.931,0-13.862,0-20.796c6.928,0,13.858,0,20.793,0
		C609.834,49.974,609.834,56.907,609.834,63.841z M609.762,48.248c0.004-0.318-0.171-0.545-0.382-0.755
		c-1.322-1.321-2.643-2.642-3.965-3.963c-0.072-0.072-0.146-0.142-0.227-0.203c-0.332-0.247-0.716-0.226-1.014,0.059
		c-0.107,0.102-0.2,0.22-0.292,0.337c-1.598,2.032-3.195,4.066-4.793,6.099c-0.136,0.173-0.334,0.19-0.501,0.041
		c-0.045-0.04-0.087-0.086-0.13-0.129c-1.972-1.972-3.945-3.945-5.918-5.916c-0.09-0.09-0.189-0.176-0.296-0.245
		c-0.383-0.251-0.927-0.083-1.111,0.337c-0.155,0.353-0.073,0.67,0.26,1.003c5.524,5.524,11.048,11.049,16.574,16.572
		c0.081,0.081,0.17,0.156,0.265,0.219c0.378,0.251,0.933,0.086,1.116-0.328c0.161-0.365,0.087-0.664-0.25-1.002
		c-1.967-1.968-3.935-3.935-5.903-5.903c-0.048-0.048-0.099-0.093-0.142-0.145c-0.143-0.176-0.11-0.461,0.067-0.595
		c0.754-0.574,1.508-1.148,2.261-1.723c1.308-0.997,2.616-1.995,3.924-2.992C609.56,48.822,609.765,48.597,609.762,48.248z
		 M589.249,63.646c0.011,0.012,0.022,0.023,0.033,0.035c2.859-2.189,5.717-4.379,8.607-6.593c1.034,1.037,2.05,2.055,3.068,3.076
		c0.531-0.534,0.985-1.127,1.348-1.791c0.088-0.16,0.089-0.252-0.05-0.391c-2.441-2.43-4.876-4.868-7.312-7.304
		c-0.034-0.034-0.062-0.079-0.102-0.097c-0.046-0.021-0.115-0.042-0.154-0.023c-0.724,0.365-1.366,0.843-1.97,1.46
		c0.065,0.045,0.128,0.075,0.175,0.122c0.92,0.917,1.836,1.839,2.761,2.752c0.133,0.131,0.142,0.208,0.025,0.361
		c-2.108,2.74-4.209,5.486-6.311,8.231C589.327,63.538,589.288,63.592,589.249,63.646z"/>
	<path display="inline" d="M510.865,127.517c0.059,8.67-5.035,14.259-11.398,19.11c-32.502,24.776-64.994,49.565-97.495,74.342
		c-18.725,14.275-37.462,28.533-56.191,42.803c-4.388,3.344-5.216,10.416-1.667,14.795c1.054,1.3,2.337,2.416,3.526,3.605
		c48.892,48.894,97.788,97.782,146.673,146.683c8.39,8.393,10.217,15.828,6.218,24.901c-4.533,10.285-18.333,14.402-27.724,8.155
		c-2.361-1.57-4.584-3.43-6.591-5.436C328.919,319.23,191.65,181.958,54.382,44.685c-8.277-8.278-10.3-16.146-6.458-24.93
		C52.493,9.307,66.022,5.124,75.537,11.37c2.646,1.737,5.1,3.857,7.345,6.099c49.045,48.978,98.049,97.998,147.061,147.009
		c1.071,1.071,2.096,2.192,3.226,3.196c4.159,3.693,9.07,3.278,12.455-1.03c39.696-50.52,79.382-101.047,119.1-151.549
		c2.282-2.902,4.605-5.824,7.262-8.369c7.409-7.097,16.96-7.605,25.205-1.472c2.014,1.498,3.859,3.254,5.64,5.033
		c32.855,32.811,65.682,65.651,98.533,98.465C506.599,113.98,510.956,119.609,510.865,127.517z"/>
	<path display="inline" d="M1.133,510.139c0.979-1.333,1.935-2.683,2.94-3.996c52.24-68.204,104.448-136.434,156.827-204.531
		c2.916-3.791,2.691-5.702-0.62-8.97c-22.983-22.68-45.735-45.593-68.605-68.388c-1.166-1.163-2.733-1.923-4.345-3.03
		c15.022-15.334,30.962-27.211,48.954-36.288c0.96-0.484,2.675,0.035,3.821,0.56c1.004,0.459,1.704,1.584,2.536,2.416
		c60.53,60.529,121.022,121.097,181.688,181.489c3.471,3.455,3.432,5.742,1.252,9.723c-9.033,16.495-20.313,31.221-33.504,44.495
		c-25.316-25.379-50.553-50.679-76.245-76.435C144.019,402.19,72.989,456.595,1.958,511C1.683,510.713,1.408,510.426,1.133,510.139z
		"/>
</g>
</svg>
