<?xml version="1.0" encoding="utf-8"?>
<!-- Generator: Adobe Illustrator 17.0.0, SVG Export Plug-In . SVG Version: 6.00 Build 0)  -->
<!DOCTYPE svg PUBLIC "-//W3C//DTD SVG 1.1//EN" "http://www.w3.org/Graphics/SVG/1.1/DTD/svg11.dtd">
<svg version="1.1" id="Layer_1" xmlns="http://www.w3.org/2000/svg" xmlns:xlink="http://www.w3.org/1999/xlink" x="0px" y="0px"
	 width="512px" height="512px" viewBox="0 0 512 512" enable-background="new 0 0 512 512" xml:space="preserve">
<g>
	<line fill="none" stroke="#B35047" x1="32" y1="0" x2="32" y2="512"/>
	<line fill="none" stroke="#B35047" x1="64" y1="0" x2="64" y2="512"/>
	<line fill="none" stroke="#B35047" x1="96" y1="0" x2="96" y2="512"/>
	<line fill="none" stroke="#B35047" x1="128" y1="0" x2="128" y2="512"/>
	<line fill="none" stroke="#B35047" x1="160" y1="0" x2="160" y2="512"/>
	<line fill="none" stroke="#B35047" x1="192" y1="0" x2="192" y2="512"/>
	<line fill="none" stroke="#B35047" x1="224" y1="0" x2="224" y2="512"/>
	<line fill="none" stroke="#B35047" x1="256" y1="0" x2="256" y2="512"/>
	<line fill="none" stroke="#B35047" x1="288" y1="0" x2="288" y2="512"/>
	<line fill="none" stroke="#B35047" x1="320" y1="0" x2="320" y2="512"/>
	<line fill="none" stroke="#B35047" x1="352" y1="0" x2="352" y2="512"/>
	<line fill="none" stroke="#B35047" x1="384" y1="0" x2="384" y2="512"/>
	<line fill="none" stroke="#B35047" x1="416" y1="0" x2="416" y2="512"/>
	<line fill="none" stroke="#B35047" x1="448" y1="0" x2="448" y2="512"/>
	<line fill="none" stroke="#B35047" x1="480" y1="0" x2="480" y2="512"/>
	<line fill="none" stroke="#B35047" x1="0" y1="32" x2="512" y2="32"/>
	<line fill="none" stroke="#B35047" x1="0" y1="64" x2="512" y2="64"/>
	<line fill="none" stroke="#B35047" x1="0" y1="96" x2="512" y2="96"/>
	<line fill="none" stroke="#B35047" x1="0" y1="128" x2="512" y2="128"/>
	<line fill="none" stroke="#B35047" x1="0" y1="160" x2="512" y2="160"/>
	<line fill="none" stroke="#B35047" x1="0" y1="192" x2="512" y2="192"/>
	<line fill="none" stroke="#B35047" x1="0" y1="224" x2="512" y2="224"/>
	<line fill="none" stroke="#B35047" x1="0" y1="256" x2="512" y2="256"/>
	<line fill="none" stroke="#B35047" x1="0" y1="288" x2="512" y2="288"/>
	<line fill="none" stroke="#B35047" x1="0" y1="320" x2="512" y2="320"/>
	<line fill="none" stroke="#B35047" x1="0" y1="352" x2="512" y2="352"/>
	<line fill="none" stroke="#B35047" x1="0" y1="384" x2="512" y2="384"/>
	<line fill="none" stroke="#B35047" x1="0" y1="416" x2="512" y2="416"/>
	<line fill="none" stroke="#B35047" x1="0" y1="448" x2="512" y2="448"/>
	<line fill="none" stroke="#B35047" x1="0" y1="480" x2="512" y2="480"/>
	<rect x="0" fill="none" stroke="#B35047" width="512" height="512"/>
</g>
<image display="none" overflow="visible" width="512" height="512" xlink:href="../../../Knowledge/Icon/[+++++] (Full) Windows 8 Icons [icons8]/System/save_as/save_as-512.png"  transform="matrix(0.0406 0 0 0.0406 589 43)">
</image>
<image display="none" overflow="visible" width="512" height="512" xlink:href="../../../Knowledge/Icon/[+++++] (Full) Windows 8 Icons [icons8]/System/save/save-512.png"  transform="matrix(0.0406 0 0 0.0406 589 43)">
</image>
<image display="none" overflow="visible" width="512" height="512" xlink:href="../../../Knowledge/Icon/[+++++] (Full) Windows 8 Icons [icons8]/System/public/public-512.png"  transform="matrix(0.0406 0 0 0.0406 589 43)">
</image>
<image display="none" overflow="visible" width="512" height="512" xlink:href="../../../Knowledge/Icon/[+++++] (Full) Windows 8 Icons [icons8]/System/private/private-512.png"  transform="matrix(0.0406 0 0 0.0406 589 43)">
</image>
<image display="none" overflow="visible" width="512" height="512" xlink:href="../../../Knowledge/Icon/[+++++] (Full) Windows 8 Icons [icons8]/System/pin2/pin2-512.png"  transform="matrix(0.0406 0 0 0.0406 589 43)">
</image>
<image display="none" overflow="visible" width="512" height="512" xlink:href="../../../Knowledge/Icon/[+++++] (Full) Windows 8 Icons [icons8]/System/pin/pin-512.png"  transform="matrix(0.0406 0 0 0.0406 589 43)">
</image>
<image display="none" overflow="visible" width="512" height="512" xlink:href="../../../Knowledge/Icon/[+++++] (Full) Windows 8 Icons [icons8]/System/logout/logout-512.png"  transform="matrix(0.0406 0 0 0.0406 589 43)">
</image>
<image display="none" overflow="visible" width="512" height="512" xlink:href="../../../Knowledge/Icon/[+++++] (Full) Windows 8 Icons [icons8]/System/login/login-512.png"  transform="matrix(0.0406 0 0 0.0406 589 43)">
</image>
<image display="none" overflow="visible" width="512" height="512" xlink:href="../../../Knowledge/Icon/[+++++] (Full) Windows 8 Icons [icons8]/System/help/help-512.png"  transform="matrix(0.0406 0 0 0.0406 589 43)">
</image>
<image display="none" overflow="visible" width="512" height="512" xlink:href="../../../Knowledge/Icon/[+++++] (Full) Windows 8 Icons [icons8]/System/error/error-512.png"  transform="matrix(0.0406 0 0 0.0406 589 43)">
</image>
<image display="none" overflow="visible" width="512" height="512" xlink:href="../../../Knowledge/Icon/[+++++] (Full) Windows 8 Icons [icons8]/System/delete/delete-512.png"  transform="matrix(0.0406 0 0 0.0406 589 43)">
</image>
<image display="none" overflow="visible" width="512" height="512" xlink:href="../../../Knowledge/Icon/[+++++] (Full) Windows 8 Icons [icons8]/System/dashboard/dashboard-512.png"  transform="matrix(0.0406 0 0 0.0406 589 43)">
</image>
<image display="none" overflow="visible" width="512" height="512" xlink:href="../../../Knowledge/Icon/[+++++] (Full) Windows 8 Icons [icons8]/System/unpin2/unpin2-512.png"  transform="matrix(0.0406 0 0 0.0406 589 43)">
</image>
<g>
	<path display="none" fill="#FFFFFF" d="M609.834,63.841c-6.929,0-13.86,0-20.793,0c0-6.931,0-13.862,0-20.796
		c6.928,0,13.858,0,20.793,0C609.834,49.974,609.834,56.907,609.834,63.841z M609.762,48.248c0.004-0.318-0.171-0.545-0.382-0.755
		c-1.322-1.321-2.643-2.642-3.965-3.963c-0.072-0.072-0.146-0.142-0.227-0.203c-0.332-0.247-0.716-0.226-1.014,0.059
		c-0.107,0.102-0.2,0.22-0.292,0.337c-1.598,2.032-3.195,4.066-4.793,6.099c-0.136,0.173-0.334,0.19-0.501,0.041
		c-0.045-0.04-0.087-0.086-0.13-0.129c-1.972-1.972-3.945-3.945-5.918-5.916c-0.09-0.09-0.189-0.176-0.296-0.245
		c-0.383-0.251-0.927-0.083-1.111,0.337c-0.155,0.353-0.073,0.67,0.26,1.003c5.524,5.524,11.048,11.049,16.574,16.572
		c0.081,0.081,0.17,0.156,0.265,0.219c0.378,0.251,0.933,0.086,1.116-0.328c0.161-0.365,0.087-0.664-0.25-1.002
		c-1.967-1.968-3.935-3.935-5.903-5.903c-0.048-0.048-0.099-0.093-0.142-0.145c-0.143-0.176-0.11-0.461,0.067-0.595
		c0.754-0.574,1.508-1.148,2.261-1.723c1.308-0.997,2.616-1.995,3.924-2.992C609.56,48.822,609.765,48.597,609.762,48.248z
		 M589.249,63.646c0.011,0.012,0.022,0.023,0.033,0.035c2.859-2.189,5.717-4.379,8.607-6.593c1.034,1.037,2.05,2.055,3.068,3.076
		c0.531-0.534,0.985-1.127,1.348-1.791c0.088-0.16,0.089-0.252-0.05-0.391c-2.441-2.43-4.876-4.868-7.312-7.304
		c-0.034-0.034-0.062-0.079-0.102-0.097c-0.046-0.021-0.115-0.042-0.154-0.023c-0.724,0.365-1.366,0.843-1.97,1.46
		c0.065,0.045,0.128,0.075,0.175,0.122c0.92,0.917,1.836,1.839,2.761,2.752c0.133,0.131,0.142,0.208,0.025,0.361
		c-2.108,2.74-4.209,5.486-6.311,8.231C589.327,63.538,589.288,63.592,589.249,63.646z"/>
	<path d="M510.865,127.517c0.059,8.67-5.035,14.259-11.398,19.11c-32.502,24.776-64.994,49.565-97.495,74.342
		c-18.725,14.275-37.462,28.533-56.191,42.803c-4.388,3.344-5.216,10.416-1.667,14.795c1.054,1.3,2.337,2.416,3.526,3.605
		c48.892,48.894,97.788,97.782,146.673,146.683c8.39,8.393,10.217,15.828,6.218,24.901c-4.533,10.285-18.333,14.402-27.724,8.155
		c-2.361-1.57-4.584-3.43-6.591-5.436C328.919,319.23,191.65,181.958,54.382,44.685c-8.277-8.278-10.3-16.146-6.458-24.93
		C52.493,9.307,66.022,5.124,75.537,11.37c2.646,1.737,5.1,3.857,7.345,6.099c49.045,48.978,98.049,97.998,147.061,147.009
		c1.071,1.071,2.096,2.192,3.226,3.196c4.159,3.693,9.07,3.278,12.455-1.03c39.696-50.52,79.382-101.047,119.1-151.549
		c2.282-2.902,4.605-5.824,7.262-8.369c7.409-7.097,16.96-7.605,25.205-1.472c2.014,1.498,3.859,3.254,5.64,5.033
		c32.855,32.811,65.682,65.651,98.533,98.465C506.599,113.98,510.956,119.609,510.865,127.517z"/>
	<path d="M1.133,510.139c0.979-1.333,1.935-2.683,2.94-3.996c52.24-68.204,104.448-136.434,156.827-204.531
		c2.916-3.791,2.691-5.702-0.62-8.97c-22.983-22.68-45.735-45.593-68.605-68.388c-1.166-1.163-2.733-1.923-4.345-3.03
		c15.022-15.334,30.962-27.211,48.954-36.288c0.96-0.484,2.675,0.035,3.821,0.56c1.004,0.459,1.704,1.584,2.536,2.416
		c60.53,60.529,121.022,121.097,181.688,181.489c3.471,3.455,3.432,5.742,1.252,9.723c-9.033,16.495-20.313,31.221-33.504,44.495
		c-25.316-25.379-50.553-50.679-76.245-76.435C144.019,402.19,72.989,456.595,1.958,511C1.683,510.713,1.408,510.426,1.133,510.139z
		"/>
</g>
</svg>
