<?xml version="1.0" encoding="utf-8"?>
<!-- Generator: Adobe Illustrator 17.0.0, SVG Export Plug-In . SVG Version: 6.00 Build 0)  -->
<!DOCTYPE svg PUBLIC "-//W3C//DTD SVG 1.1//EN" "http://www.w3.org/Graphics/SVG/1.1/DTD/svg11.dtd">
<svg version="1.1" id="Layer_1" xmlns="http://www.w3.org/2000/svg" xmlns:xlink="http://www.w3.org/1999/xlink" x="0px" y="0px"
	 width="512px" height="512px" viewBox="0 0 512 512" enable-background="new 0 0 512 512" xml:space="preserve">
<g display="none">
	<path fill="#FFFFFF" d="M609.841,63.839c-6.931,0-13.861,0-20.796,0c0-6.928,0-13.857,0-20.792c6.929,0,13.863,0,20.796,0
		C609.841,49.975,609.841,56.906,609.841,63.839z M599.437,56.168c0.095,0.122,0.139,0.192,0.196,0.249
		c1.306,1.308,2.613,2.615,3.92,3.921c0.423,0.423,0.853,0.424,1.274,0.005c0.499-0.497,0.997-0.995,1.494-1.493
		c0.449-0.449,0.448-0.866-0.004-1.318c-1.307-1.307-2.614-2.614-3.92-3.922c-0.055-0.055-0.107-0.113-0.183-0.193
		c0.078-0.063,0.14-0.106,0.192-0.158c1.313-1.311,2.625-2.622,3.936-3.934c0.419-0.419,0.418-0.855-0.002-1.275
		c-0.493-0.494-0.987-0.985-1.481-1.478c-0.465-0.464-0.87-0.466-1.33-0.005c-1.307,1.307-2.614,2.613-3.922,3.92
		c-0.052,0.052-0.106,0.101-0.168,0.159c-0.062-0.059-0.116-0.107-0.168-0.159c-1.302-1.302-2.604-2.604-3.907-3.906
		c-0.48-0.48-0.874-0.478-1.359,0.006c-0.479,0.478-0.958,0.957-1.437,1.436c-0.461,0.462-0.462,0.871-0.001,1.332
		c1.302,1.302,2.604,2.604,3.906,3.907c0.056,0.056,0.109,0.115,0.171,0.18c-0.062,0.064-0.111,0.118-0.163,0.17
		c-1.316,1.317-2.633,2.633-3.949,3.95c-0.411,0.412-0.412,0.85-0.003,1.26c0.497,0.498,0.997,0.995,1.496,1.492
		c0.462,0.46,0.867,0.458,1.331-0.006c1.303-1.302,2.606-2.603,3.907-3.906C599.318,56.35,599.354,56.282,599.437,56.168z"/>
	<path display="inline" d="M599.437,56.168c-0.082,0.114-0.119,0.182-0.171,0.234c-1.301,1.303-2.604,2.605-3.907,3.906
		c-0.464,0.464-0.87,0.465-1.331,0.006c-0.499-0.497-0.998-0.993-1.496-1.492c-0.409-0.41-0.409-0.848,0.003-1.26
		c1.316-1.317,2.633-2.633,3.949-3.95c0.052-0.052,0.102-0.106,0.163-0.17c-0.062-0.065-0.115-0.124-0.171-0.18
		c-1.302-1.302-2.604-2.604-3.906-3.907c-0.461-0.461-0.46-0.87,0.001-1.332c0.479-0.479,0.958-0.957,1.437-1.436
		c0.485-0.485,0.878-0.487,1.359-0.006c1.302,1.302,2.604,2.604,3.907,3.906c0.052,0.052,0.106,0.1,0.168,0.159
		c0.062-0.059,0.116-0.108,0.168-0.159c1.307-1.307,2.614-2.613,3.922-3.92c0.46-0.46,0.865-0.458,1.33,0.005
		c0.494,0.492,0.988,0.984,1.481,1.478c0.419,0.42,0.421,0.856,0.002,1.275c-1.311,1.312-2.623,2.624-3.936,3.934
		c-0.052,0.052-0.115,0.095-0.192,0.158c0.076,0.08,0.128,0.138,0.183,0.193c1.307,1.307,2.614,2.614,3.92,3.922
		c0.451,0.452,0.453,0.869,0.004,1.318c-0.498,0.498-0.995,0.996-1.494,1.493c-0.421,0.419-0.85,0.418-1.274-0.005
		c-1.308-1.306-2.615-2.613-3.92-3.921C599.576,56.36,599.532,56.29,599.437,56.168z"/>
</g>
<g>
	<line fill="none" stroke="#B35047" x1="32" y1="0" x2="32" y2="512"/>
	<line fill="none" stroke="#B35047" x1="64" y1="0" x2="64" y2="512"/>
	<line fill="none" stroke="#B35047" x1="96" y1="0" x2="96" y2="512"/>
	<line fill="none" stroke="#B35047" x1="128" y1="0" x2="128" y2="512"/>
	<line fill="none" stroke="#B35047" x1="160" y1="0" x2="160" y2="512"/>
	<line fill="none" stroke="#B35047" x1="192" y1="0" x2="192" y2="512"/>
	<line fill="none" stroke="#B35047" x1="224" y1="0" x2="224" y2="512"/>
	<line fill="none" stroke="#B35047" x1="256" y1="0" x2="256" y2="512"/>
	<line fill="none" stroke="#B35047" x1="288" y1="0" x2="288" y2="512"/>
	<line fill="none" stroke="#B35047" x1="320" y1="0" x2="320" y2="512"/>
	<line fill="none" stroke="#B35047" x1="352" y1="0" x2="352" y2="512"/>
	<line fill="none" stroke="#B35047" x1="384" y1="0" x2="384" y2="512"/>
	<line fill="none" stroke="#B35047" x1="416" y1="0" x2="416" y2="512"/>
	<line fill="none" stroke="#B35047" x1="448" y1="0" x2="448" y2="512"/>
	<line fill="none" stroke="#B35047" x1="480" y1="0" x2="480" y2="512"/>
	<line fill="none" stroke="#B35047" x1="0" y1="32" x2="512" y2="32"/>
	<line fill="none" stroke="#B35047" x1="0" y1="64" x2="512" y2="64"/>
	<line fill="none" stroke="#B35047" x1="0" y1="96" x2="512" y2="96"/>
	<line fill="none" stroke="#B35047" x1="0" y1="128" x2="512" y2="128"/>
	<line fill="none" stroke="#B35047" x1="0" y1="160" x2="512" y2="160"/>
	<line fill="none" stroke="#B35047" x1="0" y1="192" x2="512" y2="192"/>
	<line fill="none" stroke="#B35047" x1="0" y1="224" x2="512" y2="224"/>
	<line fill="none" stroke="#B35047" x1="0" y1="256" x2="512" y2="256"/>
	<line fill="none" stroke="#B35047" x1="0" y1="288" x2="512" y2="288"/>
	<line fill="none" stroke="#B35047" x1="0" y1="320" x2="512" y2="320"/>
	<line fill="none" stroke="#B35047" x1="0" y1="352" x2="512" y2="352"/>
	<line fill="none" stroke="#B35047" x1="0" y1="384" x2="512" y2="384"/>
	<line fill="none" stroke="#B35047" x1="0" y1="416" x2="512" y2="416"/>
	<line fill="none" stroke="#B35047" x1="0" y1="448" x2="512" y2="448"/>
	<line fill="none" stroke="#B35047" x1="0" y1="480" x2="512" y2="480"/>
	<rect x="0" fill="none" stroke="#B35047" width="512" height="512"/>
</g>
<g>
	<path display="none" fill="#FFFFFF" d="M617.834,131.841c-6.929,0-13.86,0-20.793,0c0-6.931,0-13.862,0-20.796
		c6.928,0,13.858,0,20.793,0C617.834,117.974,617.834,124.907,617.834,131.841z M608.21,120.537
		c0.117-0.037,0.194-0.052,0.263-0.084c2.127-0.973,4.252-1.948,6.378-2.922c0.23-0.105,0.253-0.176,0.116-0.384
		c-1.303-1.969-2.607-3.937-3.91-5.906c-0.044-0.066-0.08-0.138-0.12-0.207c-0.027,0.017-0.055,0.033-0.082,0.05
		c-0.031,0.071-0.069,0.14-0.092,0.214c-0.25,0.8-0.502,1.599-0.741,2.402c-0.049,0.164-0.114,0.212-0.282,0.183
		c-0.83-0.144-1.664-0.19-2.507-0.123c-1.348,0.108-2.601,0.499-3.726,1.252c-1.615,1.081-2.718,2.573-3.431,4.367
		c-0.017,0.043-0.017,0.093-0.033,0.189c0.101-0.076,0.162-0.116,0.217-0.164c0.639-0.558,1.329-1.046,2.068-1.462
		c1.375-0.775,2.829-1.246,4.431-1.147c0.734,0.045,1.449,0.16,2.132,0.447c0.145,0.061,0.186,0.124,0.14,0.286
		c-0.258,0.903-0.504,1.809-0.753,2.715C608.257,120.324,608.241,120.407,608.21,120.537z M606.413,122.417
		c-0.024-0.015-0.048-0.031-0.072-0.046c-0.067,0.025-0.136,0.047-0.201,0.077c-2.102,0.963-4.203,1.926-6.304,2.89
		c-0.237,0.109-0.24,0.118-0.096,0.336c1.301,1.962,2.602,3.924,3.904,5.885c0.039,0.059,0.085,0.114,0.155,0.207
		c0.043-0.115,0.074-0.186,0.096-0.26c0.247-0.8,0.498-1.6,0.735-2.403c0.048-0.162,0.111-0.215,0.281-0.185
		c0.816,0.141,1.637,0.188,2.466,0.122c1.227-0.099,2.379-0.435,3.43-1.078c1.587-0.971,2.695-2.359,3.456-4.039
		c0.088-0.193,0.162-0.392,0.243-0.589c-0.085,0.011-0.131,0.046-0.179,0.081c-0.663,0.478-1.298,1.001-1.994,1.426
		c-1.718,1.048-3.574,1.476-5.579,1.073c-0.409-0.082-0.811-0.194-1.185-0.406C605.854,124.466,606.134,123.441,606.413,122.417z"/>
	<path d="M277.22,234.769c0.75-3.196,1.158-5.237,1.709-7.24c6.124-22.278,12.158-44.582,18.516-66.793
		c1.139-3.98,0.127-5.527-3.447-7.029c-16.797-7.063-34.407-9.899-52.455-11.009c-39.431-2.425-75.2,9.153-109.02,28.219
		c-18.176,10.247-35.15,22.236-50.88,35.968c-1.341,1.171-2.842,2.159-5.334,4.034c0.403-2.367,0.401-3.592,0.821-4.648
		c17.545-44.129,44.673-80.852,84.409-107.438c27.674-18.515,58.503-28.141,91.667-30.796c20.723-1.659,41.247-0.523,61.662,3.018
		c4.136,0.718,5.733-0.465,6.93-4.496c5.868-19.756,12.083-39.409,18.227-59.082c0.565-1.81,1.496-3.506,2.257-5.255
		c0.675-0.408,1.349-0.815,2.024-1.223c0.978,1.697,1.868,3.452,2.947,5.082c32.054,48.438,64.133,96.858,96.186,145.297
		c3.382,5.11,2.816,6.846-2.843,9.44c-52.298,23.975-104.596,47.951-156.911,71.889C281.986,233.486,280.103,233.864,277.22,234.769
		z"/>
	<path d="M233.014,281.016c-6.879,25.207-13.759,50.414-20.74,75.993c9.216,5.205,19.093,7.961,29.164,9.987
		c49.323,9.922,94.977-0.604,137.239-26.388c17.115-10.442,32.751-23.306,49.058-35.071c1.165-0.841,2.314-1.705,4.396-1.981
		c-1.982,4.833-3.815,9.733-5.969,14.489c-18.726,41.337-45.976,75.481-85.016,99.364c-25.859,15.819-54.193,24.095-84.382,26.522
		c-20.387,1.639-40.579,0.468-60.663-2.997c-4.192-0.723-5.735,0.582-6.911,4.559c-5.842,19.763-12.011,39.429-18.093,59.121
		c-0.56,1.814-1.318,3.568-2.372,6.387c-1.724-2.293-2.848-3.64-3.812-5.092c-32.025-48.256-64.037-96.52-96.042-144.788
		c-3.544-5.345-3.485-5.576,2.354-8.254c51.688-23.709,103.38-47.407,155.079-71.091c1.6-0.733,3.291-1.267,4.939-1.894
		C231.833,280.259,232.423,280.638,233.014,281.016z"/>
</g>
<g display="none">
	<path fill="#FFFFFF" d="M597.041,126.234c0-5.065,0-10.129,0-15.194c6.933,0,13.867,0,20.8,0c0,5.065,0,10.129,0,15.194
		c-0.525,0-1.05,0-1.589,0c0,0.122,0,0.203,0,0.284c0,0.921,0,1.841,0,2.762c0,0.657-0.315,0.972-0.971,0.972
		c-5.227,0-10.453,0-15.68,0c-0.657,0-0.971-0.315-0.971-0.972c-0.001-0.928,0-1.855,0-2.783c0-0.078,0-0.157,0-0.263
		C598.08,126.234,597.56,126.234,597.041,126.234z M606.436,126.964c0.073,0.005,0.133,0.013,0.192,0.013
		c0.528,0.001,1.056-0.006,1.584,0.005c0.168,0.004,0.217-0.061,0.242-0.213c0.106-0.647,0.228-1.291,0.333-1.938
		c0.026-0.156,0.1-0.215,0.245-0.268c0.398-0.146,0.793-0.306,1.175-0.49c0.157-0.075,0.256-0.074,0.396,0.028
		c0.58,0.42,1.17,0.826,1.72,1.211c0.477-0.476,0.94-0.937,1.41-1.407c-0.412-0.572-0.836-1.166-1.267-1.756
		c-0.073-0.1-0.078-0.174-0.026-0.29c0.186-0.419,0.36-0.843,0.524-1.271c0.044-0.116,0.097-0.175,0.219-0.194
		c0.347-0.054,0.693-0.117,1.039-0.178c0.384-0.067,0.767-0.137,1.147-0.205c0-0.672,0-1.319,0-1.974
		c-0.738-0.122-1.464-0.246-2.192-0.358c-0.119-0.018-0.166-0.067-0.208-0.175c-0.169-0.433-0.346-0.863-0.534-1.289
		c-0.048-0.109-0.045-0.18,0.023-0.274c0.269-0.373,0.53-0.752,0.794-1.129c0.162-0.231,0.324-0.463,0.471-0.673
		c-0.474-0.475-0.933-0.934-1.4-1.401c-0.047,0.032-0.108,0.073-0.167,0.116c-0.539,0.387-1.078,0.772-1.614,1.163
		c-0.093,0.068-0.161,0.074-0.272,0.024c-0.424-0.191-0.852-0.373-1.287-0.538c-0.12-0.046-0.173-0.101-0.192-0.219
		c-0.042-0.267-0.09-0.533-0.137-0.799c-0.081-0.458-0.162-0.916-0.244-1.375c-0.668,0-1.315,0-1.965,0
		c-0.009,0.036-0.017,0.061-0.021,0.087c-0.108,0.66-0.222,1.32-0.321,1.982c-0.028,0.187-0.094,0.281-0.287,0.345
		c-0.396,0.132-0.78,0.301-1.16,0.475c-0.136,0.062-0.226,0.087-0.359-0.015c-0.337-0.26-0.69-0.5-1.037-0.748
		c-0.24-0.171-0.481-0.342-0.705-0.502c-0.475,0.476-0.933,0.935-1.399,1.401c0.017,0.025,0.042,0.065,0.068,0.103
		c0.391,0.56,0.78,1.123,1.176,1.679c0.074,0.103,0.067,0.175,0.016,0.288c-0.19,0.424-0.366,0.855-0.536,1.288
		c-0.041,0.104-0.076,0.167-0.201,0.183c-0.322,0.042-0.641,0.102-0.961,0.156c-0.404,0.068-0.808,0.138-1.209,0.206
		c0,0.67,0,1.317,0,1.966c0.064,0.016,0.116,0.033,0.169,0.042c0.639,0.112,1.278,0.228,1.918,0.333
		c0.162,0.027,0.244,0.084,0.302,0.256c0.14,0.407,0.311,0.805,0.496,1.195c0.072,0.151,0.065,0.244-0.031,0.375
		c-0.42,0.572-0.828,1.152-1.227,1.71c0.474,0.473,0.937,0.935,1.408,1.404c0.548-0.384,1.119-0.772,1.675-1.18
		c0.171-0.125,0.292-0.133,0.482-0.034c0.328,0.171,0.672,0.324,1.026,0.428c0.253,0.074,0.348,0.188,0.383,0.446
		C606.2,125.641,606.324,126.298,606.436,126.964z"/>
	<path display="inline" d="M1,372.704c12.74,0,25.48,0,38.949,0c0,2.608,0,4.532,0,6.456c0,22.742-0.012,45.484,0.004,68.226
		c0.012,16.111,7.713,23.825,23.819,23.826c128.152,0.008,256.304,0.008,384.455,0c16.106-0.001,23.807-7.715,23.819-23.826
		c0.017-22.576,0.004-45.152,0.004-67.728c0-1.978,0-3.956,0-6.954c13.215,0,26.082,0,38.949,0c0,28.223,0,56.445,0,84.668
		c-0.341,1.091-0.796,2.159-1.005,3.275c-4.298,22.956-17.568,38.317-39.398,46.286c-3.991,1.457-8.253,2.174-12.39,3.233
		c-134.805,0-269.609,0-404.414,0c-0.924-0.323-1.825-0.78-2.777-0.95c-23.416-4.179-38.98-17.626-46.924-39.923
		c-1.372-3.852-2.078-7.941-3.092-11.92C1,429.149,1,400.926,1,372.704z"/>
	<path fill="#FFFFFF" d="M597.041,129.687c0.041,0.162,0.07,0.329,0.126,0.486c0.324,0.909,0.959,1.458,1.914,1.628
		c0.039,0.007,0.076,0.026,0.113,0.039c-0.718,0-1.435,0-2.153,0C597.041,131.123,597.041,130.405,597.041,129.687z"/>
	<path fill="#FFFFFF" d="M615.688,131.841c0.169-0.043,0.342-0.072,0.505-0.132c0.89-0.325,1.432-0.951,1.607-1.888
		c0.008-0.045,0.027-0.089,0.041-0.134c0,0.718,0,1.435,0,2.153C617.123,131.841,616.405,131.841,615.688,131.841z"/>
	<path display="inline" d="M231.366,390.601c-2.736-16.339-5.796-32.44-7.965-48.661c-0.845-6.319-3.184-9.117-9.387-10.935
		c-8.676-2.543-17.107-6.296-25.148-10.484c-4.656-2.425-7.635-2.232-11.815,0.835c-13.63,9.999-27.62,19.509-41.066,28.923
		c-11.547-11.521-22.886-22.834-34.513-34.435c9.785-13.688,19.8-27.916,30.097-41.936c2.354-3.205,2.521-5.49,0.762-9.186
		c-4.542-9.542-8.749-19.302-12.171-29.29c-1.444-4.214-3.453-5.622-7.416-6.273c-15.698-2.581-31.357-5.404-47.026-8.162
		c-1.296-0.228-2.56-0.638-4.132-1.037c0-15.923,0-31.782,0-48.213c9.832-1.677,19.737-3.378,29.647-5.052
		c7.844-1.326,15.668-2.813,23.553-3.831c3.065-0.396,3.932-1.922,4.937-4.484c4.165-10.615,8.477-21.183,13.145-31.584
		c1.249-2.784,1.404-4.54-0.402-7.072c-9.727-13.641-19.253-27.425-28.844-41.164c-0.656-0.939-1.267-1.909-1.678-2.531
		c11.422-11.445,22.648-22.694,34.294-34.364c5.508,3.922,11.406,8.113,17.296,12.315c8.508,6.071,17.166,11.948,25.435,18.329
		c3.244,2.503,5.465,1.889,8.793,0.368c9.314-4.255,18.732-8.415,28.432-11.64c4.736-1.575,6.36-3.893,7.042-8.466
		c2.42-16.227,5.206-32.4,7.862-48.592c0.105-0.64,0.305-1.264,0.521-2.143c15.932,0,31.814,0,48.187,0
		c1.995,11.256,3.993,22.483,5.971,33.714c1.15,6.529,2.342,13.052,3.365,19.601c0.454,2.905,1.749,4.251,4.701,5.371
		c10.653,4.044,21.16,8.506,31.547,13.198c2.709,1.224,4.399,1.062,6.669-0.593c13.137-9.578,26.367-19.029,39.571-28.515
		c1.461-1.049,2.958-2.047,4.104-2.838c11.449,11.458,22.688,22.707,34.32,34.349c-3.61,5.153-7.585,10.823-11.556,16.495
		c-6.469,9.241-12.863,18.537-19.456,27.688c-1.671,2.319-1.739,4.058-0.562,6.725c4.604,10.427,8.944,20.978,13.085,31.598
		c1.034,2.652,2.178,3.847,5.106,4.3c17.843,2.763,35.645,5.795,53.743,8.784c0,16.075,0,31.937,0,48.413
		c-9.314,1.664-18.715,3.365-28.124,5.02c-8.488,1.493-16.971,3.024-25.485,4.353c-2.981,0.466-4.282,1.914-5.366,4.748
		c-4.014,10.49-8.279,20.896-12.845,31.157c-1.27,2.853-1.15,4.668,0.641,7.118c10.568,14.458,20.976,29.033,31.067,43.053
		c-11.539,11.51-22.874,22.816-34.579,34.491c-13.47-9.446-27.935-19.411-42.165-29.701c-3.432-2.481-5.859-2.525-9.712-0.676
		c-9.375,4.499-19.051,8.438-28.821,12.013c-3.551,1.299-5.379,2.739-6.003,6.571c-2.585,15.865-5.58,31.664-8.176,47.527
		c-0.613,3.744-1.822,5.316-5.93,5.23c-12.94-0.271-25.889-0.09-38.834-0.114C234.624,390.914,233.166,390.726,231.366,390.601z
		 M255.865,128.34c-37.703,0.112-67.939,30.466-67.859,68.123c0.08,37.682,30.431,67.912,68.12,67.85
		c37.687-0.062,67.931-30.426,67.842-68.111C323.879,158.494,293.505,128.228,255.865,128.34z"/>
	<path fill="#FFFFFF" d="M607.435,116.268c1.535-0.005,2.774,1.23,2.778,2.768c0.004,1.537-1.23,2.775-2.767,2.778
		c-1.537,0.003-2.775-1.23-2.778-2.767C604.664,117.511,605.897,116.273,607.435,116.268z"/>
</g>
<g display="none">
	<path fill="#FFFFFF" d="M609.309,111.041c2.841,0,5.683,0,8.531,0c0,5.065,0,10.129,0,15.194c-0.525,0-1.05,0-1.589,0
		c0,0.122,0,0.203,0,0.284c0,0.921,0,1.841,0,2.762c0,0.657-0.315,0.972-0.971,0.972c-5.227,0-10.453,0-15.68,0
		c-0.657,0-0.971-0.315-0.971-0.972c-0.001-0.928,0-1.855,0-2.783c0-0.078,0-0.157,0-0.263c-0.549,0-1.069,0-1.589,0
		c0-5.065,0-10.129,0-15.194c2.844,0,5.687,0,8.531,0c-0.212,0.062-0.431,0.107-0.635,0.19c-0.934,0.375-1.483,1.227-1.484,2.304
		c-0.003,2.031-0.003,4.061,0.003,6.092c0,0.176-0.044,0.231-0.226,0.23c-0.893-0.007-1.787-0.005-2.68,0.005
		c-0.173,0.002-0.349,0.038-0.518,0.081c-0.17,0.043-0.235,0.169-0.141,0.326c0.104,0.172,0.21,0.351,0.351,0.492
		c2.014,2.026,4.031,4.048,6.055,6.064c0.233,0.232,0.5,0.435,0.77,0.624c0.248,0.174,0.529,0.169,0.784,0.002
		c0.197-0.129,0.392-0.269,0.559-0.434c1.206-1.187,2.407-2.379,3.604-3.574c0.886-0.884,1.77-1.772,2.645-2.667
		c0.139-0.142,0.24-0.324,0.339-0.499c0.09-0.159,0.016-0.284-0.147-0.33c-0.161-0.046-0.33-0.082-0.497-0.084
		c-0.812-0.01-1.624-0.008-2.437-0.01c-0.487-0.001-0.487,0-0.487-0.49c0-1.943,0.003-3.885-0.001-5.828
		c-0.002-1.227-0.721-2.154-1.869-2.43C609.476,111.085,609.393,111.062,609.309,111.041z"/>
	<path display="inline" d="M301.82,1c2.047,0.529,4.086,1.09,6.141,1.582c28.152,6.748,45.775,29.495,45.834,59.57
		c0.093,47.632,0.026,95.265,0.027,142.897c0,12.002,0,11.985,11.934,12.005c19.915,0.035,39.832-0.018,59.745,0.233
		c4.074,0.051,8.231,0.936,12.173,2.058c3.991,1.136,5.805,4.199,3.596,8.092c-2.429,4.28-4.915,8.751-8.312,12.223
		c-21.47,21.945-43.127,43.71-64.862,65.394c-29.371,29.303-58.812,58.537-88.379,87.642c-4.097,4.034-8.885,7.467-13.71,10.635
		c-6.244,4.1-13.124,4.221-19.217-0.039c-6.628-4.635-13.175-9.602-18.89-15.295c-49.62-49.425-99.08-99.011-148.453-148.682
		c-3.44-3.461-6.058-7.837-8.599-12.064c-2.315-3.852-0.715-6.926,3.458-7.989c4.138-1.053,8.447-1.937,12.691-1.983
		c21.905-0.238,43.814-0.309,65.72-0.127c4.462,0.037,5.561-1.315,5.549-5.635c-0.139-49.789-0.142-99.58-0.064-149.369
		c0.042-26.411,13.486-47.3,36.394-56.504C199.605,3.635,204.976,2.525,210.18,1C240.727,1,271.273,1,301.82,1z"/>
	<path display="inline" d="M1,373.539c12.74,0,25.48,0,38.949,0c0,2.608,0,4.532,0,6.456c0,22.742-0.012,45.484,0.004,68.226
		c0.012,16.111,7.713,23.825,23.819,23.826c128.152,0.008,256.304,0.008,384.455,0c16.106-0.001,23.807-7.715,23.819-23.826
		c0.017-22.576,0.004-45.152,0.004-67.728c0-1.978,0-3.956,0-6.954c13.215,0,26.082,0,38.949,0c0,28.223,0,56.445,0,84.668
		c-0.341,1.091-0.796,2.159-1.005,3.275c-4.298,22.956-17.568,38.317-39.398,46.286c-3.991,1.457-8.253,2.174-12.39,3.233
		c-134.805,0-269.609,0-404.414,0c-0.924-0.323-1.825-0.78-2.777-0.95c-23.416-4.179-38.98-17.626-46.924-39.923
		c-1.372-3.852-2.078-7.941-3.092-11.92C1,429.984,1,401.762,1,373.539z"/>
	<path fill="#FFFFFF" d="M597.041,129.687c0.041,0.162,0.07,0.329,0.126,0.486c0.324,0.909,0.959,1.458,1.914,1.628
		c0.039,0.007,0.076,0.026,0.113,0.039c-0.718,0-1.435,0-2.153,0C597.041,131.123,597.041,130.405,597.041,129.687z"/>
	<path fill="#FFFFFF" d="M615.688,131.841c0.169-0.043,0.342-0.072,0.505-0.132c0.89-0.325,1.432-0.951,1.607-1.888
		c0.008-0.045,0.027-0.089,0.041-0.134c0,0.718,0,1.435,0,2.153C617.123,131.841,616.405,131.841,615.688,131.841z"/>
</g>
</svg>
