<?xml version="1.0" encoding="utf-8"?>
<!-- Generator: Adobe Illustrator 17.0.0, SVG Export Plug-In . SVG Version: 6.00 Build 0)  -->
<!DOCTYPE svg PUBLIC "-//W3C//DTD SVG 1.1//EN" "http://www.w3.org/Graphics/SVG/1.1/DTD/svg11.dtd">
<svg version="1.1" id="Layer_1" xmlns="http://www.w3.org/2000/svg" xmlns:xlink="http://www.w3.org/1999/xlink" x="0px" y="0px"
	 width="512px" height="512px" viewBox="0 0 512 512" enable-background="new 0 0 512 512" xml:space="preserve">
<g display="none">
	<path fill="#FFFFFF" d="M609.841,63.839c-6.931,0-13.861,0-20.796,0c0-6.928,0-13.857,0-20.792c6.929,0,13.863,0,20.796,0
		C609.841,49.975,609.841,56.906,609.841,63.839z M599.437,56.168c0.095,0.122,0.139,0.192,0.196,0.249
		c1.306,1.308,2.613,2.615,3.92,3.921c0.423,0.423,0.853,0.424,1.274,0.005c0.499-0.497,0.997-0.995,1.494-1.493
		c0.449-0.449,0.448-0.866-0.004-1.318c-1.307-1.307-2.614-2.614-3.92-3.922c-0.055-0.055-0.107-0.113-0.183-0.193
		c0.078-0.063,0.14-0.106,0.192-0.158c1.313-1.311,2.625-2.622,3.936-3.934c0.419-0.419,0.418-0.855-0.002-1.275
		c-0.493-0.494-0.987-0.985-1.481-1.478c-0.465-0.464-0.87-0.466-1.33-0.005c-1.307,1.307-2.614,2.613-3.922,3.92
		c-0.052,0.052-0.106,0.101-0.168,0.159c-0.062-0.059-0.116-0.107-0.168-0.159c-1.302-1.302-2.604-2.604-3.907-3.906
		c-0.48-0.48-0.874-0.478-1.359,0.006c-0.479,0.478-0.958,0.957-1.437,1.436c-0.461,0.462-0.462,0.871-0.001,1.332
		c1.302,1.302,2.604,2.604,3.906,3.907c0.056,0.056,0.109,0.115,0.171,0.18c-0.062,0.064-0.111,0.118-0.163,0.17
		c-1.316,1.317-2.633,2.633-3.949,3.95c-0.411,0.412-0.412,0.85-0.003,1.26c0.497,0.498,0.997,0.995,1.496,1.492
		c0.462,0.46,0.867,0.458,1.331-0.006c1.303-1.302,2.606-2.603,3.907-3.906C599.318,56.35,599.354,56.282,599.437,56.168z"/>
	<path display="inline" d="M599.437,56.168c-0.082,0.114-0.119,0.182-0.171,0.234c-1.301,1.303-2.604,2.605-3.907,3.906
		c-0.464,0.464-0.87,0.465-1.331,0.006c-0.499-0.497-0.998-0.993-1.496-1.492c-0.409-0.41-0.409-0.848,0.003-1.26
		c1.316-1.317,2.633-2.633,3.949-3.95c0.052-0.052,0.102-0.106,0.163-0.17c-0.062-0.065-0.115-0.124-0.171-0.18
		c-1.302-1.302-2.604-2.604-3.906-3.907c-0.461-0.461-0.46-0.87,0.001-1.332c0.479-0.479,0.958-0.957,1.437-1.436
		c0.485-0.485,0.878-0.487,1.359-0.006c1.302,1.302,2.604,2.604,3.907,3.906c0.052,0.052,0.106,0.1,0.168,0.159
		c0.062-0.059,0.116-0.108,0.168-0.159c1.307-1.307,2.614-2.613,3.922-3.92c0.46-0.46,0.865-0.458,1.33,0.005
		c0.494,0.492,0.988,0.984,1.481,1.478c0.419,0.42,0.421,0.856,0.002,1.275c-1.311,1.312-2.623,2.624-3.936,3.934
		c-0.052,0.052-0.115,0.095-0.192,0.158c0.076,0.08,0.128,0.138,0.183,0.193c1.307,1.307,2.614,2.614,3.92,3.922
		c0.451,0.452,0.453,0.869,0.004,1.318c-0.498,0.498-0.995,0.996-1.494,1.493c-0.421,0.419-0.85,0.418-1.274-0.005
		c-1.308-1.306-2.615-2.613-3.92-3.921C599.576,56.36,599.532,56.29,599.437,56.168z"/>
</g>
<g>
	<line fill="none" stroke="#B35047" x1="32" y1="0" x2="32" y2="512"/>
	<line fill="none" stroke="#B35047" x1="64" y1="0" x2="64" y2="512"/>
	<line fill="none" stroke="#B35047" x1="96" y1="0" x2="96" y2="512"/>
	<line fill="none" stroke="#B35047" x1="128" y1="0" x2="128" y2="512"/>
	<line fill="none" stroke="#B35047" x1="160" y1="0" x2="160" y2="512"/>
	<line fill="none" stroke="#B35047" x1="192" y1="0" x2="192" y2="512"/>
	<line fill="none" stroke="#B35047" x1="224" y1="0" x2="224" y2="512"/>
	<line fill="none" stroke="#B35047" x1="256" y1="0" x2="256" y2="512"/>
	<line fill="none" stroke="#B35047" x1="288" y1="0" x2="288" y2="512"/>
	<line fill="none" stroke="#B35047" x1="320" y1="0" x2="320" y2="512"/>
	<line fill="none" stroke="#B35047" x1="352" y1="0" x2="352" y2="512"/>
	<line fill="none" stroke="#B35047" x1="384" y1="0" x2="384" y2="512"/>
	<line fill="none" stroke="#B35047" x1="416" y1="0" x2="416" y2="512"/>
	<line fill="none" stroke="#B35047" x1="448" y1="0" x2="448" y2="512"/>
	<line fill="none" stroke="#B35047" x1="480" y1="0" x2="480" y2="512"/>
	<line fill="none" stroke="#B35047" x1="0" y1="32" x2="512" y2="32"/>
	<line fill="none" stroke="#B35047" x1="0" y1="64" x2="512" y2="64"/>
	<line fill="none" stroke="#B35047" x1="0" y1="96" x2="512" y2="96"/>
	<line fill="none" stroke="#B35047" x1="0" y1="128" x2="512" y2="128"/>
	<line fill="none" stroke="#B35047" x1="0" y1="160" x2="512" y2="160"/>
	<line fill="none" stroke="#B35047" x1="0" y1="192" x2="512" y2="192"/>
	<line fill="none" stroke="#B35047" x1="0" y1="224" x2="512" y2="224"/>
	<line fill="none" stroke="#B35047" x1="0" y1="256" x2="512" y2="256"/>
	<line fill="none" stroke="#B35047" x1="0" y1="288" x2="512" y2="288"/>
	<line fill="none" stroke="#B35047" x1="0" y1="320" x2="512" y2="320"/>
	<line fill="none" stroke="#B35047" x1="0" y1="352" x2="512" y2="352"/>
	<line fill="none" stroke="#B35047" x1="0" y1="384" x2="512" y2="384"/>
	<line fill="none" stroke="#B35047" x1="0" y1="416" x2="512" y2="416"/>
	<line fill="none" stroke="#B35047" x1="0" y1="448" x2="512" y2="448"/>
	<line fill="none" stroke="#B35047" x1="0" y1="480" x2="512" y2="480"/>
	<rect x="0" fill="none" stroke="#B35047" width="512" height="512"/>
</g>
<g>
	<path display="none" fill="#FFFFFF" d="M633.841,89.839c-6.931,0-13.862,0-20.796,0c0-6.928,0-13.857,0-20.793
		c6.93,0,13.863,0,20.796,0C633.841,75.975,633.841,82.907,633.841,89.839z M624.08,88.919c-0.101-0.12-0.166-0.197-0.23-0.274
		c-0.591-0.705-1.017-1.499-1.246-2.39c-0.471-1.839-0.178-3.554,0.88-5.131c0.121-0.181,0.236-0.336,0.125-0.564
		c-0.03-0.062-0.02-0.147-0.018-0.221c0.009-0.352,0-0.728,0.24-1.003c0.766-0.879,1.293-1.882,1.615-2.993
		c0.347-1.197,0.468-2.416,0.222-3.651c-0.223-1.122-0.735-2.076-1.686-2.749c-0.915-0.647-1.946-0.839-3.047-0.741
		c-1.674,0.148-3.041,1.249-3.544,2.85c-0.315,1.002-0.352,2.019-0.206,3.05c0.221,1.561,0.788,2.972,1.825,4.177
		c0.589,0.684,0.329,1.733-0.502,2.076c-0.575,0.237-1.153,0.468-1.713,0.738c-0.904,0.435-1.775,0.93-2.533,1.597
		c-0.466,0.41-0.916,0.85-1.066,1.473c-0.085,0.355-0.069,0.737-0.074,1.107c-0.006,0.45,0.186,0.821,0.504,1.135
		c0.334,0.33,0.733,0.553,1.162,0.727c1.213,0.49,2.492,0.685,3.783,0.756c1.377,0.076,2.759,0.075,4.139,0.092
		C623.149,88.986,623.588,88.943,624.08,88.919z M633.679,84.636c-0.005-2.785-2.256-5.034-5.038-5.034
		c-2.783,0-5.033,2.249-5.038,5.034c-0.005,2.789,2.262,5.054,5.048,5.043C631.44,89.669,633.684,87.418,633.679,84.636z"/>
	<path d="M272.831,491.472c-12.201,0.581-23.082,1.651-33.947,1.513c-34.242-0.434-68.528-0.414-102.702-2.295
		c-32.027-1.763-63.766-6.608-93.853-18.762c-10.638-4.297-20.547-9.836-28.825-18.028c-7.882-7.801-12.641-17.012-12.501-28.172
		c0.116-9.184-0.287-18.667,1.828-27.468c3.715-15.463,14.888-26.371,26.443-36.549c18.809-16.567,40.416-28.847,62.842-39.632
		c13.886-6.678,28.233-12.418,42.489-18.299c20.625-8.508,27.056-34.534,12.454-51.498c-25.744-29.91-39.795-64.897-45.288-103.638
		c-3.628-25.587-2.7-50.823,5.105-75.686c12.465-39.711,46.379-67.036,87.921-70.701c27.319-2.41,52.905,2.337,75.605,18.394
		c23.61,16.701,36.297,40.36,41.836,68.197c6.098,30.646,3.104,60.882-5.507,90.585c-7.989,27.555-21.083,52.455-40.078,74.257
		c-5.956,6.836-5.735,16.166-5.963,24.895c-0.048,1.839-0.307,3.945,0.445,5.483c2.758,5.642-0.091,9.502-3.099,13.988
		c-26.243,39.138-33.526,81.687-21.83,127.315c5.667,22.11,16.249,41.811,30.908,59.311
		C268.712,486.588,270.317,488.486,272.831,491.472z"/>
	<path d="M511,385.2c0.12,69.029-55.554,124.874-124.748,125.133c-69.128,0.259-125.373-55.929-125.257-125.128
		c0.116-69.098,55.959-124.896,125.001-124.898C455.035,260.305,510.88,316.1,511,385.2z M403.299,403.405c2.688,0,4.518,0,6.349,0
		c13.435,0,26.874-0.201,40.301,0.11c4.593,0.106,5.714-1.409,5.557-5.736c-0.312-8.553-0.252-17.13-0.019-25.688
		c0.102-3.732-1.06-4.971-4.852-4.9c-11.415,0.215-22.837,0.077-34.257,0.076c-4.146,0-8.291,0-13.174,0c0-17.455,0-34.276,0-51.13
		c-11.931,0-23.107,0-35.114,0c0,17.111,0,33.937,0,51.414c-17.674,0-34.523,0-51.356,0c0,12.198,0,23.713,0,35.875
		c17.172,0,34.029,0,51.672,0c0,17.462,0,34.287,0,51.139c11.986,0,23.173,0,34.893,0
		C403.299,437.577,403.299,420.869,403.299,403.405z"/>
	<path display="none" fill="#FFFFFF" d="M629.338,85.37c0,0.704,0,1.377,0,2.062c-0.472,0-0.923,0-1.406,0c0-0.679,0-1.357,0-2.061
		c-0.711,0-1.39,0-2.083,0c0-0.49,0-0.954,0-1.446c0.678,0,1.357,0,2.07,0c0-0.704,0-1.383,0-2.072c0.484,0,0.934,0,1.415,0
		c0,0.679,0,1.357,0,2.061c0.197,0,0.364,0,0.531,0c0.46,0,0.921,0.006,1.381-0.003c0.153-0.003,0.2,0.047,0.196,0.197
		c-0.009,0.345-0.012,0.691,0.001,1.035c0.006,0.174-0.039,0.235-0.224,0.231c-0.541-0.013-1.083-0.004-1.624-0.004
		C629.52,85.37,629.446,85.37,629.338,85.37z"/>
</g>
<g display="none">
	<path fill="#FFFFFF" d="M633.834,89.841c-6.929,0-13.86,0-20.793,0c0-6.931,0-13.862,0-20.796c6.928,0,13.858,0,20.793,0
		C633.834,75.974,633.834,82.907,633.834,89.841z M632.751,74.046c0.23-0.091,0.446-0.166,0.653-0.263
		c0.24-0.113,0.376-0.313,0.367-0.581c-0.009-0.259-0.155-0.441-0.388-0.549c-0.098-0.045-0.2-0.082-0.304-0.111
		c-3.081-0.874-6.163-1.745-9.243-2.621c-0.263-0.075-0.515-0.079-0.778-0.004c-2.808,0.798-5.617,1.591-8.424,2.389
		c-0.383,0.109-0.773,0.204-1.14,0.356c-0.468,0.194-0.522,0.776-0.119,1.065c0.092,0.066,0.202,0.11,0.31,0.148
		c3.116,1.099,6.233,2.196,9.348,3.296c0.274,0.097,0.536,0.1,0.811,0.001c0.795-0.286,1.593-0.562,2.39-0.842
		c1.593-0.561,3.187-1.12,4.778-1.688c0.19-0.068,0.29-0.016,0.333,0.158c0.045,0.183,0.09,0.37,0.095,0.557
		c0.014,0.528,0.01,1.056,0.005,1.584c-0.001,0.063-0.042,0.14-0.087,0.187c-0.302,0.313-0.466,0.69-0.349,1.109
		c0.095,0.343,0.177,0.659-0.004,0.99c-0.009,0.016-0.007,0.041-0.004,0.06c0.041,0.264,0.048,0.541,0.133,0.79
		c0.241,0.709,0.671,1.316,1.109,1.946c0.421-0.585,0.802-1.158,1.068-1.798c0.201-0.485,0.295-0.971-0.001-1.46
		c-0.026-0.043-0.01-0.128,0.014-0.182c0.217-0.491,0.164-0.942-0.169-1.368c-0.068-0.087-0.114-0.214-0.117-0.324
		c-0.013-0.446-0.006-0.893-0.005-1.34C633.031,75.041,632.978,74.539,632.751,74.046z M617.064,76.652
		c-0.007,0.071-0.013,0.111-0.013,0.15c0,0.866-0.002,1.733,0.002,2.599c0.001,0.232-0.012,0.444-0.29,0.518
		c-0.05,0.013-0.092,0.056-0.137,0.086c-0.95,0.622-1.318,2.213-0.965,3.153c0.362,0.964,1.066,1.611,1.976,2.05
		c0.124,0.06,0.2,0.126,0.246,0.263c0.217,0.64,0.541,1.222,0.97,1.746c0.845,1.031,1.915,1.744,3.155,2.206
		c0.633,0.236,1.281,0.387,1.966,0.253c0.758-0.149,1.463-0.437,2.125-0.827c1.367-0.805,2.401-1.899,2.927-3.427
		c0.022-0.064,0.098-0.12,0.162-0.156c0.217-0.123,0.458-0.21,0.658-0.354c1.037-0.743,1.81-1.86,1.39-3.374
		c-0.187-0.674-0.518-1.26-1.145-1.607c-0.222-0.123-0.264-0.272-0.264-0.48c0.002-0.866,0.003-1.733,0.004-2.599
		c0-0.058-0.008-0.115-0.014-0.189c-0.09,0.028-0.161,0.048-0.23,0.073c-1.891,0.692-3.783,1.38-5.671,2.08
		c-0.331,0.123-0.633,0.118-0.962-0.004c-1.583-0.59-3.171-1.166-4.757-1.746C617.828,76.928,617.46,76.796,617.064,76.652z"/>
	<path display="inline" d="M485.82,114.16c5.593,12.157,6.911,24.531,6.884,37.151c-0.023,11.025-0.192,22.055,0.129,33.071
		c0.079,2.714,1.212,5.848,2.885,7.989c8.214,10.514,9.536,21.641,4.175,33.768c-0.585,1.322-0.986,3.424-0.346,4.482
		c7.293,12.058,4.987,24.06,0.019,36.023c-6.564,15.808-15.955,29.94-26.355,44.372c-10.799-15.562-21.417-30.522-27.361-48.029
		c-2.092-6.162-2.253-12.98-3.27-19.503c-0.075-0.483-0.111-1.087,0.108-1.485c4.472-8.156,2.445-15.956,0.094-24.418
		c-2.872-10.34,1.16-19.625,8.614-27.359c1.133-1.175,2.143-3.059,2.159-4.626c0.135-13.027,0.224-26.062-0.122-39.082
		c-0.122-4.604-1.237-9.237-2.351-13.745c-1.062-4.295-3.524-5.585-8.211-3.91c-39.252,14.025-78.59,27.809-117.906,41.656
		c-19.658,6.924-39.355,13.741-58.969,20.788c-6.768,2.432-13.233,2.362-20.005-0.03c-76.877-27.155-153.791-54.206-230.678-81.334
		c-2.653-0.936-5.378-2.031-7.638-3.654c-9.954-7.146-8.616-21.498,2.936-26.285c9.036-3.744,18.672-6.092,28.122-8.775
		c69.287-19.675,138.6-39.254,207.883-58.942c6.485-1.843,12.711-1.74,19.194,0.103c76.017,21.609,152.066,43.108,228.096,64.669
		c2.555,0.724,5.084,1.638,7.495,2.747c5.758,2.648,9.369,7.137,9.587,13.54c0.225,6.62-3.124,11.562-9.058,14.342
		C496.837,110.068,491.486,111.908,485.82,114.16z M256.184,99.229c7.733-2.127,15.39-3.332,22.245-6.356
		c7.742-3.416,7.701-10.449,0.039-14.096c-14.778-7.033-30.035-7.028-44.813,0.005c-7.685,3.658-7.742,10.678,0.026,14.072
		C240.695,95.918,248.514,97.139,256.184,99.229z"/>
	<path display="inline" d="M98.727,178.449c9.773,3.55,18.847,6.826,27.907,10.141c39.146,14.326,78.333,28.545,117.396,43.093
		c8.124,3.026,15.59,3.128,23.747,0.102c46.587-17.279,93.284-34.265,139.948-51.336c1.697-0.621,3.448-1.095,5.67-1.794
		c0.141,1.818,0.348,3.241,0.347,4.664c-0.016,21.378-0.058,42.757-0.097,64.135c-0.009,5.144,1.027,8.813,6.507,11.851
		c15.477,8.579,23.639,23.043,28.256,39.667c10.372,37.348-8.715,64.925-34.294,83.25c-4.957,3.551-10.888,5.721-16.247,8.745
		c-1.58,0.892-3.446,2.286-3.988,3.861c-12.983,37.694-38.497,64.691-72.227,84.565c-16.332,9.623-33.734,16.725-52.442,20.409
		c-16.889,3.326-32.897-0.415-48.511-6.232c-30.612-11.404-57.015-28.982-77.863-54.433c-10.58-12.916-18.581-27.295-23.936-43.076
		c-1.14-3.36-3.012-5.003-6.066-6.479c-22.445-10.844-39.819-26.795-48.752-50.586c-8.711-23.2,0.384-62.446,23.822-77.8
		c1.115-0.731,2.15-1.789,3.376-2.113c6.868-1.819,7.194-7.06,7.169-12.776c-0.092-21.381-0.057-42.763-0.052-64.145
		C98.396,181.185,98.564,180.208,98.727,178.449z M133.576,251.57c-0.651,5.825-1.352,10.933-1.771,16.065
		c-1.061,12.998-5.688,18.046-18.24,20.592c-2.917,0.592-6.268,2.103-8.135,4.288c-8.587,10.05-11.952,22.36-7.867,34.577
		c5.432,16.248,18.122,27.045,34.337,31.816c9.932,2.923,15.648,7.847,17.947,17.604c2.664,11.306,7.244,21.856,13.799,31.449
		c19.606,28.691,46.98,46.458,80.024,55.751c5.91,1.662,12.886,2.695,18.652,1.217c49.171-12.599,86.204-39.096,100.558-90.547
		c2.143-7.681,6.611-13.307,14.774-14.482c9.416-1.354,16.935-6.001,23.556-12.296c16.647-15.828,19.371-30.813,8.018-51.183
		c-2.381-4.273-5.936-7.481-11.235-8.398c-11.715-2.026-16.586-7.639-17.619-19.476c-0.487-5.578-1.243-11.132-1.912-17.003
		c-32.994,4.12-65.268,8.191-97.555,12.156c-8.926,1.096-18.021,3.315-26.813,2.521c-23.923-2.16-47.724-5.664-71.575-8.621
		C166.474,255.612,150.427,253.646,133.576,251.57z"/>
	<path fill="#FFFFFF" d="M623.445,73.441c-0.311-0.085-0.628-0.134-0.912-0.258c-0.315-0.138-0.313-0.422-0.001-0.57
		c0.599-0.285,1.217-0.285,1.816,0c0.31,0.148,0.312,0.433-0.002,0.571C624.069,73.306,623.759,73.355,623.445,73.441z"/>
	<path fill="#FFFFFF" d="M618.477,79.615c0.683,0.084,1.333,0.164,1.983,0.244c0.967,0.12,1.931,0.262,2.901,0.349
		c0.356,0.032,0.725-0.058,1.087-0.102c1.308-0.161,2.616-0.326,3.953-0.493c0.027,0.238,0.058,0.463,0.078,0.689
		c0.042,0.48,0.239,0.707,0.714,0.789c0.215,0.037,0.359,0.167,0.455,0.34c0.46,0.825,0.35,1.433-0.325,2.074
		c-0.268,0.255-0.573,0.443-0.955,0.498c-0.331,0.048-0.512,0.276-0.599,0.587c-0.582,2.085-2.082,3.159-4.075,3.669
		c-0.234,0.06-0.516,0.018-0.756-0.049c-1.339-0.377-2.448-1.097-3.243-2.259c-0.266-0.389-0.451-0.816-0.559-1.274
		c-0.093-0.395-0.325-0.595-0.727-0.713c-0.657-0.193-1.171-0.631-1.391-1.289c-0.166-0.495-0.029-0.994,0.319-1.401
		c0.076-0.089,0.211-0.15,0.33-0.174c0.509-0.103,0.696-0.308,0.739-0.834C618.422,80.058,618.45,79.851,618.477,79.615z
		 M620.63,81.077c-0.637,0.01-1.161,0.544-1.151,1.174c0.01,0.64,0.545,1.164,1.173,1.151c0.642-0.013,1.165-0.546,1.152-1.173
		C621.792,81.59,621.259,81.068,620.63,81.077z M626.251,83.402c0.639-0.01,1.164-0.544,1.151-1.173
		c-0.013-0.642-0.545-1.165-1.173-1.153c-0.639,0.012-1.162,0.545-1.153,1.174C625.086,82.888,625.621,83.412,626.251,83.402z"/>
	<path display="inline" d="M186.706,287.65c15.523-0.233,28.671,12.667,28.981,28.436c0.305,15.472-12.605,28.611-28.438,28.944
		c-15.5,0.326-28.688-12.615-28.941-28.397C158.058,301.079,170.985,287.886,186.706,287.65z"/>
	<path display="inline" d="M325.424,345.029c-15.555,0.242-28.746-12.69-28.974-28.406c-0.225-15.527,12.678-28.671,28.444-28.973
		c15.477-0.297,28.612,12.616,28.936,28.446C354.147,331.598,341.202,344.783,325.424,345.029z"/>
</g>
<g display="none">
	<path fill="#FFFFFF" d="M613.041,69.043c6.93,0,13.86,0,20.795,0c0,6.926,0,13.854,0,20.79c-6.928,0-13.862,0-20.795,0
		C613.041,82.909,613.041,75.977,613.041,69.043z M620.27,89.779c1.323-0.02,2.629-0.047,3.922-0.268
		c0.749-0.128,1.479-0.31,2.164-0.657c1.109-0.563,1.28-1.609,0.849-2.666c-0.274-0.672-0.872-1.091-1.462-1.484
		c-0.945-0.631-1.975-1.089-3.042-1.47c-0.094-0.033-0.191-0.079-0.264-0.143c-0.419-0.371-0.47-1.375-0.101-1.8
		c1.044-1.203,1.702-2.584,1.839-4.18c0.115-1.335-0.215-2.548-1.119-3.575c-1.46-1.657-4.16-1.65-5.618,0.008
		c-0.822,0.934-1.17,2.037-1.132,3.254c0.052,1.627,0.677,3.05,1.703,4.294c0.249,0.302,0.415,0.598,0.416,0.996
		c0.001,0.513-0.287,0.968-0.758,1.164c-0.456,0.189-0.915,0.372-1.359,0.585c-0.801,0.384-1.567,0.828-2.242,1.414
		c-0.619,0.539-1.015,1.163-0.962,2.042c0.036,0.599,0.275,1.033,0.746,1.362c0.624,0.436,1.342,0.628,2.074,0.778
		C617.363,89.728,618.825,89.758,620.27,89.779z M625.722,81.938c-0.009-0.015-0.019-0.031-0.028-0.046
		c0.045-0.055,0.09-0.111,0.134-0.166c0.241-0.301,0.407-0.639,0.481-1.017c0.057-0.294,0.018-0.559-0.229-0.773
		c-0.228-0.198-0.443-0.413-0.653-0.63c-0.228-0.235-0.62-0.255-0.858-0.032c-0.227,0.212-0.29,0.516-0.117,0.793
		c0.144,0.232,0.338,0.433,0.537,0.682c-0.127,0.152-0.26,0.34-0.421,0.498c-0.246,0.241-0.526,0.448-0.767,0.695
		c-0.479,0.49-0.326,1.108,0.318,1.352c0.348,0.132,0.706,0.123,1.061,0.063c0.948-0.161,1.832-0.522,2.693-0.932
		c0.365-0.174,0.73-0.259,1.128-0.278c1.205-0.058,2.292-0.445,3.218-1.23c0.906-0.767,1.474-1.737,1.565-2.928
		c0.129-1.687-0.56-3.033-1.947-3.949c-1.993-1.315-4.054-1.295-6.093-0.062c-0.435,0.263-0.824,0.599-1.105,1.032
		c-0.182,0.281-0.111,0.625,0.139,0.819c0.236,0.182,0.59,0.164,0.82-0.05c0.099-0.092,0.183-0.2,0.28-0.294
		c1.405-1.364,3.709-1.531,5.304-0.386c1.765,1.268,1.824,3.585,0.125,4.934c-0.739,0.587-1.595,0.835-2.526,0.866
		c-0.465,0.016-0.91,0.1-1.324,0.331c-0.218,0.121-0.451,0.216-0.683,0.309C626.426,81.679,626.073,81.806,625.722,81.938z"/>
	<path display="inline" d="M177.683,471.369c-35.598-0.533-71.618-1.262-107.095-8.535c-18.016-3.693-35.717-8.436-51.086-19.173
		C7.887,435.547,2.011,424.86,1.118,410.106c-1.311-21.652,8.45-37.023,23.707-50.301c16.611-14.456,35.499-25.381,55.229-34.846
		c10.947-5.252,22.253-9.772,33.48-14.421c11.619-4.812,18.702-16.035,18.683-28.672c-0.014-9.793-4.11-17.096-10.242-24.537
		c-25.277-30.67-40.683-65.722-41.953-105.801c-0.95-29.975,7.636-57.145,27.883-80.165c35.936-40.858,102.451-41.029,138.417-0.203
		c22.282,25.293,30.389,55.189,27.568,88.067c-3.373,39.309-19.586,73.332-45.309,102.981c-9.097,10.486-7.842,35.218,2.486,44.353
		c1.804,1.596,4.195,2.711,6.5,3.532c26.293,9.369,51.661,20.663,74.946,36.211c14.519,9.695,29.263,20.018,36.014,36.572
		c10.619,26.04,6.412,51.814-20.911,65.691c-16.859,8.562-34.864,13.049-53.308,16.199
		C242.466,470.205,210.288,470.884,177.683,471.369z"/>
	<path display="inline" d="M311.995,278.19c8.649-3.259,17.349-6.389,25.928-9.823c5.715-2.288,11.466-4.633,16.83-7.618
		c10.205-5.679,21.184-7.769,32.631-8.152c22.93-0.767,44.024-6.891,62.235-21.342c41.859-33.217,40.392-90.318-3.09-121.553
		c-39.3-28.23-96.056-24.118-130.676,9.498c-2.389,2.32-4.457,4.975-6.896,7.236c-5.678,5.264-14.39,5.716-20.205,1.221
		c-6.174-4.773-7.92-13.255-3.435-20.175c6.922-10.68,16.509-18.954,27.216-25.427c50.243-30.371,101.021-30.868,150.114,1.526
		c34.19,22.559,51.157,55.73,47.975,97.285c-2.247,29.347-16.24,53.233-38.55,72.142c-22.825,19.345-49.592,28.886-79.29,30.303
		c-9.796,0.468-18.806,2.574-27.792,6.857c-21.21,10.109-42.981,19.017-66.346,22.973c-8.745,1.481-17.583,1.694-26.15-1.557
		c-15.874-6.023-19.636-21.242-7.847-33.317c5.924-6.068,12.827-11.172,18.891-17.116c3.976-3.898,7.243-8.519,10.374-12.271
		c-4.9-6.128-9.669-11.084-13.222-16.795c-4.256-6.84-2.699-14.323,2.88-19.547c5.866-5.492,15.52-4.999,21.134,0.78
		c5.194,5.347,10.474,10.649,16.098,15.53c6.086,5.282,7.052,11.81,5.635,19.047c-1.825,9.321-5.916,17.645-11.841,25.066
		c-1.095,1.371-2.2,2.732-3.301,4.098C311.527,277.437,311.761,277.813,311.995,278.19z"/>
</g>
<g display="none">
	<path fill="#FFFFFF" d="M613.041,86.712c0-5.891,0-11.781,0-17.672c6.933,0,13.867,0,20.8,0c0,6.933,0,13.867,0,20.8
		c-6.933,0-13.867,0-20.8,0c0-0.745,0-1.49,0-2.234c0.149,0.565,0.512,0.959,1.019,1.217c0.306,0.156,0.626,0.293,0.953,0.395
		c1.232,0.382,2.508,0.48,3.786,0.535c1.53,0.066,3.06,0.041,4.583-0.125c0.888-0.096,1.768-0.25,2.6-0.598
		c0.422-0.176,0.792-0.42,1.111-0.76c0.427-0.457,0.392-1.798,0.018-2.311c-0.374-0.513-0.836-0.92-1.356-1.269
		c-0.944-0.634-1.976-1.087-3.04-1.473c-0.121-0.044-0.239-0.127-0.327-0.222c-0.39-0.424-0.464-1.669,0.046-2.109
		c0.186-0.16,0.323-0.382,0.461-0.59c0.922-1.387,1.453-2.884,1.228-4.576c-0.151-1.132-0.656-2.07-1.619-2.72
		c-0.875-0.591-1.849-0.77-2.886-0.628c-1.019,0.139-1.86,0.598-2.474,1.434c-0.737,1.002-0.891,2.152-0.752,3.343
		c0.172,1.468,0.762,2.765,1.732,3.888c0.113,0.13,0.197,0.313,0.224,0.483c0.036,0.23,0.04,0.478-0.009,0.704
		c-0.107,0.497-0.351,0.881-0.878,1.07c-0.989,0.355-1.926,0.828-2.791,1.429C613.942,85.23,613.257,85.782,613.041,86.712z
		 M623.734,81.867c0.094,0.038,0.162,0.067,0.231,0.094c1.034,0.41,2.027,0.9,2.932,1.553c0.777,0.561,1.452,1.215,1.853,2.111
		c0.025,0.055,0.135,0.107,0.201,0.103c0.432-0.03,0.863-0.065,1.293-0.12c0.792-0.101,1.578-0.239,2.315-0.568
		c0.418-0.187,0.807-0.418,1.05-0.828c0.372-0.629,0.251-1.643-0.264-2.264c-0.503-0.605-1.142-1.043-1.832-1.388
		c-0.73-0.365-1.495-0.657-2.24-0.993c-0.141-0.064-0.292-0.16-0.376-0.284c-0.187-0.273-0.118-0.96,0.105-1.213
		c0.461-0.523,0.821-1.108,1.082-1.752c0.473-1.165,0.663-2.369,0.418-3.614c-0.346-1.759-1.677-2.865-3.435-2.843
		c-1.423,0.018-2.509,0.618-3.153,1.929c-0.072,0.146-0.059,0.232,0.068,0.343c0.737,0.644,1.243,1.446,1.524,2.377
		c0.534,1.771,0.311,3.489-0.421,5.161C624.74,80.456,624.291,81.177,623.734,81.867z"/>
	<path display="inline" d="M1,425.036c5.313-22.841,22.123-36.383,40.011-48.81c21.226-14.746,44.218-26.348,68.496-35.062
		c12.926-4.64,18.926-14.065,21.544-26.26c1.191-5.547,1.093-11.638,0.217-17.271c-0.647-4.164-2.723-8.653-5.487-11.854
		c-23.808-27.563-38.287-59.387-42.509-95.409c-3.426-29.23,0.373-57.433,18.445-82.03c15.066-20.506,35.709-31.773,60.702-35.189
		c25.43-3.476,49.334,0.912,70.807,15.413c23.633,15.959,36.03,38.969,39.736,66.756c5.538,41.522-7.506,78.259-30.125,112.293
		c-3.391,5.102-6.764,10.554-11.323,14.477c-12.528,10.78-10.71,41.341-1.139,51.74c2.142,2.327,5.057,4.374,8.016,5.447
		c26.13,9.472,51.446,20.598,74.606,36.144c12.75,8.558,24.09,18.536,33.264,31.135c9.165,12.586,10.037,45.477-0.453,56.699
		c-7.81,8.354-16.894,14.328-27.253,18.658c-20.42,8.534-42,12.313-63.798,14.68c-37.387,4.061-74.92,4.694-112.47,3.064
		c-31.378-1.362-62.681-3.764-92.909-13.137c-8.03-2.49-15.88-5.867-23.38-9.686c-12.436-6.332-21.344-15.996-25-29.864
		C1,439.657,1,432.346,1,425.036z"/>
	<path display="inline" d="M263.388,306.145c13.67-16.936,24.694-34.622,33.126-53.891c17.958-41.038,23.423-83.189,10.324-126.645
		c-6.888-22.85-19.318-42.537-37.396-58.337c-3.109-2.717-3.417-4.819-1.656-8.407c15.802-32.188,42.442-46.912,77.372-47.344
		c43.129-0.534,75.793,26.605,84.287,69.762c6.014,30.553,1.348,60.099-10.263,88.684c-6.417,15.798-15.238,30.159-26.553,42.995
		c-5.471,6.206-7.179,23.074-2.586,29.77c2.079,3.03,5.773,5.398,9.234,6.96c18.267,8.246,37.056,15.413,54.959,24.365
		c16.948,8.475,32.629,19.207,44.964,34.062c12.657,15.243,15.63,40.133,6.489,55.557c-5.957,10.052-15.509,15.737-25.772,20.32
		c-18.072,8.071-37.354,11.46-56.8,13.937c-10.53,1.341-21.127,2.205-31.718,2.946c-1.629,0.114-4.334-1.17-4.94-2.524
		c-9.835-21.98-26.41-38.038-45.472-51.794c-22.192-16.015-46.564-28.04-71.942-38.106
		C267.365,307.789,265.698,307.09,263.388,306.145z"/>
</g>
<g display="none">
	<path fill="#FFFFFF" d="M633.83,89.841c-6.936,0-13.861,0-20.788,0c0-6.931,0-13.863,0-20.797c6.929,0,13.859,0,20.788,0
		C633.83,75.974,633.83,82.907,633.83,89.841z M619.509,78.279c-0.334-0.148-0.635-0.281-0.935-0.415
		c-0.043-0.019-0.086-0.039-0.126-0.064c-0.335-0.209-0.404-0.709-0.133-1.013c0.389-0.436,0.672-0.933,0.852-1.485
		c0.251-0.771,0.318-1.552,0.017-2.326c-0.396-1.021-1.424-1.556-2.596-1.367c-1.046,0.169-1.804,1.025-1.878,2.121
		c-0.078,1.153,0.288,2.156,1.031,3.029c0.347,0.407,0.216,0.964-0.279,1.148c-0.549,0.204-1.071,0.458-1.515,0.845
		c-0.406,0.354-0.745,0.752-0.744,1.336c0.001,1.381-0.008,2.762,0.008,4.143c0.004,0.313,0.058,0.636,0.15,0.935
		c0.278,0.902,0.891,1.566,1.618,2.132c0.929,0.723,1.983,1.207,3.096,1.569c0.395,0.128,0.798,0.234,1.223,0.357
		c0-0.379,0.012-0.717-0.003-1.054c-0.025-0.548,0.203-0.983,0.57-1.362c0.543-0.561,1.212-0.92,1.93-1.204
		c0.341-0.135,0.429-0.497,0.188-0.776c-0.562-0.652-0.907-1.405-1.046-2.251c-0.108-0.662-0.069-1.314,0.23-1.924
		c0.398-0.814,1.067-1.248,1.964-1.343c0.716-0.076,1.379,0.063,1.943,0.524c0.794,0.649,0.998,1.531,0.905,2.502
		c-0.088,0.928-0.451,1.747-1.053,2.46c-0.28,0.332-0.175,0.693,0.221,0.86c0.385,0.162,0.772,0.332,1.131,0.543
		c0.894,0.524,1.487,1.234,1.345,2.36c-0.026,0.204-0.004,0.414-0.004,0.635c0.077-0.015,0.124-0.02,0.168-0.033
		c0.542-0.167,1.093-0.31,1.623-0.51c1.201-0.452,2.315-1.054,3.208-2.002c0.685-0.727,1.082-1.568,1.067-2.592
		c-0.018-1.279-0.015-2.559,0.001-3.838c0.006-0.489-0.173-0.879-0.496-1.222c-0.49-0.52-1.104-0.839-1.763-1.085
		c-0.504-0.189-0.633-0.747-0.279-1.163c0.733-0.862,1.106-1.856,1.02-2.992c-0.069-0.908-0.477-1.63-1.351-1.984
		c-0.892-0.361-1.763-0.283-2.516,0.35c-0.734,0.618-0.872,1.467-0.769,2.366c0.1,0.876,0.457,1.647,1.043,2.311
		c0.241,0.273,0.209,0.777-0.094,0.958c-0.331,0.198-0.698,0.334-1.051,0.498c-0.014-0.037-0.022-0.049-0.022-0.062
		c-0.003-0.074-0.011-0.149-0.004-0.223c0.056-0.597-0.188-1.062-0.619-1.452c-0.516-0.467-1.12-0.773-1.766-1.012
		c-0.48-0.178-0.628-0.743-0.291-1.134c0.636-0.737,0.998-1.588,1.051-2.56c0.077-1.405-0.706-2.486-2.074-2.626
		c-1.09-0.112-2.208,0.433-2.502,1.682c-0.3,1.278,0.074,2.409,0.872,3.41c0.416,0.522,0.316,0.989-0.307,1.241
		c-0.523,0.211-1.019,0.471-1.457,0.831c-0.514,0.423-0.878,0.921-0.803,1.635C619.516,78.072,619.509,78.16,619.509,78.279z"/>
	<path display="inline" d="M158.059,233.098c0-2.962,0.195-5.159-0.031-7.313c-1.864-17.78,7.209-30.178,20.003-40.703
		c10.895-8.962,23.233-15.425,36.267-20.683c15.531-6.266,18.011-17.899,7.652-30.888c-19.885-24.932-29.199-53.083-21.717-84.895
		c7.309-31.079,35.135-44.644,62.282-41.864c34.048,3.488,53.542,30.395,51.627,65.375c-1.325,24.201-10.34,45.37-26.164,63.724
		c-8.385,9.726-4.715,23.814,7.246,28.234c16.071,5.938,31.129,13.563,43.962,25.189c10.738,9.728,16.802,21.305,15.405,36.158
		c-0.172,1.833,0.028,3.702,0.094,5.553c0.011,0.315,0.218,0.623,0.557,1.533c8.788-4.08,17.932-7.483,26.172-12.4
		c7.528-4.492,8.334-17.052,2.331-23.848c-14.601-16.527-23.478-35.726-25.978-57.538c-2.563-22.363,0.871-43.501,19.157-58.893
		c18.744-15.778,40.437-17.724,62.643-8.726c21.764,8.819,31.918,26.778,33.636,49.392c2.146,28.259-7.13,53.02-25.384,74.476
		c-8.807,10.352-5.59,24.251,6.947,28.947c16.398,6.143,31.696,14.071,43.887,27.023c8.033,8.534,12.496,18.249,12.343,30.427
		c-0.4,31.848-0.485,63.709-0.025,95.555c0.368,25.509-9.514,46.442-26.568,64.534c-22.238,23.592-49.977,38.593-79.868,49.838
		c-13.194,4.964-26.918,8.521-40.411,12.688c-1.096,0.339-2.261,0.456-4.177,0.829c0-5.501-0.549-10.725,0.091-15.799
		c3.534-28.038-11.213-45.701-33.477-58.755c-8.954-5.25-18.574-9.466-28.162-13.507c-9.848-4.151-12.478-13.139-5.502-21.405
		c14.986-17.755,24.004-38.15,26.204-61.244c2.301-24.163-2.761-46.124-22.537-62.291c-14.036-11.474-30.545-14.928-48.373-13.036
		c-22.327,2.369-38.974,13.181-48.884,33.441c-7.433,15.197-8.41,31.426-5.718,47.897c3.444,21.074,12.044,39.804,26.03,56.046
		c5.988,6.953,3.815,15.954-4.684,19.32c-17.856,7.071-34.512,16.011-48.037,29.972c-9.135,9.43-14.797,20.265-14.182,33.897
		c0.378,8.386,0.07,16.802,0.07,26.239c-10.581-3.071-20.607-5.697-30.449-8.893c-27.712-8.997-53.95-21.043-77.085-39.049
		c-18.103-14.09-33.346-30.615-40.274-53.076c-2.299-7.452-3.645-15.491-3.736-23.281c-0.404-34.376-0.177-68.759-0.208-103.14
		c-0.013-14.551,8.425-24.468,18.523-33.273c11.053-9.637,24.056-15.96,37.716-21.047c12.31-4.585,15.571-18.429,6.94-28.573
		c-18.495-21.734-27.598-46.705-25.663-75.408c1.84-27.302,20.714-48.614,46.758-52.815c29.188-4.709,54.771,8.613,64.638,34.026
		c7.485,19.277,5.815,38.697-0.431,57.904c-4.474,13.758-11.522,26.122-21.2,36.976c-6.753,7.573-5.021,20.038,3.312,25.229
		c0.995,0.62,2.073,1.117,3.147,1.595C142.258,226.106,149.75,229.417,158.059,233.098z"/>
</g>
<g display="none">
	<path fill="#FFFFFF" d="M633.834,89.841c-6.929,0-13.86,0-20.793,0c0-6.931,0-13.862,0-20.796c6.928,0,13.858,0,20.793,0
		C633.834,75.974,633.834,82.907,633.834,89.841z M627.14,82.648c-0.075-0.043-0.132-0.078-0.191-0.11
		c-0.867-0.477-1.773-0.866-2.708-1.186c-0.391-0.134-0.603-0.421-0.63-0.813c-0.019-0.285,0.031-0.576,0.073-0.861
		c0.018-0.12,0.068-0.255,0.147-0.345c0.774-0.872,1.294-1.881,1.616-2.992c0.347-1.197,0.468-2.416,0.221-3.651
		c-0.223-1.122-0.735-2.075-1.686-2.748c-0.915-0.647-1.946-0.838-3.047-0.741c-1.674,0.148-3.041,1.249-3.543,2.849
		c-0.314,1.002-0.352,2.019-0.206,3.05c0.221,1.561,0.787,2.971,1.825,4.177c0.589,0.684,0.33,1.733-0.5,2.076
		c-0.574,0.237-1.153,0.468-1.712,0.737c-0.91,0.437-1.783,0.94-2.549,1.609c-0.729,0.637-1.215,1.363-1.146,2.406
		c0.046,0.694,0.315,1.199,0.866,1.584c0.592,0.414,1.265,0.636,1.957,0.805c1.008,0.246,2.034,0.392,3.07,0.419
		c1.406,0.037,2.814,0.037,4.221,0.051c0.068,0.001,0.136-0.014,0.251-0.027c-0.136-0.103-0.221-0.183-0.319-0.239
		c-0.415-0.24-0.829-0.482-1.253-0.707c-1.188-0.63-1.685-2.001-1.088-3.201c0.268-0.539,0.645-1.031,1.023-1.504
		c0.307-0.383,0.757-0.582,1.24-0.68c0.83-0.169,1.599,0.022,2.319,0.431c0.321,0.182,0.619,0.404,0.933,0.611
		C626.587,83.325,626.856,82.996,627.14,82.648z M626.57,86.356c-0.036-0.042-0.065-0.076-0.094-0.11
		c-0.284-0.336-0.55-0.688-0.855-1.002c-0.441-0.453-0.929-0.847-1.559-1.023c-0.563-0.158-0.952-0.028-1.28,0.449
		c-0.153,0.223-0.312,0.442-0.459,0.67c-0.281,0.435-0.156,0.948,0.29,1.206c0.105,0.061,0.216,0.112,0.326,0.164
		c0.77,0.368,1.475,0.832,2.059,1.456c0.285,0.305,0.529,0.649,0.788,0.978c0.067,0.085,0.12,0.18,0.187,0.266
		c0.382,0.49,0.974,0.433,1.234-0.13c0.365-0.792,0.709-1.593,1.071-2.386c1.18-2.59,2.872-4.778,5.127-6.524
		c0.07-0.054,0.137-0.111,0.206-0.167C630.504,81.38,628.094,83.352,626.57,86.356z"/>
	<path display="inline" d="M349.911,335.056c-7.038,8.618-13.709,16.787-20.269,24.82c-7.784-5.136-15.186-10.622-23.137-15.143
		c-17.862-10.159-36.929-14.894-57.522-10.698c-11.98,2.441-23.156,7.365-30.762,16.876c-9.38,11.729-18.74,23.938-25.383,37.296
		c-14.806,29.771-2.481,63.772,26.974,79.385c10.503,5.567,20.775,11.576,31.071,17.522c2.432,1.405,4.54,3.372,7.92,5.932
		c-2.856,0.321-4.54,0.689-6.221,0.672c-34.894-0.349-69.797-0.348-104.677-1.258c-25.694-0.67-51.123-4.296-76.131-10.398
		c-17.175-4.191-33.853-9.697-48.541-19.968c-13.643-9.54-20.325-22.063-21.466-39.274c-1.715-25.871,10.342-43.879,28.418-59.665
		c18.999-16.592,40.654-29.049,63.223-39.898c13.88-6.672,28.219-12.408,42.467-18.287c20.593-8.496,26.999-34.522,12.403-51.485
		c-25.726-29.897-39.767-64.867-45.254-103.588c-3.624-25.574-2.694-50.796,5.106-75.646c12.456-39.683,46.359-66.998,87.877-70.662
		c27.304-2.41,52.876,2.334,75.567,18.379c23.6,16.689,36.283,40.334,41.824,68.155c6.101,30.628,3.11,60.85-5.493,90.537
		c-7.981,27.54-20.894,52.577-40.084,74.191c-1.965,2.213-3.203,5.559-3.64,8.545c-1.036,7.071-2.279,14.304-1.799,21.359
		c0.662,9.729,5.92,16.853,15.626,20.173c23.201,7.936,45.662,17.585,67.167,29.405
		C346.625,333.132,348.047,333.983,349.911,335.056z"/>
	<path display="inline" d="M335.778,427.021c37.801-74.519,97.567-123.417,174.617-152.603c-1.702,1.382-3.377,2.8-5.111,4.142
		c-55.92,43.294-97.896,97.56-127.156,161.792c-8.962,19.673-17.503,39.538-26.551,59.17c-6.432,13.956-21.113,15.37-30.596,3.22
		c-1.649-2.113-2.969-4.483-4.631-6.585c-6.442-8.149-12.472-16.695-19.551-24.254c-14.497-15.478-31.986-26.981-51.072-36.106
		c-2.721-1.301-5.47-2.571-8.079-4.077c-11.063-6.386-14.159-19.112-7.19-29.906c3.638-5.635,7.576-11.077,11.376-16.608
		c8.136-11.845,17.772-15.063,31.743-11.147c15.62,4.378,27.718,14.141,38.655,25.372c7.584,7.788,14.178,16.541,21.216,24.862
		C334.167,425.143,334.894,425.987,335.778,427.021z"/>
</g>
<g display="none">
	<path fill="#FFFFFF" d="M633.834,89.841c-6.929,0-13.86,0-20.793,0c0-6.931,0-13.862,0-20.796c6.928,0,13.858,0,20.793,0
		C633.834,75.974,633.834,82.907,633.834,89.841z M623.472,89.743c1.658-0.027,3.315-0.062,4.954-0.353
		c0.874-0.155,1.734-0.361,2.526-0.782c0.822-0.437,1.343-1.061,1.26-2.055c-0.006-0.067-0.002-0.135-0.001-0.203
		c0.011-0.463-0.133-0.876-0.393-1.255c-0.422-0.614-0.992-1.068-1.602-1.477c-1.154-0.773-2.415-1.328-3.725-1.771
		c-0.522-0.177-0.776-0.521-0.788-1.05c-0.01-0.472,0.071-0.905,0.414-1.29c0.856-0.959,1.41-2.087,1.754-3.324
		c0.306-1.101,0.381-2.21,0.151-3.331c-0.233-1.134-0.769-2.094-1.72-2.779c-1.216-0.876-2.58-1.085-4.018-0.763
		c-1.636,0.367-2.728,1.375-3.257,2.967c-0.382,1.147-0.376,2.319-0.115,3.486c0.333,1.484,0.983,2.815,2.017,3.945
		c0.041,0.045,0.09,0.088,0.114,0.142c0.361,0.84,0.093,1.658-0.696,1.96c-0.612,0.234-1.218,0.488-1.809,0.768
		c-0.943,0.447-1.853,0.955-2.646,1.644c-0.5,0.433-0.98,0.897-1.14,1.565c-0.082,0.342-0.071,0.71-0.077,1.066
		c-0.008,0.461,0.158,0.871,0.496,1.181c0.242,0.221,0.513,0.423,0.801,0.579c0.862,0.467,1.81,0.663,2.767,0.817
		C620.305,89.684,621.888,89.719,623.472,89.743z"/>
	<path display="inline" d="M256.612,511c-39.246-0.582-78.486-1.437-117.349-7.724c-23.707-3.835-47.219-8.681-68.572-20.261
		c-7.13-3.867-13.854-8.872-19.844-14.359c-8.386-7.683-12.483-17.848-12.292-29.283c0.147-8.838-0.14-17.952,1.896-26.432
		c3.972-16.544,15.867-28.051,28.25-38.787c19.679-17.06,42.231-29.657,65.596-40.74c14.662-6.955,29.685-13.233,44.843-19.04
		c19.546-7.489,26.189-27.769,17.246-48.589c-0.571-1.33-1.799-2.404-2.814-3.513c-25.636-28.008-41.758-60.989-49.999-97.781
		c-6.479-28.927-6.621-57.989,2.837-86.411c13.13-39.454,40.177-64.428,80.739-73.528c35.652-7.999,69.466-2.808,99.595,18.901
		c23.57,16.983,36.86,40.784,42.641,68.888c5.716,27.787,3.861,55.279-3.734,82.564c-8.533,30.656-22.258,58.616-43.481,82.376
		c-8.508,9.525-10.515,20.26-10.26,31.965c0.285,13.113,6.586,21.659,19.521,26.036c32.47,10.987,63.718,24.748,92.331,43.906
		c15.122,10.125,29.247,21.378,39.709,36.601c6.45,9.386,10.013,19.635,9.751,31.108c-0.038,1.677-0.127,3.366,0.013,5.032
		c2.067,24.638-10.841,40.122-31.227,50.945c-19.629,10.42-40.934,15.53-62.608,19.379C338.779,509.463,297.7,510.335,256.612,511z"
		/>
</g>
</svg>
