<?xml version="1.0" encoding="utf-8"?>
<!-- Generator: Adobe Illustrator 17.0.0, SVG Export Plug-In . SVG Version: 6.00 Build 0)  -->
<!DOCTYPE svg PUBLIC "-//W3C//DTD SVG 1.1//EN" "http://www.w3.org/Graphics/SVG/1.1/DTD/svg11.dtd">
<svg version="1.1" id="Layer_1" xmlns="http://www.w3.org/2000/svg" xmlns:xlink="http://www.w3.org/1999/xlink" x="0px" y="0px"
	 width="512px" height="512px" viewBox="0 0 512 512" enable-background="new 0 0 512 512" xml:space="preserve">
<g>
	<line fill="none" stroke="#B35047" x1="32" y1="0" x2="32" y2="512"/>
	<line fill="none" stroke="#B35047" x1="64" y1="0" x2="64" y2="512"/>
	<line fill="none" stroke="#B35047" x1="96" y1="0" x2="96" y2="512"/>
	<line fill="none" stroke="#B35047" x1="128" y1="0" x2="128" y2="512"/>
	<line fill="none" stroke="#B35047" x1="160" y1="0" x2="160" y2="512"/>
	<line fill="none" stroke="#B35047" x1="192" y1="0" x2="192" y2="512"/>
	<line fill="none" stroke="#B35047" x1="224" y1="0" x2="224" y2="512"/>
	<line fill="none" stroke="#B35047" x1="256" y1="0" x2="256" y2="512"/>
	<line fill="none" stroke="#B35047" x1="288" y1="0" x2="288" y2="512"/>
	<line fill="none" stroke="#B35047" x1="320" y1="0" x2="320" y2="512"/>
	<line fill="none" stroke="#B35047" x1="352" y1="0" x2="352" y2="512"/>
	<line fill="none" stroke="#B35047" x1="384" y1="0" x2="384" y2="512"/>
	<line fill="none" stroke="#B35047" x1="416" y1="0" x2="416" y2="512"/>
	<line fill="none" stroke="#B35047" x1="448" y1="0" x2="448" y2="512"/>
	<line fill="none" stroke="#B35047" x1="480" y1="0" x2="480" y2="512"/>
	<line fill="none" stroke="#B35047" x1="0" y1="32" x2="512" y2="32"/>
	<line fill="none" stroke="#B35047" x1="0" y1="64" x2="512" y2="64"/>
	<line fill="none" stroke="#B35047" x1="0" y1="96" x2="512" y2="96"/>
	<line fill="none" stroke="#B35047" x1="0" y1="128" x2="512" y2="128"/>
	<line fill="none" stroke="#B35047" x1="0" y1="160" x2="512" y2="160"/>
	<line fill="none" stroke="#B35047" x1="0" y1="192" x2="512" y2="192"/>
	<line fill="none" stroke="#B35047" x1="0" y1="224" x2="512" y2="224"/>
	<line fill="none" stroke="#B35047" x1="0" y1="256" x2="512" y2="256"/>
	<line fill="none" stroke="#B35047" x1="0" y1="288" x2="512" y2="288"/>
	<line fill="none" stroke="#B35047" x1="0" y1="320" x2="512" y2="320"/>
	<line fill="none" stroke="#B35047" x1="0" y1="352" x2="512" y2="352"/>
	<line fill="none" stroke="#B35047" x1="0" y1="384" x2="512" y2="384"/>
	<line fill="none" stroke="#B35047" x1="0" y1="416" x2="512" y2="416"/>
	<line fill="none" stroke="#B35047" x1="0" y1="448" x2="512" y2="448"/>
	<line fill="none" stroke="#B35047" x1="0" y1="480" x2="512" y2="480"/>
	<rect x="0" fill="none" stroke="#B35047" width="512" height="512"/>
</g>
<g>
	<path display="none" fill="#FFFFFF" d="M555.041,149.106c0-4.02,0-8.04,0-12.063c6.928,0,13.857,0,20.8,0c0,4.019,0,8.041,0,12.063
		c-0.139-0.491-0.455-0.848-0.847-1.156c-0.761-0.596-1.627-0.985-2.526-1.314c-0.081-0.03-0.168-0.063-0.232-0.118
		c-0.343-0.294-0.414-1.141-0.12-1.485c0.801-0.939,1.188-2.032,1.215-3.258c0.015-0.683-0.111-1.336-0.499-1.913
		c-0.613-0.913-1.689-1.309-2.88-1.071c-0.994,0.198-1.722,0.974-1.947,2.075c-0.068,0.333-0.068,0.333,0.21,0.517
		c0.085,0.056,0.171,0.11,0.25,0.173c1.279,1.016,1.821,2.374,1.79,3.971c-0.032,1.628-0.648,3.05-1.634,4.325
		c-0.081,0.105-0.164,0.21-0.216,0.276c0.812,0.406,1.614,0.808,2.418,1.206c0.062,0.031,0.144,0.035,0.215,0.032
		c0.507-0.022,1.018-0.016,1.52-0.083c0.661-0.089,1.325-0.197,1.968-0.37c0.606-0.163,1.151-0.46,1.314-1.157
		c0,2.695,0,5.39,0,8.084c-6.933,0-13.867,0-20.8,0c0-2.695,0-5.39,0-8.084c0.084,0.36,0.273,0.657,0.6,0.828
		c0.315,0.164,0.644,0.322,0.984,0.417c1.084,0.301,2.203,0.336,3.319,0.365c0.068,0.002,0.141-0.038,0.206-0.07
		c0.74-0.361,1.48-0.724,2.219-1.087c0.039-0.019,0.077-0.041,0.079-0.042c-0.321-0.513-0.671-0.998-0.943-1.523
		c-0.658-1.273-0.947-2.626-0.74-4.062c0.203-1.406,0.858-2.533,2.061-3.322c0.053-0.035,0.091-0.146,0.083-0.215
		c-0.176-1.346-1.109-2.222-2.46-2.32c-1.271-0.092-2.346,0.636-2.733,1.85c-0.198,0.62-0.203,1.252-0.108,1.887
		c0.135,0.9,0.457,1.726,1.046,2.428c0.359,0.428,0.355,0.881,0.176,1.365c-0.072,0.194-0.209,0.316-0.413,0.386
		c-0.751,0.257-1.472,0.582-2.133,1.024C555.737,148.028,555.227,148.43,555.041,149.106z M565.998,157.021
		c0.553-0.042,1.655-0.102,2.75-0.216c0.747-0.078,1.467-0.28,2.159-0.599c1.128-0.519,1.134-1.88,0.625-2.553
		c-0.245-0.324-0.552-0.618-0.878-0.861c-0.903-0.672-1.928-1.114-2.984-1.485c-0.081-0.029-0.169-0.062-0.232-0.118
		c-0.427-0.383-0.47-1.4-0.09-1.834c0.937-1.068,1.527-2.291,1.608-3.727c0.05-0.882-0.142-1.707-0.669-2.435
		c-0.952-1.315-2.815-1.681-4.243-1.092c-1.352,0.557-1.969,1.648-2.04,3.054c-0.079,1.565,0.472,2.928,1.462,4.126
		c0.101,0.122,0.22,0.251,0.263,0.397c0.236,0.803-0.082,1.423-0.855,1.726c-1.049,0.412-2.058,0.899-2.935,1.621
		c-0.566,0.466-0.955,1.009-0.899,1.807c0.037,0.528,0.247,0.915,0.674,1.201c0.545,0.365,1.163,0.537,1.795,0.662
		C562.81,156.955,564.129,156.996,565.998,157.021z"/>
	<path d="M1,286.337c4.582-16.57,17.075-26.433,30.437-35.358c16.218-10.833,33.893-18.816,52.307-25.105
		c4.996-1.706,8.36-4.713,10.116-9.46c4.386-11.858,4.495-22.966-4.311-33.463c-14.428-17.201-22.344-37.462-25.646-59.529
		c-2.329-15.568-2.195-31.066,2.651-46.269c9.487-29.761,35.836-47.617,66.999-45.363c33.146,2.398,56.023,23.875,60.328,56.875
		c0.219,1.682-0.717,4.408-2.023,5.266c-29.482,19.36-45.558,46.995-50.525,81.464c-5.071,35.189,2.014,68.371,18.156,99.585
		c6.661,12.88,15.248,24.763,23.116,37.35c-0.043,0.023-0.969,0.567-1.931,1.039c-18.13,8.901-36.256,17.807-54.408,26.662
		c-1.593,0.777-3.371,1.752-5.039,1.708c-27.376-0.714-54.798-1.564-81.379-8.952c-8.357-2.323-16.4-6.192-24.136-10.22
		C7.683,318.386,3.07,311.098,1,302.274C1,296.962,1,291.649,1,286.337z"/>
	<path d="M511,302.274c-4.009,17.074-17.373,24.361-32.221,28.359c-15.763,4.245-32.037,6.904-48.246,9.081
		c-12.291,1.651-24.828,1.5-37.26,2.042c-1.755,0.077-3.749-0.036-5.274-0.788c-19.726-9.738-39.387-19.608-59.293-29.558
		c1.267-1.616,3.297-4.174,5.293-6.757c24.165-31.27,39.281-66.131,40.057-106.056c0.761-39.158-12.526-72.465-43.888-97.371
		c-1.943-1.543-4.058-2.877-6.131-4.25c-6.821-4.52-6.828-4.51-5.158-12.676c5.517-26.986,23.368-46.013,47.732-50.878
		c29.188-5.828,55.586,3.877,70.61,26.26c9.501,14.154,12.598,30.162,12.227,46.906c-0.664,30.043-10.157,56.842-29.786,79.878
		c-7.189,8.436-5.459,29.221,2.951,36.422c1.57,1.345,3.691,2.159,5.679,2.887c22.034,8.073,43.274,17.607,61.927,32.224
		c9.625,7.543,17.371,16.312,20.78,28.339C511,291.649,511,296.962,511,302.274z"/>
	<path d="M269.668,480.401c-45.833-0.614-78.171-1.607-110.054-7.927c-15.499-3.072-30.659-7.289-44.021-16.228
		c-10.474-7.007-15.611-16.488-16.527-29.443c-1.382-19.558,8.17-32.878,22.042-44.301c21.499-17.704,46.237-29.659,71.958-39.754
		c18.954-7.439,26.754-22.636,20.966-42.324c-1.051-3.577-3.961-6.742-6.442-9.742c-24.286-29.375-37.784-62.81-35.849-101.173
		c1.739-34.465,16.868-61.22,50.015-74.88c35-14.424,80.681-5.461,104.034,26.783c12.917,17.835,17.631,38.075,16.409,59.7
		c-1.989,35.187-16.445,65.175-39.426,91.372c-9.323,10.628-8.266,35.576,2.196,44.957c1.532,1.374,3.682,2.192,5.678,2.892
		c25.911,9.095,51.046,19.912,73.174,36.4c8.006,5.966,15.515,13.174,21.53,21.119c12.488,16.495,12.355,49.853-15.315,62.586
		c-16.952,7.801-34.616,12.774-52.928,14.676C310.241,477.904,283.237,479.376,269.668,480.401z"/>
</g>
</svg>
