<?xml version="1.0" encoding="utf-8"?>
<!-- Generator: Adobe Illustrator 17.0.0, SVG Export Plug-In . SVG Version: 6.00 Build 0)  -->
<!DOCTYPE svg PUBLIC "-//W3C//DTD SVG 1.1//EN" "http://www.w3.org/Graphics/SVG/1.1/DTD/svg11.dtd">
<svg version="1.1" id="Layer_1" xmlns="http://www.w3.org/2000/svg" xmlns:xlink="http://www.w3.org/1999/xlink" x="0px" y="0px"
	 width="512px" height="512px" viewBox="0 0 512 512" enable-background="new 0 0 512 512" xml:space="preserve">
<g display="none">
	<path fill="#FFFFFF" d="M609.841,63.839c-6.931,0-13.861,0-20.796,0c0-6.928,0-13.857,0-20.792c6.929,0,13.863,0,20.796,0
		C609.841,49.975,609.841,56.906,609.841,63.839z M599.437,56.168c0.095,0.122,0.139,0.192,0.196,0.249
		c1.306,1.308,2.613,2.615,3.92,3.921c0.423,0.423,0.853,0.424,1.274,0.005c0.499-0.497,0.997-0.995,1.494-1.493
		c0.449-0.449,0.448-0.866-0.004-1.318c-1.307-1.307-2.614-2.614-3.92-3.922c-0.055-0.055-0.107-0.113-0.183-0.193
		c0.078-0.063,0.14-0.106,0.192-0.158c1.313-1.311,2.625-2.622,3.936-3.934c0.419-0.419,0.418-0.855-0.002-1.275
		c-0.493-0.494-0.987-0.985-1.481-1.478c-0.465-0.464-0.87-0.466-1.33-0.005c-1.307,1.307-2.614,2.613-3.922,3.92
		c-0.052,0.052-0.106,0.101-0.168,0.159c-0.062-0.059-0.116-0.107-0.168-0.159c-1.302-1.302-2.604-2.604-3.907-3.906
		c-0.48-0.48-0.874-0.478-1.359,0.006c-0.479,0.478-0.958,0.957-1.437,1.436c-0.461,0.462-0.462,0.871-0.001,1.332
		c1.302,1.302,2.604,2.604,3.906,3.907c0.056,0.056,0.109,0.115,0.171,0.18c-0.062,0.064-0.111,0.118-0.163,0.17
		c-1.316,1.317-2.633,2.633-3.949,3.95c-0.411,0.412-0.412,0.85-0.003,1.26c0.497,0.498,0.997,0.995,1.496,1.492
		c0.462,0.46,0.867,0.458,1.331-0.006c1.303-1.302,2.606-2.603,3.907-3.906C599.318,56.35,599.354,56.282,599.437,56.168z"/>
	<path display="inline" d="M599.437,56.168c-0.082,0.114-0.119,0.182-0.171,0.234c-1.301,1.303-2.604,2.605-3.907,3.906
		c-0.464,0.464-0.87,0.465-1.331,0.006c-0.499-0.497-0.998-0.993-1.496-1.492c-0.409-0.41-0.409-0.848,0.003-1.26
		c1.316-1.317,2.633-2.633,3.949-3.95c0.052-0.052,0.102-0.106,0.163-0.17c-0.062-0.065-0.115-0.124-0.171-0.18
		c-1.302-1.302-2.604-2.604-3.906-3.907c-0.461-0.461-0.46-0.87,0.001-1.332c0.479-0.479,0.958-0.957,1.437-1.436
		c0.485-0.485,0.878-0.487,1.359-0.006c1.302,1.302,2.604,2.604,3.907,3.906c0.052,0.052,0.106,0.1,0.168,0.159
		c0.062-0.059,0.116-0.108,0.168-0.159c1.307-1.307,2.614-2.613,3.922-3.92c0.46-0.46,0.865-0.458,1.33,0.005
		c0.494,0.492,0.988,0.984,1.481,1.478c0.419,0.42,0.421,0.856,0.002,1.275c-1.311,1.312-2.623,2.624-3.936,3.934
		c-0.052,0.052-0.115,0.095-0.192,0.158c0.076,0.08,0.128,0.138,0.183,0.193c1.307,1.307,2.614,2.614,3.92,3.922
		c0.451,0.452,0.453,0.869,0.004,1.318c-0.498,0.498-0.995,0.996-1.494,1.493c-0.421,0.419-0.85,0.418-1.274-0.005
		c-1.308-1.306-2.615-2.613-3.92-3.921C599.576,56.36,599.532,56.29,599.437,56.168z"/>
</g>
<g>
	<line fill="none" stroke="#B35047" x1="32" y1="0" x2="32" y2="512"/>
	<line fill="none" stroke="#B35047" x1="64" y1="0" x2="64" y2="512"/>
	<line fill="none" stroke="#B35047" x1="96" y1="0" x2="96" y2="512"/>
	<line fill="none" stroke="#B35047" x1="128" y1="0" x2="128" y2="512"/>
	<line fill="none" stroke="#B35047" x1="160" y1="0" x2="160" y2="512"/>
	<line fill="none" stroke="#B35047" x1="192" y1="0" x2="192" y2="512"/>
	<line fill="none" stroke="#B35047" x1="224" y1="0" x2="224" y2="512"/>
	<line fill="none" stroke="#B35047" x1="256" y1="0" x2="256" y2="512"/>
	<line fill="none" stroke="#B35047" x1="288" y1="0" x2="288" y2="512"/>
	<line fill="none" stroke="#B35047" x1="320" y1="0" x2="320" y2="512"/>
	<line fill="none" stroke="#B35047" x1="352" y1="0" x2="352" y2="512"/>
	<line fill="none" stroke="#B35047" x1="384" y1="0" x2="384" y2="512"/>
	<line fill="none" stroke="#B35047" x1="416" y1="0" x2="416" y2="512"/>
	<line fill="none" stroke="#B35047" x1="448" y1="0" x2="448" y2="512"/>
	<line fill="none" stroke="#B35047" x1="480" y1="0" x2="480" y2="512"/>
	<line fill="none" stroke="#B35047" x1="0" y1="32" x2="512" y2="32"/>
	<line fill="none" stroke="#B35047" x1="0" y1="64" x2="512" y2="64"/>
	<line fill="none" stroke="#B35047" x1="0" y1="96" x2="512" y2="96"/>
	<line fill="none" stroke="#B35047" x1="0" y1="128" x2="512" y2="128"/>
	<line fill="none" stroke="#B35047" x1="0" y1="160" x2="512" y2="160"/>
	<line fill="none" stroke="#B35047" x1="0" y1="192" x2="512" y2="192"/>
	<line fill="none" stroke="#B35047" x1="0" y1="224" x2="512" y2="224"/>
	<line fill="none" stroke="#B35047" x1="0" y1="256" x2="512" y2="256"/>
	<line fill="none" stroke="#B35047" x1="0" y1="288" x2="512" y2="288"/>
	<line fill="none" stroke="#B35047" x1="0" y1="320" x2="512" y2="320"/>
	<line fill="none" stroke="#B35047" x1="0" y1="352" x2="512" y2="352"/>
	<line fill="none" stroke="#B35047" x1="0" y1="384" x2="512" y2="384"/>
	<line fill="none" stroke="#B35047" x1="0" y1="416" x2="512" y2="416"/>
	<line fill="none" stroke="#B35047" x1="0" y1="448" x2="512" y2="448"/>
	<line fill="none" stroke="#B35047" x1="0" y1="480" x2="512" y2="480"/>
	<rect x="0" fill="none" stroke="#B35047" width="512" height="512"/>
</g>
<image display="none" overflow="visible" width="512" height="512" xlink:href="../../../Knowledge/Icon/[+++++] (Full) Windows 8 Icons [icons8]/Users/add_user/add_user-512.png"  transform="matrix(0.0406 0 0 0.0406 613 69)">
</image>
<image display="none" overflow="visible" width="512" height="512" xlink:href="../../../Knowledge/Icon/[+++++] (Full) Windows 8 Icons [icons8]/Users/student/student-512_.png"  transform="matrix(0.0406 0 0 0.0406 613 69)">
</image>
<image display="none" overflow="visible" width="512" height="512" xlink:href="../../../Knowledge/Icon/[+++++] (Full) Windows 8 Icons [icons8]/Users/talk/talk-512.png"  transform="matrix(0.0406 0 0 0.0406 613 69)">
</image>
<image display="none" overflow="visible" width="512" height="512" xlink:href="../../../Knowledge/Icon/[+++++] (Full) Windows 8 Icons [icons8]/Users/group/group-512.png"  transform="matrix(0.0406 0 0 0.0406 613 69)">
</image>
<image display="none" overflow="visible" width="512" height="512" xlink:href="../../../Knowledge/Icon/[+++++] (Full) Windows 8 Icons [icons8]/Users/conference/conference-512.png"  transform="matrix(0.0406 0 0 0.0406 613 69)">
</image>
<g>
	<path display="none" fill="#FFFFFF" d="M633.834,89.841c-6.929,0-13.86,0-20.793,0c0-6.931,0-13.862,0-20.796
		c6.928,0,13.858,0,20.793,0C633.834,75.974,633.834,82.907,633.834,89.841z M627.14,82.648c-0.075-0.043-0.132-0.078-0.191-0.11
		c-0.867-0.477-1.773-0.866-2.708-1.186c-0.391-0.134-0.603-0.421-0.63-0.813c-0.019-0.285,0.031-0.576,0.073-0.861
		c0.018-0.12,0.068-0.255,0.147-0.345c0.774-0.872,1.294-1.881,1.616-2.992c0.347-1.197,0.468-2.416,0.221-3.651
		c-0.223-1.122-0.735-2.075-1.686-2.748c-0.915-0.647-1.946-0.838-3.047-0.741c-1.674,0.148-3.041,1.249-3.543,2.849
		c-0.314,1.002-0.352,2.019-0.206,3.05c0.221,1.561,0.787,2.971,1.825,4.177c0.589,0.684,0.33,1.733-0.5,2.076
		c-0.574,0.237-1.153,0.468-1.712,0.737c-0.91,0.437-1.783,0.94-2.549,1.609c-0.729,0.637-1.215,1.363-1.146,2.406
		c0.046,0.694,0.315,1.199,0.866,1.584c0.592,0.414,1.265,0.636,1.957,0.805c1.008,0.246,2.034,0.392,3.07,0.419
		c1.406,0.037,2.814,0.037,4.221,0.051c0.068,0.001,0.136-0.014,0.251-0.027c-0.136-0.103-0.221-0.183-0.319-0.239
		c-0.415-0.24-0.829-0.482-1.253-0.707c-1.188-0.63-1.685-2.001-1.088-3.201c0.268-0.539,0.645-1.031,1.023-1.504
		c0.307-0.383,0.757-0.582,1.24-0.68c0.83-0.169,1.599,0.022,2.319,0.431c0.321,0.182,0.619,0.404,0.933,0.611
		C626.587,83.325,626.856,82.996,627.14,82.648z M626.57,86.356c-0.036-0.042-0.065-0.076-0.094-0.11
		c-0.284-0.336-0.55-0.688-0.855-1.002c-0.441-0.453-0.929-0.847-1.559-1.023c-0.563-0.158-0.952-0.028-1.28,0.449
		c-0.153,0.223-0.312,0.442-0.459,0.67c-0.281,0.435-0.156,0.948,0.29,1.206c0.105,0.061,0.216,0.112,0.326,0.164
		c0.77,0.368,1.475,0.832,2.059,1.456c0.285,0.305,0.529,0.649,0.788,0.978c0.067,0.085,0.12,0.18,0.187,0.266
		c0.382,0.49,0.974,0.433,1.234-0.13c0.365-0.792,0.709-1.593,1.071-2.386c1.18-2.59,2.872-4.778,5.127-6.524
		c0.07-0.054,0.137-0.111,0.206-0.167C630.504,81.38,628.094,83.352,626.57,86.356z"/>
	<path d="M349.911,335.056c-7.038,8.618-13.709,16.787-20.269,24.82c-7.784-5.136-15.186-10.622-23.137-15.143
		c-17.862-10.159-36.929-14.894-57.522-10.698c-11.98,2.441-23.156,7.365-30.762,16.876c-9.38,11.729-18.74,23.938-25.383,37.296
		c-14.806,29.771-2.481,63.772,26.974,79.385c10.503,5.567,20.775,11.576,31.071,17.522c2.432,1.405,4.54,3.372,7.92,5.932
		c-2.856,0.321-4.54,0.689-6.221,0.672c-34.894-0.349-69.797-0.348-104.677-1.258c-25.694-0.67-51.123-4.296-76.131-10.398
		c-17.175-4.191-33.853-9.697-48.541-19.968c-13.643-9.54-20.325-22.063-21.466-39.274c-1.715-25.871,10.342-43.879,28.418-59.665
		c18.999-16.592,40.654-29.049,63.223-39.898c13.88-6.672,28.219-12.408,42.467-18.287c20.593-8.496,26.999-34.522,12.403-51.485
		c-25.726-29.897-39.767-64.867-45.254-103.588c-3.624-25.574-2.694-50.796,5.106-75.646c12.456-39.683,46.359-66.998,87.877-70.662
		c27.304-2.41,52.876,2.334,75.567,18.379c23.6,16.689,36.283,40.334,41.824,68.155c6.101,30.628,3.11,60.85-5.493,90.537
		c-7.981,27.54-20.894,52.577-40.084,74.191c-1.965,2.213-3.203,5.559-3.64,8.545c-1.036,7.071-2.279,14.304-1.799,21.359
		c0.662,9.729,5.92,16.853,15.626,20.173c23.201,7.936,45.662,17.585,67.167,29.405
		C346.625,333.132,348.047,333.983,349.911,335.056z"/>
	<path d="M335.778,427.021c37.801-74.519,97.567-123.417,174.617-152.603c-1.702,1.382-3.377,2.8-5.111,4.142
		c-55.92,43.294-97.896,97.56-127.156,161.792c-8.962,19.673-17.503,39.538-26.551,59.17c-6.432,13.956-21.113,15.37-30.596,3.22
		c-1.649-2.113-2.969-4.483-4.631-6.585c-6.442-8.149-12.472-16.695-19.551-24.254c-14.497-15.478-31.986-26.981-51.072-36.106
		c-2.721-1.301-5.47-2.571-8.079-4.077c-11.063-6.386-14.159-19.112-7.19-29.906c3.638-5.635,7.576-11.077,11.376-16.608
		c8.136-11.845,17.772-15.063,31.743-11.147c15.62,4.378,27.718,14.141,38.655,25.372c7.584,7.788,14.178,16.541,21.216,24.862
		C334.167,425.143,334.894,425.987,335.778,427.021z"/>
</g>
<g display="none">
	<path fill="#FFFFFF" d="M633.834,89.841c-6.929,0-13.86,0-20.793,0c0-6.931,0-13.862,0-20.796c6.928,0,13.858,0,20.793,0
		C633.834,75.974,633.834,82.907,633.834,89.841z M623.472,89.743c1.658-0.027,3.315-0.062,4.954-0.353
		c0.874-0.155,1.734-0.361,2.526-0.782c0.822-0.437,1.343-1.061,1.26-2.055c-0.006-0.067-0.002-0.135-0.001-0.203
		c0.011-0.463-0.133-0.876-0.393-1.255c-0.422-0.614-0.992-1.068-1.602-1.477c-1.154-0.773-2.415-1.328-3.725-1.771
		c-0.522-0.177-0.776-0.521-0.788-1.05c-0.01-0.472,0.071-0.905,0.414-1.29c0.856-0.959,1.41-2.087,1.754-3.324
		c0.306-1.101,0.381-2.21,0.151-3.331c-0.233-1.134-0.769-2.094-1.72-2.779c-1.216-0.876-2.58-1.085-4.018-0.763
		c-1.636,0.367-2.728,1.375-3.257,2.967c-0.382,1.147-0.376,2.319-0.115,3.486c0.333,1.484,0.983,2.815,2.017,3.945
		c0.041,0.045,0.09,0.088,0.114,0.142c0.361,0.84,0.093,1.658-0.696,1.96c-0.612,0.234-1.218,0.488-1.809,0.768
		c-0.943,0.447-1.853,0.955-2.646,1.644c-0.5,0.433-0.98,0.897-1.14,1.565c-0.082,0.342-0.071,0.71-0.077,1.066
		c-0.008,0.461,0.158,0.871,0.496,1.181c0.242,0.221,0.513,0.423,0.801,0.579c0.862,0.467,1.81,0.663,2.767,0.817
		C620.305,89.684,621.888,89.719,623.472,89.743z"/>
	<path display="inline" d="M256.612,511c-39.246-0.582-78.486-1.437-117.349-7.724c-23.707-3.835-47.219-8.681-68.572-20.261
		c-7.13-3.867-13.854-8.872-19.844-14.359c-8.386-7.683-12.483-17.848-12.292-29.283c0.147-8.838-0.14-17.952,1.896-26.432
		c3.972-16.544,15.867-28.051,28.25-38.787c19.679-17.06,42.231-29.657,65.596-40.74c14.662-6.955,29.685-13.233,44.843-19.04
		c19.546-7.489,26.189-27.769,17.246-48.589c-0.571-1.33-1.799-2.404-2.814-3.513c-25.636-28.008-41.758-60.989-49.999-97.781
		c-6.479-28.927-6.621-57.989,2.837-86.411c13.13-39.454,40.177-64.428,80.739-73.528c35.652-7.999,69.466-2.808,99.595,18.901
		c23.57,16.983,36.86,40.784,42.641,68.888c5.716,27.787,3.861,55.279-3.734,82.564c-8.533,30.656-22.258,58.616-43.481,82.376
		c-8.508,9.525-10.515,20.26-10.26,31.965c0.285,13.113,6.586,21.659,19.521,26.036c32.47,10.987,63.718,24.748,92.331,43.906
		c15.122,10.125,29.247,21.378,39.709,36.601c6.45,9.386,10.013,19.635,9.751,31.108c-0.038,1.677-0.127,3.366,0.013,5.032
		c2.067,24.638-10.841,40.122-31.227,50.945c-19.629,10.42-40.934,15.53-62.608,19.379C338.779,509.463,297.7,510.335,256.612,511z"
		/>
</g>
</svg>
