<?xml version="1.0" encoding="utf-8"?>
<!-- Generator: Adobe Illustrator 17.0.0, SVG Export Plug-In . SVG Version: 6.00 Build 0)  -->
<!DOCTYPE svg PUBLIC "-//W3C//DTD SVG 1.1//EN" "http://www.w3.org/Graphics/SVG/1.1/DTD/svg11.dtd">
<svg version="1.1" id="Layer_1" xmlns="http://www.w3.org/2000/svg" xmlns:xlink="http://www.w3.org/1999/xlink" x="0px" y="0px"
	 width="512px" height="512px" viewBox="0 0 512 512" enable-background="new 0 0 512 512" xml:space="preserve">
<g>
	<line fill="none" stroke="#B35047" x1="32" y1="0" x2="32" y2="512"/>
	<line fill="none" stroke="#B35047" x1="64" y1="0" x2="64" y2="512"/>
	<line fill="none" stroke="#B35047" x1="96" y1="0" x2="96" y2="512"/>
	<line fill="none" stroke="#B35047" x1="128" y1="0" x2="128" y2="512"/>
	<line fill="none" stroke="#B35047" x1="160" y1="0" x2="160" y2="512"/>
	<line fill="none" stroke="#B35047" x1="192" y1="0" x2="192" y2="512"/>
	<line fill="none" stroke="#B35047" x1="224" y1="0" x2="224" y2="512"/>
	<line fill="none" stroke="#B35047" x1="256" y1="0" x2="256" y2="512"/>
	<line fill="none" stroke="#B35047" x1="288" y1="0" x2="288" y2="512"/>
	<line fill="none" stroke="#B35047" x1="320" y1="0" x2="320" y2="512"/>
	<line fill="none" stroke="#B35047" x1="352" y1="0" x2="352" y2="512"/>
	<line fill="none" stroke="#B35047" x1="384" y1="0" x2="384" y2="512"/>
	<line fill="none" stroke="#B35047" x1="416" y1="0" x2="416" y2="512"/>
	<line fill="none" stroke="#B35047" x1="448" y1="0" x2="448" y2="512"/>
	<line fill="none" stroke="#B35047" x1="480" y1="0" x2="480" y2="512"/>
	<line fill="none" stroke="#B35047" x1="0" y1="32" x2="512" y2="32"/>
	<line fill="none" stroke="#B35047" x1="0" y1="64" x2="512" y2="64"/>
	<line fill="none" stroke="#B35047" x1="0" y1="96" x2="512" y2="96"/>
	<line fill="none" stroke="#B35047" x1="0" y1="128" x2="512" y2="128"/>
	<line fill="none" stroke="#B35047" x1="0" y1="160" x2="512" y2="160"/>
	<line fill="none" stroke="#B35047" x1="0" y1="192" x2="512" y2="192"/>
	<line fill="none" stroke="#B35047" x1="0" y1="224" x2="512" y2="224"/>
	<line fill="none" stroke="#B35047" x1="0" y1="256" x2="512" y2="256"/>
	<line fill="none" stroke="#B35047" x1="0" y1="288" x2="512" y2="288"/>
	<line fill="none" stroke="#B35047" x1="0" y1="320" x2="512" y2="320"/>
	<line fill="none" stroke="#B35047" x1="0" y1="352" x2="512" y2="352"/>
	<line fill="none" stroke="#B35047" x1="0" y1="384" x2="512" y2="384"/>
	<line fill="none" stroke="#B35047" x1="0" y1="416" x2="512" y2="416"/>
	<line fill="none" stroke="#B35047" x1="0" y1="448" x2="512" y2="448"/>
	<line fill="none" stroke="#B35047" x1="0" y1="480" x2="512" y2="480"/>
	<rect x="0" fill="none" stroke="#B35047" width="512" height="512"/>
</g>
<g display="none">
	<path fill="#FFFFFF" d="M637.834,137.841c-6.929,0-13.86,0-20.793,0c0-6.931,0-13.862,0-20.796c6.928,0,13.858,0,20.793,0
		C637.834,123.974,637.834,130.907,637.834,137.841z M624.836,123.258c-0.049-0.079-0.08-0.161-0.136-0.217
		c-1.333-1.338-2.669-2.673-4.006-4.007c-0.09-0.09-0.189-0.175-0.295-0.246c-0.375-0.248-0.917-0.09-1.104,0.317
		c-0.168,0.365-0.092,0.678,0.25,1.02c5.261,5.261,10.522,10.522,15.784,15.782c0.081,0.081,0.17,0.155,0.266,0.218
		c0.383,0.252,0.927,0.086,1.112-0.333c0.158-0.359,0.087-0.661-0.238-0.987c-1.871-1.872-3.741-3.745-5.618-5.612
		c-0.157-0.156-0.217-0.311-0.216-0.531c0.007-2.931,0.005-5.863,0.003-8.794c0-0.155-0.008-0.312-0.034-0.465
		c-0.095-0.554-0.589-0.822-1.094-0.578c-0.196,0.095-0.38,0.236-0.537,0.389c-1.309,1.275-2.611,2.558-3.916,3.839
		C625.003,123.104,624.949,123.153,624.836,123.258z M620.251,127.47c0,0.758,0,1.516,0,2.274c0,0.63,0.303,0.933,0.932,0.934
		c0.812,0.001,1.624-0.004,2.436,0.006c0.107,0.001,0.237,0.055,0.314,0.129c0.625,0.599,1.241,1.209,1.859,1.815
		c1.048,1.028,2.096,2.057,3.145,3.085c0.111,0.109,0.227,0.214,0.351,0.306c0.259,0.191,0.548,0.29,0.855,0.143
		c0.31-0.148,0.445-0.439,0.457-0.763c0.026-0.703,0.023-1.406,0.039-2.109c0.003-0.153-0.039-0.262-0.15-0.373
		c-2.717-2.71-5.438-5.415-8.133-8.147c-0.374-0.379-0.739-0.539-1.254-0.493c-0.536,0.048-0.851,0.338-0.852,0.878
		C620.249,125.927,620.251,126.699,620.251,127.47z"/>
	<path display="inline" d="M113.379,152.498c2.752-2.567,4.08-3.753,5.35-4.999c31.842-31.259,63.623-62.581,95.589-93.713
		c3.837-3.737,8.324-7.17,13.117-9.489c12.341-5.972,24.401,0.575,26.714,14.105c0.636,3.723,0.835,7.56,0.837,11.345
		c0.047,71.562,0.09,143.123-0.077,214.684c-0.013,5.36,1.45,9.156,5.276,12.962c45.816,45.57,91.471,91.302,137.153,137.007
		c7.937,7.941,9.677,15.326,5.816,24.086c-4.512,10.238-17.809,14.282-27.151,8.14c-2.326-1.529-4.515-3.355-6.486-5.325
		C241.06,332.895,112.629,204.461-15.8,76.025c-8.35-8.351-10.204-15.995-6.102-24.913c4.569-9.933,17.793-13.803,26.957-7.74
		c2.594,1.716,5.006,3.793,7.212,5.994c32.642,32.567,65.248,65.171,97.799,97.83C111.437,148.572,112.193,150.56,113.379,152.498z"
		/>
	<path display="inline" d="M1.445,255.33c0.001-18.834-0.039-37.668,0.014-56.502c0.037-13.172,7.716-20.256,20.808-21.428
		c12.577-1.126,21.478,2.766,30.609,12.024c65.775,66.693,132.215,132.73,198.541,198.879c2.719,2.711,3.751,5.385,3.665,9.109
		c-0.397,17.164-0.312,34.343-0.959,51.495c-0.299,7.913-3.598,14.995-11.163,18.619c-7.492,3.589-14.554,1.183-20.865-3.481
		c-3.04-2.247-5.862-4.831-8.569-7.48c-25.623-25.074-51.198-50.197-76.789-75.303c-15.095-14.809-30.12-29.692-45.389-44.319
		c-1.879-1.801-5.064-3.114-7.664-3.148c-19.822-0.258-39.648-0.122-59.473-0.148c-15.373-0.021-22.752-7.428-22.764-22.807
		C1.434,292.336,1.445,273.833,1.445,255.33z"/>
</g>
<g display="none">
	<path fill="#FFFFFF" d="M617.041,117.041c6.933,0,13.867,0,20.8,0c0,6.933,0,13.867,0,20.8c-6.933,0-13.867,0-20.8,0
		C617.041,130.907,617.041,123.974,617.041,117.041z M630.638,127.337c0-2.504,0.001-5.008-0.001-7.512
		c0-0.155-0.008-0.312-0.035-0.465c-0.097-0.555-0.59-0.82-1.096-0.573c-0.202,0.099-0.39,0.245-0.552,0.402
		c-1.671,1.631-3.336,3.268-4.999,4.907c-0.111,0.109-0.222,0.151-0.374,0.15c-0.805-0.006-1.611-0.004-2.416-0.002
		c-0.603,0.001-0.913,0.312-0.913,0.913c-0.001,1.516-0.001,3.032,0,4.548c0,0.628,0.304,0.932,0.934,0.933
		c0.805,0.001,1.611,0.004,2.416-0.003c0.148-0.001,0.251,0.046,0.355,0.148c1.659,1.633,3.321,3.264,4.985,4.892
		c0.135,0.132,0.277,0.263,0.436,0.361c0.519,0.321,1.027,0.124,1.182-0.463c0.058-0.219,0.075-0.454,0.075-0.682
		C630.64,132.373,630.638,129.855,630.638,127.337z M634.629,127.45c0.004-1.418-0.946-2.689-2.299-3.071
		c-0.337-0.095-0.645-0.047-0.88,0.238c-0.226,0.274-0.251,0.575-0.085,0.887c0.13,0.244,0.364,0.346,0.612,0.433
		c0.639,0.225,1.07,0.837,1.069,1.506c-0.001,0.67-0.432,1.274-1.071,1.506c-0.107,0.039-0.215,0.083-0.314,0.139
		c-0.33,0.185-0.481,0.581-0.357,0.918c0.144,0.392,0.498,0.611,0.889,0.525C633.519,130.238,634.622,129.003,634.629,127.45z"/>
	<path display="inline" d="M255.746,253.442c0,61.745,0.046,123.49-0.078,185.235c-0.011,5.589-0.428,11.357-1.845,16.728
		c-3.803,14.41-16.281,19.231-28.998,11.362c-3.902-2.414-7.389-5.628-10.692-8.859c-40.81-39.933-81.57-79.916-122.26-119.971
		c-2.551-2.511-5.06-3.66-8.699-3.628c-19.75,0.173-39.503,0.101-59.255,0.075c-15.451-0.02-22.903-7.469-22.908-22.88
		c-0.012-37.18-0.016-74.359,0.003-111.539c0.008-14.747,7.603-22.354,22.397-22.387c19.752-0.045,39.504-0.091,59.255,0.058
		c3.742,0.028,6.456-0.994,9.177-3.677c40.774-40.206,81.615-80.345,122.593-120.342c3.967-3.872,8.586-7.453,13.537-9.869
		c12.41-6.056,24.501,0.46,26.887,14.063c0.655,3.735,0.849,7.592,0.852,11.393C255.761,130.617,255.746,192.03,255.746,253.442z"/>
	<path display="inline" d="M353.62,256.202c-0.178,38.094-27.209,68.371-59.743,75.539c-9.598,2.115-18.269-3.259-21.801-12.878
		c-3.038-8.275,0.662-17.983,8.753-22.522c2.439-1.368,5.072-2.441,7.708-3.398c15.662-5.684,26.228-20.493,26.257-36.927
		c0.029-16.392-10.536-31.404-26.207-36.922c-6.067-2.136-11.811-4.633-15.002-10.625c-4.071-7.642-3.471-15.026,2.075-21.747
		c5.76-6.981,13.295-8.171,21.57-5.836C330.412,190.249,353.715,221.428,353.62,256.202z"/>
</g>
<g>
	<path display="none" fill="#FFFFFF" d="M617.041,124.881c0-2.614,0-5.227,0-7.841c6.933,0,13.867,0,20.8,0c0,3.318,0,6.635,0,9.953
		c-0.042-0.327-0.072-0.657-0.128-0.982c-0.427-2.448-1.665-4.387-3.695-5.813c-0.362-0.254-0.758-0.476-1.167-0.645
		c-0.443-0.184-0.937,0.173-0.983,0.648c-0.04,0.416,0.173,0.669,0.515,0.858c2.192,1.212,3.491,3.051,3.804,5.542
		c0.238,1.897-0.247,3.623-1.382,5.159c-0.646,0.873-1.459,1.557-2.421,2.063c-0.241,0.127-0.442,0.295-0.503,0.576
		c-0.066,0.307,0.006,0.577,0.255,0.784c0.26,0.217,0.557,0.253,0.852,0.105c0.326-0.163,0.647-0.343,0.947-0.548
		c1.952-1.336,3.196-3.159,3.701-5.473c0.099-0.453,0.139-0.919,0.206-1.38c0,3.316,0,6.632,0,9.951c-6.933,0-13.867,0-20.8,0
		c0-2.614,0-5.226,0-7.838c0.185,0.512,0.571,0.659,1.085,0.644c0.757-0.022,1.516-0.002,2.274-0.009
		c0.147-0.001,0.251,0.043,0.356,0.146c1.664,1.638,3.33,3.274,5,4.906c0.144,0.141,0.301,0.277,0.474,0.376
		c0.479,0.273,0.946,0.093,1.111-0.433c0.066-0.209,0.09-0.439,0.091-0.659c0.005-5.083,0.004-10.166,0.002-15.249
		c0-0.141-0.013-0.285-0.045-0.422c-0.122-0.512-0.593-0.751-1.065-0.523c-0.202,0.098-0.393,0.241-0.555,0.399
		c-1.667,1.626-3.328,3.257-4.985,4.892c-0.132,0.13-0.262,0.181-0.445,0.178c-0.738-0.009-1.476,0.013-2.213-0.01
		C617.612,124.222,617.226,124.369,617.041,124.881z M634.639,127.628c-0.034-2.002-0.686-3.55-1.989-4.812
		c-0.448-0.434-0.938-0.82-1.527-1.053c-0.287-0.114-0.634,0.001-0.84,0.249c-0.193,0.233-0.245,0.632-0.066,0.871
		c0.125,0.166,0.297,0.314,0.477,0.42c1.761,1.043,2.687,3.144,2.244,5.137c-0.307,1.38-1.076,2.431-2.29,3.156
		c-0.22,0.131-0.414,0.283-0.489,0.541c-0.09,0.308,0.008,0.636,0.244,0.824c0.291,0.232,0.625,0.255,0.98,0.044
		C633.491,131.748,634.545,129.876,634.639,127.628z M631.427,127.446c0.004-1.415-0.917-2.653-2.281-3.062
		c-0.336-0.101-0.644-0.06-0.884,0.219c-0.233,0.271-0.264,0.588-0.094,0.903c0.116,0.214,0.314,0.324,0.537,0.403
		c0.714,0.253,1.139,0.832,1.137,1.536c-0.002,0.697-0.427,1.27-1.126,1.524c-0.088,0.032-0.176,0.071-0.257,0.117
		c-0.338,0.192-0.48,0.582-0.346,0.94c0.139,0.371,0.501,0.587,0.884,0.502C630.324,130.236,631.428,128.988,631.427,127.446z"/>
	<path d="M1,193.243c4.549-12.559,14.005-16.16,26.606-15.781c18.072,0.544,36.175,0.002,54.261,0.235
		c4.484,0.058,7.68-1.187,10.908-4.372C133.411,133.23,174.142,93.23,215.007,53.37c3.964-3.866,8.634-7.38,13.596-9.775
		c11.573-5.586,23.115,0.279,26.111,12.822c0.8,3.35,1.113,6.892,1.115,10.347c0.055,124.629,0.073,249.259-0.045,373.888
		c-0.005,5.403-0.61,11.038-2.222,16.16c-4.062,12.904-15.494,17.299-27.251,10.612c-4.255-2.42-8.104-5.776-11.631-9.224
		c-40.936-40.026-81.796-80.13-122.589-120.303c-2.569-2.53-5.114-3.612-8.729-3.58c-18.585,0.166-37.184-0.325-55.755,0.216
		C15.006,334.9,5.549,331.309,1,318.751C1,276.915,1,235.079,1,193.243z"/>
	<path d="M511,266.954c-1.646,11.285-2.626,22.715-5.05,33.829c-12.375,56.737-42.875,101.427-90.736,134.195
		c-7.362,5.04-15.232,9.44-23.216,13.439c-7.23,3.622-14.513,2.732-20.898-2.577c-6.096-5.068-7.87-11.699-6.242-19.226
		c1.488-6.879,6.404-11.004,12.325-14.116c23.588-12.399,43.526-29.162,59.354-50.577c27.849-37.677,39.74-80,33.896-126.501
		c-7.675-61.076-39.51-106.169-93.262-135.885c-8.392-4.64-13.627-10.843-12.635-21.044c1.132-11.639,13.246-20.379,24.113-15.879
		c10.015,4.147,19.726,9.581,28.607,15.821c49.77,34.969,80.134,82.506,90.599,142.534c1.389,7.965,2.112,16.046,3.144,24.073
		C511,252.344,511,259.649,511,266.954z"/>
	<path d="M432.506,260.596c-2.303,55.119-28.156,101.02-79.816,131.815c-8.686,5.178-16.885,4.633-24.023-1.067
		c-5.782-4.616-8.194-12.64-5.986-20.203c1.851-6.341,6.601-10.057,11.996-13.276c29.763-17.757,48.62-43.524,56.14-77.371
		c10.854-48.855-11.863-100.38-55.032-125.954c-4.416-2.616-8.635-6.222-11.7-10.304c-4.394-5.852-3.119-15.637,1.624-21.352
		c5.036-6.067,13.554-8.882,20.591-6.098c14.428,5.707,26.452,15.186,37.436,25.824
		C415.694,173.564,431.663,211.519,432.506,260.596z"/>
	<path d="M353.74,256.139c0.034,37.802-27.031,68.405-59.603,75.592c-9.389,2.072-18.266-3.216-21.673-12.321
		c-3.282-8.77,0.192-18.332,8.483-23.05c2.002-1.139,4.142-2.088,6.309-2.875c17.156-6.23,27.57-20.284,27.614-37.379
		c0.045-17.268-10.383-31.448-27.888-37.656c-5.474-1.941-10.314-4.616-13.161-9.874c-4.184-7.727-3.419-15.504,2.292-22.137
		c5.895-6.847,13.444-7.852,21.687-5.378C331.244,191.097,353.837,221.454,353.74,256.139z"/>
</g>
</svg>
