<?xml version="1.0" encoding="utf-8"?>
<!-- Generator: Adobe Illustrator 17.0.0, SVG Export Plug-In . SVG Version: 6.00 Build 0)  -->
<!DOCTYPE svg PUBLIC "-//W3C//DTD SVG 1.1//EN" "http://www.w3.org/Graphics/SVG/1.1/DTD/svg11.dtd">
<svg version="1.1" id="Layer_1" xmlns="http://www.w3.org/2000/svg" xmlns:xlink="http://www.w3.org/1999/xlink" x="0px" y="0px"
	 width="512px" height="512px" viewBox="0 0 512 512" enable-background="new 0 0 512 512" xml:space="preserve">
<g>
	<line fill="none" stroke="#B35047" x1="32" y1="0" x2="32" y2="512"/>
	<line fill="none" stroke="#B35047" x1="64" y1="0" x2="64" y2="512"/>
	<line fill="none" stroke="#B35047" x1="96" y1="0" x2="96" y2="512"/>
	<line fill="none" stroke="#B35047" x1="128" y1="0" x2="128" y2="512"/>
	<line fill="none" stroke="#B35047" x1="160" y1="0" x2="160" y2="512"/>
	<line fill="none" stroke="#B35047" x1="192" y1="0" x2="192" y2="512"/>
	<line fill="none" stroke="#B35047" x1="224" y1="0" x2="224" y2="512"/>
	<line fill="none" stroke="#B35047" x1="256" y1="0" x2="256" y2="512"/>
	<line fill="none" stroke="#B35047" x1="288" y1="0" x2="288" y2="512"/>
	<line fill="none" stroke="#B35047" x1="320" y1="0" x2="320" y2="512"/>
	<line fill="none" stroke="#B35047" x1="352" y1="0" x2="352" y2="512"/>
	<line fill="none" stroke="#B35047" x1="384" y1="0" x2="384" y2="512"/>
	<line fill="none" stroke="#B35047" x1="416" y1="0" x2="416" y2="512"/>
	<line fill="none" stroke="#B35047" x1="448" y1="0" x2="448" y2="512"/>
	<line fill="none" stroke="#B35047" x1="480" y1="0" x2="480" y2="512"/>
	<line fill="none" stroke="#B35047" x1="0" y1="32" x2="512" y2="32"/>
	<line fill="none" stroke="#B35047" x1="0" y1="64" x2="512" y2="64"/>
	<line fill="none" stroke="#B35047" x1="0" y1="96" x2="512" y2="96"/>
	<line fill="none" stroke="#B35047" x1="0" y1="128" x2="512" y2="128"/>
	<line fill="none" stroke="#B35047" x1="0" y1="160" x2="512" y2="160"/>
	<line fill="none" stroke="#B35047" x1="0" y1="192" x2="512" y2="192"/>
	<line fill="none" stroke="#B35047" x1="0" y1="224" x2="512" y2="224"/>
	<line fill="none" stroke="#B35047" x1="0" y1="256" x2="512" y2="256"/>
	<line fill="none" stroke="#B35047" x1="0" y1="288" x2="512" y2="288"/>
	<line fill="none" stroke="#B35047" x1="0" y1="320" x2="512" y2="320"/>
	<line fill="none" stroke="#B35047" x1="0" y1="352" x2="512" y2="352"/>
	<line fill="none" stroke="#B35047" x1="0" y1="384" x2="512" y2="384"/>
	<line fill="none" stroke="#B35047" x1="0" y1="416" x2="512" y2="416"/>
	<line fill="none" stroke="#B35047" x1="0" y1="448" x2="512" y2="448"/>
	<line fill="none" stroke="#B35047" x1="0" y1="480" x2="512" y2="480"/>
	<rect x="0" fill="none" stroke="#B35047" width="512" height="512"/>
</g>
<image display="none" overflow="visible" width="512" height="512" xlink:href="../../../Knowledge/Icon/[+++++] (Full) Windows 8 Icons [icons8]/Payment_Methods/shopping_basket/shopping_basket-512.png"  transform="matrix(0.0406 0 0 0.0406 607 53)">
</image>
<image display="none" overflow="visible" width="512" height="512" xlink:href="../../../Knowledge/Icon/[+++++] (Full) Windows 8 Icons [icons8]/Payment_Methods/purse/purse-512.png"  transform="matrix(0.0406 0 0 0.0406 607 53)">
</image>
<image display="none" overflow="visible" width="512" height="512" xlink:href="../../../Knowledge/Icon/[+++++] (Full) Windows 8 Icons [icons8]/Payment_Methods/moneybox/moneybox-512.png"  transform="matrix(0.0406 0 0 0.0406 607 53)">
</image>
<image display="none" overflow="visible" width="512" height="512" xlink:href="../../../Knowledge/Icon/[+++++] (Full) Windows 8 Icons [icons8]/Payment_Methods/coins/coins-512.png"  transform="matrix(0.0406 0 0 0.0406 607 53)">
</image>
<image display="none" overflow="visible" width="512" height="512" xlink:href="../../../Knowledge/Icon/[+++++] (Full) Windows 8 Icons [icons8]/Payment_Methods/check_book/check_book-512.png"  transform="matrix(0.0406 0 0 0.0406 607 53)">
</image>
<image display="none" overflow="visible" width="512" height="512" xlink:href="../../../Knowledge/Icon/[+++++] (Full) Windows 8 Icons [icons8]/Payment_Methods/cash_receiving/cash_receiving-512.png"  transform="matrix(0.0406 0 0 0.0406 607 53)">
</image>
<image display="none" overflow="visible" width="512" height="512" xlink:href="../../../Knowledge/Icon/[+++++] (Full) Windows 8 Icons [icons8]/Payment_Methods/card_in_use/card_in_use-512.png"  transform="matrix(0.0406 0 0 0.0406 607 53)">
</image>
<image display="none" overflow="visible" width="512" height="512" xlink:href="../../../Knowledge/Icon/[+++++] (Full) Windows 8 Icons [icons8]/Payment_Methods/card_inserting/card_inserting-512.png"  transform="matrix(0.0406 0 0 0.0406 607 53)">
</image>
<image display="none" overflow="visible" width="512" height="512" xlink:href="../../../Knowledge/Icon/[+++++] (Full) Windows 8 Icons [icons8]/Payment_Methods/barcode/barcode-512.png"  transform="matrix(0.0406 0 0 0.0406 607 53)">
</image>
<image display="none" overflow="visible" width="512" height="512" xlink:href="../../../Knowledge/Icon/[+++++] (Full) Windows 8 Icons [icons8]/Payment_Methods/bank_cards/bank_cards-512.png"  transform="matrix(0.0406 0 0 0.0406 607 53)">
</image>
<image display="none" overflow="visible" width="512" height="512" xlink:href="../../../Knowledge/Icon/[+++++] (Full) Windows 8 Icons [icons8]/Payment_Methods/banknotes/banknotes-512.png"  transform="matrix(0.0406 0 0 0.0406 607 53)">
</image>
<g>
	<path d="M458.207,511c-134.805,0-269.609,0-404.414,0c-0.924-0.323-1.825-0.78-2.777-0.95
		c-23.416-4.179-38.98-17.626-46.924-39.923c-1.372-3.852-2.078-7.941-3.092-11.92C1,336.352,1,214.496,1,92.641
		c3.875-19.758,18.497-27.476,35.967-31.577c9.332-2.191,18.859-3.577,28.326-5.16c48.67-8.14,97.351-16.219,146.026-24.334
		c49-8.169,98.002-16.328,146.992-24.558c11.077-1.861,22.107-4,33.158-6.012c4.648,0,9.297,0,13.945,0
		c5.834,1.076,11.734,1.878,17.488,3.282c13.743,3.354,25.632,10.218,27.576,25.179c2.118,16.303,1.543,32.955,2.155,49.81
		C308.005,85.845,164.527,92.365,21.116,98.883c-0.24,0.926-0.473,1.396-0.466,1.863c0.123,8.478,6.136,14.817,16.834,16.598
		c6.506,1.083,13.208,1.371,19.822,1.375c120.663,0.077,241.326,0.056,361.989,0.056c10.788,0,21.579-0.154,32.364,0.041
		c28.547,0.517,51.046,18.465,57.687,45.826c0.542,2.232,1.102,4.46,1.654,6.689c0,95.625,0,191.25,0,286.875
		c-0.341,1.091-0.796,2.159-1.005,3.275c-4.298,22.956-17.568,38.317-39.398,46.286C466.605,509.224,462.344,509.941,458.207,511z
		 M432.555,354.16c21.457-0.027,39.191-17.669,39.398-39.193c0.206-21.502-17.991-39.561-39.66-39.359
		c-21.756,0.203-39.107,17.712-39.012,39.368C393.377,336.596,411.009,354.187,432.555,354.16z"/>
	<path display="none" fill="#FFFFFF" d="M627.841,59.987c-0.022-0.091-0.045-0.182-0.067-0.273
		c-0.271-1.116-1.188-1.848-2.353-1.869c-0.44-0.008-0.88-0.002-1.32-0.002c-4.921,0-9.842,0.001-14.763-0.002
		c-0.27,0-0.543-0.012-0.808-0.056c-0.436-0.073-0.682-0.331-0.687-0.677c0-0.019,0.009-0.038,0.019-0.076
		c5.849-0.266,11.701-0.532,17.599-0.8c-0.025-0.687-0.002-1.367-0.088-2.031c-0.079-0.61-0.564-0.89-1.125-1.027
		c-0.235-0.057-0.475-0.09-0.713-0.134c1.433,0,2.866,0,4.306,0C627.841,55.356,627.841,57.672,627.841,59.987z"/>
	<path display="none" fill="#FFFFFF" d="M622.966,53.041c-0.451,0.082-0.901,0.169-1.352,0.245
		c-1.998,0.336-3.997,0.668-5.995,1.002c-1.985,0.331-3.971,0.66-5.956,0.992c-0.386,0.065-0.775,0.121-1.155,0.21
		c-0.713,0.167-1.309,0.482-1.467,1.288c0-1.246,0-2.492,0-3.737C612.349,53.041,617.657,53.041,622.966,53.041z"/>
	<path display="none" fill="#FFFFFF" d="M607.041,71.687c0.041,0.162,0.07,0.329,0.126,0.486c0.324,0.909,0.959,1.458,1.914,1.628
		c0.039,0.007,0.076,0.026,0.113,0.039c-0.718,0-1.435,0-2.153,0C607.041,73.123,607.041,72.405,607.041,71.687z"/>
	<path display="none" fill="#FFFFFF" d="M625.688,73.841c0.169-0.043,0.342-0.072,0.505-0.132c0.89-0.325,1.432-0.951,1.607-1.888
		c0.008-0.045,0.027-0.089,0.041-0.134c0,0.718,0,1.435,0,2.153C627.123,73.841,626.405,73.841,625.688,73.841z"/>
	<path display="none" fill="#FFFFFF" d="M624.641,67.444c-0.879,0.001-1.598-0.716-1.602-1.598
		c-0.004-0.883,0.704-1.597,1.591-1.606c0.884-0.008,1.626,0.728,1.617,1.605C626.24,66.723,625.516,67.443,624.641,67.444z"/>
</g>
</svg>
