<?xml version="1.0" encoding="utf-8"?>
<!-- Generator: Adobe Illustrator 17.0.0, SVG Export Plug-In . SVG Version: 6.00 Build 0)  -->
<!DOCTYPE svg PUBLIC "-//W3C//DTD SVG 1.1//EN" "http://www.w3.org/Graphics/SVG/1.1/DTD/svg11.dtd">
<svg version="1.1" id="Layer_1" xmlns="http://www.w3.org/2000/svg" xmlns:xlink="http://www.w3.org/1999/xlink" x="0px" y="0px"
	 width="512px" height="512px" viewBox="0 0 512 512" enable-background="new 0 0 512 512" xml:space="preserve">
<g>
	<line fill="none" stroke="#B35047" x1="32" y1="0" x2="32" y2="512"/>
	<line fill="none" stroke="#B35047" x1="64" y1="0" x2="64" y2="512"/>
	<line fill="none" stroke="#B35047" x1="96" y1="0" x2="96" y2="512"/>
	<line fill="none" stroke="#B35047" x1="128" y1="0" x2="128" y2="512"/>
	<line fill="none" stroke="#B35047" x1="160" y1="0" x2="160" y2="512"/>
	<line fill="none" stroke="#B35047" x1="192" y1="0" x2="192" y2="512"/>
	<line fill="none" stroke="#B35047" x1="224" y1="0" x2="224" y2="512"/>
	<line fill="none" stroke="#B35047" x1="256" y1="0" x2="256" y2="512"/>
	<line fill="none" stroke="#B35047" x1="288" y1="0" x2="288" y2="512"/>
	<line fill="none" stroke="#B35047" x1="320" y1="0" x2="320" y2="512"/>
	<line fill="none" stroke="#B35047" x1="352" y1="0" x2="352" y2="512"/>
	<line fill="none" stroke="#B35047" x1="384" y1="0" x2="384" y2="512"/>
	<line fill="none" stroke="#B35047" x1="416" y1="0" x2="416" y2="512"/>
	<line fill="none" stroke="#B35047" x1="448" y1="0" x2="448" y2="512"/>
	<line fill="none" stroke="#B35047" x1="480" y1="0" x2="480" y2="512"/>
	<line fill="none" stroke="#B35047" x1="0" y1="32" x2="512" y2="32"/>
	<line fill="none" stroke="#B35047" x1="0" y1="64" x2="512" y2="64"/>
	<line fill="none" stroke="#B35047" x1="0" y1="96" x2="512" y2="96"/>
	<line fill="none" stroke="#B35047" x1="0" y1="128" x2="512" y2="128"/>
	<line fill="none" stroke="#B35047" x1="0" y1="160" x2="512" y2="160"/>
	<line fill="none" stroke="#B35047" x1="0" y1="192" x2="512" y2="192"/>
	<line fill="none" stroke="#B35047" x1="0" y1="224" x2="512" y2="224"/>
	<line fill="none" stroke="#B35047" x1="0" y1="256" x2="512" y2="256"/>
	<line fill="none" stroke="#B35047" x1="0" y1="288" x2="512" y2="288"/>
	<line fill="none" stroke="#B35047" x1="0" y1="320" x2="512" y2="320"/>
	<line fill="none" stroke="#B35047" x1="0" y1="352" x2="512" y2="352"/>
	<line fill="none" stroke="#B35047" x1="0" y1="384" x2="512" y2="384"/>
	<line fill="none" stroke="#B35047" x1="0" y1="416" x2="512" y2="416"/>
	<line fill="none" stroke="#B35047" x1="0" y1="448" x2="512" y2="448"/>
	<line fill="none" stroke="#B35047" x1="0" y1="480" x2="512" y2="480"/>
	<rect x="0" fill="none" stroke="#B35047" width="512" height="512"/>
</g>
<image display="none" overflow="visible" width="512" height="512" xlink:href="../../../Knowledge/Icon/[+++++] (Full) Windows 8 Icons [icons8]/Debug/copy_link/copy_link-512.png"  transform="matrix(0.0406 0 0 0.0406 613 26)">
</image>
<image display="none" overflow="visible" width="512" height="512" xlink:href="../../../Knowledge/Icon/[+++++] (Full) Windows 8 Icons [icons8]/Debug/bug/bug-512.png"  transform="matrix(0.0406 0 0 0.0406 613 26)">
</image>
<g>
	<path display="none" fill="#FFFFFF" d="M613.041,26.041c6.933,0,13.867,0,20.8,0c0,6.933,0,13.867,0,20.8c-6.933,0-13.867,0-20.8,0
		C613.041,39.907,613.041,32.974,613.041,26.041z M623.444,46.679c5.663-0.003,10.238-4.581,10.235-10.241
		c-0.003-5.662-4.582-10.239-10.241-10.236c-5.662,0.003-10.239,4.583-10.236,10.242C613.206,42.107,617.784,46.682,623.444,46.679z
		"/>
	<path d="M256.082,511C115.125,511.079,1.088,397.115,1,256.082C0.913,115.148,114.917,1.075,255.929,1
		C396.88,0.925,510.931,114.912,511,255.928C511.069,396.902,397.119,510.921,256.082,511z M51.584,272.662
		c5.827,100.288,93.082,182.971,188.021,187.662c-6.446-7.844-6.048-16.825-5.72-25.736c0.405-11.019,9.763-20.615,20.576-21.336
		c10.971-0.731,21.065,6.939,22.9,17.853c1.693,10.07,2.11,20.093-5.553,29.95c50.99-4.725,93.758-24.381,128.973-59.404
		c35.493-35.299,55.483-78.286,60.277-129.824c-8.681,7.016-17.665,6.632-26.579,6.282c-11.007-0.432-20.63-9.918-21.239-20.678
		c-0.624-11.038,6.997-20.969,17.973-22.81c10.066-1.688,20.082-2.049,29.85,5.548c-4.832-51.757-25.035-94.985-60.96-130.434
		c-35.083-34.618-77.552-54.033-127.354-58.68c5.485,11.527,6.063,14.524,5.387,26.606c-0.615,10.98-10.15,20.634-20.842,21.102
		c-11.162,0.489-20.846-7.021-22.695-18.11c-1.674-10.041-1.96-20.034,5.577-29.795c-58.027,5.871-104.708,30.387-141.867,73.378
		c-25.927,29.995-51.224,92.657-46.131,114.983c7.849-6.266,17.056-5.751,26.117-5.258c10.001,0.544,17.808,8.015,19.977,18.411
		c1.843,8.836-2.528,18.858-11.186,22.727C75.26,280.381,63.328,279.904,51.584,272.662z"/>
	<path display="none" fill="#FFFFFF" d="M615.233,37.11c0.472,0.291,0.951,0.31,1.425,0.098c0.348-0.155,0.523-0.558,0.449-0.913
		c-0.087-0.417-0.401-0.717-0.802-0.739c-0.364-0.02-0.734-0.04-1.049,0.211c-0.204-0.896,0.811-3.412,1.852-4.617
		c1.492-1.726,3.366-2.71,5.696-2.946c-0.303,0.392-0.291,0.793-0.224,1.196c0.074,0.445,0.463,0.747,0.911,0.727
		c0.429-0.019,0.812-0.406,0.837-0.847c0.027-0.485,0.004-0.605-0.216-1.068c2,0.187,3.705,0.966,5.113,2.356
		c1.442,1.423,2.254,3.159,2.448,5.237c-0.392-0.305-0.794-0.291-1.199-0.223c-0.441,0.074-0.747,0.473-0.722,0.916
		c0.024,0.432,0.411,0.813,0.853,0.83c0.358,0.014,0.719,0.029,1.067-0.252c-0.192,2.069-0.995,3.795-2.42,5.213
		c-1.414,1.406-3.131,2.195-5.178,2.385c0.308-0.396,0.291-0.798,0.223-1.203c-0.074-0.438-0.479-0.746-0.919-0.717
		c-0.434,0.029-0.81,0.414-0.826,0.857c-0.013,0.358-0.029,0.718,0.23,1.033C618.97,44.456,615.467,41.136,615.233,37.11z
		 M622.19,36.446c-0.009,0.664,0.55,1.222,1.25,1.249c0.102,0.004,0.223,0.05,0.3,0.117c0.745,0.649,1.48,1.308,2.222,1.96
		c0.26,0.228,0.574,0.23,0.807,0.019c0.268-0.242,0.274-0.577,0.01-0.881c-0.652-0.751-1.307-1.499-1.955-2.253
		c-0.069-0.08-0.12-0.195-0.135-0.3c-0.049-0.357-0.19-0.656-0.468-0.893c-0.056-0.048-0.091-0.147-0.095-0.225
		c-0.047-0.932-0.084-1.865-0.128-2.797c-0.018-0.378-0.029-0.757-0.076-1.132c-0.032-0.258-0.238-0.415-0.473-0.423
		c-0.231-0.008-0.428,0.145-0.496,0.399c-0.024,0.09-0.032,0.186-0.037,0.28c-0.066,1.236-0.128,2.472-0.199,3.707
		c-0.005,0.082-0.054,0.18-0.115,0.237C622.34,35.764,622.211,36.072,622.19,36.446z"/>
	<path d="M224.853,256.146c0.514-9.335,3.728-16.988,10.303-23.283c1.497-1.434,2.735-3.864,2.852-5.906
		c1.765-30.773,3.31-61.558,4.95-92.338c0.124-2.335,0.314-4.724,0.921-6.967c1.709-6.312,6.598-10.122,12.361-9.933
		c5.854,0.191,10.983,4.096,11.782,10.532c1.158,9.331,1.443,18.78,1.887,28.188c1.095,23.22,2.019,46.448,3.183,69.664
		c0.097,1.931,0.971,4.407,2.365,5.592c6.945,5.899,10.441,13.344,11.665,22.243c0.359,2.61,1.635,5.46,3.352,7.461
		c16.125,18.795,32.454,37.414,48.687,56.116c6.567,7.565,6.425,15.914-0.26,21.947c-5.823,5.255-13.641,5.21-20.107-0.475
		c-18.473-16.24-36.792-32.655-55.338-48.81c-1.915-1.668-4.918-2.815-7.466-2.914C238.54,286.586,224.629,272.678,224.853,256.146z
		"/>
</g>
<g display="none">
	<path fill="#FFFFFF" d="M633.841,37.456c0,3.128,0,6.256,0,9.384c-2.532,0-5.065,0-7.597,0c0.264-0.055,0.531-0.098,0.791-0.168
		c1.535-0.41,2.75-1.912,2.778-3.498c0.03-1.712,0.014-3.425,0.017-5.138c0-0.037-0.009-0.073-0.018-0.136
		c-0.066,0.059-0.111,0.097-0.152,0.138c-0.69,0.689-1.376,1.381-2.07,2.066c-0.107,0.105-0.142,0.213-0.141,0.357
		c0.005,0.792,0.009,1.584,0.001,2.376c-0.01,0.966-0.641,1.607-1.582,1.608c-2.952,0.003-5.903,0.003-8.855,0
		c-0.927-0.001-1.576-0.647-1.577-1.571c-0.004-2.958-0.005-5.917,0.006-8.875c0.001-0.242,0.059-0.504,0.164-0.722
		c0.287-0.598,0.805-0.847,1.453-0.847c0.812,0,1.625,0.005,2.437-0.006c0.107-0.001,0.239-0.054,0.315-0.129
		c0.701-0.687,1.393-1.383,2.087-2.078c0.04-0.04,0.075-0.086,0.132-0.153c-0.09-0.007-0.148-0.015-0.206-0.015
		c-1.604-0.001-3.209-0.004-4.813,0.003c-0.289,0.001-0.586,0.017-0.866,0.084c-1.568,0.374-2.567,1.346-2.984,2.906
		c-0.052,0.194-0.08,0.395-0.119,0.593c0-2.529,0-5.059,0-7.597c3.155,0,6.31,0,9.466,0c-0.184,0.04-0.373,0.066-0.551,0.125
		c-0.225,0.074-0.285,0.222-0.17,0.426c0.092,0.163,0.203,0.322,0.334,0.455c0.859,0.873,1.726,1.738,2.59,2.606
		c0.051,0.052,0.1,0.106,0.159,0.168c-0.059,0.062-0.108,0.116-0.16,0.168c-1.392,1.392-2.786,2.784-4.177,4.177
		c-1.018,1.02-1.018,2.43-0.003,3.449c0.592,0.595,1.186,1.188,1.78,1.78c0.096,0.095,0.194,0.19,0.301,0.271
		c0.97,0.736,2.24,0.636,3.134-0.254c1.4-1.394,2.795-2.794,4.192-4.191c0.055-0.055,0.113-0.107,0.188-0.178
		c0.065,0.074,0.111,0.134,0.163,0.186c0.853,0.851,1.704,1.703,2.563,2.547c0.143,0.14,0.313,0.258,0.487,0.359
		c0.183,0.106,0.308,0.052,0.376-0.151C633.768,37.813,633.799,37.633,633.841,37.456z"/>
	<path display="inline" d="M511,280.902c-1.031,4.322-1.777,8.739-3.168,12.942c-1.647,4.977-4.729,6.312-9.21,3.702
		c-4.253-2.477-8.437-5.363-11.934-8.799c-21.064-20.7-41.926-41.606-62.836-62.462c-1.287-1.284-2.409-2.734-4.003-4.561
		c-1.833,1.729-3.259,3.008-4.611,4.36c-34.259,34.258-68.453,68.582-102.785,102.768c-21.907,21.814-53.059,24.262-76.836,6.225
		c-2.631-1.996-5.04-4.316-7.387-6.652c-14.58-14.516-29.137-29.056-43.655-43.634c-24.889-24.993-24.879-59.577,0.077-84.575
		c34.112-34.17,68.284-68.281,102.425-102.424c1.266-1.266,2.47-2.594,3.914-4.116c-1.436-1.52-2.636-2.848-3.897-4.116
		c-21.186-21.284-42.442-42.5-63.507-63.903c-3.209-3.26-5.928-7.164-8.185-11.159c-2.83-5.01-1.35-8.631,4.167-10.444
		C223.94,2.62,228.574,1.988,233.09,1c79.355,0,158.711,0,238.066,0c3.594,0.369,7.179,0.868,10.782,1.086
		c17.61,1.067,24.622,7.213,27.493,24.531c0.779,4.7,1.06,9.482,1.569,14.226C511,120.863,511,200.883,511,280.902z"/>
	<path display="inline" d="M1,187.27c0.956-4.853,1.639-9.78,2.913-14.549c10.223-38.266,34.732-62.08,73.174-71.259
		c6.855-1.637,14.138-2.018,21.227-2.052c39.34-0.19,78.681-0.096,118.021-0.081c1.422,0.001,2.843,0.197,5.047,0.361
		c-1.401,1.632-2.249,2.761-3.237,3.75c-17.011,17.028-33.97,34.11-51.165,50.95c-1.864,1.825-5.107,3.118-7.731,3.152
		c-19.916,0.259-39.837,0.138-59.756,0.146c-15.913,0.006-28.595,6.101-35.639,20.769c-2.563,5.338-3.989,11.763-4.01,17.698
		c-0.265,72.538-0.229,145.078-0.14,217.618c0.028,22.667,15.94,38.501,38.659,38.526c72.373,0.078,144.747,0.075,217.12,0.002
		c23.082-0.023,38.546-15.753,38.787-39.435c0.198-19.419,0.11-38.843-0.017-58.263c-0.023-3.545,0.846-6.175,3.468-8.762
		c17.017-16.785,33.853-33.754,50.76-50.651c1.015-1.015,2.126-1.935,3.736-3.39c0.211,1.545,0.444,2.446,0.442,3.346
		c-0.081,41.994,0.316,83.997-0.425,125.98c-0.686,38.869-30.473,75.703-68.111,85.757c-6.376,1.703-12.924,2.761-19.393,4.117
		c-78.359,0-156.719,0-235.078,0c-1.447-0.325-2.88-0.742-4.343-0.96c-38.069-5.683-64.367-26.362-78.173-62.266
		c-3.103-8.069-4.146-16.93-6.137-25.426C1,343.988,1,265.629,1,187.27z"/>
	<path fill="#FFFFFF" d="M613.041,43.225c0.081,0.347,0.124,0.708,0.25,1.037c0.563,1.464,1.636,2.308,3.188,2.539
		c0.06,0.009,0.118,0.026,0.177,0.039c-1.202,0-2.404,0-3.616,0C613.041,45.635,613.041,44.43,613.041,43.225z"/>
	<path fill="#FFFFFF" d="M633.841,27.666c-0.021-0.193-0.032-0.389-0.064-0.58c-0.117-0.706-0.403-0.957-1.121-1
		c-0.147-0.009-0.293-0.029-0.44-0.044c0.542,0,1.083,0,1.625,0C633.841,26.582,633.841,27.124,633.841,27.666z"/>
</g>
</svg>
