<?xml version="1.0" encoding="utf-8"?>
<!-- Generator: Adobe Illustrator 17.0.0, SVG Export Plug-In . SVG Version: 6.00 Build 0)  -->
<!DOCTYPE svg PUBLIC "-//W3C//DTD SVG 1.1//EN" "http://www.w3.org/Graphics/SVG/1.1/DTD/svg11.dtd">
<svg version="1.1" id="Layer_1" xmlns="http://www.w3.org/2000/svg" xmlns:xlink="http://www.w3.org/1999/xlink" x="0px" y="0px"
	 width="512px" height="512px" viewBox="0 0 512 512" enable-background="new 0 0 512 512" xml:space="preserve">
<g>
	<line fill="none" stroke="#B35047" x1="32" y1="0" x2="32" y2="512"/>
	<line fill="none" stroke="#B35047" x1="64" y1="0" x2="64" y2="512"/>
	<line fill="none" stroke="#B35047" x1="96" y1="0" x2="96" y2="512"/>
	<line fill="none" stroke="#B35047" x1="128" y1="0" x2="128" y2="512"/>
	<line fill="none" stroke="#B35047" x1="160" y1="0" x2="160" y2="512"/>
	<line fill="none" stroke="#B35047" x1="192" y1="0" x2="192" y2="512"/>
	<line fill="none" stroke="#B35047" x1="224" y1="0" x2="224" y2="512"/>
	<line fill="none" stroke="#B35047" x1="256" y1="0" x2="256" y2="512"/>
	<line fill="none" stroke="#B35047" x1="288" y1="0" x2="288" y2="512"/>
	<line fill="none" stroke="#B35047" x1="320" y1="0" x2="320" y2="512"/>
	<line fill="none" stroke="#B35047" x1="352" y1="0" x2="352" y2="512"/>
	<line fill="none" stroke="#B35047" x1="384" y1="0" x2="384" y2="512"/>
	<line fill="none" stroke="#B35047" x1="416" y1="0" x2="416" y2="512"/>
	<line fill="none" stroke="#B35047" x1="448" y1="0" x2="448" y2="512"/>
	<line fill="none" stroke="#B35047" x1="480" y1="0" x2="480" y2="512"/>
	<line fill="none" stroke="#B35047" x1="0" y1="32" x2="512" y2="32"/>
	<line fill="none" stroke="#B35047" x1="0" y1="64" x2="512" y2="64"/>
	<line fill="none" stroke="#B35047" x1="0" y1="96" x2="512" y2="96"/>
	<line fill="none" stroke="#B35047" x1="0" y1="128" x2="512" y2="128"/>
	<line fill="none" stroke="#B35047" x1="0" y1="160" x2="512" y2="160"/>
	<line fill="none" stroke="#B35047" x1="0" y1="192" x2="512" y2="192"/>
	<line fill="none" stroke="#B35047" x1="0" y1="224" x2="512" y2="224"/>
	<line fill="none" stroke="#B35047" x1="0" y1="256" x2="512" y2="256"/>
	<line fill="none" stroke="#B35047" x1="0" y1="288" x2="512" y2="288"/>
	<line fill="none" stroke="#B35047" x1="0" y1="320" x2="512" y2="320"/>
	<line fill="none" stroke="#B35047" x1="0" y1="352" x2="512" y2="352"/>
	<line fill="none" stroke="#B35047" x1="0" y1="384" x2="512" y2="384"/>
	<line fill="none" stroke="#B35047" x1="0" y1="416" x2="512" y2="416"/>
	<line fill="none" stroke="#B35047" x1="0" y1="448" x2="512" y2="448"/>
	<line fill="none" stroke="#B35047" x1="0" y1="480" x2="512" y2="480"/>
	<rect x="0" fill="none" stroke="#B35047" width="512" height="512"/>
</g>
<image display="none" overflow="visible" width="512" height="512" xlink:href="../../../Knowledge/Icon/[+++++] (Full) Windows 8 Icons [icons8]/It_Infrastructure/cloud/cloud-512.png"  transform="matrix(0.0406 0 0 0.0406 570 59)">
</image>
<image display="none" overflow="visible" width="512" height="512" xlink:href="../../../Knowledge/Icon/[+++++] (Full) Windows 8 Icons [icons8]/It_Infrastructure/workstation/workstation-512.png"  transform="matrix(0.0406 0 0 0.0406 570 59)">
</image>
<g>
	<path display="none" fill="#FFFFFF" d="M570.041,59.041c6.933,0,13.867,0,20.8,0c0,6.933,0,13.867,0,20.8c-6.933,0-13.867,0-20.8,0
		C570.041,72.907,570.041,65.974,570.041,59.041z M580.219,61.437c-0.4,0.033-1.03,0.058-1.653,0.143
		c-2.197,0.3-4.211,1.087-6.007,2.389c-0.578,0.419-1.12,0.897-1.628,1.398c-0.383,0.377-0.345,1.021-0.001,1.452
		c0.345,0.433,0.949,0.596,1.418,0.33c0.289-0.164,0.536-0.405,0.794-0.621c2.346-1.962,5.043-2.854,8.096-2.66
		c1.604,0.102,3.109,0.551,4.523,1.309c0.864,0.463,1.649,1.036,2.363,1.706c0.29,0.272,0.626,0.435,1.029,0.381
		c0.482-0.064,0.831-0.328,0.985-0.795c0.164-0.497,0.036-0.938-0.346-1.293C587.161,62.726,584.04,61.498,580.219,61.437z
		 M587.547,69.2c-0.002-0.475-0.145-0.776-0.425-1.043c-1.055-1.003-2.264-1.746-3.646-2.213c-1.478-0.499-2.988-0.61-4.524-0.38
		c-1.357,0.203-2.608,0.697-3.755,1.444c-0.596,0.388-1.17,0.814-1.625,1.367c-0.294,0.357-0.324,0.78-0.128,1.203
		c0.184,0.398,0.5,0.624,0.94,0.675c0.415,0.048,0.752-0.11,1.045-0.389c0.759-0.724,1.623-1.28,2.621-1.614
		c2.373-0.793,4.585-0.461,6.627,0.976c0.358,0.252,0.669,0.57,1.023,0.829c0.375,0.274,0.792,0.289,1.206,0.079
		C587.332,69.918,587.528,69.554,587.547,69.2z M580.524,69.447c-0.863,0.01-1.616,0.154-2.33,0.473
		c-0.777,0.347-1.471,0.815-1.987,1.5c-0.278,0.369-0.289,0.792-0.074,1.206c0.202,0.39,0.527,0.601,0.969,0.634
		c0.453,0.033,0.777-0.19,1.086-0.491c0.803-0.78,1.766-1.07,2.869-0.869c0.696,0.127,1.263,0.484,1.76,0.981
		c0.519,0.52,1.231,0.52,1.739,0.029c0.438-0.424,0.443-1.183,0.001-1.653C583.442,70.072,582.064,69.48,580.524,69.447z
		 M580.422,76.477c0.794,0.015,1.448-0.624,1.459-1.428c0.011-0.78-0.622-1.427-1.421-1.452c-0.778-0.024-1.449,0.635-1.459,1.434
		C578.989,75.815,579.626,76.463,580.422,76.477z"/>
	<path d="M250.403,59.826c99.652,1.591,181.088,33.626,249.751,97.569c9.959,9.274,13.298,20.787,9.025,33.739
		c-4.012,12.162-13.11,19.048-25.693,20.727c-10.513,1.402-19.288-2.847-26.843-9.939c-18.633-17.49-39.117-32.43-61.645-44.515
		c-36.887-19.787-76.146-31.499-117.979-34.156c-79.642-5.059-150.005,18.214-211.204,69.39
		c-6.735,5.632-13.178,11.925-20.722,16.209c-12.232,6.946-27.983,2.683-36.986-8.612c-8.969-11.252-9.973-28.033,0.018-37.878
		c13.271-13.076,27.405-25.546,42.475-36.475c46.851-33.977,99.381-54.489,156.695-62.327
		C223.528,61.337,239.978,60.696,250.403,59.826z"/>
	<path d="M441.553,262.328c-0.503,9.236-5.622,18.724-16.725,24.357c-10.804,5.481-21.677,5.099-31.452-2.053
		c-9.233-6.754-17.353-15.053-26.697-21.628c-53.275-37.488-110.978-46.126-172.871-25.453
		c-26.042,8.699-48.572,23.208-68.37,42.095c-7.644,7.292-16.429,11.4-27.266,10.149c-11.466-1.324-19.712-7.217-24.522-17.609
		c-5.104-11.029-4.333-22.054,3.337-31.375c11.866-14.42,26.839-25.522,42.387-35.649c29.937-19.501,62.58-32.388,97.967-37.677
		c40.062-5.988,79.448-3.096,118.015,9.921c36.045,12.166,67.588,31.564,95.099,57.722
		C437.764,242.078,441.499,249.927,441.553,262.328z"/>
	<path d="M258.343,268.776c40.174,0.864,76.125,16.31,105.204,47.236c11.531,12.263,11.402,32.058-0.025,43.111
		c-13.258,12.824-31.829,12.821-45.363-0.746c-12.956-12.987-27.753-22.294-45.912-25.602c-28.772-5.242-53.896,2.308-74.846,22.665
		c-8.059,7.831-16.528,13.666-28.34,12.799c-11.52-0.846-19.989-6.358-25.266-16.534c-5.597-10.794-5.312-21.823,1.934-31.449
		c13.464-17.886,31.576-30.088,51.838-39.135C216.19,272.805,235.836,269.041,258.343,268.776z"/>
	<path d="M255.679,452.168c-20.748-0.387-37.362-17.279-37.088-37.71c0.28-20.851,17.777-38.048,38.074-37.42
		c20.838,0.645,37.364,17.528,37.075,37.876C293.442,435.877,276.405,452.554,255.679,452.168z"/>
</g>
<g display="none">
	<path display="inline" d="M92.641,1c108.906,0,217.813,0,326.719,0c0.553,0.317,1.075,0.827,1.664,0.922
		c9.898,1.598,17.945,6.407,24.737,13.698c12.836,13.779,20.28,30.72,27,47.789c12.135,30.826,23.237,62.06,34.756,93.128
		c0.606,1.634,1.084,3.316,1.231,3.77c-8.283-0.873-16.582-2.503-24.882-2.511c-148.552-0.154-297.103-0.128-445.655-0.081
		c-11.793,0.004-23.779-1.399-35.762,4.596c0.98-2.75,1.561-4.444,2.184-6.123c9.108-24.542,17.893-49.209,27.442-73.578
		c6.938-17.707,14.14-35.391,22.622-52.387C61.349,16.893,71.778,6.579,87.045,2.647C88.927,2.162,90.776,1.552,92.641,1z"/>
	<path display="inline" d="M1,259.984c0-22.246,0-44.492,0-66.738c4.547-12.549,14.01-15.803,26.587-15.785
		c152.275,0.22,304.551,0.22,456.826,0c12.577-0.018,22.04,3.235,26.587,15.785c0,22.246,0,44.492,0,66.738
		c-1.303,2.445-2.373,5.053-3.953,7.304c-4.936,7.035-12.262,8.269-20.236,8.266c-153.874-0.046-307.749-0.032-461.623-0.054
		c-2.48,0-4.978-0.153-7.436-0.48c-6.998-0.93-11.769-4.912-14.811-11.15C2.307,262.569,1.648,261.28,1,259.984z M442.184,197.113
		c-16.187,0.061-29.385,13.325-29.357,29.502c0.029,16.144,13.31,29.445,29.436,29.479c16.303,0.034,30.036-13.752,29.688-29.804
		C471.598,209.984,458.405,197.052,442.184,197.113z"/>
	<path display="inline" d="M511,310.785c0,22.246,0,44.492,0,66.738c-4.386,12.359-13.573,15.855-26.046,15.838
		c-152.636-0.21-305.273-0.21-457.909,0C14.573,393.379,5.386,389.883,1,377.523c0-22.246,0-44.492,0-66.738
		c1.313-2.434,2.403-5.023,3.98-7.272c5.078-7.243,12.651-8.211,20.754-8.209c153.511,0.048,307.022,0.033,460.534,0.051
		c2.483,0,4.979,0.12,7.445,0.394c7.211,0.801,12.186,4.744,15.321,11.179C509.664,308.226,510.343,309.5,511,310.785z
		 M442.266,373.719c16.224,0.017,29.441-13.002,29.687-29.244c0.244-16.069-13.558-29.869-29.771-29.767
		c-16.101,0.101-29.38,13.496-29.349,29.604C412.864,360.52,426.057,373.702,442.266,373.719z"/>
	<path display="inline" d="M511,429.32c0,21.914,0,43.828,0,65.742c-2.709,7.916-8.021,13.229-15.938,15.938
		c-159.375,0-318.75,0-478.125,0C9.021,508.291,3.709,502.979,1,495.063c0-21.914,0-43.828,0-65.742
		c1.38-2.805,2.424-5.846,4.204-8.368c4.844-6.86,12.056-7.832,19.862-7.828c153.956,0.072,307.912,0.053,461.868,0.06
		c1.989,0,3.985,0.014,5.966,0.167c7.649,0.588,12.939,4.584,16.186,11.42C509.791,426.256,510.366,427.803,511,429.32z
		 M442.484,491.394c16.225-0.084,29.486-13.335,29.473-29.449c-0.013-15.959-13.483-29.476-29.495-29.596
		c-16.181-0.122-29.852,13.667-29.614,29.871C413.088,478.557,426.213,491.478,442.484,491.394z"/>
	<path fill="#FFFFFF" d="M221.507,231.881c-0.185-0.512-0.571-0.645-1.084-0.644c-6.21,0.009-12.421,0.009-18.631,0
		c-0.513-0.001-0.899,0.132-1.084,0.644c0-2.609,0-5.218,0-7.841c1.246,0,2.492,0,3.737,0c-0.076,0.023-0.151,0.047-0.228,0.067
		c-0.623,0.16-1.048,0.581-1.319,1.125c-0.346,0.693-0.64,1.414-0.923,2.137c-0.389,0.994-0.748,2-1.119,3.001
		c-0.025,0.068-0.049,0.138-0.089,0.25c0.489-0.244,0.978-0.187,1.459-0.187c6.059-0.002,12.117-0.003,18.176,0.003
		c0.339,0,0.677,0.067,1.015,0.102c-0.006-0.019-0.025-0.087-0.05-0.154c-0.47-1.267-0.923-2.541-1.417-3.798
		c-0.274-0.696-0.578-1.387-1.101-1.949c-0.277-0.297-0.605-0.493-1.009-0.559c-0.024-0.004-0.045-0.025-0.068-0.038
		c1.244,0,2.487,0,3.738,0C221.507,226.654,221.507,229.268,221.507,231.881z"/>
	<path fill="#FFFFFF" d="M221.507,241.509c-0.026-0.062-0.049-0.125-0.078-0.186c-0.132-0.279-0.348-0.442-0.66-0.466
		c-0.081-0.006-0.162-0.007-0.243-0.007c-6.279,0-12.558,0-18.837-0.002c-0.318,0-0.612,0.039-0.81,0.319
		c-0.073,0.103-0.115,0.227-0.171,0.341c0-0.704,0-1.408,0-2.113c0.179,0.504,0.554,0.647,1.062,0.646
		c6.225-0.009,12.45-0.009,18.675,0c0.509,0.001,0.883-0.142,1.062-0.646C221.507,240.101,221.507,240.805,221.507,241.509z"/>
	<path fill="#FFFFFF" d="M221.507,236.675c-0.027-0.052-0.054-0.104-0.08-0.157c-0.128-0.262-0.331-0.423-0.625-0.456
		c-0.101-0.011-0.202-0.016-0.304-0.016c-6.261-0.001-12.522,0-18.783-0.002c-0.33,0-0.639,0.039-0.846,0.335
		c-0.064,0.092-0.109,0.197-0.162,0.297c0-0.691,0-1.381,0-2.072c0.026,0.053,0.053,0.105,0.079,0.159
		c0.124,0.254,0.319,0.417,0.604,0.455c0.1,0.013,0.202,0.02,0.303,0.02c6.276,0.001,12.551,0,18.827,0.002
		c0.325,0,0.624-0.05,0.825-0.337c0.064-0.092,0.108-0.198,0.161-0.298C221.507,235.294,221.507,235.984,221.507,236.675z"/>
	<path fill="#FFFFFF" d="M200.707,244.191c0.11,0.323,0.327,0.54,0.65,0.65c-0.217,0-0.433,0-0.65,0
		C200.707,244.624,200.707,244.407,200.707,244.191z"/>
	<path fill="#FFFFFF" d="M220.857,244.841c0.323-0.11,0.54-0.327,0.65-0.65c0,0.217,0,0.433,0,0.65
		C221.291,244.841,221.074,244.841,220.857,244.841z"/>
	<path fill="#FFFFFF" d="M218.701,232.039c0.662-0.003,1.2,0.525,1.214,1.19c0.014,0.655-0.546,1.217-1.211,1.216
		c-0.658-0.001-1.199-0.544-1.201-1.202C217.502,232.582,218.04,232.041,218.701,232.039z"/>
	<path fill="#FFFFFF" d="M218.704,239.242c-0.661-0.001-1.199-0.538-1.2-1.199c-0.001-0.657,0.54-1.203,1.197-1.207
		c0.661-0.004,1.224,0.559,1.214,1.214C219.905,238.711,219.366,239.242,218.704,239.242z"/>
	<path fill="#FFFFFF" d="M218.713,244.041c-0.664,0.003-1.199-0.524-1.209-1.19c-0.01-0.661,0.548-1.223,1.208-1.218
		c0.653,0.005,1.202,0.556,1.203,1.207C219.915,243.497,219.375,244.038,218.713,244.041z"/>
</g>
</svg>
